<svg width="344" height="124" viewBox="0 0 344 124" fill="none" xmlns="http://www.w3.org/2000/svg">
<g filter="url(#filter0_dd_4_1589)">
<rect x="10" y="6" width="324" height="104" rx="8" fill="#F6FAFB"/>
</g>
<g clip-path="url(#clip0_4_1589)">
<path d="M56.7555 46.5656C56.7555 48.382 55.2814 49.8445 53.4714 49.8445H46.8471C45.0278 49.8445 43.563 48.3727 43.563 46.5656V41.5354C43.563 39.719 45.0371 38.2565 46.8471 38.2565H53.4714C55.2814 38.2565 56.7555 39.7283 56.7555 41.5354V46.5656Z" fill="#EE5463"/>
<path d="M58.8549 37.7814C58.8549 39.5979 57.3807 41.0603 55.5707 41.0603H44.748C42.938 41.0603 41.4639 39.5885 41.4639 37.7814V34.2789C41.4639 32.4718 42.938 31 44.748 31H55.5707C57.3901 31 58.8549 32.4718 58.8549 34.2789V37.7814Z" fill="#91CECF"/>
<g opacity="0.5">
<path d="M45.485 39.1135C45.485 39.7842 44.9345 40.3338 44.2628 40.3338C43.591 40.3338 43.0405 39.7842 43.0405 39.1135V33.2822C43.0405 32.6115 43.591 32.0619 44.2628 32.0619C44.9438 32.0619 45.485 32.6115 45.485 33.2822V39.1135Z" fill="white"/>
<path d="M49.4127 39.1135C49.4127 39.7842 48.8622 40.3338 48.1905 40.3338C47.5187 40.3338 46.9683 39.7842 46.9683 39.1135V33.2822C46.9683 32.6115 47.5187 32.0619 48.1905 32.0619C48.8622 32.0619 49.4127 32.6115 49.4127 33.2822V39.1135Z" fill="white"/>
<path d="M53.3502 39.1135C53.3502 39.7842 52.7997 40.3338 52.128 40.3338C51.4562 40.3338 50.9058 39.7842 50.9058 39.1135V33.2822C50.9058 32.6115 51.4562 32.0619 52.128 32.0619C52.7997 32.0619 53.3502 32.6115 53.3502 33.2822V39.1135Z" fill="white"/>
<path d="M57.2779 39.1135C57.2779 39.7842 56.7275 40.3338 56.0557 40.3338C55.3746 40.3338 54.8335 39.7842 54.8335 39.1135V33.2822C54.8335 32.6115 55.384 32.0619 56.0557 32.0619C56.7275 32.0619 57.2779 32.6115 57.2779 33.2822V39.1135Z" fill="white"/>
</g>
<path d="M62.7548 48.2143V75.9921C62.7548 77.7992 61.2806 79.271 59.4706 79.271H40.8574C39.0474 79.271 37.5732 77.7992 37.5732 75.9921V48.2143C37.5732 46.3979 39.0474 44.9354 40.8574 44.9354H59.4706C61.2806 44.9354 62.7548 46.3979 62.7548 48.2143Z" fill="#EE5463"/>
<path d="M56.0559 52.816V61.209C56.0559 61.9355 55.4681 62.5224 54.7403 62.5224H37.5732V51.5026H54.7403C55.4587 51.5026 56.0559 52.0894 56.0559 52.816Z" fill="white"/>
<path d="M37.5732 59.9607V58.7498H51.0737C51.4095 58.7498 51.6801 59.0199 51.6801 59.3552C51.6801 59.6906 51.4095 59.9607 51.0737 59.9607H37.5732Z" fill="#F99746"/>
<path d="M37.5732 57.6226V56.4117H51.0737C51.4095 56.4117 51.6801 56.6818 51.6801 57.0172C51.6801 57.3525 51.4095 57.6226 51.0737 57.6226H37.5732Z" fill="#F99746"/>
<path d="M37.5732 55.2752V54.0643H51.0737C51.4095 54.0643 51.6801 54.3344 51.6801 54.6697C51.6801 55.0051 51.4095 55.2752 51.0737 55.2752H37.5732Z" fill="#F99746"/>
<path d="M61.5328 76.6441C61.5328 77.3707 60.945 77.9575 60.2172 77.9575H39.8873C39.1596 77.9575 38.5718 77.3707 38.5718 76.6441V75.9362C38.5718 75.2096 39.1596 74.6227 39.8873 74.6227H60.2172C60.945 74.6227 61.5328 75.2096 61.5328 75.9362V76.6441Z" fill="#DE2E40"/>
<path d="M74.7434 57.7717V83.6864C74.7434 84.2639 74.2769 84.7297 73.6984 84.7297H50.6348C50.0563 84.7297 49.5898 84.2546 49.5898 83.6864V57.7717C49.5898 57.1941 50.0563 56.7284 50.6348 56.7284H73.6984C74.2769 56.7284 74.7434 57.1941 74.7434 57.7717Z" fill="#2B478B"/>
<path d="M71.3288 80.4726C71.3288 80.985 70.9089 81.3948 70.4051 81.3948H56.7181C56.205 81.3948 55.7944 80.985 55.7944 80.4726V56.3744C55.7944 55.8621 56.2143 55.4522 56.7181 55.4522H70.4051C70.9183 55.4522 71.3288 55.8714 71.3288 56.3744V80.4726Z" fill="#233862"/>
<path d="M76.9548 59.1317C76.9548 59.7092 76.4883 60.175 75.9098 60.175H48.4331C47.8547 60.175 47.3882 59.7092 47.3882 59.1317V54.3251C47.3882 53.7475 47.8547 53.2818 48.4331 53.2818H75.9098C76.4883 53.2818 76.9548 53.7475 76.9548 54.3251V59.1317Z" fill="#F99746"/>
<path d="M74.7437 64.3668V76.3274H60.6182C60.0397 76.3274 59.5732 75.8617 59.5732 75.2841V65.4101C59.5732 64.8325 60.0397 64.3668 60.6182 64.3668H74.7437Z" fill="white"/>
<path d="M74.7437 66.7794V68.3164H62.932C62.5122 68.3164 62.167 67.9717 62.167 67.5526C62.167 67.1241 62.5122 66.7794 62.932 66.7794H74.7437Z" fill="#808080"/>
<path d="M74.7437 69.7416V71.2786H62.932C62.5122 71.2786 62.167 70.9339 62.167 70.5148C62.167 70.0956 62.5122 69.7509 62.932 69.7509H74.7437V69.7416Z" fill="#808080"/>
<path d="M74.7437 72.7038V74.2315H62.932C62.5122 74.2315 62.167 73.8868 62.167 73.4677C62.167 73.0485 62.5122 72.7038 62.932 72.7038H74.7437Z" fill="#808080"/>
<path d="M50.1592 58.7125C50.1592 59.0479 49.8886 59.318 49.5527 59.318C49.2169 59.318 48.9463 59.0479 48.9463 58.7125V54.707C48.9463 54.3717 49.2169 54.1015 49.5527 54.1015C49.8886 54.1015 50.1592 54.3717 50.1592 54.707V58.7125Z" fill="#EE842D"/>
<path d="M52.6968 58.7125C52.6968 59.0479 52.4262 59.318 52.0903 59.318C51.7545 59.318 51.4839 59.0479 51.4839 58.7125V54.707C51.4839 54.3717 51.7545 54.1015 52.0903 54.1015C52.4262 54.1015 52.6968 54.3717 52.6968 54.707V58.7125Z" fill="#EE842D"/>
<path d="M55.2441 58.7125C55.2441 59.0479 54.9736 59.318 54.6377 59.318C54.3018 59.318 54.0312 59.0479 54.0312 58.7125V54.707C54.0312 54.3717 54.3018 54.1015 54.6377 54.1015C54.9736 54.1015 55.2441 54.3717 55.2441 54.707V58.7125Z" fill="#EE842D"/>
<path d="M57.7817 58.7125C57.7817 59.0479 57.5112 59.318 57.1753 59.318C56.8394 59.318 56.5688 59.0479 56.5688 58.7125V54.707C56.5688 54.3717 56.8394 54.1015 57.1753 54.1015C57.5112 54.1015 57.7817 54.3717 57.7817 54.707V58.7125Z" fill="#EE842D"/>
<path d="M60.3193 58.7125C60.3193 59.0479 60.0488 59.318 59.7129 59.318C59.377 59.318 59.1064 59.0479 59.1064 58.7125V54.707C59.1064 54.3717 59.377 54.1015 59.7129 54.1015C60.0488 54.1015 60.3193 54.3717 60.3193 54.707V58.7125Z" fill="#EE842D"/>
<path d="M62.8574 58.7125C62.8574 59.0479 62.5869 59.318 62.251 59.318C61.9151 59.318 61.6445 59.0479 61.6445 58.7125V54.707C61.6445 54.3717 61.9151 54.1015 62.251 54.1015C62.5869 54.1015 62.8574 54.3717 62.8574 54.707V58.7125Z" fill="#EE842D"/>
<path d="M65.395 58.7125C65.395 59.0479 65.1245 59.318 64.7886 59.318C64.4527 59.318 64.1821 59.0479 64.1821 58.7125V54.707C64.1821 54.3717 64.4527 54.1015 64.7886 54.1015C65.1245 54.1015 65.395 54.3717 65.395 54.707V58.7125Z" fill="#EE842D"/>
<path d="M67.9326 58.7125C67.9326 59.0479 67.6621 59.318 67.3262 59.318C66.9903 59.318 66.7197 59.0479 66.7197 58.7125V54.707C66.7197 54.3717 66.9903 54.1015 67.3262 54.1015C67.6621 54.1015 67.9326 54.3717 67.9326 54.707V58.7125Z" fill="#EE842D"/>
<path d="M70.48 58.7125C70.48 59.0479 70.2094 59.318 69.8735 59.318C69.5377 59.318 69.2671 59.0479 69.2671 58.7125V54.707C69.2671 54.3717 69.5377 54.1015 69.8735 54.1015C70.2094 54.1015 70.48 54.3717 70.48 54.707V58.7125Z" fill="#EE842D"/>
<path d="M73.0176 58.7125C73.0176 59.0479 72.747 59.318 72.4111 59.318C72.0753 59.318 71.8047 59.0479 71.8047 58.7125V54.707C71.8047 54.3717 72.0753 54.1015 72.4111 54.1015C72.747 54.1015 73.0176 54.3717 73.0176 54.707V58.7125Z" fill="#EE842D"/>
<path d="M75.5552 58.7125C75.5552 59.0479 75.2846 59.318 74.9487 59.318C74.6129 59.318 74.3423 59.0479 74.3423 58.7125V54.707C74.3423 54.3717 74.6129 54.1015 74.9487 54.1015C75.2846 54.1015 75.5552 54.3717 75.5552 54.707V58.7125Z" fill="#EE842D"/>
<path d="M36.4444 74.7438L44.2069 74.4923C45.5971 74.4457 46.7633 75.5449 46.81 76.9329C46.8286 77.6222 46.5767 78.2649 46.1289 78.74C45.6904 79.2058 45.0653 79.5132 44.3655 79.5318L36.603 79.7833C35.2129 79.8299 34.0466 78.74 34 77.3427C33.9813 76.6441 34.2425 76.0107 34.681 75.5356C35.1289 75.0699 35.7447 74.7718 36.4444 74.7438Z" fill="#2B478B"/>
<path d="M36.4444 74.7438L40.3257 74.6227L40.4843 79.6622L36.603 79.7833C35.2129 79.8299 34.0466 78.74 34 77.3427C33.9813 76.6441 34.2425 76.0107 34.681 75.5356C35.1289 75.0699 35.7447 74.7718 36.4444 74.7438Z" fill="#233862"/>
<path d="M69.6495 84.3664C69.6495 84.5899 69.4629 84.7762 69.239 84.7762H61.5511C61.3272 84.7762 61.1406 84.5899 61.1406 84.3664V83.5746C61.1406 83.351 61.3272 83.1647 61.5511 83.1647H69.239C69.4629 83.1647 69.6495 83.351 69.6495 83.5746V84.3664Z" fill="white"/>
<path d="M64.8819 84.0124C64.8819 84.236 64.6953 84.4223 64.4714 84.4223H61.5511C61.3272 84.4223 61.1406 84.236 61.1406 84.0124V82.5406C61.1406 82.317 61.3272 82.1307 61.5511 82.1307H64.4714C64.6953 82.1307 64.8819 82.317 64.8819 82.5406V84.0124Z" fill="#91CECF"/>
<path d="M69.6495 84.0124C69.6495 84.236 69.4629 84.4223 69.239 84.4223H66.3187C66.0948 84.4223 65.9082 84.236 65.9082 84.0124V82.5406C65.9082 82.317 66.0948 82.1307 66.3187 82.1307H69.239C69.4629 82.1307 69.6495 82.317 69.6495 82.5406V84.0124Z" fill="#91CECF"/>
<path d="M76.6098 84.3291C75.145 85.596 73.0178 85.6053 71.5437 84.4688C71.3291 84.3105 71.1332 84.1148 70.9466 83.9099C70.7693 83.6957 70.6107 83.4721 70.4801 83.2392C69.5751 81.6184 69.9016 79.5225 71.3664 78.265C72.8312 76.9981 74.9491 76.9888 76.4232 78.1159C76.6378 78.2836 76.8338 78.4699 77.0204 78.6841C77.207 78.8984 77.3562 79.1219 77.4962 79.3548C78.4012 80.985 78.0746 83.0716 76.6098 84.3291Z" fill="#91CECF"/>
<path d="M77.4961 79.3548L71.5996 84.4222C71.5809 84.4409 71.5623 84.4595 71.5436 84.4688C71.329 84.3105 71.1331 84.1148 70.9465 83.9099C70.7692 83.6957 70.6106 83.4721 70.48 83.2392C70.4986 83.2206 70.5173 83.202 70.536 83.1926L76.4325 78.1159C76.6471 78.2836 76.843 78.4699 77.0296 78.6841C77.2069 78.8891 77.3655 79.1219 77.4961 79.3548Z" fill="white"/>
</g>
<path d="M104.408 45V37.419H102.602V36.264C103.181 36.264 103.647 36.2103 104.002 36.103C104.361 35.991 104.63 35.8323 104.807 35.627C104.984 35.417 105.089 35.1673 105.122 34.878H106.48V45H104.408ZM112.51 34.738C113.714 34.738 114.664 35.1883 115.359 36.089C116.055 36.985 116.402 38.2753 116.402 39.96C116.402 41.6353 116.059 42.921 115.373 43.817C114.687 44.7083 113.733 45.154 112.51 45.154C111.283 45.154 110.324 44.7083 109.633 43.817C108.947 42.9257 108.604 41.6423 108.604 39.967C108.604 38.847 108.763 37.8973 109.08 37.118C109.398 36.3387 109.848 35.7483 110.431 35.347C111.015 34.941 111.708 34.738 112.51 34.738ZM112.51 43.481C113.112 43.481 113.553 43.2127 113.833 42.676C114.113 42.1347 114.253 41.2317 114.253 39.967C114.253 38.6743 114.111 37.748 113.826 37.188C113.542 36.628 113.101 36.348 112.503 36.348C111.906 36.348 111.46 36.6303 111.166 37.195C110.877 37.7597 110.732 38.6837 110.732 39.967C110.732 41.227 110.877 42.1277 111.166 42.669C111.456 43.2103 111.904 43.481 112.51 43.481ZM121.493 34.738C122.697 34.738 123.646 35.1883 124.342 36.089C125.037 36.985 125.385 38.2753 125.385 39.96C125.385 41.6353 125.042 42.921 124.356 43.817C123.67 44.7083 122.715 45.154 121.493 45.154C120.265 45.154 119.306 44.7083 118.616 43.817C117.93 42.9257 117.587 41.6423 117.587 39.967C117.587 38.847 117.745 37.8973 118.063 37.118C118.38 36.3387 118.83 35.7483 119.414 35.347C119.997 34.941 120.69 34.738 121.493 34.738ZM121.493 43.481C122.095 43.481 122.536 43.2127 122.816 42.676C123.096 42.1347 123.236 41.2317 123.236 39.967C123.236 38.6743 123.093 37.748 122.809 37.188C122.524 36.628 122.083 36.348 121.486 36.348C120.888 36.348 120.443 36.6303 120.149 37.195C119.859 37.7597 119.715 38.6837 119.715 39.967C119.715 41.227 119.859 42.1277 120.149 42.669C120.438 43.2103 120.886 43.481 121.493 43.481ZM132.174 34.724C132.655 34.724 133.086 34.8523 133.469 35.109C133.852 35.3657 134.155 35.7133 134.379 36.152C134.603 36.5907 134.715 37.0807 134.715 37.622C134.715 38.1587 134.605 38.6417 134.386 39.071C134.167 39.5003 133.863 39.841 133.476 40.093C133.093 40.3403 132.659 40.464 132.174 40.464C131.689 40.464 131.252 40.3403 130.865 40.093C130.478 39.841 130.172 39.5003 129.948 39.071C129.724 38.6417 129.612 38.1587 129.612 37.622C129.612 37.0807 129.724 36.5907 129.948 36.152C130.177 35.7133 130.485 35.3657 130.872 35.109C131.259 34.8523 131.693 34.724 132.174 34.724ZM132.16 39.428C132.529 39.428 132.795 39.2693 132.958 38.952C133.126 38.63 133.21 38.1867 133.21 37.622C133.21 37.0387 133.124 36.5813 132.951 36.25C132.778 35.9187 132.515 35.753 132.16 35.753C131.927 35.753 131.733 35.83 131.579 35.984C131.425 36.1333 131.308 36.348 131.229 36.628C131.154 36.908 131.117 37.2393 131.117 37.622C131.117 38.182 131.201 38.623 131.369 38.945C131.537 39.267 131.801 39.428 132.16 39.428ZM138.817 39.386C139.298 39.386 139.729 39.5167 140.112 39.778C140.499 40.0347 140.805 40.3823 141.029 40.821C141.253 41.2597 141.365 41.7473 141.365 42.284C141.365 42.8207 141.255 43.306 141.036 43.74C140.817 44.1693 140.513 44.51 140.126 44.762C139.743 45.014 139.307 45.14 138.817 45.14C138.327 45.14 137.888 45.014 137.501 44.762C137.114 44.51 136.808 44.1693 136.584 43.74C136.36 43.306 136.248 42.8207 136.248 42.284C136.248 41.7473 136.36 41.2597 136.584 40.821C136.813 40.3823 137.121 40.0347 137.508 39.778C137.9 39.5167 138.336 39.386 138.817 39.386ZM138.803 44.083C139.041 44.083 139.237 44.0107 139.391 43.866C139.545 43.7213 139.659 43.516 139.734 43.25C139.813 42.9793 139.853 42.662 139.853 42.298C139.853 41.9107 139.813 41.5793 139.734 41.304C139.655 41.024 139.538 40.8093 139.384 40.66C139.23 40.506 139.036 40.429 138.803 40.429C138.57 40.429 138.376 40.506 138.222 40.66C138.073 40.8093 137.958 41.024 137.879 41.304C137.804 41.584 137.767 41.9153 137.767 42.298C137.767 42.662 137.804 42.9793 137.879 43.25C137.954 43.516 138.068 43.7213 138.222 43.866C138.376 44.0107 138.57 44.083 138.803 44.083ZM139.398 34.766L132.594 45.056L131.39 45.035L138.215 34.766H139.398ZM150.421 45.14C149.464 45.14 148.636 44.9323 147.936 44.517C147.241 44.097 146.702 43.502 146.319 42.732C145.941 41.9573 145.752 41.0333 145.752 39.96C145.752 38.882 145.943 37.9533 146.326 37.174C146.713 36.3947 147.257 35.795 147.957 35.375C148.657 34.9503 149.478 34.738 150.421 34.738C151.359 34.738 152.176 34.948 152.871 35.368C153.566 35.788 154.103 36.3877 154.481 37.167C154.864 37.9463 155.055 38.8773 155.055 39.96C155.055 41.0287 154.866 41.9503 154.488 42.725C154.115 43.4997 153.58 44.097 152.885 44.517C152.19 44.9323 151.368 45.14 150.421 45.14ZM150.421 43.46C150.916 43.46 151.343 43.3433 151.702 43.11C152.066 42.872 152.346 42.4987 152.542 41.99C152.738 41.4767 152.836 40.8093 152.836 39.988C152.836 39.1433 152.736 38.4597 152.535 37.937C152.339 37.4143 152.059 37.0317 151.695 36.789C151.336 36.5417 150.911 36.418 150.421 36.418C149.931 36.418 149.504 36.5417 149.14 36.789C148.776 37.0317 148.494 37.4167 148.293 37.944C148.092 38.4667 147.992 39.148 147.992 39.988C147.992 40.814 148.092 41.4813 148.293 41.99C148.494 42.4987 148.776 42.872 149.14 43.11C149.504 43.3433 149.931 43.46 150.421 43.46ZM160.446 45.14C160.087 45.14 159.776 45.0933 159.515 45C159.254 44.9067 159.032 44.783 158.85 44.629C158.668 44.4703 158.519 44.2953 158.402 44.104C158.285 43.9127 158.194 43.7167 158.129 43.516L157.898 45H156.414V34.598H158.465V38.742C158.554 38.588 158.668 38.4433 158.808 38.308C158.948 38.1727 159.111 38.0537 159.298 37.951C159.485 37.8483 159.69 37.769 159.914 37.713C160.143 37.6523 160.385 37.622 160.642 37.622C161.543 37.622 162.247 37.9463 162.756 38.595C163.269 39.2437 163.526 40.1583 163.526 41.339C163.526 42.1043 163.409 42.7717 163.176 43.341C162.943 43.9103 162.597 44.3537 162.14 44.671C161.683 44.9837 161.118 45.14 160.446 45.14ZM159.998 43.67C160.437 43.67 160.801 43.4903 161.09 43.131C161.384 42.767 161.531 42.1603 161.531 41.311C161.531 40.5597 161.391 40.0043 161.111 39.645C160.836 39.2857 160.46 39.106 159.984 39.106C159.643 39.106 159.361 39.1877 159.137 39.351C158.913 39.5097 158.745 39.7523 158.633 40.079C158.526 40.4057 158.47 40.8163 158.465 41.311C158.465 42.165 158.591 42.7717 158.843 43.131C159.1 43.4903 159.485 43.67 159.998 43.67ZM166.95 45.14C166.488 45.14 166.072 45.0537 165.704 44.881C165.335 44.7083 165.043 44.4587 164.829 44.132C164.614 43.8007 164.507 43.3993 164.507 42.928C164.507 42.1347 164.803 41.5327 165.396 41.122C165.988 40.7067 166.924 40.492 168.203 40.478L169.106 40.464V40.03C169.106 39.6987 169.008 39.4443 168.812 39.267C168.62 39.085 168.322 38.9963 167.916 39.001C167.617 39.0057 167.332 39.0757 167.062 39.211C166.796 39.3463 166.614 39.582 166.516 39.918H164.815C164.843 39.3953 164.994 38.966 165.27 38.63C165.545 38.2893 165.918 38.0373 166.39 37.874C166.866 37.706 167.405 37.622 168.007 37.622C168.749 37.622 169.344 37.7153 169.792 37.902C170.24 38.084 170.564 38.3477 170.765 38.693C170.965 39.0337 171.066 39.4397 171.066 39.911V45H169.358L169.19 43.754C168.942 44.2767 168.632 44.6383 168.259 44.839C167.89 45.0397 167.454 45.14 166.95 45.14ZM167.636 43.796C167.822 43.796 168.002 43.7633 168.175 43.698C168.352 43.628 168.508 43.537 168.644 43.425C168.784 43.3083 168.896 43.1777 168.98 43.033C169.064 42.8883 169.106 42.739 169.106 42.585V41.514L168.371 41.528C168.03 41.5327 167.713 41.5747 167.419 41.654C167.125 41.7287 166.887 41.8523 166.705 42.025C166.527 42.1977 166.439 42.431 166.439 42.725C166.439 43.061 166.555 43.3247 166.789 43.516C167.022 43.7027 167.304 43.796 167.636 43.796ZM176.971 39.183H175.361L175.375 43.04C175.375 43.2173 175.396 43.3503 175.438 43.439C175.484 43.523 175.554 43.579 175.648 43.607C175.746 43.6303 175.869 43.642 176.019 43.642H176.992V44.902C176.898 44.944 176.751 44.9837 176.551 45.021C176.355 45.0583 176.079 45.077 175.725 45.077C175.09 45.077 174.598 44.9953 174.248 44.832C173.902 44.6687 173.662 44.44 173.527 44.146C173.391 43.852 173.324 43.5113 173.324 43.124V39.183H172.148V37.762H173.394L173.905 35.578H175.361V37.755H176.971V39.183ZM180.957 45L184.583 34.878H186.739L190.358 45H188.321L187.495 42.655H183.855L183.008 45H180.957ZM184.31 40.87H187.005L185.668 36.852L184.31 40.87ZM194.386 45.14C193.882 45.14 193.397 45.0583 192.93 44.895C192.464 44.727 192.069 44.4657 191.747 44.111C191.425 43.7517 191.22 43.2873 191.131 42.718H192.902C192.963 42.9747 193.073 43.1777 193.231 43.327C193.395 43.4763 193.579 43.5837 193.784 43.649C193.99 43.7097 194.186 43.74 194.372 43.74C194.764 43.74 195.079 43.6793 195.317 43.558C195.56 43.432 195.681 43.2407 195.681 42.984C195.681 42.788 195.609 42.6317 195.464 42.515C195.324 42.3983 195.091 42.3097 194.764 42.249L193.49 41.983C192.851 41.8477 192.338 41.619 191.95 41.297C191.563 40.9703 191.365 40.5083 191.355 39.911C191.355 39.477 191.47 39.0873 191.698 38.742C191.932 38.3967 192.275 38.1237 192.727 37.923C193.18 37.7223 193.735 37.622 194.393 37.622C195.285 37.622 195.996 37.818 196.528 38.21C197.065 38.602 197.338 39.155 197.347 39.869H195.639C195.588 39.589 195.448 39.3743 195.219 39.225C194.995 39.071 194.713 38.994 194.372 38.994C194.018 38.994 193.726 39.057 193.497 39.183C193.269 39.309 193.154 39.5003 193.154 39.757C193.154 39.9483 193.248 40.1 193.434 40.212C193.621 40.3193 193.91 40.4127 194.302 40.492L195.478 40.758C195.884 40.856 196.213 40.9913 196.465 41.164C196.722 41.332 196.92 41.5163 197.06 41.717C197.2 41.9177 197.296 42.1207 197.347 42.326C197.403 42.5267 197.431 42.7087 197.431 42.872C197.431 43.3527 197.303 43.7633 197.046 44.104C196.79 44.44 196.433 44.6967 195.975 44.874C195.518 45.0513 194.988 45.14 194.386 45.14ZM201.175 45.126C200.643 45.126 200.221 45.063 199.908 44.937C199.596 44.811 199.365 44.6453 199.215 44.44C199.066 44.23 198.97 43.999 198.928 43.747C198.886 43.4903 198.865 43.2313 198.865 42.97V34.598H200.867V42.718C200.867 42.984 200.923 43.201 201.035 43.369C201.152 43.5323 201.369 43.6327 201.686 43.67L202.029 43.691V44.951C201.889 44.9977 201.747 45.0373 201.602 45.07C201.458 45.1073 201.315 45.126 201.175 45.126ZM205.421 37.762V45H203.468V37.762H205.421ZM205.442 34.885V36.726H203.454V34.885H205.442Z" fill="#213360"/>
<path d="M106.092 66.12C105.684 66.12 105.288 66.07 104.904 65.97C104.52 65.866 104.172 65.712 103.86 65.508C103.548 65.304 103.288 65.052 103.08 64.752C102.876 64.448 102.748 64.096 102.696 63.696H103.86C103.932 64.024 104.074 64.3 104.286 64.524C104.502 64.748 104.764 64.916 105.072 65.028C105.384 65.14 105.722 65.196 106.086 65.196C106.494 65.196 106.858 65.14 107.178 65.028C107.502 64.912 107.756 64.748 107.94 64.536C108.128 64.324 108.222 64.07 108.222 63.774C108.222 63.514 108.162 63.288 108.042 63.096C107.926 62.904 107.756 62.744 107.532 62.616C107.308 62.488 107.036 62.388 106.716 62.316L105.012 61.92C104.372 61.78 103.87 61.53 103.506 61.17C103.146 60.81 102.962 60.334 102.954 59.742C102.954 59.242 103.086 58.802 103.35 58.422C103.618 58.042 103.984 57.746 104.448 57.534C104.916 57.322 105.45 57.216 106.05 57.216C106.742 57.216 107.324 57.334 107.796 57.57C108.268 57.806 108.624 58.116 108.864 58.5C109.104 58.884 109.226 59.294 109.23 59.73H108.084C108.048 59.338 107.932 59.028 107.736 58.8C107.544 58.568 107.302 58.404 107.01 58.308C106.718 58.208 106.4 58.158 106.056 58.158C105.808 58.158 105.568 58.19 105.336 58.254C105.108 58.314 104.902 58.406 104.718 58.53C104.538 58.654 104.394 58.808 104.286 58.992C104.178 59.176 104.124 59.39 104.124 59.634C104.124 59.946 104.23 60.2 104.442 60.396C104.658 60.592 105.048 60.76 105.612 60.9L107.262 61.296C107.694 61.388 108.046 61.524 108.318 61.704C108.594 61.884 108.806 62.088 108.954 62.316C109.106 62.544 109.21 62.782 109.266 63.03C109.326 63.278 109.356 63.522 109.356 63.762C109.356 64.198 109.226 64.596 108.966 64.956C108.706 65.312 108.332 65.596 107.844 65.808C107.36 66.016 106.776 66.12 106.092 66.12ZM111.796 63.156C111.796 63.548 111.86 63.904 111.988 64.224C112.12 64.54 112.318 64.792 112.582 64.98C112.85 65.168 113.184 65.262 113.584 65.262C113.98 65.262 114.32 65.17 114.604 64.986C114.892 64.802 115.076 64.536 115.156 64.188H116.206C116.13 64.608 115.962 64.962 115.702 65.25C115.442 65.538 115.128 65.756 114.76 65.904C114.392 66.048 114.008 66.12 113.608 66.12C113.028 66.12 112.518 65.994 112.078 65.742C111.638 65.49 111.294 65.128 111.046 64.656C110.798 64.184 110.674 63.618 110.674 62.958C110.674 62.306 110.786 61.734 111.01 61.242C111.234 60.75 111.558 60.366 111.982 60.09C112.41 59.814 112.924 59.676 113.524 59.676C114.108 59.676 114.602 59.802 115.006 60.054C115.41 60.306 115.716 60.662 115.924 61.122C116.136 61.578 116.242 62.12 116.242 62.748V63.156H111.796ZM111.802 62.406H115.174C115.174 62.05 115.114 61.73 114.994 61.446C114.874 61.158 114.69 60.932 114.442 60.768C114.198 60.6 113.89 60.516 113.518 60.516C113.13 60.516 112.808 60.61 112.552 60.798C112.3 60.982 112.11 61.22 111.982 61.512C111.858 61.8 111.798 62.098 111.802 62.406ZM117.766 66V59.796H118.834V60.696C119.006 60.424 119.242 60.186 119.542 59.982C119.842 59.778 120.232 59.676 120.712 59.676C120.936 59.676 121.164 59.714 121.396 59.79C121.632 59.866 121.848 59.98 122.044 60.132C122.24 60.284 122.392 60.47 122.5 60.69C122.692 60.386 122.952 60.142 123.28 59.958C123.608 59.77 123.978 59.676 124.39 59.676C124.606 59.676 124.832 59.71 125.068 59.778C125.304 59.842 125.522 59.958 125.722 60.126C125.926 60.29 126.092 60.52 126.22 60.816C126.348 61.108 126.412 61.484 126.412 61.944V66H125.296V62.052C125.296 61.676 125.236 61.386 125.116 61.182C124.996 60.974 124.838 60.828 124.642 60.744C124.45 60.66 124.244 60.618 124.024 60.618C123.832 60.618 123.628 60.656 123.412 60.732C123.196 60.808 123.012 60.936 122.86 61.116C122.708 61.296 122.632 61.542 122.632 61.854V66H121.528V61.728C121.528 61.484 121.462 61.28 121.33 61.116C121.202 60.952 121.04 60.828 120.844 60.744C120.652 60.66 120.46 60.618 120.268 60.618C120.056 60.618 119.842 60.66 119.626 60.744C119.414 60.828 119.234 60.962 119.086 61.146C118.942 61.326 118.87 61.562 118.87 61.854V66H117.766ZM130.335 66.12C130.011 66.116 129.705 66.07 129.417 65.982C129.133 65.89 128.881 65.756 128.661 65.58C128.441 65.404 128.267 65.186 128.139 64.926C128.015 64.662 127.953 64.356 127.953 64.008V59.796H129.063V63.894C129.063 64.298 129.187 64.626 129.435 64.878C129.687 65.13 130.065 65.256 130.569 65.256C131.025 65.256 131.391 65.138 131.667 64.902C131.947 64.662 132.087 64.306 132.087 63.834V59.796H133.191V66H132.309L132.195 64.812C132.119 65.124 131.989 65.376 131.805 65.568C131.625 65.76 131.407 65.902 131.151 65.994C130.899 66.082 130.627 66.124 130.335 66.12ZM136.638 66.12C136.238 66.12 135.884 66.05 135.576 65.91C135.268 65.766 135.026 65.56 134.85 65.292C134.678 65.024 134.592 64.7 134.592 64.32C134.592 63.632 134.832 63.12 135.312 62.784C135.792 62.448 136.562 62.268 137.622 62.244L138.732 62.214V61.728C138.732 61.348 138.618 61.048 138.39 60.828C138.162 60.604 137.808 60.492 137.328 60.492C136.972 60.496 136.658 60.58 136.386 60.744C136.118 60.908 135.944 61.176 135.864 61.548H134.886C134.91 61.144 135.024 60.804 135.228 60.528C135.432 60.248 135.716 60.036 136.08 59.892C136.448 59.748 136.882 59.676 137.382 59.676C137.922 59.676 138.37 59.752 138.726 59.904C139.086 60.056 139.354 60.28 139.53 60.576C139.71 60.872 139.8 61.236 139.8 61.668V66H138.852L138.774 64.836C138.534 65.32 138.228 65.656 137.856 65.844C137.488 66.028 137.082 66.12 136.638 66.12ZM136.974 65.322C137.182 65.322 137.388 65.284 137.592 65.208C137.8 65.132 137.99 65.03 138.162 64.902C138.334 64.77 138.47 64.624 138.57 64.464C138.674 64.3 138.728 64.132 138.732 63.96V62.898L137.808 62.916C137.336 62.924 136.94 62.972 136.62 63.06C136.304 63.148 136.066 63.286 135.906 63.474C135.75 63.662 135.672 63.908 135.672 64.212C135.672 64.56 135.792 64.832 136.032 65.028C136.276 65.224 136.59 65.322 136.974 65.322ZM144.461 67.932V59.796H145.565L145.577 60.876C145.649 60.748 145.741 60.614 145.853 60.474C145.969 60.334 146.109 60.204 146.273 60.084C146.441 59.964 146.635 59.866 146.855 59.79C147.079 59.714 147.333 59.676 147.617 59.676C148.113 59.676 148.549 59.79 148.925 60.018C149.305 60.242 149.601 60.586 149.813 61.05C150.025 61.514 150.131 62.102 150.131 62.814C150.131 63.526 150.027 64.128 149.819 64.62C149.615 65.108 149.319 65.48 148.931 65.736C148.543 65.992 148.075 66.12 147.527 66.12C147.251 66.12 147.005 66.08 146.789 66C146.577 65.924 146.391 65.824 146.231 65.7C146.075 65.572 145.943 65.436 145.835 65.292C145.731 65.148 145.645 65.01 145.577 64.878V67.932H144.461ZM147.317 65.256C147.829 65.256 148.247 65.062 148.571 64.674C148.895 64.282 149.057 63.674 149.057 62.85C149.057 62.142 148.909 61.58 148.613 61.164C148.317 60.748 147.885 60.54 147.317 60.54C146.741 60.54 146.305 60.754 146.009 61.182C145.713 61.606 145.565 62.162 145.565 62.85C145.565 63.294 145.631 63.698 145.763 64.062C145.895 64.426 146.091 64.716 146.351 64.932C146.611 65.148 146.933 65.256 147.317 65.256ZM151.586 66V59.796H152.642V60.99C152.746 60.694 152.892 60.45 153.08 60.258C153.268 60.062 153.482 59.916 153.722 59.82C153.966 59.724 154.218 59.676 154.478 59.676C154.57 59.676 154.66 59.682 154.748 59.694C154.836 59.706 154.904 59.726 154.952 59.754V60.828C154.892 60.8 154.814 60.782 154.718 60.774C154.626 60.762 154.548 60.756 154.484 60.756C154.236 60.74 154.004 60.756 153.788 60.804C153.572 60.848 153.382 60.926 153.218 61.038C153.054 61.15 152.924 61.298 152.828 61.482C152.736 61.662 152.69 61.882 152.69 62.142V66H151.586ZM158.575 66.12C158.003 66.12 157.503 65.998 157.075 65.754C156.647 65.506 156.315 65.144 156.079 64.668C155.843 64.192 155.725 63.61 155.725 62.922C155.725 62.274 155.835 61.706 156.055 61.218C156.275 60.73 156.597 60.352 157.021 60.084C157.449 59.812 157.967 59.676 158.575 59.676C159.147 59.676 159.643 59.802 160.063 60.054C160.487 60.302 160.815 60.668 161.047 61.152C161.279 61.636 161.395 62.226 161.395 62.922C161.395 63.554 161.287 64.11 161.071 64.59C160.859 65.07 160.543 65.446 160.123 65.718C159.707 65.986 159.191 66.12 158.575 66.12ZM158.575 65.244C158.947 65.244 159.261 65.15 159.517 64.962C159.773 64.774 159.967 64.504 160.099 64.152C160.231 63.8 160.297 63.382 160.297 62.898C160.297 62.454 160.239 62.056 160.123 61.704C160.007 61.348 159.821 61.066 159.565 60.858C159.313 60.65 158.983 60.546 158.575 60.546C158.199 60.546 157.881 60.64 157.621 60.828C157.361 61.012 157.163 61.28 157.027 61.632C156.895 61.984 156.829 62.406 156.829 62.898C156.829 63.334 156.889 63.73 157.009 64.086C157.129 64.442 157.317 64.724 157.573 64.932C157.829 65.14 158.163 65.244 158.575 65.244ZM165.086 66.12C164.282 66.12 163.644 65.844 163.172 65.292C162.7 64.74 162.464 63.934 162.464 62.874C162.464 62.23 162.558 61.668 162.746 61.188C162.938 60.708 163.222 60.336 163.598 60.072C163.974 59.808 164.442 59.676 165.002 59.676C165.298 59.676 165.56 59.714 165.788 59.79C166.02 59.866 166.22 59.962 166.388 60.078C166.556 60.194 166.692 60.314 166.796 60.438C166.904 60.562 166.984 60.676 167.036 60.78V57.084H168.152V66H167.306L167.186 64.728C167.146 64.848 167.082 64.988 166.994 65.148C166.906 65.304 166.782 65.458 166.622 65.61C166.462 65.758 166.256 65.88 166.004 65.976C165.756 66.072 165.45 66.12 165.086 66.12ZM165.284 65.268C165.912 65.268 166.36 65.078 166.628 64.698C166.9 64.314 167.036 63.688 167.036 62.82C167.032 62.336 166.97 61.924 166.85 61.584C166.734 61.244 166.55 60.986 166.298 60.81C166.05 60.63 165.72 60.54 165.308 60.54C164.796 60.54 164.38 60.722 164.06 61.086C163.74 61.45 163.58 62.028 163.58 62.82C163.58 63.596 163.724 64.198 164.012 64.626C164.304 65.054 164.728 65.268 165.284 65.268ZM172.264 66.12C171.94 66.116 171.634 66.07 171.346 65.982C171.062 65.89 170.81 65.756 170.59 65.58C170.37 65.404 170.196 65.186 170.068 64.926C169.944 64.662 169.882 64.356 169.882 64.008V59.796H170.992V63.894C170.992 64.298 171.116 64.626 171.364 64.878C171.616 65.13 171.994 65.256 172.498 65.256C172.954 65.256 173.32 65.138 173.596 64.902C173.876 64.662 174.016 64.306 174.016 63.834V59.796H175.12V66H174.238L174.124 64.812C174.048 65.124 173.918 65.376 173.734 65.568C173.554 65.76 173.336 65.902 173.08 65.994C172.828 66.082 172.556 66.124 172.264 66.12ZM182.37 66H181.194L179.25 62.886L178.026 64.152V66H176.922V57.084H178.026V62.898L180.942 59.796H182.214L179.976 62.16L182.37 66ZM187.003 67.98C186.639 67.98 186.389 67.954 186.253 67.902C186.117 67.85 186.049 67.824 186.049 67.824V67.104L186.679 67.116C186.911 67.124 187.103 67.108 187.255 67.068C187.407 67.028 187.529 66.974 187.621 66.906C187.713 66.838 187.783 66.762 187.831 66.678C187.883 66.594 187.925 66.514 187.957 66.438L188.173 65.85L185.749 59.796H186.871L188.701 64.584L190.519 59.796H191.605L188.989 66.468C188.829 66.86 188.649 67.166 188.449 67.386C188.253 67.606 188.033 67.76 187.789 67.848C187.549 67.936 187.287 67.98 187.003 67.98ZM194.282 66.12C193.882 66.12 193.528 66.05 193.22 65.91C192.912 65.766 192.67 65.56 192.494 65.292C192.322 65.024 192.236 64.7 192.236 64.32C192.236 63.632 192.476 63.12 192.956 62.784C193.436 62.448 194.206 62.268 195.266 62.244L196.376 62.214V61.728C196.376 61.348 196.262 61.048 196.034 60.828C195.806 60.604 195.452 60.492 194.972 60.492C194.616 60.496 194.302 60.58 194.03 60.744C193.762 60.908 193.588 61.176 193.508 61.548H192.53C192.554 61.144 192.668 60.804 192.872 60.528C193.076 60.248 193.36 60.036 193.724 59.892C194.092 59.748 194.526 59.676 195.026 59.676C195.566 59.676 196.014 59.752 196.37 59.904C196.73 60.056 196.998 60.28 197.174 60.576C197.354 60.872 197.444 61.236 197.444 61.668V66H196.496L196.418 64.836C196.178 65.32 195.872 65.656 195.5 65.844C195.132 66.028 194.726 66.12 194.282 66.12ZM194.618 65.322C194.826 65.322 195.032 65.284 195.236 65.208C195.444 65.132 195.634 65.03 195.806 64.902C195.978 64.77 196.114 64.624 196.214 64.464C196.318 64.3 196.372 64.132 196.376 63.96V62.898L195.452 62.916C194.98 62.924 194.584 62.972 194.264 63.06C193.948 63.148 193.71 63.286 193.55 63.474C193.394 63.662 193.316 63.908 193.316 64.212C193.316 64.56 193.436 64.832 193.676 65.028C193.92 65.224 194.234 65.322 194.618 65.322ZM199.34 66V59.796H200.414V60.696C200.514 60.524 200.652 60.362 200.828 60.21C201.008 60.058 201.224 59.936 201.476 59.844C201.732 59.752 202.026 59.706 202.358 59.706C202.75 59.706 203.11 59.784 203.438 59.94C203.77 60.096 204.034 60.34 204.23 60.672C204.43 61 204.53 61.424 204.53 61.944V66H203.42V62.052C203.42 61.568 203.292 61.21 203.036 60.978C202.784 60.742 202.456 60.624 202.052 60.624C201.772 60.624 201.51 60.67 201.266 60.762C201.022 60.85 200.824 60.986 200.672 61.17C200.52 61.35 200.444 61.578 200.444 61.854V66H199.34ZM208.882 68.052C207.906 68.052 207.146 67.91 206.602 67.626C206.062 67.346 205.792 66.944 205.792 66.42C205.792 66.196 205.844 66.006 205.948 65.85C206.052 65.69 206.176 65.558 206.32 65.454C206.464 65.35 206.598 65.268 206.722 65.208C206.846 65.144 206.926 65.098 206.962 65.07C206.894 65.03 206.808 64.98 206.704 64.92C206.604 64.86 206.516 64.78 206.44 64.68C206.364 64.58 206.326 64.45 206.326 64.29C206.326 64.094 206.418 63.914 206.602 63.75C206.786 63.586 207.058 63.464 207.418 63.384C207.054 63.2 206.77 62.956 206.566 62.652C206.362 62.348 206.26 62.018 206.26 61.662C206.26 61.262 206.368 60.914 206.584 60.618C206.804 60.322 207.116 60.096 207.52 59.94C207.924 59.78 208.404 59.7 208.96 59.7C209.364 59.7 209.704 59.748 209.98 59.844C210.256 59.936 210.512 60.068 210.748 60.24C210.812 60.212 210.912 60.17 211.048 60.114C211.188 60.054 211.342 59.99 211.51 59.922C211.678 59.854 211.834 59.79 211.978 59.73C212.126 59.666 212.244 59.618 212.332 59.586L212.326 60.612L211.24 60.816C211.3 60.944 211.348 61.084 211.384 61.236C211.424 61.388 211.444 61.53 211.444 61.662C211.444 62.026 211.348 62.356 211.156 62.652C210.968 62.948 210.682 63.184 210.298 63.36C209.914 63.536 209.434 63.624 208.858 63.624C208.81 63.624 208.748 63.624 208.672 63.624C208.6 63.62 208.538 63.616 208.486 63.612C208.062 63.624 207.77 63.672 207.61 63.756C207.45 63.836 207.37 63.926 207.37 64.026C207.37 64.142 207.46 64.222 207.64 64.266C207.82 64.31 208.126 64.348 208.558 64.38C208.714 64.388 208.906 64.398 209.134 64.41C209.366 64.422 209.622 64.438 209.902 64.458C210.554 64.498 211.056 64.664 211.408 64.956C211.76 65.248 211.936 65.642 211.936 66.138C211.936 66.702 211.684 67.162 211.18 67.518C210.676 67.874 209.91 68.052 208.882 68.052ZM209.08 67.338C209.652 67.338 210.09 67.252 210.394 67.08C210.698 66.908 210.85 66.648 210.85 66.3C210.85 66.052 210.756 65.85 210.568 65.694C210.384 65.534 210.102 65.442 209.722 65.418L207.982 65.304C207.826 65.296 207.664 65.336 207.496 65.424C207.328 65.508 207.184 65.626 207.064 65.778C206.948 65.93 206.89 66.102 206.89 66.294C206.89 66.622 207.068 66.878 207.424 67.062C207.784 67.246 208.336 67.338 209.08 67.338ZM208.888 62.91C209.336 62.91 209.696 62.806 209.968 62.598C210.244 62.39 210.382 62.082 210.382 61.674C210.382 61.254 210.244 60.934 209.968 60.714C209.696 60.494 209.336 60.384 208.888 60.384C208.436 60.384 208.07 60.496 207.79 60.72C207.514 60.94 207.376 61.258 207.376 61.674C207.376 62.066 207.508 62.37 207.772 62.586C208.036 62.802 208.408 62.91 208.888 62.91ZM221.932 66H220.756L218.812 62.886L217.588 64.152V66H216.484V57.084H217.588V62.898L220.504 59.796H221.776L219.538 62.16L221.932 66ZM224.81 66.12C224.41 66.12 224.056 66.05 223.748 65.91C223.44 65.766 223.198 65.56 223.022 65.292C222.85 65.024 222.764 64.7 222.764 64.32C222.764 63.632 223.004 63.12 223.484 62.784C223.964 62.448 224.734 62.268 225.794 62.244L226.904 62.214V61.728C226.904 61.348 226.79 61.048 226.562 60.828C226.334 60.604 225.98 60.492 225.5 60.492C225.144 60.496 224.83 60.58 224.558 60.744C224.29 60.908 224.116 61.176 224.036 61.548H223.058C223.082 61.144 223.196 60.804 223.4 60.528C223.604 60.248 223.888 60.036 224.252 59.892C224.62 59.748 225.054 59.676 225.554 59.676C226.094 59.676 226.542 59.752 226.898 59.904C227.258 60.056 227.526 60.28 227.702 60.576C227.882 60.872 227.972 61.236 227.972 61.668V66H227.024L226.946 64.836C226.706 65.32 226.4 65.656 226.028 65.844C225.66 66.028 225.254 66.12 224.81 66.12ZM225.146 65.322C225.354 65.322 225.56 65.284 225.764 65.208C225.972 65.132 226.162 65.03 226.334 64.902C226.506 64.77 226.642 64.624 226.742 64.464C226.846 64.3 226.9 64.132 226.904 63.96V62.898L225.98 62.916C225.508 62.924 225.112 62.972 224.792 63.06C224.476 63.148 224.238 63.286 224.078 63.474C223.922 63.662 223.844 63.908 223.844 64.212C223.844 64.56 223.964 64.832 224.204 65.028C224.448 65.224 224.762 65.322 225.146 65.322ZM229.867 66V59.796H230.935V60.696C231.107 60.424 231.343 60.186 231.643 59.982C231.943 59.778 232.333 59.676 232.813 59.676C233.037 59.676 233.265 59.714 233.497 59.79C233.733 59.866 233.949 59.98 234.145 60.132C234.341 60.284 234.493 60.47 234.601 60.69C234.793 60.386 235.053 60.142 235.381 59.958C235.709 59.77 236.079 59.676 236.491 59.676C236.707 59.676 236.933 59.71 237.169 59.778C237.405 59.842 237.623 59.958 237.823 60.126C238.027 60.29 238.193 60.52 238.321 60.816C238.449 61.108 238.513 61.484 238.513 61.944V66H237.397V62.052C237.397 61.676 237.337 61.386 237.217 61.182C237.097 60.974 236.939 60.828 236.743 60.744C236.551 60.66 236.345 60.618 236.125 60.618C235.933 60.618 235.729 60.656 235.513 60.732C235.297 60.808 235.113 60.936 234.961 61.116C234.809 61.296 234.733 61.542 234.733 61.854V66H233.629V61.728C233.629 61.484 233.563 61.28 233.431 61.116C233.303 60.952 233.141 60.828 232.945 60.744C232.753 60.66 232.561 60.618 232.369 60.618C232.157 60.618 231.943 60.66 231.727 60.744C231.515 60.828 231.335 60.962 231.187 61.146C231.043 61.326 230.971 61.562 230.971 61.854V66H229.867ZM241.45 59.796V66H240.376V59.796H241.45ZM241.474 57.33V58.482H240.34V57.33H241.474ZM247.452 66.276C247.452 66.856 247.326 67.286 247.074 67.566C246.826 67.85 246.386 67.992 245.754 67.992C245.414 67.992 245.2 67.968 245.112 67.92C245.02 67.872 244.974 67.848 244.974 67.848V67.11L245.586 67.08C245.866 67.06 246.062 66.986 246.174 66.858C246.286 66.73 246.342 66.524 246.342 66.24V59.796H247.452V66.276ZM247.482 57.33V58.482H246.306V57.33H247.482ZM251.6 66.12C251.276 66.116 250.97 66.07 250.682 65.982C250.398 65.89 250.146 65.756 249.926 65.58C249.706 65.404 249.532 65.186 249.404 64.926C249.28 64.662 249.218 64.356 249.218 64.008V59.796H250.328V63.894C250.328 64.298 250.452 64.626 250.7 64.878C250.952 65.13 251.33 65.256 251.834 65.256C252.29 65.256 252.656 65.138 252.932 64.902C253.212 64.662 253.352 64.306 253.352 63.834V59.796H254.456V66H253.574L253.46 64.812C253.384 65.124 253.254 65.376 253.07 65.568C252.89 65.76 252.672 65.902 252.416 65.994C252.164 66.082 251.892 66.124 251.6 66.12ZM257.904 66.12C257.504 66.12 257.15 66.05 256.842 65.91C256.534 65.766 256.292 65.56 256.116 65.292C255.944 65.024 255.858 64.7 255.858 64.32C255.858 63.632 256.098 63.12 256.578 62.784C257.058 62.448 257.828 62.268 258.888 62.244L259.998 62.214V61.728C259.998 61.348 259.884 61.048 259.656 60.828C259.428 60.604 259.074 60.492 258.594 60.492C258.238 60.496 257.924 60.58 257.652 60.744C257.384 60.908 257.21 61.176 257.13 61.548H256.152C256.176 61.144 256.29 60.804 256.494 60.528C256.698 60.248 256.982 60.036 257.346 59.892C257.714 59.748 258.148 59.676 258.648 59.676C259.188 59.676 259.636 59.752 259.992 59.904C260.352 60.056 260.62 60.28 260.796 60.576C260.976 60.872 261.066 61.236 261.066 61.668V66H260.118L260.04 64.836C259.8 65.32 259.494 65.656 259.122 65.844C258.754 66.028 258.348 66.12 257.904 66.12ZM258.24 65.322C258.448 65.322 258.654 65.284 258.858 65.208C259.066 65.132 259.256 65.03 259.428 64.902C259.6 64.77 259.736 64.624 259.836 64.464C259.94 64.3 259.994 64.132 259.998 63.96V62.898L259.074 62.916C258.602 62.924 258.206 62.972 257.886 63.06C257.57 63.148 257.332 63.286 257.172 63.474C257.016 63.662 256.938 63.908 256.938 64.212C256.938 64.56 257.058 64.832 257.298 65.028C257.542 65.224 257.856 65.322 258.24 65.322ZM264.527 66.078C264.191 66.078 263.919 66.032 263.711 65.94C263.507 65.848 263.349 65.724 263.237 65.568C263.129 65.412 263.055 65.234 263.015 65.034C262.979 64.83 262.961 64.62 262.961 64.404V57.084H264.053V64.296C264.053 64.608 264.113 64.842 264.233 64.998C264.357 65.154 264.529 65.24 264.749 65.256L265.085 65.262V65.982C264.993 66.01 264.897 66.032 264.797 66.048C264.697 66.068 264.607 66.078 264.527 66.078ZM271.386 66.12C270.582 66.12 269.944 65.844 269.472 65.292C269 64.74 268.764 63.934 268.764 62.874C268.764 62.23 268.858 61.668 269.046 61.188C269.238 60.708 269.522 60.336 269.898 60.072C270.274 59.808 270.742 59.676 271.302 59.676C271.598 59.676 271.86 59.714 272.088 59.79C272.32 59.866 272.52 59.962 272.688 60.078C272.856 60.194 272.992 60.314 273.096 60.438C273.204 60.562 273.284 60.676 273.336 60.78V57.084H274.452V66H273.606L273.486 64.728C273.446 64.848 273.382 64.988 273.294 65.148C273.206 65.304 273.082 65.458 272.922 65.61C272.762 65.758 272.556 65.88 272.304 65.976C272.056 66.072 271.75 66.12 271.386 66.12ZM271.584 65.268C272.212 65.268 272.66 65.078 272.928 64.698C273.2 64.314 273.336 63.688 273.336 62.82C273.332 62.336 273.27 61.924 273.15 61.584C273.034 61.244 272.85 60.986 272.598 60.81C272.35 60.63 272.02 60.54 271.608 60.54C271.096 60.54 270.68 60.722 270.36 61.086C270.04 61.45 269.88 62.028 269.88 62.82C269.88 63.596 270.024 64.198 270.312 64.626C270.604 65.054 271.028 65.268 271.584 65.268ZM277.556 59.796V66H276.482V59.796H277.556ZM277.58 57.33V58.482H276.446V57.33H277.58ZM280.792 66.276C280.792 66.856 280.666 67.286 280.414 67.566C280.166 67.85 279.726 67.992 279.094 67.992C278.754 67.992 278.54 67.968 278.452 67.92C278.36 67.872 278.314 67.848 278.314 67.848V67.11L278.926 67.08C279.206 67.06 279.402 66.986 279.514 66.858C279.626 66.73 279.682 66.524 279.682 66.24V59.796H280.792V66.276ZM280.822 57.33V58.482H279.646V57.33H280.822ZM284.376 66.12C283.976 66.12 283.622 66.05 283.314 65.91C283.006 65.766 282.764 65.56 282.588 65.292C282.416 65.024 282.33 64.7 282.33 64.32C282.33 63.632 282.57 63.12 283.05 62.784C283.53 62.448 284.3 62.268 285.36 62.244L286.47 62.214V61.728C286.47 61.348 286.356 61.048 286.128 60.828C285.9 60.604 285.546 60.492 285.066 60.492C284.71 60.496 284.396 60.58 284.124 60.744C283.856 60.908 283.682 61.176 283.602 61.548H282.624C282.648 61.144 282.762 60.804 282.966 60.528C283.17 60.248 283.454 60.036 283.818 59.892C284.186 59.748 284.62 59.676 285.12 59.676C285.66 59.676 286.108 59.752 286.464 59.904C286.824 60.056 287.092 60.28 287.268 60.576C287.448 60.872 287.538 61.236 287.538 61.668V66H286.59L286.512 64.836C286.272 65.32 285.966 65.656 285.594 65.844C285.226 66.028 284.82 66.12 284.376 66.12ZM284.712 65.322C284.92 65.322 285.126 65.284 285.33 65.208C285.538 65.132 285.728 65.03 285.9 64.902C286.072 64.77 286.208 64.624 286.308 64.464C286.412 64.3 286.466 64.132 286.47 63.96V62.898L285.546 62.916C285.074 62.924 284.678 62.972 284.358 63.06C284.042 63.148 283.804 63.286 283.644 63.474C283.488 63.662 283.41 63.908 283.41 64.212C283.41 64.56 283.53 64.832 283.77 65.028C284.014 65.224 284.328 65.322 284.712 65.322ZM289.434 66V59.796H290.502V60.696C290.674 60.424 290.91 60.186 291.21 59.982C291.51 59.778 291.9 59.676 292.38 59.676C292.604 59.676 292.832 59.714 293.064 59.79C293.3 59.866 293.516 59.98 293.712 60.132C293.908 60.284 294.06 60.47 294.168 60.69C294.36 60.386 294.62 60.142 294.948 59.958C295.276 59.77 295.646 59.676 296.058 59.676C296.274 59.676 296.5 59.71 296.736 59.778C296.972 59.842 297.19 59.958 297.39 60.126C297.594 60.29 297.76 60.52 297.888 60.816C298.016 61.108 298.08 61.484 298.08 61.944V66H296.964V62.052C296.964 61.676 296.904 61.386 296.784 61.182C296.664 60.974 296.506 60.828 296.31 60.744C296.118 60.66 295.912 60.618 295.692 60.618C295.5 60.618 295.296 60.656 295.08 60.732C294.864 60.808 294.68 60.936 294.528 61.116C294.376 61.296 294.3 61.542 294.3 61.854V66H293.196V61.728C293.196 61.484 293.13 61.28 292.998 61.116C292.87 60.952 292.708 60.828 292.512 60.744C292.32 60.66 292.128 60.618 291.936 60.618C291.724 60.618 291.51 60.66 291.294 60.744C291.082 60.828 290.902 60.962 290.754 61.146C290.61 61.326 290.538 61.562 290.538 61.854V66H289.434ZM301.016 59.796V66H299.942V59.796H301.016ZM301.04 57.33V58.482H299.906V57.33H301.04ZM303.039 66V59.796H304.113V60.696C304.213 60.524 304.351 60.362 304.527 60.21C304.707 60.058 304.923 59.936 305.175 59.844C305.431 59.752 305.725 59.706 306.057 59.706C306.449 59.706 306.809 59.784 307.137 59.94C307.469 60.096 307.733 60.34 307.929 60.672C308.129 61 308.229 61.424 308.229 61.944V66H307.119V62.052C307.119 61.568 306.991 61.21 306.735 60.978C306.483 60.742 306.155 60.624 305.751 60.624C305.471 60.624 305.209 60.67 304.965 60.762C304.721 60.85 304.523 60.986 304.371 61.17C304.219 61.35 304.143 61.578 304.143 61.854V66H303.039ZM104.634 82.12C104.234 82.12 103.88 82.05 103.572 81.91C103.264 81.766 103.022 81.56 102.846 81.292C102.674 81.024 102.588 80.7 102.588 80.32C102.588 79.632 102.828 79.12 103.308 78.784C103.788 78.448 104.558 78.268 105.618 78.244L106.728 78.214V77.728C106.728 77.348 106.614 77.048 106.386 76.828C106.158 76.604 105.804 76.492 105.324 76.492C104.968 76.496 104.654 76.58 104.382 76.744C104.114 76.908 103.94 77.176 103.86 77.548H102.882C102.906 77.144 103.02 76.804 103.224 76.528C103.428 76.248 103.712 76.036 104.076 75.892C104.444 75.748 104.878 75.676 105.378 75.676C105.918 75.676 106.366 75.752 106.722 75.904C107.082 76.056 107.35 76.28 107.526 76.576C107.706 76.872 107.796 77.236 107.796 77.668V82H106.848L106.77 80.836C106.53 81.32 106.224 81.656 105.852 81.844C105.484 82.028 105.078 82.12 104.634 82.12ZM104.97 81.322C105.178 81.322 105.384 81.284 105.588 81.208C105.796 81.132 105.986 81.03 106.158 80.902C106.33 80.77 106.466 80.624 106.566 80.464C106.67 80.3 106.724 80.132 106.728 79.96V78.898L105.804 78.916C105.332 78.924 104.936 78.972 104.616 79.06C104.3 79.148 104.062 79.286 103.902 79.474C103.746 79.662 103.668 79.908 103.668 80.212C103.668 80.56 103.788 80.832 104.028 81.028C104.272 81.224 104.586 81.322 104.97 81.322ZM111.8 82.12C111.368 82.12 110.966 82.054 110.594 81.922C110.226 81.786 109.92 81.576 109.676 81.292C109.432 81.004 109.278 80.638 109.214 80.194H110.222C110.278 80.438 110.378 80.642 110.522 80.806C110.67 80.966 110.854 81.088 111.074 81.172C111.294 81.252 111.534 81.292 111.794 81.292C112.21 81.292 112.546 81.214 112.802 81.058C113.058 80.902 113.186 80.662 113.186 80.338C113.186 80.11 113.118 79.928 112.982 79.792C112.85 79.652 112.644 79.55 112.364 79.486L111.08 79.168C110.58 79.048 110.18 78.86 109.88 78.604C109.58 78.348 109.43 77.99 109.43 77.53C109.426 77.166 109.512 76.846 109.688 76.57C109.864 76.294 110.128 76.076 110.48 75.916C110.832 75.756 111.27 75.676 111.794 75.676C112.466 75.676 113.008 75.828 113.42 76.132C113.836 76.432 114.052 76.874 114.068 77.458H113.09C113.05 77.162 112.916 76.928 112.688 76.756C112.464 76.58 112.162 76.492 111.782 76.492C111.386 76.492 111.064 76.572 110.816 76.732C110.568 76.888 110.444 77.132 110.444 77.464C110.444 77.684 110.532 77.858 110.708 77.986C110.884 78.11 111.144 78.214 111.488 78.298L112.73 78.61C113.018 78.686 113.254 78.786 113.438 78.91C113.626 79.034 113.774 79.172 113.882 79.324C113.994 79.476 114.072 79.636 114.116 79.804C114.164 79.968 114.188 80.126 114.188 80.278C114.188 80.658 114.092 80.986 113.9 81.262C113.712 81.534 113.44 81.746 113.084 81.898C112.732 82.046 112.304 82.12 111.8 82.12ZM117.304 82.078C116.968 82.078 116.696 82.032 116.488 81.94C116.284 81.848 116.126 81.724 116.014 81.568C115.906 81.412 115.832 81.234 115.792 81.034C115.756 80.83 115.738 80.62 115.738 80.404V73.084H116.83V80.296C116.83 80.608 116.89 80.842 117.01 80.998C117.134 81.154 117.306 81.24 117.526 81.256L117.862 81.262V81.982C117.77 82.01 117.674 82.032 117.574 82.048C117.474 82.068 117.384 82.078 117.304 82.078ZM120.489 75.796V82H119.415V75.796H120.489ZM120.513 73.33V74.482H119.379V73.33H120.513ZM130.793 73.192C131.217 73.192 131.609 73.268 131.969 73.42C132.329 73.572 132.619 73.786 132.839 74.062C133.059 74.338 133.169 74.664 133.169 75.04C133.169 75.192 133.137 75.358 133.073 75.538C133.013 75.718 132.909 75.91 132.761 76.114C132.613 76.314 132.405 76.522 132.137 76.738C131.869 76.954 131.529 77.172 131.117 77.392L133.019 79.618C133.095 79.51 133.187 79.348 133.295 79.132C133.407 78.912 133.511 78.65 133.607 78.346C133.703 78.042 133.761 77.702 133.781 77.326H134.873C134.817 77.738 134.723 78.116 134.591 78.46C134.459 78.804 134.303 79.126 134.123 79.426C133.947 79.726 133.763 80.012 133.571 80.284L135.035 82H133.739L132.899 81.034C132.459 81.394 132.009 81.656 131.549 81.82C131.093 81.98 130.641 82.06 130.193 82.06C129.629 82.06 129.151 81.966 128.759 81.778C128.371 81.586 128.077 81.322 127.877 80.986C127.677 80.65 127.577 80.262 127.577 79.822C127.577 79.442 127.651 79.1 127.799 78.796C127.951 78.488 128.179 78.204 128.483 77.944C128.791 77.684 129.175 77.432 129.635 77.188C129.411 76.948 129.217 76.718 129.053 76.498C128.893 76.274 128.769 76.05 128.681 75.826C128.597 75.598 128.555 75.356 128.555 75.1C128.555 74.74 128.649 74.416 128.837 74.128C129.029 73.84 129.293 73.612 129.629 73.444C129.965 73.276 130.353 73.192 130.793 73.192ZM130.835 73.954C130.455 73.958 130.165 74.068 129.965 74.284C129.769 74.496 129.671 74.746 129.671 75.034C129.671 75.23 129.713 75.426 129.797 75.622C129.881 75.814 129.981 75.99 130.097 76.15C130.213 76.31 130.317 76.44 130.409 76.54L130.619 76.774C131.039 76.53 131.359 76.312 131.579 76.12C131.799 75.928 131.949 75.748 132.029 75.58C132.113 75.408 132.155 75.236 132.155 75.064C132.155 74.796 132.089 74.58 131.957 74.416C131.829 74.252 131.663 74.134 131.459 74.062C131.259 73.986 131.051 73.95 130.835 73.954ZM130.199 77.86C129.783 78.088 129.441 78.366 129.173 78.694C128.905 79.018 128.781 79.384 128.801 79.792C128.817 80.076 128.901 80.322 129.053 80.53C129.205 80.734 129.401 80.892 129.641 81.004C129.885 81.116 130.149 81.172 130.433 81.172C130.769 81.172 131.107 81.098 131.447 80.95C131.787 80.798 132.085 80.598 132.341 80.35L130.199 77.86ZM144.682 82H143.506L141.562 78.886L140.338 80.152V82H139.234V73.084H140.338V78.898L143.254 75.796H144.526L142.288 78.16L144.682 82ZM148.159 82.12C147.835 82.116 147.529 82.07 147.241 81.982C146.957 81.89 146.705 81.756 146.485 81.58C146.265 81.404 146.091 81.186 145.963 80.926C145.839 80.662 145.777 80.356 145.777 80.008V75.796H146.887V79.894C146.887 80.298 147.011 80.626 147.259 80.878C147.511 81.13 147.889 81.256 148.393 81.256C148.849 81.256 149.215 81.138 149.491 80.902C149.771 80.662 149.911 80.306 149.911 79.834V75.796H151.015V82H150.133L150.019 80.812C149.943 81.124 149.813 81.376 149.629 81.568C149.449 81.76 149.231 81.902 148.975 81.994C148.723 82.082 148.451 82.124 148.159 82.12ZM154.462 82.12C154.062 82.12 153.708 82.05 153.4 81.91C153.092 81.766 152.85 81.56 152.674 81.292C152.502 81.024 152.416 80.7 152.416 80.32C152.416 79.632 152.656 79.12 153.136 78.784C153.616 78.448 154.386 78.268 155.446 78.244L156.556 78.214V77.728C156.556 77.348 156.442 77.048 156.214 76.828C155.986 76.604 155.632 76.492 155.152 76.492C154.796 76.496 154.482 76.58 154.21 76.744C153.942 76.908 153.768 77.176 153.688 77.548H152.71C152.734 77.144 152.848 76.804 153.052 76.528C153.256 76.248 153.54 76.036 153.904 75.892C154.272 75.748 154.706 75.676 155.206 75.676C155.746 75.676 156.194 75.752 156.55 75.904C156.91 76.056 157.178 76.28 157.354 76.576C157.534 76.872 157.624 77.236 157.624 77.668V82H156.676L156.598 80.836C156.358 81.32 156.052 81.656 155.68 81.844C155.312 82.028 154.906 82.12 154.462 82.12ZM154.798 81.322C155.006 81.322 155.212 81.284 155.416 81.208C155.624 81.132 155.814 81.03 155.986 80.902C156.158 80.77 156.294 80.624 156.394 80.464C156.498 80.3 156.552 80.132 156.556 79.96V78.898L155.632 78.916C155.16 78.924 154.764 78.972 154.444 79.06C154.128 79.148 153.89 79.286 153.73 79.474C153.574 79.662 153.496 79.908 153.496 80.212C153.496 80.56 153.616 80.832 153.856 81.028C154.1 81.224 154.414 81.322 154.798 81.322ZM161.086 82.078C160.75 82.078 160.478 82.032 160.27 81.94C160.066 81.848 159.908 81.724 159.796 81.568C159.688 81.412 159.614 81.234 159.574 81.034C159.538 80.83 159.52 80.62 159.52 80.404V73.084H160.612V80.296C160.612 80.608 160.672 80.842 160.792 80.998C160.916 81.154 161.088 81.24 161.308 81.256L161.644 81.262V81.982C161.552 82.01 161.456 82.032 161.356 82.048C161.256 82.068 161.166 82.078 161.086 82.078ZM164.27 75.796V82H163.196V75.796H164.27ZM164.294 73.33V74.482H163.16V73.33H164.294ZM169.457 76.606H168.059V80.464C168.059 80.684 168.081 80.846 168.125 80.95C168.173 81.05 168.251 81.114 168.359 81.142C168.471 81.17 168.623 81.184 168.815 81.184H169.493V81.928C169.417 81.956 169.301 81.98 169.145 82C168.993 82.02 168.803 82.03 168.575 82.03C168.147 82.03 167.815 81.972 167.579 81.856C167.343 81.74 167.177 81.568 167.081 81.34C166.989 81.112 166.943 80.832 166.943 80.5V76.606H165.935V75.796H166.973L167.243 73.99H168.059V75.79H169.457V76.606ZM172.732 82.12C172.332 82.12 171.978 82.05 171.67 81.91C171.362 81.766 171.12 81.56 170.944 81.292C170.772 81.024 170.686 80.7 170.686 80.32C170.686 79.632 170.926 79.12 171.406 78.784C171.886 78.448 172.656 78.268 173.716 78.244L174.826 78.214V77.728C174.826 77.348 174.712 77.048 174.484 76.828C174.256 76.604 173.902 76.492 173.422 76.492C173.066 76.496 172.752 76.58 172.48 76.744C172.212 76.908 172.038 77.176 171.958 77.548H170.98C171.004 77.144 171.118 76.804 171.322 76.528C171.526 76.248 171.81 76.036 172.174 75.892C172.542 75.748 172.976 75.676 173.476 75.676C174.016 75.676 174.464 75.752 174.82 75.904C175.18 76.056 175.448 76.28 175.624 76.576C175.804 76.872 175.894 77.236 175.894 77.668V82H174.946L174.868 80.836C174.628 81.32 174.322 81.656 173.95 81.844C173.582 82.028 173.176 82.12 172.732 82.12ZM173.068 81.322C173.276 81.322 173.482 81.284 173.686 81.208C173.894 81.132 174.084 81.03 174.256 80.902C174.428 80.77 174.564 80.624 174.664 80.464C174.768 80.3 174.822 80.132 174.826 79.96V78.898L173.902 78.916C173.43 78.924 173.034 78.972 172.714 79.06C172.398 79.148 172.16 79.286 172 79.474C171.844 79.662 171.766 79.908 171.766 80.212C171.766 80.56 171.886 80.832 172.126 81.028C172.37 81.224 172.684 81.322 173.068 81.322ZM179.897 82.12C179.465 82.12 179.063 82.054 178.691 81.922C178.323 81.786 178.017 81.576 177.773 81.292C177.529 81.004 177.375 80.638 177.311 80.194H178.319C178.375 80.438 178.475 80.642 178.619 80.806C178.767 80.966 178.951 81.088 179.171 81.172C179.391 81.252 179.631 81.292 179.891 81.292C180.307 81.292 180.643 81.214 180.899 81.058C181.155 80.902 181.283 80.662 181.283 80.338C181.283 80.11 181.215 79.928 181.079 79.792C180.947 79.652 180.741 79.55 180.461 79.486L179.177 79.168C178.677 79.048 178.277 78.86 177.977 78.604C177.677 78.348 177.527 77.99 177.527 77.53C177.523 77.166 177.609 76.846 177.785 76.57C177.961 76.294 178.225 76.076 178.577 75.916C178.929 75.756 179.367 75.676 179.891 75.676C180.563 75.676 181.105 75.828 181.517 76.132C181.933 76.432 182.149 76.874 182.165 77.458H181.187C181.147 77.162 181.013 76.928 180.785 76.756C180.561 76.58 180.259 76.492 179.879 76.492C179.483 76.492 179.161 76.572 178.913 76.732C178.665 76.888 178.541 77.132 178.541 77.464C178.541 77.684 178.629 77.858 178.805 77.986C178.981 78.11 179.241 78.214 179.585 78.298L180.827 78.61C181.115 78.686 181.351 78.786 181.535 78.91C181.723 79.034 181.871 79.172 181.979 79.324C182.091 79.476 182.169 79.636 182.213 79.804C182.261 79.968 182.285 80.126 182.285 80.278C182.285 80.658 182.189 80.986 181.997 81.262C181.809 81.534 181.537 81.746 181.181 81.898C180.829 82.046 180.401 82.12 179.897 82.12ZM189.718 76.606H188.32V80.464C188.32 80.684 188.342 80.846 188.386 80.95C188.434 81.05 188.512 81.114 188.62 81.142C188.732 81.17 188.884 81.184 189.076 81.184H189.754V81.928C189.678 81.956 189.562 81.98 189.406 82C189.254 82.02 189.064 82.03 188.836 82.03C188.408 82.03 188.076 81.972 187.84 81.856C187.604 81.74 187.438 81.568 187.342 81.34C187.25 81.112 187.204 80.832 187.204 80.5V76.606H186.196V75.796H187.234L187.504 73.99H188.32V75.79H189.718V76.606ZM191.94 79.156C191.94 79.548 192.004 79.904 192.132 80.224C192.264 80.54 192.462 80.792 192.726 80.98C192.994 81.168 193.328 81.262 193.728 81.262C194.124 81.262 194.464 81.17 194.748 80.986C195.036 80.802 195.22 80.536 195.3 80.188H196.35C196.274 80.608 196.106 80.962 195.846 81.25C195.586 81.538 195.272 81.756 194.904 81.904C194.536 82.048 194.152 82.12 193.752 82.12C193.172 82.12 192.662 81.994 192.222 81.742C191.782 81.49 191.438 81.128 191.19 80.656C190.942 80.184 190.818 79.618 190.818 78.958C190.818 78.306 190.93 77.734 191.154 77.242C191.378 76.75 191.702 76.366 192.126 76.09C192.554 75.814 193.068 75.676 193.668 75.676C194.252 75.676 194.746 75.802 195.15 76.054C195.554 76.306 195.86 76.662 196.068 77.122C196.28 77.578 196.386 78.12 196.386 78.748V79.156H191.94ZM191.946 78.406H195.318C195.318 78.05 195.258 77.73 195.138 77.446C195.018 77.158 194.834 76.932 194.586 76.768C194.342 76.6 194.034 76.516 193.662 76.516C193.274 76.516 192.952 76.61 192.696 76.798C192.444 76.982 192.254 77.22 192.126 77.512C192.002 77.8 191.942 78.098 191.946 78.406ZM197.91 82V75.796H198.966V76.99C199.07 76.694 199.216 76.45 199.404 76.258C199.592 76.062 199.806 75.916 200.046 75.82C200.29 75.724 200.542 75.676 200.802 75.676C200.894 75.676 200.984 75.682 201.072 75.694C201.16 75.706 201.228 75.726 201.276 75.754V76.828C201.216 76.8 201.138 76.782 201.042 76.774C200.95 76.762 200.872 76.756 200.808 76.756C200.56 76.74 200.328 76.756 200.112 76.804C199.896 76.848 199.706 76.926 199.542 77.038C199.378 77.15 199.248 77.298 199.152 77.482C199.06 77.662 199.014 77.882 199.014 78.142V82H197.91ZM205.629 82.12C205.265 82.12 204.957 82.072 204.705 81.976C204.457 81.88 204.253 81.758 204.093 81.61C203.933 81.458 203.809 81.304 203.721 81.148C203.633 80.988 203.569 80.848 203.529 80.728L203.409 82H202.563V73.084H203.679V76.78C203.731 76.676 203.809 76.562 203.913 76.438C204.021 76.314 204.159 76.194 204.327 76.078C204.495 75.962 204.693 75.866 204.921 75.79C205.153 75.714 205.417 75.676 205.713 75.676C206.489 75.676 207.105 75.946 207.561 76.486C208.021 77.026 208.251 77.822 208.251 78.874C208.251 79.526 208.153 80.096 207.957 80.584C207.761 81.068 207.469 81.446 207.081 81.718C206.693 81.986 206.209 82.12 205.629 82.12ZM205.431 81.268C205.935 81.268 206.345 81.074 206.661 80.686C206.977 80.294 207.135 79.672 207.135 78.82C207.135 78.096 206.987 77.536 206.691 77.14C206.399 76.74 205.971 76.54 205.407 76.54C204.995 76.54 204.663 76.63 204.411 76.81C204.163 76.986 203.979 77.244 203.859 77.584C203.743 77.924 203.683 78.336 203.679 78.82C203.679 79.688 203.813 80.314 204.081 80.698C204.353 81.078 204.803 81.268 205.431 81.268ZM211.345 82.12C210.945 82.12 210.591 82.05 210.283 81.91C209.975 81.766 209.733 81.56 209.557 81.292C209.385 81.024 209.299 80.7 209.299 80.32C209.299 79.632 209.539 79.12 210.019 78.784C210.499 78.448 211.269 78.268 212.329 78.244L213.439 78.214V77.728C213.439 77.348 213.325 77.048 213.097 76.828C212.869 76.604 212.515 76.492 212.035 76.492C211.679 76.496 211.365 76.58 211.093 76.744C210.825 76.908 210.651 77.176 210.571 77.548H209.593C209.617 77.144 209.731 76.804 209.935 76.528C210.139 76.248 210.423 76.036 210.787 75.892C211.155 75.748 211.589 75.676 212.089 75.676C212.629 75.676 213.077 75.752 213.433 75.904C213.793 76.056 214.061 76.28 214.237 76.576C214.417 76.872 214.507 77.236 214.507 77.668V82H213.559L213.481 80.836C213.241 81.32 212.935 81.656 212.563 81.844C212.195 82.028 211.789 82.12 211.345 82.12ZM211.681 81.322C211.889 81.322 212.095 81.284 212.299 81.208C212.507 81.132 212.697 81.03 212.869 80.902C213.041 80.77 213.177 80.624 213.277 80.464C213.381 80.3 213.435 80.132 213.439 79.96V78.898L212.515 78.916C212.043 78.924 211.647 78.972 211.327 79.06C211.011 79.148 210.773 79.286 210.613 79.474C210.457 79.662 210.379 79.908 210.379 80.212C210.379 80.56 210.499 80.832 210.739 81.028C210.983 81.224 211.297 81.322 211.681 81.322ZM217.602 75.796V82H216.528V75.796H217.602ZM217.626 73.33V74.482H216.492V73.33H217.626ZM225.073 82H223.897L221.953 78.886L220.729 80.152V82H219.625V73.084H220.729V78.898L223.645 75.796H224.917L222.679 78.16L225.073 82ZM231.444 82.12C231.12 82.116 230.814 82.07 230.526 81.982C230.242 81.89 229.99 81.756 229.77 81.58C229.55 81.404 229.376 81.186 229.248 80.926C229.124 80.662 229.062 80.356 229.062 80.008V75.796H230.172V79.894C230.172 80.298 230.296 80.626 230.544 80.878C230.796 81.13 231.174 81.256 231.678 81.256C232.134 81.256 232.5 81.138 232.776 80.902C233.056 80.662 233.196 80.306 233.196 79.834V75.796H234.3V82H233.418L233.304 80.812C233.228 81.124 233.098 81.376 232.914 81.568C232.734 81.76 232.516 81.902 232.26 81.994C232.008 82.082 231.736 82.124 231.444 82.12ZM236.102 82V75.796H237.176V76.696C237.276 76.524 237.414 76.362 237.59 76.21C237.77 76.058 237.986 75.936 238.238 75.844C238.494 75.752 238.788 75.706 239.12 75.706C239.512 75.706 239.872 75.784 240.2 75.94C240.532 76.096 240.796 76.34 240.992 76.672C241.192 77 241.292 77.424 241.292 77.944V82H240.182V78.052C240.182 77.568 240.054 77.21 239.798 76.978C239.546 76.742 239.218 76.624 238.814 76.624C238.534 76.624 238.272 76.67 238.028 76.762C237.784 76.85 237.586 76.986 237.434 77.17C237.282 77.35 237.206 77.578 237.206 77.854V82H236.102ZM245.886 76.606H244.488V80.464C244.488 80.684 244.51 80.846 244.554 80.95C244.602 81.05 244.68 81.114 244.788 81.142C244.9 81.17 245.052 81.184 245.244 81.184H245.922V81.928C245.846 81.956 245.73 81.98 245.574 82C245.422 82.02 245.232 82.03 245.004 82.03C244.576 82.03 244.244 81.972 244.008 81.856C243.772 81.74 243.606 81.568 243.51 81.34C243.418 81.112 243.372 80.832 243.372 80.5V76.606H242.364V75.796H243.402L243.672 73.99H244.488V75.79H245.886V76.606ZM249.702 82.12C249.378 82.116 249.072 82.07 248.784 81.982C248.5 81.89 248.248 81.756 248.028 81.58C247.808 81.404 247.634 81.186 247.506 80.926C247.382 80.662 247.32 80.356 247.32 80.008V75.796H248.43V79.894C248.43 80.298 248.554 80.626 248.802 80.878C249.054 81.13 249.432 81.256 249.936 81.256C250.392 81.256 250.758 81.138 251.034 80.902C251.314 80.662 251.454 80.306 251.454 79.834V75.796H252.558V82H251.676L251.562 80.812C251.486 81.124 251.356 81.376 251.172 81.568C250.992 81.76 250.774 81.902 250.518 81.994C250.266 82.082 249.994 82.124 249.702 82.12ZM259.807 82H258.631L256.687 78.886L255.463 80.152V82H254.359V73.084H255.463V78.898L258.379 75.796H259.651L257.413 78.16L259.807 82ZM265.614 82.12C265.214 82.12 264.86 82.05 264.552 81.91C264.244 81.766 264.002 81.56 263.826 81.292C263.654 81.024 263.568 80.7 263.568 80.32C263.568 79.632 263.808 79.12 264.288 78.784C264.768 78.448 265.538 78.268 266.598 78.244L267.708 78.214V77.728C267.708 77.348 267.594 77.048 267.366 76.828C267.138 76.604 266.784 76.492 266.304 76.492C265.948 76.496 265.634 76.58 265.362 76.744C265.094 76.908 264.92 77.176 264.84 77.548H263.862C263.886 77.144 264 76.804 264.204 76.528C264.408 76.248 264.692 76.036 265.056 75.892C265.424 75.748 265.858 75.676 266.358 75.676C266.898 75.676 267.346 75.752 267.702 75.904C268.062 76.056 268.33 76.28 268.506 76.576C268.686 76.872 268.776 77.236 268.776 77.668V82H267.828L267.75 80.836C267.51 81.32 267.204 81.656 266.832 81.844C266.464 82.028 266.058 82.12 265.614 82.12ZM265.95 81.322C266.158 81.322 266.364 81.284 266.568 81.208C266.776 81.132 266.966 81.03 267.138 80.902C267.31 80.77 267.446 80.624 267.546 80.464C267.65 80.3 267.704 80.132 267.708 79.96V78.898L266.784 78.916C266.312 78.924 265.916 78.972 265.596 79.06C265.28 79.148 265.042 79.286 264.882 79.474C264.726 79.662 264.648 79.908 264.648 80.212C264.648 80.56 264.768 80.832 265.008 81.028C265.252 81.224 265.566 81.322 265.95 81.322ZM270.672 82V75.796H271.746V76.696C271.846 76.524 271.984 76.362 272.16 76.21C272.34 76.058 272.556 75.936 272.808 75.844C273.064 75.752 273.358 75.706 273.69 75.706C274.082 75.706 274.442 75.784 274.77 75.94C275.102 76.096 275.366 76.34 275.562 76.672C275.762 77 275.862 77.424 275.862 77.944V82H274.752V78.052C274.752 77.568 274.624 77.21 274.368 76.978C274.116 76.742 273.788 76.624 273.384 76.624C273.104 76.624 272.842 76.67 272.598 76.762C272.354 76.85 272.156 76.986 272.004 77.17C271.852 77.35 271.776 77.578 271.776 77.854V82H270.672ZM279.836 82.12C279.032 82.12 278.394 81.844 277.922 81.292C277.45 80.74 277.214 79.934 277.214 78.874C277.214 78.23 277.308 77.668 277.496 77.188C277.688 76.708 277.972 76.336 278.348 76.072C278.724 75.808 279.192 75.676 279.752 75.676C280.048 75.676 280.31 75.714 280.538 75.79C280.77 75.866 280.97 75.962 281.138 76.078C281.306 76.194 281.442 76.314 281.546 76.438C281.654 76.562 281.734 76.676 281.786 76.78V73.084H282.902V82H282.056L281.936 80.728C281.896 80.848 281.832 80.988 281.744 81.148C281.656 81.304 281.532 81.458 281.372 81.61C281.212 81.758 281.006 81.88 280.754 81.976C280.506 82.072 280.2 82.12 279.836 82.12ZM280.034 81.268C280.662 81.268 281.11 81.078 281.378 80.698C281.65 80.314 281.786 79.688 281.786 78.82C281.782 78.336 281.72 77.924 281.6 77.584C281.484 77.244 281.3 76.986 281.048 76.81C280.8 76.63 280.47 76.54 280.058 76.54C279.546 76.54 279.13 76.722 278.81 77.086C278.49 77.45 278.33 78.028 278.33 78.82C278.33 79.596 278.474 80.198 278.762 80.626C279.054 81.054 279.478 81.268 280.034 81.268ZM286.45 82.12C286.05 82.12 285.696 82.05 285.388 81.91C285.08 81.766 284.838 81.56 284.662 81.292C284.49 81.024 284.404 80.7 284.404 80.32C284.404 79.632 284.644 79.12 285.124 78.784C285.604 78.448 286.374 78.268 287.434 78.244L288.544 78.214V77.728C288.544 77.348 288.43 77.048 288.202 76.828C287.974 76.604 287.62 76.492 287.14 76.492C286.784 76.496 286.47 76.58 286.198 76.744C285.93 76.908 285.756 77.176 285.676 77.548H284.698C284.722 77.144 284.836 76.804 285.04 76.528C285.244 76.248 285.528 76.036 285.892 75.892C286.26 75.748 286.694 75.676 287.194 75.676C287.734 75.676 288.182 75.752 288.538 75.904C288.898 76.056 289.166 76.28 289.342 76.576C289.522 76.872 289.612 77.236 289.612 77.668V82H288.664L288.586 80.836C288.346 81.32 288.04 81.656 287.668 81.844C287.3 82.028 286.894 82.12 286.45 82.12ZM286.786 81.322C286.994 81.322 287.2 81.284 287.404 81.208C287.612 81.132 287.802 81.03 287.974 80.902C288.146 80.77 288.282 80.624 288.382 80.464C288.486 80.3 288.54 80.132 288.544 79.96V78.898L287.62 78.916C287.148 78.924 286.752 78.972 286.432 79.06C286.116 79.148 285.878 79.286 285.718 79.474C285.562 79.662 285.484 79.908 285.484 80.212C285.484 80.56 285.604 80.832 285.844 81.028C286.088 81.224 286.402 81.322 286.786 81.322ZM291.25 82V80.584H292.57V82H291.25Z" fill="#213360"/>
<defs>
<filter id="filter0_dd_4_1589" x="0" y="0" width="344" height="124" filterUnits="userSpaceOnUse" color-interpolation-filters="sRGB">
<feFlood flood-opacity="0" result="BackgroundImageFix"/>
<feColorMatrix in="SourceAlpha" type="matrix" values="0 0 0 0 0 0 0 0 0 0 0 0 0 0 0 0 0 0 127 0" result="hardAlpha"/>
<feMorphology radius="2" operator="dilate" in="SourceAlpha" result="effect1_dropShadow_4_1589"/>
<feOffset dy="4"/>
<feGaussianBlur stdDeviation="4"/>
<feComposite in2="hardAlpha" operator="out"/>
<feColorMatrix type="matrix" values="0 0 0 0 0 0 0 0 0 0.607843 0 0 0 0 0.564706 0 0 0 0.08 0"/>
<feBlend mode="normal" in2="BackgroundImageFix" result="effect1_dropShadow_4_1589"/>
<feColorMatrix in="SourceAlpha" type="matrix" values="0 0 0 0 0 0 0 0 0 0 0 0 0 0 0 0 0 0 127 0" result="hardAlpha"/>
<feMorphology radius="2" operator="dilate" in="SourceAlpha" result="effect2_dropShadow_4_1589"/>
<feOffset dy="1"/>
<feGaussianBlur stdDeviation="1"/>
<feComposite in2="hardAlpha" operator="out"/>
<feColorMatrix type="matrix" values="0 0 0 0 0.129412 0 0 0 0 0.2 0 0 0 0 0.376471 0 0 0 0.02 0"/>
<feBlend mode="normal" in2="effect1_dropShadow_4_1589" result="effect2_dropShadow_4_1589"/>
<feBlend mode="normal" in="SourceGraphic" in2="effect2_dropShadow_4_1589" result="shape"/>
</filter>
<clipPath id="clip0_4_1589">
<rect width="44" height="54.2979" fill="white" transform="translate(34 31)"/>
</clipPath>
</defs>
</svg>
