<svg width="42" height="40" viewBox="0 0 42 40" fill="none" xmlns="http://www.w3.org/2000/svg">
<path d="M2.49211 39V31.77H4.81711C5.69711 31.77 6.36211 31.9317 6.81211 32.255C7.26544 32.5783 7.49211 33.045 7.49211 33.655C7.49211 34.0383 7.39211 34.3667 7.19211 34.64C6.99544 34.9133 6.64878 35.1383 6.15211 35.315C6.43544 35.375 6.67378 35.4617 6.86711 35.575C7.06378 35.6883 7.22044 35.8217 7.33711 35.975C7.45711 36.125 7.54211 36.2917 7.59211 36.475C7.64544 36.6583 7.67211 36.8517 7.67211 37.055C7.67211 37.7083 7.43878 38.1967 6.97211 38.52C6.50878 38.84 5.81544 39 4.89211 39H2.49211ZM3.41711 38.23H4.88211C5.48544 38.23 5.94378 38.1317 6.25711 37.935C6.57378 37.735 6.73211 37.4283 6.73211 37.015C6.73211 36.7117 6.65378 36.4667 6.49711 36.28C6.34378 36.09 6.13544 35.9517 5.87211 35.865C5.60878 35.7783 5.31544 35.735 4.99211 35.735H3.41711V38.23ZM3.41711 34.95H4.99211C5.18211 34.95 5.37044 34.9317 5.55711 34.895C5.74378 34.8583 5.91544 34.795 6.07211 34.705C6.22878 34.615 6.35544 34.495 6.45211 34.345C6.54878 34.1917 6.59711 34 6.59711 33.77C6.59711 33.35 6.43544 33.04 6.11211 32.84C5.79211 32.6367 5.37544 32.535 4.86211 32.535H3.41711V34.95ZM10.4411 39.1C10.1078 39.1 9.81276 39.0417 9.55609 38.925C9.29943 38.805 9.09776 38.6333 8.95109 38.41C8.80776 38.1867 8.73609 37.9167 8.73609 37.6C8.73609 37.0267 8.93609 36.6 9.33609 36.32C9.73609 36.04 10.3778 35.89 11.2611 35.87L12.1861 35.845V35.44C12.1861 35.1233 12.0911 34.8733 11.9011 34.69C11.7111 34.5033 11.4161 34.41 11.0161 34.41C10.7194 34.4133 10.4578 34.4833 10.2311 34.62C10.0078 34.7567 9.86276 34.98 9.79609 35.29H8.98109C9.00109 34.9533 9.09609 34.67 9.26609 34.44C9.43609 34.2067 9.67276 34.03 9.97609 33.91C10.2828 33.79 10.6444 33.73 11.0611 33.73C11.5111 33.73 11.8844 33.7933 12.1811 33.92C12.4811 34.0467 12.7044 34.2333 12.8511 34.48C13.0011 34.7267 13.0761 35.03 13.0761 35.39V39H12.2861L12.2211 38.03C12.0211 38.4333 11.7661 38.7133 11.4561 38.87C11.1494 39.0233 10.8111 39.1 10.4411 39.1ZM10.7211 38.435C10.8944 38.435 11.0661 38.4033 11.2361 38.34C11.4094 38.2767 11.5678 38.1917 11.7111 38.085C11.8544 37.975 11.9678 37.8533 12.0511 37.72C12.1378 37.5833 12.1828 37.4433 12.1861 37.3V36.415L11.4161 36.43C11.0228 36.4367 10.6928 36.4767 10.4261 36.55C10.1628 36.6233 9.96443 36.7383 9.83109 36.895C9.70109 37.0517 9.63609 37.2567 9.63609 37.51C9.63609 37.8 9.73609 38.0267 9.93609 38.19C10.1394 38.3533 10.4011 38.435 10.7211 38.435ZM14.6556 39V33.83H15.5506V34.58C15.634 34.4367 15.749 34.3017 15.8956 34.175C16.0456 34.0483 16.2256 33.9467 16.4356 33.87C16.649 33.7933 16.894 33.755 17.1706 33.755C17.4973 33.755 17.7973 33.82 18.0706 33.95C18.3473 34.08 18.5673 34.2833 18.7306 34.56C18.8973 34.8333 18.9806 35.1867 18.9806 35.62V39H18.0556V35.71C18.0556 35.3067 17.949 35.0083 17.7356 34.815C17.5256 34.6183 17.2523 34.52 16.9156 34.52C16.6823 34.52 16.464 34.5583 16.2606 34.635C16.0573 34.7083 15.8923 34.8217 15.7656 34.975C15.639 35.125 15.5756 35.315 15.5756 35.545V39H14.6556ZM22.8096 34.505H21.6446V37.72C21.6446 37.9033 21.6629 38.0383 21.6996 38.125C21.7396 38.2083 21.8046 38.2617 21.8946 38.285C21.9879 38.3083 22.1146 38.32 22.2746 38.32H22.8396V38.94C22.7763 38.9633 22.6796 38.9833 22.5496 39C22.4229 39.0167 22.2646 39.025 22.0746 39.025C21.7179 39.025 21.4413 38.9767 21.2446 38.88C21.0479 38.7833 20.9096 38.64 20.8296 38.45C20.7529 38.26 20.7146 38.0267 20.7146 37.75V34.505H19.8746V33.83H20.7396L20.9646 32.325H21.6446V33.825H22.8096V34.505ZM25.9892 39.1C25.7192 39.0967 25.4642 39.0583 25.2242 38.985C24.9876 38.9083 24.7776 38.7967 24.5942 38.65C24.4109 38.5033 24.2659 38.3217 24.1592 38.105C24.0559 37.885 24.0042 37.63 24.0042 37.34V33.83H24.9292V37.245C24.9292 37.5817 25.0326 37.855 25.2392 38.065C25.4492 38.275 25.7642 38.38 26.1842 38.38C26.5642 38.38 26.8692 38.2817 27.0992 38.085C27.3326 37.885 27.4492 37.5883 27.4492 37.195V33.83H28.3692V39H27.6342L27.5392 38.01C27.4759 38.27 27.3676 38.48 27.2142 38.64C27.0642 38.8 26.8826 38.9183 26.6692 38.995C26.4592 39.0683 26.2326 39.1033 25.9892 39.1ZM31.2419 39.1C30.9085 39.1 30.6135 39.0417 30.3569 38.925C30.1002 38.805 29.8985 38.6333 29.7519 38.41C29.6085 38.1867 29.5369 37.9167 29.5369 37.6C29.5369 37.0267 29.7369 36.6 30.1369 36.32C30.5369 36.04 31.1785 35.89 32.0619 35.87L32.9869 35.845V35.44C32.9869 35.1233 32.8919 34.8733 32.7019 34.69C32.5119 34.5033 32.2169 34.41 31.8169 34.41C31.5202 34.4133 31.2585 34.4833 31.0319 34.62C30.8085 34.7567 30.6635 34.98 30.5969 35.29H29.7819C29.8019 34.9533 29.8969 34.67 30.0669 34.44C30.2369 34.2067 30.4735 34.03 30.7769 33.91C31.0835 33.79 31.4452 33.73 31.8619 33.73C32.3119 33.73 32.6852 33.7933 32.9819 33.92C33.2819 34.0467 33.5052 34.2333 33.6519 34.48C33.8019 34.7267 33.8769 35.03 33.8769 35.39V39H33.0869L33.0219 38.03C32.8219 38.4333 32.5669 38.7133 32.2569 38.87C31.9502 39.0233 31.6119 39.1 31.2419 39.1ZM31.5219 38.435C31.6952 38.435 31.8669 38.4033 32.0369 38.34C32.2102 38.2767 32.3685 38.1917 32.5119 38.085C32.6552 37.975 32.7685 37.8533 32.8519 37.72C32.9385 37.5833 32.9835 37.4433 32.9869 37.3V36.415L32.2169 36.43C31.8235 36.4367 31.4935 36.4767 31.2269 36.55C30.9635 36.6233 30.7652 36.7383 30.6319 36.895C30.5019 37.0517 30.4369 37.2567 30.4369 37.51C30.4369 37.8 30.5369 38.0267 30.7369 38.19C30.9402 38.3533 31.2019 38.435 31.5219 38.435ZM35.4564 39V33.83H36.3514V34.58C36.4347 34.4367 36.5497 34.3017 36.6964 34.175C36.8464 34.0483 37.0264 33.9467 37.2364 33.87C37.4497 33.7933 37.6947 33.755 37.9714 33.755C38.2981 33.755 38.5981 33.82 38.8714 33.95C39.1481 34.08 39.3681 34.2833 39.5314 34.56C39.6981 34.8333 39.7814 35.1867 39.7814 35.62V39H38.8564V35.71C38.8564 35.3067 38.7497 35.0083 38.5364 34.815C38.3264 34.6183 38.0531 34.52 37.7164 34.52C37.4831 34.52 37.2647 34.5583 37.0614 34.635C36.8581 34.7083 36.6931 34.8217 36.5664 34.975C36.4397 35.125 36.3764 35.315 36.3764 35.545V39H35.4564Z" fill="#B4B9C7"/>
<path d="M12.7855 8.59374C11.6131 8.90832 10.75 9.97836 10.75 11.25V14.25C10.75 15.7688 11.9812 17 13.5 17H16C16.4142 17 16.75 16.6642 16.75 16.25V9.25C16.75 8.83579 16.4142 8.5 16 8.5H14.3148C14.744 6.03002 17.2586 4 20.5 4C23.7414 4 26.256 6.03002 26.6852 8.5H25C24.5858 8.5 24.25 8.83579 24.25 9.25V16.25C24.25 16.6642 24.5858 17 25 17H26.663C26.3244 18.4334 25.0368 19.5 23.5 19.5H22.3546C22.0579 18.767 21.3393 18.25 20.5 18.25C19.3954 18.25 18.5 19.1454 18.5 20.25C18.5 21.3546 19.3954 22.25 20.5 22.25C21.3393 22.25 22.0579 21.733 22.3546 21H23.5C25.8998 21 27.8839 19.2204 28.2047 16.9089C29.382 16.5977 30.25 15.5252 30.25 14.25V11.25C30.25 9.97836 29.3869 8.90832 28.2145 8.59375C27.8331 5.08959 24.4262 2.5 20.5 2.5C16.5738 2.5 13.1669 5.08959 12.7855 8.59374Z" fill="#B4B9C7"/>
</svg>
