<svg width="42" height="43" viewBox="0 0 42 43" fill="none" xmlns="http://www.w3.org/2000/svg">
<path d="M13.4614 26H16.4229C16.7086 26 16.9825 25.8837 17.1844 25.6766C17.3864 25.4695 17.4999 25.1885 17.4999 24.8956V18.5445C17.4999 18.1784 17.6416 17.8273 17.8942 17.5684C18.1466 17.3094 18.489 17.164 18.846 17.164H23.1538C23.5108 17.164 23.8532 17.3094 24.1056 17.5684C24.3582 17.8273 24.4999 18.1784 24.4999 18.5445V24.8956C24.4999 25.1885 24.6135 25.4695 24.8154 25.6766C25.0173 25.8837 25.2912 26 25.5769 26H28.5384C29.3239 26 30.0772 25.6801 30.6326 25.1104C31.1879 24.5407 31.5 23.7682 31.5 22.9627V12.9115C31.4993 12.0433 31.1391 11.2163 30.5093 10.6362L22.9709 3.76641H22.9707C22.4272 3.2727 21.7262 3 21 3C20.2738 3 19.5728 3.27273 19.0293 3.76641L11.4909 10.6362H11.4907C10.8609 11.2163 10.5007 12.0434 10.5 12.9115V22.9627C10.5 23.7682 10.8121 24.5407 11.3674 25.1104C11.9228 25.6801 12.6761 26 13.4616 26H13.4614Z" fill="#009B90"/>
<path d="M2.05566 42V34.77H4.54066C5.45733 34.77 6.14233 34.9333 6.59566 35.26C7.05233 35.5833 7.28066 36.05 7.28066 36.66C7.28066 37.03 7.18566 37.35 6.99566 37.62C6.80566 37.89 6.47066 38.1183 5.99066 38.305C6.284 38.375 6.52566 38.4717 6.71566 38.595C6.909 38.715 7.059 38.8533 7.16566 39.01C7.27233 39.1633 7.34733 39.3283 7.39066 39.505C7.434 39.6817 7.45566 39.8633 7.45566 40.05C7.45566 40.71 7.22566 41.2 6.76566 41.52C6.309 41.84 5.60066 42 4.64066 42H2.05566ZM3.27066 41.03H4.65566C5.169 41.03 5.55733 40.9383 5.82066 40.755C6.08733 40.5683 6.22066 40.3 6.22066 39.95C6.22066 39.6967 6.15566 39.4883 6.02566 39.325C5.89566 39.1583 5.719 39.035 5.49566 38.955C5.27233 38.875 5.02233 38.835 4.74566 38.835H3.27066V41.03ZM3.27066 37.85H4.74566C4.91566 37.85 5.08066 37.8317 5.24066 37.795C5.40066 37.7583 5.54566 37.7 5.67566 37.62C5.80566 37.54 5.909 37.4333 5.98566 37.3C6.06566 37.1667 6.10566 37.005 6.10566 36.815C6.10566 36.4517 5.96733 36.1817 5.69066 36.005C5.41733 35.825 5.06566 35.735 4.63566 35.735H3.27066V37.85ZM9.65184 39.695C9.6485 39.9883 9.69517 40.2483 9.79184 40.475C9.8885 40.7017 10.0318 40.88 10.2218 41.01C10.4118 41.1367 10.6468 41.2 10.9268 41.2C11.2135 41.2 11.4618 41.1367 11.6718 41.01C11.8852 40.88 12.0268 40.6833 12.0968 40.42H13.2118C13.1518 40.78 13.0085 41.085 12.7818 41.335C12.5552 41.585 12.2802 41.775 11.9568 41.905C11.6368 42.035 11.3035 42.1 10.9568 42.1C10.4568 42.1 10.0168 41.995 9.63684 41.785C9.26017 41.5717 8.96517 41.2683 8.75184 40.875C8.54184 40.4817 8.43684 40.0133 8.43684 39.47C8.43684 38.94 8.5335 38.47 8.72684 38.06C8.92017 37.6467 9.1985 37.3217 9.56184 37.085C9.9285 36.8483 10.3685 36.73 10.8818 36.73C11.3918 36.73 11.8202 36.8383 12.1668 37.055C12.5168 37.2717 12.7802 37.575 12.9568 37.965C13.1368 38.3517 13.2268 38.805 13.2268 39.325V39.695H9.65184ZM9.65184 38.94H12.0768C12.0768 38.69 12.0335 38.465 11.9468 38.265C11.8602 38.0617 11.7268 37.9017 11.5468 37.785C11.3702 37.665 11.1468 37.605 10.8768 37.605C10.6102 37.605 10.3852 37.67 10.2018 37.8C10.0185 37.93 9.88017 38.0983 9.78684 38.305C9.6935 38.5083 9.6485 38.72 9.65184 38.94ZM14.3609 42V36.83H15.5259V37.95C15.6092 37.6933 15.7276 37.475 15.8809 37.295C16.0376 37.1117 16.2209 36.9717 16.4309 36.875C16.6409 36.7783 16.8692 36.73 17.1159 36.73C17.1759 36.73 17.2342 36.7333 17.2909 36.74C17.3476 36.7467 17.3892 36.7583 17.4159 36.775V37.94C17.3792 37.9233 17.3309 37.9117 17.2709 37.905C17.2142 37.8983 17.1642 37.895 17.1209 37.895C16.8709 37.875 16.6492 37.885 16.4559 37.925C16.2659 37.965 16.1042 38.0333 15.9709 38.13C15.8409 38.2233 15.7426 38.3433 15.6759 38.49C15.6092 38.6333 15.5759 38.8017 15.5759 38.995V42H14.3609ZM19.7224 42.1C19.3924 42.1 19.0957 42.04 18.8324 41.92C18.5724 41.7967 18.3674 41.6217 18.2174 41.395C18.0707 41.165 17.9974 40.8867 17.9974 40.56C17.9974 39.99 18.2024 39.56 18.6124 39.27C19.0257 38.98 19.684 38.8283 20.5874 38.815L21.3574 38.795V38.445C21.3574 38.1717 21.2757 37.9583 21.1124 37.805C20.9524 37.6483 20.7024 37.5717 20.3624 37.575C20.1124 37.5783 19.8824 37.6383 19.6724 37.755C19.4657 37.8683 19.329 38.06 19.2624 38.33H18.2274C18.2474 37.9767 18.349 37.6817 18.5324 37.445C18.719 37.205 18.974 37.0267 19.2974 36.91C19.6207 36.79 19.994 36.73 20.4174 36.73C20.9107 36.73 21.3124 36.795 21.6224 36.925C21.9324 37.055 22.1607 37.2433 22.3074 37.49C22.454 37.7333 22.5274 38.0283 22.5274 38.375V42H21.5024L21.4074 41.07C21.2207 41.46 20.984 41.73 20.6974 41.88C20.414 42.0267 20.089 42.1 19.7224 42.1ZM20.1174 41.275C20.2674 41.275 20.4157 41.2483 20.5624 41.195C20.709 41.1383 20.8424 41.0633 20.9624 40.97C21.0824 40.8733 21.1774 40.7667 21.2474 40.65C21.3207 40.5333 21.3574 40.4117 21.3574 40.285V39.47L20.7224 39.48C20.409 39.4833 20.1357 39.5167 19.9024 39.58C19.669 39.6433 19.4857 39.745 19.3524 39.885C19.2224 40.0217 19.1574 40.205 19.1574 40.435C19.1574 40.6983 19.249 40.905 19.4324 41.055C19.6157 41.2017 19.844 41.275 20.1174 41.275ZM23.9507 42V36.83H25.1407V37.57C25.2207 37.4367 25.3291 37.3083 25.4657 37.185C25.6057 37.0617 25.7774 36.9617 25.9807 36.885C26.1841 36.8083 26.4224 36.77 26.6957 36.77C27.0157 36.77 27.3124 36.8333 27.5857 36.96C27.8624 37.0867 28.0841 37.285 28.2507 37.555C28.4207 37.825 28.5057 38.1733 28.5057 38.6V42H27.2857V38.745C27.2857 38.405 27.1924 38.1533 27.0057 37.99C26.8191 37.8233 26.5841 37.74 26.3007 37.74C26.1074 37.74 25.9241 37.7733 25.7507 37.84C25.5774 37.9033 25.4357 38.0017 25.3257 38.135C25.2191 38.265 25.1657 38.4283 25.1657 38.625V42H23.9507ZM31.7051 42.1C31.0218 42.1 30.4851 41.865 30.0951 41.395C29.7051 40.925 29.5101 40.2567 29.5101 39.39C29.5101 38.85 29.5885 38.3817 29.7451 37.985C29.9051 37.585 30.1385 37.2767 30.4451 37.06C30.7551 36.84 31.1385 36.73 31.5951 36.73C31.8085 36.73 32.0018 36.7567 32.1751 36.81C32.3518 36.86 32.5085 36.9267 32.6451 37.01C32.7818 37.0933 32.8968 37.185 32.9901 37.285C33.0868 37.385 33.1618 37.485 33.2151 37.585V34.57H34.4351V42H33.5351L33.4001 40.94C33.3601 41.0633 33.3001 41.1933 33.2201 41.33C33.1435 41.4633 33.0385 41.5883 32.9051 41.705C32.7751 41.8217 32.6118 41.9167 32.4151 41.99C32.2185 42.0633 31.9818 42.1 31.7051 42.1ZM31.9551 41.205C32.3918 41.205 32.7101 41.0633 32.9101 40.78C33.1135 40.4933 33.2151 40.02 33.2151 39.36C33.2118 38.9833 33.1651 38.6667 33.0751 38.41C32.9885 38.1533 32.8535 37.96 32.6701 37.83C32.4901 37.7 32.2568 37.635 31.9701 37.635C31.6035 37.635 31.3018 37.77 31.0651 38.04C30.8285 38.31 30.7101 38.75 30.7101 39.36C30.7101 39.9667 30.8185 40.4267 31.0351 40.74C31.2518 41.05 31.5585 41.205 31.9551 41.205ZM37.281 42.1C36.951 42.1 36.6543 42.04 36.391 41.92C36.131 41.7967 35.926 41.6217 35.776 41.395C35.6293 41.165 35.556 40.8867 35.556 40.56C35.556 39.99 35.761 39.56 36.171 39.27C36.5843 38.98 37.2426 38.8283 38.146 38.815L38.916 38.795V38.445C38.916 38.1717 38.8343 37.9583 38.671 37.805C38.511 37.6483 38.261 37.5717 37.921 37.575C37.671 37.5783 37.441 37.6383 37.231 37.755C37.0243 37.8683 36.8876 38.06 36.821 38.33H35.786C35.806 37.9767 35.9076 37.6817 36.091 37.445C36.2776 37.205 36.5326 37.0267 36.856 36.91C37.1793 36.79 37.5526 36.73 37.976 36.73C38.4693 36.73 38.871 36.795 39.181 36.925C39.491 37.055 39.7193 37.2433 39.866 37.49C40.0126 37.7333 40.086 38.0283 40.086 38.375V42H39.061L38.966 41.07C38.7793 41.46 38.5426 41.73 38.256 41.88C37.9726 42.0267 37.6476 42.1 37.281 42.1ZM37.676 41.275C37.826 41.275 37.9743 41.2483 38.121 41.195C38.2676 41.1383 38.401 41.0633 38.521 40.97C38.641 40.8733 38.736 40.7667 38.806 40.65C38.8793 40.5333 38.916 40.4117 38.916 40.285V39.47L38.281 39.48C37.9676 39.4833 37.6943 39.5167 37.461 39.58C37.2276 39.6433 37.0443 39.745 36.911 39.885C36.781 40.0217 36.716 40.205 36.716 40.435C36.716 40.6983 36.8076 40.905 36.991 41.055C37.1743 41.2017 37.4026 41.275 37.676 41.275Z" fill="#009B90"/>
</svg>
