<svg width="300" height="251" viewBox="0 0 300 251" fill="none" xmlns="http://www.w3.org/2000/svg">
<path d="M19.3851 98.0207L19.3854 98.0213C19.6447 98.599 20.0776 99.6534 20.4266 100.503L20.4301 100.512C20.7106 101.195 20.9237 101.713 20.9689 101.803C21.1333 102.13 21.2752 102.601 21.011 103.142M19.3851 98.0207L19.4804 105.469C19.432 105.386 19.4208 105.336 19.4182 105.315C19.416 105.298 19.418 105.288 19.4221 105.277C19.428 105.262 19.4423 105.234 19.4782 105.19C19.5155 105.144 19.5621 105.096 19.6281 105.031L19.6283 105.03C19.7906 104.869 19.9723 104.649 20.1344 104.453L20.1452 104.44C20.2429 104.322 20.3359 104.21 20.4242 104.108L20.4243 104.108C20.6954 103.797 20.8158 103.547 20.951 103.266L20.9555 103.257L20.514 103.044L20.9555 103.257C20.9736 103.22 20.9918 103.182 21.011 103.142M19.3851 98.0207C19.1679 97.5384 18.9122 97.2173 18.5937 97.0327C18.2837 96.853 17.9791 96.845 17.7968 96.8402L17.7882 96.84C17.7876 96.84 17.7871 96.8399 17.7865 96.8399C17.4819 96.8299 17.1296 96.8299 16.7879 96.8299H16.7823C16.3216 96.8299 15.6255 96.9991 15.0405 97.6299L19.3851 98.0207ZM21.011 103.142L20.5627 102.924L21.011 103.142C21.011 103.142 21.011 103.142 21.011 103.142ZM22.2488 108.9L22.2496 108.901C23.838 110.315 25.2134 110.909 25.921 111.214L25.9222 111.215L25.9334 111.219C26.0647 111.276 26.1892 111.33 26.2852 111.378M22.2488 108.9L26.0624 111.825M22.2488 108.9C20.7748 107.594 19.7679 105.965 19.4804 105.469L22.2488 108.9ZM26.2852 111.378L26.0624 111.825M26.2852 111.378C26.2852 111.378 26.2851 111.378 26.2851 111.378L26.0624 111.825M26.2852 111.378C26.5096 111.489 26.6094 111.494 26.6447 111.49L26.6453 111.49C26.6593 111.488 26.7052 111.483 26.8016 111.371L26.8016 111.371C27.1084 111.015 28.0697 109.894 28.3971 109.411M26.0624 111.825C26.577 112.081 26.8836 112.042 27.1804 111.697C27.4774 111.352 28.4666 110.2 28.813 109.688M28.3971 109.411C28.3965 109.412 28.3958 109.413 28.3951 109.414L28.813 109.688M28.3971 109.411C28.3977 109.41 28.3983 109.409 28.3989 109.408L28.813 109.688M28.3971 109.411C28.6187 109.075 28.9045 108.85 29.2813 108.805C29.6054 108.767 29.9187 108.879 30.1453 108.964L30.1454 108.964C30.4102 109.063 31.1894 109.431 31.9336 109.789C32.6921 110.154 33.4559 110.53 33.7153 110.659L33.7154 110.659C33.8133 110.707 33.9052 110.751 33.9937 110.794L34.0094 110.801C34.1755 110.881 34.3455 110.963 34.4859 111.048C34.6301 111.136 34.7986 111.261 34.9119 111.452M28.813 109.688C29.1493 109.176 29.4956 109.255 29.9706 109.432C30.4454 109.609 32.9781 110.85 33.4925 111.106C33.5942 111.157 33.6893 111.202 33.7775 111.245C34.1355 111.416 34.3787 111.533 34.4819 111.707M34.9119 111.452L34.4819 111.707M34.9119 111.452C34.9119 111.452 34.9119 111.452 34.9119 111.452L34.4819 111.707M34.9119 111.452C35.0076 111.613 35.0361 111.82 35.0481 111.972C35.0621 112.15 35.0598 112.364 35.0395 112.601C34.9988 113.077 34.8835 113.675 34.6565 114.316L34.6553 114.319C34.3796 115.08 33.6277 115.744 32.9076 116.208C32.1811 116.676 31.3398 117.034 30.7495 117.089C30.6672 117.097 30.5843 117.107 30.4911 117.118L30.4311 116.622L30.4911 117.118C30.0336 117.173 29.4863 117.238 28.5422 117.08C27.6165 116.925 26.3198 116.557 24.3361 115.776C19.3407 113.812 16.0684 108.975 15.4106 108.003L15.4047 107.994L15.8188 107.714L15.4047 107.994C15.3494 107.912 15.3232 107.874 15.3131 107.86C15.3131 107.86 15.313 107.86 15.313 107.86L15.3023 107.846L15.3022 107.846L15.3022 107.846C15.1494 107.641 14.6049 106.913 14.098 105.911C13.5945 104.916 13.1064 103.61 13.1064 102.254C13.1064 99.6783 14.3889 98.3191 14.9504 97.7257L15.3136 98.0693L14.9504 97.7257L34.1851 114.149C34.6105 112.948 34.6105 111.924 34.4819 111.707M14.7944 123.803C14.6829 123.742 14.5526 123.727 14.4299 123.759L5.2152 126.166C4.99166 126.224 4.7888 126.018 4.85016 125.796L7.31138 116.862C7.34699 116.733 7.3292 116.594 7.26201 116.478C5.56131 113.542 4.66675 110.212 4.66797 106.823V106.823C4.66797 96.1706 13.3857 87.5 24.0837 87.5C29.2843 87.5 34.1539 89.5156 37.8196 93.1642C41.4847 96.8124 43.4998 101.668 43.4998 106.833C43.4998 117.484 34.7821 126.155 24.0839 126.155H24.074C20.8233 126.155 17.6303 125.339 14.7944 123.803Z" fill="#213360" stroke="#213360" stroke-linejoin="round"/>
<path d="M69.257 89.738C70.0177 89.738 70.6943 89.892 71.287 90.2C71.8843 90.5033 72.365 90.9187 72.729 91.446C73.0977 91.9733 73.3147 92.5683 73.38 93.231H71.238C71.1727 92.881 71.0537 92.5707 70.881 92.3C70.7083 92.0247 70.482 91.81 70.202 91.656C69.922 91.4973 69.586 91.418 69.194 91.418C68.7227 91.418 68.3167 91.5323 67.976 91.761C67.6353 91.9897 67.374 92.3583 67.192 92.867C67.01 93.3757 66.919 94.0477 66.919 94.883C66.919 96.143 67.1197 97.0553 67.521 97.62C67.927 98.18 68.4847 98.46 69.194 98.46C69.586 98.46 69.922 98.3713 70.202 98.194C70.482 98.012 70.7083 97.774 70.881 97.48C71.0537 97.1813 71.1727 96.8547 71.238 96.5H73.38C73.3193 96.9807 73.2027 97.4403 73.03 97.879C72.8573 98.313 72.6123 98.7003 72.295 99.041C71.9777 99.3817 71.5693 99.65 71.07 99.846C70.5707 100.042 69.9663 100.14 69.257 100.14C68.3143 100.14 67.5 99.9207 66.814 99.482C66.128 99.0433 65.5983 98.4273 65.225 97.634C64.8563 96.8407 64.672 95.9143 64.672 94.855C64.672 93.791 64.8563 92.8787 65.225 92.118C65.5937 91.3527 66.121 90.7647 66.807 90.354C67.493 89.9433 68.3097 89.738 69.257 89.738ZM74.9238 100V89.598H76.9538V93.805C77.0705 93.637 77.2175 93.4713 77.3948 93.308C77.5722 93.14 77.7938 93 78.0598 92.888C78.3258 92.776 78.6502 92.72 79.0328 92.72C79.4948 92.72 79.9148 92.811 80.2928 92.993C80.6755 93.1703 80.9812 93.4293 81.2098 93.77C81.4432 94.1107 81.5598 94.526 81.5598 95.016V100H79.5088V95.317C79.5088 94.9903 79.3898 94.7407 79.1518 94.568C78.9185 94.3907 78.6338 94.302 78.2978 94.302C78.0785 94.302 77.8662 94.3417 77.6608 94.421C77.4555 94.5003 77.2875 94.6217 77.1568 94.785C77.0308 94.9437 76.9678 95.142 76.9678 95.38V100H74.9238ZM85.268 100.14C84.806 100.14 84.3906 100.054 84.022 99.881C83.6533 99.7083 83.3616 99.4587 83.147 99.132C82.9323 98.8007 82.825 98.3993 82.825 97.928C82.825 97.1347 83.1213 96.5327 83.714 96.122C84.3066 95.7067 85.2423 95.492 86.521 95.478L87.424 95.464V95.03C87.424 94.6987 87.326 94.4443 87.13 94.267C86.9386 94.085 86.64 93.9963 86.234 94.001C85.9353 94.0057 85.6506 94.0757 85.38 94.211C85.114 94.3463 84.932 94.582 84.834 94.918H83.133C83.161 94.3953 83.3126 93.966 83.588 93.63C83.8633 93.2893 84.2366 93.0373 84.708 92.874C85.184 92.706 85.723 92.622 86.325 92.622C87.067 92.622 87.662 92.7153 88.11 92.902C88.558 93.084 88.8823 93.3477 89.083 93.693C89.2836 94.0337 89.384 94.4397 89.384 94.911V100H87.676L87.508 98.754C87.2606 99.2767 86.9503 99.6383 86.577 99.839C86.2083 100.04 85.772 100.14 85.268 100.14ZM85.954 98.796C86.1406 98.796 86.3203 98.7633 86.493 98.698C86.6703 98.628 86.8266 98.537 86.962 98.425C87.102 98.3083 87.214 98.1777 87.298 98.033C87.382 97.8883 87.424 97.739 87.424 97.585V96.514L86.689 96.528C86.3483 96.5327 86.031 96.5747 85.737 96.654C85.443 96.7287 85.205 96.8523 85.023 97.025C84.8456 97.1977 84.757 97.431 84.757 97.725C84.757 98.061 84.8736 98.3247 85.107 98.516C85.3403 98.7027 85.6226 98.796 85.954 98.796ZM95.2889 94.183H93.6789L93.6929 98.04C93.6929 98.2173 93.7139 98.3503 93.7559 98.439C93.8026 98.523 93.8726 98.579 93.9659 98.607C94.0639 98.6303 94.1876 98.642 94.3369 98.642H95.3099V99.902C95.2166 99.944 95.0696 99.9837 94.8689 100.021C94.6729 100.058 94.3976 100.077 94.0429 100.077C93.4082 100.077 92.9159 99.9953 92.5659 99.832C92.2206 99.6687 91.9802 99.44 91.8449 99.146C91.7096 98.852 91.6419 98.5113 91.6419 98.124V94.183H90.4659V92.762H91.7119L92.2229 90.578H93.6789V92.755H95.2889V94.183ZM111.951 89.878L108.962 100H107.331L105.427 93.385L103.509 100H101.906L98.9242 89.878H100.926L102.809 96.563L104.692 89.878H106.169L108.073 96.563L109.956 89.878H111.951ZM113.096 100V89.598H115.126V93.805C115.242 93.637 115.389 93.4713 115.567 93.308C115.744 93.14 115.966 93 116.232 92.888C116.498 92.776 116.822 92.72 117.205 92.72C117.667 92.72 118.087 92.811 118.465 92.993C118.847 93.1703 119.153 93.4293 119.382 93.77C119.615 94.1107 119.732 94.526 119.732 95.016V100H117.681V95.317C117.681 94.9903 117.562 94.7407 117.324 94.568C117.09 94.3907 116.806 94.302 116.47 94.302C116.25 94.302 116.038 94.3417 115.833 94.421C115.627 94.5003 115.459 94.6217 115.329 94.785C115.203 94.9437 115.14 95.142 115.14 95.38V100H113.096ZM123.44 100.14C122.978 100.14 122.563 100.054 122.194 99.881C121.825 99.7083 121.534 99.4587 121.319 99.132C121.104 98.8007 120.997 98.3993 120.997 97.928C120.997 97.1347 121.293 96.5327 121.886 96.122C122.479 95.7067 123.414 95.492 124.693 95.478L125.596 95.464V95.03C125.596 94.6987 125.498 94.4443 125.302 94.267C125.111 94.085 124.812 93.9963 124.406 94.001C124.107 94.0057 123.823 94.0757 123.552 94.211C123.286 94.3463 123.104 94.582 123.006 94.918H121.305C121.333 94.3953 121.485 93.966 121.76 93.63C122.035 93.2893 122.409 93.0373 122.88 92.874C123.356 92.706 123.895 92.622 124.497 92.622C125.239 92.622 125.834 92.7153 126.282 92.902C126.73 93.084 127.054 93.3477 127.255 93.693C127.456 94.0337 127.556 94.4397 127.556 94.911V100H125.848L125.68 98.754C125.433 99.2767 125.122 99.6383 124.749 99.839C124.38 100.04 123.944 100.14 123.44 100.14ZM124.126 98.796C124.313 98.796 124.492 98.7633 124.665 98.698C124.842 98.628 124.999 98.537 125.134 98.425C125.274 98.3083 125.386 98.1777 125.47 98.033C125.554 97.8883 125.596 97.739 125.596 97.585V96.514L124.861 96.528C124.52 96.5327 124.203 96.5747 123.909 96.654C123.615 96.7287 123.377 96.8523 123.195 97.025C123.018 97.1977 122.929 97.431 122.929 97.725C122.929 98.061 123.046 98.3247 123.279 98.516C123.512 98.7027 123.795 98.796 124.126 98.796ZM133.461 94.183H131.851L131.865 98.04C131.865 98.2173 131.886 98.3503 131.928 98.439C131.974 98.523 132.044 98.579 132.138 98.607C132.236 98.6303 132.359 98.642 132.509 98.642H133.482V99.902C133.388 99.944 133.241 99.9837 133.041 100.021C132.845 100.058 132.569 100.077 132.215 100.077C131.58 100.077 131.088 99.9953 130.738 99.832C130.392 99.6687 130.152 99.44 130.017 99.146C129.881 98.852 129.814 98.5113 129.814 98.124V94.183H128.638V92.762H129.884L130.395 90.578H131.851V92.755H133.461V94.183ZM137.779 100.14C137.275 100.14 136.79 100.058 136.323 99.895C135.856 99.727 135.462 99.4657 135.14 99.111C134.818 98.7517 134.613 98.2873 134.524 97.718H136.295C136.356 97.9747 136.465 98.1777 136.624 98.327C136.787 98.4763 136.972 98.5837 137.177 98.649C137.382 98.7097 137.578 98.74 137.765 98.74C138.157 98.74 138.472 98.6793 138.71 98.558C138.953 98.432 139.074 98.2407 139.074 97.984C139.074 97.788 139.002 97.6317 138.857 97.515C138.717 97.3983 138.484 97.3097 138.157 97.249L136.883 96.983C136.244 96.8477 135.73 96.619 135.343 96.297C134.956 95.9703 134.757 95.5083 134.748 94.911C134.748 94.477 134.862 94.0873 135.091 93.742C135.324 93.3967 135.667 93.1237 136.12 92.923C136.573 92.7223 137.128 92.622 137.786 92.622C138.677 92.622 139.389 92.818 139.921 93.21C140.458 93.602 140.731 94.155 140.74 94.869H139.032C138.981 94.589 138.841 94.3743 138.612 94.225C138.388 94.071 138.106 93.994 137.765 93.994C137.41 93.994 137.119 94.057 136.89 94.183C136.661 94.309 136.547 94.5003 136.547 94.757C136.547 94.9483 136.64 95.1 136.827 95.212C137.014 95.3193 137.303 95.4127 137.695 95.492L138.871 95.758C139.277 95.856 139.606 95.9913 139.858 96.164C140.115 96.332 140.313 96.5163 140.453 96.717C140.593 96.9177 140.689 97.1207 140.74 97.326C140.796 97.5267 140.824 97.7087 140.824 97.872C140.824 98.3527 140.696 98.7633 140.439 99.104C140.182 99.44 139.825 99.6967 139.368 99.874C138.911 100.051 138.381 100.14 137.779 100.14ZM144.413 100.14C143.951 100.14 143.535 100.054 143.167 99.881C142.798 99.7083 142.506 99.4587 142.292 99.132C142.077 98.8007 141.97 98.3993 141.97 97.928C141.97 97.1347 142.266 96.5327 142.859 96.122C143.451 95.7067 144.387 95.492 145.666 95.478L146.569 95.464V95.03C146.569 94.6987 146.471 94.4443 146.275 94.267C146.083 94.085 145.785 93.9963 145.379 94.001C145.08 94.0057 144.795 94.0757 144.525 94.211C144.259 94.3463 144.077 94.582 143.979 94.918H142.278C142.306 94.3953 142.457 93.966 142.733 93.63C143.008 93.2893 143.381 93.0373 143.853 92.874C144.329 92.706 144.868 92.622 145.47 92.622C146.212 92.622 146.807 92.7153 147.255 92.902C147.703 93.084 148.027 93.3477 148.228 93.693C148.428 94.0337 148.529 94.4397 148.529 94.911V100H146.821L146.653 98.754C146.405 99.2767 146.095 99.6383 145.722 99.839C145.353 100.04 144.917 100.14 144.413 100.14ZM145.099 98.796C145.285 98.796 145.465 98.7633 145.638 98.698C145.815 98.628 145.971 98.537 146.107 98.425C146.247 98.3083 146.359 98.1777 146.443 98.033C146.527 97.8883 146.569 97.739 146.569 97.585V96.514L145.834 96.528C145.493 96.5327 145.176 96.5747 144.882 96.654C144.588 96.7287 144.35 96.8523 144.168 97.025C143.99 97.1977 143.902 97.431 143.902 97.725C143.902 98.061 144.018 98.3247 144.252 98.516C144.485 98.7027 144.767 98.796 145.099 98.796ZM150.338 102.254V92.762H152.389L152.396 93.805C152.503 93.6323 152.634 93.476 152.788 93.336C152.947 93.1913 153.122 93.0653 153.313 92.958C153.504 92.8507 153.712 92.769 153.936 92.713C154.16 92.6523 154.396 92.622 154.643 92.622C155.18 92.622 155.658 92.755 156.078 93.021C156.498 93.2823 156.827 93.6883 157.065 94.239C157.308 94.785 157.429 95.4803 157.429 96.325C157.429 97.2023 157.298 97.9233 157.037 98.488C156.78 99.048 156.426 99.4633 155.973 99.734C155.52 100.005 155.009 100.14 154.44 100.14C154.207 100.14 153.987 100.107 153.782 100.042C153.577 99.9813 153.385 99.895 153.208 99.783C153.035 99.671 152.879 99.5427 152.739 99.398C152.604 99.2487 152.485 99.0877 152.382 98.915V102.254H150.338ZM153.95 98.642C154.393 98.642 154.764 98.4577 155.063 98.089C155.366 97.7203 155.518 97.137 155.518 96.339C155.518 95.639 155.373 95.093 155.084 94.701C154.799 94.3043 154.421 94.106 153.95 94.106C153.423 94.106 153.028 94.3207 152.767 94.75C152.51 95.1747 152.382 95.7043 152.382 96.339C152.382 96.745 152.438 97.123 152.55 97.473C152.667 97.823 152.839 98.1053 153.068 98.32C153.301 98.5347 153.595 98.642 153.95 98.642ZM158.787 102.254V92.762H160.838L160.845 93.805C160.952 93.6323 161.083 93.476 161.237 93.336C161.396 93.1913 161.571 93.0653 161.762 92.958C161.953 92.8507 162.161 92.769 162.385 92.713C162.609 92.6523 162.845 92.622 163.092 92.622C163.629 92.622 164.107 92.755 164.527 93.021C164.947 93.2823 165.276 93.6883 165.514 94.239C165.757 94.785 165.878 95.4803 165.878 96.325C165.878 97.2023 165.747 97.9233 165.486 98.488C165.229 99.048 164.875 99.4633 164.422 99.734C163.969 100.005 163.458 100.14 162.889 100.14C162.656 100.14 162.436 100.107 162.231 100.042C162.026 99.9813 161.834 99.895 161.657 99.783C161.484 99.671 161.328 99.5427 161.188 99.398C161.053 99.2487 160.934 99.0877 160.831 98.915V102.254H158.787ZM162.399 98.642C162.842 98.642 163.213 98.4577 163.512 98.089C163.815 97.7203 163.967 97.137 163.967 96.339C163.967 95.639 163.822 95.093 163.533 94.701C163.248 94.3043 162.87 94.106 162.399 94.106C161.872 94.106 161.477 94.3207 161.216 94.75C160.959 95.1747 160.831 95.7043 160.831 96.339C160.831 96.745 160.887 97.123 160.999 97.473C161.116 97.823 161.288 98.1053 161.517 98.32C161.75 98.5347 162.044 98.642 162.399 98.642Z" fill="#213360"/>
<path d="M71.888 118.608V119.752L64.984 119.768V118.616L71.888 118.608ZM69.024 122.632H67.88L67.864 115.728H69.016L69.024 122.632ZM78.171 113.272C78.811 113.272 79.4003 113.392 79.939 113.632C80.483 113.872 80.9337 114.216 81.291 114.664C81.6483 115.112 81.8697 115.653 81.955 116.288H80.563C80.4083 115.739 80.1283 115.304 79.723 114.984C79.3177 114.664 78.8083 114.504 78.195 114.504C77.5123 114.504 76.9417 114.699 76.483 115.088C76.0297 115.472 75.699 116.037 75.491 116.784C75.283 117.525 75.211 118.437 75.275 119.52C75.419 119.131 75.6377 118.789 75.931 118.496C76.2297 118.197 76.5763 117.968 76.971 117.808C77.3657 117.643 77.7923 117.56 78.251 117.56C79.0137 117.56 79.6803 117.709 80.251 118.008C80.8217 118.301 81.267 118.723 81.587 119.272C81.907 119.816 82.067 120.467 82.067 121.224C82.067 121.997 81.9017 122.683 81.571 123.28C81.2457 123.872 80.7817 124.336 80.179 124.672C79.5763 125.008 78.8643 125.176 78.043 125.176C77.147 125.176 76.3683 124.944 75.707 124.48C75.051 124.016 74.5417 123.355 74.179 122.496C73.8217 121.632 73.643 120.597 73.643 119.392C73.643 118.155 73.8163 117.077 74.163 116.16C74.515 115.243 75.027 114.533 75.699 114.032C76.371 113.525 77.195 113.272 78.171 113.272ZM78.011 118.76C77.5897 118.76 77.1843 118.861 76.795 119.064C76.411 119.261 76.0963 119.523 75.851 119.848C75.611 120.173 75.491 120.533 75.491 120.928C75.4857 121.515 75.587 122.037 75.795 122.496C76.0083 122.949 76.307 123.307 76.691 123.568C77.075 123.824 77.5203 123.952 78.027 123.952C78.5017 123.952 78.923 123.84 79.291 123.616C79.659 123.392 79.947 123.08 80.155 122.68C80.3683 122.28 80.475 121.819 80.475 121.296C80.475 120.768 80.379 120.315 80.187 119.936C80.0003 119.557 79.723 119.267 79.355 119.064C78.987 118.861 78.539 118.76 78.011 118.76ZM83.8201 125V124.096V123.624C83.8201 123.032 83.9295 122.52 84.1481 122.088C84.3721 121.656 84.6655 121.28 85.0281 120.96C85.3961 120.635 85.7961 120.344 86.2281 120.088C86.6655 119.832 87.1001 119.587 87.5321 119.352C87.9695 119.112 88.3695 118.864 88.7321 118.608C89.0948 118.347 89.3855 118.053 89.6041 117.728C89.8281 117.397 89.9401 117.008 89.9401 116.56C89.9401 115.973 89.7321 115.496 89.3161 115.128C88.9055 114.76 88.3481 114.576 87.6441 114.576C86.8868 114.576 86.2788 114.789 85.8201 115.216C85.3615 115.643 85.1028 116.211 85.0441 116.92H83.5721C83.5881 116.253 83.7535 115.645 84.0681 115.096C84.3828 114.541 84.8441 114.099 85.4521 113.768C86.0601 113.437 86.8095 113.272 87.7001 113.272C88.4735 113.272 89.1455 113.411 89.7161 113.688C90.2868 113.96 90.7268 114.344 91.0361 114.84C91.3508 115.331 91.5081 115.904 91.5081 116.56C91.5081 117.157 91.3988 117.669 91.1801 118.096C90.9615 118.523 90.6708 118.893 90.3081 119.208C89.9508 119.517 89.5588 119.795 89.1321 120.04C88.7055 120.285 88.2761 120.523 87.8441 120.752C87.4121 120.976 87.0175 121.213 86.6601 121.464C86.3028 121.709 86.0148 121.992 85.7961 122.312C85.5775 122.632 85.4681 123.013 85.4681 123.456V123.688H91.5721V125H83.8201ZM97.4074 120.28V121.448L93.3514 121.456V120.296L97.4074 120.28ZM103.31 113.272C104.564 113.272 105.561 113.776 106.302 114.784C107.049 115.787 107.422 117.272 107.422 119.24C107.422 121.197 107.052 122.677 106.31 123.68C105.569 124.677 104.564 125.176 103.294 125.176C102.03 125.176 101.028 124.68 100.286 123.688C99.5449 122.691 99.1743 121.216 99.1743 119.264C99.1743 117.947 99.3449 116.843 99.6863 115.952C100.028 115.061 100.508 114.392 101.126 113.944C101.745 113.496 102.473 113.272 103.31 113.272ZM103.31 123.896C104.137 123.896 104.761 123.533 105.182 122.808C105.609 122.077 105.822 120.891 105.822 119.248C105.822 117.573 105.606 116.368 105.174 115.632C104.748 114.891 104.124 114.52 103.302 114.52C102.486 114.52 101.857 114.893 101.414 115.64C100.977 116.381 100.758 117.584 100.758 119.248C100.758 120.885 100.977 122.069 101.414 122.8C101.852 123.531 102.484 123.896 103.31 123.896ZM111.179 125V115.792H108.947V114.824C109.64 114.824 110.179 114.773 110.563 114.672C110.947 114.571 111.219 114.416 111.379 114.208C111.544 114 111.635 113.741 111.651 113.432H112.707V125H111.179ZM115.711 125V124.096V123.624C115.711 123.032 115.82 122.52 116.039 122.088C116.263 121.656 116.556 121.28 116.919 120.96C117.287 120.635 117.687 120.344 118.119 120.088C118.556 119.832 118.991 119.587 119.423 119.352C119.86 119.112 120.26 118.864 120.623 118.608C120.985 118.347 121.276 118.053 121.495 117.728C121.719 117.397 121.831 117.008 121.831 116.56C121.831 115.973 121.623 115.496 121.207 115.128C120.796 114.76 120.239 114.576 119.535 114.576C118.777 114.576 118.169 114.789 117.711 115.216C117.252 115.643 116.993 116.211 116.935 116.92H115.463C115.479 116.253 115.644 115.645 115.959 115.096C116.273 114.541 116.735 114.099 117.343 113.768C117.951 113.437 118.7 113.272 119.591 113.272C120.364 113.272 121.036 113.411 121.607 113.688C122.177 113.96 122.617 114.344 122.927 114.84C123.241 115.331 123.399 115.904 123.399 116.56C123.399 117.157 123.289 117.669 123.071 118.096C122.852 118.523 122.561 118.893 122.199 119.208C121.841 119.517 121.449 119.795 121.023 120.04C120.596 120.285 120.167 120.523 119.735 120.752C119.303 120.976 118.908 121.213 118.551 121.464C118.193 121.709 117.905 121.992 117.687 122.312C117.468 122.632 117.359 123.013 117.359 123.456V123.688H123.463V125H115.711ZM125.17 116.8C125.17 116.053 125.351 115.419 125.714 114.896C126.077 114.368 126.559 113.965 127.162 113.688C127.77 113.411 128.439 113.272 129.17 113.272C129.97 113.272 130.677 113.389 131.29 113.624C131.903 113.853 132.383 114.189 132.73 114.632C133.077 115.075 133.25 115.616 133.25 116.256C133.25 116.827 133.069 117.344 132.706 117.808C132.343 118.267 131.789 118.627 131.042 118.888C131.549 119.027 131.991 119.229 132.37 119.496C132.749 119.763 133.042 120.091 133.25 120.48C133.458 120.864 133.562 121.307 133.562 121.808C133.562 122.336 133.45 122.811 133.226 123.232C133.007 123.648 132.698 124.003 132.298 124.296C131.898 124.584 131.426 124.805 130.882 124.96C130.338 125.109 129.746 125.181 129.106 125.176C128.311 125.171 127.61 125.024 127.002 124.736C126.399 124.448 125.925 124.045 125.578 123.528C125.231 123.005 125.045 122.387 125.018 121.672H126.498C126.61 122.392 126.903 122.944 127.378 123.328C127.853 123.712 128.447 123.904 129.162 123.904C129.727 123.904 130.221 123.816 130.642 123.64C131.063 123.459 131.389 123.211 131.618 122.896C131.847 122.581 131.962 122.213 131.962 121.792C131.962 121.328 131.834 120.936 131.578 120.616C131.322 120.296 130.973 120.053 130.53 119.888C130.087 119.717 129.594 119.629 129.05 119.624L128.01 119.6V118.344L129.002 118.32C129.509 118.309 129.962 118.213 130.362 118.032C130.762 117.845 131.077 117.603 131.306 117.304C131.541 117 131.658 116.667 131.658 116.304C131.658 115.984 131.559 115.688 131.362 115.416C131.165 115.139 130.879 114.917 130.506 114.752C130.138 114.587 129.69 114.504 129.162 114.504C128.746 114.504 128.349 114.587 127.97 114.752C127.591 114.912 127.279 115.16 127.034 115.496C126.789 115.832 126.658 116.267 126.642 116.8H125.17ZM139.376 120.28V121.448L135.32 121.456V120.296L139.376 120.28ZM146.511 113.432H148.015V120.744H149.935V122.048H148.015V125H146.567V122.048H141.119V120.696L146.511 113.432ZM142.535 120.744H146.535V115.376L142.535 120.744ZM152.169 113.432H159.073L159.033 114.712H153.433L153.137 118.448C153.521 118.091 153.94 117.837 154.393 117.688C154.852 117.533 155.348 117.456 155.881 117.456C156.58 117.456 157.222 117.6 157.809 117.888C158.401 118.171 158.876 118.592 159.233 119.152C159.59 119.707 159.769 120.395 159.769 121.216C159.769 122.016 159.596 122.712 159.249 123.304C158.902 123.896 158.414 124.357 157.785 124.688C157.156 125.013 156.417 125.176 155.569 125.176C154.854 125.176 154.193 125.051 153.585 124.8C152.977 124.549 152.454 124.2 152.017 123.752C151.585 123.304 151.268 122.789 151.065 122.208L152.345 121.672C152.537 122.109 152.777 122.499 153.065 122.84C153.358 123.181 153.705 123.448 154.105 123.64C154.505 123.832 154.958 123.928 155.465 123.928C156.286 123.928 156.945 123.691 157.441 123.216C157.942 122.736 158.193 122.085 158.193 121.264C158.193 120.752 158.076 120.307 157.841 119.928C157.606 119.544 157.289 119.245 156.889 119.032C156.494 118.819 156.057 118.712 155.577 118.712C155.262 118.712 154.969 118.741 154.697 118.8C154.425 118.853 154.156 118.96 153.889 119.12C153.622 119.28 153.342 119.523 153.049 119.848C153.017 119.864 152.993 119.872 152.977 119.872C152.961 119.867 152.934 119.856 152.897 119.84L151.649 119.448L152.169 113.432ZM165.843 113.272C166.483 113.272 167.072 113.392 167.611 113.632C168.155 113.872 168.606 114.216 168.963 114.664C169.32 115.112 169.542 115.653 169.627 116.288H168.235C168.08 115.739 167.8 115.304 167.395 114.984C166.99 114.664 166.48 114.504 165.867 114.504C165.184 114.504 164.614 114.699 164.155 115.088C163.702 115.472 163.371 116.037 163.163 116.784C162.955 117.525 162.883 118.437 162.947 119.52C163.091 119.131 163.31 118.789 163.603 118.496C163.902 118.197 164.248 117.968 164.643 117.808C165.038 117.643 165.464 117.56 165.923 117.56C166.686 117.56 167.352 117.709 167.923 118.008C168.494 118.301 168.939 118.723 169.259 119.272C169.579 119.816 169.739 120.467 169.739 121.224C169.739 121.997 169.574 122.683 169.243 123.28C168.918 123.872 168.454 124.336 167.851 124.672C167.248 125.008 166.536 125.176 165.715 125.176C164.819 125.176 164.04 124.944 163.379 124.48C162.723 124.016 162.214 123.355 161.851 122.496C161.494 121.632 161.315 120.597 161.315 119.392C161.315 118.155 161.488 117.077 161.835 116.16C162.187 115.243 162.699 114.533 163.371 114.032C164.043 113.525 164.867 113.272 165.843 113.272ZM165.683 118.76C165.262 118.76 164.856 118.861 164.467 119.064C164.083 119.261 163.768 119.523 163.523 119.848C163.283 120.173 163.163 120.533 163.163 120.928C163.158 121.515 163.259 122.037 163.467 122.496C163.68 122.949 163.979 123.307 164.363 123.568C164.747 123.824 165.192 123.952 165.699 123.952C166.174 123.952 166.595 123.84 166.963 123.616C167.331 123.392 167.619 123.08 167.827 122.68C168.04 122.28 168.147 121.819 168.147 121.296C168.147 120.768 168.051 120.315 167.859 119.936C167.672 119.557 167.395 119.267 167.027 119.064C166.659 118.861 166.211 118.76 165.683 118.76ZM170.963 113.432H179.083V114.712C178.672 115.272 178.264 115.909 177.859 116.624C177.459 117.333 177.077 118.077 176.715 118.856C176.352 119.629 176.027 120.395 175.739 121.152C175.451 121.904 175.211 122.613 175.019 123.28C174.832 123.941 174.712 124.515 174.659 125H173.051C173.136 124.472 173.288 123.819 173.507 123.04C173.731 122.261 174.024 121.411 174.387 120.488C174.749 119.56 175.187 118.603 175.699 117.616C176.211 116.629 176.797 115.661 177.459 114.712H170.963V113.432Z" fill="#213360"/>
<path fill-rule="evenodd" clip-rule="evenodd" d="M6.87868 153.879C6 154.757 6 156.172 6 159V175C6 177.828 6 179.243 6.87868 180.121C7.75736 181 9.17157 181 12 181H36C38.8284 181 40.2426 181 41.1213 180.121C42 179.243 42 177.828 42 175V159C42 156.172 42 154.757 41.1213 153.879C40.2426 153 38.8284 153 36 153H12C9.17157 153 7.75736 153 6.87868 153.879ZM12.5547 160.168C12.0952 159.862 11.4743 159.986 11.1679 160.445C10.8616 160.905 10.9858 161.526 11.4453 161.832L22.8906 169.462C23.5624 169.91 24.4376 169.91 25.1094 169.462L36.5547 161.832C37.0142 161.526 37.1384 160.905 36.8321 160.445C36.5257 159.986 35.9048 159.862 35.4453 160.168L24 167.798L12.5547 160.168Z" fill="#213360"/>
<path d="M65.134 160V149.878H72.085L72.078 151.6H67.185V154.057H71.434V155.744H67.171V158.257L72.155 158.264V160H65.134ZM73.6797 160V152.762H75.6817V153.784C75.901 153.467 76.195 153.194 76.5637 152.965C76.937 152.736 77.406 152.622 77.9707 152.622C78.218 152.622 78.47 152.666 78.7267 152.755C78.9834 152.844 79.2237 152.974 79.4477 153.147C79.6764 153.315 79.8607 153.527 80.0007 153.784C80.234 153.453 80.5397 153.177 80.9177 152.958C81.3004 152.734 81.725 152.622 82.1917 152.622C82.4624 152.622 82.7354 152.666 83.0107 152.755C83.2907 152.844 83.5474 152.988 83.7807 153.189C84.014 153.39 84.2007 153.658 84.3407 153.994C84.4854 154.325 84.5577 154.736 84.5577 155.226V160H82.5137V155.478C82.5137 155.189 82.4554 154.958 82.3387 154.785C82.2267 154.608 82.082 154.482 81.9047 154.407C81.732 154.328 81.5477 154.288 81.3517 154.288C81.1697 154.288 80.9854 154.325 80.7987 154.4C80.612 154.47 80.4534 154.584 80.3227 154.743C80.192 154.902 80.1267 155.109 80.1267 155.366V160H78.0897V155.296C78.0897 155.077 78.0314 154.892 77.9147 154.743C77.798 154.594 77.651 154.482 77.4737 154.407C77.301 154.328 77.1237 154.288 76.9417 154.288C76.755 154.288 76.5684 154.328 76.3817 154.407C76.195 154.482 76.0387 154.601 75.9127 154.764C75.7867 154.923 75.7237 155.123 75.7237 155.366V160H73.6797ZM88.2621 160.14C87.8001 160.14 87.3848 160.054 87.0161 159.881C86.6474 159.708 86.3558 159.459 86.1411 159.132C85.9264 158.801 85.8191 158.399 85.8191 157.928C85.8191 157.135 86.1154 156.533 86.7081 156.122C87.3008 155.707 88.2364 155.492 89.5151 155.478L90.4181 155.464V155.03C90.4181 154.699 90.3201 154.444 90.1241 154.267C89.9328 154.085 89.6341 153.996 89.2281 154.001C88.9294 154.006 88.6448 154.076 88.3741 154.211C88.1081 154.346 87.9261 154.582 87.8281 154.918H86.1271C86.1551 154.395 86.3068 153.966 86.5821 153.63C86.8574 153.289 87.2308 153.037 87.7021 152.874C88.1781 152.706 88.7171 152.622 89.3191 152.622C90.0611 152.622 90.6561 152.715 91.1041 152.902C91.5521 153.084 91.8764 153.348 92.0771 153.693C92.2778 154.034 92.3781 154.44 92.3781 154.911V160H90.6701L90.5021 158.754C90.2548 159.277 89.9444 159.638 89.5711 159.839C89.2024 160.04 88.7661 160.14 88.2621 160.14ZM88.9481 158.796C89.1348 158.796 89.3144 158.763 89.4871 158.698C89.6644 158.628 89.8208 158.537 89.9561 158.425C90.0961 158.308 90.2081 158.178 90.2921 158.033C90.3761 157.888 90.4181 157.739 90.4181 157.585V156.514L89.6831 156.528C89.3424 156.533 89.0251 156.575 88.7311 156.654C88.4371 156.729 88.1991 156.852 88.0171 157.025C87.8398 157.198 87.7511 157.431 87.7511 157.725C87.7511 158.061 87.8678 158.325 88.1011 158.516C88.3344 158.703 88.6168 158.796 88.9481 158.796ZM96.2455 152.762V160H94.2925V152.762H96.2455ZM96.2665 149.885V151.726H94.2785V149.885H96.2665ZM100.449 160.126C99.9167 160.126 99.4943 160.063 99.1817 159.937C98.869 159.811 98.638 159.645 98.4887 159.44C98.3393 159.23 98.2437 158.999 98.2017 158.747C98.1597 158.49 98.1387 158.231 98.1387 157.97V149.598H100.141V157.718C100.141 157.984 100.197 158.201 100.309 158.369C100.425 158.532 100.642 158.633 100.96 158.67L101.303 158.691V159.951C101.163 159.998 101.02 160.037 100.876 160.07C100.731 160.107 100.589 160.126 100.449 160.126Z" fill="#213360"/>
<path d="M68.52 176.568C69.112 176.568 69.6453 176.683 70.12 176.912C70.5947 177.136 70.9813 177.456 71.28 177.872C71.584 178.288 71.7733 178.779 71.848 179.344H70.536C70.488 179.056 70.376 178.792 70.2 178.552C70.0293 178.312 69.8027 178.12 69.52 177.976C69.2373 177.832 68.9067 177.76 68.528 177.76C67.8187 177.76 67.2427 178.016 66.8 178.528C66.3573 179.04 66.136 179.824 66.136 180.88C66.136 181.835 66.3387 182.6 66.744 183.176C67.1547 183.747 67.7573 184.032 68.552 184.032C68.9307 184.032 69.2587 183.96 69.536 183.816C69.8187 183.667 70.0453 183.472 70.216 183.232C70.3867 182.987 70.496 182.725 70.544 182.448H71.832C71.7627 183.003 71.576 183.483 71.272 183.888C70.968 184.293 70.5787 184.608 70.104 184.832C69.6347 185.051 69.1067 185.16 68.52 185.16C67.7787 185.16 67.12 184.997 66.544 184.672C65.9733 184.347 65.5253 183.867 65.2 183.232C64.8747 182.597 64.712 181.819 64.712 180.896C64.712 180.032 64.8587 179.277 65.152 178.632C65.4507 177.981 65.8827 177.475 66.448 177.112C67.0187 176.749 67.7093 176.568 68.52 176.568ZM77.137 185.16C76.3743 185.16 75.7077 184.997 75.137 184.672C74.5663 184.341 74.1237 183.859 73.809 183.224C73.4943 182.589 73.337 181.813 73.337 180.896C73.337 180.032 73.4837 179.275 73.777 178.624C74.0703 177.973 74.4997 177.469 75.065 177.112C75.6357 176.749 76.3263 176.568 77.137 176.568C77.8997 176.568 78.561 176.736 79.121 177.072C79.6863 177.403 80.1237 177.891 80.433 178.536C80.7423 179.181 80.897 179.968 80.897 180.896C80.897 181.739 80.753 182.48 80.465 183.12C80.1823 183.76 79.761 184.261 79.201 184.624C78.6463 184.981 77.9583 185.16 77.137 185.16ZM77.137 183.992C77.633 183.992 78.0517 183.867 78.393 183.616C78.7343 183.365 78.993 183.005 79.169 182.536C79.345 182.067 79.433 181.509 79.433 180.864C79.433 180.272 79.3557 179.741 79.201 179.272C79.0463 178.797 78.7983 178.421 78.457 178.144C78.121 177.867 77.681 177.728 77.137 177.728C76.6357 177.728 76.2117 177.853 75.865 178.104C75.5183 178.349 75.2543 178.707 75.073 179.176C74.897 179.645 74.809 180.208 74.809 180.864C74.809 181.445 74.889 181.973 75.049 182.448C75.209 182.923 75.4597 183.299 75.801 183.576C76.1423 183.853 76.5877 183.992 77.137 183.992ZM82.8334 185V176.728H84.2654V177.928C84.3987 177.699 84.5827 177.483 84.8174 177.28C85.0574 177.077 85.3454 176.915 85.6814 176.792C86.0227 176.669 86.4147 176.608 86.8574 176.608C87.38 176.608 87.86 176.712 88.2974 176.92C88.74 177.128 89.092 177.453 89.3534 177.896C89.62 178.333 89.7534 178.899 89.7534 179.592V185H88.2734V179.736C88.2734 179.091 88.1027 178.613 87.7614 178.304C87.4254 177.989 86.988 177.832 86.4494 177.832C86.076 177.832 85.7267 177.893 85.4014 178.016C85.076 178.133 84.812 178.315 84.6094 178.56C84.4067 178.8 84.3054 179.104 84.3054 179.472V185H82.8334ZM95.8798 177.808H94.0158V182.952C94.0158 183.245 94.0451 183.461 94.1038 183.6C94.1678 183.733 94.2718 183.819 94.4158 183.856C94.5651 183.893 94.7678 183.912 95.0238 183.912H95.9278V184.904C95.8264 184.941 95.6718 184.973 95.4638 185C95.2611 185.027 95.0078 185.04 94.7038 185.04C94.1331 185.04 93.6904 184.963 93.3758 184.808C93.0611 184.653 92.8398 184.424 92.7118 184.12C92.5891 183.816 92.5278 183.443 92.5278 183V177.808H91.1838V176.728H92.5678L92.9278 174.32H94.0158V176.72H95.8798V177.808ZM100.246 185.16C99.713 185.16 99.241 185.067 98.8304 184.88C98.4197 184.688 98.097 184.413 97.8624 184.056C97.633 183.699 97.5184 183.267 97.5184 182.76C97.5184 181.843 97.8384 181.16 98.4784 180.712C99.1184 180.264 100.145 180.024 101.558 179.992L103.038 179.952V179.304C103.038 178.797 102.886 178.397 102.582 178.104C102.278 177.805 101.806 177.656 101.166 177.656C100.692 177.661 100.273 177.773 99.9104 177.992C99.553 178.211 99.321 178.568 99.2144 179.064H97.9104C97.9424 178.525 98.0944 178.072 98.3664 177.704C98.6384 177.331 99.017 177.048 99.5024 176.856C99.993 176.664 100.572 176.568 101.238 176.568C101.958 176.568 102.556 176.669 103.03 176.872C103.51 177.075 103.868 177.373 104.102 177.768C104.342 178.163 104.462 178.648 104.462 179.224V185H103.198L103.094 183.448C102.774 184.093 102.366 184.541 101.87 184.792C101.38 185.037 100.838 185.16 100.246 185.16ZM100.694 184.096C100.972 184.096 101.246 184.045 101.518 183.944C101.796 183.843 102.049 183.707 102.278 183.536C102.508 183.36 102.689 183.165 102.822 182.952C102.961 182.733 103.033 182.509 103.038 182.28V180.864L101.806 180.888C101.177 180.899 100.649 180.963 100.222 181.08C99.801 181.197 99.4837 181.381 99.2704 181.632C99.0624 181.883 98.9584 182.211 98.9584 182.616C98.9584 183.08 99.1184 183.443 99.4384 183.704C99.7637 183.965 100.182 184.096 100.694 184.096ZM110.286 176.568C110.878 176.568 111.411 176.683 111.886 176.912C112.36 177.136 112.747 177.456 113.046 177.872C113.35 178.288 113.539 178.779 113.614 179.344H112.302C112.254 179.056 112.142 178.792 111.966 178.552C111.795 178.312 111.568 178.12 111.286 177.976C111.003 177.832 110.672 177.76 110.294 177.76C109.584 177.76 109.008 178.016 108.566 178.528C108.123 179.04 107.902 179.824 107.902 180.88C107.902 181.835 108.104 182.6 108.51 183.176C108.92 183.747 109.523 184.032 110.318 184.032C110.696 184.032 111.024 183.96 111.302 183.816C111.584 183.667 111.811 183.472 111.982 183.232C112.152 182.987 112.262 182.725 112.31 182.448H113.598C113.528 183.003 113.342 183.483 113.038 183.888C112.734 184.293 112.344 184.608 111.87 184.832C111.4 185.051 110.872 185.16 110.286 185.16C109.544 185.16 108.886 184.997 108.31 184.672C107.739 184.347 107.291 183.867 106.966 183.232C106.64 182.597 106.478 181.819 106.478 180.896C106.478 180.032 106.624 179.277 106.918 178.632C107.216 177.981 107.648 177.475 108.214 177.112C108.784 176.749 109.475 176.568 110.286 176.568ZM119.552 177.808H117.688V182.952C117.688 183.245 117.717 183.461 117.776 183.6C117.84 183.733 117.944 183.819 118.088 183.856C118.237 183.893 118.44 183.912 118.696 183.912H119.6V184.904C119.498 184.941 119.344 184.973 119.136 185C118.933 185.027 118.68 185.04 118.376 185.04C117.805 185.04 117.362 184.963 117.048 184.808C116.733 184.653 116.512 184.424 116.384 184.12C116.261 183.816 116.2 183.443 116.2 183V177.808H114.856V176.728H116.24L116.6 174.32H117.688V176.72H119.552V177.808ZM130.706 185.552C130.242 185.909 129.693 186.2 129.058 186.424C128.429 186.648 127.741 186.76 126.994 186.76C126.045 186.76 125.197 186.608 124.45 186.304C123.704 186 123.069 185.581 122.546 185.048C122.024 184.515 121.626 183.896 121.354 183.192C121.082 182.488 120.946 181.733 120.946 180.928C120.946 180.085 121.096 179.291 121.394 178.544C121.693 177.792 122.12 177.128 122.674 176.552C123.229 175.976 123.893 175.523 124.666 175.192C125.44 174.861 126.298 174.696 127.242 174.696C127.925 174.696 128.592 174.795 129.242 174.992C129.898 175.184 130.49 175.483 131.018 175.888C131.552 176.288 131.976 176.805 132.29 177.44C132.605 178.069 132.762 178.821 132.762 179.696C132.762 180.496 132.632 181.2 132.37 181.808C132.109 182.411 131.749 182.883 131.29 183.224C130.832 183.565 130.314 183.736 129.738 183.736C129.322 183.736 129.002 183.667 128.778 183.528C128.554 183.384 128.402 183.181 128.322 182.92C128.296 182.851 128.269 182.816 128.242 182.816C128.221 182.816 128.186 182.845 128.138 182.904C127.909 183.203 127.616 183.453 127.258 183.656C126.906 183.859 126.482 183.96 125.986 183.96C125.586 183.96 125.216 183.848 124.874 183.624C124.533 183.395 124.261 183.075 124.058 182.664C123.856 182.248 123.754 181.76 123.754 181.2C123.754 180.544 123.882 179.944 124.138 179.4C124.394 178.851 124.752 178.413 125.21 178.088C125.669 177.757 126.197 177.592 126.794 177.592C127.226 177.592 127.586 177.68 127.874 177.856C128.162 178.032 128.397 178.264 128.578 178.552C128.594 178.573 128.616 178.581 128.642 178.576C128.669 178.565 128.685 178.539 128.69 178.496L128.818 177.992H129.826L129.226 181.544C129.152 181.997 129.168 182.309 129.274 182.48C129.386 182.651 129.57 182.736 129.826 182.736C130.157 182.736 130.461 182.621 130.738 182.392C131.016 182.157 131.24 181.821 131.41 181.384C131.586 180.941 131.674 180.411 131.674 179.792C131.674 179.04 131.544 178.403 131.282 177.88C131.026 177.352 130.682 176.925 130.25 176.6C129.824 176.275 129.346 176.037 128.818 175.888C128.296 175.739 127.768 175.664 127.234 175.664C126.392 175.664 125.648 175.805 125.002 176.088C124.362 176.365 123.821 176.747 123.378 177.232C122.941 177.717 122.61 178.277 122.386 178.912C122.162 179.547 122.05 180.221 122.05 180.936C122.05 181.629 122.162 182.272 122.386 182.864C122.61 183.456 122.941 183.973 123.378 184.416C123.816 184.859 124.354 185.203 124.994 185.448C125.64 185.693 126.381 185.816 127.218 185.816C127.698 185.816 128.104 185.771 128.434 185.68C128.77 185.589 129.069 185.467 129.33 185.312C129.597 185.157 129.866 184.989 130.138 184.808L130.706 185.552ZM124.97 181.112C124.97 181.651 125.08 182.085 125.298 182.416C125.517 182.747 125.826 182.912 126.226 182.912C126.562 182.912 126.874 182.813 127.162 182.616C127.45 182.413 127.688 182.149 127.874 181.824C128.066 181.499 128.186 181.144 128.234 180.76C128.293 180.296 128.264 179.907 128.146 179.592C128.029 179.277 127.856 179.04 127.626 178.88C127.397 178.72 127.144 178.64 126.866 178.64C126.498 178.64 126.17 178.752 125.882 178.976C125.6 179.2 125.376 179.499 125.21 179.872C125.05 180.245 124.97 180.659 124.97 181.112ZM134.708 185V173.112H136.148V177.944C136.287 177.715 136.474 177.501 136.708 177.304C136.943 177.101 137.228 176.939 137.564 176.816C137.9 176.688 138.29 176.624 138.732 176.624C139.271 176.624 139.759 176.725 140.196 176.928C140.634 177.125 140.98 177.408 141.236 177.776C141.492 178.144 141.62 178.581 141.62 179.088V185H140.14V179.384C140.14 178.888 139.97 178.507 139.628 178.24C139.292 177.968 138.852 177.832 138.308 177.832C137.94 177.832 137.594 177.893 137.268 178.016C136.943 178.133 136.679 178.315 136.476 178.56C136.279 178.8 136.18 179.107 136.18 179.48V185H134.708ZM144.983 181.208C144.983 181.731 145.068 182.205 145.239 182.632C145.415 183.053 145.679 183.389 146.031 183.64C146.388 183.891 146.834 184.016 147.367 184.016C147.895 184.016 148.348 183.893 148.727 183.648C149.111 183.403 149.356 183.048 149.463 182.584H150.863C150.762 183.144 150.538 183.616 150.191 184C149.844 184.384 149.426 184.675 148.935 184.872C148.444 185.064 147.932 185.16 147.399 185.16C146.626 185.16 145.946 184.992 145.359 184.656C144.772 184.32 144.314 183.837 143.983 183.208C143.652 182.579 143.487 181.824 143.487 180.944C143.487 180.075 143.636 179.312 143.935 178.656C144.234 178 144.666 177.488 145.231 177.12C145.802 176.752 146.487 176.568 147.287 176.568C148.066 176.568 148.724 176.736 149.263 177.072C149.802 177.408 150.21 177.883 150.487 178.496C150.77 179.104 150.911 179.827 150.911 180.664V181.208H144.983ZM144.991 180.208H149.487C149.487 179.733 149.407 179.307 149.247 178.928C149.087 178.544 148.842 178.243 148.511 178.024C148.186 177.8 147.775 177.688 147.279 177.688C146.762 177.688 146.332 177.813 145.991 178.064C145.655 178.309 145.402 178.627 145.231 179.016C145.066 179.4 144.986 179.797 144.991 180.208ZM155.137 185.16C154.604 185.16 154.132 185.067 153.721 184.88C153.31 184.688 152.988 184.413 152.753 184.056C152.524 183.699 152.409 183.267 152.409 182.76C152.409 181.843 152.729 181.16 153.369 180.712C154.009 180.264 155.036 180.024 156.449 179.992L157.929 179.952V179.304C157.929 178.797 157.777 178.397 157.473 178.104C157.169 177.805 156.697 177.656 156.057 177.656C155.582 177.661 155.164 177.773 154.801 177.992C154.444 178.211 154.212 178.568 154.105 179.064H152.801C152.833 178.525 152.985 178.072 153.257 177.704C153.529 177.331 153.908 177.048 154.393 176.856C154.884 176.664 155.462 176.568 156.129 176.568C156.849 176.568 157.446 176.669 157.921 176.872C158.401 177.075 158.758 177.373 158.993 177.768C159.233 178.163 159.353 178.648 159.353 179.224V185H158.089L157.985 183.448C157.665 184.093 157.257 184.541 156.761 184.792C156.27 185.037 155.729 185.16 155.137 185.16ZM155.585 184.096C155.862 184.096 156.137 184.045 156.409 183.944C156.686 183.843 156.94 183.707 157.169 183.536C157.398 183.36 157.58 183.165 157.713 182.952C157.852 182.733 157.924 182.509 157.929 182.28V180.864L156.697 180.888C156.068 180.899 155.54 180.963 155.113 181.08C154.692 181.197 154.374 181.381 154.161 181.632C153.953 181.883 153.849 182.211 153.849 182.616C153.849 183.08 154.009 183.443 154.329 183.704C154.654 183.965 155.073 184.096 155.585 184.096ZM163.968 185.104C163.52 185.104 163.158 185.043 162.88 184.92C162.608 184.797 162.398 184.632 162.248 184.424C162.104 184.216 162.006 183.979 161.952 183.712C161.904 183.44 161.88 183.16 161.88 182.872V173.112H163.336V182.728C163.336 183.144 163.416 183.456 163.576 183.664C163.742 183.872 163.971 183.987 164.264 184.008L164.712 184.016V184.976C164.59 185.013 164.462 185.043 164.328 185.064C164.195 185.091 164.075 185.104 163.968 185.104ZM170.395 177.808H168.531V182.952C168.531 183.245 168.561 183.461 168.619 183.6C168.683 183.733 168.787 183.819 168.931 183.856C169.081 183.893 169.283 183.912 169.539 183.912H170.443V184.904C170.342 184.941 170.187 184.973 169.979 185C169.777 185.027 169.523 185.04 169.219 185.04C168.649 185.04 168.206 184.963 167.891 184.808C167.577 184.653 167.355 184.424 167.227 184.12C167.105 183.816 167.043 183.443 167.043 183V177.808H165.699V176.728H167.083L167.443 174.32H168.531V176.72H170.395V177.808ZM172.521 185V173.112H173.961V177.944C174.1 177.715 174.286 177.501 174.521 177.304C174.756 177.101 175.041 176.939 175.377 176.816C175.713 176.688 176.102 176.624 176.545 176.624C177.084 176.624 177.572 176.725 178.009 176.928C178.446 177.125 178.793 177.408 179.049 177.776C179.305 178.144 179.433 178.581 179.433 179.088V185H177.953V179.384C177.953 178.888 177.782 178.507 177.441 178.24C177.105 177.968 176.665 177.832 176.121 177.832C175.753 177.832 175.406 177.893 175.081 178.016C174.756 178.133 174.492 178.315 174.289 178.56C174.092 178.8 173.993 179.107 173.993 179.48V185H172.521ZM182.29 187.64C181.805 187.64 181.471 187.605 181.29 187.536C181.109 187.467 181.018 187.432 181.018 187.432V186.472L181.858 186.488C182.167 186.499 182.423 186.477 182.626 186.424C182.829 186.371 182.991 186.299 183.114 186.208C183.237 186.117 183.33 186.016 183.394 185.904C183.463 185.792 183.519 185.685 183.562 185.584L183.85 184.8L180.618 176.728H182.114L184.554 183.112L186.978 176.728H188.426L184.938 185.624C184.725 186.147 184.485 186.555 184.218 186.848C183.957 187.141 183.663 187.347 183.338 187.464C183.018 187.581 182.669 187.64 182.29 187.64ZM190.005 185V176.728H191.429V177.928C191.659 177.565 191.973 177.248 192.373 176.976C192.773 176.704 193.293 176.568 193.933 176.568C194.232 176.568 194.536 176.619 194.845 176.72C195.16 176.821 195.448 176.973 195.709 177.176C195.971 177.379 196.173 177.627 196.317 177.92C196.573 177.515 196.92 177.189 197.357 176.944C197.795 176.693 198.288 176.568 198.837 176.568C199.125 176.568 199.427 176.613 199.741 176.704C200.056 176.789 200.347 176.944 200.613 177.168C200.885 177.387 201.107 177.693 201.277 178.088C201.448 178.477 201.533 178.979 201.533 179.592V185H200.045V179.736C200.045 179.235 199.965 178.848 199.805 178.576C199.645 178.299 199.435 178.104 199.173 177.992C198.917 177.88 198.643 177.824 198.349 177.824C198.093 177.824 197.821 177.875 197.533 177.976C197.245 178.077 197 178.248 196.797 178.488C196.595 178.728 196.493 179.056 196.493 179.472V185H195.021V179.304C195.021 178.979 194.933 178.707 194.757 178.488C194.587 178.269 194.371 178.104 194.109 177.992C193.853 177.88 193.597 177.824 193.341 177.824C193.059 177.824 192.773 177.88 192.485 177.992C192.203 178.104 191.963 178.283 191.765 178.528C191.573 178.768 191.477 179.083 191.477 179.472V185H190.005ZM204.905 181.208C204.905 181.731 204.99 182.205 205.161 182.632C205.337 183.053 205.601 183.389 205.953 183.64C206.31 183.891 206.756 184.016 207.289 184.016C207.817 184.016 208.27 183.893 208.649 183.648C209.033 183.403 209.278 183.048 209.385 182.584H210.785C210.684 183.144 210.46 183.616 210.113 184C209.766 184.384 209.348 184.675 208.857 184.872C208.366 185.064 207.854 185.16 207.321 185.16C206.548 185.16 205.868 184.992 205.281 184.656C204.694 184.32 204.236 183.837 203.905 183.208C203.574 182.579 203.409 181.824 203.409 180.944C203.409 180.075 203.558 179.312 203.857 178.656C204.156 178 204.588 177.488 205.153 177.12C205.724 176.752 206.409 176.568 207.209 176.568C207.988 176.568 208.646 176.736 209.185 177.072C209.724 177.408 210.132 177.883 210.409 178.496C210.692 179.104 210.833 179.827 210.833 180.664V181.208H204.905ZM204.913 180.208H209.409C209.409 179.733 209.329 179.307 209.169 178.928C209.009 178.544 208.764 178.243 208.433 178.024C208.108 177.8 207.697 177.688 207.201 177.688C206.684 177.688 206.254 177.813 205.913 178.064C205.577 178.309 205.324 178.627 205.153 179.016C204.988 179.4 204.908 179.797 204.913 180.208ZM215.849 185.16C214.777 185.16 213.926 184.792 213.297 184.056C212.667 183.32 212.353 182.245 212.353 180.832C212.353 179.973 212.478 179.224 212.729 178.584C212.985 177.944 213.363 177.448 213.865 177.096C214.366 176.744 214.99 176.568 215.737 176.568C216.131 176.568 216.481 176.619 216.785 176.72C217.094 176.821 217.361 176.949 217.585 177.104C217.809 177.259 217.99 177.419 218.129 177.584C218.273 177.749 218.379 177.901 218.449 178.04V173.112H219.937V185H218.809L218.649 183.304C218.595 183.464 218.51 183.651 218.393 183.864C218.275 184.072 218.11 184.277 217.897 184.48C217.683 184.677 217.409 184.84 217.073 184.968C216.742 185.096 216.334 185.16 215.849 185.16ZM216.113 184.024C216.95 184.024 217.547 183.771 217.905 183.264C218.267 182.752 218.449 181.917 218.449 180.76C218.443 180.115 218.361 179.565 218.201 179.112C218.046 178.659 217.801 178.315 217.465 178.08C217.134 177.84 216.694 177.72 216.145 177.72C215.462 177.72 214.907 177.963 214.481 178.448C214.054 178.933 213.841 179.704 213.841 180.76C213.841 181.795 214.033 182.597 214.417 183.168C214.806 183.739 215.371 184.024 216.113 184.024ZM222.036 185V183.112H223.796V185H222.036ZM229.286 176.568C229.878 176.568 230.411 176.683 230.886 176.912C231.36 177.136 231.747 177.456 232.046 177.872C232.35 178.288 232.539 178.779 232.614 179.344H231.302C231.254 179.056 231.142 178.792 230.966 178.552C230.795 178.312 230.568 178.12 230.286 177.976C230.003 177.832 229.672 177.76 229.294 177.76C228.584 177.76 228.008 178.016 227.566 178.528C227.123 179.04 226.902 179.824 226.902 180.88C226.902 181.835 227.104 182.6 227.51 183.176C227.92 183.747 228.523 184.032 229.318 184.032C229.696 184.032 230.024 183.96 230.302 183.816C230.584 183.667 230.811 183.472 230.982 183.232C231.152 182.987 231.262 182.725 231.31 182.448H232.598C232.528 183.003 232.342 183.483 232.038 183.888C231.734 184.293 231.344 184.608 230.87 184.832C230.4 185.051 229.872 185.16 229.286 185.16C228.544 185.16 227.886 184.997 227.31 184.672C226.739 184.347 226.291 183.867 225.966 183.232C225.64 182.597 225.478 181.819 225.478 180.896C225.478 180.032 225.624 179.277 225.918 178.632C226.216 177.981 226.648 177.475 227.214 177.112C227.784 176.749 228.475 176.568 229.286 176.568ZM237.903 185.16C237.14 185.16 236.473 184.997 235.903 184.672C235.332 184.341 234.889 183.859 234.575 183.224C234.26 182.589 234.103 181.813 234.103 180.896C234.103 180.032 234.249 179.275 234.543 178.624C234.836 177.973 235.265 177.469 235.831 177.112C236.401 176.749 237.092 176.568 237.903 176.568C238.665 176.568 239.327 176.736 239.887 177.072C240.452 177.403 240.889 177.891 241.199 178.536C241.508 179.181 241.663 179.968 241.663 180.896C241.663 181.739 241.519 182.48 241.231 183.12C240.948 183.76 240.527 184.261 239.967 184.624C239.412 184.981 238.724 185.16 237.903 185.16ZM237.903 183.992C238.399 183.992 238.817 183.867 239.159 183.616C239.5 183.365 239.759 183.005 239.935 182.536C240.111 182.067 240.199 181.509 240.199 180.864C240.199 180.272 240.121 179.741 239.967 179.272C239.812 178.797 239.564 178.421 239.223 178.144C238.887 177.867 238.447 177.728 237.903 177.728C237.401 177.728 236.977 177.853 236.631 178.104C236.284 178.349 236.02 178.707 235.839 179.176C235.663 179.645 235.575 180.208 235.575 180.864C235.575 181.445 235.655 181.973 235.815 182.448C235.975 182.923 236.225 183.299 236.567 183.576C236.908 183.853 237.353 183.992 237.903 183.992ZM243.599 185V176.728H245.023V177.928C245.252 177.565 245.567 177.248 245.967 176.976C246.367 176.704 246.887 176.568 247.527 176.568C247.826 176.568 248.13 176.619 248.439 176.72C248.754 176.821 249.042 176.973 249.303 177.176C249.564 177.379 249.767 177.627 249.911 177.92C250.167 177.515 250.514 177.189 250.951 176.944C251.388 176.693 251.882 176.568 252.431 176.568C252.719 176.568 253.02 176.613 253.335 176.704C253.65 176.789 253.94 176.944 254.207 177.168C254.479 177.387 254.7 177.693 254.871 178.088C255.042 178.477 255.127 178.979 255.127 179.592V185H253.639V179.736C253.639 179.235 253.559 178.848 253.399 178.576C253.239 178.299 253.028 178.104 252.767 177.992C252.511 177.88 252.236 177.824 251.943 177.824C251.687 177.824 251.415 177.875 251.127 177.976C250.839 178.077 250.594 178.248 250.391 178.488C250.188 178.728 250.087 179.056 250.087 179.472V185H248.615V179.304C248.615 178.979 248.527 178.707 248.351 178.488C248.18 178.269 247.964 178.104 247.703 177.992C247.447 177.88 247.191 177.824 246.935 177.824C246.652 177.824 246.367 177.88 246.079 177.992C245.796 178.104 245.556 178.283 245.359 178.528C245.167 178.768 245.071 179.083 245.071 179.472V185H243.599Z" fill="#213360"/>
<path d="M6.85715 220.701C6.85715 221.721 6.92856 222.784 7.06411 223.778C7.5503 227.345 9.10215 232.568 13.7302 237.194C23.4723 246.939 33.7012 244.005 35.0455 242.66L38.1693 239.537C38.8148 238.892 39.1699 238.032 39.1699 237.115C39.1699 236.2 38.8148 235.341 38.1678 234.693C38.1281 234.654 38.0849 234.616 38.0429 234.583L32.8477 230.531C32.212 229.92 31.3715 229.584 30.4834 229.584C29.5684 229.584 28.7092 229.938 28.0559 230.59L23.3617 235.561C18.2256 233.396 15.8042 228.314 15.2952 226.684C16.3104 226.013 18.8576 223.641 20.0218 222.542C20.6674 221.896 21.0225 221.037 21.0225 220.123C21.0225 219.251 20.6959 218.422 20.103 217.788L16.19 212.45C16.1486 212.394 16.1021 212.34 16.0528 212.29C15.4064 211.645 14.5466 211.29 13.6322 211.29C12.7172 211.29 11.858 211.645 11.2136 212.291L7.94409 215.559C6.93504 216.568 6.85689 219.751 6.85689 220.701L6.85715 220.701Z" fill="#213360"/>
<path d="M26.4941 211.973C29.3664 212.165 32.0626 213.384 34.0889 215.406C36.1124 217.425 37.334 220.118 37.5272 222.99C37.567 223.574 38.0717 224.015 38.6553 223.976C39.2387 223.936 39.6806 223.436 39.64 222.848C39.4123 219.463 37.9716 216.288 35.5849 213.907C33.1971 211.522 30.0192 210.085 26.6351 209.86C26.0517 209.821 25.5476 210.263 25.5087 210.846C25.507 210.871 25.5062 210.894 25.5062 210.917C25.5062 211.471 25.9355 211.937 26.4945 211.974L26.4941 211.973Z" fill="#213360"/>
<path d="M33.5033 224.328C34.0858 224.288 34.5261 223.793 34.4879 223.2C34.344 221.066 33.4357 219.064 31.9312 217.562C30.4293 216.06 28.4268 215.156 26.293 215.013C25.7096 214.974 25.2046 215.415 25.1657 215.998C25.164 216.023 25.1632 216.046 25.1632 216.07C25.1632 216.623 25.5925 217.089 26.1515 217.126C27.7734 217.234 29.2941 217.921 30.4342 219.06C31.5761 220.2 32.2653 221.721 32.3747 223.343C32.414 223.926 32.9192 224.367 33.5031 224.328L33.5033 224.328Z" fill="#213360"/>
<path d="M24.8555 220.646C24.8538 220.671 24.8529 220.694 24.8529 220.716C24.8529 221.27 25.2831 221.736 25.843 221.772C26.1964 221.795 26.7101 221.914 27.1467 222.35C27.5845 222.788 27.7063 223.304 27.7301 223.66C27.7715 224.244 28.277 224.683 28.8609 224.643C29.4446 224.603 29.8815 224.103 29.8434 223.513C29.7728 222.5 29.3471 221.555 28.6439 220.852C27.9379 220.148 26.993 219.724 25.9813 219.659C25.3977 219.621 24.8933 220.063 24.8555 220.646L24.8555 220.646Z" fill="#213360"/>
<path d="M69.257 209.738C70.0177 209.738 70.6943 209.892 71.287 210.2C71.8843 210.503 72.365 210.919 72.729 211.446C73.0977 211.973 73.3147 212.568 73.38 213.231H71.238C71.1727 212.881 71.0537 212.571 70.881 212.3C70.7083 212.025 70.482 211.81 70.202 211.656C69.922 211.497 69.586 211.418 69.194 211.418C68.7227 211.418 68.3167 211.532 67.976 211.761C67.6353 211.99 67.374 212.358 67.192 212.867C67.01 213.376 66.919 214.048 66.919 214.883C66.919 216.143 67.1197 217.055 67.521 217.62C67.927 218.18 68.4847 218.46 69.194 218.46C69.586 218.46 69.922 218.371 70.202 218.194C70.482 218.012 70.7083 217.774 70.881 217.48C71.0537 217.181 71.1727 216.855 71.238 216.5H73.38C73.3193 216.981 73.2027 217.44 73.03 217.879C72.8573 218.313 72.6123 218.7 72.295 219.041C71.9777 219.382 71.5693 219.65 71.07 219.846C70.5707 220.042 69.9663 220.14 69.257 220.14C68.3143 220.14 67.5 219.921 66.814 219.482C66.128 219.043 65.5983 218.427 65.225 217.634C64.8563 216.841 64.672 215.914 64.672 214.855C64.672 213.791 64.8563 212.879 65.225 212.118C65.5937 211.353 66.121 210.765 66.807 210.354C67.493 209.943 68.3097 209.738 69.257 209.738ZM76.8324 220.14C76.3704 220.14 75.9551 220.054 75.5864 219.881C75.2178 219.708 74.9261 219.459 74.7114 219.132C74.4968 218.801 74.3894 218.399 74.3894 217.928C74.3894 217.135 74.6858 216.533 75.2784 216.122C75.8711 215.707 76.8068 215.492 78.0854 215.478L78.9884 215.464V215.03C78.9884 214.699 78.8904 214.444 78.6944 214.267C78.5031 214.085 78.2044 213.996 77.7984 214.001C77.4998 214.006 77.2151 214.076 76.9444 214.211C76.6784 214.346 76.4964 214.582 76.3984 214.918H74.6974C74.7254 214.395 74.8771 213.966 75.1524 213.63C75.4278 213.289 75.8011 213.037 76.2724 212.874C76.7484 212.706 77.2874 212.622 77.8894 212.622C78.6314 212.622 79.2264 212.715 79.6744 212.902C80.1224 213.084 80.4468 213.348 80.6474 213.693C80.8481 214.034 80.9484 214.44 80.9484 214.911V220H79.2404L79.0724 218.754C78.8251 219.277 78.5148 219.638 78.1414 219.839C77.7728 220.04 77.3364 220.14 76.8324 220.14ZM77.5184 218.796C77.7051 218.796 77.8848 218.763 78.0574 218.698C78.2348 218.628 78.3911 218.537 78.5264 218.425C78.6664 218.308 78.7784 218.178 78.8624 218.033C78.9464 217.888 78.9884 217.739 78.9884 217.585V216.514L78.2534 216.528C77.9128 216.533 77.5954 216.575 77.3014 216.654C77.0074 216.729 76.7694 216.852 76.5874 217.025C76.4101 217.198 76.3214 217.431 76.3214 217.725C76.3214 218.061 76.4381 218.325 76.6714 218.516C76.9048 218.703 77.1871 218.796 77.5184 218.796ZM85.0678 220.126C84.5358 220.126 84.1135 220.063 83.8008 219.937C83.4881 219.811 83.2571 219.645 83.1078 219.44C82.9585 219.23 82.8628 218.999 82.8208 218.747C82.7788 218.49 82.7578 218.231 82.7578 217.97V209.598H84.7598V217.718C84.7598 217.984 84.8158 218.201 84.9278 218.369C85.0445 218.532 85.2615 218.633 85.5788 218.67L85.9218 218.691V219.951C85.7818 219.998 85.6395 220.037 85.4948 220.07C85.3501 220.107 85.2078 220.126 85.0678 220.126ZM89.4155 220.126C88.8835 220.126 88.4611 220.063 88.1485 219.937C87.8358 219.811 87.6048 219.645 87.4555 219.44C87.3061 219.23 87.2105 218.999 87.1685 218.747C87.1265 218.49 87.1055 218.231 87.1055 217.97V209.598H89.1075V217.718C89.1075 217.984 89.1635 218.201 89.2755 218.369C89.3921 218.532 89.6091 218.633 89.9265 218.67L90.2695 218.691V219.951C90.1295 219.998 89.9871 220.037 89.8425 220.07C89.6978 220.107 89.5555 220.126 89.4155 220.126ZM99.007 209.738C99.7677 209.738 100.444 209.892 101.037 210.2C101.634 210.503 102.115 210.919 102.479 211.446C102.848 211.973 103.065 212.568 103.13 213.231H100.988C100.923 212.881 100.804 212.571 100.631 212.3C100.458 212.025 100.232 211.81 99.952 211.656C99.672 211.497 99.336 211.418 98.944 211.418C98.4727 211.418 98.0667 211.532 97.726 211.761C97.3853 211.99 97.124 212.358 96.942 212.867C96.76 213.376 96.669 214.048 96.669 214.883C96.669 216.143 96.8697 217.055 97.271 217.62C97.677 218.18 98.2347 218.46 98.944 218.46C99.336 218.46 99.672 218.371 99.952 218.194C100.232 218.012 100.458 217.774 100.631 217.48C100.804 217.181 100.923 216.855 100.988 216.5H103.13C103.069 216.981 102.953 217.44 102.78 217.879C102.607 218.313 102.362 218.7 102.045 219.041C101.728 219.382 101.319 219.65 100.82 219.846C100.321 220.042 99.7163 220.14 99.007 220.14C98.0643 220.14 97.25 219.921 96.564 219.482C95.878 219.043 95.3483 218.427 94.975 217.634C94.6063 216.841 94.422 215.914 94.422 214.855C94.422 213.791 94.6063 212.879 94.975 212.118C95.3437 211.353 95.871 210.765 96.557 210.354C97.243 209.943 98.0597 209.738 99.007 209.738ZM106.381 216.85C106.377 217.219 106.435 217.541 106.556 217.816C106.678 218.087 106.853 218.297 107.081 218.446C107.315 218.591 107.595 218.663 107.921 218.663C108.271 218.663 108.577 218.588 108.838 218.439C109.104 218.29 109.289 218.045 109.391 217.704H111.232C111.153 218.217 110.948 218.656 110.616 219.02C110.29 219.384 109.893 219.662 109.426 219.853C108.96 220.044 108.474 220.14 107.97 220.14C107.256 220.14 106.626 219.991 106.08 219.692C105.539 219.389 105.117 218.962 104.813 218.411C104.51 217.86 104.358 217.212 104.358 216.465C104.358 215.742 104.496 215.091 104.771 214.512C105.047 213.929 105.446 213.469 105.968 213.133C106.496 212.792 107.128 212.622 107.865 212.622C108.603 212.622 109.221 212.778 109.72 213.091C110.224 213.399 110.602 213.831 110.854 214.386C111.111 214.937 111.239 215.574 111.239 216.297V216.85H106.381ZM106.374 215.632H109.328C109.328 215.343 109.275 215.077 109.167 214.834C109.06 214.591 108.897 214.4 108.677 214.26C108.463 214.12 108.192 214.05 107.865 214.05C107.548 214.05 107.277 214.127 107.053 214.281C106.834 214.43 106.666 214.626 106.549 214.869C106.433 215.112 106.374 215.366 106.374 215.632ZM112.658 220V212.762H114.667V213.784C114.779 213.607 114.924 213.436 115.101 213.273C115.283 213.105 115.512 212.967 115.787 212.86C116.063 212.753 116.389 212.699 116.767 212.699C117.211 212.699 117.624 212.785 118.006 212.958C118.394 213.131 118.706 213.404 118.944 213.777C119.182 214.146 119.301 214.629 119.301 215.226V220H117.257V215.478C117.257 215.086 117.141 214.792 116.907 214.596C116.674 214.4 116.389 214.302 116.053 214.302C115.829 214.302 115.612 214.342 115.402 214.421C115.197 214.5 115.029 214.619 114.898 214.778C114.768 214.937 114.702 215.133 114.702 215.366V220H112.658ZM125.053 214.183H123.443L123.457 218.04C123.457 218.217 123.478 218.35 123.52 218.439C123.566 218.523 123.636 218.579 123.73 218.607C123.828 218.63 123.951 218.642 124.101 218.642H125.074V219.902C124.98 219.944 124.833 219.984 124.633 220.021C124.437 220.058 124.161 220.077 123.807 220.077C123.172 220.077 122.68 219.995 122.33 219.832C121.984 219.669 121.744 219.44 121.609 219.146C121.473 218.852 121.406 218.511 121.406 218.124V214.183H120.23V212.762H121.476L121.987 210.578H123.443V212.755H125.053V214.183ZM128.01 216.85C128.005 217.219 128.064 217.541 128.185 217.816C128.306 218.087 128.481 218.297 128.71 218.446C128.943 218.591 129.223 218.663 129.55 218.663C129.9 218.663 130.206 218.588 130.467 218.439C130.733 218.29 130.917 218.045 131.02 217.704H132.861C132.782 218.217 132.576 218.656 132.245 219.02C131.918 219.384 131.522 219.662 131.055 219.853C130.588 220.044 130.103 220.14 129.599 220.14C128.885 220.14 128.255 219.991 127.709 219.692C127.168 219.389 126.745 218.962 126.442 218.411C126.139 217.86 125.987 217.212 125.987 216.465C125.987 215.742 126.125 215.091 126.4 214.512C126.675 213.929 127.074 213.469 127.597 213.133C128.124 212.792 128.757 212.622 129.494 212.622C130.231 212.622 130.85 212.778 131.349 213.091C131.853 213.399 132.231 213.831 132.483 214.386C132.74 214.937 132.868 215.574 132.868 216.297V216.85H128.01ZM128.003 215.632H130.957C130.957 215.343 130.903 215.077 130.796 214.834C130.689 214.591 130.525 214.4 130.306 214.26C130.091 214.12 129.821 214.05 129.494 214.05C129.177 214.05 128.906 214.127 128.682 214.281C128.463 214.43 128.295 214.626 128.178 214.869C128.061 215.112 128.003 215.366 128.003 215.632ZM134.287 220V212.762H136.254V214.477C136.371 214.108 136.534 213.786 136.744 213.511C136.959 213.231 137.218 213.014 137.521 212.86C137.824 212.701 138.167 212.622 138.55 212.622C138.615 212.622 138.676 212.627 138.732 212.636C138.793 212.641 138.837 212.65 138.865 212.664V214.61C138.823 214.591 138.772 214.58 138.711 214.575C138.655 214.57 138.604 214.566 138.557 214.561C138.156 214.528 137.813 214.54 137.528 214.596C137.243 214.652 137.012 214.748 136.835 214.883C136.658 215.018 136.529 215.184 136.45 215.38C136.371 215.576 136.331 215.795 136.331 216.038V220H134.287Z" fill="#213360"/>
<path d="M71.888 238.608V239.752L64.984 239.768V238.616L71.888 238.608ZM69.024 242.632H67.88L67.864 235.728H69.016L69.024 242.632ZM78.171 233.272C78.811 233.272 79.4003 233.392 79.939 233.632C80.483 233.872 80.9337 234.216 81.291 234.664C81.6483 235.112 81.8697 235.653 81.955 236.288H80.563C80.4083 235.739 80.1283 235.304 79.723 234.984C79.3177 234.664 78.8083 234.504 78.195 234.504C77.5123 234.504 76.9417 234.699 76.483 235.088C76.0297 235.472 75.699 236.037 75.491 236.784C75.283 237.525 75.211 238.437 75.275 239.52C75.419 239.131 75.6377 238.789 75.931 238.496C76.2297 238.197 76.5763 237.968 76.971 237.808C77.3657 237.643 77.7923 237.56 78.251 237.56C79.0137 237.56 79.6803 237.709 80.251 238.008C80.8217 238.301 81.267 238.723 81.587 239.272C81.907 239.816 82.067 240.467 82.067 241.224C82.067 241.997 81.9017 242.683 81.571 243.28C81.2457 243.872 80.7817 244.336 80.179 244.672C79.5763 245.008 78.8643 245.176 78.043 245.176C77.147 245.176 76.3683 244.944 75.707 244.48C75.051 244.016 74.5417 243.355 74.179 242.496C73.8217 241.632 73.643 240.597 73.643 239.392C73.643 238.155 73.8163 237.077 74.163 236.16C74.515 235.243 75.027 234.533 75.699 234.032C76.371 233.525 77.195 233.272 78.171 233.272ZM78.011 238.76C77.5897 238.76 77.1843 238.861 76.795 239.064C76.411 239.261 76.0963 239.523 75.851 239.848C75.611 240.173 75.491 240.533 75.491 240.928C75.4857 241.515 75.587 242.037 75.795 242.496C76.0083 242.949 76.307 243.307 76.691 243.568C77.075 243.824 77.5203 243.952 78.027 243.952C78.5017 243.952 78.923 243.84 79.291 243.616C79.659 243.392 79.947 243.08 80.155 242.68C80.3683 242.28 80.475 241.819 80.475 241.296C80.475 240.768 80.379 240.315 80.187 239.936C80.0003 239.557 79.723 239.267 79.355 239.064C78.987 238.861 78.539 238.76 78.011 238.76ZM83.8201 245V244.096V243.624C83.8201 243.032 83.9295 242.52 84.1481 242.088C84.3721 241.656 84.6655 241.28 85.0281 240.96C85.3961 240.635 85.7961 240.344 86.2281 240.088C86.6655 239.832 87.1001 239.587 87.5321 239.352C87.9695 239.112 88.3695 238.864 88.7321 238.608C89.0948 238.347 89.3855 238.053 89.6041 237.728C89.8281 237.397 89.9401 237.008 89.9401 236.56C89.9401 235.973 89.7321 235.496 89.3161 235.128C88.9055 234.76 88.3481 234.576 87.6441 234.576C86.8868 234.576 86.2788 234.789 85.8201 235.216C85.3615 235.643 85.1028 236.211 85.0441 236.92H83.5721C83.5881 236.253 83.7535 235.645 84.0681 235.096C84.3828 234.541 84.8441 234.099 85.4521 233.768C86.0601 233.437 86.8095 233.272 87.7001 233.272C88.4735 233.272 89.1455 233.411 89.7161 233.688C90.2868 233.96 90.7268 234.344 91.0361 234.84C91.3508 235.331 91.5081 235.904 91.5081 236.56C91.5081 237.157 91.3988 237.669 91.1801 238.096C90.9615 238.523 90.6708 238.893 90.3081 239.208C89.9508 239.517 89.5588 239.795 89.1321 240.04C88.7055 240.285 88.2761 240.523 87.8441 240.752C87.4121 240.976 87.0175 241.213 86.6601 241.464C86.3028 241.709 86.0148 241.992 85.7961 242.312C85.5775 242.632 85.4681 243.013 85.4681 243.456V243.688H91.5721V245H83.8201ZM97.4074 240.28V241.448L93.3514 241.456V240.296L97.4074 240.28ZM103.31 233.272C104.564 233.272 105.561 233.776 106.302 234.784C107.049 235.787 107.422 237.272 107.422 239.24C107.422 241.197 107.052 242.677 106.31 243.68C105.569 244.677 104.564 245.176 103.294 245.176C102.03 245.176 101.028 244.68 100.286 243.688C99.5449 242.691 99.1743 241.216 99.1743 239.264C99.1743 237.947 99.3449 236.843 99.6863 235.952C100.028 235.061 100.508 234.392 101.126 233.944C101.745 233.496 102.473 233.272 103.31 233.272ZM103.31 243.896C104.137 243.896 104.761 243.533 105.182 242.808C105.609 242.077 105.822 240.891 105.822 239.248C105.822 237.573 105.606 236.368 105.174 235.632C104.748 234.891 104.124 234.52 103.302 234.52C102.486 234.52 101.857 234.893 101.414 235.64C100.977 236.381 100.758 237.584 100.758 239.248C100.758 240.885 100.977 242.069 101.414 242.8C101.852 243.531 102.484 243.896 103.31 243.896ZM111.179 245V235.792H108.947V234.824C109.64 234.824 110.179 234.773 110.563 234.672C110.947 234.571 111.219 234.416 111.379 234.208C111.544 234 111.635 233.741 111.651 233.432H112.707V245H111.179ZM115.711 245V244.096V243.624C115.711 243.032 115.82 242.52 116.039 242.088C116.263 241.656 116.556 241.28 116.919 240.96C117.287 240.635 117.687 240.344 118.119 240.088C118.556 239.832 118.991 239.587 119.423 239.352C119.86 239.112 120.26 238.864 120.623 238.608C120.985 238.347 121.276 238.053 121.495 237.728C121.719 237.397 121.831 237.008 121.831 236.56C121.831 235.973 121.623 235.496 121.207 235.128C120.796 234.76 120.239 234.576 119.535 234.576C118.777 234.576 118.169 234.789 117.711 235.216C117.252 235.643 116.993 236.211 116.935 236.92H115.463C115.479 236.253 115.644 235.645 115.959 235.096C116.273 234.541 116.735 234.099 117.343 233.768C117.951 233.437 118.7 233.272 119.591 233.272C120.364 233.272 121.036 233.411 121.607 233.688C122.177 233.96 122.617 234.344 122.927 234.84C123.241 235.331 123.399 235.904 123.399 236.56C123.399 237.157 123.289 237.669 123.071 238.096C122.852 238.523 122.561 238.893 122.199 239.208C121.841 239.517 121.449 239.795 121.023 240.04C120.596 240.285 120.167 240.523 119.735 240.752C119.303 240.976 118.908 241.213 118.551 241.464C118.193 241.709 117.905 241.992 117.687 242.312C117.468 242.632 117.359 243.013 117.359 243.456V243.688H123.463V245H115.711ZM125.17 236.8C125.17 236.053 125.351 235.419 125.714 234.896C126.077 234.368 126.559 233.965 127.162 233.688C127.77 233.411 128.439 233.272 129.17 233.272C129.97 233.272 130.677 233.389 131.29 233.624C131.903 233.853 132.383 234.189 132.73 234.632C133.077 235.075 133.25 235.616 133.25 236.256C133.25 236.827 133.069 237.344 132.706 237.808C132.343 238.267 131.789 238.627 131.042 238.888C131.549 239.027 131.991 239.229 132.37 239.496C132.749 239.763 133.042 240.091 133.25 240.48C133.458 240.864 133.562 241.307 133.562 241.808C133.562 242.336 133.45 242.811 133.226 243.232C133.007 243.648 132.698 244.003 132.298 244.296C131.898 244.584 131.426 244.805 130.882 244.96C130.338 245.109 129.746 245.181 129.106 245.176C128.311 245.171 127.61 245.024 127.002 244.736C126.399 244.448 125.925 244.045 125.578 243.528C125.231 243.005 125.045 242.387 125.018 241.672H126.498C126.61 242.392 126.903 242.944 127.378 243.328C127.853 243.712 128.447 243.904 129.162 243.904C129.727 243.904 130.221 243.816 130.642 243.64C131.063 243.459 131.389 243.211 131.618 242.896C131.847 242.581 131.962 242.213 131.962 241.792C131.962 241.328 131.834 240.936 131.578 240.616C131.322 240.296 130.973 240.053 130.53 239.888C130.087 239.717 129.594 239.629 129.05 239.624L128.01 239.6V238.344L129.002 238.32C129.509 238.309 129.962 238.213 130.362 238.032C130.762 237.845 131.077 237.603 131.306 237.304C131.541 237 131.658 236.667 131.658 236.304C131.658 235.984 131.559 235.688 131.362 235.416C131.165 235.139 130.879 234.917 130.506 234.752C130.138 234.587 129.69 234.504 129.162 234.504C128.746 234.504 128.349 234.587 127.97 234.752C127.591 234.912 127.279 235.16 127.034 235.496C126.789 235.832 126.658 236.267 126.642 236.8H125.17ZM139.376 240.28V241.448L135.32 241.456V240.296L139.376 240.28ZM146.511 233.432H148.015V240.744H149.935V242.048H148.015V245H146.567V242.048H141.119V240.696L146.511 233.432ZM142.535 240.744H146.535V235.376L142.535 240.744ZM152.169 233.432H159.073L159.033 234.712H153.433L153.137 238.448C153.521 238.091 153.94 237.837 154.393 237.688C154.852 237.533 155.348 237.456 155.881 237.456C156.58 237.456 157.222 237.6 157.809 237.888C158.401 238.171 158.876 238.592 159.233 239.152C159.59 239.707 159.769 240.395 159.769 241.216C159.769 242.016 159.596 242.712 159.249 243.304C158.902 243.896 158.414 244.357 157.785 244.688C157.156 245.013 156.417 245.176 155.569 245.176C154.854 245.176 154.193 245.051 153.585 244.8C152.977 244.549 152.454 244.2 152.017 243.752C151.585 243.304 151.268 242.789 151.065 242.208L152.345 241.672C152.537 242.109 152.777 242.499 153.065 242.84C153.358 243.181 153.705 243.448 154.105 243.64C154.505 243.832 154.958 243.928 155.465 243.928C156.286 243.928 156.945 243.691 157.441 243.216C157.942 242.736 158.193 242.085 158.193 241.264C158.193 240.752 158.076 240.307 157.841 239.928C157.606 239.544 157.289 239.245 156.889 239.032C156.494 238.819 156.057 238.712 155.577 238.712C155.262 238.712 154.969 238.741 154.697 238.8C154.425 238.853 154.156 238.96 153.889 239.12C153.622 239.28 153.342 239.523 153.049 239.848C153.017 239.864 152.993 239.872 152.977 239.872C152.961 239.867 152.934 239.856 152.897 239.84L151.649 239.448L152.169 233.432ZM165.843 233.272C166.483 233.272 167.072 233.392 167.611 233.632C168.155 233.872 168.606 234.216 168.963 234.664C169.32 235.112 169.542 235.653 169.627 236.288H168.235C168.08 235.739 167.8 235.304 167.395 234.984C166.99 234.664 166.48 234.504 165.867 234.504C165.184 234.504 164.614 234.699 164.155 235.088C163.702 235.472 163.371 236.037 163.163 236.784C162.955 237.525 162.883 238.437 162.947 239.52C163.091 239.131 163.31 238.789 163.603 238.496C163.902 238.197 164.248 237.968 164.643 237.808C165.038 237.643 165.464 237.56 165.923 237.56C166.686 237.56 167.352 237.709 167.923 238.008C168.494 238.301 168.939 238.723 169.259 239.272C169.579 239.816 169.739 240.467 169.739 241.224C169.739 241.997 169.574 242.683 169.243 243.28C168.918 243.872 168.454 244.336 167.851 244.672C167.248 245.008 166.536 245.176 165.715 245.176C164.819 245.176 164.04 244.944 163.379 244.48C162.723 244.016 162.214 243.355 161.851 242.496C161.494 241.632 161.315 240.597 161.315 239.392C161.315 238.155 161.488 237.077 161.835 236.16C162.187 235.243 162.699 234.533 163.371 234.032C164.043 233.525 164.867 233.272 165.843 233.272ZM165.683 238.76C165.262 238.76 164.856 238.861 164.467 239.064C164.083 239.261 163.768 239.523 163.523 239.848C163.283 240.173 163.163 240.533 163.163 240.928C163.158 241.515 163.259 242.037 163.467 242.496C163.68 242.949 163.979 243.307 164.363 243.568C164.747 243.824 165.192 243.952 165.699 243.952C166.174 243.952 166.595 243.84 166.963 243.616C167.331 243.392 167.619 243.08 167.827 242.68C168.04 242.28 168.147 241.819 168.147 241.296C168.147 240.768 168.051 240.315 167.859 239.936C167.672 239.557 167.395 239.267 167.027 239.064C166.659 238.861 166.211 238.76 165.683 238.76ZM170.963 233.432H179.083V234.712C178.672 235.272 178.264 235.909 177.859 236.624C177.459 237.333 177.077 238.077 176.715 238.856C176.352 239.629 176.027 240.395 175.739 241.152C175.451 241.904 175.211 242.613 175.019 243.28C174.832 243.941 174.712 244.515 174.659 245H173.051C173.136 244.472 173.288 243.819 173.507 243.04C173.731 242.261 174.024 241.411 174.387 240.488C174.749 239.56 175.187 238.603 175.699 237.616C176.211 236.629 176.797 235.661 177.459 234.712H170.963V233.432Z" fill="#213360"/>
<g clip-path="url(#clip0_1_17531)">
<path d="M25.9634 27.7585C26.6219 26.6317 27.0523 25.3954 27.5051 24.084C27.9773 22.7226 28.4623 21.3141 29.2363 20.0184C30.2545 18.3157 31.7544 16.901 33.5049 15.9151V5.21415C33.5049 3.86205 32.3807 2.7666 30.9932 2.7666H20.9497C19.5622 2.7666 18.438 3.86205 18.438 5.21415V17.9589H5.35933C3.97181 17.9589 2.84766 19.0544 2.84766 20.4065V30.1966C2.84766 31.5487 3.97181 32.6442 5.35933 32.6442H18.3385C21.4668 32.2843 24.396 30.4314 25.9634 27.7585Z" fill="#3EBFB8"/>
<path d="M46.5863 17.959H33.5301C32.4187 18.7383 31.468 19.7367 30.7775 20.8917C30.0934 22.0341 29.6565 23.2985 29.194 24.6381C28.7347 25.9683 28.2562 27.3454 27.511 28.6193C25.6513 31.7929 22.1601 33.987 18.4375 34.3845V45.3922C18.4375 46.7442 19.5617 47.8397 20.9492 47.8397H30.9959C32.3834 47.8397 33.5076 46.7442 33.5076 45.3922V32.6443H46.5863C47.9738 32.6443 49.098 31.5488 49.098 30.1967V20.4065C49.098 19.0576 47.9738 17.959 46.5863 17.959Z" fill="#203360"/>
<path d="M72.532 26.1833H62.4679V36.0566H57.8413V13.0666H62.4679V22.2881H72.532V13.0666H77.1745V36.0566H72.532V26.1833ZM84.2665 28.9021C84.2559 29.7394 84.3884 30.4708 84.664 31.0961C84.9396 31.7109 85.337 32.1879 85.8564 32.5271C86.3864 32.8556 87.0223 33.0199 87.7643 33.0199C88.5592 33.0199 89.2535 32.8503 89.8471 32.5112C90.4512 32.172 90.8699 31.6155 91.1031 30.8418H95.2845C95.1044 32.0077 94.638 33.004 93.8854 33.8308C93.1435 34.6575 92.2425 35.2882 91.1826 35.7228C90.1226 36.1573 89.0203 36.3746 87.8756 36.3746C86.2539 36.3746 84.823 36.0354 83.5828 35.3571C82.3533 34.6681 81.3941 33.6983 80.7051 32.4476C80.0161 31.1968 79.6717 29.7235 79.6717 28.0276C79.6717 26.3847 79.9844 24.9061 80.6097 23.5918C81.2351 22.2669 82.1413 21.2228 83.3285 20.4597C84.5262 19.6859 85.9624 19.299 87.6371 19.299C89.3118 19.299 90.7162 19.6541 91.8503 20.3643C92.9951 21.0638 93.8536 22.0443 94.426 23.3056C95.009 24.5563 95.3004 26.0031 95.3004 27.646V28.9021H84.2665ZM84.2506 26.1356H90.96C90.96 25.4785 90.8381 24.8743 90.5943 24.3231C90.3505 23.772 89.9796 23.3374 89.4814 23.0194C88.9938 22.7014 88.3791 22.5424 87.6371 22.5424C86.9163 22.5424 86.3016 22.7173 85.7928 23.0671C85.2946 23.4063 84.9131 23.8515 84.6481 24.4026C84.3831 24.9538 84.2506 25.5315 84.2506 26.1356ZM102.975 36.3746C101.926 36.3746 100.983 36.1785 100.145 35.7864C99.3078 35.3942 98.6454 34.8271 98.1578 34.0852C97.6702 33.3326 97.4264 32.4211 97.4264 31.3505C97.4264 29.5486 98.0995 28.1813 99.4456 27.2486C100.792 26.3052 102.917 25.8176 105.821 25.7859L107.872 25.7541V24.7683C107.872 24.0158 107.65 23.4381 107.204 23.0353C106.77 22.6219 106.091 22.4206 105.169 22.4311C104.491 22.4417 103.844 22.6007 103.23 22.9081C102.625 23.2155 102.212 23.7508 101.989 24.5139H98.126C98.1896 23.3268 98.5341 22.3517 99.1594 21.5885C99.7848 20.8147 100.633 20.2424 101.703 19.8714C102.784 19.4898 104.009 19.299 105.376 19.299C107.061 19.299 108.413 19.511 109.43 19.935C110.448 20.3484 111.184 20.9472 111.64 21.7316C112.096 22.5053 112.324 23.4275 112.324 24.498V36.0566H108.444L108.063 33.2266C107.501 34.4137 106.796 35.2352 105.948 35.691C105.111 36.1467 104.12 36.3746 102.975 36.3746ZM104.533 33.322C104.957 33.322 105.365 33.2478 105.758 33.0994C106.16 32.9404 106.515 32.7337 106.823 32.4794C107.141 32.2144 107.395 31.9176 107.586 31.589C107.777 31.2604 107.872 30.9212 107.872 30.5715V28.1389L106.203 28.1707C105.429 28.1813 104.708 28.2767 104.04 28.4569C103.373 28.6265 102.832 28.9074 102.419 29.2995C102.016 29.6917 101.815 30.2217 101.815 30.8894C101.815 31.6526 102.08 32.2515 102.61 32.686C103.14 33.11 103.781 33.322 104.533 33.322ZM121.044 36.3428C119.836 36.3428 118.877 36.1997 118.167 35.9135C117.456 35.6274 116.932 35.2511 116.593 34.7847C116.253 34.3077 116.036 33.7831 115.941 33.2107C115.845 32.6277 115.798 32.0395 115.798 31.4459V12.4306H120.345V30.8735C120.345 31.4777 120.472 31.9706 120.726 32.3522C120.991 32.7231 121.484 32.951 122.205 33.0358L122.984 33.0835V35.9453C122.666 36.0513 122.343 36.1414 122.014 36.2156C121.686 36.3004 121.362 36.3428 121.044 36.3428ZM135.201 22.8445H131.544L131.576 31.6049C131.576 32.0077 131.623 32.3098 131.719 32.5112C131.825 32.7019 131.984 32.8291 132.196 32.8927C132.418 32.9457 132.699 32.9722 133.038 32.9722H135.248V35.8341C135.036 35.9294 134.702 36.0195 134.247 36.1043C133.801 36.1891 133.176 36.2315 132.371 36.2315C130.929 36.2315 129.811 36.046 129.016 35.6751C128.232 35.3041 127.686 34.7847 127.378 34.117C127.071 33.4492 126.917 32.6754 126.917 31.7957V22.8445H124.246V19.617H127.076L128.237 14.6565H131.544V19.6011H135.201V22.8445ZM138.63 36.0566V12.4306H143.241V21.986C143.506 21.6044 143.84 21.2281 144.242 20.8571C144.645 20.4756 145.149 20.1576 145.753 19.9032C146.357 19.6488 147.094 19.5216 147.963 19.5216C149.012 19.5216 149.966 19.7283 150.825 20.1417C151.694 20.5445 152.388 21.1327 152.907 21.9065C153.437 22.6802 153.702 23.6236 153.702 24.7365V36.0566H149.044V25.4202C149.044 24.6782 148.774 24.1111 148.233 23.719C147.703 23.3162 147.057 23.1148 146.293 23.1148C145.795 23.1148 145.313 23.2049 144.847 23.3851C144.38 23.5653 143.999 23.8409 143.702 24.2118C143.416 24.5722 143.273 25.0227 143.273 25.5633V36.0566H138.63ZM159.403 41.3033C158.279 41.3033 157.484 41.2079 157.018 41.0171C156.562 40.837 156.334 40.7469 156.334 40.7469V37.7896L157.956 37.8532C158.666 37.8956 159.239 37.8585 159.673 37.7419C160.108 37.6359 160.436 37.4929 160.659 37.3127C160.892 37.1325 161.056 36.9417 161.152 36.7403C161.247 36.5495 161.316 36.3958 161.359 36.2792L161.661 35.373L155.269 19.617H159.864L163.807 30.333L167.798 19.617H172.329L165.667 36.152C165.095 37.5512 164.491 38.6217 163.855 39.3636C163.219 40.1056 162.53 40.6144 161.788 40.89C161.056 41.1655 160.261 41.3033 159.403 41.3033ZM173.776 36.0566V19.617H178.323V21.9383C178.821 21.2175 179.489 20.5975 180.326 20.0781C181.174 19.5587 182.239 19.299 183.522 19.299C184.084 19.299 184.656 19.3997 185.239 19.6011C185.822 19.8025 186.368 20.0993 186.877 20.4915C187.396 20.873 187.815 21.3553 188.133 21.9383C188.663 21.1857 189.357 20.5604 190.215 20.0622C191.084 19.5534 192.049 19.299 193.109 19.299C193.724 19.299 194.344 19.3997 194.969 19.6011C195.605 19.8025 196.188 20.1311 196.718 20.5869C197.248 21.0426 197.672 21.6521 197.99 22.4153C198.319 23.1678 198.483 24.1006 198.483 25.2135V36.0566H193.84V25.7859C193.84 25.1287 193.708 24.604 193.443 24.2118C193.188 23.8091 192.86 23.5229 192.457 23.3533C192.065 23.1731 191.646 23.083 191.201 23.083C190.788 23.083 190.369 23.1678 189.945 23.3374C189.521 23.4964 189.161 23.7561 188.864 24.1164C188.567 24.4768 188.419 24.9485 188.419 25.5315V36.0566H183.792V25.3725C183.792 24.8743 183.66 24.4556 183.395 24.1164C183.13 23.7773 182.796 23.5229 182.393 23.3533C182.001 23.1731 181.598 23.083 181.185 23.083C180.761 23.083 180.337 23.1731 179.913 23.3533C179.489 23.5229 179.134 23.7932 178.847 24.1641C178.561 24.5245 178.418 24.9803 178.418 25.5315V36.0566H173.776ZM205.431 28.9021C205.42 29.7394 205.553 30.4708 205.828 31.0961C206.104 31.7109 206.501 32.1879 207.021 32.5271C207.551 32.8556 208.187 33.0199 208.929 33.0199C209.724 33.0199 210.418 32.8503 211.012 32.5112C211.616 32.172 212.034 31.6155 212.268 30.8418H216.449C216.269 32.0077 215.802 33.004 215.05 33.8308C214.308 34.6575 213.407 35.2882 212.347 35.7228C211.287 36.1573 210.185 36.3746 209.04 36.3746C207.418 36.3746 205.987 36.0354 204.747 35.3571C203.518 34.6681 202.559 33.6983 201.87 32.4476C201.181 31.1968 200.836 29.7235 200.836 28.0276C200.836 26.3847 201.149 24.9061 201.774 23.5918C202.4 22.2669 203.306 21.2228 204.493 20.4597C205.691 19.6859 207.127 19.299 208.802 19.299C210.476 19.299 211.881 19.6541 213.015 20.3643C214.16 21.0638 215.018 22.0443 215.59 23.3056C216.173 24.5563 216.465 26.0031 216.465 27.646V28.9021H205.431ZM205.415 26.1356H212.124C212.124 25.4785 212.003 24.8743 211.759 24.3231C211.515 23.772 211.144 23.3374 210.646 23.0194C210.158 22.7014 209.544 22.5424 208.802 22.5424C208.081 22.5424 207.466 22.7173 206.957 23.0671C206.459 23.4063 206.078 23.8515 205.813 24.4026C205.548 24.9538 205.415 25.5315 205.415 26.1356ZM224.839 36.3746C222.635 36.3746 220.917 35.6168 219.688 34.1011C218.458 32.5747 217.844 30.4549 217.844 27.7414C217.844 26.0243 218.093 24.5351 218.591 23.2738C219.089 22.0125 219.826 21.0373 220.801 20.3484C221.776 19.6488 222.968 19.299 224.378 19.299C224.972 19.299 225.523 19.3679 226.032 19.5057C226.551 19.6329 227.023 19.8131 227.447 20.0463C227.871 20.2795 228.242 20.5498 228.56 20.8571C228.878 21.1645 229.137 21.4931 229.339 21.8429V12.4306H233.997V36.0566H230.626L230.102 32.686C229.953 33.1418 229.747 33.587 229.482 34.0216C229.217 34.4561 228.878 34.8536 228.464 35.214C228.051 35.5638 227.542 35.8447 226.938 36.0566C226.344 36.2686 225.645 36.3746 224.839 36.3746ZM225.857 33.0358C227.023 33.0358 227.892 32.6277 228.464 31.8116C229.047 30.9954 229.339 29.6175 229.339 27.6778C229.328 26.5543 229.196 25.6216 228.941 24.8796C228.687 24.1376 228.305 23.5865 227.796 23.2261C227.298 22.8551 226.662 22.6696 225.889 22.6696C224.882 22.6696 224.044 23.0565 223.377 23.8303C222.709 24.5934 222.375 25.8759 222.375 27.6778C222.375 29.5115 222.688 30.8629 223.313 31.7321C223.938 32.6012 224.786 33.0358 225.857 33.0358Z" fill="#213360"/>
</g>
<defs>
<clipPath id="clip0_1_17531">
<rect width="240" height="50.7256" fill="white"/>
</clipPath>
</defs>
</svg>
