<svg width="344" height="124" viewBox="0 0 344 124" fill="none" xmlns="http://www.w3.org/2000/svg">
<g filter="url(#filter0_dd_4_1772)">
<rect x="10" y="6" width="324" height="104" rx="8" fill="#F6FAFB"/>
</g>
<g clip-path="url(#clip0_4_1772)">
<path d="M28.9143 61.1971C28.9143 61.7177 28.4823 62.143 27.9534 62.143C27.432 62.143 27 61.7177 27 61.1971V58.044C27 57.5234 27.432 57.0981 27.9609 57.0981C28.4897 57.0981 28.9217 57.5234 28.9217 58.044V61.1971H28.9143Z" fill="#F99746"/>
<path d="M85.9999 66.242C85.9999 66.7626 85.5678 67.1879 85.039 67.1879C84.5101 67.1879 84.0781 66.7626 84.0781 66.242V63.0889C84.0781 62.5683 84.5101 62.143 85.039 62.143C85.5678 62.143 85.9999 62.5683 85.9999 63.0889V66.242Z" fill="#F99746"/>
<path d="M84.54 66.1173C84.54 67.6279 83.2961 68.8524 81.7617 68.8524H43.5357C42.0013 68.8524 32.415 67.6279 32.415 66.1173L40.7574 44.7351C40.7574 43.2246 42.0013 42 43.5357 42H81.7617C83.2961 42 84.54 43.2246 84.54 44.7351V66.1173Z" fill="#2B478B"/>
<path d="M66.4701 66.1173C66.4701 67.6279 65.2262 68.8524 63.6918 68.8524H31.2012C29.6668 68.8524 28.4229 67.6279 28.4229 66.1173V58.1613C28.4229 56.6508 29.6668 55.4262 31.2012 55.4262H63.6918C65.2262 55.4262 66.4701 56.6508 66.4701 58.1613V66.1173Z" fill="#2B478B"/>
<path d="M57.2561 45.8863V53.835C57.2561 54.6636 56.5709 55.3456 55.7217 55.3456H43.0592C42.5601 55.3456 42.0983 55.1109 41.8078 54.7149C41.5248 54.319 41.4503 53.8203 41.6067 53.351L42.143 51.7892L42.4335 50.9313L42.7985 49.868L44.3329 45.417C44.5489 44.8084 45.1299 44.3905 45.7928 44.3905H55.7217C56.5783 44.3758 57.2561 45.0504 57.2561 45.8863Z" fill="#7F8C8D"/>
<path d="M84.5403 59.6205H28.3037V64.9221H84.5403V59.6205Z" fill="#92C3D1"/>
<path d="M36.9883 65.9707C38.6047 63.6169 41.8597 63.0009 44.2507 64.5921C46.6417 66.1833 47.2674 69.3877 45.651 71.7415C44.0347 74.0953 40.7797 74.7113 38.3887 73.1201C35.9977 71.5289 35.3646 68.3245 36.9883 65.9707Z" fill="#EE5463"/>
<path d="M39.4168 67.4079C40.1542 66.33 41.6513 66.044 42.7463 66.7773C43.8412 67.5105 44.1317 68.9771 43.3868 70.055C42.642 71.1329 41.1523 71.4189 40.0573 70.6856C38.9624 69.9523 38.6719 68.4858 39.4168 67.4079Z" fill="#EFCBAB"/>
<path d="M69.196 65.9707C70.8123 63.6169 74.0674 63.0009 76.4584 64.5921C78.8493 66.1833 79.475 69.3877 77.8587 71.7415C76.2423 74.0953 72.9873 74.7113 70.5963 73.1201C68.2053 71.5289 67.5797 68.3245 69.196 65.9707Z" fill="#EE5463"/>
<path d="M71.6316 67.4079C72.369 66.33 73.8662 66.044 74.9611 66.7773C76.0561 67.5105 76.3466 68.9771 75.6017 70.055C74.8568 71.1329 73.3671 71.4189 72.2722 70.6856C71.1773 69.9523 70.8868 68.4858 71.6316 67.4079Z" fill="#EFCBAB"/>
<path d="M57.2634 49.2594V53.835C57.2634 54.6636 56.5781 55.3456 55.729 55.3456H53.4199V50.6306C53.4199 49.7947 54.1126 49.1201 54.9543 49.1201H56.6154C56.8463 49.1127 57.0623 49.1641 57.2634 49.2594Z" fill="#95A5A6"/>
<path d="M47.3046 53.527C47.3046 51.4592 45.6064 49.78 43.5357 49.78C43.2899 49.78 43.0515 49.802 42.8131 49.846L42.4482 50.9092L42.1577 51.7672L41.6214 53.329C41.465 53.7983 41.5394 54.3043 41.8225 54.6929C42.113 55.0962 42.5748 55.3235 43.0738 55.3235H46.2469H46.8428C47.1333 54.8029 47.3046 54.187 47.3046 53.527ZM44.6753 51.6205L42.5748 53.417C42.6716 52.8084 42.9547 51.8698 43.126 51.3345C43.2601 51.3125 43.3941 51.2979 43.5282 51.2979C43.9453 51.2905 44.3401 51.4152 44.6753 51.6205ZM43.0366 54.5023L45.6659 52.9037C45.7255 53.1017 45.7628 53.307 45.7628 53.527C45.7628 54.033 45.584 54.4949 45.2935 54.8689C44.0645 54.7223 43.4016 54.6123 43.0366 54.5023Z" fill="#95A5A6"/>
</g>
<path d="M107.229 45.14C106.3 45.14 105.493 44.93 104.807 44.51C104.126 44.0853 103.598 43.4857 103.225 42.711C102.856 41.9363 102.672 41.0217 102.672 39.967C102.672 38.8937 102.866 37.9673 103.253 37.188C103.645 36.404 104.191 35.7997 104.891 35.375C105.591 34.9503 106.408 34.738 107.341 34.738C107.943 34.738 108.491 34.8337 108.986 35.025C109.481 35.2163 109.91 35.4777 110.274 35.809C110.643 36.1403 110.93 36.516 111.135 36.936C111.345 37.3513 111.459 37.783 111.478 38.231H109.322C109.261 37.909 109.14 37.615 108.958 37.349C108.781 37.083 108.552 36.8707 108.272 36.712C107.992 36.5487 107.665 36.467 107.292 36.467C106.844 36.467 106.438 36.5837 106.074 36.817C105.71 37.0457 105.423 37.412 105.213 37.916C105.003 38.42 104.898 39.085 104.898 39.911C104.898 40.5783 104.966 41.1337 105.101 41.577C105.241 42.0203 105.428 42.3727 105.661 42.634C105.894 42.8907 106.16 43.0727 106.459 43.18C106.758 43.2873 107.063 43.341 107.376 43.341C107.675 43.341 107.941 43.292 108.174 43.194C108.412 43.0913 108.615 42.9607 108.783 42.802C108.951 42.6433 109.084 42.4707 109.182 42.284C109.28 42.0927 109.343 41.906 109.371 41.724L109.448 41.108H107.355V39.694L111.59 39.715V45H110.197V43.677C110.024 43.9057 109.81 44.1343 109.553 44.363C109.301 44.587 108.986 44.7737 108.608 44.923C108.235 45.0677 107.775 45.14 107.229 45.14ZM113.498 45V37.762H115.465V39.477C115.582 39.1083 115.745 38.7863 115.955 38.511C116.17 38.231 116.429 38.014 116.732 37.86C117.035 37.7013 117.378 37.622 117.761 37.622C117.826 37.622 117.887 37.6267 117.943 37.636C118.004 37.6407 118.048 37.65 118.076 37.664V39.61C118.034 39.5913 117.983 39.5797 117.922 39.575C117.866 39.5703 117.815 39.5657 117.768 39.561C117.367 39.5283 117.024 39.54 116.739 39.596C116.454 39.652 116.223 39.7477 116.046 39.883C115.869 40.0183 115.74 40.184 115.661 40.38C115.582 40.576 115.542 40.7953 115.542 41.038V45H113.498ZM121.204 45.14C120.742 45.14 120.326 45.0537 119.958 44.881C119.589 44.7083 119.297 44.4587 119.083 44.132C118.868 43.8007 118.761 43.3993 118.761 42.928C118.761 42.1347 119.057 41.5327 119.65 41.122C120.242 40.7067 121.178 40.492 122.457 40.478L123.36 40.464V40.03C123.36 39.6987 123.262 39.4443 123.066 39.267C122.874 39.085 122.576 38.9963 122.17 39.001C121.871 39.0057 121.586 39.0757 121.316 39.211C121.05 39.3463 120.868 39.582 120.77 39.918H119.069C119.097 39.3953 119.248 38.966 119.524 38.63C119.799 38.2893 120.172 38.0373 120.644 37.874C121.12 37.706 121.659 37.622 122.261 37.622C123.003 37.622 123.598 37.7153 124.046 37.902C124.494 38.084 124.818 38.3477 125.019 38.693C125.219 39.0337 125.32 39.4397 125.32 39.911V45H123.612L123.444 43.754C123.196 44.2767 122.886 44.6383 122.513 44.839C122.144 45.0397 121.708 45.14 121.204 45.14ZM121.89 43.796C122.076 43.796 122.256 43.7633 122.429 43.698C122.606 43.628 122.762 43.537 122.898 43.425C123.038 43.3083 123.15 43.1777 123.234 43.033C123.318 42.8883 123.36 42.739 123.36 42.585V41.514L122.625 41.528C122.284 41.5327 121.967 41.5747 121.673 41.654C121.379 41.7287 121.141 41.8523 120.959 42.025C120.781 42.1977 120.693 42.431 120.693 42.725C120.693 43.061 120.809 43.3247 121.043 43.516C121.276 43.7027 121.558 43.796 121.89 43.796ZM131.224 39.183H129.614L129.628 43.04C129.628 43.2173 129.649 43.3503 129.691 43.439C129.738 43.523 129.808 43.579 129.901 43.607C129.999 43.6303 130.123 43.642 130.272 43.642H131.245V44.902C131.152 44.944 131.005 44.9837 130.804 45.021C130.608 45.0583 130.333 45.077 129.978 45.077C129.344 45.077 128.851 44.9953 128.501 44.832C128.156 44.6687 127.916 44.44 127.78 44.146C127.645 43.852 127.577 43.5113 127.577 43.124V39.183H126.401V37.762H127.647L128.158 35.578H129.614V37.755H131.224V39.183ZM134.792 37.762V45H132.839V37.762H134.792ZM134.813 34.885V36.726H132.825V34.885H134.813ZM139.508 45.14C139.004 45.14 138.518 45.0583 138.052 44.895C137.585 44.727 137.191 44.4657 136.869 44.111C136.547 43.7517 136.341 43.2873 136.253 42.718H138.024C138.084 42.9747 138.194 43.1777 138.353 43.327C138.516 43.4763 138.7 43.5837 138.906 43.649C139.111 43.7097 139.307 43.74 139.494 43.74C139.886 43.74 140.201 43.6793 140.439 43.558C140.681 43.432 140.803 43.2407 140.803 42.984C140.803 42.788 140.73 42.6317 140.586 42.515C140.446 42.3983 140.212 42.3097 139.886 42.249L138.612 41.983C137.972 41.8477 137.459 41.619 137.072 41.297C136.684 40.9703 136.486 40.5083 136.477 39.911C136.477 39.477 136.591 39.0873 136.82 38.742C137.053 38.3967 137.396 38.1237 137.849 37.923C138.301 37.7223 138.857 37.622 139.515 37.622C140.406 37.622 141.118 37.818 141.65 38.21C142.186 38.602 142.459 39.155 142.469 39.869H140.761C140.709 39.589 140.569 39.3743 140.341 39.225C140.117 39.071 139.834 38.994 139.494 38.994C139.139 38.994 138.847 39.057 138.619 39.183C138.39 39.309 138.276 39.5003 138.276 39.757C138.276 39.9483 138.369 40.1 138.556 40.212C138.742 40.3193 139.032 40.4127 139.424 40.492L140.6 40.758C141.006 40.856 141.335 40.9913 141.587 41.164C141.843 41.332 142.042 41.5163 142.182 41.717C142.322 41.9177 142.417 42.1207 142.469 42.326C142.525 42.5267 142.553 42.7087 142.553 42.872C142.553 43.3527 142.424 43.7633 142.168 44.104C141.911 44.44 141.554 44.6967 141.097 44.874C140.639 45.0513 140.11 45.14 139.508 45.14ZM151.323 45.14C150.367 45.14 149.538 44.9323 148.838 44.517C148.143 44.097 147.604 43.502 147.221 42.732C146.843 41.9573 146.654 41.0333 146.654 39.96C146.654 38.882 146.846 37.9533 147.228 37.174C147.616 36.3947 148.159 35.795 148.859 35.375C149.559 34.9503 150.381 34.738 151.323 34.738C152.261 34.738 153.078 34.948 153.773 35.368C154.469 35.788 155.005 36.3877 155.383 37.167C155.766 37.9463 155.957 38.8773 155.957 39.96C155.957 41.0287 155.768 41.9503 155.39 42.725C155.017 43.4997 154.483 44.097 153.787 44.517C153.092 44.9323 152.271 45.14 151.323 45.14ZM151.323 43.46C151.818 43.46 152.245 43.3433 152.604 43.11C152.968 42.872 153.248 42.4987 153.444 41.99C153.64 41.4767 153.738 40.8093 153.738 39.988C153.738 39.1433 153.638 38.4597 153.437 37.937C153.241 37.4143 152.961 37.0317 152.597 36.789C152.238 36.5417 151.813 36.418 151.323 36.418C150.833 36.418 150.406 36.5417 150.042 36.789C149.678 37.0317 149.396 37.4167 149.195 37.944C148.995 38.4667 148.894 39.148 148.894 39.988C148.894 40.814 148.995 41.4813 149.195 41.99C149.396 42.4987 149.678 42.872 150.042 43.11C150.406 43.3433 150.833 43.46 151.323 43.46ZM157.316 45V37.762H159.325V38.784C159.437 38.6067 159.582 38.4363 159.759 38.273C159.941 38.105 160.17 37.9673 160.445 37.86C160.721 37.7527 161.047 37.699 161.425 37.699C161.869 37.699 162.282 37.7853 162.664 37.958C163.052 38.1307 163.364 38.4037 163.602 38.777C163.84 39.1457 163.959 39.6287 163.959 40.226V45H161.915V40.478C161.915 40.086 161.799 39.792 161.565 39.596C161.332 39.4 161.047 39.302 160.711 39.302C160.487 39.302 160.27 39.3417 160.06 39.421C159.855 39.5003 159.687 39.6193 159.556 39.778C159.426 39.9367 159.36 40.1327 159.36 40.366V45H157.316ZM168.968 47.394C167.68 47.394 166.7 47.2307 166.028 46.904C165.361 46.5773 165.027 46.148 165.027 45.616C165.027 45.3687 165.093 45.161 165.223 44.993C165.354 44.825 165.506 44.692 165.678 44.594C165.856 44.4913 166.017 44.4143 166.161 44.363C166.311 44.307 166.402 44.2697 166.434 44.251C166.36 44.209 166.252 44.1483 166.112 44.069C165.972 43.985 165.842 43.873 165.72 43.733C165.604 43.5883 165.545 43.4017 165.545 43.173C165.545 42.9163 165.667 42.6783 165.909 42.459C166.157 42.2397 166.53 42.088 167.029 42.004C166.553 41.78 166.192 41.4767 165.944 41.094C165.697 40.7113 165.573 40.3193 165.573 39.918C165.573 39.442 165.723 39.0337 166.021 38.693C166.32 38.3523 166.726 38.0933 167.239 37.916C167.757 37.7387 168.343 37.65 168.996 37.65C169.496 37.65 169.904 37.7037 170.221 37.811C170.539 37.9137 170.833 38.049 171.103 38.217C171.211 38.175 171.353 38.1213 171.53 38.056C171.708 37.986 171.899 37.9113 172.104 37.832C172.31 37.748 172.51 37.6663 172.706 37.587C172.902 37.503 173.077 37.4283 173.231 37.363L173.224 38.945L171.971 39.148C172.023 39.274 172.062 39.4093 172.09 39.554C172.118 39.6987 172.132 39.8177 172.132 39.911C172.132 40.331 172.009 40.723 171.761 41.087C171.519 41.451 171.152 41.745 170.662 41.969C170.177 42.193 169.575 42.305 168.856 42.305C168.768 42.305 168.649 42.3027 168.499 42.298C168.355 42.2933 168.236 42.2863 168.142 42.277C167.867 42.291 167.678 42.326 167.575 42.382C167.473 42.438 167.421 42.5033 167.421 42.578C167.421 42.69 167.526 42.7647 167.736 42.802C167.946 42.8347 168.264 42.865 168.688 42.893C168.838 42.9023 169.045 42.914 169.311 42.928C169.577 42.942 169.871 42.9607 170.193 42.984C171.08 43.0447 171.74 43.264 172.174 43.642C172.613 44.0153 172.832 44.4867 172.832 45.056C172.832 45.7327 172.51 46.2903 171.866 46.729C171.227 47.1723 170.261 47.394 168.968 47.394ZM169.297 46.253C169.867 46.253 170.273 46.183 170.515 46.043C170.758 45.903 170.879 45.7023 170.879 45.441C170.879 45.2217 170.786 45.0443 170.599 44.909C170.413 44.769 170.14 44.6873 169.78 44.664L168.121 44.552C167.907 44.5427 167.715 44.5753 167.547 44.65C167.384 44.7247 167.256 44.8273 167.162 44.958C167.074 45.0887 167.029 45.2287 167.029 45.378C167.029 45.6813 167.214 45.903 167.582 46.043C167.951 46.183 168.523 46.253 169.297 46.253ZM168.912 41.164C169.3 41.164 169.61 41.059 169.843 40.849C170.081 40.6343 170.2 40.345 170.2 39.981C170.2 39.603 170.081 39.2997 169.843 39.071C169.61 38.8423 169.3 38.728 168.912 38.728C168.53 38.728 168.217 38.8423 167.974 39.071C167.736 39.2997 167.617 39.603 167.617 39.981C167.617 40.3403 167.732 40.6273 167.96 40.842C168.194 41.0567 168.511 41.164 168.912 41.164ZM181.399 45H179.362L177.409 41.878L176.45 42.9V45H174.406V34.598H176.45V40.765L179.11 37.762H181.308L178.676 40.646L181.399 45ZM184.599 37.762V45H182.646V37.762H184.599ZM184.62 34.885V36.726H182.632V34.885H184.62ZM186.492 45V37.762H188.459V39.477C188.576 39.1083 188.739 38.7863 188.949 38.511C189.164 38.231 189.423 38.014 189.726 37.86C190.03 37.7013 190.373 37.622 190.755 37.622C190.821 37.622 190.881 37.6267 190.937 37.636C190.998 37.6407 191.042 37.65 191.07 37.664V39.61C191.028 39.5913 190.977 39.5797 190.916 39.575C190.86 39.5703 190.809 39.5657 190.762 39.561C190.361 39.5283 190.018 39.54 189.733 39.596C189.449 39.652 189.218 39.7477 189.04 39.883C188.863 40.0183 188.735 40.184 188.655 40.38C188.576 40.576 188.536 40.7953 188.536 41.038V45H186.492Z" fill="#213360"/>
<path d="M102.276 58.344V57.324H108.84V58.344H106.194V66H105.078V58.344H102.276ZM111.044 66.12C110.644 66.12 110.29 66.05 109.982 65.91C109.674 65.766 109.432 65.56 109.256 65.292C109.084 65.024 108.998 64.7 108.998 64.32C108.998 63.632 109.238 63.12 109.718 62.784C110.198 62.448 110.968 62.268 112.028 62.244L113.138 62.214V61.728C113.138 61.348 113.024 61.048 112.796 60.828C112.568 60.604 112.214 60.492 111.734 60.492C111.378 60.496 111.064 60.58 110.792 60.744C110.524 60.908 110.35 61.176 110.27 61.548H109.292C109.316 61.144 109.43 60.804 109.634 60.528C109.838 60.248 110.122 60.036 110.486 59.892C110.854 59.748 111.288 59.676 111.788 59.676C112.328 59.676 112.776 59.752 113.132 59.904C113.492 60.056 113.76 60.28 113.936 60.576C114.116 60.872 114.206 61.236 114.206 61.668V66H113.258L113.18 64.836C112.94 65.32 112.634 65.656 112.262 65.844C111.894 66.028 111.488 66.12 111.044 66.12ZM111.38 65.322C111.588 65.322 111.794 65.284 111.998 65.208C112.206 65.132 112.396 65.03 112.568 64.902C112.74 64.77 112.876 64.624 112.976 64.464C113.08 64.3 113.134 64.132 113.138 63.96V62.898L112.214 62.916C111.742 62.924 111.346 62.972 111.026 63.06C110.71 63.148 110.472 63.286 110.312 63.474C110.156 63.662 110.078 63.908 110.078 64.212C110.078 64.56 110.198 64.832 110.438 65.028C110.682 65.224 110.996 65.322 111.38 65.322ZM121.55 66H120.374L118.43 62.886L117.206 64.152V66H116.102V57.084H117.206V62.898L120.122 59.796H121.394L119.156 62.16L121.55 66ZM125.641 67.932V59.796H126.745L126.757 60.876C126.829 60.748 126.921 60.614 127.033 60.474C127.149 60.334 127.289 60.204 127.453 60.084C127.621 59.964 127.815 59.866 128.035 59.79C128.259 59.714 128.513 59.676 128.797 59.676C129.293 59.676 129.729 59.79 130.105 60.018C130.485 60.242 130.781 60.586 130.993 61.05C131.205 61.514 131.311 62.102 131.311 62.814C131.311 63.526 131.207 64.128 130.999 64.62C130.795 65.108 130.499 65.48 130.111 65.736C129.723 65.992 129.255 66.12 128.707 66.12C128.431 66.12 128.185 66.08 127.969 66C127.757 65.924 127.571 65.824 127.411 65.7C127.255 65.572 127.123 65.436 127.015 65.292C126.911 65.148 126.825 65.01 126.757 64.878V67.932H125.641ZM128.497 65.256C129.009 65.256 129.427 65.062 129.751 64.674C130.075 64.282 130.237 63.674 130.237 62.85C130.237 62.142 130.089 61.58 129.793 61.164C129.497 60.748 129.065 60.54 128.497 60.54C127.921 60.54 127.485 60.754 127.189 61.182C126.893 61.606 126.745 62.162 126.745 62.85C126.745 63.294 126.811 63.698 126.943 64.062C127.075 64.426 127.271 64.716 127.531 64.932C127.791 65.148 128.113 65.256 128.497 65.256ZM133.558 63.156C133.558 63.548 133.622 63.904 133.75 64.224C133.882 64.54 134.08 64.792 134.344 64.98C134.612 65.168 134.946 65.262 135.346 65.262C135.742 65.262 136.082 65.17 136.366 64.986C136.654 64.802 136.838 64.536 136.918 64.188H137.968C137.892 64.608 137.724 64.962 137.464 65.25C137.204 65.538 136.89 65.756 136.522 65.904C136.154 66.048 135.77 66.12 135.37 66.12C134.79 66.12 134.28 65.994 133.84 65.742C133.4 65.49 133.056 65.128 132.808 64.656C132.56 64.184 132.436 63.618 132.436 62.958C132.436 62.306 132.548 61.734 132.772 61.242C132.996 60.75 133.32 60.366 133.744 60.09C134.172 59.814 134.686 59.676 135.286 59.676C135.87 59.676 136.364 59.802 136.768 60.054C137.172 60.306 137.478 60.662 137.686 61.122C137.898 61.578 138.004 62.12 138.004 62.748V63.156H133.558ZM133.564 62.406H136.936C136.936 62.05 136.876 61.73 136.756 61.446C136.636 61.158 136.452 60.932 136.204 60.768C135.96 60.6 135.652 60.516 135.28 60.516C134.892 60.516 134.57 60.61 134.314 60.798C134.062 60.982 133.872 61.22 133.744 61.512C133.62 61.8 133.56 62.098 133.564 62.406ZM139.527 66V59.796H140.583V60.99C140.687 60.694 140.833 60.45 141.021 60.258C141.209 60.062 141.423 59.916 141.663 59.82C141.907 59.724 142.159 59.676 142.419 59.676C142.511 59.676 142.601 59.682 142.689 59.694C142.777 59.706 142.845 59.726 142.893 59.754V60.828C142.833 60.8 142.755 60.782 142.659 60.774C142.567 60.762 142.489 60.756 142.425 60.756C142.177 60.74 141.945 60.756 141.729 60.804C141.513 60.848 141.323 60.926 141.159 61.038C140.995 61.15 140.865 61.298 140.769 61.482C140.677 61.662 140.631 61.882 140.631 62.142V66H139.527ZM145.746 66.078C145.41 66.078 145.138 66.032 144.93 65.94C144.726 65.848 144.568 65.724 144.456 65.568C144.348 65.412 144.274 65.234 144.234 65.034C144.198 64.83 144.18 64.62 144.18 64.404V57.084H145.272V64.296C145.272 64.608 145.332 64.842 145.452 64.998C145.576 65.154 145.748 65.24 145.968 65.256L146.304 65.262V65.982C146.212 66.01 146.116 66.032 146.016 66.048C145.916 66.068 145.826 66.078 145.746 66.078ZM149.835 66.12C149.511 66.116 149.205 66.07 148.917 65.982C148.633 65.89 148.381 65.756 148.161 65.58C147.941 65.404 147.767 65.186 147.639 64.926C147.515 64.662 147.453 64.356 147.453 64.008V59.796H148.563V63.894C148.563 64.298 148.687 64.626 148.935 64.878C149.187 65.13 149.565 65.256 150.069 65.256C150.525 65.256 150.891 65.138 151.167 64.902C151.447 64.662 151.587 64.306 151.587 63.834V59.796H152.691V66H151.809L151.695 64.812C151.619 65.124 151.489 65.376 151.305 65.568C151.125 65.76 150.907 65.902 150.651 65.994C150.399 66.082 150.127 66.124 149.835 66.12ZM158.904 66.12C158.504 66.12 158.15 66.05 157.842 65.91C157.534 65.766 157.292 65.56 157.116 65.292C156.944 65.024 156.858 64.7 156.858 64.32C156.858 63.632 157.098 63.12 157.578 62.784C158.058 62.448 158.828 62.268 159.888 62.244L160.998 62.214V61.728C160.998 61.348 160.884 61.048 160.656 60.828C160.428 60.604 160.074 60.492 159.594 60.492C159.238 60.496 158.924 60.58 158.652 60.744C158.384 60.908 158.21 61.176 158.13 61.548H157.152C157.176 61.144 157.29 60.804 157.494 60.528C157.698 60.248 157.982 60.036 158.346 59.892C158.714 59.748 159.148 59.676 159.648 59.676C160.188 59.676 160.636 59.752 160.992 59.904C161.352 60.056 161.62 60.28 161.796 60.576C161.976 60.872 162.066 61.236 162.066 61.668V66H161.118L161.04 64.836C160.8 65.32 160.494 65.656 160.122 65.844C159.754 66.028 159.348 66.12 158.904 66.12ZM159.24 65.322C159.448 65.322 159.654 65.284 159.858 65.208C160.066 65.132 160.256 65.03 160.428 64.902C160.6 64.77 160.736 64.624 160.836 64.464C160.94 64.3 160.994 64.132 160.998 63.96V62.898L160.074 62.916C159.602 62.924 159.206 62.972 158.886 63.06C158.57 63.148 158.332 63.286 158.172 63.474C158.016 63.662 157.938 63.908 157.938 64.212C157.938 64.56 158.058 64.832 158.298 65.028C158.542 65.224 158.856 65.322 159.24 65.322ZM163.961 66V59.796H165.035V60.696C165.135 60.524 165.273 60.362 165.449 60.21C165.629 60.058 165.845 59.936 166.097 59.844C166.353 59.752 166.647 59.706 166.979 59.706C167.371 59.706 167.731 59.784 168.059 59.94C168.391 60.096 168.655 60.34 168.851 60.672C169.051 61 169.151 61.424 169.151 61.944V66H168.041V62.052C168.041 61.568 167.913 61.21 167.657 60.978C167.405 60.742 167.077 60.624 166.673 60.624C166.393 60.624 166.131 60.67 165.887 60.762C165.643 60.85 165.445 60.986 165.293 61.17C165.141 61.35 165.065 61.578 165.065 61.854V66H163.961ZM173.746 60.606H172.348V64.464C172.348 64.684 172.37 64.846 172.414 64.95C172.462 65.05 172.54 65.114 172.648 65.142C172.76 65.17 172.912 65.184 173.104 65.184H173.782V65.928C173.706 65.956 173.59 65.98 173.434 66C173.282 66.02 173.092 66.03 172.864 66.03C172.436 66.03 172.104 65.972 171.868 65.856C171.632 65.74 171.466 65.568 171.37 65.34C171.278 65.112 171.232 64.832 171.232 64.5V60.606H170.224V59.796H171.262L171.532 57.99H172.348V59.79H173.746V60.606ZM175.34 66V59.796H176.396V60.99C176.5 60.694 176.646 60.45 176.834 60.258C177.022 60.062 177.236 59.916 177.476 59.82C177.72 59.724 177.972 59.676 178.232 59.676C178.324 59.676 178.414 59.682 178.502 59.694C178.59 59.706 178.658 59.726 178.706 59.754V60.828C178.646 60.8 178.568 60.782 178.472 60.774C178.38 60.762 178.302 60.756 178.238 60.756C177.99 60.74 177.758 60.756 177.542 60.804C177.326 60.848 177.136 60.926 176.972 61.038C176.808 61.15 176.678 61.298 176.582 61.482C176.49 61.662 176.444 61.882 176.444 62.142V66H175.34ZM180.655 63.156C180.655 63.548 180.719 63.904 180.847 64.224C180.979 64.54 181.177 64.792 181.441 64.98C181.709 65.168 182.043 65.262 182.443 65.262C182.839 65.262 183.179 65.17 183.463 64.986C183.751 64.802 183.935 64.536 184.015 64.188H185.065C184.989 64.608 184.821 64.962 184.561 65.25C184.301 65.538 183.987 65.756 183.619 65.904C183.251 66.048 182.867 66.12 182.467 66.12C181.887 66.12 181.377 65.994 180.937 65.742C180.497 65.49 180.153 65.128 179.905 64.656C179.657 64.184 179.533 63.618 179.533 62.958C179.533 62.306 179.645 61.734 179.869 61.242C180.093 60.75 180.417 60.366 180.841 60.09C181.269 59.814 181.783 59.676 182.383 59.676C182.967 59.676 183.461 59.802 183.865 60.054C184.269 60.306 184.575 60.662 184.783 61.122C184.995 61.578 185.101 62.12 185.101 62.748V63.156H180.655ZM180.661 62.406H184.033C184.033 62.05 183.973 61.73 183.853 61.446C183.733 61.158 183.549 60.932 183.301 60.768C183.057 60.6 182.749 60.516 182.377 60.516C181.989 60.516 181.667 60.61 181.411 60.798C181.159 60.982 180.969 61.22 180.841 61.512C180.717 61.8 180.657 62.098 180.661 62.406ZM186.229 67.506L186.901 66.024L186.379 65.994V64.668H187.765V65.82L186.745 67.506H186.229ZM197.663 66H196.487L194.543 62.886L193.319 64.152V66H192.215V57.084H193.319V62.898L196.235 59.796H197.507L195.269 62.16L197.663 66ZM200.54 66.12C200.14 66.12 199.786 66.05 199.478 65.91C199.17 65.766 198.928 65.56 198.752 65.292C198.58 65.024 198.494 64.7 198.494 64.32C198.494 63.632 198.734 63.12 199.214 62.784C199.694 62.448 200.464 62.268 201.524 62.244L202.634 62.214V61.728C202.634 61.348 202.52 61.048 202.292 60.828C202.064 60.604 201.71 60.492 201.23 60.492C200.874 60.496 200.56 60.58 200.288 60.744C200.02 60.908 199.846 61.176 199.766 61.548H198.788C198.812 61.144 198.926 60.804 199.13 60.528C199.334 60.248 199.618 60.036 199.982 59.892C200.35 59.748 200.784 59.676 201.284 59.676C201.824 59.676 202.272 59.752 202.628 59.904C202.988 60.056 203.256 60.28 203.432 60.576C203.612 60.872 203.702 61.236 203.702 61.668V66H202.754L202.676 64.836C202.436 65.32 202.13 65.656 201.758 65.844C201.39 66.028 200.984 66.12 200.54 66.12ZM200.876 65.322C201.084 65.322 201.29 65.284 201.494 65.208C201.702 65.132 201.892 65.03 202.064 64.902C202.236 64.77 202.372 64.624 202.472 64.464C202.576 64.3 202.63 64.132 202.634 63.96V62.898L201.71 62.916C201.238 62.924 200.842 62.972 200.522 63.06C200.206 63.148 199.968 63.286 199.808 63.474C199.652 63.662 199.574 63.908 199.574 64.212C199.574 64.56 199.694 64.832 199.934 65.028C200.178 65.224 200.492 65.322 200.876 65.322ZM205.598 66V59.796H206.666V60.696C206.838 60.424 207.074 60.186 207.374 59.982C207.674 59.778 208.064 59.676 208.544 59.676C208.768 59.676 208.996 59.714 209.228 59.79C209.464 59.866 209.68 59.98 209.876 60.132C210.072 60.284 210.224 60.47 210.332 60.69C210.524 60.386 210.784 60.142 211.112 59.958C211.44 59.77 211.81 59.676 212.222 59.676C212.438 59.676 212.664 59.71 212.9 59.778C213.136 59.842 213.354 59.958 213.554 60.126C213.758 60.29 213.924 60.52 214.052 60.816C214.18 61.108 214.244 61.484 214.244 61.944V66H213.128V62.052C213.128 61.676 213.068 61.386 212.948 61.182C212.828 60.974 212.67 60.828 212.474 60.744C212.282 60.66 212.076 60.618 211.856 60.618C211.664 60.618 211.46 60.656 211.244 60.732C211.028 60.808 210.844 60.936 210.692 61.116C210.54 61.296 210.464 61.542 210.464 61.854V66H209.36V61.728C209.36 61.484 209.294 61.28 209.162 61.116C209.034 60.952 208.872 60.828 208.676 60.744C208.484 60.66 208.292 60.618 208.1 60.618C207.888 60.618 207.674 60.66 207.458 60.744C207.246 60.828 207.066 60.962 206.918 61.146C206.774 61.326 206.702 61.562 206.702 61.854V66H205.598ZM217.181 59.796V66H216.107V59.796H217.181ZM217.205 57.33V58.482H216.071V57.33H217.205ZM227.346 66H226.17L224.226 62.886L223.002 64.152V66H221.898V57.084H223.002V62.898L225.918 59.796H227.19L224.952 62.16L227.346 66ZM229.872 59.796V66H228.798V59.796H229.872ZM229.896 57.33V58.482H228.762V57.33H229.896ZM231.895 66V59.796H232.951V60.99C233.055 60.694 233.201 60.45 233.389 60.258C233.577 60.062 233.791 59.916 234.031 59.82C234.275 59.724 234.527 59.676 234.787 59.676C234.879 59.676 234.969 59.682 235.057 59.694C235.145 59.706 235.213 59.726 235.261 59.754V60.828C235.201 60.8 235.123 60.782 235.027 60.774C234.935 60.762 234.857 60.756 234.793 60.756C234.545 60.74 234.313 60.756 234.097 60.804C233.881 60.848 233.691 60.926 233.527 61.038C233.363 61.15 233.233 61.298 233.137 61.482C233.045 61.662 232.999 61.882 232.999 62.142V66H231.895ZM237.747 59.796V66H236.673V59.796H237.747ZM237.771 57.33V58.482H236.637V57.33H237.771ZM239.77 66V59.796H240.838V60.696C241.01 60.424 241.246 60.186 241.546 59.982C241.846 59.778 242.236 59.676 242.716 59.676C242.94 59.676 243.168 59.714 243.4 59.79C243.636 59.866 243.852 59.98 244.048 60.132C244.244 60.284 244.396 60.47 244.504 60.69C244.696 60.386 244.956 60.142 245.284 59.958C245.612 59.77 245.982 59.676 246.394 59.676C246.61 59.676 246.836 59.71 247.072 59.778C247.308 59.842 247.526 59.958 247.726 60.126C247.93 60.29 248.096 60.52 248.224 60.816C248.352 61.108 248.416 61.484 248.416 61.944V66H247.3V62.052C247.3 61.676 247.24 61.386 247.12 61.182C247 60.974 246.842 60.828 246.646 60.744C246.454 60.66 246.248 60.618 246.028 60.618C245.836 60.618 245.632 60.656 245.416 60.732C245.2 60.808 245.016 60.936 244.864 61.116C244.712 61.296 244.636 61.542 244.636 61.854V66H243.532V61.728C243.532 61.484 243.466 61.28 243.334 61.116C243.206 60.952 243.044 60.828 242.848 60.744C242.656 60.66 242.464 60.618 242.272 60.618C242.06 60.618 241.846 60.66 241.63 60.744C241.418 60.828 241.238 60.962 241.09 61.146C240.946 61.326 240.874 61.562 240.874 61.854V66H239.77ZM258.366 66H257.19L255.246 62.886L254.022 64.152V66H252.918V57.084H254.022V62.898L256.938 59.796H258.21L255.972 62.16L258.366 66ZM260.202 63.156C260.202 63.548 260.266 63.904 260.394 64.224C260.526 64.54 260.724 64.792 260.988 64.98C261.256 65.168 261.59 65.262 261.99 65.262C262.386 65.262 262.726 65.17 263.01 64.986C263.298 64.802 263.482 64.536 263.562 64.188H264.612C264.536 64.608 264.368 64.962 264.108 65.25C263.848 65.538 263.534 65.756 263.166 65.904C262.798 66.048 262.414 66.12 262.014 66.12C261.434 66.12 260.924 65.994 260.484 65.742C260.044 65.49 259.7 65.128 259.452 64.656C259.204 64.184 259.08 63.618 259.08 62.958C259.08 62.306 259.192 61.734 259.416 61.242C259.64 60.75 259.964 60.366 260.388 60.09C260.816 59.814 261.33 59.676 261.93 59.676C262.514 59.676 263.008 59.802 263.412 60.054C263.816 60.306 264.122 60.662 264.33 61.122C264.542 61.578 264.648 62.12 264.648 62.748V63.156H260.202ZM260.208 62.406H263.58C263.58 62.05 263.52 61.73 263.4 61.446C263.28 61.158 263.096 60.932 262.848 60.768C262.604 60.6 262.296 60.516 261.924 60.516C261.536 60.516 261.214 60.61 260.958 60.798C260.706 60.982 260.516 61.22 260.388 61.512C260.264 61.8 260.204 62.098 260.208 62.406ZM270.583 66.12C270.183 66.12 269.829 66.05 269.521 65.91C269.213 65.766 268.971 65.56 268.795 65.292C268.623 65.024 268.537 64.7 268.537 64.32C268.537 63.632 268.777 63.12 269.257 62.784C269.737 62.448 270.507 62.268 271.567 62.244L272.677 62.214V61.728C272.677 61.348 272.563 61.048 272.335 60.828C272.107 60.604 271.753 60.492 271.273 60.492C270.917 60.496 270.603 60.58 270.331 60.744C270.063 60.908 269.889 61.176 269.809 61.548H268.831C268.855 61.144 268.969 60.804 269.173 60.528C269.377 60.248 269.661 60.036 270.025 59.892C270.393 59.748 270.827 59.676 271.327 59.676C271.867 59.676 272.315 59.752 272.671 59.904C273.031 60.056 273.299 60.28 273.475 60.576C273.655 60.872 273.745 61.236 273.745 61.668V66H272.797L272.719 64.836C272.479 65.32 272.173 65.656 271.801 65.844C271.433 66.028 271.027 66.12 270.583 66.12ZM270.919 65.322C271.127 65.322 271.333 65.284 271.537 65.208C271.745 65.132 271.935 65.03 272.107 64.902C272.279 64.77 272.415 64.624 272.515 64.464C272.619 64.3 272.673 64.132 272.677 63.96V62.898L271.753 62.916C271.281 62.924 270.885 62.972 270.565 63.06C270.249 63.148 270.011 63.286 269.851 63.474C269.695 63.662 269.617 63.908 269.617 64.212C269.617 64.56 269.737 64.832 269.977 65.028C270.221 65.224 270.535 65.322 270.919 65.322ZM277.207 66.078C276.871 66.078 276.599 66.032 276.391 65.94C276.187 65.848 276.029 65.724 275.917 65.568C275.809 65.412 275.735 65.234 275.695 65.034C275.659 64.83 275.641 64.62 275.641 64.404V57.084H276.733V64.296C276.733 64.608 276.793 64.842 276.913 64.998C277.037 65.154 277.209 65.24 277.429 65.256L277.765 65.262V65.982C277.673 66.01 277.577 66.032 277.477 66.048C277.377 66.068 277.287 66.078 277.207 66.078ZM280.872 66.12C280.472 66.12 280.118 66.05 279.81 65.91C279.502 65.766 279.26 65.56 279.084 65.292C278.912 65.024 278.826 64.7 278.826 64.32C278.826 63.632 279.066 63.12 279.546 62.784C280.026 62.448 280.796 62.268 281.856 62.244L282.966 62.214V61.728C282.966 61.348 282.852 61.048 282.624 60.828C282.396 60.604 282.042 60.492 281.562 60.492C281.206 60.496 280.892 60.58 280.62 60.744C280.352 60.908 280.178 61.176 280.098 61.548H279.12C279.144 61.144 279.258 60.804 279.462 60.528C279.666 60.248 279.95 60.036 280.314 59.892C280.682 59.748 281.116 59.676 281.616 59.676C282.156 59.676 282.604 59.752 282.96 59.904C283.32 60.056 283.588 60.28 283.764 60.576C283.944 60.872 284.034 61.236 284.034 61.668V66H283.086L283.008 64.836C282.768 65.32 282.462 65.656 282.09 65.844C281.722 66.028 281.316 66.12 280.872 66.12ZM281.208 65.322C281.416 65.322 281.622 65.284 281.826 65.208C282.034 65.132 282.224 65.03 282.396 64.902C282.568 64.77 282.704 64.624 282.804 64.464C282.908 64.3 282.962 64.132 282.966 63.96V62.898L282.042 62.916C281.57 62.924 281.174 62.972 280.854 63.06C280.538 63.148 280.3 63.286 280.14 63.474C279.984 63.662 279.906 63.908 279.906 64.212C279.906 64.56 280.026 64.832 280.266 65.028C280.51 65.224 280.824 65.322 281.208 65.322ZM285.93 66V59.796H286.998V60.696C287.17 60.424 287.406 60.186 287.706 59.982C288.006 59.778 288.396 59.676 288.876 59.676C289.1 59.676 289.328 59.714 289.56 59.79C289.796 59.866 290.012 59.98 290.208 60.132C290.404 60.284 290.556 60.47 290.664 60.69C290.856 60.386 291.116 60.142 291.444 59.958C291.772 59.77 292.142 59.676 292.554 59.676C292.77 59.676 292.996 59.71 293.232 59.778C293.468 59.842 293.686 59.958 293.886 60.126C294.09 60.29 294.256 60.52 294.384 60.816C294.512 61.108 294.576 61.484 294.576 61.944V66H293.46V62.052C293.46 61.676 293.4 61.386 293.28 61.182C293.16 60.974 293.002 60.828 292.806 60.744C292.614 60.66 292.408 60.618 292.188 60.618C291.996 60.618 291.792 60.656 291.576 60.732C291.36 60.808 291.176 60.936 291.024 61.116C290.872 61.296 290.796 61.542 290.796 61.854V66H289.692V61.728C289.692 61.484 289.626 61.28 289.494 61.116C289.366 60.952 289.204 60.828 289.008 60.744C288.816 60.66 288.624 60.618 288.432 60.618C288.22 60.618 288.006 60.66 287.79 60.744C287.578 60.828 287.398 60.962 287.25 61.146C287.106 61.326 287.034 61.562 287.034 61.854V66H285.93ZM298.005 66.12C297.605 66.12 297.251 66.05 296.943 65.91C296.635 65.766 296.393 65.56 296.217 65.292C296.045 65.024 295.959 64.7 295.959 64.32C295.959 63.632 296.199 63.12 296.679 62.784C297.159 62.448 297.929 62.268 298.989 62.244L300.099 62.214V61.728C300.099 61.348 299.985 61.048 299.757 60.828C299.529 60.604 299.175 60.492 298.695 60.492C298.339 60.496 298.025 60.58 297.753 60.744C297.485 60.908 297.311 61.176 297.231 61.548H296.253C296.277 61.144 296.391 60.804 296.595 60.528C296.799 60.248 297.083 60.036 297.447 59.892C297.815 59.748 298.249 59.676 298.749 59.676C299.289 59.676 299.737 59.752 300.093 59.904C300.453 60.056 300.721 60.28 300.897 60.576C301.077 60.872 301.167 61.236 301.167 61.668V66H300.219L300.141 64.836C299.901 65.32 299.595 65.656 299.223 65.844C298.855 66.028 298.449 66.12 298.005 66.12ZM298.341 65.322C298.549 65.322 298.755 65.284 298.959 65.208C299.167 65.132 299.357 65.03 299.529 64.902C299.701 64.77 299.837 64.624 299.937 64.464C300.041 64.3 300.095 64.132 300.099 63.96V62.898L299.175 62.916C298.703 62.924 298.307 62.972 297.987 63.06C297.671 63.148 297.433 63.286 297.273 63.474C297.117 63.662 297.039 63.908 297.039 64.212C297.039 64.56 297.159 64.832 297.399 65.028C297.643 65.224 297.957 65.322 298.341 65.322ZM305.922 60.606H304.524V64.464C304.524 64.684 304.546 64.846 304.59 64.95C304.638 65.05 304.716 65.114 304.824 65.142C304.936 65.17 305.088 65.184 305.28 65.184H305.958V65.928C305.882 65.956 305.766 65.98 305.61 66C305.458 66.02 305.268 66.03 305.04 66.03C304.612 66.03 304.28 65.972 304.044 65.856C303.808 65.74 303.642 65.568 303.546 65.34C303.454 65.112 303.408 64.832 303.408 64.5V60.606H302.4V59.796H303.438L303.708 57.99H304.524V59.79H305.922V60.606ZM104.634 82.12C104.234 82.12 103.88 82.05 103.572 81.91C103.264 81.766 103.022 81.56 102.846 81.292C102.674 81.024 102.588 80.7 102.588 80.32C102.588 79.632 102.828 79.12 103.308 78.784C103.788 78.448 104.558 78.268 105.618 78.244L106.728 78.214V77.728C106.728 77.348 106.614 77.048 106.386 76.828C106.158 76.604 105.804 76.492 105.324 76.492C104.968 76.496 104.654 76.58 104.382 76.744C104.114 76.908 103.94 77.176 103.86 77.548H102.882C102.906 77.144 103.02 76.804 103.224 76.528C103.428 76.248 103.712 76.036 104.076 75.892C104.444 75.748 104.878 75.676 105.378 75.676C105.918 75.676 106.366 75.752 106.722 75.904C107.082 76.056 107.35 76.28 107.526 76.576C107.706 76.872 107.796 77.236 107.796 77.668V82H106.848L106.77 80.836C106.53 81.32 106.224 81.656 105.852 81.844C105.484 82.028 105.078 82.12 104.634 82.12ZM104.97 81.322C105.178 81.322 105.384 81.284 105.588 81.208C105.796 81.132 105.986 81.03 106.158 80.902C106.33 80.77 106.466 80.624 106.566 80.464C106.67 80.3 106.724 80.132 106.728 79.96V78.898L105.804 78.916C105.332 78.924 104.936 78.972 104.616 79.06C104.3 79.148 104.062 79.286 103.902 79.474C103.746 79.662 103.668 79.908 103.668 80.212C103.668 80.56 103.788 80.832 104.028 81.028C104.272 81.224 104.586 81.322 104.97 81.322ZM109.691 82V75.796H110.765V76.696C110.865 76.524 111.003 76.362 111.179 76.21C111.359 76.058 111.575 75.936 111.827 75.844C112.083 75.752 112.377 75.706 112.709 75.706C113.101 75.706 113.461 75.784 113.789 75.94C114.121 76.096 114.385 76.34 114.581 76.672C114.781 77 114.881 77.424 114.881 77.944V82H113.771V78.052C113.771 77.568 113.643 77.21 113.387 76.978C113.135 76.742 112.807 76.624 112.403 76.624C112.123 76.624 111.861 76.67 111.617 76.762C111.373 76.85 111.175 76.986 111.023 77.17C110.871 77.35 110.795 77.578 110.795 77.854V82H109.691ZM118.855 82.12C118.051 82.12 117.413 81.844 116.941 81.292C116.469 80.74 116.233 79.934 116.233 78.874C116.233 78.23 116.327 77.668 116.515 77.188C116.707 76.708 116.991 76.336 117.367 76.072C117.743 75.808 118.211 75.676 118.771 75.676C119.067 75.676 119.329 75.714 119.557 75.79C119.789 75.866 119.989 75.962 120.157 76.078C120.325 76.194 120.461 76.314 120.565 76.438C120.673 76.562 120.753 76.676 120.805 76.78V73.084H121.921V82H121.075L120.955 80.728C120.915 80.848 120.851 80.988 120.763 81.148C120.675 81.304 120.551 81.458 120.391 81.61C120.231 81.758 120.025 81.88 119.773 81.976C119.525 82.072 119.219 82.12 118.855 82.12ZM119.053 81.268C119.681 81.268 120.129 81.078 120.397 80.698C120.669 80.314 120.805 79.688 120.805 78.82C120.801 78.336 120.739 77.924 120.619 77.584C120.503 77.244 120.319 76.986 120.067 76.81C119.819 76.63 119.489 76.54 119.077 76.54C118.565 76.54 118.149 76.722 117.829 77.086C117.509 77.45 117.349 78.028 117.349 78.82C117.349 79.596 117.493 80.198 117.781 80.626C118.073 81.054 118.497 81.268 119.053 81.268ZM125.47 82.12C125.07 82.12 124.716 82.05 124.408 81.91C124.1 81.766 123.858 81.56 123.682 81.292C123.51 81.024 123.424 80.7 123.424 80.32C123.424 79.632 123.664 79.12 124.144 78.784C124.624 78.448 125.394 78.268 126.454 78.244L127.564 78.214V77.728C127.564 77.348 127.45 77.048 127.222 76.828C126.994 76.604 126.64 76.492 126.16 76.492C125.804 76.496 125.49 76.58 125.218 76.744C124.95 76.908 124.776 77.176 124.696 77.548H123.718C123.742 77.144 123.856 76.804 124.06 76.528C124.264 76.248 124.548 76.036 124.912 75.892C125.28 75.748 125.714 75.676 126.214 75.676C126.754 75.676 127.202 75.752 127.558 75.904C127.918 76.056 128.186 76.28 128.362 76.576C128.542 76.872 128.632 77.236 128.632 77.668V82H127.684L127.606 80.836C127.366 81.32 127.06 81.656 126.688 81.844C126.32 82.028 125.914 82.12 125.47 82.12ZM125.806 81.322C126.014 81.322 126.22 81.284 126.424 81.208C126.632 81.132 126.822 81.03 126.994 80.902C127.166 80.77 127.302 80.624 127.402 80.464C127.506 80.3 127.56 80.132 127.564 79.96V78.898L126.64 78.916C126.168 78.924 125.772 78.972 125.452 79.06C125.136 79.148 124.898 79.286 124.738 79.474C124.582 79.662 124.504 79.908 124.504 80.212C124.504 80.56 124.624 80.832 124.864 81.028C125.108 81.224 125.422 81.322 125.806 81.322ZM136.359 82.12C135.995 82.12 135.687 82.072 135.435 81.976C135.187 81.88 134.983 81.758 134.823 81.61C134.663 81.458 134.539 81.304 134.451 81.148C134.363 80.988 134.299 80.848 134.259 80.728L134.139 82H133.293V73.084H134.409V76.78C134.461 76.676 134.539 76.562 134.643 76.438C134.751 76.314 134.889 76.194 135.057 76.078C135.225 75.962 135.423 75.866 135.651 75.79C135.883 75.714 136.147 75.676 136.443 75.676C137.219 75.676 137.835 75.946 138.291 76.486C138.751 77.026 138.981 77.822 138.981 78.874C138.981 79.526 138.883 80.096 138.687 80.584C138.491 81.068 138.199 81.446 137.811 81.718C137.423 81.986 136.939 82.12 136.359 82.12ZM136.161 81.268C136.665 81.268 137.075 81.074 137.391 80.686C137.707 80.294 137.865 79.672 137.865 78.82C137.865 78.096 137.717 77.536 137.421 77.14C137.129 76.74 136.701 76.54 136.137 76.54C135.725 76.54 135.393 76.63 135.141 76.81C134.893 76.986 134.709 77.244 134.589 77.584C134.473 77.924 134.413 78.336 134.409 78.82C134.409 79.688 134.543 80.314 134.811 80.698C135.083 81.078 135.533 81.268 136.161 81.268ZM141.222 79.156C141.222 79.548 141.286 79.904 141.414 80.224C141.546 80.54 141.744 80.792 142.008 80.98C142.276 81.168 142.61 81.262 143.01 81.262C143.406 81.262 143.746 81.17 144.03 80.986C144.318 80.802 144.502 80.536 144.582 80.188H145.632C145.556 80.608 145.388 80.962 145.128 81.25C144.868 81.538 144.554 81.756 144.186 81.904C143.818 82.048 143.434 82.12 143.034 82.12C142.454 82.12 141.944 81.994 141.504 81.742C141.064 81.49 140.72 81.128 140.472 80.656C140.224 80.184 140.1 79.618 140.1 78.958C140.1 78.306 140.212 77.734 140.436 77.242C140.66 76.75 140.984 76.366 141.408 76.09C141.836 75.814 142.35 75.676 142.95 75.676C143.534 75.676 144.028 75.802 144.432 76.054C144.836 76.306 145.142 76.662 145.35 77.122C145.562 77.578 145.668 78.12 145.668 78.748V79.156H141.222ZM141.228 78.406H144.6C144.6 78.05 144.54 77.73 144.42 77.446C144.3 77.158 144.116 76.932 143.868 76.768C143.624 76.6 143.316 76.516 142.944 76.516C142.556 76.516 142.234 76.61 141.978 76.798C141.726 76.982 141.536 77.22 141.408 77.512C141.284 77.8 141.224 78.098 141.228 78.406ZM150.257 82.12C149.893 82.12 149.585 82.072 149.333 81.976C149.085 81.88 148.881 81.758 148.721 81.61C148.561 81.458 148.437 81.304 148.349 81.148C148.261 80.988 148.197 80.848 148.157 80.728L148.037 82H147.191V73.084H148.307V76.78C148.359 76.676 148.437 76.562 148.541 76.438C148.649 76.314 148.787 76.194 148.955 76.078C149.123 75.962 149.321 75.866 149.549 75.79C149.781 75.714 150.045 75.676 150.341 75.676C151.117 75.676 151.733 75.946 152.189 76.486C152.649 77.026 152.879 77.822 152.879 78.874C152.879 79.526 152.781 80.096 152.585 80.584C152.389 81.068 152.097 81.446 151.709 81.718C151.321 81.986 150.837 82.12 150.257 82.12ZM150.059 81.268C150.563 81.268 150.973 81.074 151.289 80.686C151.605 80.294 151.763 79.672 151.763 78.82C151.763 78.096 151.615 77.536 151.319 77.14C151.027 76.74 150.599 76.54 150.035 76.54C149.623 76.54 149.291 76.63 149.039 76.81C148.791 76.986 148.607 77.244 148.487 77.584C148.371 77.924 148.311 78.336 148.307 78.82C148.307 79.688 148.441 80.314 148.709 80.698C148.981 81.078 149.431 81.268 150.059 81.268ZM155.974 82.12C155.574 82.12 155.22 82.05 154.912 81.91C154.604 81.766 154.362 81.56 154.186 81.292C154.014 81.024 153.928 80.7 153.928 80.32C153.928 79.632 154.168 79.12 154.648 78.784C155.128 78.448 155.898 78.268 156.958 78.244L158.068 78.214V77.728C158.068 77.348 157.954 77.048 157.726 76.828C157.498 76.604 157.144 76.492 156.664 76.492C156.308 76.496 155.994 76.58 155.722 76.744C155.454 76.908 155.28 77.176 155.2 77.548H154.222C154.246 77.144 154.36 76.804 154.564 76.528C154.768 76.248 155.052 76.036 155.416 75.892C155.784 75.748 156.218 75.676 156.718 75.676C157.258 75.676 157.706 75.752 158.062 75.904C158.422 76.056 158.69 76.28 158.866 76.576C159.046 76.872 159.136 77.236 159.136 77.668V82H158.188L158.11 80.836C157.87 81.32 157.564 81.656 157.192 81.844C156.824 82.028 156.418 82.12 155.974 82.12ZM156.31 81.322C156.518 81.322 156.724 81.284 156.928 81.208C157.136 81.132 157.326 81.03 157.498 80.902C157.67 80.77 157.806 80.624 157.906 80.464C158.01 80.3 158.064 80.132 158.068 79.96V78.898L157.144 78.916C156.672 78.924 156.276 78.972 155.956 79.06C155.64 79.148 155.402 79.286 155.242 79.474C155.086 79.662 155.008 79.908 155.008 80.212C155.008 80.56 155.128 80.832 155.368 81.028C155.612 81.224 155.926 81.322 156.31 81.322ZM163.14 82.12C162.708 82.12 162.306 82.054 161.934 81.922C161.566 81.786 161.26 81.576 161.016 81.292C160.772 81.004 160.618 80.638 160.554 80.194H161.562C161.618 80.438 161.718 80.642 161.862 80.806C162.01 80.966 162.194 81.088 162.414 81.172C162.634 81.252 162.874 81.292 163.134 81.292C163.55 81.292 163.886 81.214 164.142 81.058C164.398 80.902 164.526 80.662 164.526 80.338C164.526 80.11 164.458 79.928 164.322 79.792C164.19 79.652 163.984 79.55 163.704 79.486L162.42 79.168C161.92 79.048 161.52 78.86 161.22 78.604C160.92 78.348 160.77 77.99 160.77 77.53C160.766 77.166 160.852 76.846 161.028 76.57C161.204 76.294 161.468 76.076 161.82 75.916C162.172 75.756 162.61 75.676 163.134 75.676C163.806 75.676 164.348 75.828 164.76 76.132C165.176 76.432 165.392 76.874 165.408 77.458H164.43C164.39 77.162 164.256 76.928 164.028 76.756C163.804 76.58 163.502 76.492 163.122 76.492C162.726 76.492 162.404 76.572 162.156 76.732C161.908 76.888 161.784 77.132 161.784 77.464C161.784 77.684 161.872 77.858 162.048 77.986C162.224 78.11 162.484 78.214 162.828 78.298L164.07 78.61C164.358 78.686 164.594 78.786 164.778 78.91C164.966 79.034 165.114 79.172 165.222 79.324C165.334 79.476 165.412 79.636 165.456 79.804C165.504 79.968 165.528 80.126 165.528 80.278C165.528 80.658 165.432 80.986 165.24 81.262C165.052 81.534 164.78 81.746 164.424 81.898C164.072 82.046 163.644 82.12 163.14 82.12ZM172.863 82.12C172.499 82.12 172.191 82.072 171.939 81.976C171.691 81.88 171.487 81.758 171.327 81.61C171.167 81.458 171.043 81.304 170.955 81.148C170.867 80.988 170.803 80.848 170.763 80.728L170.643 82H169.797V73.084H170.913V76.78C170.965 76.676 171.043 76.562 171.147 76.438C171.255 76.314 171.393 76.194 171.561 76.078C171.729 75.962 171.927 75.866 172.155 75.79C172.387 75.714 172.651 75.676 172.947 75.676C173.723 75.676 174.339 75.946 174.795 76.486C175.255 77.026 175.485 77.822 175.485 78.874C175.485 79.526 175.387 80.096 175.191 80.584C174.995 81.068 174.703 81.446 174.315 81.718C173.927 81.986 173.443 82.12 172.863 82.12ZM172.665 81.268C173.169 81.268 173.579 81.074 173.895 80.686C174.211 80.294 174.369 79.672 174.369 78.82C174.369 78.096 174.221 77.536 173.925 77.14C173.633 76.74 173.205 76.54 172.641 76.54C172.229 76.54 171.897 76.63 171.645 76.81C171.397 76.986 171.213 77.244 171.093 77.584C170.977 77.924 170.917 78.336 170.913 78.82C170.913 79.688 171.047 80.314 171.315 80.698C171.587 81.078 172.037 81.268 172.665 81.268ZM178.134 75.796V82H177.06V75.796H178.134ZM178.158 73.33V74.482H177.024V73.33H178.158ZM181.802 82.12C181.402 82.12 181.048 82.05 180.74 81.91C180.432 81.766 180.19 81.56 180.014 81.292C179.842 81.024 179.756 80.7 179.756 80.32C179.756 79.632 179.996 79.12 180.476 78.784C180.956 78.448 181.726 78.268 182.786 78.244L183.896 78.214V77.728C183.896 77.348 183.782 77.048 183.554 76.828C183.326 76.604 182.972 76.492 182.492 76.492C182.136 76.496 181.822 76.58 181.55 76.744C181.282 76.908 181.108 77.176 181.028 77.548H180.05C180.074 77.144 180.188 76.804 180.392 76.528C180.596 76.248 180.88 76.036 181.244 75.892C181.612 75.748 182.046 75.676 182.546 75.676C183.086 75.676 183.534 75.752 183.89 75.904C184.25 76.056 184.518 76.28 184.694 76.576C184.874 76.872 184.964 77.236 184.964 77.668V82H184.016L183.938 80.836C183.698 81.32 183.392 81.656 183.02 81.844C182.652 82.028 182.246 82.12 181.802 82.12ZM182.138 81.322C182.346 81.322 182.552 81.284 182.756 81.208C182.964 81.132 183.154 81.03 183.326 80.902C183.498 80.77 183.634 80.624 183.734 80.464C183.838 80.3 183.892 80.132 183.896 79.96V78.898L182.972 78.916C182.5 78.924 182.104 78.972 181.784 79.06C181.468 79.148 181.23 79.286 181.07 79.474C180.914 79.662 180.836 79.908 180.836 80.212C180.836 80.56 180.956 80.832 181.196 81.028C181.44 81.224 181.754 81.322 182.138 81.322ZM187.272 83.98C186.908 83.98 186.658 83.954 186.522 83.902C186.386 83.85 186.318 83.824 186.318 83.824V83.104L186.948 83.116C187.18 83.124 187.372 83.108 187.524 83.068C187.676 83.028 187.798 82.974 187.89 82.906C187.982 82.838 188.052 82.762 188.1 82.678C188.152 82.594 188.194 82.514 188.226 82.438L188.442 81.85L186.018 75.796H187.14L188.97 80.584L190.788 75.796H191.874L189.258 82.468C189.098 82.86 188.918 83.166 188.718 83.386C188.522 83.606 188.302 83.76 188.058 83.848C187.818 83.936 187.556 83.98 187.272 83.98ZM194.552 82.12C194.152 82.12 193.798 82.05 193.49 81.91C193.182 81.766 192.94 81.56 192.764 81.292C192.592 81.024 192.506 80.7 192.506 80.32C192.506 79.632 192.746 79.12 193.226 78.784C193.706 78.448 194.476 78.268 195.536 78.244L196.646 78.214V77.728C196.646 77.348 196.532 77.048 196.304 76.828C196.076 76.604 195.722 76.492 195.242 76.492C194.886 76.496 194.572 76.58 194.3 76.744C194.032 76.908 193.858 77.176 193.778 77.548H192.8C192.824 77.144 192.938 76.804 193.142 76.528C193.346 76.248 193.63 76.036 193.994 75.892C194.362 75.748 194.796 75.676 195.296 75.676C195.836 75.676 196.284 75.752 196.64 75.904C197 76.056 197.268 76.28 197.444 76.576C197.624 76.872 197.714 77.236 197.714 77.668V82H196.766L196.688 80.836C196.448 81.32 196.142 81.656 195.77 81.844C195.402 82.028 194.996 82.12 194.552 82.12ZM194.888 81.322C195.096 81.322 195.302 81.284 195.506 81.208C195.714 81.132 195.904 81.03 196.076 80.902C196.248 80.77 196.384 80.624 196.484 80.464C196.588 80.3 196.642 80.132 196.646 79.96V78.898L195.722 78.916C195.25 78.924 194.854 78.972 194.534 79.06C194.218 79.148 193.98 79.286 193.82 79.474C193.664 79.662 193.586 79.908 193.586 80.212C193.586 80.56 193.706 80.832 193.946 81.028C194.19 81.224 194.504 81.322 194.888 81.322ZM204.689 82.12C204.117 82.12 203.617 81.998 203.189 81.754C202.761 81.506 202.429 81.144 202.193 80.668C201.957 80.192 201.839 79.61 201.839 78.922C201.839 78.274 201.949 77.706 202.169 77.218C202.389 76.73 202.711 76.352 203.135 76.084C203.563 75.812 204.081 75.676 204.689 75.676C205.261 75.676 205.757 75.802 206.177 76.054C206.601 76.302 206.929 76.668 207.161 77.152C207.393 77.636 207.509 78.226 207.509 78.922C207.509 79.554 207.401 80.11 207.185 80.59C206.973 81.07 206.657 81.446 206.237 81.718C205.821 81.986 205.305 82.12 204.689 82.12ZM204.689 81.244C205.061 81.244 205.375 81.15 205.631 80.962C205.887 80.774 206.081 80.504 206.213 80.152C206.345 79.8 206.411 79.382 206.411 78.898C206.411 78.454 206.353 78.056 206.237 77.704C206.121 77.348 205.935 77.066 205.679 76.858C205.427 76.65 205.097 76.546 204.689 76.546C204.313 76.546 203.995 76.64 203.735 76.828C203.475 77.012 203.277 77.28 203.141 77.632C203.009 77.984 202.943 78.406 202.943 78.898C202.943 79.334 203.003 79.73 203.123 80.086C203.243 80.442 203.431 80.724 203.687 80.932C203.943 81.14 204.277 81.244 204.689 81.244ZM208.961 82V75.796H210.035V76.696C210.135 76.524 210.273 76.362 210.449 76.21C210.629 76.058 210.845 75.936 211.097 75.844C211.353 75.752 211.647 75.706 211.979 75.706C212.371 75.706 212.731 75.784 213.059 75.94C213.391 76.096 213.655 76.34 213.851 76.672C214.051 77 214.151 77.424 214.151 77.944V82H213.041V78.052C213.041 77.568 212.913 77.21 212.657 76.978C212.405 76.742 212.077 76.624 211.673 76.624C211.393 76.624 211.131 76.67 210.887 76.762C210.643 76.85 210.445 76.986 210.293 77.17C210.141 77.35 210.065 77.578 210.065 77.854V82H208.961ZM218.503 84.052C217.527 84.052 216.767 83.91 216.223 83.626C215.683 83.346 215.413 82.944 215.413 82.42C215.413 82.196 215.465 82.006 215.569 81.85C215.673 81.69 215.797 81.558 215.941 81.454C216.085 81.35 216.219 81.268 216.343 81.208C216.467 81.144 216.547 81.098 216.583 81.07C216.515 81.03 216.429 80.98 216.325 80.92C216.225 80.86 216.137 80.78 216.061 80.68C215.985 80.58 215.947 80.45 215.947 80.29C215.947 80.094 216.039 79.914 216.223 79.75C216.407 79.586 216.679 79.464 217.039 79.384C216.675 79.2 216.391 78.956 216.187 78.652C215.983 78.348 215.881 78.018 215.881 77.662C215.881 77.262 215.989 76.914 216.205 76.618C216.425 76.322 216.737 76.096 217.141 75.94C217.545 75.78 218.025 75.7 218.581 75.7C218.985 75.7 219.325 75.748 219.601 75.844C219.877 75.936 220.133 76.068 220.369 76.24C220.433 76.212 220.533 76.17 220.669 76.114C220.809 76.054 220.963 75.99 221.131 75.922C221.299 75.854 221.455 75.79 221.599 75.73C221.747 75.666 221.865 75.618 221.953 75.586L221.947 76.612L220.861 76.816C220.921 76.944 220.969 77.084 221.005 77.236C221.045 77.388 221.065 77.53 221.065 77.662C221.065 78.026 220.969 78.356 220.777 78.652C220.589 78.948 220.303 79.184 219.919 79.36C219.535 79.536 219.055 79.624 218.479 79.624C218.431 79.624 218.369 79.624 218.293 79.624C218.221 79.62 218.159 79.616 218.107 79.612C217.683 79.624 217.391 79.672 217.231 79.756C217.071 79.836 216.991 79.926 216.991 80.026C216.991 80.142 217.081 80.222 217.261 80.266C217.441 80.31 217.747 80.348 218.179 80.38C218.335 80.388 218.527 80.398 218.755 80.41C218.987 80.422 219.243 80.438 219.523 80.458C220.175 80.498 220.677 80.664 221.029 80.956C221.381 81.248 221.557 81.642 221.557 82.138C221.557 82.702 221.305 83.162 220.801 83.518C220.297 83.874 219.531 84.052 218.503 84.052ZM218.701 83.338C219.273 83.338 219.711 83.252 220.015 83.08C220.319 82.908 220.471 82.648 220.471 82.3C220.471 82.052 220.377 81.85 220.189 81.694C220.005 81.534 219.723 81.442 219.343 81.418L217.603 81.304C217.447 81.296 217.285 81.336 217.117 81.424C216.949 81.508 216.805 81.626 216.685 81.778C216.569 81.93 216.511 82.102 216.511 82.294C216.511 82.622 216.689 82.878 217.045 83.062C217.405 83.246 217.957 83.338 218.701 83.338ZM218.509 78.91C218.957 78.91 219.317 78.806 219.589 78.598C219.865 78.39 220.003 78.082 220.003 77.674C220.003 77.254 219.865 76.934 219.589 76.714C219.317 76.494 218.957 76.384 218.509 76.384C218.057 76.384 217.691 76.496 217.411 76.72C217.135 76.94 216.997 77.258 216.997 77.674C216.997 78.066 217.129 78.37 217.393 78.586C217.657 78.802 218.029 78.91 218.509 78.91ZM228.788 82H227.612L225.668 78.886L224.444 80.152V82H223.34V73.084H224.444V78.898L227.36 75.796H228.632L226.394 78.16L228.788 82ZM232.298 82.12C231.726 82.12 231.226 81.998 230.798 81.754C230.37 81.506 230.038 81.144 229.802 80.668C229.566 80.192 229.448 79.61 229.448 78.922C229.448 78.274 229.558 77.706 229.778 77.218C229.998 76.73 230.32 76.352 230.744 76.084C231.172 75.812 231.69 75.676 232.298 75.676C232.87 75.676 233.366 75.802 233.786 76.054C234.21 76.302 234.538 76.668 234.77 77.152C235.002 77.636 235.118 78.226 235.118 78.922C235.118 79.554 235.01 80.11 234.794 80.59C234.582 81.07 234.266 81.446 233.846 81.718C233.43 81.986 232.914 82.12 232.298 82.12ZM232.298 81.244C232.67 81.244 232.984 81.15 233.24 80.962C233.496 80.774 233.69 80.504 233.822 80.152C233.954 79.8 234.02 79.382 234.02 78.898C234.02 78.454 233.962 78.056 233.846 77.704C233.73 77.348 233.544 77.066 233.288 76.858C233.036 76.65 232.706 76.546 232.298 76.546C231.922 76.546 231.604 76.64 231.344 76.828C231.084 77.012 230.886 77.28 230.75 77.632C230.618 77.984 230.552 78.406 230.552 78.898C230.552 79.334 230.612 79.73 230.732 80.086C230.852 80.442 231.04 80.724 231.296 80.932C231.552 81.14 231.886 81.244 232.298 81.244ZM238.737 82.12C238.305 82.12 237.903 82.054 237.531 81.922C237.163 81.786 236.857 81.576 236.613 81.292C236.369 81.004 236.215 80.638 236.151 80.194H237.159C237.215 80.438 237.315 80.642 237.459 80.806C237.607 80.966 237.791 81.088 238.011 81.172C238.231 81.252 238.471 81.292 238.731 81.292C239.147 81.292 239.483 81.214 239.739 81.058C239.995 80.902 240.123 80.662 240.123 80.338C240.123 80.11 240.055 79.928 239.919 79.792C239.787 79.652 239.581 79.55 239.301 79.486L238.017 79.168C237.517 79.048 237.117 78.86 236.817 78.604C236.517 78.348 236.367 77.99 236.367 77.53C236.363 77.166 236.449 76.846 236.625 76.57C236.801 76.294 237.065 76.076 237.417 75.916C237.769 75.756 238.207 75.676 238.731 75.676C239.403 75.676 239.945 75.828 240.357 76.132C240.773 76.432 240.989 76.874 241.005 77.458H240.027C239.987 77.162 239.853 76.928 239.625 76.756C239.401 76.58 239.099 76.492 238.719 76.492C238.323 76.492 238.001 76.572 237.753 76.732C237.505 76.888 237.381 77.132 237.381 77.464C237.381 77.684 237.469 77.858 237.645 77.986C237.821 78.11 238.081 78.214 238.425 78.298L239.667 78.61C239.955 78.686 240.191 78.786 240.375 78.91C240.563 79.034 240.711 79.172 240.819 79.324C240.931 79.476 241.009 79.636 241.053 79.804C241.101 79.968 241.125 80.126 241.125 80.278C241.125 80.658 241.029 80.986 240.837 81.262C240.649 81.534 240.377 81.746 240.021 81.898C239.669 82.046 239.241 82.12 238.737 82.12ZM250.843 82H249.667L247.723 78.886L246.499 80.152V82H245.395V73.084H246.499V78.898L249.415 75.796H250.687L248.449 78.16L250.843 82ZM253.368 75.796V82H252.294V75.796H253.368ZM253.392 73.33V74.482H252.258V73.33H253.392ZM255.391 82V75.796H256.447V76.99C256.551 76.694 256.697 76.45 256.885 76.258C257.073 76.062 257.287 75.916 257.527 75.82C257.771 75.724 258.023 75.676 258.283 75.676C258.375 75.676 258.465 75.682 258.553 75.694C258.641 75.706 258.709 75.726 258.757 75.754V76.828C258.697 76.8 258.619 76.782 258.523 76.774C258.431 76.762 258.353 76.756 258.289 76.756C258.041 76.74 257.809 76.756 257.593 76.804C257.377 76.848 257.187 76.926 257.023 77.038C256.859 77.15 256.729 77.298 256.633 77.482C256.541 77.662 256.495 77.882 256.495 78.142V82H255.391ZM261.243 75.796V82H260.169V75.796H261.243ZM261.267 73.33V74.482H260.133V73.33H261.267ZM263.266 82V75.796H264.334V76.696C264.506 76.424 264.742 76.186 265.042 75.982C265.342 75.778 265.732 75.676 266.212 75.676C266.436 75.676 266.664 75.714 266.896 75.79C267.132 75.866 267.348 75.98 267.544 76.132C267.74 76.284 267.892 76.47 268 76.69C268.192 76.386 268.452 76.142 268.78 75.958C269.108 75.77 269.478 75.676 269.89 75.676C270.106 75.676 270.332 75.71 270.568 75.778C270.804 75.842 271.022 75.958 271.222 76.126C271.426 76.29 271.592 76.52 271.72 76.816C271.848 77.108 271.912 77.484 271.912 77.944V82H270.796V78.052C270.796 77.676 270.736 77.386 270.616 77.182C270.496 76.974 270.338 76.828 270.142 76.744C269.95 76.66 269.744 76.618 269.524 76.618C269.332 76.618 269.128 76.656 268.912 76.732C268.696 76.808 268.512 76.936 268.36 77.116C268.208 77.296 268.132 77.542 268.132 77.854V82H267.028V77.728C267.028 77.484 266.962 77.28 266.83 77.116C266.702 76.952 266.54 76.828 266.344 76.744C266.152 76.66 265.96 76.618 265.768 76.618C265.556 76.618 265.342 76.66 265.126 76.744C264.914 76.828 264.734 76.962 264.586 77.146C264.442 77.326 264.37 77.562 264.37 77.854V82H263.266ZM274.866 80.602V82H273.546V80.602H274.866ZM274.872 73.324L274.584 79.798H273.84L273.546 73.324H274.872Z" fill="#213360"/>
<defs>
<filter id="filter0_dd_4_1772" x="0" y="0" width="344" height="124" filterUnits="userSpaceOnUse" color-interpolation-filters="sRGB">
<feFlood flood-opacity="0" result="BackgroundImageFix"/>
<feColorMatrix in="SourceAlpha" type="matrix" values="0 0 0 0 0 0 0 0 0 0 0 0 0 0 0 0 0 0 127 0" result="hardAlpha"/>
<feMorphology radius="2" operator="dilate" in="SourceAlpha" result="effect1_dropShadow_4_1772"/>
<feOffset dy="4"/>
<feGaussianBlur stdDeviation="4"/>
<feComposite in2="hardAlpha" operator="out"/>
<feColorMatrix type="matrix" values="0 0 0 0 0 0 0 0 0 0.607843 0 0 0 0 0.564706 0 0 0 0.08 0"/>
<feBlend mode="normal" in2="BackgroundImageFix" result="effect1_dropShadow_4_1772"/>
<feColorMatrix in="SourceAlpha" type="matrix" values="0 0 0 0 0 0 0 0 0 0 0 0 0 0 0 0 0 0 127 0" result="hardAlpha"/>
<feMorphology radius="2" operator="dilate" in="SourceAlpha" result="effect2_dropShadow_4_1772"/>
<feOffset dy="1"/>
<feGaussianBlur stdDeviation="1"/>
<feComposite in2="hardAlpha" operator="out"/>
<feColorMatrix type="matrix" values="0 0 0 0 0.129412 0 0 0 0 0.2 0 0 0 0 0.376471 0 0 0 0.02 0"/>
<feBlend mode="normal" in2="effect1_dropShadow_4_1772" result="effect2_dropShadow_4_1772"/>
<feBlend mode="normal" in="SourceGraphic" in2="effect2_dropShadow_4_1772" result="shape"/>
</filter>
<clipPath id="clip0_4_1772">
<rect width="59" height="32" fill="white" transform="translate(27 42)"/>
</clipPath>
</defs>
</svg>
