<svg width="344" height="124" viewBox="0 0 344 124" fill="none" xmlns="http://www.w3.org/2000/svg">
<g filter="url(#filter0_dd_4_1679)">
<rect x="10" y="6" width="324" height="104" rx="8" fill="#F6FAFB"/>
</g>
<path d="M59.5603 34.6893C59.5603 35.7723 58.645 36.646 57.5103 36.646H56.4805C55.3458 36.646 54.4304 35.7723 54.4304 34.6893L53.4102 31.0762C53.4102 29.9931 54.3255 29.1194 55.4602 29.1194H58.5305C59.6652 29.1194 60.5806 29.9931 60.5806 31.0762L59.5603 34.6893Z" fill="#233862"/>
<path d="M77 83.4528C77 84.3083 76.2753 85 75.379 85H38.621C37.7247 85 37 84.3083 37 83.4528V35.8178C37 34.9623 37.7247 34.2706 38.621 34.2706H75.3695C76.2658 34.2706 76.9905 34.9623 76.9905 35.8178V83.4528H77Z" fill="#F99746"/>
<path d="M73.6053 81.0957C73.6053 82.0058 72.8329 82.743 71.8794 82.743H42.1106C41.1571 82.743 40.3848 82.0058 40.3848 81.0957V38.1659C40.3848 37.2558 41.1571 36.5186 42.1106 36.5186H71.8794C72.8329 36.5186 73.6053 37.2558 73.6053 38.1659V81.0957Z" fill="white"/>
<path d="M64.4134 37.4651C64.4134 38.2205 63.7745 38.8303 62.9831 38.8303H51.0069C50.2155 38.8303 49.5767 38.2205 49.5767 37.4651V34.4162C49.5767 33.6609 50.2155 33.0511 51.0069 33.0511H62.9831C63.7745 33.0511 64.4134 33.6609 64.4134 34.4162V37.4651Z" fill="#233862"/>
<path d="M69.9347 41.9701H56.5474V42.7262H69.9347V41.9701Z" fill="#BDC3C7"/>
<path d="M69.9347 43.8723H56.5474V44.6283H69.9347V43.8723Z" fill="#BDC3C7"/>
<path d="M64.7951 50.061H42.8643V50.817H64.7951V50.061Z" fill="#BDC3C7"/>
<path d="M64.7951 51.9631H42.8643V52.7192H64.7951V51.9631Z" fill="#BDC3C7"/>
<path d="M64.7951 57.6422H42.8643V58.3983H64.7951V57.6422Z" fill="#BDC3C7"/>
<path d="M64.7951 59.5352H42.8643V60.2913H64.7951V59.5352Z" fill="#BDC3C7"/>
<path d="M64.7951 64.9776H42.8643V65.7337H64.7951V64.9776Z" fill="#BDC3C7"/>
<path d="M64.7951 66.8707H42.8643V67.6267H64.7951V66.8707Z" fill="#BDC3C7"/>
<path d="M64.7951 72.5224H42.8643V73.2785H64.7951V72.5224Z" fill="#BDC3C7"/>
<path d="M64.7951 74.4154H42.8643V75.1715H64.7951V74.4154Z" fill="#BDC3C7"/>
<path d="M51.8748 41.7972H50.1966V40.1954C50.1966 39.9588 49.9963 39.7677 49.7484 39.7677H48.1275C47.8795 39.7677 47.6793 39.9588 47.6793 40.1954V41.7972H46.0107C45.7627 41.7972 45.5625 41.9883 45.5625 42.225V43.763C45.5625 43.9997 45.7627 44.1908 46.0107 44.1908H47.6888V45.7835C47.6888 46.0201 47.8891 46.2112 48.137 46.2112H49.758C50.0059 46.2112 50.2061 46.0201 50.2061 45.7835V44.1999H51.8843C52.1322 44.1999 52.3325 44.0088 52.3325 43.7721V42.2341C52.3229 41.9883 52.1227 41.7972 51.8748 41.7972Z" fill="#2B478B"/>
<path d="M70.2016 52.0632C70.2016 52.1633 70.1158 52.2452 70.0204 52.2452H66.7117C66.6068 52.2452 66.521 52.1633 66.521 52.0632V48.987C66.521 48.8869 66.6068 48.805 66.7117 48.805H70.0204C70.1253 48.805 70.2016 48.8869 70.2016 48.987V52.0632Z" fill="#95A5A6"/>
<path d="M70.2016 57.1234C70.2016 57.2235 70.1158 57.3054 70.0204 57.3054H66.7117C66.6068 57.3054 66.521 57.2235 66.521 57.1234V54.0473C66.521 53.9471 66.6068 53.8652 66.7117 53.8652H70.0204C70.1253 53.8652 70.2016 53.9471 70.2016 54.0473V57.1234Z" fill="#95A5A6"/>
<path d="M70.2016 62.1745C70.2016 62.2746 70.1158 62.3565 70.0204 62.3565H66.7117C66.6068 62.3565 66.521 62.2746 66.521 62.1745V59.0983C66.521 58.9982 66.6068 58.9163 66.7117 58.9163H70.0204C70.1253 58.9163 70.2016 58.9982 70.2016 59.0983V62.1745Z" fill="#95A5A6"/>
<path d="M70.2016 67.2347C70.2016 67.3348 70.1158 67.4167 70.0204 67.4167H66.7117C66.6068 67.4167 66.521 67.3348 66.521 67.2347V64.1585C66.521 64.0584 66.6068 63.9765 66.7117 63.9765H70.0204C70.1253 63.9765 70.2016 64.0584 70.2016 64.1585V67.2347Z" fill="#95A5A6"/>
<path d="M70.2016 72.2858C70.2016 72.3859 70.1158 72.4678 70.0204 72.4678H66.7117C66.6068 72.4678 66.521 72.3859 66.521 72.2858V69.2096C66.521 69.1095 66.6068 69.0276 66.7117 69.0276H70.0204C70.1253 69.0276 70.2016 69.1095 70.2016 69.2096V72.2858Z" fill="#95A5A6"/>
<path d="M70.2016 77.346C70.2016 77.4461 70.1158 77.528 70.0204 77.528H66.7117C66.6068 77.528 66.521 77.4461 66.521 77.346V74.2698C66.521 74.1697 66.6068 74.0878 66.7117 74.0878H70.0204C70.1253 74.0878 70.2016 74.1697 70.2016 74.2698V77.346Z" fill="#95A5A6"/>
<path d="M71.4986 39.6767C71.4509 39.6767 71.4032 39.6676 71.3555 39.6585C71.2793 39.6312 69.3818 39.0032 69.296 36.7097C69.2673 36.0909 69.5629 35.3082 69.8776 34.48C70.2495 33.497 70.669 32.3867 70.5165 31.5858C70.2971 30.4027 69.4581 30.3481 69.3627 30.3481C69.1148 30.339 68.9146 30.1479 68.9146 29.9112C68.9146 29.6746 69.1148 29.4835 69.3627 29.4835C69.9443 29.4835 71.1172 29.893 71.4128 31.4402C71.6035 32.4595 71.1458 33.6973 70.7358 34.7803C70.4592 35.5266 70.1827 36.2365 70.2018 36.6915C70.2685 38.3843 71.6225 38.8394 71.6416 38.8394C71.88 38.9122 72.0135 39.1579 71.9277 39.3854C71.8705 39.5675 71.6893 39.6767 71.4986 39.6767Z" fill="#2B478B"/>
<path d="M68.7621 29.9749C68.7621 30.3936 68.4093 30.7394 67.9611 30.7394C67.5225 30.7394 67.1602 30.3936 67.1602 29.9749V28.7645C67.1602 28.3458 67.5225 28 67.9611 28C68.3997 28 68.7621 28.3367 68.7621 28.7645V29.9749Z" fill="#2B478B"/>
<path d="M68.3521 60.1632C68.3521 60.3452 68.1995 60.4908 68.0088 60.4908C67.8181 60.4908 67.6655 60.3452 67.6655 60.1632V57.9789C67.6655 57.7969 67.8181 57.6513 68.0088 57.6513C68.1995 57.6513 68.3521 57.7969 68.3521 57.9789V60.1632Z" fill="#152D3D"/>
<path d="M69.3721 56.8959C69.3721 57.3783 68.9621 59.0711 68.4567 59.0711H67.5414C67.036 59.0711 66.626 57.3783 66.626 56.8959V40.423C66.626 39.9406 67.036 39.5493 67.5414 39.5493H68.4663C68.9716 39.5493 69.3816 39.9406 69.3816 40.423V56.8959H69.3721Z" fill="#EE5463"/>
<path d="M69.3721 46.6026C69.3721 47.0849 68.9621 47.4672 68.4567 47.4672H67.5414C67.036 47.4672 66.626 47.0758 66.626 46.6026V30.1297C66.626 29.6473 67.036 29.256 67.5414 29.256H68.4663C68.9716 29.256 69.3816 29.6473 69.3816 30.1297V46.6026H69.3721Z" fill="#EE5463"/>
<path d="M69.3723 46.6026H66.6357V47.6771H69.3723V46.6026Z" fill="#2B478B"/>
<path d="M103.134 34.878C103.185 34.878 103.328 34.878 103.561 34.878C103.799 34.878 104.077 34.878 104.394 34.878C104.716 34.878 105.036 34.8803 105.353 34.885C105.675 34.885 105.943 34.8873 106.158 34.892C107.385 34.92 108.386 35.1393 109.161 35.55C109.936 35.9607 110.503 36.5347 110.862 37.272C111.226 38.0093 111.408 38.882 111.408 39.89C111.408 40.94 111.217 41.8477 110.834 42.613C110.451 43.3737 109.866 43.9617 109.077 44.377C108.293 44.7923 107.297 45 106.088 45H103.134V34.878ZM105.192 36.53V43.348H106.13C106.709 43.348 107.234 43.236 107.705 43.012C108.181 42.788 108.561 42.4217 108.846 41.913C109.131 41.4043 109.273 40.7253 109.273 39.876C109.273 39.0873 109.147 38.448 108.895 37.958C108.643 37.4633 108.284 37.1017 107.817 36.873C107.35 36.6443 106.797 36.53 106.158 36.53H105.192ZM115.009 37.762V45H113.056V37.762H115.009ZM115.03 34.885V36.726H113.042V34.885H115.03ZM119.129 44.951C119.129 45.7397 118.938 46.3323 118.555 46.729C118.173 47.1257 117.552 47.324 116.693 47.324C116.315 47.324 116.068 47.289 115.951 47.219C115.83 47.1537 115.769 47.121 115.769 47.121L115.762 45.756L116.322 45.7C116.612 45.6627 116.812 45.5833 116.924 45.462C117.036 45.3407 117.092 45.1633 117.092 44.93V37.762H119.129V44.951ZM119.15 34.885V36.726H117.064V34.885H119.15ZM122.995 45.14C122.533 45.14 122.117 45.0537 121.749 44.881C121.38 44.7083 121.088 44.4587 120.874 44.132C120.659 43.8007 120.552 43.3993 120.552 42.928C120.552 42.1347 120.848 41.5327 121.441 41.122C122.033 40.7067 122.969 40.492 124.248 40.478L125.151 40.464V40.03C125.151 39.6987 125.053 39.4443 124.857 39.267C124.665 39.085 124.367 38.9963 123.961 39.001C123.662 39.0057 123.377 39.0757 123.107 39.211C122.841 39.3463 122.659 39.582 122.561 39.918H120.86C120.888 39.3953 121.039 38.966 121.315 38.63C121.59 38.2893 121.963 38.0373 122.435 37.874C122.911 37.706 123.45 37.622 124.052 37.622C124.794 37.622 125.389 37.7153 125.837 37.902C126.285 38.084 126.609 38.3477 126.81 38.693C127.01 39.0337 127.111 39.4397 127.111 39.911V45H125.403L125.235 43.754C124.987 44.2767 124.677 44.6383 124.304 44.839C123.935 45.0397 123.499 45.14 122.995 45.14ZM123.681 43.796C123.867 43.796 124.047 43.7633 124.22 43.698C124.397 43.628 124.553 43.537 124.689 43.425C124.829 43.3083 124.941 43.1777 125.025 43.033C125.109 42.8883 125.151 42.739 125.151 42.585V41.514L124.416 41.528C124.075 41.5327 123.758 41.5747 123.464 41.654C123.17 41.7287 122.932 41.8523 122.75 42.025C122.572 42.1977 122.484 42.431 122.484 42.725C122.484 43.061 122.6 43.3247 122.834 43.516C123.067 43.7027 123.349 43.796 123.681 43.796ZM128.92 45V37.762H130.922V38.784C131.141 38.4667 131.435 38.1937 131.804 37.965C132.177 37.7363 132.646 37.622 133.211 37.622C133.458 37.622 133.71 37.6663 133.967 37.755C134.224 37.8437 134.464 37.9743 134.688 38.147C134.917 38.315 135.101 38.5273 135.241 38.784C135.474 38.4527 135.78 38.1773 136.158 37.958C136.541 37.734 136.965 37.622 137.432 37.622C137.703 37.622 137.976 37.6663 138.251 37.755C138.531 37.8437 138.788 37.9883 139.021 38.189C139.254 38.3897 139.441 38.658 139.581 38.994C139.726 39.3253 139.798 39.736 139.798 40.226V45H137.754V40.478C137.754 40.1887 137.696 39.9577 137.579 39.785C137.467 39.6077 137.322 39.4817 137.145 39.407C136.972 39.3277 136.788 39.288 136.592 39.288C136.41 39.288 136.226 39.3253 136.039 39.4C135.852 39.47 135.694 39.5843 135.563 39.743C135.432 39.9017 135.367 40.1093 135.367 40.366V45H133.33V40.296C133.33 40.0767 133.272 39.8923 133.155 39.743C133.038 39.5937 132.891 39.4817 132.714 39.407C132.541 39.3277 132.364 39.288 132.182 39.288C131.995 39.288 131.809 39.3277 131.622 39.407C131.435 39.4817 131.279 39.6007 131.153 39.764C131.027 39.9227 130.964 40.1233 130.964 40.366V45H128.92ZM143.515 37.762V45H141.562V37.762H143.515ZM143.536 34.885V36.726H141.548V34.885H143.536ZM145.408 45V37.762H147.417V38.784C147.529 38.6067 147.674 38.4363 147.851 38.273C148.033 38.105 148.262 37.9673 148.537 37.86C148.813 37.7527 149.139 37.699 149.517 37.699C149.961 37.699 150.374 37.7853 150.756 37.958C151.144 38.1307 151.456 38.4037 151.694 38.777C151.932 39.1457 152.051 39.6287 152.051 40.226V45H150.007V40.478C150.007 40.086 149.891 39.792 149.657 39.596C149.424 39.4 149.139 39.302 148.803 39.302C148.579 39.302 148.362 39.3417 148.152 39.421C147.947 39.5003 147.779 39.6193 147.648 39.778C147.518 39.9367 147.452 40.1327 147.452 40.366V45H145.408ZM163.401 40.653H158.97V45H156.933V34.878H158.97V38.938H163.401V34.878H165.445V45H163.401V40.653ZM168.936 41.85C168.931 42.2187 168.99 42.5407 169.111 42.816C169.232 43.0867 169.407 43.2967 169.636 43.446C169.869 43.5907 170.149 43.663 170.476 43.663C170.826 43.663 171.132 43.5883 171.393 43.439C171.659 43.2897 171.843 43.0447 171.946 42.704H173.787C173.708 43.2173 173.502 43.656 173.171 44.02C172.844 44.384 172.448 44.6617 171.981 44.853C171.514 45.0443 171.029 45.14 170.525 45.14C169.811 45.14 169.181 44.9907 168.635 44.692C168.094 44.3887 167.671 43.9617 167.368 43.411C167.065 42.8603 166.913 42.2117 166.913 41.465C166.913 40.7417 167.051 40.0907 167.326 39.512C167.601 38.9287 168 38.469 168.523 38.133C169.05 37.7923 169.683 37.622 170.42 37.622C171.157 37.622 171.776 37.7783 172.275 38.091C172.779 38.399 173.157 38.8307 173.409 39.386C173.666 39.9367 173.794 40.5737 173.794 41.297V41.85H168.936ZM168.929 40.632H171.883C171.883 40.3427 171.829 40.0767 171.722 39.834C171.615 39.5913 171.451 39.4 171.232 39.26C171.017 39.12 170.747 39.05 170.42 39.05C170.103 39.05 169.832 39.127 169.608 39.281C169.389 39.4303 169.221 39.6263 169.104 39.869C168.987 40.1117 168.929 40.366 168.929 40.632ZM175.213 45V37.762H177.215V38.784C177.434 38.4667 177.728 38.1937 178.097 37.965C178.47 37.7363 178.939 37.622 179.504 37.622C179.751 37.622 180.003 37.6663 180.26 37.755C180.517 37.8437 180.757 37.9743 180.981 38.147C181.21 38.315 181.394 38.5273 181.534 38.784C181.767 38.4527 182.073 38.1773 182.451 37.958C182.834 37.734 183.258 37.622 183.725 37.622C183.996 37.622 184.269 37.6663 184.544 37.755C184.824 37.8437 185.081 37.9883 185.314 38.189C185.547 38.3897 185.734 38.658 185.874 38.994C186.019 39.3253 186.091 39.736 186.091 40.226V45H184.047V40.478C184.047 40.1887 183.989 39.9577 183.872 39.785C183.76 39.6077 183.615 39.4817 183.438 39.407C183.265 39.3277 183.081 39.288 182.885 39.288C182.703 39.288 182.519 39.3253 182.332 39.4C182.145 39.47 181.987 39.5843 181.856 39.743C181.725 39.9017 181.66 40.1093 181.66 40.366V45H179.623V40.296C179.623 40.0767 179.565 39.8923 179.448 39.743C179.331 39.5937 179.184 39.4817 179.007 39.407C178.834 39.3277 178.657 39.288 178.475 39.288C178.288 39.288 178.102 39.3277 177.915 39.407C177.728 39.4817 177.572 39.6007 177.446 39.764C177.32 39.9227 177.257 40.1233 177.257 40.366V45H175.213ZM189.795 45.14C189.333 45.14 188.918 45.0537 188.549 44.881C188.181 44.7083 187.889 44.4587 187.674 44.132C187.46 43.8007 187.352 43.3993 187.352 42.928C187.352 42.1347 187.649 41.5327 188.241 41.122C188.834 40.7067 189.77 40.492 191.048 40.478L191.951 40.464V40.03C191.951 39.6987 191.853 39.4443 191.657 39.267C191.466 39.085 191.167 38.9963 190.761 39.001C190.463 39.0057 190.178 39.0757 189.907 39.211C189.641 39.3463 189.459 39.582 189.361 39.918H187.66C187.688 39.3953 187.84 38.966 188.115 38.63C188.391 38.2893 188.764 38.0373 189.235 37.874C189.711 37.706 190.25 37.622 190.852 37.622C191.594 37.622 192.189 37.7153 192.637 37.902C193.085 38.084 193.41 38.3477 193.61 38.693C193.811 39.0337 193.911 39.4397 193.911 39.911V45H192.203L192.035 43.754C191.788 44.2767 191.478 44.6383 191.104 44.839C190.736 45.0397 190.299 45.14 189.795 45.14ZM190.481 43.796C190.668 43.796 190.848 43.7633 191.02 43.698C191.198 43.628 191.354 43.537 191.489 43.425C191.629 43.3083 191.741 43.1777 191.825 43.033C191.909 42.8883 191.951 42.739 191.951 42.585V41.514L191.216 41.528C190.876 41.5327 190.558 41.5747 190.264 41.654C189.97 41.7287 189.732 41.8523 189.55 42.025C189.373 42.1977 189.284 42.431 189.284 42.725C189.284 43.061 189.401 43.3247 189.634 43.516C189.868 43.7027 190.15 43.796 190.481 43.796ZM199.816 39.183H198.206L198.22 43.04C198.22 43.2173 198.241 43.3503 198.283 43.439C198.33 43.523 198.4 43.579 198.493 43.607C198.591 43.6303 198.715 43.642 198.864 43.642H199.837V44.902C199.744 44.944 199.597 44.9837 199.396 45.021C199.2 45.0583 198.925 45.077 198.57 45.077C197.936 45.077 197.443 44.9953 197.093 44.832C196.748 44.6687 196.508 44.44 196.372 44.146C196.237 43.852 196.169 43.5113 196.169 43.124V39.183H194.993V37.762H196.239L196.75 35.578H198.206V37.755H199.816V39.183Z" fill="#213360"/>
<path d="M109.764 66H108.51L105.804 61.542L104.298 63.264V66H103.146V57.324H104.298V61.812L108.186 57.324H109.512L106.614 60.732L109.764 66ZM112.708 66.12C112.308 66.12 111.954 66.05 111.646 65.91C111.338 65.766 111.096 65.56 110.92 65.292C110.748 65.024 110.662 64.7 110.662 64.32C110.662 63.632 110.902 63.12 111.382 62.784C111.862 62.448 112.632 62.268 113.692 62.244L114.802 62.214V61.728C114.802 61.348 114.688 61.048 114.46 60.828C114.232 60.604 113.878 60.492 113.398 60.492C113.042 60.496 112.728 60.58 112.456 60.744C112.188 60.908 112.014 61.176 111.934 61.548H110.956C110.98 61.144 111.094 60.804 111.298 60.528C111.502 60.248 111.786 60.036 112.15 59.892C112.518 59.748 112.952 59.676 113.452 59.676C113.992 59.676 114.44 59.752 114.796 59.904C115.156 60.056 115.424 60.28 115.6 60.576C115.78 60.872 115.87 61.236 115.87 61.668V66H114.922L114.844 64.836C114.604 65.32 114.298 65.656 113.926 65.844C113.558 66.028 113.152 66.12 112.708 66.12ZM113.044 65.322C113.252 65.322 113.458 65.284 113.662 65.208C113.87 65.132 114.06 65.03 114.232 64.902C114.404 64.77 114.54 64.624 114.64 64.464C114.744 64.3 114.798 64.132 114.802 63.96V62.898L113.878 62.916C113.406 62.924 113.01 62.972 112.69 63.06C112.374 63.148 112.136 63.286 111.976 63.474C111.82 63.662 111.742 63.908 111.742 64.212C111.742 64.56 111.862 64.832 112.102 65.028C112.346 65.224 112.66 65.322 113.044 65.322ZM117.766 66V59.796H118.834V60.696C119.006 60.424 119.242 60.186 119.542 59.982C119.842 59.778 120.232 59.676 120.712 59.676C120.936 59.676 121.164 59.714 121.396 59.79C121.632 59.866 121.848 59.98 122.044 60.132C122.24 60.284 122.392 60.47 122.5 60.69C122.692 60.386 122.952 60.142 123.28 59.958C123.608 59.77 123.978 59.676 124.39 59.676C124.606 59.676 124.832 59.71 125.068 59.778C125.304 59.842 125.522 59.958 125.722 60.126C125.926 60.29 126.092 60.52 126.22 60.816C126.348 61.108 126.412 61.484 126.412 61.944V66H125.296V62.052C125.296 61.676 125.236 61.386 125.116 61.182C124.996 60.974 124.838 60.828 124.642 60.744C124.45 60.66 124.244 60.618 124.024 60.618C123.832 60.618 123.628 60.656 123.412 60.732C123.196 60.808 123.012 60.936 122.86 61.116C122.708 61.296 122.632 61.542 122.632 61.854V66H121.528V61.728C121.528 61.484 121.462 61.28 121.33 61.116C121.202 60.952 121.04 60.828 120.844 60.744C120.652 60.66 120.46 60.618 120.268 60.618C120.056 60.618 119.842 60.66 119.626 60.744C119.414 60.828 119.234 60.962 119.086 61.146C118.942 61.326 118.87 61.562 118.87 61.854V66H117.766ZM129.348 59.796V66H128.274V59.796H129.348ZM129.372 57.33V58.482H128.238V57.33H129.372ZM134.066 66V59.796H135.134V60.696C135.306 60.424 135.542 60.186 135.842 59.982C136.142 59.778 136.532 59.676 137.012 59.676C137.236 59.676 137.464 59.714 137.696 59.79C137.932 59.866 138.148 59.98 138.344 60.132C138.54 60.284 138.692 60.47 138.8 60.69C138.992 60.386 139.252 60.142 139.58 59.958C139.908 59.77 140.278 59.676 140.69 59.676C140.906 59.676 141.132 59.71 141.368 59.778C141.604 59.842 141.822 59.958 142.022 60.126C142.226 60.29 142.392 60.52 142.52 60.816C142.648 61.108 142.712 61.484 142.712 61.944V66H141.596V62.052C141.596 61.676 141.536 61.386 141.416 61.182C141.296 60.974 141.138 60.828 140.942 60.744C140.75 60.66 140.544 60.618 140.324 60.618C140.132 60.618 139.928 60.656 139.712 60.732C139.496 60.808 139.312 60.936 139.16 61.116C139.008 61.296 138.932 61.542 138.932 61.854V66H137.828V61.728C137.828 61.484 137.762 61.28 137.63 61.116C137.502 60.952 137.34 60.828 137.144 60.744C136.952 60.66 136.76 60.618 136.568 60.618C136.356 60.618 136.142 60.66 135.926 60.744C135.714 60.828 135.534 60.962 135.386 61.146C135.242 61.326 135.17 61.562 135.17 61.854V66H134.066ZM145.241 63.156C145.241 63.548 145.305 63.904 145.433 64.224C145.565 64.54 145.763 64.792 146.027 64.98C146.295 65.168 146.629 65.262 147.029 65.262C147.425 65.262 147.765 65.17 148.049 64.986C148.337 64.802 148.521 64.536 148.601 64.188H149.651C149.575 64.608 149.407 64.962 149.147 65.25C148.887 65.538 148.573 65.756 148.205 65.904C147.837 66.048 147.453 66.12 147.053 66.12C146.473 66.12 145.963 65.994 145.523 65.742C145.083 65.49 144.739 65.128 144.491 64.656C144.243 64.184 144.119 63.618 144.119 62.958C144.119 62.306 144.231 61.734 144.455 61.242C144.679 60.75 145.003 60.366 145.427 60.09C145.855 59.814 146.369 59.676 146.969 59.676C147.553 59.676 148.047 59.802 148.451 60.054C148.855 60.306 149.161 60.662 149.369 61.122C149.581 61.578 149.687 62.12 149.687 62.748V63.156H145.241ZM145.247 62.406H148.619C148.619 62.05 148.559 61.73 148.439 61.446C148.319 61.158 148.135 60.932 147.887 60.768C147.643 60.6 147.335 60.516 146.963 60.516C146.575 60.516 146.253 60.61 145.997 60.798C145.745 60.982 145.555 61.22 145.427 61.512C145.303 61.8 145.243 62.098 145.247 62.406ZM151.211 66V59.796H152.285V60.696C152.385 60.524 152.523 60.362 152.699 60.21C152.879 60.058 153.095 59.936 153.347 59.844C153.603 59.752 153.897 59.706 154.229 59.706C154.621 59.706 154.981 59.784 155.309 59.94C155.641 60.096 155.905 60.34 156.101 60.672C156.301 61 156.401 61.424 156.401 61.944V66H155.291V62.052C155.291 61.568 155.163 61.21 154.907 60.978C154.655 60.742 154.327 60.624 153.923 60.624C153.643 60.624 153.381 60.67 153.137 60.762C152.893 60.85 152.695 60.986 152.543 61.17C152.391 61.35 152.315 61.578 152.315 61.854V66H151.211ZM159.421 66.276C159.421 66.856 159.295 67.286 159.043 67.566C158.795 67.85 158.355 67.992 157.723 67.992C157.383 67.992 157.169 67.968 157.081 67.92C156.989 67.872 156.943 67.848 156.943 67.848V67.11L157.555 67.08C157.835 67.06 158.031 66.986 158.143 66.858C158.255 66.73 158.311 66.524 158.311 66.24V59.796H159.421V66.276ZM159.451 57.33V58.482H158.275V57.33H159.451ZM163.005 66.12C162.605 66.12 162.251 66.05 161.943 65.91C161.635 65.766 161.393 65.56 161.217 65.292C161.045 65.024 160.959 64.7 160.959 64.32C160.959 63.632 161.199 63.12 161.679 62.784C162.159 62.448 162.929 62.268 163.989 62.244L165.099 62.214V61.728C165.099 61.348 164.985 61.048 164.757 60.828C164.529 60.604 164.175 60.492 163.695 60.492C163.339 60.496 163.025 60.58 162.753 60.744C162.485 60.908 162.311 61.176 162.231 61.548H161.253C161.277 61.144 161.391 60.804 161.595 60.528C161.799 60.248 162.083 60.036 162.447 59.892C162.815 59.748 163.249 59.676 163.749 59.676C164.289 59.676 164.737 59.752 165.093 59.904C165.453 60.056 165.721 60.28 165.897 60.576C166.077 60.872 166.167 61.236 166.167 61.668V66H165.219L165.141 64.836C164.901 65.32 164.595 65.656 164.223 65.844C163.855 66.028 163.449 66.12 163.005 66.12ZM163.341 65.322C163.549 65.322 163.755 65.284 163.959 65.208C164.167 65.132 164.357 65.03 164.529 64.902C164.701 64.77 164.837 64.624 164.937 64.464C165.041 64.3 165.095 64.132 165.099 63.96V62.898L164.175 62.916C163.703 62.924 163.307 62.972 162.987 63.06C162.671 63.148 162.433 63.286 162.273 63.474C162.117 63.662 162.039 63.908 162.039 64.212C162.039 64.56 162.159 64.832 162.399 65.028C162.643 65.224 162.957 65.322 163.341 65.322ZM168.063 66V59.796H169.131V60.696C169.303 60.424 169.539 60.186 169.839 59.982C170.139 59.778 170.529 59.676 171.009 59.676C171.233 59.676 171.461 59.714 171.693 59.79C171.929 59.866 172.145 59.98 172.341 60.132C172.537 60.284 172.689 60.47 172.797 60.69C172.989 60.386 173.249 60.142 173.577 59.958C173.905 59.77 174.275 59.676 174.687 59.676C174.903 59.676 175.129 59.71 175.365 59.778C175.601 59.842 175.819 59.958 176.019 60.126C176.223 60.29 176.389 60.52 176.517 60.816C176.645 61.108 176.709 61.484 176.709 61.944V66H175.593V62.052C175.593 61.676 175.533 61.386 175.413 61.182C175.293 60.974 175.135 60.828 174.939 60.744C174.747 60.66 174.541 60.618 174.321 60.618C174.129 60.618 173.925 60.656 173.709 60.732C173.493 60.808 173.309 60.936 173.157 61.116C173.005 61.296 172.929 61.542 172.929 61.854V66H171.825V61.728C171.825 61.484 171.759 61.28 171.627 61.116C171.499 60.952 171.337 60.828 171.141 60.744C170.949 60.66 170.757 60.618 170.565 60.618C170.353 60.618 170.139 60.66 169.923 60.744C169.711 60.828 169.531 60.962 169.383 61.146C169.239 61.326 169.167 61.562 169.167 61.854V66H168.063ZM179.645 59.796V66H178.571V59.796H179.645ZM179.669 57.33V58.482H178.535V57.33H179.669ZM181.668 66V59.796H182.742V60.696C182.842 60.524 182.98 60.362 183.156 60.21C183.336 60.058 183.552 59.936 183.804 59.844C184.06 59.752 184.354 59.706 184.686 59.706C185.078 59.706 185.438 59.784 185.766 59.94C186.098 60.096 186.362 60.34 186.558 60.672C186.758 61 186.858 61.424 186.858 61.944V66H185.748V62.052C185.748 61.568 185.62 61.21 185.364 60.978C185.112 60.742 184.784 60.624 184.38 60.624C184.1 60.624 183.838 60.67 183.594 60.762C183.35 60.85 183.152 60.986 183 61.17C182.848 61.35 182.772 61.578 182.772 61.854V66H181.668ZM193.075 66.12C192.675 66.12 192.321 66.05 192.013 65.91C191.705 65.766 191.463 65.56 191.287 65.292C191.115 65.024 191.029 64.7 191.029 64.32C191.029 63.632 191.269 63.12 191.749 62.784C192.229 62.448 192.999 62.268 194.059 62.244L195.169 62.214V61.728C195.169 61.348 195.055 61.048 194.827 60.828C194.599 60.604 194.245 60.492 193.765 60.492C193.409 60.496 193.095 60.58 192.823 60.744C192.555 60.908 192.381 61.176 192.301 61.548H191.323C191.347 61.144 191.461 60.804 191.665 60.528C191.869 60.248 192.153 60.036 192.517 59.892C192.885 59.748 193.319 59.676 193.819 59.676C194.359 59.676 194.807 59.752 195.163 59.904C195.523 60.056 195.791 60.28 195.967 60.576C196.147 60.872 196.237 61.236 196.237 61.668V66H195.289L195.211 64.836C194.971 65.32 194.665 65.656 194.293 65.844C193.925 66.028 193.519 66.12 193.075 66.12ZM193.411 65.322C193.619 65.322 193.825 65.284 194.029 65.208C194.237 65.132 194.427 65.03 194.599 64.902C194.771 64.77 194.907 64.624 195.007 64.464C195.111 64.3 195.165 64.132 195.169 63.96V62.898L194.245 62.916C193.773 62.924 193.377 62.972 193.057 63.06C192.741 63.148 192.503 63.286 192.343 63.474C192.187 63.662 192.109 63.908 192.109 64.212C192.109 64.56 192.229 64.832 192.469 65.028C192.713 65.224 193.027 65.322 193.411 65.322ZM203.581 66H202.405L200.461 62.886L199.237 64.152V66H198.133V57.084H199.237V62.898L202.153 59.796H203.425L201.187 62.16L203.581 66ZM206.458 66.12C206.058 66.12 205.704 66.05 205.396 65.91C205.088 65.766 204.846 65.56 204.67 65.292C204.498 65.024 204.412 64.7 204.412 64.32C204.412 63.632 204.652 63.12 205.132 62.784C205.612 62.448 206.382 62.268 207.442 62.244L208.552 62.214V61.728C208.552 61.348 208.438 61.048 208.21 60.828C207.982 60.604 207.628 60.492 207.148 60.492C206.792 60.496 206.478 60.58 206.206 60.744C205.938 60.908 205.764 61.176 205.684 61.548H204.706C204.73 61.144 204.844 60.804 205.048 60.528C205.252 60.248 205.536 60.036 205.9 59.892C206.268 59.748 206.702 59.676 207.202 59.676C207.742 59.676 208.19 59.752 208.546 59.904C208.906 60.056 209.174 60.28 209.35 60.576C209.53 60.872 209.62 61.236 209.62 61.668V66H208.672L208.594 64.836C208.354 65.32 208.048 65.656 207.676 65.844C207.308 66.028 206.902 66.12 206.458 66.12ZM206.794 65.322C207.002 65.322 207.208 65.284 207.412 65.208C207.62 65.132 207.81 65.03 207.982 64.902C208.154 64.77 208.29 64.624 208.39 64.464C208.494 64.3 208.548 64.132 208.552 63.96V62.898L207.628 62.916C207.156 62.924 206.76 62.972 206.44 63.06C206.124 63.148 205.886 63.286 205.726 63.474C205.57 63.662 205.492 63.908 205.492 64.212C205.492 64.56 205.612 64.832 205.852 65.028C206.096 65.224 206.41 65.322 206.794 65.322ZM211.516 66V59.796H212.59V60.696C212.69 60.524 212.828 60.362 213.004 60.21C213.184 60.058 213.4 59.936 213.652 59.844C213.908 59.752 214.202 59.706 214.534 59.706C214.926 59.706 215.286 59.784 215.614 59.94C215.946 60.096 216.21 60.34 216.406 60.672C216.606 61 216.706 61.424 216.706 61.944V66H215.596V62.052C215.596 61.568 215.468 61.21 215.212 60.978C214.96 60.742 214.632 60.624 214.228 60.624C213.948 60.624 213.686 60.67 213.442 60.762C213.198 60.85 213 60.986 212.848 61.17C212.696 61.35 212.62 61.578 212.62 61.854V66H211.516ZM221.207 66V59.796H222.275V60.696C222.447 60.424 222.683 60.186 222.983 59.982C223.283 59.778 223.673 59.676 224.153 59.676C224.377 59.676 224.605 59.714 224.837 59.79C225.073 59.866 225.289 59.98 225.485 60.132C225.681 60.284 225.833 60.47 225.941 60.69C226.133 60.386 226.393 60.142 226.721 59.958C227.049 59.77 227.419 59.676 227.831 59.676C228.047 59.676 228.273 59.71 228.509 59.778C228.745 59.842 228.963 59.958 229.163 60.126C229.367 60.29 229.533 60.52 229.661 60.816C229.789 61.108 229.853 61.484 229.853 61.944V66H228.737V62.052C228.737 61.676 228.677 61.386 228.557 61.182C228.437 60.974 228.279 60.828 228.083 60.744C227.891 60.66 227.685 60.618 227.465 60.618C227.273 60.618 227.069 60.656 226.853 60.732C226.637 60.808 226.453 60.936 226.301 61.116C226.149 61.296 226.073 61.542 226.073 61.854V66H224.969V61.728C224.969 61.484 224.903 61.28 224.771 61.116C224.643 60.952 224.481 60.828 224.285 60.744C224.093 60.66 223.901 60.618 223.709 60.618C223.497 60.618 223.283 60.66 223.067 60.744C222.855 60.828 222.675 60.962 222.527 61.146C222.383 61.326 222.311 61.562 222.311 61.854V66H221.207ZM232.382 63.156C232.382 63.548 232.446 63.904 232.574 64.224C232.706 64.54 232.904 64.792 233.168 64.98C233.436 65.168 233.77 65.262 234.17 65.262C234.566 65.262 234.906 65.17 235.19 64.986C235.478 64.802 235.662 64.536 235.742 64.188H236.792C236.716 64.608 236.548 64.962 236.288 65.25C236.028 65.538 235.714 65.756 235.346 65.904C234.978 66.048 234.594 66.12 234.194 66.12C233.614 66.12 233.104 65.994 232.664 65.742C232.224 65.49 231.88 65.128 231.632 64.656C231.384 64.184 231.26 63.618 231.26 62.958C231.26 62.306 231.372 61.734 231.596 61.242C231.82 60.75 232.144 60.366 232.568 60.09C232.996 59.814 233.51 59.676 234.11 59.676C234.694 59.676 235.188 59.802 235.592 60.054C235.996 60.306 236.302 60.662 236.51 61.122C236.722 61.578 236.828 62.12 236.828 62.748V63.156H232.382ZM232.388 62.406H235.76C235.76 62.05 235.7 61.73 235.58 61.446C235.46 61.158 235.276 60.932 235.028 60.768C234.784 60.6 234.476 60.516 234.104 60.516C233.716 60.516 233.394 60.61 233.138 60.798C232.886 60.982 232.696 61.22 232.568 61.512C232.444 61.8 232.384 62.098 232.388 62.406ZM238.352 66V59.796H239.426V60.696C239.526 60.524 239.664 60.362 239.84 60.21C240.02 60.058 240.236 59.936 240.488 59.844C240.744 59.752 241.038 59.706 241.37 59.706C241.762 59.706 242.122 59.784 242.45 59.94C242.782 60.096 243.046 60.34 243.242 60.672C243.442 61 243.542 61.424 243.542 61.944V66H242.432V62.052C242.432 61.568 242.304 61.21 242.048 60.978C241.796 60.742 241.468 60.624 241.064 60.624C240.784 60.624 240.522 60.67 240.278 60.762C240.034 60.85 239.836 60.986 239.684 61.17C239.532 61.35 239.456 61.578 239.456 61.854V66H238.352ZM247.893 68.052C246.917 68.052 246.157 67.91 245.613 67.626C245.073 67.346 244.803 66.944 244.803 66.42C244.803 66.196 244.855 66.006 244.959 65.85C245.063 65.69 245.187 65.558 245.331 65.454C245.475 65.35 245.609 65.268 245.733 65.208C245.857 65.144 245.937 65.098 245.973 65.07C245.905 65.03 245.819 64.98 245.715 64.92C245.615 64.86 245.527 64.78 245.451 64.68C245.375 64.58 245.337 64.45 245.337 64.29C245.337 64.094 245.429 63.914 245.613 63.75C245.797 63.586 246.069 63.464 246.429 63.384C246.065 63.2 245.781 62.956 245.577 62.652C245.373 62.348 245.271 62.018 245.271 61.662C245.271 61.262 245.379 60.914 245.595 60.618C245.815 60.322 246.127 60.096 246.531 59.94C246.935 59.78 247.415 59.7 247.971 59.7C248.375 59.7 248.715 59.748 248.991 59.844C249.267 59.936 249.523 60.068 249.759 60.24C249.823 60.212 249.923 60.17 250.059 60.114C250.199 60.054 250.353 59.99 250.521 59.922C250.689 59.854 250.845 59.79 250.989 59.73C251.137 59.666 251.255 59.618 251.343 59.586L251.337 60.612L250.251 60.816C250.311 60.944 250.359 61.084 250.395 61.236C250.435 61.388 250.455 61.53 250.455 61.662C250.455 62.026 250.359 62.356 250.167 62.652C249.979 62.948 249.693 63.184 249.309 63.36C248.925 63.536 248.445 63.624 247.869 63.624C247.821 63.624 247.759 63.624 247.683 63.624C247.611 63.62 247.549 63.616 247.497 63.612C247.073 63.624 246.781 63.672 246.621 63.756C246.461 63.836 246.381 63.926 246.381 64.026C246.381 64.142 246.471 64.222 246.651 64.266C246.831 64.31 247.137 64.348 247.569 64.38C247.725 64.388 247.917 64.398 248.145 64.41C248.377 64.422 248.633 64.438 248.913 64.458C249.565 64.498 250.067 64.664 250.419 64.956C250.771 65.248 250.947 65.642 250.947 66.138C250.947 66.702 250.695 67.162 250.191 67.518C249.687 67.874 248.921 68.052 247.893 68.052ZM248.091 67.338C248.663 67.338 249.101 67.252 249.405 67.08C249.709 66.908 249.861 66.648 249.861 66.3C249.861 66.052 249.767 65.85 249.579 65.694C249.395 65.534 249.113 65.442 248.733 65.418L246.993 65.304C246.837 65.296 246.675 65.336 246.507 65.424C246.339 65.508 246.195 65.626 246.075 65.778C245.959 65.93 245.901 66.102 245.901 66.294C245.901 66.622 246.079 66.878 246.435 67.062C246.795 67.246 247.347 67.338 248.091 67.338ZM247.899 62.91C248.347 62.91 248.707 62.806 248.979 62.598C249.255 62.39 249.393 62.082 249.393 61.674C249.393 61.254 249.255 60.934 248.979 60.714C248.707 60.494 248.347 60.384 247.899 60.384C247.447 60.384 247.081 60.496 246.801 60.72C246.525 60.94 246.387 61.258 246.387 61.674C246.387 62.066 246.519 62.37 246.783 62.586C247.047 62.802 247.419 62.91 247.899 62.91ZM253.335 63.156C253.335 63.548 253.399 63.904 253.527 64.224C253.659 64.54 253.857 64.792 254.121 64.98C254.389 65.168 254.723 65.262 255.123 65.262C255.519 65.262 255.859 65.17 256.143 64.986C256.431 64.802 256.615 64.536 256.695 64.188H257.745C257.669 64.608 257.501 64.962 257.241 65.25C256.981 65.538 256.667 65.756 256.299 65.904C255.931 66.048 255.547 66.12 255.147 66.12C254.567 66.12 254.057 65.994 253.617 65.742C253.177 65.49 252.833 65.128 252.585 64.656C252.337 64.184 252.213 63.618 252.213 62.958C252.213 62.306 252.325 61.734 252.549 61.242C252.773 60.75 253.097 60.366 253.521 60.09C253.949 59.814 254.463 59.676 255.063 59.676C255.647 59.676 256.141 59.802 256.545 60.054C256.949 60.306 257.255 60.662 257.463 61.122C257.675 61.578 257.781 62.12 257.781 62.748V63.156H253.335ZM253.341 62.406H256.713C256.713 62.05 256.653 61.73 256.533 61.446C256.413 61.158 256.229 60.932 255.981 60.768C255.737 60.6 255.429 60.516 255.057 60.516C254.669 60.516 254.347 60.61 254.091 60.798C253.839 60.982 253.649 61.22 253.521 61.512C253.397 61.8 253.337 62.098 253.341 62.406ZM259.305 66V59.796H260.373V60.696C260.545 60.424 260.781 60.186 261.081 59.982C261.381 59.778 261.771 59.676 262.251 59.676C262.475 59.676 262.703 59.714 262.935 59.79C263.171 59.866 263.387 59.98 263.583 60.132C263.779 60.284 263.931 60.47 264.039 60.69C264.231 60.386 264.491 60.142 264.819 59.958C265.147 59.77 265.517 59.676 265.929 59.676C266.145 59.676 266.371 59.71 266.607 59.778C266.843 59.842 267.061 59.958 267.261 60.126C267.465 60.29 267.631 60.52 267.759 60.816C267.887 61.108 267.951 61.484 267.951 61.944V66H266.835V62.052C266.835 61.676 266.775 61.386 266.655 61.182C266.535 60.974 266.377 60.828 266.181 60.744C265.989 60.66 265.783 60.618 265.563 60.618C265.371 60.618 265.167 60.656 264.951 60.732C264.735 60.808 264.551 60.936 264.399 61.116C264.247 61.296 264.171 61.542 264.171 61.854V66H263.067V61.728C263.067 61.484 263.001 61.28 262.869 61.116C262.741 60.952 262.579 60.828 262.383 60.744C262.191 60.66 261.999 60.618 261.807 60.618C261.595 60.618 261.381 60.66 261.165 60.744C260.953 60.828 260.773 60.962 260.625 61.146C260.481 61.326 260.409 61.562 260.409 61.854V66H259.305ZM272.754 66.12C272.39 66.12 272.082 66.072 271.83 65.976C271.582 65.88 271.378 65.758 271.218 65.61C271.058 65.458 270.934 65.304 270.846 65.148C270.758 64.988 270.694 64.848 270.654 64.728L270.534 66H269.688V57.084H270.804V60.78C270.856 60.676 270.934 60.562 271.038 60.438C271.146 60.314 271.284 60.194 271.452 60.078C271.62 59.962 271.818 59.866 272.046 59.79C272.278 59.714 272.542 59.676 272.838 59.676C273.614 59.676 274.23 59.946 274.686 60.486C275.146 61.026 275.376 61.822 275.376 62.874C275.376 63.526 275.278 64.096 275.082 64.584C274.886 65.068 274.594 65.446 274.206 65.718C273.818 65.986 273.334 66.12 272.754 66.12ZM272.556 65.268C273.06 65.268 273.47 65.074 273.786 64.686C274.102 64.294 274.26 63.672 274.26 62.82C274.26 62.096 274.112 61.536 273.816 61.14C273.524 60.74 273.096 60.54 272.532 60.54C272.12 60.54 271.788 60.63 271.536 60.81C271.288 60.986 271.104 61.244 270.984 61.584C270.868 61.924 270.808 62.336 270.804 62.82C270.804 63.688 270.938 64.314 271.206 64.698C271.478 65.078 271.928 65.268 272.556 65.268ZM278.47 66.12C278.07 66.12 277.716 66.05 277.408 65.91C277.1 65.766 276.858 65.56 276.682 65.292C276.51 65.024 276.424 64.7 276.424 64.32C276.424 63.632 276.664 63.12 277.144 62.784C277.624 62.448 278.394 62.268 279.454 62.244L280.564 62.214V61.728C280.564 61.348 280.45 61.048 280.222 60.828C279.994 60.604 279.64 60.492 279.16 60.492C278.804 60.496 278.49 60.58 278.218 60.744C277.95 60.908 277.776 61.176 277.696 61.548H276.718C276.742 61.144 276.856 60.804 277.06 60.528C277.264 60.248 277.548 60.036 277.912 59.892C278.28 59.748 278.714 59.676 279.214 59.676C279.754 59.676 280.202 59.752 280.558 59.904C280.918 60.056 281.186 60.28 281.362 60.576C281.542 60.872 281.632 61.236 281.632 61.668V66H280.684L280.606 64.836C280.366 65.32 280.06 65.656 279.688 65.844C279.32 66.028 278.914 66.12 278.47 66.12ZM278.806 65.322C279.014 65.322 279.22 65.284 279.424 65.208C279.632 65.132 279.822 65.03 279.994 64.902C280.166 64.77 280.302 64.624 280.402 64.464C280.506 64.3 280.56 64.132 280.564 63.96V62.898L279.64 62.916C279.168 62.924 278.772 62.972 278.452 63.06C278.136 63.148 277.898 63.286 277.738 63.474C277.582 63.662 277.504 63.908 277.504 64.212C277.504 64.56 277.624 64.832 277.864 65.028C278.108 65.224 278.422 65.322 278.806 65.322ZM285.093 66.078C284.757 66.078 284.485 66.032 284.277 65.94C284.073 65.848 283.915 65.724 283.803 65.568C283.695 65.412 283.621 65.234 283.581 65.034C283.545 64.83 283.527 64.62 283.527 64.404V57.084H284.619V64.296C284.619 64.608 284.679 64.842 284.799 64.998C284.923 65.154 285.095 65.24 285.315 65.256L285.651 65.262V65.982C285.559 66.01 285.463 66.032 285.363 66.048C285.263 66.068 285.173 66.078 285.093 66.078ZM288.278 59.796V66H287.204V59.796H288.278ZM288.302 57.33V58.482H287.168V57.33H288.302ZM295.749 66H294.573L292.629 62.886L291.405 64.152V66H290.301V57.084H291.405V62.898L294.321 59.796H295.593L293.355 62.16L295.749 66ZM298.626 66.12C298.226 66.12 297.872 66.05 297.564 65.91C297.256 65.766 297.014 65.56 296.838 65.292C296.666 65.024 296.58 64.7 296.58 64.32C296.58 63.632 296.82 63.12 297.3 62.784C297.78 62.448 298.55 62.268 299.61 62.244L300.72 62.214V61.728C300.72 61.348 300.606 61.048 300.378 60.828C300.15 60.604 299.796 60.492 299.316 60.492C298.96 60.496 298.646 60.58 298.374 60.744C298.106 60.908 297.932 61.176 297.852 61.548H296.874C296.898 61.144 297.012 60.804 297.216 60.528C297.42 60.248 297.704 60.036 298.068 59.892C298.436 59.748 298.87 59.676 299.37 59.676C299.91 59.676 300.358 59.752 300.714 59.904C301.074 60.056 301.342 60.28 301.518 60.576C301.698 60.872 301.788 61.236 301.788 61.668V66H300.84L300.762 64.836C300.522 65.32 300.216 65.656 299.844 65.844C299.476 66.028 299.07 66.12 298.626 66.12ZM298.962 65.322C299.17 65.322 299.376 65.284 299.58 65.208C299.788 65.132 299.978 65.03 300.15 64.902C300.322 64.77 300.458 64.624 300.558 64.464C300.662 64.3 300.716 64.132 300.72 63.96V62.898L299.796 62.916C299.324 62.924 298.928 62.972 298.608 63.06C298.292 63.148 298.054 63.286 297.894 63.474C297.738 63.662 297.66 63.908 297.66 64.212C297.66 64.56 297.78 64.832 298.02 65.028C298.264 65.224 298.578 65.322 298.962 65.322ZM303.684 66V59.796H304.758V60.696C304.858 60.524 304.996 60.362 305.172 60.21C305.352 60.058 305.568 59.936 305.82 59.844C306.076 59.752 306.37 59.706 306.702 59.706C307.094 59.706 307.454 59.784 307.782 59.94C308.114 60.096 308.378 60.34 308.574 60.672C308.774 61 308.874 61.424 308.874 61.944V66H307.764V62.052C307.764 61.568 307.636 61.21 307.38 60.978C307.128 60.742 306.8 60.624 306.396 60.624C306.116 60.624 305.854 60.67 305.61 60.762C305.366 60.85 305.168 60.986 305.016 61.17C304.864 61.35 304.788 61.578 304.788 61.854V66H303.684ZM105.198 82.12C104.874 82.116 104.568 82.07 104.28 81.982C103.996 81.89 103.744 81.756 103.524 81.58C103.304 81.404 103.13 81.186 103.002 80.926C102.878 80.662 102.816 80.356 102.816 80.008V75.796H103.926V79.894C103.926 80.298 104.05 80.626 104.298 80.878C104.55 81.13 104.928 81.256 105.432 81.256C105.888 81.256 106.254 81.138 106.53 80.902C106.81 80.662 106.95 80.306 106.95 79.834V75.796H108.054V82H107.172L107.058 80.812C106.982 81.124 106.852 81.376 106.668 81.568C106.488 81.76 106.27 81.902 106.014 81.994C105.762 82.082 105.49 82.124 105.198 82.12ZM111.501 82.12C111.101 82.12 110.747 82.05 110.439 81.91C110.131 81.766 109.889 81.56 109.713 81.292C109.541 81.024 109.455 80.7 109.455 80.32C109.455 79.632 109.695 79.12 110.175 78.784C110.655 78.448 111.425 78.268 112.485 78.244L113.595 78.214V77.728C113.595 77.348 113.481 77.048 113.253 76.828C113.025 76.604 112.671 76.492 112.191 76.492C111.835 76.496 111.521 76.58 111.249 76.744C110.981 76.908 110.807 77.176 110.727 77.548H109.749C109.773 77.144 109.887 76.804 110.091 76.528C110.295 76.248 110.579 76.036 110.943 75.892C111.311 75.748 111.745 75.676 112.245 75.676C112.785 75.676 113.233 75.752 113.589 75.904C113.949 76.056 114.217 76.28 114.393 76.576C114.573 76.872 114.663 77.236 114.663 77.668V82H113.715L113.637 80.836C113.397 81.32 113.091 81.656 112.719 81.844C112.351 82.028 111.945 82.12 111.501 82.12ZM111.837 81.322C112.045 81.322 112.251 81.284 112.455 81.208C112.663 81.132 112.853 81.03 113.025 80.902C113.197 80.77 113.333 80.624 113.433 80.464C113.537 80.3 113.591 80.132 113.595 79.96V78.898L112.671 78.916C112.199 78.924 111.803 78.972 111.483 79.06C111.167 79.148 110.929 79.286 110.769 79.474C110.613 79.662 110.535 79.908 110.535 80.212C110.535 80.56 110.655 80.832 110.895 81.028C111.139 81.224 111.453 81.322 111.837 81.322ZM116.559 82V75.796H117.633V76.696C117.733 76.524 117.871 76.362 118.047 76.21C118.227 76.058 118.443 75.936 118.695 75.844C118.951 75.752 119.245 75.706 119.577 75.706C119.969 75.706 120.329 75.784 120.657 75.94C120.989 76.096 121.253 76.34 121.449 76.672C121.649 77 121.749 77.424 121.749 77.944V82H120.639V78.052C120.639 77.568 120.511 77.21 120.255 76.978C120.003 76.742 119.675 76.624 119.271 76.624C118.991 76.624 118.729 76.67 118.485 76.762C118.241 76.85 118.043 76.986 117.891 77.17C117.739 77.35 117.663 77.578 117.663 77.854V82H116.559ZM126.1 84.052C125.124 84.052 124.364 83.91 123.82 83.626C123.28 83.346 123.01 82.944 123.01 82.42C123.01 82.196 123.062 82.006 123.166 81.85C123.27 81.69 123.394 81.558 123.538 81.454C123.682 81.35 123.816 81.268 123.94 81.208C124.064 81.144 124.144 81.098 124.18 81.07C124.112 81.03 124.026 80.98 123.922 80.92C123.822 80.86 123.734 80.78 123.658 80.68C123.582 80.58 123.544 80.45 123.544 80.29C123.544 80.094 123.636 79.914 123.82 79.75C124.004 79.586 124.276 79.464 124.636 79.384C124.272 79.2 123.988 78.956 123.784 78.652C123.58 78.348 123.478 78.018 123.478 77.662C123.478 77.262 123.586 76.914 123.802 76.618C124.022 76.322 124.334 76.096 124.738 75.94C125.142 75.78 125.622 75.7 126.178 75.7C126.582 75.7 126.922 75.748 127.198 75.844C127.474 75.936 127.73 76.068 127.966 76.24C128.03 76.212 128.13 76.17 128.266 76.114C128.406 76.054 128.56 75.99 128.728 75.922C128.896 75.854 129.052 75.79 129.196 75.73C129.344 75.666 129.462 75.618 129.55 75.586L129.544 76.612L128.458 76.816C128.518 76.944 128.566 77.084 128.602 77.236C128.642 77.388 128.662 77.53 128.662 77.662C128.662 78.026 128.566 78.356 128.374 78.652C128.186 78.948 127.9 79.184 127.516 79.36C127.132 79.536 126.652 79.624 126.076 79.624C126.028 79.624 125.966 79.624 125.89 79.624C125.818 79.62 125.756 79.616 125.704 79.612C125.28 79.624 124.988 79.672 124.828 79.756C124.668 79.836 124.588 79.926 124.588 80.026C124.588 80.142 124.678 80.222 124.858 80.266C125.038 80.31 125.344 80.348 125.776 80.38C125.932 80.388 126.124 80.398 126.352 80.41C126.584 80.422 126.84 80.438 127.12 80.458C127.772 80.498 128.274 80.664 128.626 80.956C128.978 81.248 129.154 81.642 129.154 82.138C129.154 82.702 128.902 83.162 128.398 83.518C127.894 83.874 127.128 84.052 126.1 84.052ZM126.298 83.338C126.87 83.338 127.308 83.252 127.612 83.08C127.916 82.908 128.068 82.648 128.068 82.3C128.068 82.052 127.974 81.85 127.786 81.694C127.602 81.534 127.32 81.442 126.94 81.418L125.2 81.304C125.044 81.296 124.882 81.336 124.714 81.424C124.546 81.508 124.402 81.626 124.282 81.778C124.166 81.93 124.108 82.102 124.108 82.294C124.108 82.622 124.286 82.878 124.642 83.062C125.002 83.246 125.554 83.338 126.298 83.338ZM126.106 78.91C126.554 78.91 126.914 78.806 127.186 78.598C127.462 78.39 127.6 78.082 127.6 77.674C127.6 77.254 127.462 76.934 127.186 76.714C126.914 76.494 126.554 76.384 126.106 76.384C125.654 76.384 125.288 76.496 125.008 76.72C124.732 76.94 124.594 77.258 124.594 77.674C124.594 78.066 124.726 78.37 124.99 78.586C125.254 78.802 125.626 78.91 126.106 78.91ZM135.789 82.12C134.985 82.12 134.347 81.844 133.875 81.292C133.403 80.74 133.167 79.934 133.167 78.874C133.167 78.23 133.261 77.668 133.449 77.188C133.641 76.708 133.925 76.336 134.301 76.072C134.677 75.808 135.145 75.676 135.705 75.676C136.001 75.676 136.263 75.714 136.491 75.79C136.723 75.866 136.923 75.962 137.091 76.078C137.259 76.194 137.395 76.314 137.499 76.438C137.607 76.562 137.687 76.676 137.739 76.78V73.084H138.855V82H138.009L137.889 80.728C137.849 80.848 137.785 80.988 137.697 81.148C137.609 81.304 137.485 81.458 137.325 81.61C137.165 81.758 136.959 81.88 136.707 81.976C136.459 82.072 136.153 82.12 135.789 82.12ZM135.987 81.268C136.615 81.268 137.063 81.078 137.331 80.698C137.603 80.314 137.739 79.688 137.739 78.82C137.735 78.336 137.673 77.924 137.553 77.584C137.437 77.244 137.253 76.986 137.001 76.81C136.753 76.63 136.423 76.54 136.011 76.54C135.499 76.54 135.083 76.722 134.763 77.086C134.443 77.45 134.283 78.028 134.283 78.82C134.283 79.596 134.427 80.198 134.715 80.626C135.007 81.054 135.431 81.268 135.987 81.268ZM142.404 82.12C142.004 82.12 141.65 82.05 141.342 81.91C141.034 81.766 140.792 81.56 140.616 81.292C140.444 81.024 140.358 80.7 140.358 80.32C140.358 79.632 140.598 79.12 141.078 78.784C141.558 78.448 142.328 78.268 143.388 78.244L144.498 78.214V77.728C144.498 77.348 144.384 77.048 144.156 76.828C143.928 76.604 143.574 76.492 143.094 76.492C142.738 76.496 142.424 76.58 142.152 76.744C141.884 76.908 141.71 77.176 141.63 77.548H140.652C140.676 77.144 140.79 76.804 140.994 76.528C141.198 76.248 141.482 76.036 141.846 75.892C142.214 75.748 142.648 75.676 143.148 75.676C143.688 75.676 144.136 75.752 144.492 75.904C144.852 76.056 145.12 76.28 145.296 76.576C145.476 76.872 145.566 77.236 145.566 77.668V82H144.618L144.54 80.836C144.3 81.32 143.994 81.656 143.622 81.844C143.254 82.028 142.848 82.12 142.404 82.12ZM142.74 81.322C142.948 81.322 143.154 81.284 143.358 81.208C143.566 81.132 143.756 81.03 143.928 80.902C144.1 80.77 144.236 80.624 144.336 80.464C144.44 80.3 144.494 80.132 144.498 79.96V78.898L143.574 78.916C143.102 78.924 142.706 78.972 142.386 79.06C142.07 79.148 141.832 79.286 141.672 79.474C141.516 79.662 141.438 79.908 141.438 80.212C141.438 80.56 141.558 80.832 141.798 81.028C142.042 81.224 142.356 81.322 142.74 81.322ZM147.461 82V75.796H148.517V76.99C148.621 76.694 148.767 76.45 148.955 76.258C149.143 76.062 149.357 75.916 149.597 75.82C149.841 75.724 150.093 75.676 150.353 75.676C150.445 75.676 150.535 75.682 150.623 75.694C150.711 75.706 150.779 75.726 150.827 75.754V76.828C150.767 76.8 150.689 76.782 150.593 76.774C150.501 76.762 150.423 76.756 150.359 76.756C150.111 76.74 149.879 76.756 149.663 76.804C149.447 76.848 149.257 76.926 149.093 77.038C148.929 77.15 148.799 77.298 148.703 77.482C148.611 77.662 148.565 77.882 148.565 78.142V82H147.461ZM153.313 75.796V82H152.239V75.796H153.313ZM153.337 73.33V74.482H152.203V73.33H153.337ZM160.233 82.12C159.801 82.12 159.399 82.054 159.027 81.922C158.659 81.786 158.353 81.576 158.109 81.292C157.865 81.004 157.711 80.638 157.647 80.194H158.655C158.711 80.438 158.811 80.642 158.955 80.806C159.103 80.966 159.287 81.088 159.507 81.172C159.727 81.252 159.967 81.292 160.227 81.292C160.643 81.292 160.979 81.214 161.235 81.058C161.491 80.902 161.619 80.662 161.619 80.338C161.619 80.11 161.551 79.928 161.415 79.792C161.283 79.652 161.077 79.55 160.797 79.486L159.513 79.168C159.013 79.048 158.613 78.86 158.313 78.604C158.013 78.348 157.863 77.99 157.863 77.53C157.859 77.166 157.945 76.846 158.121 76.57C158.297 76.294 158.561 76.076 158.913 75.916C159.265 75.756 159.703 75.676 160.227 75.676C160.899 75.676 161.441 75.828 161.853 76.132C162.269 76.432 162.485 76.874 162.501 77.458H161.523C161.483 77.162 161.349 76.928 161.121 76.756C160.897 76.58 160.595 76.492 160.215 76.492C159.819 76.492 159.497 76.572 159.249 76.732C159.001 76.888 158.877 77.132 158.877 77.464C158.877 77.684 158.965 77.858 159.141 77.986C159.317 78.11 159.577 78.214 159.921 78.298L161.163 78.61C161.451 78.686 161.687 78.786 161.871 78.91C162.059 79.034 162.207 79.172 162.315 79.324C162.427 79.476 162.505 79.636 162.549 79.804C162.597 79.968 162.621 80.126 162.621 80.278C162.621 80.658 162.525 80.986 162.333 81.262C162.145 81.534 161.873 81.746 161.517 81.898C161.165 82.046 160.737 82.12 160.233 82.12ZM164.964 79.156C164.964 79.548 165.028 79.904 165.156 80.224C165.288 80.54 165.486 80.792 165.75 80.98C166.018 81.168 166.352 81.262 166.752 81.262C167.148 81.262 167.488 81.17 167.772 80.986C168.06 80.802 168.244 80.536 168.324 80.188H169.374C169.298 80.608 169.13 80.962 168.87 81.25C168.61 81.538 168.296 81.756 167.928 81.904C167.56 82.048 167.176 82.12 166.776 82.12C166.196 82.12 165.686 81.994 165.246 81.742C164.806 81.49 164.462 81.128 164.214 80.656C163.966 80.184 163.842 79.618 163.842 78.958C163.842 78.306 163.954 77.734 164.178 77.242C164.402 76.75 164.726 76.366 165.15 76.09C165.578 75.814 166.092 75.676 166.692 75.676C167.276 75.676 167.77 75.802 168.174 76.054C168.578 76.306 168.884 76.662 169.092 77.122C169.304 77.578 169.41 78.12 169.41 78.748V79.156H164.964ZM164.97 78.406H168.342C168.342 78.05 168.282 77.73 168.162 77.446C168.042 77.158 167.858 76.932 167.61 76.768C167.366 76.6 167.058 76.516 166.686 76.516C166.298 76.516 165.976 76.61 165.72 76.798C165.468 76.982 165.278 77.22 165.15 77.512C165.026 77.8 164.966 78.098 164.97 78.406ZM172.5 82.078C172.164 82.078 171.892 82.032 171.684 81.94C171.48 81.848 171.322 81.724 171.21 81.568C171.102 81.412 171.028 81.234 170.988 81.034C170.952 80.83 170.934 80.62 170.934 80.404V73.084H172.026V80.296C172.026 80.608 172.086 80.842 172.206 80.998C172.33 81.154 172.502 81.24 172.722 81.256L173.058 81.262V81.982C172.966 82.01 172.87 82.032 172.77 82.048C172.67 82.068 172.58 82.078 172.5 82.078ZM175.684 75.796V82H174.61V75.796H175.684ZM175.708 73.33V74.482H174.574V73.33H175.708ZM179.839 82.12C179.407 82.12 179.005 82.054 178.633 81.922C178.265 81.786 177.959 81.576 177.715 81.292C177.471 81.004 177.317 80.638 177.253 80.194H178.261C178.317 80.438 178.417 80.642 178.561 80.806C178.709 80.966 178.893 81.088 179.113 81.172C179.333 81.252 179.573 81.292 179.833 81.292C180.249 81.292 180.585 81.214 180.841 81.058C181.097 80.902 181.225 80.662 181.225 80.338C181.225 80.11 181.157 79.928 181.021 79.792C180.889 79.652 180.683 79.55 180.403 79.486L179.119 79.168C178.619 79.048 178.219 78.86 177.919 78.604C177.619 78.348 177.469 77.99 177.469 77.53C177.465 77.166 177.551 76.846 177.727 76.57C177.903 76.294 178.167 76.076 178.519 75.916C178.871 75.756 179.309 75.676 179.833 75.676C180.505 75.676 181.047 75.828 181.459 76.132C181.875 76.432 182.091 76.874 182.107 77.458H181.129C181.089 77.162 180.955 76.928 180.727 76.756C180.503 76.58 180.201 76.492 179.821 76.492C179.425 76.492 179.103 76.572 178.855 76.732C178.607 76.888 178.483 77.132 178.483 77.464C178.483 77.684 178.571 77.858 178.747 77.986C178.923 78.11 179.183 78.214 179.527 78.298L180.769 78.61C181.057 78.686 181.293 78.786 181.477 78.91C181.665 79.034 181.813 79.172 181.921 79.324C182.033 79.476 182.111 79.636 182.155 79.804C182.203 79.968 182.227 80.126 182.227 80.278C182.227 80.658 182.131 80.986 181.939 81.262C181.751 81.534 181.479 81.746 181.123 81.898C180.771 82.046 180.343 82.12 179.839 82.12ZM184.977 75.796V82H183.903V75.796H184.977ZM185.001 73.33V74.482H183.867V73.33H185.001ZM187 82V73.084H188.08V76.708C188.184 76.536 188.324 76.376 188.5 76.228C188.676 76.076 188.89 75.954 189.142 75.862C189.394 75.766 189.686 75.718 190.018 75.718C190.422 75.718 190.788 75.794 191.116 75.946C191.444 76.094 191.704 76.306 191.896 76.582C192.088 76.858 192.184 77.186 192.184 77.566V82H191.074V77.788C191.074 77.416 190.946 77.13 190.69 76.93C190.438 76.726 190.108 76.624 189.7 76.624C189.424 76.624 189.164 76.67 188.92 76.762C188.676 76.85 188.478 76.986 188.326 77.17C188.178 77.35 188.104 77.58 188.104 77.86V82H187ZM196.68 83.932V75.796H197.784L197.796 76.876C197.868 76.748 197.96 76.614 198.072 76.474C198.188 76.334 198.328 76.204 198.492 76.084C198.66 75.964 198.854 75.866 199.074 75.79C199.298 75.714 199.552 75.676 199.836 75.676C200.332 75.676 200.768 75.79 201.144 76.018C201.524 76.242 201.82 76.586 202.032 77.05C202.244 77.514 202.35 78.102 202.35 78.814C202.35 79.526 202.246 80.128 202.038 80.62C201.834 81.108 201.538 81.48 201.15 81.736C200.762 81.992 200.294 82.12 199.746 82.12C199.47 82.12 199.224 82.08 199.008 82C198.796 81.924 198.61 81.824 198.45 81.7C198.294 81.572 198.162 81.436 198.054 81.292C197.95 81.148 197.864 81.01 197.796 80.878V83.932H196.68ZM199.536 81.256C200.048 81.256 200.466 81.062 200.79 80.674C201.114 80.282 201.276 79.674 201.276 78.85C201.276 78.142 201.128 77.58 200.832 77.164C200.536 76.748 200.104 76.54 199.536 76.54C198.96 76.54 198.524 76.754 198.228 77.182C197.932 77.606 197.784 78.162 197.784 78.85C197.784 79.294 197.85 79.698 197.982 80.062C198.114 80.426 198.31 80.716 198.57 80.932C198.83 81.148 199.152 81.256 199.536 81.256ZM204.597 79.156C204.597 79.548 204.661 79.904 204.789 80.224C204.921 80.54 205.119 80.792 205.383 80.98C205.651 81.168 205.985 81.262 206.385 81.262C206.781 81.262 207.121 81.17 207.405 80.986C207.693 80.802 207.877 80.536 207.957 80.188H209.007C208.931 80.608 208.763 80.962 208.503 81.25C208.243 81.538 207.929 81.756 207.561 81.904C207.193 82.048 206.809 82.12 206.409 82.12C205.829 82.12 205.319 81.994 204.879 81.742C204.439 81.49 204.095 81.128 203.847 80.656C203.599 80.184 203.475 79.618 203.475 78.958C203.475 78.306 203.587 77.734 203.811 77.242C204.035 76.75 204.359 76.366 204.783 76.09C205.211 75.814 205.725 75.676 206.325 75.676C206.909 75.676 207.403 75.802 207.807 76.054C208.211 76.306 208.517 76.662 208.725 77.122C208.937 77.578 209.043 78.12 209.043 78.748V79.156H204.597ZM204.603 78.406H207.975C207.975 78.05 207.915 77.73 207.795 77.446C207.675 77.158 207.491 76.932 207.243 76.768C206.999 76.6 206.691 76.516 206.319 76.516C205.931 76.516 205.609 76.61 205.353 76.798C205.101 76.982 204.911 77.22 204.783 77.512C204.659 77.8 204.599 78.098 204.603 78.406ZM210.566 82V75.796H211.622V76.99C211.726 76.694 211.872 76.45 212.06 76.258C212.248 76.062 212.462 75.916 212.702 75.82C212.946 75.724 213.198 75.676 213.458 75.676C213.55 75.676 213.64 75.682 213.728 75.694C213.816 75.706 213.884 75.726 213.932 75.754V76.828C213.872 76.8 213.794 76.782 213.698 76.774C213.606 76.762 213.528 76.756 213.464 76.756C213.216 76.74 212.984 76.756 212.768 76.804C212.552 76.848 212.362 76.926 212.198 77.038C212.034 77.15 211.904 77.298 211.808 77.482C211.716 77.662 211.67 77.882 211.67 78.142V82H210.566ZM218.285 82.12C217.921 82.12 217.613 82.072 217.361 81.976C217.113 81.88 216.909 81.758 216.749 81.61C216.589 81.458 216.465 81.304 216.377 81.148C216.289 80.988 216.225 80.848 216.185 80.728L216.065 82H215.219V73.084H216.335V76.78C216.387 76.676 216.465 76.562 216.569 76.438C216.677 76.314 216.815 76.194 216.983 76.078C217.151 75.962 217.349 75.866 217.577 75.79C217.809 75.714 218.073 75.676 218.369 75.676C219.145 75.676 219.761 75.946 220.217 76.486C220.677 77.026 220.907 77.822 220.907 78.874C220.907 79.526 220.809 80.096 220.613 80.584C220.417 81.068 220.125 81.446 219.737 81.718C219.349 81.986 218.865 82.12 218.285 82.12ZM218.087 81.268C218.591 81.268 219.001 81.074 219.317 80.686C219.633 80.294 219.791 79.672 219.791 78.82C219.791 78.096 219.643 77.536 219.347 77.14C219.055 76.74 218.627 76.54 218.063 76.54C217.651 76.54 217.319 76.63 217.067 76.81C216.819 76.986 216.635 77.244 216.515 77.584C216.399 77.924 216.339 78.336 216.335 78.82C216.335 79.688 216.469 80.314 216.737 80.698C217.009 81.078 217.459 81.268 218.087 81.268ZM223.148 79.156C223.148 79.548 223.212 79.904 223.34 80.224C223.472 80.54 223.67 80.792 223.934 80.98C224.202 81.168 224.536 81.262 224.936 81.262C225.332 81.262 225.672 81.17 225.956 80.986C226.244 80.802 226.428 80.536 226.508 80.188H227.558C227.482 80.608 227.314 80.962 227.054 81.25C226.794 81.538 226.48 81.756 226.112 81.904C225.744 82.048 225.36 82.12 224.96 82.12C224.38 82.12 223.87 81.994 223.43 81.742C222.99 81.49 222.646 81.128 222.398 80.656C222.15 80.184 222.026 79.618 222.026 78.958C222.026 78.306 222.138 77.734 222.362 77.242C222.586 76.75 222.91 76.366 223.334 76.09C223.762 75.814 224.276 75.676 224.876 75.676C225.46 75.676 225.954 75.802 226.358 76.054C226.762 76.306 227.068 76.662 227.276 77.122C227.488 77.578 227.594 78.12 227.594 78.748V79.156H223.148ZM223.154 78.406H226.526C226.526 78.05 226.466 77.73 226.346 77.446C226.226 77.158 226.042 76.932 225.794 76.768C225.55 76.6 225.242 76.516 224.87 76.516C224.482 76.516 224.16 76.61 223.904 76.798C223.652 76.982 223.462 77.22 223.334 77.512C223.21 77.8 223.15 78.098 223.154 78.406ZM231.355 82.12C230.551 82.12 229.913 81.844 229.441 81.292C228.969 80.74 228.733 79.934 228.733 78.874C228.733 78.23 228.827 77.668 229.015 77.188C229.207 76.708 229.491 76.336 229.867 76.072C230.243 75.808 230.711 75.676 231.271 75.676C231.567 75.676 231.829 75.714 232.057 75.79C232.289 75.866 232.489 75.962 232.657 76.078C232.825 76.194 232.961 76.314 233.065 76.438C233.173 76.562 233.253 76.676 233.305 76.78V73.084H234.421V82H233.575L233.455 80.728C233.415 80.848 233.351 80.988 233.263 81.148C233.175 81.304 233.051 81.458 232.891 81.61C232.731 81.758 232.525 81.88 232.273 81.976C232.025 82.072 231.719 82.12 231.355 82.12ZM231.553 81.268C232.181 81.268 232.629 81.078 232.897 80.698C233.169 80.314 233.305 79.688 233.305 78.82C233.301 78.336 233.239 77.924 233.119 77.584C233.003 77.244 232.819 76.986 232.567 76.81C232.319 76.63 231.989 76.54 231.577 76.54C231.065 76.54 230.649 76.722 230.329 77.086C230.009 77.45 229.849 78.028 229.849 78.82C229.849 79.596 229.993 80.198 230.281 80.626C230.573 81.054 230.997 81.268 231.553 81.268ZM237.97 82.12C237.57 82.12 237.216 82.05 236.908 81.91C236.6 81.766 236.358 81.56 236.182 81.292C236.01 81.024 235.924 80.7 235.924 80.32C235.924 79.632 236.164 79.12 236.644 78.784C237.124 78.448 237.894 78.268 238.954 78.244L240.064 78.214V77.728C240.064 77.348 239.95 77.048 239.722 76.828C239.494 76.604 239.14 76.492 238.66 76.492C238.304 76.496 237.99 76.58 237.718 76.744C237.45 76.908 237.276 77.176 237.196 77.548H236.218C236.242 77.144 236.356 76.804 236.56 76.528C236.764 76.248 237.048 76.036 237.412 75.892C237.78 75.748 238.214 75.676 238.714 75.676C239.254 75.676 239.702 75.752 240.058 75.904C240.418 76.056 240.686 76.28 240.862 76.576C241.042 76.872 241.132 77.236 241.132 77.668V82H240.184L240.106 80.836C239.866 81.32 239.56 81.656 239.188 81.844C238.82 82.028 238.414 82.12 237.97 82.12ZM238.306 81.322C238.514 81.322 238.72 81.284 238.924 81.208C239.132 81.132 239.322 81.03 239.494 80.902C239.666 80.77 239.802 80.624 239.902 80.464C240.006 80.3 240.06 80.132 240.064 79.96V78.898L239.14 78.916C238.668 78.924 238.272 78.972 237.952 79.06C237.636 79.148 237.398 79.286 237.238 79.474C237.082 79.662 237.004 79.908 237.004 80.212C237.004 80.56 237.124 80.832 237.364 81.028C237.608 81.224 237.922 81.322 238.306 81.322ZM244.72 82.12C244.32 82.12 243.966 82.05 243.658 81.91C243.35 81.766 243.108 81.56 242.932 81.292C242.76 81.024 242.674 80.7 242.674 80.32C242.674 79.632 242.914 79.12 243.394 78.784C243.874 78.448 244.644 78.268 245.704 78.244L246.814 78.214V77.728C246.814 77.348 246.7 77.048 246.472 76.828C246.244 76.604 245.89 76.492 245.41 76.492C245.054 76.496 244.74 76.58 244.468 76.744C244.2 76.908 244.026 77.176 243.946 77.548H242.968C242.992 77.144 243.106 76.804 243.31 76.528C243.514 76.248 243.798 76.036 244.162 75.892C244.53 75.748 244.964 75.676 245.464 75.676C246.004 75.676 246.452 75.752 246.808 75.904C247.168 76.056 247.436 76.28 247.612 76.576C247.792 76.872 247.882 77.236 247.882 77.668V82H246.934L246.856 80.836C246.616 81.32 246.31 81.656 245.938 81.844C245.57 82.028 245.164 82.12 244.72 82.12ZM245.056 81.322C245.264 81.322 245.47 81.284 245.674 81.208C245.882 81.132 246.072 81.03 246.244 80.902C246.416 80.77 246.552 80.624 246.652 80.464C246.756 80.3 246.81 80.132 246.814 79.96V78.898L245.89 78.916C245.418 78.924 245.022 78.972 244.702 79.06C244.386 79.148 244.148 79.286 243.988 79.474C243.832 79.662 243.754 79.908 243.754 80.212C243.754 80.56 243.874 80.832 244.114 81.028C244.358 81.224 244.672 81.322 245.056 81.322ZM249.777 82V75.796H250.851V76.696C250.951 76.524 251.089 76.362 251.265 76.21C251.445 76.058 251.661 75.936 251.913 75.844C252.169 75.752 252.463 75.706 252.795 75.706C253.187 75.706 253.547 75.784 253.875 75.94C254.207 76.096 254.471 76.34 254.667 76.672C254.867 77 254.967 77.424 254.967 77.944V82H253.857V78.052C253.857 77.568 253.729 77.21 253.473 76.978C253.221 76.742 252.893 76.624 252.489 76.624C252.209 76.624 251.947 76.67 251.703 76.762C251.459 76.85 251.261 76.986 251.109 77.17C250.957 77.35 250.881 77.578 250.881 77.854V82H249.777ZM259.469 82V73.084H260.549V76.708C260.653 76.536 260.793 76.376 260.969 76.228C261.145 76.076 261.359 75.954 261.611 75.862C261.863 75.766 262.155 75.718 262.487 75.718C262.891 75.718 263.257 75.794 263.585 75.946C263.913 76.094 264.173 76.306 264.365 76.582C264.557 76.858 264.653 77.186 264.653 77.566V82H263.543V77.788C263.543 77.416 263.415 77.13 263.159 76.93C262.907 76.726 262.577 76.624 262.169 76.624C261.893 76.624 261.633 76.67 261.389 76.762C261.145 76.85 260.947 76.986 260.795 77.17C260.647 77.35 260.573 77.58 260.573 77.86V82H259.469ZM268.075 82.12C267.675 82.12 267.321 82.05 267.013 81.91C266.705 81.766 266.463 81.56 266.287 81.292C266.115 81.024 266.029 80.7 266.029 80.32C266.029 79.632 266.269 79.12 266.749 78.784C267.229 78.448 267.999 78.268 269.059 78.244L270.169 78.214V77.728C270.169 77.348 270.055 77.048 269.827 76.828C269.599 76.604 269.245 76.492 268.765 76.492C268.409 76.496 268.095 76.58 267.823 76.744C267.555 76.908 267.381 77.176 267.301 77.548H266.323C266.347 77.144 266.461 76.804 266.665 76.528C266.869 76.248 267.153 76.036 267.517 75.892C267.885 75.748 268.319 75.676 268.819 75.676C269.359 75.676 269.807 75.752 270.163 75.904C270.523 76.056 270.791 76.28 270.967 76.576C271.147 76.872 271.237 77.236 271.237 77.668V82H270.289L270.211 80.836C269.971 81.32 269.665 81.656 269.293 81.844C268.925 82.028 268.519 82.12 268.075 82.12ZM268.411 81.322C268.619 81.322 268.825 81.284 269.029 81.208C269.237 81.132 269.427 81.03 269.599 80.902C269.771 80.77 269.907 80.624 270.007 80.464C270.111 80.3 270.165 80.132 270.169 79.96V78.898L269.245 78.916C268.773 78.924 268.377 78.972 268.057 79.06C267.741 79.148 267.503 79.286 267.343 79.474C267.187 79.662 267.109 79.908 267.109 80.212C267.109 80.56 267.229 80.832 267.469 81.028C267.713 81.224 268.027 81.322 268.411 81.322ZM273.133 82V75.796H274.189V76.99C274.293 76.694 274.439 76.45 274.627 76.258C274.815 76.062 275.029 75.916 275.269 75.82C275.513 75.724 275.765 75.676 276.025 75.676C276.117 75.676 276.207 75.682 276.295 75.694C276.383 75.706 276.451 75.726 276.499 75.754V76.828C276.439 76.8 276.361 76.782 276.265 76.774C276.173 76.762 276.095 76.756 276.031 76.756C275.783 76.74 275.551 76.756 275.335 76.804C275.119 76.848 274.929 76.926 274.765 77.038C274.601 77.15 274.471 77.298 274.375 77.482C274.283 77.662 274.237 77.882 274.237 78.142V82H273.133ZM280.401 84.052C279.425 84.052 278.665 83.91 278.121 83.626C277.581 83.346 277.311 82.944 277.311 82.42C277.311 82.196 277.363 82.006 277.467 81.85C277.571 81.69 277.695 81.558 277.839 81.454C277.983 81.35 278.117 81.268 278.241 81.208C278.365 81.144 278.445 81.098 278.481 81.07C278.413 81.03 278.327 80.98 278.223 80.92C278.123 80.86 278.035 80.78 277.959 80.68C277.883 80.58 277.845 80.45 277.845 80.29C277.845 80.094 277.937 79.914 278.121 79.75C278.305 79.586 278.577 79.464 278.937 79.384C278.573 79.2 278.289 78.956 278.085 78.652C277.881 78.348 277.779 78.018 277.779 77.662C277.779 77.262 277.887 76.914 278.103 76.618C278.323 76.322 278.635 76.096 279.039 75.94C279.443 75.78 279.923 75.7 280.479 75.7C280.883 75.7 281.223 75.748 281.499 75.844C281.775 75.936 282.031 76.068 282.267 76.24C282.331 76.212 282.431 76.17 282.567 76.114C282.707 76.054 282.861 75.99 283.029 75.922C283.197 75.854 283.353 75.79 283.497 75.73C283.645 75.666 283.763 75.618 283.851 75.586L283.845 76.612L282.759 76.816C282.819 76.944 282.867 77.084 282.903 77.236C282.943 77.388 282.963 77.53 282.963 77.662C282.963 78.026 282.867 78.356 282.675 78.652C282.487 78.948 282.201 79.184 281.817 79.36C281.433 79.536 280.953 79.624 280.377 79.624C280.329 79.624 280.267 79.624 280.191 79.624C280.119 79.62 280.057 79.616 280.005 79.612C279.581 79.624 279.289 79.672 279.129 79.756C278.969 79.836 278.889 79.926 278.889 80.026C278.889 80.142 278.979 80.222 279.159 80.266C279.339 80.31 279.645 80.348 280.077 80.38C280.233 80.388 280.425 80.398 280.653 80.41C280.885 80.422 281.141 80.438 281.421 80.458C282.073 80.498 282.575 80.664 282.927 80.956C283.279 81.248 283.455 81.642 283.455 82.138C283.455 82.702 283.203 83.162 282.699 83.518C282.195 83.874 281.429 84.052 280.401 84.052ZM280.599 83.338C281.171 83.338 281.609 83.252 281.913 83.08C282.217 82.908 282.369 82.648 282.369 82.3C282.369 82.052 282.275 81.85 282.087 81.694C281.903 81.534 281.621 81.442 281.241 81.418L279.501 81.304C279.345 81.296 279.183 81.336 279.015 81.424C278.847 81.508 278.703 81.626 278.583 81.778C278.467 81.93 278.409 82.102 278.409 82.294C278.409 82.622 278.587 82.878 278.943 83.062C279.303 83.246 279.855 83.338 280.599 83.338ZM280.407 78.91C280.855 78.91 281.215 78.806 281.487 78.598C281.763 78.39 281.901 78.082 281.901 77.674C281.901 77.254 281.763 76.934 281.487 76.714C281.215 76.494 280.855 76.384 280.407 76.384C279.955 76.384 279.589 76.496 279.309 76.72C279.033 76.94 278.895 77.258 278.895 77.674C278.895 78.066 279.027 78.37 279.291 78.586C279.555 78.802 279.927 78.91 280.407 78.91ZM286.779 82.12C286.379 82.12 286.025 82.05 285.717 81.91C285.409 81.766 285.167 81.56 284.991 81.292C284.819 81.024 284.733 80.7 284.733 80.32C284.733 79.632 284.973 79.12 285.453 78.784C285.933 78.448 286.703 78.268 287.763 78.244L288.873 78.214V77.728C288.873 77.348 288.759 77.048 288.531 76.828C288.303 76.604 287.949 76.492 287.469 76.492C287.113 76.496 286.799 76.58 286.527 76.744C286.259 76.908 286.085 77.176 286.005 77.548H285.027C285.051 77.144 285.165 76.804 285.369 76.528C285.573 76.248 285.857 76.036 286.221 75.892C286.589 75.748 287.023 75.676 287.523 75.676C288.063 75.676 288.511 75.752 288.867 75.904C289.227 76.056 289.495 76.28 289.671 76.576C289.851 76.872 289.941 77.236 289.941 77.668V82H288.993L288.915 80.836C288.675 81.32 288.369 81.656 287.997 81.844C287.629 82.028 287.223 82.12 286.779 82.12ZM287.115 81.322C287.323 81.322 287.529 81.284 287.733 81.208C287.941 81.132 288.131 81.03 288.303 80.902C288.475 80.77 288.611 80.624 288.711 80.464C288.815 80.3 288.869 80.132 288.873 79.96V78.898L287.949 78.916C287.477 78.924 287.081 78.972 286.761 79.06C286.445 79.148 286.207 79.286 286.047 79.474C285.891 79.662 285.813 79.908 285.813 80.212C285.813 80.56 285.933 80.832 286.173 81.028C286.417 81.224 286.731 81.322 287.115 81.322ZM291.578 82V80.584H292.898V82H291.578Z" fill="#213360"/>
<defs>
<filter id="filter0_dd_4_1679" x="0" y="0" width="344" height="124" filterUnits="userSpaceOnUse" color-interpolation-filters="sRGB">
<feFlood flood-opacity="0" result="BackgroundImageFix"/>
<feColorMatrix in="SourceAlpha" type="matrix" values="0 0 0 0 0 0 0 0 0 0 0 0 0 0 0 0 0 0 127 0" result="hardAlpha"/>
<feMorphology radius="2" operator="dilate" in="SourceAlpha" result="effect1_dropShadow_4_1679"/>
<feOffset dy="4"/>
<feGaussianBlur stdDeviation="4"/>
<feComposite in2="hardAlpha" operator="out"/>
<feColorMatrix type="matrix" values="0 0 0 0 0 0 0 0 0 0.607843 0 0 0 0 0.564706 0 0 0 0.08 0"/>
<feBlend mode="normal" in2="BackgroundImageFix" result="effect1_dropShadow_4_1679"/>
<feColorMatrix in="SourceAlpha" type="matrix" values="0 0 0 0 0 0 0 0 0 0 0 0 0 0 0 0 0 0 127 0" result="hardAlpha"/>
<feMorphology radius="2" operator="dilate" in="SourceAlpha" result="effect2_dropShadow_4_1679"/>
<feOffset dy="1"/>
<feGaussianBlur stdDeviation="1"/>
<feComposite in2="hardAlpha" operator="out"/>
<feColorMatrix type="matrix" values="0 0 0 0 0.129412 0 0 0 0 0.2 0 0 0 0 0.376471 0 0 0 0.02 0"/>
<feBlend mode="normal" in2="effect1_dropShadow_4_1679" result="effect2_dropShadow_4_1679"/>
<feBlend mode="normal" in="SourceGraphic" in2="effect2_dropShadow_4_1679" result="shape"/>
</filter>
</defs>
</svg>
