<svg width="195" height="164" viewBox="0 0 195 164" fill="none" xmlns="http://www.w3.org/2000/svg">
<path d="M17.75 54.5938C16.2167 54.5938 14.7462 55.2028 13.662 56.287C12.5778 57.3712 11.9687 58.8417 11.9687 60.375V63.5938H8.875C8.71967 63.5938 8.59375 63.7197 8.59375 63.875V68.125C8.59375 68.2803 8.71967 68.4062 8.875 68.4062H11.9687V77.125C11.9687 77.2803 12.0947 77.4062 12.25 77.4062H16.5C16.6553 77.4062 16.7812 77.2803 16.7812 77.125V68.4062H19.9024C20.0315 68.4062 20.144 68.3184 20.1753 68.1932L21.2378 63.9432C21.2821 63.7657 21.1479 63.5938 20.9649 63.5938H16.7812V60.375C16.7812 60.1181 16.8833 59.8717 17.065 59.69C17.2467 59.5083 17.4931 59.4062 17.75 59.4062H21C21.1553 59.4062 21.2812 59.2803 21.2812 59.125V54.875C21.2812 54.7197 21.1553 54.5938 21 54.5938H17.75Z" fill="#213360"/>
<path d="M47.528 60.432H54.736L54.728 61.728H49.048V65.552H54.152V66.832H49.048V72H47.528V60.432ZM58.8558 72.16C58.3224 72.16 57.8504 72.0667 57.4398 71.88C57.0291 71.688 56.7064 71.4133 56.4718 71.056C56.2424 70.6987 56.1278 70.2667 56.1278 69.76C56.1278 68.8427 56.4478 68.16 57.0878 67.712C57.7278 67.264 58.7544 67.024 60.1678 66.992L61.6478 66.952V66.304C61.6478 65.7973 61.4958 65.3973 61.1918 65.104C60.8878 64.8053 60.4158 64.656 59.7758 64.656C59.3011 64.6613 58.8824 64.7733 58.5198 64.992C58.1624 65.2107 57.9304 65.568 57.8238 66.064H56.5197C56.5518 65.5253 56.7038 65.072 56.9758 64.704C57.2478 64.3307 57.6264 64.048 58.1118 63.856C58.6024 63.664 59.1811 63.568 59.8478 63.568C60.5678 63.568 61.1651 63.6693 61.6398 63.872C62.1198 64.0747 62.4771 64.3733 62.7118 64.768C62.9518 65.1627 63.0718 65.648 63.0718 66.224V72H61.8078L61.7038 70.448C61.3838 71.0933 60.9758 71.5413 60.4798 71.792C59.9891 72.0373 59.4478 72.16 58.8558 72.16ZM59.3038 71.096C59.5811 71.096 59.8558 71.0453 60.1278 70.944C60.4051 70.8427 60.6584 70.7067 60.8878 70.536C61.1171 70.36 61.2984 70.1653 61.4318 69.952C61.5704 69.7333 61.6424 69.5093 61.6478 69.28V67.864L60.4158 67.888C59.7864 67.8987 59.2584 67.9627 58.8318 68.08C58.4104 68.1973 58.0931 68.3813 57.8798 68.632C57.6718 68.8827 57.5678 69.2107 57.5678 69.616C57.5678 70.08 57.7278 70.4427 58.0478 70.704C58.3731 70.9653 58.7918 71.096 59.3038 71.096ZM68.895 63.568C69.487 63.568 70.0203 63.6827 70.495 63.912C70.9697 64.136 71.3563 64.456 71.655 64.872C71.959 65.288 72.1483 65.7787 72.223 66.344H70.911C70.863 66.056 70.751 65.792 70.575 65.552C70.4043 65.312 70.1777 65.12 69.895 64.976C69.6123 64.832 69.2817 64.76 68.903 64.76C68.1937 64.76 67.6177 65.016 67.175 65.528C66.7323 66.04 66.511 66.824 66.511 67.88C66.511 68.8347 66.7137 69.6 67.119 70.176C67.5297 70.7467 68.1323 71.032 68.927 71.032C69.3057 71.032 69.6337 70.96 69.911 70.816C70.1937 70.6667 70.4203 70.472 70.591 70.232C70.7617 69.9867 70.871 69.7253 70.919 69.448H72.207C72.1377 70.0027 71.951 70.4827 71.647 70.888C71.343 71.2933 70.9537 71.608 70.479 71.832C70.0097 72.0507 69.4817 72.16 68.895 72.16C68.1537 72.16 67.495 71.9973 66.919 71.672C66.3483 71.3467 65.9003 70.8667 65.575 70.232C65.2497 69.5973 65.087 68.8187 65.087 67.896C65.087 67.032 65.2337 66.2773 65.527 65.632C65.8257 64.9813 66.2577 64.4747 66.823 64.112C67.3937 63.7493 68.0843 63.568 68.895 63.568ZM75.28 68.208C75.28 68.7307 75.3653 69.2053 75.536 69.632C75.712 70.0533 75.976 70.3893 76.328 70.64C76.6853 70.8907 77.1307 71.016 77.664 71.016C78.192 71.016 78.6453 70.8933 79.024 70.648C79.408 70.4027 79.6533 70.048 79.76 69.584H81.16C81.0587 70.144 80.8347 70.616 80.488 71C80.1413 71.384 79.7227 71.6747 79.232 71.872C78.7413 72.064 78.2293 72.16 77.696 72.16C76.9227 72.16 76.2427 71.992 75.656 71.656C75.0693 71.32 74.6107 70.8373 74.28 70.208C73.9493 69.5787 73.784 68.824 73.784 67.944C73.784 67.0747 73.9333 66.312 74.232 65.656C74.5307 65 74.9627 64.488 75.528 64.12C76.0987 63.752 76.784 63.568 77.584 63.568C78.3627 63.568 79.0213 63.736 79.56 64.072C80.0987 64.408 80.5067 64.8827 80.784 65.496C81.0667 66.104 81.208 66.8267 81.208 67.664V68.208H75.28ZM75.288 67.208H79.784C79.784 66.7333 79.704 66.3067 79.544 65.928C79.384 65.544 79.1387 65.2427 78.808 65.024C78.4827 64.8 78.072 64.688 77.576 64.688C77.0587 64.688 76.6293 64.8133 76.288 65.064C75.952 65.3093 75.6987 65.6267 75.528 66.016C75.3627 66.4 75.2827 66.7973 75.288 67.208ZM87.3276 72.16C86.8423 72.16 86.4316 72.096 86.0956 71.968C85.765 71.84 85.493 71.6773 85.2796 71.48C85.0663 71.2773 84.901 71.072 84.7836 70.864C84.6663 70.6507 84.581 70.464 84.5276 70.304L84.3676 72H83.2396V60.112H84.7276V65.04C84.797 64.9013 84.901 64.7493 85.0396 64.584C85.1836 64.4187 85.3676 64.2587 85.5916 64.104C85.8156 63.9493 86.0796 63.8213 86.3836 63.72C86.693 63.6187 87.045 63.568 87.4396 63.568C88.4743 63.568 89.2956 63.928 89.9036 64.648C90.517 65.368 90.8236 66.4293 90.8236 67.832C90.8236 68.7013 90.693 69.4613 90.4316 70.112C90.1703 70.7573 89.781 71.2613 89.2636 71.624C88.7463 71.9813 88.101 72.16 87.3276 72.16ZM87.0636 71.024C87.7356 71.024 88.2823 70.7653 88.7036 70.248C89.125 69.7253 89.3356 68.896 89.3356 67.76C89.3356 66.7947 89.1383 66.048 88.7436 65.52C88.3543 64.9867 87.7836 64.72 87.0316 64.72C86.4823 64.72 86.0396 64.84 85.7036 65.08C85.373 65.3147 85.1276 65.6587 84.9676 66.112C84.813 66.5653 84.733 67.1147 84.7276 67.76C84.7276 68.9173 84.9063 69.752 85.2636 70.264C85.6263 70.7707 86.2263 71.024 87.0636 71.024ZM96.0433 72.16C95.2806 72.16 94.6139 71.9973 94.0433 71.672C93.4726 71.3413 93.0299 70.8587 92.7153 70.224C92.4006 69.5893 92.2433 68.8133 92.2433 67.896C92.2433 67.032 92.3899 66.2747 92.6833 65.624C92.9766 64.9733 93.4059 64.4693 93.9713 64.112C94.5419 63.7493 95.2326 63.568 96.0433 63.568C96.8059 63.568 97.4673 63.736 98.0273 64.072C98.5926 64.4027 99.0299 64.8907 99.3393 65.536C99.6486 66.1813 99.8033 66.968 99.8033 67.896C99.8033 68.7387 99.6593 69.48 99.3713 70.12C99.0886 70.76 98.6673 71.2613 98.1073 71.624C97.5526 71.9813 96.8646 72.16 96.0433 72.16ZM96.0433 70.992C96.5393 70.992 96.9579 70.8667 97.2993 70.616C97.6406 70.3653 97.8993 70.0053 98.0753 69.536C98.2513 69.0667 98.3393 68.5093 98.3393 67.864C98.3393 67.272 98.2619 66.7413 98.1073 66.272C97.9526 65.7973 97.7046 65.4213 97.3633 65.144C97.0273 64.8667 96.5873 64.728 96.0433 64.728C95.5419 64.728 95.1179 64.8533 94.7713 65.104C94.4246 65.3493 94.1606 65.7067 93.9793 66.176C93.8033 66.6453 93.7153 67.208 93.7153 67.864C93.7153 68.4453 93.7953 68.9733 93.9553 69.448C94.1153 69.9227 94.3659 70.2987 94.7073 70.576C95.0486 70.8533 95.4939 70.992 96.0433 70.992ZM105.028 72.16C104.265 72.16 103.598 71.9973 103.028 71.672C102.457 71.3413 102.014 70.8587 101.7 70.224C101.385 69.5893 101.228 68.8133 101.228 67.896C101.228 67.032 101.374 66.2747 101.668 65.624C101.961 64.9733 102.39 64.4693 102.956 64.112C103.526 63.7493 104.217 63.568 105.028 63.568C105.79 63.568 106.452 63.736 107.012 64.072C107.577 64.4027 108.014 64.8907 108.324 65.536C108.633 66.1813 108.788 66.968 108.788 67.896C108.788 68.7387 108.644 69.48 108.356 70.12C108.073 70.76 107.652 71.2613 107.092 71.624C106.537 71.9813 105.849 72.16 105.028 72.16ZM105.028 70.992C105.524 70.992 105.942 70.8667 106.284 70.616C106.625 70.3653 106.884 70.0053 107.06 69.536C107.236 69.0667 107.324 68.5093 107.324 67.864C107.324 67.272 107.246 66.7413 107.092 66.272C106.937 65.7973 106.689 65.4213 106.348 65.144C106.012 64.8667 105.572 64.728 105.028 64.728C104.526 64.728 104.102 64.8533 103.756 65.104C103.409 65.3493 103.145 65.7067 102.964 66.176C102.788 66.6453 102.7 67.208 102.7 67.864C102.7 68.4453 102.78 68.9733 102.94 69.448C103.1 69.9227 103.35 70.2987 103.692 70.576C104.033 70.8533 104.478 70.992 105.028 70.992ZM117.988 72H116.42L113.828 67.848L112.196 69.536V72H110.724V60.112H112.196V67.864L116.084 63.728H117.78L114.796 66.88L117.988 72Z" fill="#213360"/>
<path d="M10.0162 118.375C19.1361 118.375 24.1235 110.473 24.1235 103.62C24.1235 103.396 24.1191 103.173 24.1094 102.95C25.0799 102.216 25.9174 101.306 26.5827 100.265C25.6943 100.678 24.7383 100.956 23.7353 101.081C24.759 100.439 25.5449 99.4237 25.9157 98.213C24.9424 98.8169 23.8776 99.2426 22.7672 99.4718C21.8625 98.4638 20.5744 97.8334 19.148 97.8334C16.4099 97.8334 14.1896 100.156 14.1896 103.018C14.1896 103.425 14.2331 103.821 14.3182 104.201C10.1973 103.984 6.54326 101.92 4.09776 98.7827C3.6573 99.5741 3.42563 100.474 3.4264 101.389C3.4264 103.188 4.3017 104.777 5.63283 105.706C4.84545 105.681 4.07536 105.458 3.3873 105.057C3.38656 105.079 3.38656 105.1 3.38656 105.123C3.38656 107.635 5.09562 109.732 7.36434 110.207C6.93824 110.328 6.49856 110.389 6.05693 110.389C5.738 110.389 5.42717 110.356 5.12509 110.296C5.75632 112.356 7.5867 113.856 9.75684 113.897C8.05982 115.289 5.9221 116.117 3.59871 116.117C3.20347 116.118 2.80856 116.094 2.41602 116.045C4.61037 117.516 7.21595 118.375 10.0164 118.375" fill="#213360"/>
<path d="M45.368 102.792V101.432H54.12V102.792H50.592V113H49.104V102.792H45.368ZM65.9165 104.728L63.4125 113H61.9565L60.0685 106.896L58.2765 113H56.8285L54.2765 104.728H55.6445L57.5405 111.088H57.6685L59.5325 104.728H60.6525L62.5885 111.072H62.7165L64.5325 104.728H65.9165ZM69.199 104.728V113H67.767V104.728H69.199ZM69.231 101.44V102.976H67.719V101.44H69.231ZM76.1141 105.808H74.2501V110.952C74.2501 111.245 74.2795 111.461 74.3381 111.6C74.4021 111.733 74.5061 111.819 74.6501 111.856C74.7995 111.893 75.0021 111.912 75.2581 111.912H76.1621V112.904C76.0608 112.941 75.9061 112.973 75.6981 113C75.4955 113.027 75.2421 113.04 74.9381 113.04C74.3675 113.04 73.9248 112.963 73.6101 112.808C73.2955 112.653 73.0741 112.424 72.9461 112.12C72.8235 111.816 72.7621 111.443 72.7621 111V105.808H71.4181V104.728H72.8021L73.1621 102.32H74.2501V104.72H76.1141V105.808ZM82.3485 105.808H80.4845V110.952C80.4845 111.245 80.5138 111.461 80.5725 111.6C80.6365 111.733 80.7405 111.819 80.8845 111.856C81.0338 111.893 81.2365 111.912 81.4925 111.912H82.3965V112.904C82.2952 112.941 82.1405 112.973 81.9325 113C81.7298 113.027 81.4765 113.04 81.1725 113.04C80.6018 113.04 80.1592 112.963 79.8445 112.808C79.5298 112.653 79.3085 112.424 79.1805 112.12C79.0578 111.816 78.9965 111.443 78.9965 111V105.808H77.6525V104.728H79.0365L79.3965 102.32H80.4845V104.72H82.3485V105.808ZM85.3113 109.208C85.3113 109.731 85.3966 110.205 85.5673 110.632C85.7433 111.053 86.0073 111.389 86.3593 111.64C86.7166 111.891 87.1619 112.016 87.6953 112.016C88.2233 112.016 88.6766 111.893 89.0553 111.648C89.4393 111.403 89.6846 111.048 89.7913 110.584H91.1913C91.0899 111.144 90.8659 111.616 90.5193 112C90.1726 112.384 89.7539 112.675 89.2633 112.872C88.7726 113.064 88.2606 113.16 87.7273 113.16C86.9539 113.16 86.2739 112.992 85.6873 112.656C85.1006 112.32 84.6419 111.837 84.3113 111.208C83.9806 110.579 83.8153 109.824 83.8153 108.944C83.8153 108.075 83.9646 107.312 84.2633 106.656C84.5619 106 84.9939 105.488 85.5593 105.12C86.1299 104.752 86.8153 104.568 87.6153 104.568C88.3939 104.568 89.0526 104.736 89.5913 105.072C90.1299 105.408 90.5379 105.883 90.8153 106.496C91.0979 107.104 91.2393 107.827 91.2393 108.664V109.208H85.3113ZM85.3193 108.208H89.8153C89.8153 107.733 89.7353 107.307 89.5753 106.928C89.4153 106.544 89.1699 106.243 88.8393 106.024C88.5139 105.8 88.1033 105.688 87.6073 105.688C87.0899 105.688 86.6606 105.813 86.3193 106.064C85.9833 106.309 85.7299 106.627 85.5593 107.016C85.3939 107.4 85.3139 107.797 85.3193 108.208ZM93.2709 113V104.728H94.6789V106.32C94.8175 105.925 95.0122 105.6 95.2629 105.344C95.5135 105.083 95.7989 104.888 96.1189 104.76C96.4442 104.632 96.7802 104.568 97.1269 104.568C97.2495 104.568 97.3695 104.576 97.4869 104.592C97.6042 104.608 97.6949 104.635 97.7589 104.672V106.104C97.6789 106.067 97.5749 106.043 97.4469 106.032C97.3242 106.016 97.2202 106.008 97.1349 106.008C96.8042 105.987 96.4949 106.008 96.2069 106.072C95.9189 106.131 95.6655 106.235 95.4469 106.384C95.2282 106.533 95.0549 106.731 94.9269 106.976C94.8042 107.216 94.7429 107.509 94.7429 107.856V113H93.2709Z" fill="#213360"/>
<path d="M14.9999 144.938C12.7562 144.938 10.9374 146.756 10.9374 149C10.9374 151.244 12.7562 153.063 14.9999 153.063C17.2435 153.063 19.0624 151.244 19.0624 149C19.0624 146.756 17.2435 144.938 14.9999 144.938Z" fill="#213360"/>
<path fill-rule="evenodd" clip-rule="evenodd" d="M8.46178 137.852C12.7719 137.37 17.2278 137.37 21.538 137.852C23.911 138.117 25.825 139.987 26.1035 142.368C26.6188 146.774 26.6188 151.226 26.1035 155.632C25.825 158.013 23.911 159.883 21.538 160.148C17.2278 160.63 12.7719 160.63 8.46179 160.148C6.08879 159.883 4.1748 158.013 3.89628 155.632C3.38093 151.226 3.38093 146.774 3.89628 142.368C4.1748 139.987 6.08879 138.117 8.46178 137.852ZM21.2499 141.5C20.5595 141.5 19.9999 142.06 19.9999 142.75C19.9999 143.44 20.5595 144 21.2499 144C21.9402 144 22.4999 143.44 22.4999 142.75C22.4999 142.06 21.9402 141.5 21.2499 141.5ZM9.06236 149C9.06236 145.721 11.7207 143.063 14.9999 143.063C18.2791 143.063 20.9374 145.721 20.9374 149C20.9374 152.279 18.2791 154.938 14.9999 154.938C11.7207 154.938 9.06236 152.279 9.06236 149Z" fill="#213360"/>
<path d="M47.528 143.432H49.008V155H47.528V143.432ZM51.7553 155V146.728H53.1873V147.928C53.3206 147.699 53.5046 147.483 53.7393 147.28C53.9793 147.077 54.2673 146.915 54.6033 146.792C54.9446 146.669 55.3366 146.608 55.7793 146.608C56.3019 146.608 56.7819 146.712 57.2193 146.92C57.6619 147.128 58.0139 147.453 58.2753 147.896C58.5419 148.333 58.6753 148.899 58.6753 149.592V155H57.1953V149.736C57.1953 149.091 57.0246 148.613 56.6833 148.304C56.3473 147.989 55.9099 147.832 55.3713 147.832C54.9979 147.832 54.6486 147.893 54.3233 148.016C53.9979 148.133 53.7339 148.315 53.5313 148.56C53.3286 148.8 53.2273 149.104 53.2273 149.472V155H51.7553ZM63.8006 155.16C63.2246 155.16 62.6886 155.072 62.1926 154.896C61.702 154.715 61.294 154.435 60.9686 154.056C60.6433 153.672 60.438 153.184 60.3526 152.592H61.6966C61.7713 152.917 61.9046 153.189 62.0966 153.408C62.294 153.621 62.5393 153.784 62.8326 153.896C63.126 154.003 63.446 154.056 63.7926 154.056C64.3473 154.056 64.7953 153.952 65.1366 153.744C65.478 153.536 65.6486 153.216 65.6486 152.784C65.6486 152.48 65.558 152.237 65.3766 152.056C65.2006 151.869 64.926 151.733 64.5526 151.648L62.8406 151.224C62.174 151.064 61.6406 150.813 61.2406 150.472C60.8406 150.131 60.6406 149.653 60.6406 149.04C60.6353 148.555 60.75 148.128 60.9846 147.76C61.2193 147.392 61.5713 147.101 62.0406 146.888C62.51 146.675 63.094 146.568 63.7926 146.568C64.6886 146.568 65.4113 146.771 65.9606 147.176C66.5153 147.576 66.8033 148.165 66.8246 148.944H65.5206C65.4673 148.549 65.2886 148.237 64.9846 148.008C64.686 147.773 64.2833 147.656 63.7766 147.656C63.2486 147.656 62.8193 147.763 62.4886 147.976C62.158 148.184 61.9926 148.509 61.9926 148.952C61.9926 149.245 62.11 149.477 62.3446 149.648C62.5793 149.813 62.926 149.952 63.3846 150.064L65.0406 150.48C65.4246 150.581 65.7393 150.715 65.9846 150.88C66.2353 151.045 66.4326 151.229 66.5766 151.432C66.726 151.635 66.83 151.848 66.8886 152.072C66.9526 152.291 66.9846 152.501 66.9846 152.704C66.9846 153.211 66.8566 153.648 66.6006 154.016C66.35 154.379 65.9873 154.661 65.5126 154.864C65.0433 155.061 64.4726 155.16 63.8006 155.16ZM73.0673 147.808H71.2033V152.952C71.2033 153.245 71.2326 153.461 71.2913 153.6C71.3553 153.733 71.4593 153.819 71.6033 153.856C71.7526 153.893 71.9553 153.912 72.2113 153.912H73.1153V154.904C73.0139 154.941 72.8593 154.973 72.6513 155C72.4486 155.027 72.1953 155.04 71.8913 155.04C71.3206 155.04 70.8779 154.963 70.5633 154.808C70.2486 154.653 70.0273 154.424 69.8993 154.12C69.7766 153.816 69.7153 153.443 69.7153 153V147.808H68.3713V146.728H69.7553L70.1153 144.32H71.2033V146.72H73.0673V147.808ZM77.4339 155.16C76.9005 155.16 76.4285 155.067 76.0179 154.88C75.6072 154.688 75.2845 154.413 75.0499 154.056C74.8205 153.699 74.7059 153.267 74.7059 152.76C74.7059 151.843 75.0259 151.16 75.6659 150.712C76.3059 150.264 77.3325 150.024 78.7459 149.992L80.2259 149.952V149.304C80.2259 148.797 80.0739 148.397 79.7699 148.104C79.4659 147.805 78.9939 147.656 78.3539 147.656C77.8792 147.661 77.4605 147.773 77.0979 147.992C76.7405 148.211 76.5085 148.568 76.4019 149.064H75.0979C75.1299 148.525 75.2819 148.072 75.5539 147.704C75.8259 147.331 76.2045 147.048 76.6899 146.856C77.1805 146.664 77.7592 146.568 78.4259 146.568C79.1459 146.568 79.7432 146.669 80.2179 146.872C80.6979 147.075 81.0552 147.373 81.2899 147.768C81.5299 148.163 81.6499 148.648 81.6499 149.224V155H80.3859L80.2819 153.448C79.9619 154.093 79.5539 154.541 79.0579 154.792C78.5672 155.037 78.0259 155.16 77.4339 155.16ZM77.8819 154.096C78.1592 154.096 78.4339 154.045 78.7059 153.944C78.9832 153.843 79.2365 153.707 79.4659 153.536C79.6952 153.36 79.8765 153.165 80.0099 152.952C80.1485 152.733 80.2205 152.509 80.2259 152.28V150.864L78.9939 150.888C78.3645 150.899 77.8365 150.963 77.4099 151.08C76.9885 151.197 76.6712 151.381 76.4579 151.632C76.2499 151.883 76.1459 152.211 76.1459 152.616C76.1459 153.08 76.3059 153.443 76.6259 153.704C76.9512 153.965 77.3699 154.096 77.8819 154.096ZM87.6651 157.736C86.3638 157.736 85.3505 157.547 84.6251 157.168C83.9051 156.795 83.5451 156.259 83.5451 155.56C83.5451 155.261 83.6145 155.008 83.7531 154.8C83.8918 154.587 84.0571 154.411 84.2491 154.272C84.4411 154.133 84.6198 154.024 84.7851 153.944C84.9505 153.859 85.0571 153.797 85.1051 153.76C85.0145 153.707 84.8998 153.64 84.7611 153.56C84.6278 153.48 84.5105 153.373 84.4091 153.24C84.3078 153.107 84.2571 152.933 84.2571 152.72C84.2571 152.459 84.3798 152.219 84.6251 152C84.8705 151.781 85.2331 151.619 85.7131 151.512C85.2278 151.267 84.8491 150.941 84.5771 150.536C84.3051 150.131 84.1691 149.691 84.1691 149.216C84.1691 148.683 84.3131 148.219 84.6011 147.824C84.8945 147.429 85.3105 147.128 85.8491 146.92C86.3878 146.707 87.0278 146.6 87.7691 146.6C88.3078 146.6 88.7611 146.664 89.1291 146.792C89.4971 146.915 89.8385 147.091 90.1531 147.32C90.2385 147.283 90.3718 147.227 90.5531 147.152C90.7398 147.072 90.9451 146.987 91.1691 146.896C91.3931 146.805 91.6011 146.72 91.7931 146.64C91.9905 146.555 92.1478 146.491 92.2651 146.448L92.2571 147.816L90.8091 148.088C90.8891 148.259 90.9531 148.445 91.0011 148.648C91.0545 148.851 91.0811 149.04 91.0811 149.216C91.0811 149.701 90.9531 150.141 90.6971 150.536C90.4465 150.931 90.0651 151.245 89.5531 151.48C89.0411 151.715 88.4011 151.832 87.6331 151.832C87.5691 151.832 87.4865 151.832 87.3851 151.832C87.2891 151.827 87.2065 151.821 87.1371 151.816C86.5718 151.832 86.1825 151.896 85.9691 152.008C85.7558 152.115 85.6491 152.235 85.6491 152.368C85.6491 152.523 85.7691 152.629 86.0091 152.688C86.2491 152.747 86.6571 152.797 87.2331 152.84C87.4411 152.851 87.6971 152.864 88.0011 152.88C88.3105 152.896 88.6518 152.917 89.0251 152.944C89.8945 152.997 90.5638 153.219 91.0331 153.608C91.5025 153.997 91.7371 154.523 91.7371 155.184C91.7371 155.936 91.4011 156.549 90.7291 157.024C90.0571 157.499 89.0358 157.736 87.6651 157.736ZM87.9291 156.784C88.6918 156.784 89.2758 156.669 89.6811 156.44C90.0865 156.211 90.2891 155.864 90.2891 155.4C90.2891 155.069 90.1638 154.8 89.9131 154.592C89.6678 154.379 89.2918 154.256 88.7851 154.224L86.4651 154.072C86.2571 154.061 86.0411 154.115 85.8171 154.232C85.5931 154.344 85.4011 154.501 85.2411 154.704C85.0865 154.907 85.0091 155.136 85.0091 155.392C85.0091 155.829 85.2465 156.171 85.7211 156.416C86.2011 156.661 86.9371 156.784 87.9291 156.784ZM87.6731 150.88C88.2705 150.88 88.7505 150.741 89.1131 150.464C89.4811 150.187 89.6651 149.776 89.6651 149.232C89.6651 148.672 89.4811 148.245 89.1131 147.952C88.7505 147.659 88.2705 147.512 87.6731 147.512C87.0705 147.512 86.5825 147.661 86.2091 147.96C85.8411 148.253 85.6571 148.677 85.6571 149.232C85.6571 149.755 85.8331 150.16 86.1851 150.448C86.5371 150.736 87.0331 150.88 87.6731 150.88ZM94.1146 155V146.728H95.5226V148.32C95.6613 147.925 95.856 147.6 96.1066 147.344C96.3573 147.083 96.6426 146.888 96.9626 146.76C97.288 146.632 97.624 146.568 97.9706 146.568C98.0933 146.568 98.2133 146.576 98.3306 146.592C98.448 146.608 98.5386 146.635 98.6026 146.672V148.104C98.5226 148.067 98.4186 148.043 98.2906 148.032C98.168 148.016 98.064 148.008 97.9786 148.008C97.648 147.987 97.3386 148.008 97.0506 148.072C96.7626 148.131 96.5093 148.235 96.2906 148.384C96.072 148.533 95.8986 148.731 95.7706 148.976C95.648 149.216 95.5866 149.509 95.5866 149.856V155H94.1146ZM102.403 155.16C101.869 155.16 101.397 155.067 100.987 154.88C100.576 154.688 100.253 154.413 100.019 154.056C99.7893 153.699 99.6746 153.267 99.6746 152.76C99.6746 151.843 99.9946 151.16 100.635 150.712C101.275 150.264 102.301 150.024 103.715 149.992L105.195 149.952V149.304C105.195 148.797 105.043 148.397 104.739 148.104C104.435 147.805 103.963 147.656 103.323 147.656C102.848 147.661 102.429 147.773 102.067 147.992C101.709 148.211 101.477 148.568 101.371 149.064H100.067C100.099 148.525 100.251 148.072 100.523 147.704C100.795 147.331 101.173 147.048 101.659 146.856C102.149 146.664 102.728 146.568 103.395 146.568C104.115 146.568 104.712 146.669 105.187 146.872C105.667 147.075 106.024 147.373 106.259 147.768C106.499 148.163 106.619 148.648 106.619 149.224V155H105.355L105.251 153.448C104.931 154.093 104.523 154.541 104.027 154.792C103.536 155.037 102.995 155.16 102.403 155.16ZM102.851 154.096C103.128 154.096 103.403 154.045 103.675 153.944C103.952 153.843 104.205 153.707 104.435 153.536C104.664 153.36 104.845 153.165 104.979 152.952C105.117 152.733 105.189 152.509 105.195 152.28V150.864L103.963 150.888C103.333 150.899 102.805 150.963 102.379 151.08C101.957 151.197 101.64 151.381 101.427 151.632C101.219 151.883 101.115 152.211 101.115 152.616C101.115 153.08 101.275 153.443 101.595 153.704C101.92 153.965 102.339 154.096 102.851 154.096ZM109.146 155V146.728H110.57V147.928C110.799 147.565 111.114 147.248 111.514 146.976C111.914 146.704 112.434 146.568 113.074 146.568C113.373 146.568 113.677 146.619 113.986 146.72C114.301 146.821 114.589 146.973 114.85 147.176C115.111 147.379 115.314 147.627 115.458 147.92C115.714 147.515 116.061 147.189 116.498 146.944C116.935 146.693 117.429 146.568 117.978 146.568C118.266 146.568 118.567 146.613 118.882 146.704C119.197 146.789 119.487 146.944 119.754 147.168C120.026 147.387 120.247 147.693 120.418 148.088C120.589 148.477 120.674 148.979 120.674 149.592V155H119.186V149.736C119.186 149.235 119.106 148.848 118.946 148.576C118.786 148.299 118.575 148.104 118.314 147.992C118.058 147.88 117.783 147.824 117.49 147.824C117.234 147.824 116.962 147.875 116.674 147.976C116.386 148.077 116.141 148.248 115.938 148.488C115.735 148.728 115.634 149.056 115.634 149.472V155H114.162V149.304C114.162 148.979 114.074 148.707 113.898 148.488C113.727 148.269 113.511 148.104 113.25 147.992C112.994 147.88 112.738 147.824 112.482 147.824C112.199 147.824 111.914 147.88 111.626 147.992C111.343 148.104 111.103 148.283 110.906 148.528C110.714 148.768 110.618 149.083 110.618 149.472V155H109.146Z" fill="#213360"/>
<path d="M1.944 0.647999H5.436V18H1.944V0.647999ZM20.8708 18H17.3788L14.0308 12.648L12.3868 14.4V18H8.88281V0.167999H12.3868V10.74L16.9468 5.592H20.7148L16.2028 10.536L20.8708 18ZM27.2126 18.24C26.6366 18.24 26.0686 18.152 25.5086 17.976C24.9566 17.8 24.4526 17.54 23.9966 17.196C23.5406 16.852 23.1726 16.428 22.8926 15.924C22.6206 15.42 22.4846 14.836 22.4846 14.172V5.592H25.9886V13.728C25.9886 14.304 26.1766 14.776 26.5526 15.144C26.9286 15.512 27.4806 15.696 28.2086 15.696C28.8966 15.696 29.4406 15.52 29.8406 15.168C30.2486 14.808 30.4526 14.308 30.4526 13.668V5.592H33.9206V18H31.2806L30.8726 15.54C30.7286 16.268 30.4566 16.828 30.0566 17.22C29.6646 17.604 29.2126 17.868 28.7006 18.012C28.1966 18.164 27.7006 18.24 27.2126 18.24ZM44.3334 8.028H41.5734L41.5974 14.64C41.5974 14.944 41.6334 15.172 41.7054 15.324C41.7854 15.468 41.9054 15.564 42.0654 15.612C42.2334 15.652 42.4454 15.672 42.7014 15.672H44.3694V17.832C44.2094 17.904 43.9574 17.972 43.6134 18.036C43.2774 18.1 42.8054 18.132 42.1974 18.132C41.1094 18.132 40.2654 17.992 39.6654 17.712C39.0734 17.432 38.6614 17.04 38.4294 16.536C38.1974 16.032 38.0814 15.448 38.0814 14.784V8.028H36.0654V5.592H38.2014L39.0774 1.848H41.5734V5.58H44.3334V8.028ZM50.4499 5.592V18H47.1019V5.592H50.4499ZM50.4859 0.659999V3.816H47.0779V0.659999H50.4859ZM73.7709 18H69.9549L65.3589 9.924L62.7909 13.02V18H59.1549V0.647999H62.7909V8.592L69.1149 0.647999H73.1349L67.8669 7.368L73.7709 18ZM79.2328 18.24C78.4408 18.24 77.7288 18.092 77.0968 17.796C76.4648 17.5 75.9648 17.072 75.5968 16.512C75.2288 15.944 75.0448 15.256 75.0448 14.448C75.0448 13.088 75.5528 12.056 76.5688 11.352C77.5848 10.64 79.1888 10.272 81.3808 10.248L82.9288 10.224V9.48C82.9288 8.912 82.7608 8.476 82.4248 8.172C82.0968 7.86 81.5848 7.708 80.8888 7.716C80.3768 7.724 79.8888 7.844 79.4248 8.076C78.9688 8.308 78.6568 8.712 78.4888 9.288H75.5728C75.6208 8.392 75.8808 7.656 76.3528 7.08C76.8248 6.496 77.4648 6.064 78.2728 5.784C79.0888 5.496 80.0128 5.352 81.0448 5.352C82.3168 5.352 83.3368 5.512 84.1048 5.832C84.8728 6.144 85.4288 6.596 85.7728 7.188C86.1168 7.772 86.2888 8.468 86.2888 9.276V18H83.3608L83.0728 15.864C82.6488 16.76 82.1168 17.38 81.4768 17.724C80.8448 18.068 80.0968 18.24 79.2328 18.24ZM80.4088 15.936C80.7288 15.936 81.0368 15.88 81.3328 15.768C81.6368 15.648 81.9048 15.492 82.1368 15.3C82.3768 15.1 82.5688 14.876 82.7128 14.628C82.8568 14.38 82.9288 14.124 82.9288 13.86V12.024L81.6688 12.048C81.0848 12.056 80.5408 12.128 80.0368 12.264C79.5328 12.392 79.1248 12.604 78.8128 12.9C78.5088 13.196 78.3568 13.596 78.3568 14.1C78.3568 14.676 78.5568 15.128 78.9568 15.456C79.3568 15.776 79.8408 15.936 80.4088 15.936ZM89.3906 18V5.592H92.8226V7.344C93.1986 6.8 93.7026 6.332 94.3346 5.94C94.9746 5.548 95.7786 5.352 96.7466 5.352C97.1706 5.352 97.6026 5.428 98.0426 5.58C98.4826 5.732 98.8946 5.956 99.2786 6.252C99.6706 6.54 99.9866 6.904 100.227 7.344C100.627 6.776 101.151 6.304 101.799 5.928C102.455 5.544 103.183 5.352 103.983 5.352C104.447 5.352 104.915 5.428 105.387 5.58C105.867 5.732 106.307 5.98 106.707 6.324C107.107 6.668 107.427 7.128 107.667 7.704C107.915 8.272 108.039 8.976 108.039 9.816V18H104.535V10.248C104.535 9.752 104.435 9.356 104.235 9.06C104.043 8.756 103.795 8.54 103.491 8.412C103.195 8.276 102.879 8.208 102.543 8.208C102.231 8.208 101.915 8.272 101.595 8.4C101.275 8.52 101.003 8.716 100.779 8.988C100.555 9.26 100.443 9.616 100.443 10.056V18H96.9506V9.936C96.9506 9.56 96.8506 9.244 96.6506 8.988C96.4506 8.732 96.1986 8.54 95.8946 8.412C95.5986 8.276 95.2946 8.208 94.9826 8.208C94.6626 8.208 94.3426 8.276 94.0226 8.412C93.7026 8.54 93.4346 8.744 93.2186 9.024C93.0026 9.296 92.8946 9.64 92.8946 10.056V18H89.3906ZM114.411 5.592V18H111.063V5.592H114.411ZM114.447 0.659999V3.816H111.039V0.659999H114.447Z" fill="#213360"/>
</svg>
