<svg width="41" height="41" viewBox="0 0 41 41" fill="none" xmlns="http://www.w3.org/2000/svg">
<path d="M14.0013 12.0807C12.9787 11.0581 11.2894 11.0581 10.2669 12.0807C9.24435 13.1033 9.24435 14.7926 10.2669 15.815L12.312 17.8601L16.0463 14.1481L14.0013 12.0807Z" fill="#B4B9C7"/>
<path d="M18.6692 16.7489L16.6242 14.7039L12.8677 18.4382L14.9127 20.4832C15.9353 21.5058 17.6246 21.5058 18.647 20.4832C19.6917 19.4608 19.6917 17.7936 18.6692 16.7489H18.6692Z" fill="#B4B9C7"/>
<path d="M27.805 17.5712C29.6722 15.7041 29.7612 12.7032 28.0274 10.7471L20.981 17.7935C22.9371 19.5273 25.9379 19.4383 27.8051 17.5712L27.805 17.5712Z" fill="#B4B9C7"/>
<path d="M20.7365 10.5026C18.8694 12.3697 18.7804 15.3706 20.5142 17.3267L27.5606 10.2803C25.6046 8.54632 22.6036 8.63535 20.7365 10.5025L20.7365 10.5026Z" fill="#B4B9C7"/>
<path d="M13.868 6.70137C12.8454 7.72396 12.8454 9.41325 13.868 10.4357C14.8906 11.4583 16.5799 11.4583 17.6023 10.4357L19.6473 8.39065L15.9352 4.63416L13.868 6.70137Z" fill="#B4B9C7"/>
<path d="M18.5357 2.03355L16.4907 4.07858L20.225 7.81289L22.2701 5.76787C23.2926 4.74527 23.2926 3.05599 22.2701 2.03355C21.2476 0.988815 19.5805 0.988815 18.5357 2.03355Z" fill="#B4B9C7"/>
<path d="M7.11648 39H6.07148L3.81648 35.285L2.56148 36.72V39H1.60148V31.77H2.56148V35.51L5.80148 31.77H6.90648L4.49148 34.61L7.11648 39ZM9.57 39.1C9.23667 39.1 8.94167 39.0417 8.685 38.925C8.42833 38.805 8.22667 38.6333 8.08 38.41C7.93667 38.1867 7.865 37.9167 7.865 37.6C7.865 37.0267 8.065 36.6 8.465 36.32C8.865 36.04 9.50667 35.89 10.39 35.87L11.315 35.845V35.44C11.315 35.1233 11.22 34.8733 11.03 34.69C10.84 34.5033 10.545 34.41 10.145 34.41C9.84833 34.4133 9.58667 34.4833 9.36 34.62C9.13667 34.7567 8.99167 34.98 8.925 35.29H8.11C8.13 34.9533 8.225 34.67 8.395 34.44C8.565 34.2067 8.80167 34.03 9.105 33.91C9.41167 33.79 9.77333 33.73 10.19 33.73C10.64 33.73 11.0133 33.7933 11.31 33.92C11.61 34.0467 11.8333 34.2333 11.98 34.48C12.13 34.7267 12.205 35.03 12.205 35.39V39H11.415L11.35 38.03C11.15 38.4333 10.895 38.7133 10.585 38.87C10.2783 39.0233 9.94 39.1 9.57 39.1ZM9.85 38.435C10.0233 38.435 10.195 38.4033 10.365 38.34C10.5383 38.2767 10.6967 38.1917 10.84 38.085C10.9833 37.975 11.0967 37.8533 11.18 37.72C11.2667 37.5833 11.3117 37.4433 11.315 37.3V36.415L10.545 36.43C10.1517 36.4367 9.82167 36.4767 9.555 36.55C9.29167 36.6233 9.09333 36.7383 8.96 36.895C8.83 37.0517 8.765 37.2567 8.765 37.51C8.765 37.8 8.865 38.0267 9.065 38.19C9.26833 38.3533 9.53 38.435 9.85 38.435ZM16.167 34.505H15.002V37.72C15.002 37.9033 15.0204 38.0383 15.057 38.125C15.097 38.2083 15.162 38.2617 15.252 38.285C15.3454 38.3083 15.472 38.32 15.632 38.32H16.197V38.94C16.1337 38.9633 16.037 38.9833 15.907 39C15.7804 39.0167 15.622 39.025 15.432 39.025C15.0754 39.025 14.7987 38.9767 14.602 38.88C14.4054 38.7833 14.267 38.64 14.187 38.45C14.1104 38.26 14.072 38.0267 14.072 37.75V34.505H13.232V33.83H14.097L14.322 32.325H15.002V33.825H16.167V34.505ZM18.0188 36.63C18.0188 36.9567 18.0721 37.2533 18.1788 37.52C18.2888 37.7833 18.4538 37.9933 18.6738 38.15C18.8971 38.3067 19.1754 38.385 19.5088 38.385C19.8388 38.385 20.1221 38.3083 20.3588 38.155C20.5988 38.0017 20.7521 37.78 20.8188 37.49H21.6938C21.6304 37.84 21.4904 38.135 21.2738 38.375C21.0571 38.615 20.7954 38.7967 20.4888 38.92C20.1821 39.04 19.8621 39.1 19.5288 39.1C19.0454 39.1 18.6204 38.995 18.2538 38.785C17.8871 38.575 17.6004 38.2733 17.3938 37.88C17.1871 37.4867 17.0838 37.015 17.0838 36.465C17.0838 35.9217 17.1771 35.445 17.3638 35.035C17.5504 34.625 17.8204 34.305 18.1738 34.075C18.5304 33.845 18.9588 33.73 19.4588 33.73C19.9454 33.73 20.3571 33.835 20.6938 34.045C21.0304 34.255 21.2854 34.5517 21.4588 34.935C21.6354 35.315 21.7238 35.7667 21.7238 36.29V36.63H18.0188ZM18.0238 36.005H20.8338C20.8338 35.7083 20.7838 35.4417 20.6838 35.205C20.5838 34.965 20.4304 34.7767 20.2238 34.64C20.0204 34.5 19.7638 34.43 19.4538 34.43C19.1304 34.43 18.8621 34.5083 18.6488 34.665C18.4388 34.8183 18.2804 35.0167 18.1738 35.26C18.0704 35.5 18.0204 35.7483 18.0238 36.005ZM25.1345 40.71C24.3211 40.71 23.6878 40.5917 23.2345 40.355C22.7845 40.1217 22.5595 39.7867 22.5595 39.35C22.5595 39.1633 22.6028 39.005 22.6895 38.875C22.7761 38.7417 22.8795 38.6317 22.9995 38.545C23.1195 38.4583 23.2311 38.39 23.3345 38.34C23.4378 38.2867 23.5045 38.2483 23.5345 38.225C23.4778 38.1917 23.4061 38.15 23.3195 38.1C23.2361 38.05 23.1628 37.9833 23.0995 37.9C23.0361 37.8167 23.0045 37.7083 23.0045 37.575C23.0045 37.4117 23.0811 37.2617 23.2345 37.125C23.3878 36.9883 23.6145 36.8867 23.9145 36.82C23.6111 36.6667 23.3745 36.4633 23.2045 36.21C23.0345 35.9567 22.9495 35.6817 22.9495 35.385C22.9495 35.0517 23.0395 34.7617 23.2195 34.515C23.4028 34.2683 23.6628 34.08 23.9995 33.95C24.3361 33.8167 24.7361 33.75 25.1995 33.75C25.5361 33.75 25.8195 33.79 26.0495 33.87C26.2795 33.9467 26.4928 34.0567 26.6895 34.2C26.7428 34.1767 26.8261 34.1417 26.9395 34.095C27.0561 34.045 27.1845 33.9917 27.3245 33.935C27.4645 33.8783 27.5945 33.825 27.7145 33.775C27.8378 33.7217 27.9361 33.6817 28.0095 33.655L28.0045 34.51L27.0995 34.68C27.1495 34.7867 27.1895 34.9033 27.2195 35.03C27.2528 35.1567 27.2695 35.275 27.2695 35.385C27.2695 35.6883 27.1895 35.9633 27.0295 36.21C26.8728 36.4567 26.6345 36.6533 26.3145 36.8C25.9945 36.9467 25.5945 37.02 25.1145 37.02C25.0745 37.02 25.0228 37.02 24.9595 37.02C24.8995 37.0167 24.8478 37.0133 24.8045 37.01C24.4511 37.02 24.2078 37.06 24.0745 37.13C23.9411 37.1967 23.8745 37.2717 23.8745 37.355C23.8745 37.4517 23.9495 37.5183 24.0995 37.555C24.2495 37.5917 24.5045 37.6233 24.8645 37.65C24.9945 37.6567 25.1545 37.665 25.3445 37.675C25.5378 37.685 25.7511 37.6983 25.9845 37.715C26.5278 37.7483 26.9461 37.8867 27.2395 38.13C27.5328 38.3733 27.6795 38.7017 27.6795 39.115C27.6795 39.585 27.4695 39.9683 27.0495 40.265C26.6295 40.5617 25.9911 40.71 25.1345 40.71ZM25.2995 40.115C25.7761 40.115 26.1411 40.0433 26.3945 39.9C26.6478 39.7567 26.7745 39.54 26.7745 39.25C26.7745 39.0433 26.6961 38.875 26.5395 38.745C26.3861 38.6117 26.1511 38.535 25.8345 38.515L24.3845 38.42C24.2545 38.4133 24.1195 38.4467 23.9795 38.52C23.8395 38.59 23.7195 38.6883 23.6195 38.815C23.5228 38.9417 23.4745 39.085 23.4745 39.245C23.4745 39.5183 23.6228 39.7317 23.9195 39.885C24.2195 40.0383 24.6795 40.115 25.2995 40.115ZM25.1395 36.425C25.5128 36.425 25.8128 36.3383 26.0395 36.165C26.2695 35.9917 26.3845 35.735 26.3845 35.395C26.3845 35.045 26.2695 34.7783 26.0395 34.595C25.8128 34.4117 25.5128 34.32 25.1395 34.32C24.7628 34.32 24.4578 34.4133 24.2245 34.6C23.9945 34.7833 23.8795 35.0483 23.8795 35.395C23.8795 35.7217 23.9895 35.975 24.2095 36.155C24.4295 36.335 24.7395 36.425 25.1395 36.425ZM31.0544 39.1C30.5777 39.1 30.161 38.9983 29.8044 38.795C29.4477 38.5883 29.171 38.2867 28.9744 37.89C28.7777 37.4933 28.6794 37.0083 28.6794 36.435C28.6794 35.895 28.771 35.4217 28.9544 35.015C29.1377 34.6083 29.406 34.2933 29.7594 34.07C30.116 33.8433 30.5477 33.73 31.0544 33.73C31.531 33.73 31.9444 33.835 32.2944 34.045C32.6477 34.2517 32.921 34.5567 33.1144 34.96C33.3077 35.3633 33.4044 35.855 33.4044 36.435C33.4044 36.9617 33.3144 37.425 33.1344 37.825C32.9577 38.225 32.6944 38.5383 32.3444 38.765C31.9977 38.9883 31.5677 39.1 31.0544 39.1ZM31.0544 38.37C31.3644 38.37 31.626 38.2917 31.8394 38.135C32.0527 37.9783 32.2144 37.7533 32.3244 37.46C32.4344 37.1667 32.4894 36.8183 32.4894 36.415C32.4894 36.045 32.441 35.7133 32.3444 35.42C32.2477 35.1233 32.0927 34.8883 31.8794 34.715C31.6694 34.5417 31.3944 34.455 31.0544 34.455C30.741 34.455 30.476 34.5333 30.2594 34.69C30.0427 34.8433 29.8777 35.0667 29.7644 35.36C29.6544 35.6533 29.5994 36.005 29.5994 36.415C29.5994 36.7783 29.6494 37.1083 29.7494 37.405C29.8494 37.7017 30.006 37.9367 30.2194 38.11C30.4327 38.2833 30.711 38.37 31.0544 38.37ZM34.6146 39V33.83H35.4946V34.825C35.5813 34.5783 35.7029 34.375 35.8596 34.215C36.0163 34.0517 36.1946 33.93 36.3946 33.85C36.5979 33.77 36.8079 33.73 37.0246 33.73C37.1013 33.73 37.1763 33.735 37.2496 33.745C37.3229 33.755 37.3796 33.7717 37.4196 33.795V34.69C37.3696 34.6667 37.3046 34.6517 37.2246 34.645C37.1479 34.635 37.0829 34.63 37.0296 34.63C36.8229 34.6167 36.6296 34.63 36.4496 34.67C36.2696 34.7067 36.1113 34.7717 35.9746 34.865C35.8379 34.9583 35.7296 35.0817 35.6496 35.235C35.5729 35.385 35.5346 35.5683 35.5346 35.785V39H34.6146ZM39.4916 33.83V39H38.5966V33.83H39.4916ZM39.5116 31.775V32.735H38.5666V31.775H39.5116Z" fill="#B4B9C7"/>
</svg>
