<svg width="720" height="768" viewBox="0 0 720 768" fill="none" xmlns="http://www.w3.org/2000/svg">
<g clip-path="url(#clip0_1_24162)">
<ellipse cx="577.5" cy="-23" rx="229.5" ry="139" fill="url(#paint0_radial_1_24162)" fill-opacity="0.2"/>
<ellipse cx="359" cy="523.5" rx="403" ry="101.5" fill="url(#paint1_radial_1_24162)" fill-opacity="0.4"/>
<ellipse cx="-74" cy="192" rx="143" ry="139" fill="url(#paint2_radial_1_24162)" fill-opacity="0.2"/>
<ellipse cx="404" cy="752.5" rx="177" ry="99.5" fill="url(#paint3_radial_1_24162)" fill-opacity="0.2"/>
<path d="M124.16 516.652C124.16 516.652 38.8053 333.682 100.23 292.938C141.286 265.705 184.803 325.739 236.744 293.98C282.985 265.705 268.285 179.684 342.035 167.793C424.953 154.424 443.21 314.868 511.259 292.938C593.829 266.327 675.966 320.347 604.985 517L124.16 516.652Z" fill="#91CECF" fill-opacity="0.45"/>
<path d="M58.7981 500C57.3657 496.511 55.9516 492.893 54.5897 489.25L57.945 488.456C59.2965 492.074 60.7054 495.667 62.1274 499.134L58.7981 500ZM659.102 495.494L655.626 495.153C656.203 491.439 656.751 487.695 657.254 484.032L660.735 484.336C660.231 488.011 659.681 491.765 659.102 495.494ZM50.723 478.423C49.4967 474.823 48.3095 471.158 47.1902 467.525L50.5899 466.862C51.7014 470.473 52.8833 474.118 54.1017 477.694L50.723 478.423ZM662.17 473.154L658.684 472.892C659.128 469.162 659.537 465.408 659.902 461.738L663.391 461.959C663.026 465.643 662.613 469.41 662.17 473.154ZM43.9915 456.563C42.9791 452.895 42.019 449.188 41.1319 445.541L44.5681 445.011C45.4499 448.634 46.4049 452.322 47.4094 455.964L43.9915 456.563ZM664.398 450.749L660.904 450.573C661.202 446.846 661.46 443.085 661.677 439.398L665.173 439.526C664.956 443.231 664.695 447.007 664.398 450.749ZM38.6245 434.464C37.847 430.752 37.1243 427.008 36.4824 423.339L39.9499 422.955C40.5892 426.6 41.3041 430.32 42.079 434.007L38.6245 434.464ZM665.708 428.294L662.209 428.213C662.345 424.469 662.439 420.705 662.488 417.025L665.99 417.055C665.94 420.752 665.843 424.533 665.708 428.294ZM34.7239 412.168C34.2021 408.419 33.7481 404.648 33.3724 400.958L36.8608 400.733C37.2313 404.393 37.6826 408.137 38.2018 411.859L34.7239 412.168ZM662.501 405.835C662.459 402.088 662.371 398.325 662.235 394.65L665.734 394.568C665.87 398.263 665.958 402.044 666 405.81L662.501 405.835ZM32.4566 389.721C32.2244 385.95 32.0704 382.164 32 378.467L35.5014 378.425C35.5719 382.09 35.7258 385.846 35.9554 389.588L32.4566 389.721ZM661.674 383.477C661.434 379.735 661.139 375.979 660.795 372.317L664.286 372.109C664.63 375.794 664.928 379.57 665.17 383.334L661.674 383.477ZM35.5327 367.257L32.0313 367.2C32.1278 363.419 32.3157 359.63 32.5897 355.943L36.0833 356.106C35.8145 359.759 35.6293 363.51 35.5327 367.257ZM659.582 361.178C659.115 357.437 658.585 353.7 658.008 350.07L661.481 349.721C662.06 353.374 662.595 357.135 663.065 360.901L659.582 361.178ZM37.1973 344.983L33.7142 344.704C34.189 340.937 34.7683 337.171 35.4362 333.511L38.9011 333.912C38.241 337.532 37.667 341.256 37.1973 344.983ZM656.046 339.006C655.318 335.289 654.517 331.585 653.669 327.996L657.111 327.482C657.967 331.097 658.773 334.832 659.506 338.578L656.046 339.006ZM242.012 338.613C237.149 338.002 233.629 336.241 228.755 333.197L230.968 331.038C235.239 333.696 238.323 335.292 242.385 335.843L242.012 338.613ZM254.158 331.983L251.04 330.717C252.642 328.219 254.059 324.754 255.251 320.417L258.671 321.013C257.398 325.647 255.921 329.235 254.158 331.983ZM218.481 325.207C215.692 322.736 212.712 319.89 209.37 316.512L212.12 314.788C215.415 318.119 218.348 320.919 221.085 323.345L218.481 325.207ZM41.2388 322.922L37.8027 322.39C38.7106 318.671 39.736 314.964 40.8527 311.371L44.2524 312.041C43.1487 315.587 42.1338 319.249 41.2388 322.922ZM650.841 317.061C649.805 313.381 648.686 309.734 647.517 306.219L650.901 305.507C652.08 309.056 653.21 312.738 654.256 316.453L650.841 317.061ZM261.027 309.798L257.555 309.442C258.092 306.116 258.575 302.475 259.029 298.309L262.517 298.548C262.058 302.755 261.57 306.435 261.027 309.798ZM200.796 307.535C197.95 304.476 194.999 301.244 192.455 298.454L195.288 296.817C197.827 299.602 200.773 302.829 203.609 305.876L200.796 307.535ZM457.099 307.305C454.373 307.305 451.698 306.657 449.149 305.379L451.015 303.022C454.845 304.946 458.612 304.951 462.68 303.415L464.186 305.93C461.78 306.843 459.395 307.305 457.099 307.305ZM47.9756 301.303L44.6281 300.49C46.0187 296.869 47.5451 293.269 49.1627 289.789L52.445 290.756C50.8508 294.184 49.3453 297.732 47.9756 301.303ZM475.632 298.647L473.059 296.758C475.713 294.47 478.559 291.649 481.758 288.13L484.594 289.764C481.314 293.37 478.382 296.276 475.632 298.647ZM439.193 296.731C436.928 293.949 434.682 290.674 432.328 286.718L435.493 285.526C437.779 289.369 439.95 292.539 442.131 295.215L439.193 296.731ZM643.648 295.497C642.239 291.886 640.733 288.333 639.176 284.935L642.466 283.98C644.042 287.42 645.565 291.016 646.993 294.668L643.648 295.497ZM184.158 289.371C180.954 285.887 178.285 283.028 175.757 280.372L178.548 278.691C181.087 281.359 183.769 284.232 186.984 287.727L184.158 289.371ZM263.569 287.299L260.075 287.118C260.341 283.854 260.61 280.187 260.9 275.904L264.396 276.054C264.106 280.347 263.835 284.025 263.569 287.299ZM57.6919 280.441L54.4879 279.316C56.4108 275.852 58.459 272.451 60.635 269.125L63.7398 270.414C61.6003 273.685 59.5835 277.031 57.6919 280.441ZM492.614 280.441L489.69 278.911C492.179 275.901 494.746 272.711 497.347 269.491L500.293 270.997C497.686 274.224 495.114 277.417 492.614 280.441ZM426.695 276.319C425.109 273.154 423.47 269.701 421.686 265.762L424.978 264.817C426.75 268.727 428.376 272.152 429.946 275.288L426.695 276.319ZM634.025 274.583C632.144 271.094 630.153 267.706 628.108 264.511L631.228 263.247C633.308 266.496 635.33 269.941 637.242 273.485L634.025 274.583ZM167.115 271.541C163.937 268.403 160.981 265.611 158.075 263.002L160.694 261.152C163.637 263.794 166.63 266.618 169.842 269.79L167.115 271.541ZM265.126 264.815L261.63 264.674C261.865 260.952 262.1 257.228 262.35 253.439L265.846 253.585C265.596 257.374 265.361 261.096 265.126 264.815ZM507.969 261.585L505.049 260.049C507.974 256.528 510.591 253.481 513.046 250.736L515.898 252.354C513.464 255.069 510.87 258.091 507.969 261.585ZM70.6826 260.799L67.7317 259.3C70.4817 255.873 73.3204 252.774 76.1617 250.096L78.8361 251.894C76.0939 254.478 73.3517 257.475 70.6826 260.799ZM417.01 255.131C415.406 251.387 413.83 247.64 412.502 244.47L415.823 243.589C417.151 246.755 418.722 250.496 420.326 254.233L417.01 255.131ZM148.45 254.935C144.873 252.163 141.353 249.715 137.992 247.655L140.127 245.447C143.594 247.571 147.216 250.091 150.892 252.937L148.45 254.935ZM621.311 254.817C618.804 251.56 616.171 248.479 613.494 245.659L616.286 243.978C619.033 246.869 621.729 250.024 624.296 253.36L621.311 254.817ZM88.6568 244.314L86.5329 242.098C90.7127 239.561 95.0647 237.731 99.4663 236.658L100.492 239.321C96.4867 240.298 92.5052 241.977 88.6568 244.314ZM524.341 243.461L521.622 241.708C524.905 238.483 528.017 235.711 531.133 233.228L533.609 235.196C530.58 237.61 527.548 240.313 524.341 243.461ZM266.629 242.368L263.136 242.202C263.438 238.151 263.741 234.474 264.057 230.96L267.548 231.158C267.232 234.662 266.932 238.327 266.629 242.368ZM126.418 241.784C122.051 240.053 117.754 238.95 113.647 238.503L114.122 235.743C118.607 236.232 123.267 237.424 127.976 239.291L126.418 241.784ZM604.488 237.281C601.117 234.534 597.628 232.108 594.116 230.072L596.178 227.819C599.849 229.946 603.486 232.476 606.992 235.335L604.488 237.281ZM408.035 233.809C406.295 229.664 404.857 226.284 403.519 223.173L406.83 222.27C408.173 225.389 409.611 228.774 411.354 232.926L408.035 233.809ZM544.087 228.084L542.08 225.802C546.385 223.405 550.735 221.63 555.006 220.524L556.086 223.173C552.146 224.194 548.107 225.846 544.087 228.084ZM582.284 224.671C577.948 223.215 573.559 222.315 569.239 221.993L569.565 219.219C574.24 219.567 578.978 220.537 583.644 222.102L582.284 224.671ZM268.667 219.973L265.179 219.726C265.614 215.816 266.089 212.042 266.59 208.506L270.068 208.817C269.572 212.331 269.1 216.085 268.667 219.973ZM398.861 212.576C397.171 208.82 395.576 205.385 393.988 202.076L397.257 201.082C398.853 204.408 400.456 207.86 402.157 211.636L398.861 212.576ZM271.853 197.706L268.388 197.308C269.095 193.408 269.875 189.657 270.702 186.158L274.143 186.672C273.322 190.134 272.552 193.846 271.853 197.706ZM388.788 191.675C386.906 188.074 385.01 184.629 383.152 181.434L386.33 180.265C388.208 183.492 390.123 186.971 392.023 190.606L388.788 191.675ZM277.113 175.774L273.716 175.099C274.937 171.209 276.283 167.544 277.715 164.208L281.029 165.108C279.628 168.37 278.31 171.958 277.113 175.774ZM376.934 171.436C374.633 167.984 372.28 164.744 369.945 161.806L372.903 160.318C375.285 163.315 377.683 166.616 380.029 170.13L376.934 171.436ZM286.289 154.9L283.15 153.666C285.449 149.959 287.998 146.682 290.727 143.925L293.477 145.648C290.896 148.255 288.478 151.366 286.289 154.9ZM361.919 152.77C358.861 149.719 355.701 147.016 352.534 144.736L354.882 142.668C358.191 145.05 361.478 147.864 364.656 151.032L361.919 152.77ZM303.243 138.43L301.356 136.083C305.502 133.971 310.073 132.596 314.937 132L315.469 134.752C311.088 135.291 306.976 136.528 303.243 138.43ZM341.49 138.427C337.412 136.679 333.164 135.482 328.864 134.871L329.477 132.129C334.145 132.789 338.745 134.085 343.152 135.974L341.49 138.427Z" fill="#A2B5E2" fill-opacity="0.5"/>
<path d="M689.325 458.231C659.521 454.728 664.382 486.366 621.899 486.366C583.056 486.366 570.627 365.88 542.366 400.323C397.478 576.891 481.61 325.233 366.385 322.035C314.283 320.588 279.563 364.627 266.762 442.601C248.204 513.091 205.164 388.836 160.871 400.39C132.721 407.733 135.944 486.366 97.1011 486.366C54.6176 486.366 59.4813 454.728 29.6751 458.231C-2.41437 462 -12 518 -12 518H731C731 518 721.414 462 689.325 458.231Z" fill="#7AC7C4" fill-opacity="0.7"/>
<path d="M662.972 489.192C635.569 487.538 640.039 502.481 600.978 502.481C565.263 502.481 566.244 468.988 542.344 461.87C498.33 448.763 462.045 515.103 444.982 481.809C412.574 393.462 318.051 349.158 274.446 481.809C257.383 515.103 217.479 455.694 177.085 461.87C152.221 465.673 154.166 502.481 118.451 502.481C79.3892 502.481 83.8596 487.538 56.4567 489.192C26.951 490.974 18.1387 517.423 18.1387 517.423H701.293C701.29 517.423 692.478 490.974 662.972 489.192Z" fill="#E1ECEF" fill-opacity="0.7"/>
<path d="M-11.5767 517.423C-11.5767 517.423 -16.2343 533.337 5.3498 537.321C34.8715 542.77 208.157 557.089 166.062 567.969C142.297 574.11 178.194 582.451 293.943 585.521C409.691 588.593 608.307 576.559 541.516 558.756C474.725 540.953 727.183 559.987 731.003 517.423H-11.5767Z" fill="#7AB9C7"/>
<path d="M303.094 361.045V532.224C303.094 540.818 334.394 547.787 373.005 547.787C411.617 547.787 442.916 540.818 442.916 532.224V361.045H303.094Z" fill="#2B478B"/>
<path d="M373.005 376.608C411.616 376.608 442.916 369.64 442.916 361.045C442.916 352.449 411.616 345.481 373.005 345.481C334.394 345.481 303.094 352.449 303.094 361.045C303.094 369.64 334.394 376.608 373.005 376.608Z" fill="#233862"/>
<path d="M319.717 298.73V354.472C319.717 361.025 343.575 366.336 373.005 366.336C402.435 366.336 426.294 361.025 426.294 354.472V298.73H319.717Z" fill="#2B478B"/>
<path d="M373.005 310.594C402.436 310.594 426.294 305.282 426.294 298.73C426.294 292.178 402.436 286.866 373.005 286.866C343.575 286.866 319.717 292.178 319.717 298.73C319.717 305.282 343.575 310.594 373.005 310.594Z" fill="#233862"/>
<path d="M408.556 488.071C428.193 468.429 428.193 436.583 408.556 416.941C388.919 397.299 357.082 397.299 337.445 416.941C317.808 436.583 317.808 468.429 337.445 488.071C357.082 507.713 388.919 507.713 408.556 488.071Z" fill="#233862"/>
<path d="M405.856 454.595H340.152C338.998 454.595 338.064 453.661 338.064 452.507C338.064 451.353 338.998 450.418 340.152 450.418H405.856C407.01 450.418 407.944 451.353 407.944 452.507C407.944 453.661 407.008 454.595 405.856 454.595Z" fill="#D4E8FF"/>
<path d="M405.856 438.479H340.152C338.998 438.479 338.064 437.545 338.064 436.39C338.064 435.236 338.998 434.302 340.152 434.302H405.856C407.01 434.302 407.944 435.236 407.944 436.39C407.944 437.545 407.008 438.479 405.856 438.479Z" fill="#D4E8FF"/>
<path d="M405.856 470.709H340.152C338.998 470.709 338.064 469.774 338.064 468.62C338.064 467.466 338.998 466.532 340.152 466.532H405.856C407.01 466.532 407.944 467.466 407.944 468.62C407.944 469.774 407.008 470.709 405.856 470.709Z" fill="#D4E8FF"/>
<path d="M578.569 525.492L508.521 510.537C500.449 508.814 495.3 500.87 497.025 492.795L525.335 360.236C527.059 352.162 535.003 347.011 543.075 348.735L613.123 363.689C621.196 365.413 626.344 373.357 624.619 381.431L596.309 513.99C594.586 522.067 586.644 527.216 578.569 525.492Z" fill="#2B478B"/>
<path d="M548.745 384.201C548.743 384.198 542.879 374.022 542.892 374.02L553.647 367.827C558.004 365.121 563.843 369.515 562.343 374.391C561.951 375.842 561.009 377.145 559.603 377.955C559.601 377.954 548.747 384.214 548.745 384.201Z" fill="#EE5463"/>
<path d="M529.85 388.257C528.263 385.45 529.235 381.884 532.034 380.272L542.884 374.023C542.898 374.017 548.75 384.2 548.744 384.205C543.763 386.317 534.338 395.766 529.85 388.257Z" fill="white"/>
<path d="M600.977 395.264C600.976 395.261 595.111 385.085 595.124 385.083L605.879 378.89C610.236 376.184 616.076 380.578 614.576 385.454C614.184 386.905 613.241 388.208 611.835 389.018C611.833 389.017 600.979 395.277 600.977 395.264Z" fill="#EE5463"/>
<path d="M582.082 399.32C580.495 396.513 581.468 392.947 584.266 391.335L595.116 385.086C595.129 385.079 600.983 395.263 600.976 395.268C595.995 397.38 586.57 406.829 582.082 399.32Z" fill="white"/>
<path d="M526.514 489.123C526.513 489.12 520.649 478.944 520.661 478.942L531.416 472.749C535.774 470.043 541.613 474.437 540.113 479.313C539.721 480.764 538.778 482.067 537.372 482.877C537.369 482.878 526.516 489.135 526.514 489.123Z" fill="#EE5463"/>
<path d="M507.619 493.181C506.032 490.375 507.005 486.808 509.803 485.196L520.653 478.948C520.666 478.94 526.52 489.124 526.513 489.129C521.532 491.241 512.107 500.69 507.619 493.181Z" fill="white"/>
<path d="M578.745 500.185C578.743 500.182 572.879 490.006 572.892 490.004L583.647 483.812C588.004 481.106 593.843 485.499 592.343 490.375C591.952 491.826 591.009 493.129 589.603 493.94C589.6 493.941 578.747 500.198 578.745 500.185Z" fill="#EE5463"/>
<path d="M559.85 504.242C558.263 501.436 559.235 497.869 562.034 496.257L572.884 490.009C572.896 490.001 578.75 500.185 578.744 500.19C573.764 502.305 564.337 511.753 559.85 504.242Z" fill="white"/>
<path d="M533.926 454.148C533.925 454.145 528.061 443.969 528.073 443.967L538.828 437.775C543.186 435.069 549.025 439.462 547.525 444.338C547.133 445.789 546.19 447.092 544.784 447.903C544.782 447.904 533.929 454.161 533.926 454.148Z" fill="#EE5463"/>
<path d="M515.032 458.207C513.445 455.401 514.417 451.834 517.216 450.222L528.065 443.973C528.078 443.966 533.932 454.15 533.925 454.155C528.944 456.267 519.517 465.715 515.032 458.207Z" fill="white"/>
<path d="M586.157 465.211C586.155 465.208 580.291 455.032 580.304 455.03L591.059 448.838C595.416 446.131 601.255 450.525 599.755 455.401C599.364 456.852 598.421 458.155 597.015 458.966C597.012 458.967 586.157 465.223 586.157 465.211Z" fill="#EE5463"/>
<path d="M567.262 469.27C565.675 466.464 566.648 462.897 569.446 461.285L580.296 455.036C580.308 455.029 586.162 465.213 586.156 465.218C581.175 467.33 571.75 476.779 567.262 469.27Z" fill="white"/>
<path d="M541.336 419.175C541.335 419.173 535.471 408.997 535.484 408.994L546.238 402.802C550.596 400.096 556.435 404.49 554.935 409.365C554.543 410.816 553.6 412.119 552.195 412.93C552.193 412.929 541.339 419.188 541.336 419.175Z" fill="#EE5463"/>
<path d="M522.44 423.232C520.853 420.426 521.825 416.859 524.624 415.247L535.474 408.998C535.486 408.991 541.34 419.175 541.334 419.18C536.353 421.292 526.927 430.741 522.44 423.232Z" fill="white"/>
<path d="M593.567 430.236C593.566 430.234 587.701 420.058 587.714 420.055L598.469 413.863C602.826 411.157 608.665 415.551 607.165 420.426C606.774 421.877 605.831 423.18 604.425 423.991C604.422 423.992 593.569 430.249 593.567 430.236Z" fill="#EE5463"/>
<path d="M574.672 434.295C573.085 431.489 574.058 427.922 576.856 426.31L587.706 420.061C587.718 420.054 593.572 430.238 593.566 430.243C588.585 432.355 579.16 441.804 574.672 434.295Z" fill="white"/>
<path d="M545.459 509.632C544.246 509.374 543.473 508.184 543.73 506.973L573.531 366.324C573.789 365.112 574.979 364.338 576.189 364.595C577.401 364.853 578.175 366.043 577.918 367.253L548.118 507.9C547.862 509.113 546.671 509.89 545.459 509.632Z" fill="#91CECF" fill-opacity="0.45"/>
<path d="M471.698 313.753L469.193 294.369C467.206 280.888 447.124 283.48 448.629 297.03L451.13 316.375C442.385 321.198 436.8 331.114 438.22 341.764L461.371 520.864C466.049 554.114 517.721 547.336 513.786 514.086L490.636 334.986C489.313 324.201 481.35 316.234 471.698 313.753Z" fill="#EE5463"/>
<path d="M492.373 511.794L481.494 513.202L453.47 296.4C453.081 293.396 455.202 290.645 458.205 290.256C461.208 289.867 463.958 291.989 464.347 294.992L492.373 511.794Z" fill="#EEF7FF"/>
<path d="M482.013 331.341L469.24 332.992L469.47 334.769L482.243 333.117L482.013 331.341Z" fill="#1D3F70"/>
<path d="M476.527 339.147L470.141 339.973L470.37 341.747L476.757 340.921L476.527 339.147Z" fill="#1D3F70"/>
<path d="M478.332 353.111L471.945 353.937L472.175 355.712L478.561 354.886L478.332 353.111Z" fill="#1D3F70"/>
<path d="M480.137 367.073L473.75 367.898L473.98 369.675L480.366 368.849L480.137 367.073Z" fill="#1D3F70"/>
<path d="M481.941 381.036L475.555 381.861L475.784 383.636L482.171 382.81L481.941 381.036Z" fill="#1D3F70"/>
<path d="M483.746 394.999L477.359 395.825L477.589 397.6L483.975 396.774L483.746 394.999Z" fill="#1D3F70"/>
<path d="M485.551 408.961L479.164 409.787L479.393 411.561L485.78 410.735L485.551 408.961Z" fill="#1D3F70"/>
<path d="M487.355 422.925L480.969 423.751L481.198 425.526L487.585 424.7L487.355 422.925Z" fill="#1D3F70"/>
<path d="M489.16 436.887L482.773 437.712L483.003 439.487L489.389 438.661L489.16 436.887Z" fill="#1D3F70"/>
<path d="M483.818 345.302L471.045 346.954L471.274 348.729L484.048 347.077L483.818 345.302Z" fill="#1D3F70"/>
<path d="M485.621 359.266L472.848 360.918L473.077 362.693L485.85 361.041L485.621 359.266Z" fill="#1D3F70"/>
<path d="M487.425 373.229L474.652 374.88L474.882 376.657L487.655 375.006L487.425 373.229Z" fill="#1D3F70"/>
<path d="M489.23 387.192L476.457 388.843L476.687 390.62L489.46 388.969L489.23 387.192Z" fill="#1D3F70"/>
<path d="M491.035 401.155L478.262 402.806L478.491 404.581L491.264 402.929L491.035 401.155Z" fill="#1D3F70"/>
<path d="M494.642 429.08L481.869 430.732L482.098 432.507L494.872 430.855L494.642 429.08Z" fill="#1D3F70"/>
<path d="M496.447 443.043L483.674 444.695L483.903 446.469L496.676 444.818L496.447 443.043Z" fill="#1D3F70"/>
<path d="M490.965 450.849L484.578 451.675L484.807 453.449L491.194 452.624L490.965 450.849Z" fill="#1D3F70"/>
<path d="M492.767 464.814L486.381 465.64L486.61 467.414L492.997 466.588L492.767 464.814Z" fill="#1D3F70"/>
<path d="M498.252 457.006L485.479 458.658L485.708 460.432L498.481 458.781L498.252 457.006Z" fill="#1D3F70"/>
<path d="M500.054 470.969L487.281 472.621L487.511 474.395L500.284 472.744L500.054 470.969Z" fill="#1D3F70"/>
<path d="M494.574 478.775L488.188 479.601L488.417 481.375L494.803 480.549L494.574 478.775Z" fill="#1D3F70"/>
<path d="M501.861 484.931L489.088 486.583L489.317 488.357L502.09 486.706L501.861 484.931Z" fill="#1D3F70"/>
<path d="M492.839 415.117L480.066 416.769L480.296 418.543L493.069 416.892L492.839 415.117Z" fill="#1D3F70"/>
<path d="M491.151 500.777C486.943 468.553 483.601 440.456 483.601 440.456C483.22 437.336 479.817 435.451 476.723 436.145C473.82 436.52 471.76 439.105 472.124 441.92L479.919 502.224C474.42 504.836 470.385 510.289 471.26 518.142C474.281 538.682 505.863 534.6 503.565 513.965C502.394 506.016 497.261 501.817 491.151 500.777Z" fill="#233862"/>
<path d="M284.499 582.668C284.499 582.666 289.064 564.283 289.083 564.294L308.496 569.128C316.581 570.857 318.453 582.494 311.258 586.482C309.182 587.73 306.628 588.187 304.09 587.556C304.09 587.554 284.486 582.685 284.499 582.668Z" fill="#EE5463"/>
<path d="M258.019 566.245C259.315 561.208 264.429 558.153 269.48 559.411L289.067 564.288C289.088 564.295 284.501 582.673 284.489 582.673C276.345 579.554 254.837 579.989 258.019 566.245Z" fill="white"/>
<path d="M539.722 561.883C539.722 561.881 535.766 543.357 535.788 543.359L555.355 539.193C563.38 537.203 570.164 546.842 565.445 553.58C564.127 555.612 562.032 557.142 559.474 557.688C559.473 557.686 539.719 561.903 539.722 561.883Z" fill="#EE5463"/>
<path d="M508.722 558.73C507.679 553.635 510.937 548.647 516.027 547.563L535.769 543.36C535.792 543.357 539.726 561.886 539.715 561.892C531.028 562.658 511.887 572.478 508.722 558.73Z" fill="white"/>
<path d="M456.477 543.462V552.053C456.477 558.985 444.511 564.606 429.746 564.606C422.3 564.606 415.565 563.175 410.718 560.869C405.956 558.604 403.016 555.489 403.016 552.053V543.462H456.477Z" fill="#F99746"/>
<path d="M456.477 543.462C456.227 558.484 406.228 561.672 403.122 544.582C403.007 543.955 402.975 543.347 403.019 542.762C403.761 532.814 426.319 528.694 441.918 532.271C449.635 534.041 455.652 537.696 456.477 543.462Z" fill="#EFCBAB"/>
<path d="M441.996 532.302L418.542 555.783C417.933 555.662 417.474 555.309 416.891 555.166L439.852 531.828C440.461 531.951 441.411 532.161 441.996 532.302Z" fill="#F39200"/>
<path d="M374.325 191.715C374.325 191.715 377.642 185.507 387.748 187.338C397.856 189.172 400.242 201.603 403.672 207.261C410.939 219.247 413.115 231.984 409.341 238.102C405.148 244.897 395.888 242.239 382.368 241.022C367.938 239.721 361.892 227.583 370.869 210.892L374.325 191.715Z" fill="#662948"/>
<path d="M378.515 220.58C378.515 220.585 378.51 220.585 378.507 220.592C378.485 220.629 378.424 220.724 378.324 220.876C376.828 223.199 367.245 238.545 366.651 251.098C366.585 252.514 366.358 253.913 365.986 255.284C365.185 255.226 364.358 255.167 363.517 255.106C362.41 255.028 361.286 254.947 360.171 254.866C356.734 254.622 353.446 254.384 351.373 254.238C350.026 244.21 363.745 223.649 376.254 221.213C376.254 221.208 376.254 221.208 376.254 221.208C376.258 221.208 376.261 221.204 376.266 221.204C377.603 220.768 378.436 220.59 378.515 220.58Z" fill="white"/>
<path d="M319.902 371.574L340.001 371.361C339.949 368.249 339.094 361.962 339.732 358.409L331.056 359.495C331.296 361.202 331.831 364.904 328.907 365.789C325.121 366.936 320.999 366.583 318.635 369.408C318.022 370.354 318.748 371.586 319.902 371.574Z" fill="#F99370"/>
<path d="M340.591 369.478C340.515 370.138 340.336 370.779 340.001 371.361L319.707 371.576C318.719 371.586 317.996 370.652 318.311 369.747C319.057 367.63 321.699 364.541 331.047 363.969C331.047 363.969 334.318 364.712 339.539 363.739C339.542 363.739 340.899 366.803 340.591 369.478Z" fill="#EE5463"/>
<path d="M324.279 368.989C324.117 368.989 323.966 368.896 323.9 368.745C323.135 366.974 321.788 366.444 321.731 366.422C320.656 364.835 323.726 365.94 324.658 368.437C324.775 368.691 324.562 368.994 324.279 368.989Z" fill="#E8C0A6"/>
<path d="M327.47 368.581C327.297 368.581 327.135 368.473 327.079 368.304C326.397 366.253 324.537 365.319 324.517 365.312C323.535 363.463 327.109 365.414 327.861 368.06C327.949 368.312 327.742 368.586 327.47 368.581Z" fill="#E8C0A6"/>
<path d="M331.099 368.109C330.93 368.109 330.774 368.009 330.713 367.845C329.921 365.715 328.134 364.568 328.117 364.556C327.354 362.617 330.608 364.942 331.485 367.573C331.586 367.828 331.378 368.114 331.099 368.109Z" fill="#E8C0A6"/>
<path d="M318.324 369.716L340.591 369.479C340.516 370.139 340.337 370.779 340.002 371.361L319.708 371.576C318.705 371.589 317.977 370.625 318.324 369.716Z" fill="#395B96"/>
<path d="M383.574 297.204C373.681 296.801 356.449 291.522 349.015 303.718C340.877 317.039 342.87 345.301 343.693 358.959C332.835 362.348 326.995 358.959 326.995 358.959C322.367 331.001 307.133 267.319 358.082 276.154C358.082 276.151 392.249 276.151 392.249 276.151C397.965 287.443 392.853 297.014 383.574 297.204Z" fill="#FCB4B4"/>
<path d="M344.003 371.574L364.102 371.361C364.05 368.249 363.195 361.962 363.833 358.409L355.157 359.495C355.397 361.202 356 364.904 353.008 365.789C349.214 366.911 345.1 366.583 342.736 369.408C342.12 370.354 342.846 371.586 344.003 371.574Z" fill="#F99370"/>
<path d="M364.692 369.476C364.619 370.136 364.438 370.777 364.103 371.359L343.808 371.574C342.821 371.584 342.097 370.65 342.413 369.745C343.158 367.627 345.801 364.539 355.149 363.965C355.149 363.965 358.424 364.811 363.646 363.837C363.646 363.84 364.998 366.803 364.692 369.476Z" fill="#EE5463"/>
<path d="M348.38 368.989C348.219 368.989 348.067 368.896 348.001 368.745C347.239 366.974 345.889 366.444 345.833 366.422C344.757 364.835 347.828 365.94 348.759 368.437C348.876 368.691 348.666 368.994 348.38 368.989Z" fill="#E8C0A6"/>
<path d="M351.57 368.581C351.396 368.581 351.235 368.473 351.179 368.304C350.497 366.253 348.636 365.319 348.617 365.312C347.634 363.463 351.208 365.414 351.961 368.06C352.049 368.312 351.844 368.583 351.57 368.581Z" fill="#E8C0A6"/>
<path d="M368.428 231.613C368.428 231.613 360.86 237.934 358.381 246.169C356.379 252.817 363.283 250.827 364.517 247.176C365.752 243.523 368.428 231.613 368.428 231.613Z" fill="#D1E0F2"/>
<path d="M355.199 368.109C355.03 368.109 354.874 368.009 354.812 367.845C354.02 365.715 352.234 364.568 352.216 364.556C351.454 362.617 354.707 364.942 355.585 367.573C355.685 367.828 355.477 368.114 355.199 368.109Z" fill="#E8C0A6"/>
<path d="M342.425 369.713L364.692 369.476C364.619 370.136 364.438 370.776 364.103 371.358L343.808 371.574C342.806 371.588 342.08 370.625 342.425 369.713Z" fill="#395B96"/>
<path d="M360.864 276.151L357.941 296.798C345.166 301.676 344.244 314.717 343.08 329.383C337.162 306.723 337.678 283.807 360.864 276.151Z" fill="#F49F9F"/>
<path d="M396.45 298.16C386.097 304.337 375.757 297.598 368.477 311.843C362.6 324.316 365.896 348.152 367.509 358.959C356.65 362.348 350.81 358.959 350.81 358.959C344.371 334.842 329.645 278.794 371.259 276.154C382.653 275.802 397.628 275.899 407.7 275.31C407.7 275.31 410.496 289.781 396.45 298.16Z" fill="#FCB4B4"/>
<path d="M407.901 269.605C408.784 275.713 407.503 282.814 407.503 282.814C394.051 278.67 381.821 278.286 361.387 275.52C374.291 238.053 344.4 264.27 378.518 220.575C378.599 220.582 386.993 220.428 386.993 220.428C396.588 227.421 402.738 237.579 407.901 269.605Z" fill="#EE5463"/>
<path d="M378.502 220.59C378.48 220.627 378.419 220.722 378.319 220.873C376.823 223.196 367.24 238.542 366.646 251.096C366.58 252.511 366.353 253.91 365.982 255.282C362.823 267.131 349.354 277.347 339.945 283.548C329.45 290.47 325.945 304.924 327.372 318.917C327.372 318.917 326.536 319.042 325.319 319.113C323.537 319.22 320.941 319.213 318.934 318.541C318.934 318.541 316.397 301.799 321.239 291.48C326.077 281.157 336.723 275.366 349.843 271.466C350.334 271.322 350.801 271.163 351.246 270.997C356.384 269.077 358.672 265.818 359.618 262.233V262.229C360.256 259.818 360.283 257.26 360.168 254.864C360.073 252.856 359.87 250.959 359.841 249.362C359.731 243.702 364.41 235.542 373.594 225.629C375.109 223.996 376.745 222.319 378.502 220.59Z" fill="white"/>
<path d="M410.128 274.053C409.891 278.921 409.282 283.655 408.045 287.7C404.813 298.275 394.128 301.419 383.306 304.882C372.484 308.342 372.184 318.917 372.184 318.917C367.537 320.042 361.357 319.619 357.951 319.247C356.407 319.076 355.434 318.917 355.434 318.917C357.639 292.089 372.963 286.57 381.145 279.225C389.327 271.882 382.573 256.864 382.695 246.164C382.81 235.801 386.743 221.362 386.99 220.47C386.995 220.455 386.998 220.44 387.002 220.426C387.601 220.656 388.186 220.893 388.753 221.142C404.439 227.957 408.703 241.863 409.455 251.695C409.937 257.986 410.516 266.202 410.128 274.053Z" fill="white"/>
<path d="M386.614 231.51C385.614 236.882 384.687 242.872 384.802 246.166C385.039 253.091 389.572 267.999 386.851 276.151C384.13 284.303 373.479 285.817 366.08 296.135C358.68 306.459 357.951 319.247 357.951 319.247C356.407 319.076 355.434 318.917 355.434 318.917C357.639 292.089 372.963 286.57 381.145 279.225C389.327 271.882 382.573 256.864 382.695 246.164C382.81 235.801 386.743 221.362 386.99 220.47C386.995 220.455 386.997 220.44 387.002 220.426C387.633 220.438 388.261 220.47 388.89 220.528C388.863 220.643 388.814 220.854 388.753 221.142C388.384 222.761 387.472 226.91 386.614 231.51Z" fill="#D1E0F2"/>
<path d="M378.515 220.58C378.515 220.585 378.51 220.585 378.508 220.592C378.486 220.629 378.425 220.724 378.325 220.876C376.828 223.199 367.246 238.545 366.652 251.098C366.586 252.514 366.359 253.913 365.987 255.284C362.829 267.134 349.359 277.349 339.95 283.55C329.456 290.473 325.95 304.926 327.378 318.92C327.378 318.92 326.542 319.044 325.325 319.115C322.75 301.439 329.974 287.326 335.949 283.426C339.364 281.196 345.878 275.88 351.249 270.999C355.273 267.344 358.658 263.93 359.621 262.236V262.231C360.946 259.901 362.447 257.438 363.516 255.106C364.256 253.487 364.787 251.93 364.899 250.524C365.171 247.1 365.036 241.887 368.427 235.09C370.116 231.698 372.062 228.246 373.592 225.629C375.132 222.993 376.252 221.211 376.252 221.211L376.264 221.204C377.603 220.768 378.437 220.59 378.515 220.58Z" fill="#D1E0F2"/>
<path d="M325.323 278.295H370.545L361.541 246.166H316.594L325.323 278.295Z" fill="#163260"/>
<path d="M370.544 278.137H325.322V280.318H370.544V278.137Z" fill="#234270"/>
<path d="M360.863 246.166H362.482L371.301 278.137H392.762V280.318H369.793V278.366L360.863 246.166Z" fill="#0B274F"/>
<path d="M378.721 217.665L378.516 220.575C378.516 220.575 378.36 222.252 378.565 223.587C378.944 226.055 381.535 226.847 383.302 225.382C384.953 224.013 386.991 220.428 386.991 220.428C386.991 220.428 386.979 218.744 387.136 217.57L378.721 217.665Z" fill="#F99370"/>
<path d="M388.784 209.332C388.75 209.472 388.711 209.611 388.662 209.746C388.481 209.604 387.449 214.448 387.075 218.14C383.462 220.191 379.285 219.918 378.568 219.705C378.761 214.242 379.236 206.066 383.575 204.542C386.486 203.645 389.571 206.428 388.784 209.332Z" fill="#E57D61"/>
<path d="M377.839 191.336C366.931 190.067 365.203 206.755 372.615 212.895L377.839 191.336Z" fill="#662948"/>
<path d="M390.698 203.095C391.223 206.738 391.258 211.012 389.16 214.154L389.155 214.157C383.418 223.253 364.429 217.389 369.631 206.604C370.396 205.227 370.826 203.554 370.882 202.134C371.054 187.235 389.177 190.36 390.698 203.095Z" fill="#FFB27D"/>
<path d="M376.349 205.034C375.828 204.527 376.659 203.75 377.165 204.268C377.684 204.774 376.852 205.554 376.349 205.034Z" fill="#C16256"/>
<path d="M371.552 205.652C371.031 205.146 371.862 204.369 372.368 204.887C372.889 205.393 372.058 206.173 371.552 205.652Z" fill="#C16256"/>
<path d="M374.408 209.782C373.45 209.931 372.059 209.689 372.966 208.574C373.819 207.731 373.917 205.449 373.92 205.425C373.924 205.158 374.364 205.168 374.35 205.44C374.345 205.54 374.242 207.907 373.274 208.865C373.164 208.975 373.049 209.122 373.13 209.215C373.357 209.477 374.438 209.521 375.059 209.102C375.154 209.036 375.289 209.061 375.357 209.154C375.516 209.589 374.741 209.684 374.408 209.782Z" fill="#C16256"/>
<path d="M390.696 203.095C391.221 206.738 391.256 211.012 389.158 214.154L389.153 214.157C390.121 211.802 389.757 207.288 389.757 207.288L388.42 205.633C374.748 205.454 372.738 195.456 372.738 195.456C378.745 187.629 389.982 194.696 390.696 203.095Z" fill="#E57D61"/>
<path d="M373.785 194.196C373.785 194.196 375.819 204.041 388.193 204.637L391.508 201.307C393.048 192.739 382.539 183.963 373.785 194.196Z" fill="#662948"/>
<path d="M393.527 204.168C393.967 208.337 388.533 208.814 388.191 204.638C387.754 200.471 393.185 199.992 393.527 204.168Z" fill="#F99370"/>
<path d="M392.249 203.09C391.696 201.437 388.416 203.202 389.812 203.263C389.817 203.19 391.271 202.347 391.723 203.078C390.291 203.733 389.814 206.32 390.643 205.484C390.645 205.469 390.816 203.995 391.943 203.437C392.503 207.205 393.012 204.594 392.249 203.09Z" fill="#C16256"/>
<path d="M391.863 206.657C392.056 207.234 391.117 207.513 390.941 206.931C390.751 206.357 391.689 206.075 391.863 206.657Z" fill="#F4D4BE"/>
<path d="M343.355 354.267C343.534 357.191 343.693 358.959 343.693 358.959C332.834 362.348 326.994 358.959 326.994 358.959C326.994 358.959 326.772 357.465 326.305 354.935C326.437 354.996 333.184 358.277 343.355 354.267Z" fill="#F49F9F"/>
<path d="M367.509 358.959C356.65 362.348 350.81 358.959 350.81 358.959C350.81 358.959 350.446 357.605 349.83 355.265C349.83 355.265 355.817 358.282 366.942 355.265C367.269 357.578 367.509 358.959 367.509 358.959Z" fill="#F49F9F"/>
<path d="M378.128 203.347C378.076 203.347 378.023 203.33 377.979 203.298C376.615 202.263 375.373 202.598 375.321 202.613C375.192 202.65 375.057 202.579 375.018 202.454C374.979 202.329 375.053 202.2 375.18 202.161C375.241 202.144 376.705 201.733 378.277 202.924C378.382 203.004 378.402 203.151 378.318 203.254C378.272 203.315 378.201 203.347 378.128 203.347Z" fill="#C16256"/>
<path d="M370.987 203.914C370.941 203.914 370.892 203.902 370.85 203.872C370.738 203.799 370.708 203.652 370.784 203.545C370.816 203.498 371.574 202.427 372.838 202.474C372.972 202.479 373.077 202.589 373.07 202.718C373.065 202.848 372.953 202.953 372.818 202.946C371.826 202.914 371.192 203.799 371.188 203.809C371.141 203.877 371.065 203.914 370.987 203.914Z" fill="#C16256"/>
<path d="M376.241 212.01C375.923 212.01 375.645 211.9 375.466 211.677C375.09 211.203 375.339 210.425 376.033 209.904C376.73 209.383 377.571 209.344 377.947 209.819C378.324 210.293 378.074 211.071 377.38 211.591C377.011 211.868 376.6 212.01 376.241 212.01ZM377.172 209.963C376.93 209.963 376.625 210.061 376.332 210.278C375.828 210.657 375.674 211.168 375.852 211.391C376.031 211.613 376.578 211.599 377.084 211.22C377.588 210.841 377.742 210.33 377.566 210.107C377.488 210.014 377.346 209.963 377.172 209.963Z" fill="#C16256"/>
<path d="M401.836 227.537C412.259 235.109 417.828 248.739 415.075 261.131C414.019 268.092 409.487 274.714 402.398 276.684C398.897 278.041 382.57 280.223 383.33 274.606C383.59 273.259 384.822 272.762 386.017 272.403C387.985 271.731 390.014 270.987 391.891 270.161C395.252 268.469 399.574 266.887 400.305 263.229C401.862 254.688 398.252 246.338 391.669 240.763C391.681 240.77 391.637 240.738 391.735 240.807C382.812 234.361 392.859 221.177 401.836 227.537Z" fill="#FFB27D"/>
<path d="M410.127 274.053C409.479 274.435 408.795 274.804 408.086 275.159C402.925 277.751 397.748 278.156 393.883 278.293C393.883 278.293 394.775 272.704 390.61 270.403C410.264 255.925 389.363 247.492 387.764 233.327C387.138 227.789 388.886 220.531 388.886 220.531C412.899 222.732 437.2 258.231 410.127 274.053Z" fill="white"/>
<path d="M373.371 278.137C373.371 278.137 375.385 271.312 387.408 272.097L389.925 278.137H373.371Z" fill="#FFB27D"/>
<path d="M396.67 278.107C394.952 278.293 393.881 278.296 393.881 278.296C393.881 278.296 394.773 272.706 390.605 270.405C390.605 270.405 391.632 269.76 392.972 268.613C392.972 268.613 397.541 271.862 396.67 278.107Z" fill="#D1E0F2"/>
<path d="M374.026 278.068C371.889 278.132 379.668 272.96 381.987 274.224C382.007 274.408 381.87 274.569 381.682 274.589C377.306 275.031 374.395 278.054 374.026 278.068Z" fill="#E57D61"/>
<path d="M377.321 278.183C375.7 277.513 380.736 276.361 383.229 275.708C383.413 275.672 383.596 275.787 383.633 275.965C383.672 276.144 383.552 276.32 383.366 276.356C380.712 276.89 377.59 278.156 377.321 278.183Z" fill="#E57D61"/>
<path d="M392.521 270.263C392.352 270.263 392.186 270.192 392.074 270.053C391.878 269.813 391.92 269.463 392.167 269.273C399.833 263.375 399.158 255.922 396.836 252.347C394.306 248.455 389.927 241.337 389.883 241.266C389.722 241.002 389.81 240.662 390.081 240.505C390.353 240.349 390.705 240.435 390.866 240.699C390.91 240.769 395.281 247.878 397.804 251.758C400.346 255.668 401.133 263.793 392.878 270.143C392.77 270.224 392.646 270.263 392.521 270.263Z" fill="#D1E0F2"/>
<path d="M395.653 278.22C395.358 278.22 395.106 277.997 395.084 277.706C395.059 277.401 395.296 277.134 395.612 277.112C395.705 277.105 405.009 276.401 409.291 273.902C409.563 273.745 409.912 273.828 410.076 274.092C410.24 274.354 410.152 274.696 409.88 274.853C405.363 277.486 396.088 278.19 395.695 278.217C395.683 278.22 395.668 278.22 395.653 278.22Z" fill="#D1E0F2"/>
<path d="M100.621 391.315V515.189C100.621 519.088 114.076 522.25 130.674 522.25C147.271 522.25 160.727 519.088 160.727 515.189V391.315H100.621Z" fill="#213360"/>
<path d="M153.539 386.473C147.645 384.976 139.578 384.052 130.675 384.052C121.772 384.052 113.704 384.976 107.81 386.473H98V392.526C98 397.206 112.629 400.999 130.675 400.999C148.721 400.999 163.35 397.206 163.35 392.526V386.473H153.539Z" fill="#F99746"/>
<path d="M130.675 394.947C148.721 394.947 163.35 391.153 163.35 386.473C163.35 381.794 148.721 378 130.675 378C112.629 378 98 381.794 98 386.473C98 391.153 112.629 394.947 130.675 394.947Z" fill="#F4B178"/>
<path d="M126.962 505.984L117.547 505.282C117.545 505.282 117.541 505.282 117.539 505.282L108.039 504.574C105.591 504.391 103.453 506.22 103.253 508.666C102.868 515.313 112.838 513.397 116.876 514.2C116.878 514.2 116.88 514.196 116.88 514.196C116.876 514.204 126.382 514.908 126.384 514.908C127.614 514.999 128.766 514.583 129.633 513.836C132.66 511.407 130.861 506.144 126.962 505.984Z" fill="#EE5463"/>
<path d="M150.217 504.278L141.115 506.787C141.113 506.787 141.109 506.789 141.107 506.789L131.923 509.321C129.556 509.975 128.16 512.416 128.793 514.787C130.667 521.176 139.41 516.013 143.483 515.408C143.485 515.408 143.485 515.402 143.485 515.404C143.485 515.414 152.672 512.874 152.672 512.874C153.862 512.545 154.806 511.767 155.371 510.772C157.408 507.467 153.943 503.116 150.217 504.278Z" fill="#EE5463"/>
<path d="M147.304 494.507C144.143 488.649 136.662 495.514 132.806 496.95L132.804 496.956C132.802 496.946 124.342 501.34 124.342 501.34C123.247 501.909 122.485 502.868 122.14 503.957C120.835 507.615 125.129 511.151 128.532 509.239L136.914 504.891C136.916 504.891 136.92 504.889 136.922 504.887L145.379 500.501C147.558 499.373 148.417 496.694 147.304 494.507Z" fill="#EE5463"/>
<path d="M121.327 492.649C121.325 492.649 121.321 492.651 121.321 492.651C121.327 492.643 112.297 489.593 112.295 489.591C111.125 489.195 109.907 489.31 108.882 489.819C105.344 491.414 105.772 496.96 109.507 498.088L118.451 501.116C118.453 501.118 118.457 501.118 118.459 501.118L127.481 504.173C129.806 504.96 132.331 503.723 133.136 501.405C135.169 495.064 125.036 494.433 121.327 492.649Z" fill="#EE5463"/>
<path d="M145.013 490.127C145.011 490.127 145.007 490.129 145.007 490.129C145.015 490.123 136.636 485.574 136.636 485.574C135.551 484.985 134.331 484.89 133.236 485.215C129.476 486.183 128.952 491.721 132.441 493.47L140.737 497.981C140.739 497.983 140.743 497.983 140.745 497.985L149.113 502.537C151.271 503.711 153.97 502.922 155.158 500.776C158.24 494.87 148.363 492.518 145.013 490.127Z" fill="#EE5463"/>
<path d="M134.754 478.89L125.865 482.075C125.863 482.075 125.859 482.077 125.857 482.077L116.89 485.291C114.578 486.121 113.368 488.658 114.177 490.975C116.524 497.205 124.857 491.402 128.87 490.494C128.872 490.494 128.872 490.488 128.872 490.488C128.872 490.498 137.844 487.279 137.846 487.279C139.008 486.863 139.891 486.014 140.379 484.981C142.162 481.531 138.38 477.451 134.754 478.89Z" fill="#EE5463"/>
<path d="M145.814 463.129L137.028 466.589C137.026 466.589 137.022 466.591 137.02 466.591L128.158 470.082C125.873 470.981 124.743 473.556 125.623 475.847C128.162 482.001 136.31 475.944 140.294 474.911C140.296 474.911 140.296 474.905 140.296 474.905C140.296 474.915 149.165 471.417 149.165 471.417C150.312 470.965 151.169 470.09 151.625 469.041C153.301 465.54 149.397 461.58 145.814 463.129Z" fill="#EE5463"/>
<path d="M131.278 462.722L122.232 460.017C122.23 460.017 122.226 460.015 122.224 460.015L113.097 457.285C110.743 456.581 108.264 457.908 107.544 460.255C105.743 466.664 115.892 466.932 119.662 468.581C119.664 468.581 119.668 468.579 119.666 468.579C119.66 468.587 128.795 471.312 128.795 471.312C129.977 471.665 131.191 471.506 132.198 470.963C135.681 469.242 135.054 463.715 131.278 462.722Z" fill="#EE5463"/>
<path d="M122.028 468.324L114.301 473.751C114.299 473.751 114.297 473.755 114.295 473.755L106.499 479.231C104.488 480.643 103.996 483.411 105.39 485.43C109.305 490.815 115.801 483.012 119.432 481.073C119.432 481.071 119.432 481.067 119.432 481.067C119.434 481.077 127.231 475.591 127.233 475.591C128.244 474.881 128.869 473.83 129.067 472.702C129.872 468.907 125.144 465.976 122.028 468.324Z" fill="#EE5463"/>
<path d="M129.506 443.834C127.184 437.594 118.828 443.362 114.81 444.254C114.808 444.254 114.808 444.26 114.808 444.26C114.808 444.25 105.823 447.434 105.823 447.434C104.659 447.845 103.774 448.69 103.279 449.721C101.482 453.163 105.248 457.259 108.881 455.834C108.881 455.834 117.783 452.687 117.783 452.685C117.785 452.685 117.789 452.683 117.791 452.683L126.773 449.508C129.086 448.688 130.307 446.154 129.506 443.834Z" fill="#EE5463"/>
<path d="M144.682 442.696C147.468 436.65 137.486 434.792 134.021 432.571C134.019 432.571 134.014 432.573 134.014 432.573C134.021 432.567 125.428 428.439 125.428 428.439C124.317 427.904 123.093 427.87 122.014 428.249C118.306 429.403 118.06 434.961 121.63 436.533L130.14 440.624C130.142 440.626 130.146 440.626 130.148 440.628L138.732 444.756C140.947 445.821 143.603 444.899 144.682 442.696Z" fill="#EE5463"/>
<path d="M144.376 456.124C142.999 449.61 133.884 454.083 129.78 454.371C129.778 454.371 129.776 454.377 129.776 454.375C129.778 454.365 120.421 456.189 120.421 456.189C119.209 456.425 118.208 457.129 117.569 458.077C115.286 461.217 118.404 465.822 122.208 464.951L131.476 463.149C131.478 463.149 131.482 463.147 131.484 463.147L140.835 461.33C143.245 460.863 144.826 458.535 144.376 456.124Z" fill="#EE5463"/>
<path d="M133.423 486.399C136.172 480.334 126.178 478.539 122.701 476.338C122.699 476.338 122.695 476.34 122.695 476.34C122.701 476.334 114.084 472.258 114.082 472.258C112.967 471.73 111.743 471.705 110.666 472.089C106.966 473.265 106.753 478.823 110.333 480.375L118.867 484.416C118.869 484.418 118.873 484.418 118.875 484.42L127.485 488.495C129.706 489.546 132.356 488.608 133.423 486.399Z" fill="#EE5463"/>
<path d="M148.124 437.877C143.388 433.198 138.243 441.954 134.975 444.456C134.975 444.458 134.975 444.462 134.975 444.462C134.971 444.454 128.166 451.129 128.166 451.129C127.285 451.993 126.837 453.133 126.825 454.277C126.647 458.156 131.787 460.281 134.481 457.458L141.226 450.849C141.228 450.849 141.23 450.845 141.232 450.843L148.035 444.175C149.79 442.454 149.828 439.642 148.124 437.877Z" fill="#EE5463"/>
<path d="M150.31 478.02C150.308 478.02 150.304 478.02 150.304 478.02C150.312 478.016 143.674 471.175 143.674 471.175C142.815 470.289 141.677 469.835 140.534 469.817C136.657 469.619 134.505 474.75 137.314 477.459L143.888 484.24C143.888 484.242 143.892 484.244 143.894 484.246L150.526 491.087C152.236 492.851 155.046 492.903 156.821 491.208C161.52 486.494 152.795 481.301 150.31 478.02Z" fill="#EE5463"/>
<path d="M156.402 464.187L150.138 457.121C150.138 457.119 150.134 457.117 150.132 457.115L143.81 449.988C142.181 448.15 139.375 447.972 137.526 449.586C132.618 454.085 141.106 459.659 143.441 463.049C143.443 463.049 143.447 463.049 143.447 463.049C143.439 463.053 149.767 470.183 149.767 470.183C150.585 471.107 151.701 471.611 152.842 471.678C156.709 472.047 159.087 467.017 156.402 464.187Z" fill="#EE5463"/>
<path d="M157.138 445.17C152.127 440.786 147.521 449.836 144.411 452.532C144.411 452.534 144.411 452.538 144.411 452.538C144.407 452.53 138.017 459.605 138.017 459.605C137.19 460.521 136.811 461.685 136.869 462.827C136.926 466.709 142.184 468.52 144.703 465.54L151.036 458.536C151.038 458.536 151.04 458.532 151.042 458.53L157.432 451.462C159.076 449.641 158.945 446.83 157.138 445.17Z" fill="#EE5463"/>
<path d="M198.137 544.743C200.947 541.03 197.527 524.057 197.648 519.72H210.416C210.561 524.047 207.354 541.057 210.034 544.735C210.796 546.063 197.372 546.047 198.137 544.743Z" fill="#F99370"/>
<path d="M260.656 549.85H238.303C236.978 549.85 235.941 548.711 236.062 547.394C236.273 545.082 236.772 541.907 236.612 540.437C236.7 539.082 234.752 521.535 234.605 519.717H248.686L246.415 537.837C246.148 539.975 247.422 542.009 249.466 542.685C252.229 543.596 255.374 543.992 257.452 544.526C259.459 545.034 261.262 545.732 262.163 547.274C262.831 548.415 261.976 549.85 260.656 549.85Z" fill="#F99370"/>
<path d="M235.316 547.492L235.319 547.517C235.482 548.85 236.612 549.85 237.956 549.85H260.477C261.767 549.85 262.713 548.596 262.32 547.367C261.134 543.657 257.415 541.359 246.869 540.437C246.869 540.437 242.992 541.592 236.614 540.437C236.612 540.437 234.904 544.133 235.316 547.492Z" fill="#395B96"/>
<path d="M199.171 549.853H208.993C210.369 549.853 211.491 548.714 211.427 547.338C211.002 538.091 197.095 538.016 196.734 547.346C196.681 548.717 197.798 549.853 199.171 549.853Z" fill="#395B96"/>
<path d="M255.176 546.659C255.374 546.659 255.561 546.541 255.641 546.346C256.547 544.109 258.182 543.425 258.252 543.398C258.853 543.166 258.482 542.22 257.883 542.466C257.798 542.5 255.791 543.316 254.714 545.969C254.575 546.29 254.832 546.667 255.176 546.659Z" fill="#E8C0A6"/>
<path d="M251.282 546.189C251.495 546.189 251.693 546.05 251.76 545.836C252.556 543.262 254.816 542.049 254.84 542.038C255.418 541.747 254.95 540.841 254.378 541.148C254.271 541.204 251.728 542.554 250.806 545.539C250.699 545.854 250.953 546.194 251.282 546.189Z" fill="#E8C0A6"/>
<path d="M246.852 545.646C247.06 545.646 247.252 545.518 247.325 545.309C248.265 542.605 250.419 541.156 250.443 541.143C250.988 540.793 250.427 539.94 249.89 540.306C249.791 540.373 247.429 541.961 246.379 544.981C246.261 545.296 246.515 545.651 246.852 545.646Z" fill="#E8C0A6"/>
<path d="M200.474 543.433C204.297 541.271 207.696 544.104 208.246 543.139C208.695 542.123 203.688 540.603 200.22 542.5C199.779 542.738 199.982 543.452 200.474 543.433Z" fill="#E8C0A6"/>
<path d="M262.358 547.493H235.316L235.319 547.517C235.482 548.85 236.612 549.85 237.956 549.85H260.715C261.917 549.85 262.772 548.666 262.374 547.533C262.366 547.519 262.361 547.506 262.358 547.493Z" fill="#4867AA"/>
<path d="M198.971 549.852H209.194C210.463 549.852 211.491 548.802 211.438 547.535C211.438 547.522 211.438 547.508 211.435 547.495H196.727C196.727 547.511 196.724 547.527 196.724 547.543C196.679 548.807 197.705 549.852 198.971 549.852Z" fill="#4867AA"/>
<path d="M232.424 318.984C232.424 318.984 233.712 311.729 227.345 309.379L223.324 312.402L232.424 318.984Z" fill="#8C4225"/>
<path d="M243.444 373.188C261.316 386.653 289.285 382.622 299.627 363.038L297.009 357.594C267.026 370.487 255.222 345.228 230.895 343.772L235.795 350.026C235.795 350.026 243.025 372.758 243.444 373.188Z" fill="white"/>
<path d="M196.101 536.99C196.101 536.99 206.847 539.601 212.386 536.795C215.269 518.718 223.268 468.386 226.055 433.895C226.162 435.907 232.016 517.015 233.13 536.795C236.953 538.075 244.64 539.617 248.939 536.519C250.871 515.698 257.075 447.148 247.729 391.161C247.729 391.161 222.117 394.01 202.115 387.965C196.611 405.724 195.152 515.679 196.101 536.99Z" fill="#233862"/>
<path d="M228.114 343.299C228.29 337.777 228.977 326.825 224.496 325.355C221.279 324.238 217.469 326.98 218.46 330.607C218.752 330.423 219.687 340.765 219.04 343.635C210.549 346.185 236.089 354.563 228.114 343.299Z" fill="#FFB27D"/>
<path d="M218.373 330.137C218.395 330.294 218.424 330.455 218.459 330.607C218.67 330.468 219.258 336.174 219.263 340.316C223.153 342.085 227.391 341.393 228.184 341.23C228.401 335.514 228.751 326.954 224.494 325.358C221.459 324.057 217.839 326.825 218.373 330.137Z" fill="#E57D61"/>
<path d="M212.26 326.323C212.915 330.377 214.283 334.947 217.484 337.63H217.489C222.157 341.166 228.994 340.789 233.742 336.893H233.744C237.407 333.469 238.567 328.859 236.638 325.307C235.377 323.215 233.052 321.371 232.427 318.987C226.993 303.109 209.954 311.988 212.26 326.323Z" fill="#FFB27D"/>
<path d="M227.731 323.822C228.102 323.116 226.988 322.549 226.635 323.266C226.264 323.971 227.381 324.538 227.731 323.822Z" fill="#C16256"/>
<path d="M232.891 322.956C233.262 322.25 232.148 321.684 231.795 322.4C231.424 323.103 232.541 323.669 232.891 322.956Z" fill="#C16256"/>
<path d="M212.262 326.323C212.917 330.377 214.285 334.947 217.486 337.63H217.491C217.756 337.852 217.937 337.959 218.228 338.144C215.792 335.725 214.477 330.634 214.477 330.634L215.052 326.24C218.985 322.253 217.291 317.771 217.291 317.771C223.869 319.618 226.084 315.558 226.084 315.558C228.162 315.825 230.351 314.754 230.351 314.754C222.867 303.925 209.946 315.443 212.262 326.323Z" fill="#E57D61"/>
<path d="M214.28 315.756C217.075 316.862 218.058 323.357 211.45 327.798C211.45 327.798 208.249 317.095 214.28 315.756Z" fill="#8C4225"/>
<path d="M294.501 358.623C293.384 364.123 298.247 365.403 298.247 365.403C299.174 364.011 299.631 363.036 299.628 363.038L297.01 357.594C297.01 357.594 295.855 357.982 294.501 358.623Z" fill="#D1E0F2"/>
<path d="M230.937 328.293C232.059 328.279 233.807 327.52 232.388 326.524C231.228 325.895 230.376 323.493 230.368 323.469C230.274 323.186 229.825 323.338 229.93 323.621C229.967 323.728 230.851 326.219 232.166 326.932C233.074 327.491 231.18 328.031 230.397 327.753C230.274 327.713 230.143 327.782 230.106 327.903C230.039 328.319 230.648 328.261 230.937 328.293Z" fill="#C16256"/>
<path d="M199.549 413.068C213.455 418.851 248.093 419.321 251.454 415.227C258.024 399.005 245.902 355.761 230.894 343.775C230.764 343.737 229.07 343.304 228.118 343.304C228.185 343.569 229.866 350.563 219.042 343.638C218.981 343.71 216.402 343.759 215.716 344.232C216.488 355.542 194.493 400.686 199.549 413.068Z" fill="#2B478B"/>
<path d="M244.156 353.479L250.879 377.55C261.363 383.331 279.28 382.144 287.603 375.642C257.812 387.184 255.381 364.374 244.56 353.479H244.156Z" fill="#D1E0F2"/>
<path d="M215.367 309.513C217.558 306.915 221.544 305.646 222.455 303C222.455 303 223.807 305.534 223.65 308.364C224.71 307.174 225.683 305.873 226.444 304.478C227.518 305.563 228.093 306.806 228.267 308.083C231.678 307.34 234.671 308.708 234.671 308.708C232.918 313.666 228.828 314.756 225.619 314.775C222.958 317.325 218.704 318.479 214.592 315.956L210.63 321.077C205.006 311.317 215.367 309.513 215.367 309.513Z" fill="#8C4225"/>
<path d="M189.277 485.792C199.513 488.684 208.261 488.529 212.664 488.16C214.614 487.997 215.71 487.794 215.71 487.794C215.71 487.794 219.148 416.718 220.193 401.693C221.879 386.193 223.111 350.37 215.71 344.231L213.011 344.694C195.038 367.007 190.937 474.861 189.277 485.792Z" fill="white"/>
<path d="M248.686 488.361C248.686 488.361 249.667 488.508 251.126 488.561C254.025 488.671 258.821 488.39 261.5 485.792C261.842 480.057 266.497 351.183 234.17 344.074L234.168 344.071C233.115 343.842 232.025 343.74 230.895 343.775C252.002 363.637 250.77 471.668 248.686 488.361Z" fill="white"/>
<path d="M217.807 334.314C217.807 334.316 229.044 341.016 233.744 336.89C237.891 333.25 238.553 328.864 236.638 325.305C236.638 325.305 231.35 327.146 219.402 326.641C219.402 326.641 220.238 332.031 217.807 334.314Z" fill="white"/>
<path d="M219.4 326.874C219.659 326.882 219.718 326.481 219.462 326.417L214.513 325.078C212.908 325.596 219.456 326.729 219.4 326.874Z" fill="#C16256"/>
<path d="M217.803 334.546C218.022 334.554 218.124 334.239 217.931 334.121C217.79 334.164 213.103 330.586 213.069 331.168C212.719 331.526 217.64 334.415 217.803 334.546Z" fill="#C16256"/>
<path d="M209.687 328.37C210.683 332.978 216.31 331.789 215.356 327.17C214.36 322.566 208.733 323.755 209.687 328.37Z" fill="#F99370"/>
<path d="M211.147 329.324C211.299 329.327 211.417 329.169 211.369 329.025C210.49 326.574 211.577 325.542 213.231 326.224C214.856 325.668 209.103 324.169 210.925 329.161C210.955 329.26 211.048 329.324 211.147 329.324Z" fill="#C16256"/>
<path d="M213.314 328.998C214.016 328.9 212.683 326.743 210.898 326.596C210.596 326.569 210.567 327.045 210.866 327.058C212.664 327.245 212.889 328.94 213.314 328.998Z" fill="#C16256"/>
<path d="M215.261 357.819C216.423 366.871 207.911 381.468 221.23 385.557L211.2 387.965L208.402 377.114L215.261 357.819Z" fill="#D1E0F2"/>
<path d="M248.686 488.361C248.686 488.361 249.667 488.508 251.126 488.561C253.1 469.803 252.547 445.731 252.101 433.897C251.636 421.679 250.15 396.434 246.049 374.191C241.943 351.947 234.17 344.074 234.17 344.074L234.168 344.071C233.115 343.842 232.025 343.74 230.895 343.775C252.002 363.637 250.77 471.668 248.686 488.361Z" fill="#D1E0F2"/>
<path d="M197.699 398.134L197.525 399.847C205.442 403.757 220.196 401.693 220.196 401.693C220.345 399.408 220.492 397.212 220.631 395.103L199.772 388.978C199.104 392.639 198.217 394.339 197.699 398.134Z" fill="#D1E0F2"/>
<path d="M212.664 488.16C214.615 487.997 215.71 487.794 215.71 487.794C215.71 487.794 219.149 416.718 220.193 401.693C221.879 386.193 223.114 350.37 215.713 344.231L213.014 344.694C215.504 346.164 218.932 356.995 218.836 372.076C218.708 392.294 216.653 416.833 215.627 433.897C214.751 448.526 213.113 479.603 212.664 488.16Z" fill="#D1E0F2"/>
<path d="M224.801 322.865C224.873 322.865 224.94 322.825 224.972 322.755C225.79 320.965 227.711 321.007 227.724 321.01C227.823 321.007 227.917 320.933 227.919 320.828C227.922 320.724 227.842 320.636 227.738 320.633C227.714 320.631 225.549 320.583 224.63 322.598C224.588 322.694 224.628 322.803 224.724 322.849C224.748 322.86 224.775 322.865 224.801 322.865Z" fill="#C16256"/>
<path d="M232.531 320.697C232.587 320.697 232.646 320.671 232.681 320.623C232.742 320.54 232.726 320.422 232.643 320.358C232.6 320.326 231.558 319.556 229.848 320.163C229.75 320.198 229.699 320.305 229.734 320.404C229.768 320.502 229.875 320.553 229.974 320.518C231.484 319.984 232.379 320.633 232.416 320.66C232.451 320.684 232.491 320.697 232.531 320.697Z" fill="#C16256"/>
<path d="M215.719 344.229C218.035 346.405 232.159 355.825 230.895 343.772C230.764 343.737 229.07 343.304 228.116 343.302C228.183 343.566 229.276 350.109 219.04 343.636C218.997 343.609 216.389 343.791 215.719 344.229Z" fill="#D1A68F"/>
<path d="M302.25 348.687C303.407 349.181 301.136 351.92 301.104 353.088C303.215 352.409 305.146 351.113 305.162 351.116C307.129 349.197 308.989 347.174 310.757 345.065C311.308 344.376 312.427 345.188 311.928 345.928C310.469 348.181 308.908 350.378 307.241 352.487C307.257 352.506 307.252 352.5 307.268 352.516C309.574 351.06 311.81 349.483 313.907 347.738C314.167 347.521 314.493 347.39 314.832 347.398C317.752 347.452 309.053 353.983 308.355 354.577C308.361 354.587 308.361 354.585 308.366 354.593C310.749 353.596 313.02 352.326 315.136 350.843C315.449 350.624 315.834 350.52 316.208 350.592C318.794 351.092 309.715 356.792 308.81 357.148C308.81 357.158 308.812 357.169 308.812 357.18C310.781 356.675 312.692 355.934 314.551 355.101C314.853 354.964 315.193 354.924 315.513 355.015C318.126 355.745 309.643 359.534 308.772 359.804C307.861 360.355 304.527 362.65 299.423 363.433C297.834 363.677 295.6 359.78 296.348 357.832C296.773 356.725 298.317 354.245 298.729 353.641C299.226 352.49 300.789 348.246 302.25 348.687Z" fill="#F99370"/>
<path d="M261.812 353.649C261.817 353.655 295.875 381.433 295.838 381.46L266.474 417.437C254.841 432.702 228.566 425.115 227.321 406.063C226.755 400.467 228.323 394.651 232.16 389.95C232.165 389.948 261.788 353.609 261.812 353.649Z" fill="#EE5463"/>
<path d="M322.485 314.305C331.772 322.01 333.119 335.773 325.48 345.132L295.857 381.428C295.82 381.465 261.794 353.647 261.805 353.62C276.414 339.611 296.795 294.02 322.485 314.305Z" fill="white"/>
<path d="M245.072 382.702C245.863 383.681 242.577 385.038 242 386.057C244.185 386.444 246.499 386.204 246.51 386.214C249.147 385.439 251.736 384.52 254.285 383.486C255.094 383.135 255.704 384.378 254.913 384.795C252.57 386.105 250.162 387.315 247.704 388.398C247.71 388.422 247.71 388.414 247.715 388.438C250.435 388.229 253.147 387.882 255.819 387.323C256.15 387.254 256.497 387.291 256.794 387.454C259.351 388.868 248.605 390.568 247.712 390.766C247.715 390.776 247.712 390.774 247.715 390.787C250.288 391.022 252.888 390.963 255.453 390.643C255.832 390.595 256.222 390.683 256.519 390.921C258.571 392.572 247.878 393.361 246.913 393.251C246.908 393.262 246.905 393.27 246.9 393.28C248.877 393.756 250.91 393.997 252.944 394.13C253.275 394.152 253.593 394.277 253.833 394.504C255.803 396.373 246.531 395.75 245.634 395.581C244.57 395.643 241.324 396.84 236.448 395.14C234.928 394.611 234.249 387.569 235.791 387.214C236.947 386.949 238.994 385.771 239.641 385.431C240.621 384.648 243.988 381.625 245.072 382.702Z" fill="#FFB27D"/>
<path d="M233.098 396.314C234.194 395.95 235.308 395.56 236.446 395.14C236.633 394.159 237.782 389.533 235.789 387.214C188.196 385.134 224.511 368.744 213.014 344.688C178.882 346.944 161.768 416.339 233.098 396.314Z" fill="white"/>
<path d="M233.094 396.314C234.189 395.95 235.306 395.56 236.444 395.141C236.631 394.16 237.78 389.534 235.787 387.214C235.787 387.214 234.483 387.078 233.094 387.078C233.094 387.078 235.442 391.215 233.094 396.314Z" fill="#D1E0F2"/>
<path d="M122.477 540.462V549.053C122.477 555.985 110.511 561.606 95.7464 561.606C88.2998 561.606 81.5652 560.175 76.7184 557.869C71.9564 555.604 69.0156 552.489 69.0156 549.053V540.462H122.477Z" fill="#F99746"/>
<path d="M122.477 540.462C122.227 555.482 72.2281 558.672 69.122 541.582C69.007 540.954 68.9748 540.347 69.0191 539.762C69.7614 529.814 92.319 525.694 107.918 529.271C115.637 531.043 121.652 534.698 122.477 540.462Z" fill="#EFCBAB"/>
<path d="M107.996 529.304L84.5425 552.785C83.9334 552.664 83.4735 552.311 82.8906 552.168L105.852 528.83C106.461 528.953 107.413 529.162 107.996 529.304Z" fill="#F39200"/>
<path d="M227.612 651L233.828 633.648H237.524L243.728 651H240.236L238.82 646.98H232.58L231.128 651H227.612ZM233.36 643.92H237.98L235.688 637.032L233.36 643.92ZM246.61 654.864V638.592H250.126L250.138 640.38C250.322 640.084 250.546 639.816 250.81 639.576C251.082 639.328 251.382 639.112 251.71 638.928C252.038 638.744 252.394 638.604 252.778 638.508C253.162 638.404 253.566 638.352 253.99 638.352C254.91 638.352 255.73 638.58 256.45 639.036C257.17 639.484 257.734 640.18 258.142 641.124C258.558 642.06 258.766 643.252 258.766 644.7C258.766 646.204 258.542 647.44 258.094 648.408C257.654 649.368 257.046 650.08 256.27 650.544C255.494 651.008 254.618 651.24 253.642 651.24C253.242 651.24 252.866 651.184 252.514 651.072C252.162 650.968 251.834 650.82 251.53 650.628C251.234 650.436 250.966 650.216 250.726 649.968C250.494 649.712 250.29 649.436 250.114 649.14V654.864H246.61ZM252.802 648.672C253.562 648.672 254.198 648.356 254.71 647.724C255.23 647.092 255.49 646.092 255.49 644.724C255.49 643.524 255.242 642.588 254.746 641.916C254.258 641.236 253.61 640.896 252.802 640.896C251.898 640.896 251.222 641.264 250.774 642C250.334 642.728 250.114 643.636 250.114 644.724C250.114 645.42 250.21 646.068 250.402 646.668C250.602 647.268 250.898 647.752 251.29 648.12C251.69 648.488 252.194 648.672 252.802 648.672ZM267.142 651.24C265.926 651.24 264.866 650.98 263.962 650.46C263.066 649.94 262.37 649.204 261.874 648.252C261.386 647.3 261.142 646.172 261.142 644.868C261.142 643.564 261.386 642.424 261.874 641.448C262.37 640.472 263.066 639.712 263.962 639.168C264.866 638.624 265.93 638.352 267.154 638.352C268.378 638.352 269.438 638.62 270.334 639.156C271.23 639.684 271.922 640.436 272.41 641.412C272.898 642.388 273.142 643.54 273.142 644.868C273.142 646.116 272.902 647.22 272.422 648.18C271.95 649.132 271.266 649.88 270.37 650.424C269.482 650.968 268.406 651.24 267.142 651.24ZM267.154 648.636C267.77 648.636 268.266 648.456 268.642 648.096C269.018 647.736 269.29 647.264 269.458 646.68C269.634 646.088 269.722 645.444 269.722 644.748C269.722 644.092 269.642 643.472 269.482 642.888C269.33 642.304 269.066 641.832 268.69 641.472C268.314 641.112 267.802 640.932 267.154 640.932C266.538 640.932 266.038 641.104 265.654 641.448C265.278 641.784 265.002 642.244 264.826 642.828C264.65 643.404 264.562 644.044 264.562 644.748C264.562 645.396 264.642 646.02 264.802 646.62C264.962 647.212 265.23 647.696 265.606 648.072C265.982 648.448 266.498 648.636 267.154 648.636ZM283.36 641.028H280.6L280.624 647.64C280.624 647.944 280.66 648.172 280.732 648.324C280.812 648.468 280.932 648.564 281.092 648.612C281.26 648.652 281.472 648.672 281.728 648.672H283.396V650.832C283.236 650.904 282.984 650.972 282.64 651.036C282.304 651.1 281.832 651.132 281.224 651.132C280.136 651.132 279.292 650.992 278.692 650.712C278.1 650.432 277.688 650.04 277.456 649.536C277.224 649.032 277.108 648.448 277.108 647.784V641.028H275.092V638.592H277.228L278.104 634.848H280.6V638.58H283.36V641.028ZM289.15 645.6C289.142 646.232 289.242 646.784 289.45 647.256C289.658 647.72 289.958 648.08 290.35 648.336C290.75 648.584 291.23 648.708 291.79 648.708C292.39 648.708 292.914 648.58 293.362 648.324C293.818 648.068 294.134 647.648 294.31 647.064H297.466C297.33 647.944 296.978 648.696 296.41 649.32C295.85 649.944 295.17 650.42 294.37 650.748C293.57 651.076 292.738 651.24 291.874 651.24C290.65 651.24 289.57 650.984 288.634 650.472C287.706 649.952 286.982 649.22 286.462 648.276C285.942 647.332 285.682 646.22 285.682 644.94C285.682 643.7 285.918 642.584 286.39 641.592C286.862 640.592 287.546 639.804 288.442 639.228C289.346 638.644 290.43 638.352 291.694 638.352C292.958 638.352 294.018 638.62 294.874 639.156C295.738 639.684 296.386 640.424 296.818 641.376C297.258 642.32 297.478 643.412 297.478 644.652V645.6H289.15ZM289.138 643.512H294.202C294.202 643.016 294.11 642.56 293.926 642.144C293.742 641.728 293.462 641.4 293.086 641.16C292.718 640.92 292.254 640.8 291.694 640.8C291.15 640.8 290.686 640.932 290.302 641.196C289.926 641.452 289.638 641.788 289.438 642.204C289.238 642.62 289.138 643.056 289.138 643.512ZM312.618 651H309.126L305.778 645.648L304.134 647.4V651H300.63V633.168H304.134V643.74L308.694 638.592H312.462L307.95 643.536L312.618 651ZM328.758 651.24C327.118 651.24 325.698 650.884 324.498 650.172C323.306 649.452 322.382 648.432 321.726 647.112C321.078 645.784 320.754 644.2 320.754 642.36C320.754 640.512 321.082 638.92 321.738 637.584C322.402 636.248 323.334 635.22 324.534 634.5C325.734 633.772 327.142 633.408 328.758 633.408C330.366 633.408 331.766 633.768 332.958 634.488C334.15 635.208 335.07 636.236 335.718 637.572C336.374 638.908 336.702 640.504 336.702 642.36C336.702 644.192 336.378 645.772 335.73 647.1C335.09 648.428 334.174 649.452 332.982 650.172C331.79 650.884 330.382 651.24 328.758 651.24ZM328.758 648.36C329.606 648.36 330.338 648.16 330.954 647.76C331.578 647.352 332.058 646.712 332.394 645.84C332.73 644.96 332.898 643.816 332.898 642.408C332.898 640.96 332.726 639.788 332.382 638.892C332.046 637.996 331.566 637.34 330.942 636.924C330.326 636.5 329.598 636.288 328.758 636.288C327.918 636.288 327.186 636.5 326.562 636.924C325.938 637.34 325.454 638 325.11 638.904C324.766 639.8 324.594 640.968 324.594 642.408C324.594 643.824 324.766 644.968 325.11 645.84C325.454 646.712 325.938 647.352 326.562 647.76C327.186 648.16 327.918 648.36 328.758 648.36ZM339.751 651V638.592H343.195V640.344C343.387 640.04 343.635 639.748 343.939 639.468C344.251 639.18 344.643 638.944 345.115 638.76C345.587 638.576 346.147 638.484 346.795 638.484C347.555 638.484 348.263 638.632 348.919 638.928C349.583 639.224 350.119 639.692 350.527 640.332C350.935 640.964 351.139 641.792 351.139 642.816V651H347.635V643.248C347.635 642.576 347.435 642.072 347.035 641.736C346.635 641.4 346.147 641.232 345.571 641.232C345.187 641.232 344.815 641.3 344.455 641.436C344.103 641.572 343.815 641.776 343.591 642.048C343.367 642.32 343.255 642.656 343.255 643.056V651H339.751ZM358.658 651.216C357.746 651.216 357.022 651.108 356.486 650.892C355.95 650.676 355.554 650.392 355.298 650.04C355.042 649.68 354.878 649.284 354.806 648.852C354.734 648.412 354.698 647.968 354.698 647.52V633.168H358.13V647.088C358.13 647.544 358.226 647.916 358.418 648.204C358.618 648.484 358.99 648.656 359.534 648.72L360.122 648.756V650.916C359.882 650.996 359.638 651.064 359.39 651.12C359.142 651.184 358.898 651.216 358.658 651.216ZM366.657 638.592V651H363.309V638.592H366.657ZM366.693 633.66V636.816H363.285V633.66H366.693ZM370.622 651V638.592H374.066V640.344C374.258 640.04 374.506 639.748 374.81 639.468C375.122 639.18 375.514 638.944 375.986 638.76C376.458 638.576 377.018 638.484 377.666 638.484C378.426 638.484 379.134 638.632 379.79 638.928C380.454 639.224 380.99 639.692 381.398 640.332C381.806 640.964 382.01 641.792 382.01 642.816V651H378.506V643.248C378.506 642.576 378.306 642.072 377.906 641.736C377.506 641.4 377.018 641.232 376.442 641.232C376.058 641.232 375.686 641.3 375.326 641.436C374.974 641.572 374.686 641.776 374.462 642.048C374.238 642.32 374.126 642.656 374.126 643.056V651H370.622ZM388.449 645.6C388.441 646.232 388.541 646.784 388.749 647.256C388.957 647.72 389.257 648.08 389.649 648.336C390.049 648.584 390.529 648.708 391.089 648.708C391.689 648.708 392.213 648.58 392.661 648.324C393.117 648.068 393.433 647.648 393.609 647.064H396.765C396.629 647.944 396.277 648.696 395.709 649.32C395.149 649.944 394.469 650.42 393.669 650.748C392.869 651.076 392.037 651.24 391.173 651.24C389.949 651.24 388.869 650.984 387.933 650.472C387.005 649.952 386.281 649.22 385.761 648.276C385.241 647.332 384.981 646.22 384.981 644.94C384.981 643.7 385.217 642.584 385.689 641.592C386.161 640.592 386.845 639.804 387.741 639.228C388.645 638.644 389.729 638.352 390.993 638.352C392.257 638.352 393.317 638.62 394.173 639.156C395.037 639.684 395.685 640.424 396.117 641.376C396.557 642.32 396.777 643.412 396.777 644.652V645.6H388.449ZM388.437 643.512H393.501C393.501 643.016 393.409 642.56 393.225 642.144C393.041 641.728 392.761 641.4 392.385 641.16C392.017 640.92 391.553 640.8 390.993 640.8C390.449 640.8 389.985 640.932 389.601 641.196C389.225 641.452 388.937 641.788 388.737 642.204C388.537 642.62 388.437 643.056 388.437 643.512ZM420.725 651H416.909L412.313 642.924L409.745 646.02V651H406.109V633.648H409.745V641.592L416.069 633.648H420.089L414.821 640.368L420.725 651ZM423.588 651V633.168H427.068V640.38C427.268 640.092 427.52 639.808 427.824 639.528C428.128 639.24 428.508 639 428.964 638.808C429.42 638.616 429.976 638.52 430.632 638.52C431.424 638.52 432.144 638.676 432.792 638.988C433.448 639.292 433.972 639.736 434.364 640.32C434.764 640.904 434.964 641.616 434.964 642.456V651H431.448V642.972C431.448 642.412 431.244 641.984 430.836 641.688C430.436 641.384 429.948 641.232 429.372 641.232C428.996 641.232 428.632 641.3 428.28 641.436C427.928 641.572 427.64 641.78 427.416 642.06C427.2 642.332 427.092 642.672 427.092 643.08V651H423.588ZM442.966 651.24C442.39 651.24 441.822 651.152 441.262 650.976C440.71 650.8 440.206 650.54 439.75 650.196C439.294 649.852 438.926 649.428 438.646 648.924C438.374 648.42 438.238 647.836 438.238 647.172V638.592H441.742V646.728C441.742 647.304 441.93 647.776 442.306 648.144C442.682 648.512 443.234 648.696 443.962 648.696C444.65 648.696 445.194 648.52 445.594 648.168C446.002 647.808 446.206 647.308 446.206 646.668V638.592H449.674V651H447.034L446.626 648.54C446.482 649.268 446.21 649.828 445.81 650.22C445.418 650.604 444.966 650.868 444.454 651.012C443.95 651.164 443.454 651.24 442.966 651.24ZM458.155 651.24C457.291 651.24 456.459 651.1 455.659 650.82C454.859 650.532 454.183 650.084 453.631 649.476C453.079 648.86 452.727 648.064 452.575 647.088H455.611C455.715 647.528 455.903 647.876 456.175 648.132C456.455 648.388 456.771 648.572 457.123 648.684C457.475 648.788 457.811 648.84 458.131 648.84C458.803 648.84 459.343 648.736 459.751 648.528C460.167 648.312 460.375 647.984 460.375 647.544C460.375 647.208 460.251 646.94 460.003 646.74C459.763 646.54 459.363 646.388 458.803 646.284L456.619 645.828C455.523 645.596 454.643 645.204 453.979 644.652C453.315 644.092 452.975 643.3 452.959 642.276C452.959 641.532 453.155 640.864 453.547 640.272C453.947 639.68 454.535 639.212 455.311 638.868C456.087 638.524 457.039 638.352 458.167 638.352C459.695 638.352 460.915 638.688 461.827 639.36C462.747 640.032 463.215 640.98 463.231 642.204H460.303C460.215 641.724 459.975 641.356 459.583 641.1C459.199 640.836 458.715 640.704 458.131 640.704C457.523 640.704 457.023 640.812 456.631 641.028C456.239 641.244 456.043 641.572 456.043 642.012C456.043 642.34 456.203 642.6 456.523 642.792C456.843 642.976 457.339 643.136 458.011 643.272L460.027 643.728C460.723 643.896 461.287 644.128 461.719 644.424C462.159 644.712 462.499 645.028 462.739 645.372C462.979 645.716 463.143 646.064 463.231 646.416C463.327 646.76 463.375 647.072 463.375 647.352C463.375 648.176 463.155 648.88 462.715 649.464C462.275 650.04 461.663 650.48 460.879 650.784C460.095 651.088 459.187 651.24 458.155 651.24ZM471.125 651.24C470.549 651.24 469.981 651.152 469.421 650.976C468.869 650.8 468.365 650.54 467.909 650.196C467.453 649.852 467.085 649.428 466.805 648.924C466.533 648.42 466.397 647.836 466.397 647.172V638.592H469.901V646.728C469.901 647.304 470.089 647.776 470.465 648.144C470.841 648.512 471.393 648.696 472.121 648.696C472.809 648.696 473.353 648.52 473.753 648.168C474.161 647.808 474.365 647.308 474.365 646.668V638.592H477.833V651H475.193L474.785 648.54C474.641 649.268 474.369 649.828 473.969 650.22C473.577 650.604 473.125 650.868 472.613 651.012C472.109 651.164 471.613 651.24 471.125 651.24ZM486.314 651.24C485.45 651.24 484.618 651.1 483.818 650.82C483.018 650.532 482.342 650.084 481.79 649.476C481.238 648.86 480.886 648.064 480.734 647.088H483.77C483.874 647.528 484.062 647.876 484.334 648.132C484.614 648.388 484.93 648.572 485.282 648.684C485.634 648.788 485.97 648.84 486.29 648.84C486.962 648.84 487.502 648.736 487.91 648.528C488.326 648.312 488.534 647.984 488.534 647.544C488.534 647.208 488.41 646.94 488.162 646.74C487.922 646.54 487.522 646.388 486.962 646.284L484.778 645.828C483.682 645.596 482.802 645.204 482.138 644.652C481.474 644.092 481.134 643.3 481.118 642.276C481.118 641.532 481.314 640.864 481.706 640.272C482.106 639.68 482.694 639.212 483.47 638.868C484.246 638.524 485.198 638.352 486.326 638.352C487.854 638.352 489.074 638.688 489.986 639.36C490.906 640.032 491.374 640.98 491.39 642.204H488.462C488.374 641.724 488.134 641.356 487.742 641.1C487.358 640.836 486.874 640.704 486.29 640.704C485.682 640.704 485.182 640.812 484.79 641.028C484.398 641.244 484.202 641.572 484.202 642.012C484.202 642.34 484.362 642.6 484.682 642.792C485.002 642.976 485.498 643.136 486.17 643.272L488.186 643.728C488.882 643.896 489.446 644.128 489.878 644.424C490.318 644.712 490.658 645.028 490.898 645.372C491.138 645.716 491.302 646.064 491.39 646.416C491.486 646.76 491.534 647.072 491.534 647.352C491.534 648.176 491.314 648.88 490.874 649.464C490.434 650.04 489.822 650.48 489.038 650.784C488.254 651.088 487.346 651.24 486.314 651.24ZM256.326 676.388C256.326 677.788 256.098 679.004 255.642 680.036C255.186 681.06 254.446 681.852 253.422 682.412C252.406 682.964 251.058 683.24 249.378 683.24C247.69 683.24 246.338 682.96 245.322 682.4C244.306 681.832 243.57 681.028 243.114 679.988C242.666 678.948 242.442 677.708 242.442 676.268V665.648H246.006V676.532C246.006 677.828 246.318 678.776 246.942 679.376C247.566 679.968 248.378 680.264 249.378 680.264C250.042 680.264 250.63 680.136 251.142 679.88C251.654 679.616 252.054 679.212 252.342 678.668C252.638 678.116 252.786 677.404 252.786 676.532V665.648H256.326V676.388ZM260.085 683V670.592H263.529V672.344C263.721 672.04 263.969 671.748 264.273 671.468C264.585 671.18 264.977 670.944 265.449 670.76C265.921 670.576 266.481 670.484 267.129 670.484C267.889 670.484 268.597 670.632 269.253 670.928C269.917 671.224 270.453 671.692 270.861 672.332C271.269 672.964 271.473 673.792 271.473 674.816V683H267.969V675.248C267.969 674.576 267.769 674.072 267.369 673.736C266.969 673.4 266.481 673.232 265.905 673.232C265.521 673.232 265.149 673.3 264.789 673.436C264.437 673.572 264.149 673.776 263.925 674.048C263.701 674.32 263.589 674.656 263.589 675.056V683H260.085ZM282.052 673.028H279.292L279.316 679.64C279.316 679.944 279.352 680.172 279.424 680.324C279.504 680.468 279.624 680.564 279.784 680.612C279.952 680.652 280.164 680.672 280.42 680.672H282.088V682.832C281.928 682.904 281.676 682.972 281.332 683.036C280.996 683.1 280.524 683.132 279.916 683.132C278.828 683.132 277.984 682.992 277.384 682.712C276.792 682.432 276.38 682.04 276.148 681.536C275.916 681.032 275.8 680.448 275.8 679.784V673.028H273.784V670.592H275.92L276.796 666.848H279.292V670.58H282.052V673.028ZM289.816 683.24C289.24 683.24 288.672 683.152 288.112 682.976C287.56 682.8 287.056 682.54 286.6 682.196C286.144 681.852 285.776 681.428 285.496 680.924C285.224 680.42 285.088 679.836 285.088 679.172V670.592H288.592V678.728C288.592 679.304 288.78 679.776 289.156 680.144C289.532 680.512 290.084 680.696 290.812 680.696C291.5 680.696 292.044 680.52 292.444 680.168C292.852 679.808 293.056 679.308 293.056 678.668V670.592H296.524V683H293.884L293.476 680.54C293.332 681.268 293.06 681.828 292.66 682.22C292.268 682.604 291.816 682.868 291.304 683.012C290.8 683.164 290.304 683.24 289.816 683.24ZM312.155 683H308.663L305.315 677.648L303.671 679.4V683H300.167V665.168H303.671V675.74L308.231 670.592H311.999L307.487 675.536L312.155 683ZM335.698 683H331.882L327.286 674.924L324.718 678.02V683H321.082V665.648H324.718V673.592L331.042 665.648H335.062L329.794 672.368L335.698 683ZM340.668 677.6C340.66 678.232 340.76 678.784 340.968 679.256C341.176 679.72 341.476 680.08 341.868 680.336C342.268 680.584 342.748 680.708 343.308 680.708C343.908 680.708 344.432 680.58 344.88 680.324C345.336 680.068 345.652 679.648 345.828 679.064H348.984C348.848 679.944 348.496 680.696 347.928 681.32C347.368 681.944 346.688 682.42 345.888 682.748C345.088 683.076 344.256 683.24 343.392 683.24C342.168 683.24 341.088 682.984 340.152 682.472C339.224 681.952 338.5 681.22 337.98 680.276C337.46 679.332 337.2 678.22 337.2 676.94C337.2 675.7 337.436 674.584 337.908 673.592C338.38 672.592 339.064 671.804 339.96 671.228C340.864 670.644 341.948 670.352 343.212 670.352C344.476 670.352 345.536 670.62 346.392 671.156C347.256 671.684 347.904 672.424 348.336 673.376C348.776 674.32 348.996 675.412 348.996 676.652V677.6H340.668ZM340.656 675.512H345.72C345.72 675.016 345.628 674.56 345.444 674.144C345.26 673.728 344.98 673.4 344.604 673.16C344.236 672.92 343.772 672.8 343.212 672.8C342.668 672.8 342.204 672.932 341.82 673.196C341.444 673.452 341.156 673.788 340.956 674.204C340.756 674.62 340.656 675.056 340.656 675.512ZM352.148 686.864V670.592H355.664L355.676 672.38C355.86 672.084 356.084 671.816 356.348 671.576C356.62 671.328 356.92 671.112 357.248 670.928C357.576 670.744 357.932 670.604 358.316 670.508C358.7 670.404 359.104 670.352 359.528 670.352C360.448 670.352 361.268 670.58 361.988 671.036C362.708 671.484 363.272 672.18 363.68 673.124C364.096 674.06 364.304 675.252 364.304 676.7C364.304 678.204 364.08 679.44 363.632 680.408C363.192 681.368 362.584 682.08 361.808 682.544C361.032 683.008 360.156 683.24 359.18 683.24C358.78 683.24 358.404 683.184 358.052 683.072C357.7 682.968 357.372 682.82 357.068 682.628C356.772 682.436 356.504 682.216 356.264 681.968C356.032 681.712 355.828 681.436 355.652 681.14V686.864H352.148ZM358.34 680.672C359.1 680.672 359.736 680.356 360.248 679.724C360.768 679.092 361.028 678.092 361.028 676.724C361.028 675.524 360.78 674.588 360.284 673.916C359.796 673.236 359.148 672.896 358.34 672.896C357.436 672.896 356.76 673.264 356.312 674C355.872 674.728 355.652 675.636 355.652 676.724C355.652 677.42 355.748 678.068 355.94 678.668C356.14 679.268 356.436 679.752 356.828 680.12C357.228 680.488 357.732 680.672 358.34 680.672ZM370.233 677.6C370.225 678.232 370.325 678.784 370.533 679.256C370.741 679.72 371.041 680.08 371.433 680.336C371.833 680.584 372.313 680.708 372.873 680.708C373.473 680.708 373.997 680.58 374.445 680.324C374.901 680.068 375.217 679.648 375.393 679.064H378.549C378.413 679.944 378.061 680.696 377.493 681.32C376.933 681.944 376.253 682.42 375.453 682.748C374.653 683.076 373.821 683.24 372.957 683.24C371.733 683.24 370.653 682.984 369.717 682.472C368.789 681.952 368.065 681.22 367.545 680.276C367.025 679.332 366.765 678.22 366.765 676.94C366.765 675.7 367.001 674.584 367.473 673.592C367.945 672.592 368.629 671.804 369.525 671.228C370.429 670.644 371.513 670.352 372.777 670.352C374.041 670.352 375.101 670.62 375.957 671.156C376.821 671.684 377.469 672.424 377.901 673.376C378.341 674.32 378.561 675.412 378.561 676.652V677.6H370.233ZM370.221 675.512H375.285C375.285 675.016 375.193 674.56 375.009 674.144C374.825 673.728 374.545 673.4 374.169 673.16C373.801 672.92 373.337 672.8 372.777 672.8C372.233 672.8 371.769 672.932 371.385 673.196C371.009 673.452 370.721 673.788 370.521 674.204C370.321 674.62 370.221 675.056 370.221 675.512ZM381.713 683V670.592H385.085V673.532C385.285 672.9 385.565 672.348 385.925 671.876C386.293 671.396 386.737 671.024 387.257 670.76C387.777 670.488 388.365 670.352 389.021 670.352C389.133 670.352 389.237 670.36 389.333 670.376C389.437 670.384 389.513 670.4 389.561 670.424V673.76C389.489 673.728 389.401 673.708 389.297 673.7C389.201 673.692 389.113 673.684 389.033 673.676C388.345 673.62 387.757 673.64 387.269 673.736C386.781 673.832 386.385 673.996 386.081 674.228C385.777 674.46 385.557 674.744 385.421 675.08C385.285 675.416 385.217 675.792 385.217 676.208V683H381.713ZM396.143 683.216C395.231 683.216 394.507 683.108 393.971 682.892C393.435 682.676 393.039 682.392 392.783 682.04C392.527 681.68 392.363 681.284 392.291 680.852C392.219 680.412 392.183 679.968 392.183 679.52V665.168H395.615V679.088C395.615 679.544 395.711 679.916 395.903 680.204C396.103 680.484 396.475 680.656 397.019 680.72L397.607 680.756V682.916C397.367 682.996 397.123 683.064 396.875 683.12C396.627 683.184 396.383 683.216 396.143 683.216ZM405.093 683.24C404.517 683.24 403.949 683.152 403.389 682.976C402.837 682.8 402.333 682.54 401.877 682.196C401.421 681.852 401.053 681.428 400.773 680.924C400.501 680.42 400.365 679.836 400.365 679.172V670.592H403.869V678.728C403.869 679.304 404.057 679.776 404.433 680.144C404.809 680.512 405.361 680.696 406.089 680.696C406.777 680.696 407.321 680.52 407.721 680.168C408.129 679.808 408.333 679.308 408.333 678.668V670.592H411.801V683H409.161L408.753 680.54C408.609 681.268 408.337 681.828 407.937 682.22C407.545 682.604 407.093 682.868 406.581 683.012C406.077 683.164 405.581 683.24 405.093 683.24ZM418.973 683.24C418.181 683.24 417.469 683.092 416.837 682.796C416.205 682.5 415.705 682.072 415.337 681.512C414.969 680.944 414.785 680.256 414.785 679.448C414.785 678.088 415.293 677.056 416.309 676.352C417.325 675.64 418.929 675.272 421.121 675.248L422.669 675.224V674.48C422.669 673.912 422.501 673.476 422.165 673.172C421.837 672.86 421.325 672.708 420.629 672.716C420.117 672.724 419.629 672.844 419.165 673.076C418.709 673.308 418.397 673.712 418.229 674.288H415.313C415.361 673.392 415.621 672.656 416.093 672.08C416.565 671.496 417.205 671.064 418.013 670.784C418.829 670.496 419.753 670.352 420.785 670.352C422.057 670.352 423.077 670.512 423.845 670.832C424.613 671.144 425.169 671.596 425.513 672.188C425.857 672.772 426.029 673.468 426.029 674.276V683H423.101L422.813 680.864C422.389 681.76 421.857 682.38 421.217 682.724C420.585 683.068 419.837 683.24 418.973 683.24ZM420.149 680.936C420.469 680.936 420.777 680.88 421.073 680.768C421.377 680.648 421.645 680.492 421.877 680.3C422.117 680.1 422.309 679.876 422.453 679.628C422.597 679.38 422.669 679.124 422.669 678.86V677.024L421.409 677.048C420.825 677.056 420.281 677.128 419.777 677.264C419.273 677.392 418.865 677.604 418.553 677.9C418.249 678.196 418.097 678.596 418.097 679.1C418.097 679.676 418.297 680.128 418.697 680.456C419.097 680.776 419.581 680.936 420.149 680.936ZM429.851 683V670.592H433.295V672.344C433.487 672.04 433.735 671.748 434.039 671.468C434.351 671.18 434.743 670.944 435.215 670.76C435.687 670.576 436.247 670.484 436.895 670.484C437.655 670.484 438.363 670.632 439.019 670.928C439.683 671.224 440.219 671.692 440.627 672.332C441.035 672.964 441.239 673.792 441.239 674.816V683H437.735V675.248C437.735 674.576 437.535 674.072 437.135 673.736C436.735 673.4 436.247 673.232 435.671 673.232C435.287 673.232 434.915 673.3 434.555 673.436C434.203 673.572 433.915 673.776 433.691 674.048C433.467 674.32 433.355 674.656 433.355 675.056V683H429.851ZM444.798 683V670.592H448.23V672.344C448.606 671.8 449.11 671.332 449.742 670.94C450.382 670.548 451.186 670.352 452.154 670.352C452.578 670.352 453.01 670.428 453.45 670.58C453.89 670.732 454.302 670.956 454.686 671.252C455.078 671.54 455.394 671.904 455.634 672.344C456.034 671.776 456.558 671.304 457.206 670.928C457.862 670.544 458.59 670.352 459.39 670.352C459.854 670.352 460.322 670.428 460.794 670.58C461.274 670.732 461.714 670.98 462.114 671.324C462.514 671.668 462.834 672.128 463.074 672.704C463.322 673.272 463.446 673.976 463.446 674.816V683H459.942V675.248C459.942 674.752 459.842 674.356 459.642 674.06C459.45 673.756 459.202 673.54 458.898 673.412C458.602 673.276 458.286 673.208 457.95 673.208C457.638 673.208 457.322 673.272 457.002 673.4C456.682 673.52 456.41 673.716 456.186 673.988C455.962 674.26 455.85 674.616 455.85 675.056V683H452.358V674.936C452.358 674.56 452.258 674.244 452.058 673.988C451.858 673.732 451.606 673.54 451.302 673.412C451.006 673.276 450.702 673.208 450.39 673.208C450.07 673.208 449.75 673.276 449.43 673.412C449.11 673.54 448.842 673.744 448.626 674.024C448.41 674.296 448.302 674.64 448.302 675.056V683H444.798ZM471.441 683.24C470.865 683.24 470.297 683.152 469.737 682.976C469.185 682.8 468.681 682.54 468.225 682.196C467.769 681.852 467.401 681.428 467.121 680.924C466.849 680.42 466.713 679.836 466.713 679.172V670.592H470.217V678.728C470.217 679.304 470.405 679.776 470.781 680.144C471.157 680.512 471.709 680.696 472.437 680.696C473.125 680.696 473.669 680.52 474.069 680.168C474.477 679.808 474.681 679.308 474.681 678.668V670.592H478.149V683H475.509L475.101 680.54C474.957 681.268 474.685 681.828 474.285 682.22C473.893 682.604 473.441 682.868 472.929 683.012C472.425 683.164 471.929 683.24 471.441 683.24Z" fill="url(#paint4_linear_1_24162)"/>
</g>
<defs>
<radialGradient id="paint0_radial_1_24162" cx="0" cy="0" r="1" gradientUnits="userSpaceOnUse" gradientTransform="translate(577.5 -23) rotate(90) scale(139 229.5)">
<stop stop-color="#009B90"/>
<stop offset="1" stop-color="#6BFFF3" stop-opacity="0"/>
</radialGradient>
<radialGradient id="paint1_radial_1_24162" cx="0" cy="0" r="1" gradientUnits="userSpaceOnUse" gradientTransform="translate(359 523.5) rotate(90) scale(101.5 403)">
<stop stop-color="#4F5C8E"/>
<stop offset="1" stop-color="#4F5C8E" stop-opacity="0"/>
</radialGradient>
<radialGradient id="paint2_radial_1_24162" cx="0" cy="0" r="1" gradientUnits="userSpaceOnUse" gradientTransform="translate(-74 192) rotate(90) scale(139 143)">
<stop stop-color="#009B90"/>
<stop offset="1" stop-color="#6BFFF3" stop-opacity="0"/>
</radialGradient>
<radialGradient id="paint3_radial_1_24162" cx="0" cy="0" r="1" gradientUnits="userSpaceOnUse" gradientTransform="translate(404 752.5) rotate(90) scale(99.5 177)">
<stop stop-color="#009B90"/>
<stop offset="1" stop-color="#6BFFF3" stop-opacity="0"/>
</radialGradient>
<linearGradient id="paint4_linear_1_24162" x1="307.5" y1="608.5" x2="299.94" y2="702.542" gradientUnits="userSpaceOnUse">
<stop stop-color="#7987BC"/>
<stop offset="0.469007" stop-color="#2B4179"/>
<stop offset="1" stop-color="#000C36"/>
</linearGradient>
<clipPath id="clip0_1_24162">
<rect width="720" height="768" fill="white"/>
</clipPath>
</defs>
</svg>
