<svg width="720" height="768" viewBox="0 0 720 768" fill="none" xmlns="http://www.w3.org/2000/svg">
<g clip-path="url(#clip0_4_11777)">
<ellipse cx="577.5" cy="-23" rx="229.5" ry="139" fill="url(#paint0_radial_4_11777)" fill-opacity="0.2"/>
<ellipse cx="359" cy="523.5" rx="403" ry="101.5" fill="url(#paint1_radial_4_11777)" fill-opacity="0.4"/>
<ellipse cx="-74" cy="192" rx="143" ry="139" fill="url(#paint2_radial_4_11777)" fill-opacity="0.2"/>
<ellipse cx="404" cy="752.5" rx="177" ry="99.5" fill="url(#paint3_radial_4_11777)" fill-opacity="0.2"/>
<path d="M124.16 516.652C124.16 516.652 38.8053 333.682 100.23 292.938C141.286 265.705 184.803 325.739 236.744 293.98C282.985 265.705 268.285 179.684 342.035 167.793C424.953 154.424 443.21 314.868 511.259 292.938C593.829 266.327 675.966 320.347 604.985 517L124.16 516.652Z" fill="#91CECF" fill-opacity="0.45"/>
<path d="M58.7981 500C57.3657 496.511 55.9516 492.893 54.5897 489.25L57.945 488.456C59.2965 492.074 60.7054 495.667 62.1274 499.134L58.7981 500ZM659.102 495.494L655.626 495.153C656.203 491.439 656.751 487.695 657.254 484.032L660.735 484.336C660.231 488.011 659.681 491.765 659.102 495.494ZM50.723 478.423C49.4967 474.823 48.3095 471.158 47.1902 467.525L50.5899 466.862C51.7014 470.473 52.8833 474.118 54.1017 477.694L50.723 478.423ZM662.17 473.154L658.684 472.892C659.128 469.162 659.537 465.408 659.902 461.738L663.391 461.959C663.026 465.643 662.613 469.41 662.17 473.154ZM43.9915 456.563C42.9791 452.895 42.019 449.188 41.1319 445.541L44.5681 445.011C45.4499 448.634 46.4049 452.322 47.4094 455.964L43.9915 456.563ZM664.398 450.749L660.904 450.573C661.202 446.846 661.46 443.085 661.677 439.398L665.173 439.526C664.956 443.231 664.695 447.007 664.398 450.749ZM38.6245 434.464C37.847 430.752 37.1243 427.008 36.4824 423.339L39.9499 422.955C40.5892 426.6 41.3041 430.32 42.079 434.007L38.6245 434.464ZM665.708 428.294L662.209 428.213C662.345 424.469 662.439 420.705 662.488 417.025L665.99 417.055C665.94 420.752 665.843 424.533 665.708 428.294ZM34.7239 412.168C34.2021 408.419 33.7481 404.648 33.3724 400.958L36.8608 400.733C37.2313 404.393 37.6826 408.137 38.2018 411.859L34.7239 412.168ZM662.501 405.835C662.459 402.088 662.371 398.325 662.235 394.65L665.734 394.568C665.87 398.263 665.958 402.044 666 405.81L662.501 405.835ZM32.4566 389.721C32.2244 385.95 32.0704 382.164 32 378.467L35.5014 378.425C35.5719 382.09 35.7258 385.846 35.9554 389.588L32.4566 389.721ZM661.674 383.477C661.434 379.735 661.139 375.979 660.795 372.317L664.286 372.109C664.63 375.794 664.928 379.57 665.17 383.334L661.674 383.477ZM35.5327 367.257L32.0313 367.2C32.1278 363.419 32.3157 359.63 32.5897 355.943L36.0833 356.106C35.8145 359.759 35.6293 363.51 35.5327 367.257ZM659.582 361.178C659.115 357.437 658.585 353.7 658.008 350.07L661.481 349.721C662.06 353.374 662.595 357.135 663.065 360.901L659.582 361.178ZM37.1973 344.983L33.7142 344.704C34.189 340.937 34.7683 337.171 35.4362 333.511L38.9011 333.912C38.241 337.532 37.667 341.256 37.1973 344.983ZM656.046 339.006C655.318 335.289 654.517 331.585 653.669 327.996L657.111 327.482C657.967 331.097 658.773 334.832 659.506 338.578L656.046 339.006ZM242.012 338.613C237.149 338.002 233.629 336.241 228.755 333.197L230.968 331.038C235.239 333.696 238.323 335.292 242.385 335.843L242.012 338.613ZM254.158 331.983L251.04 330.717C252.642 328.219 254.059 324.754 255.251 320.417L258.671 321.013C257.398 325.647 255.921 329.235 254.158 331.983ZM218.481 325.207C215.692 322.736 212.712 319.89 209.37 316.512L212.12 314.788C215.415 318.119 218.348 320.919 221.085 323.345L218.481 325.207ZM41.2388 322.922L37.8027 322.39C38.7106 318.671 39.736 314.964 40.8527 311.371L44.2524 312.041C43.1487 315.587 42.1338 319.249 41.2388 322.922ZM650.841 317.061C649.805 313.381 648.686 309.734 647.517 306.219L650.901 305.507C652.08 309.056 653.21 312.738 654.256 316.453L650.841 317.061ZM261.027 309.798L257.555 309.442C258.092 306.116 258.575 302.475 259.029 298.309L262.517 298.548C262.058 302.755 261.57 306.435 261.027 309.798ZM200.796 307.535C197.95 304.476 194.999 301.244 192.455 298.454L195.288 296.817C197.827 299.602 200.773 302.829 203.609 305.876L200.796 307.535ZM457.099 307.305C454.373 307.305 451.698 306.657 449.149 305.379L451.015 303.022C454.845 304.946 458.612 304.951 462.68 303.415L464.186 305.93C461.78 306.843 459.395 307.305 457.099 307.305ZM47.9756 301.303L44.6281 300.49C46.0187 296.869 47.5451 293.269 49.1627 289.789L52.445 290.756C50.8508 294.184 49.3453 297.732 47.9756 301.303ZM475.632 298.647L473.059 296.758C475.713 294.47 478.559 291.649 481.758 288.13L484.594 289.764C481.314 293.37 478.382 296.276 475.632 298.647ZM439.193 296.731C436.928 293.949 434.682 290.674 432.328 286.718L435.493 285.526C437.779 289.369 439.95 292.539 442.131 295.215L439.193 296.731ZM643.648 295.497C642.239 291.886 640.733 288.333 639.176 284.935L642.466 283.98C644.042 287.42 645.565 291.016 646.993 294.668L643.648 295.497ZM184.158 289.371C180.954 285.887 178.285 283.028 175.757 280.372L178.548 278.691C181.087 281.359 183.769 284.232 186.984 287.727L184.158 289.371ZM263.569 287.299L260.075 287.118C260.341 283.854 260.61 280.187 260.9 275.904L264.396 276.054C264.106 280.347 263.835 284.025 263.569 287.299ZM57.6919 280.441L54.4879 279.316C56.4108 275.852 58.459 272.451 60.635 269.125L63.7398 270.414C61.6003 273.685 59.5835 277.031 57.6919 280.441ZM492.614 280.441L489.69 278.911C492.179 275.901 494.746 272.711 497.347 269.491L500.293 270.997C497.686 274.224 495.114 277.417 492.614 280.441ZM426.695 276.319C425.109 273.154 423.47 269.701 421.686 265.762L424.978 264.817C426.75 268.727 428.376 272.152 429.946 275.288L426.695 276.319ZM634.025 274.583C632.144 271.094 630.153 267.706 628.108 264.511L631.228 263.247C633.308 266.496 635.33 269.941 637.242 273.485L634.025 274.583ZM167.115 271.541C163.937 268.403 160.981 265.611 158.075 263.002L160.694 261.152C163.637 263.794 166.63 266.618 169.842 269.79L167.115 271.541ZM265.126 264.815L261.63 264.674C261.865 260.952 262.1 257.228 262.35 253.439L265.846 253.585C265.596 257.374 265.361 261.096 265.126 264.815ZM507.969 261.585L505.049 260.049C507.974 256.528 510.591 253.481 513.046 250.736L515.898 252.354C513.464 255.069 510.87 258.091 507.969 261.585ZM70.6826 260.799L67.7317 259.3C70.4817 255.873 73.3204 252.774 76.1617 250.096L78.8361 251.894C76.0939 254.478 73.3517 257.475 70.6826 260.799ZM417.01 255.131C415.406 251.387 413.83 247.64 412.502 244.47L415.823 243.589C417.151 246.755 418.722 250.496 420.326 254.233L417.01 255.131ZM148.45 254.935C144.873 252.163 141.353 249.715 137.992 247.655L140.127 245.447C143.594 247.571 147.216 250.091 150.892 252.937L148.45 254.935ZM621.311 254.817C618.804 251.56 616.171 248.479 613.494 245.659L616.286 243.978C619.033 246.869 621.729 250.024 624.296 253.36L621.311 254.817ZM88.6568 244.314L86.5329 242.098C90.7127 239.561 95.0647 237.731 99.4663 236.658L100.492 239.321C96.4867 240.298 92.5052 241.977 88.6568 244.314ZM524.341 243.461L521.622 241.708C524.905 238.483 528.017 235.711 531.133 233.228L533.609 235.196C530.58 237.61 527.548 240.313 524.341 243.461ZM266.629 242.368L263.136 242.202C263.438 238.151 263.741 234.474 264.057 230.96L267.548 231.158C267.232 234.662 266.932 238.327 266.629 242.368ZM126.418 241.784C122.051 240.053 117.754 238.95 113.647 238.503L114.122 235.743C118.607 236.232 123.267 237.424 127.976 239.291L126.418 241.784ZM604.488 237.281C601.117 234.534 597.628 232.108 594.116 230.072L596.178 227.819C599.849 229.946 603.486 232.476 606.992 235.335L604.488 237.281ZM408.035 233.809C406.295 229.664 404.857 226.284 403.519 223.173L406.83 222.27C408.173 225.389 409.611 228.774 411.354 232.926L408.035 233.809ZM544.087 228.084L542.08 225.802C546.385 223.405 550.735 221.63 555.006 220.524L556.086 223.173C552.146 224.194 548.107 225.846 544.087 228.084ZM582.284 224.671C577.948 223.215 573.559 222.315 569.239 221.993L569.565 219.219C574.24 219.567 578.978 220.537 583.644 222.102L582.284 224.671ZM268.667 219.973L265.179 219.726C265.614 215.816 266.089 212.042 266.59 208.506L270.068 208.817C269.572 212.331 269.1 216.085 268.667 219.973ZM398.861 212.576C397.171 208.82 395.576 205.385 393.988 202.076L397.257 201.082C398.853 204.408 400.456 207.86 402.157 211.636L398.861 212.576ZM271.853 197.706L268.388 197.308C269.095 193.408 269.875 189.657 270.702 186.158L274.143 186.672C273.322 190.134 272.552 193.846 271.853 197.706ZM388.788 191.675C386.906 188.074 385.01 184.629 383.152 181.434L386.33 180.265C388.208 183.492 390.123 186.971 392.023 190.606L388.788 191.675ZM277.113 175.774L273.716 175.099C274.937 171.209 276.283 167.544 277.715 164.208L281.029 165.108C279.628 168.37 278.31 171.958 277.113 175.774ZM376.934 171.436C374.633 167.984 372.28 164.744 369.945 161.806L372.903 160.318C375.285 163.315 377.683 166.616 380.029 170.13L376.934 171.436ZM286.289 154.9L283.15 153.666C285.449 149.959 287.998 146.682 290.727 143.925L293.477 145.648C290.896 148.255 288.478 151.366 286.289 154.9ZM361.919 152.77C358.861 149.719 355.701 147.016 352.534 144.736L354.882 142.668C358.191 145.05 361.478 147.864 364.656 151.032L361.919 152.77ZM303.243 138.43L301.356 136.083C305.502 133.971 310.073 132.596 314.937 132L315.469 134.752C311.088 135.291 306.976 136.528 303.243 138.43ZM341.49 138.427C337.412 136.679 333.164 135.482 328.864 134.871L329.477 132.129C334.145 132.789 338.745 134.085 343.152 135.974L341.49 138.427Z" fill="#A2B5E2" fill-opacity="0.5"/>
<path d="M689.325 458.231C659.521 454.728 664.382 486.366 621.899 486.366C583.056 486.366 570.627 365.88 542.366 400.323C397.478 576.891 481.61 325.233 366.385 322.035C314.283 320.588 279.563 364.627 266.762 442.601C248.204 513.091 205.164 388.836 160.871 400.39C132.721 407.733 135.944 486.366 97.1011 486.366C54.6176 486.366 59.4813 454.728 29.6751 458.231C-2.41437 462 -12 518 -12 518H731C731 518 721.414 462 689.325 458.231Z" fill="#7AC7C4" fill-opacity="0.7"/>
<path d="M662.97 489.192C635.567 487.538 640.037 502.48 600.976 502.48C565.261 502.48 566.242 468.988 542.342 461.87C498.328 448.763 462.043 515.103 444.98 481.809C412.572 393.462 318.049 349.158 274.444 481.809C257.382 515.103 217.477 455.694 177.083 461.87C152.219 465.673 154.164 502.48 118.449 502.48C79.3872 502.48 83.8576 487.538 56.4547 489.192C26.9491 490.974 18.1367 517.423 18.1367 517.423H701.291C701.288 517.423 692.476 490.974 662.97 489.192Z" fill="#E1ECEF" fill-opacity="0.7"/>
<path d="M-11.5777 517.423C-11.5777 517.423 -16.2353 533.337 5.34883 537.322C34.8705 542.77 208.156 557.089 166.061 567.969C142.296 574.111 178.193 582.452 293.942 585.521C409.69 588.593 608.306 576.559 541.515 558.756C474.724 540.953 727.182 559.987 731.002 517.423H-11.5777Z" fill="#7AB9C7"/>
<path d="M303.094 361.045V532.224C303.094 540.818 334.394 547.787 373.005 547.787C411.617 547.787 442.916 540.818 442.916 532.224V361.045H303.094Z" fill="#2B478B"/>
<path d="M373.005 376.608C411.616 376.608 442.916 369.64 442.916 361.045C442.916 352.449 411.616 345.481 373.005 345.481C334.394 345.481 303.094 352.449 303.094 361.045C303.094 369.64 334.394 376.608 373.005 376.608Z" fill="#233862"/>
<path d="M319.716 298.73V354.472C319.716 361.025 343.575 366.336 373.004 366.336C402.434 366.336 426.293 361.025 426.293 354.472V298.73H319.716Z" fill="#2B478B"/>
<path d="M373.004 310.594C402.435 310.594 426.293 305.282 426.293 298.73C426.293 292.178 402.435 286.866 373.004 286.866C343.574 286.866 319.716 292.178 319.716 298.73C319.716 305.282 343.574 310.594 373.004 310.594Z" fill="#233862"/>
<path d="M408.556 488.071C428.193 468.429 428.193 436.583 408.556 416.941C388.919 397.299 357.082 397.299 337.445 416.941C317.808 436.583 317.808 468.429 337.445 488.071C357.082 507.713 388.919 507.713 408.556 488.071Z" fill="#233862"/>
<path d="M405.856 454.594H340.152C338.998 454.594 338.064 453.66 338.064 452.506C338.064 451.352 338.998 450.418 340.152 450.418H405.856C407.01 450.418 407.944 451.352 407.944 452.506C407.944 453.66 407.008 454.594 405.856 454.594Z" fill="#D4E8FF"/>
<path d="M405.856 438.478H340.152C338.998 438.478 338.064 437.544 338.064 436.39C338.064 435.236 338.998 434.302 340.152 434.302H405.856C407.01 434.302 407.944 435.236 407.944 436.39C407.944 437.544 407.008 438.478 405.856 438.478Z" fill="#D4E8FF"/>
<path d="M405.856 470.708H340.152C338.998 470.708 338.064 469.774 338.064 468.62C338.064 467.466 338.998 466.532 340.152 466.532H405.856C407.01 466.532 407.944 467.466 407.944 468.62C407.944 469.774 407.008 470.708 405.856 470.708Z" fill="#D4E8FF"/>
<path d="M578.569 525.492L508.521 510.537C500.449 508.814 495.3 500.87 497.025 492.795L525.335 360.236C527.059 352.162 535.003 347.011 543.075 348.735L613.123 363.689C621.196 365.413 626.344 373.357 624.619 381.431L596.309 513.99C594.586 522.067 586.644 527.216 578.569 525.492Z" fill="#2B478B"/>
<path d="M548.745 384.201C548.743 384.198 542.879 374.022 542.892 374.019L553.647 367.827C558.004 365.121 563.843 369.515 562.343 374.39C561.951 375.841 561.009 377.144 559.603 377.955C559.601 377.954 548.747 384.213 548.745 384.201Z" fill="#EE5463"/>
<path d="M529.85 388.256C528.263 385.45 529.235 381.884 532.034 380.272L542.884 374.023C542.898 374.017 548.75 384.2 548.744 384.205C543.763 386.317 534.338 395.766 529.85 388.256Z" fill="white"/>
<path d="M600.978 395.263C600.977 395.261 595.112 385.085 595.125 385.082L605.88 378.89C610.237 376.184 616.077 380.578 614.577 385.453C614.185 386.904 613.242 388.207 611.836 389.018C611.834 389.017 600.98 395.276 600.978 395.263Z" fill="#EE5463"/>
<path d="M582.082 399.319C580.495 396.513 581.468 392.947 584.266 391.335L595.116 385.086C595.129 385.079 600.983 395.263 600.976 395.268C595.995 397.38 586.57 406.829 582.082 399.319Z" fill="white"/>
<path d="M526.514 489.123C526.513 489.12 520.649 478.944 520.661 478.942L531.416 472.749C535.774 470.043 541.613 474.437 540.113 479.313C539.721 480.764 538.778 482.067 537.372 482.877C537.369 482.878 526.516 489.135 526.514 489.123Z" fill="#EE5463"/>
<path d="M507.618 493.181C506.031 490.375 507.004 486.808 509.802 485.196L520.652 478.948C520.665 478.941 526.519 489.125 526.512 489.129C521.531 491.241 512.106 500.69 507.618 493.181Z" fill="white"/>
<path d="M578.744 500.185C578.742 500.183 572.878 490.006 572.891 490.004L583.646 483.812C588.003 481.106 593.842 485.499 592.342 490.375C591.951 491.826 591.008 493.129 589.602 493.94C589.599 493.941 578.746 500.198 578.744 500.185Z" fill="#EE5463"/>
<path d="M559.85 504.242C558.263 501.435 559.235 497.869 562.034 496.257L572.884 490.008C572.896 490.001 578.75 500.185 578.744 500.19C573.764 502.305 564.337 511.753 559.85 504.242Z" fill="white"/>
<path d="M533.925 454.148C533.924 454.145 528.06 443.969 528.072 443.967L538.827 437.775C543.185 435.069 549.024 439.462 547.524 444.338C547.132 445.789 546.189 447.092 544.783 447.903C544.781 447.904 533.928 454.161 533.925 454.148Z" fill="#EE5463"/>
<path d="M515.031 458.207C513.444 455.401 514.416 451.834 517.215 450.222L528.064 443.973C528.077 443.966 533.931 454.15 533.924 454.155C528.943 456.267 519.516 465.715 515.031 458.207Z" fill="white"/>
<path d="M586.157 465.211C586.155 465.208 580.291 455.032 580.304 455.03L591.059 448.837C595.416 446.131 601.255 450.525 599.755 455.401C599.364 456.852 598.421 458.155 597.015 458.965C597.012 458.967 586.157 465.223 586.157 465.211Z" fill="#EE5463"/>
<path d="M567.262 469.269C565.675 466.463 566.648 462.897 569.446 461.285L580.296 455.036C580.308 455.029 586.162 465.213 586.156 465.218C581.175 467.33 571.75 476.779 567.262 469.269Z" fill="white"/>
<path d="M541.336 419.175C541.335 419.173 535.471 408.997 535.484 408.994L546.238 402.802C550.596 400.096 556.435 404.49 554.935 409.365C554.543 410.816 553.6 412.119 552.195 412.93C552.193 412.929 541.339 419.188 541.336 419.175Z" fill="#EE5463"/>
<path d="M522.44 423.231C520.853 420.425 521.825 416.859 524.624 415.247L535.474 408.998C535.486 408.991 541.34 419.175 541.334 419.18C536.353 421.292 526.927 430.741 522.44 423.231Z" fill="white"/>
<path d="M593.567 430.236C593.566 430.233 587.701 420.057 587.714 420.055L598.469 413.863C602.826 411.157 608.665 415.55 607.165 420.426C606.774 421.877 605.831 423.18 604.425 423.991C604.422 423.992 593.569 430.249 593.567 430.236Z" fill="#EE5463"/>
<path d="M574.671 434.294C573.084 431.488 574.057 427.922 576.855 426.31L587.705 420.061C587.717 420.054 593.572 430.238 593.565 430.243C588.584 432.355 579.159 441.804 574.671 434.294Z" fill="white"/>
<path d="M545.458 509.632C544.245 509.374 543.472 508.184 543.729 506.973L573.53 366.324C573.788 365.112 574.978 364.338 576.188 364.595C577.4 364.853 578.174 366.043 577.917 367.253L548.117 507.9C547.861 509.113 546.67 509.89 545.458 509.632Z" fill="#91CECF" fill-opacity="0.45"/>
<path d="M471.698 313.754L469.193 294.37C467.206 280.888 447.124 283.48 448.629 297.03L451.13 316.375C442.385 321.198 436.8 331.114 438.22 341.765L461.371 520.865C466.049 554.114 517.721 547.336 513.786 514.086L490.636 334.986C489.313 324.202 481.35 316.234 471.698 313.754Z" fill="#EE5463"/>
<path d="M492.373 511.794L481.494 513.202L453.47 296.4C453.081 293.396 455.202 290.645 458.205 290.256C461.208 289.867 463.958 291.989 464.347 294.993L492.373 511.794Z" fill="#EEF7FF"/>
<path d="M482.013 331.341L469.24 332.992L469.47 334.769L482.243 333.118L482.013 331.341Z" fill="#1D3F70"/>
<path d="M476.528 339.147L470.142 339.973L470.371 341.748L476.758 340.922L476.528 339.147Z" fill="#1D3F70"/>
<path d="M478.332 353.112L471.945 353.937L472.175 355.712L478.561 354.886L478.332 353.112Z" fill="#1D3F70"/>
<path d="M480.137 367.073L473.75 367.899L473.98 369.675L480.366 368.85L480.137 367.073Z" fill="#1D3F70"/>
<path d="M481.941 381.036L475.555 381.861L475.784 383.636L482.171 382.81L481.941 381.036Z" fill="#1D3F70"/>
<path d="M483.745 395L477.358 395.826L477.588 397.6L483.974 396.774L483.745 395Z" fill="#1D3F70"/>
<path d="M485.551 408.961L479.164 409.787L479.393 411.561L485.78 410.736L485.551 408.961Z" fill="#1D3F70"/>
<path d="M487.354 422.925L480.968 423.751L481.197 425.526L487.584 424.7L487.354 422.925Z" fill="#1D3F70"/>
<path d="M489.161 436.887L482.774 437.712L483.004 439.487L489.39 438.661L489.161 436.887Z" fill="#1D3F70"/>
<path d="M483.818 345.303L471.045 346.954L471.274 348.729L484.048 347.077L483.818 345.303Z" fill="#1D3F70"/>
<path d="M485.622 359.266L472.849 360.918L473.078 362.693L485.851 361.041L485.622 359.266Z" fill="#1D3F70"/>
<path d="M487.425 373.229L474.652 374.881L474.882 376.658L487.655 375.006L487.425 373.229Z" fill="#1D3F70"/>
<path d="M489.231 387.192L476.458 388.844L476.688 390.62L489.461 388.969L489.231 387.192Z" fill="#1D3F70"/>
<path d="M491.035 401.155L478.262 402.807L478.491 404.581L491.264 402.93L491.035 401.155Z" fill="#1D3F70"/>
<path d="M494.642 429.081L481.869 430.732L482.098 432.507L494.872 430.855L494.642 429.081Z" fill="#1D3F70"/>
<path d="M496.448 443.043L483.675 444.695L483.904 446.47L496.677 444.818L496.448 443.043Z" fill="#1D3F70"/>
<path d="M490.964 450.849L484.577 451.675L484.807 453.45L491.193 452.624L490.964 450.849Z" fill="#1D3F70"/>
<path d="M492.767 464.814L486.381 465.64L486.61 467.414L492.997 466.588L492.767 464.814Z" fill="#1D3F70"/>
<path d="M498.252 457.006L485.479 458.658L485.708 460.432L498.481 458.781L498.252 457.006Z" fill="#1D3F70"/>
<path d="M500.055 470.969L487.282 472.621L487.512 474.395L500.285 472.744L500.055 470.969Z" fill="#1D3F70"/>
<path d="M494.573 478.775L488.187 479.601L488.416 481.375L494.802 480.55L494.573 478.775Z" fill="#1D3F70"/>
<path d="M501.861 484.931L489.088 486.583L489.317 488.357L502.09 486.706L501.861 484.931Z" fill="#1D3F70"/>
<path d="M492.839 415.117L480.065 416.769L480.295 418.543L493.068 416.892L492.839 415.117Z" fill="#1D3F70"/>
<path d="M491.151 500.778C486.943 468.554 483.601 440.456 483.601 440.456C483.22 437.337 479.817 435.452 476.723 436.145C473.82 436.52 471.76 439.106 472.124 441.921L479.919 502.224C474.42 504.837 470.385 510.289 471.26 518.143C474.281 538.682 505.863 534.601 503.565 513.966C502.394 506.017 497.261 501.817 491.151 500.778Z" fill="#233862"/>
<path d="M284.5 582.668C284.5 582.666 289.065 564.283 289.084 564.294L308.497 569.128C316.582 570.857 318.454 582.494 311.259 586.482C309.183 587.731 306.629 588.187 304.091 587.556C304.091 587.554 284.487 582.685 284.5 582.668Z" fill="#EE5463"/>
<path d="M258.02 566.245C259.316 561.208 264.43 558.153 269.481 559.411L289.067 564.288C289.089 564.295 284.502 582.673 284.49 582.673C276.346 579.554 254.838 579.989 258.02 566.245Z" fill="white"/>
<path d="M539.722 561.883C539.722 561.881 535.766 543.357 535.788 543.358L555.355 539.193C563.38 537.203 570.164 546.842 565.445 553.58C564.127 555.612 562.032 557.142 559.474 557.687C559.473 557.686 539.719 561.903 539.722 561.883Z" fill="#EE5463"/>
<path d="M508.722 558.73C507.679 553.635 510.937 548.647 516.027 547.563L535.769 543.36C535.792 543.357 539.726 561.886 539.715 561.891C531.028 562.658 511.887 572.478 508.722 558.73Z" fill="white"/>
<path d="M456.477 543.462V552.053C456.477 558.985 444.511 564.605 429.746 564.605C422.3 564.605 415.565 563.175 410.718 560.869C405.956 558.603 403.016 555.488 403.016 552.053V543.462H456.477Z" fill="#F99746"/>
<path d="M456.477 543.462C456.227 558.484 406.228 561.672 403.122 544.582C403.007 543.955 402.975 543.347 403.019 542.762C403.761 532.814 426.319 528.694 441.918 532.271C449.635 534.041 455.652 537.696 456.477 543.462Z" fill="#EFCBAB"/>
<path d="M441.996 532.301L418.542 555.783C417.933 555.662 417.474 555.309 416.891 555.166L439.852 531.827C440.461 531.95 441.411 532.16 441.996 532.301Z" fill="#F39200"/>
<path d="M374.323 191.715C374.323 191.715 377.641 185.507 387.746 187.338C397.854 189.172 400.24 201.603 403.67 207.261C410.938 219.247 413.113 231.984 409.339 238.102C405.146 244.897 395.887 242.239 382.366 241.022C367.936 239.721 361.89 227.583 370.867 210.892L374.323 191.715Z" fill="#662948"/>
<path d="M378.513 220.58C378.513 220.585 378.508 220.585 378.505 220.592C378.483 220.629 378.422 220.724 378.322 220.876C376.826 223.199 367.243 238.545 366.649 251.098C366.583 252.514 366.356 253.912 365.985 255.284C365.183 255.226 364.356 255.167 363.516 255.106C362.408 255.027 361.284 254.947 360.169 254.866C356.732 254.622 353.444 254.384 351.371 254.238C350.024 244.21 363.743 223.649 376.252 221.213C376.252 221.208 376.252 221.208 376.252 221.208C376.256 221.208 376.259 221.203 376.264 221.203C377.601 220.768 378.435 220.59 378.513 220.58Z" fill="white"/>
<path d="M319.901 371.574L340 371.361C339.948 368.248 339.093 361.962 339.731 358.409L331.055 359.495C331.295 361.201 331.83 364.903 328.906 365.788C325.12 366.935 320.998 366.583 318.634 369.407C318.021 370.354 318.747 371.586 319.901 371.574Z" fill="#F99370"/>
<path d="M340.589 369.478C340.513 370.139 340.334 370.779 339.999 371.361L319.705 371.576C318.717 371.586 317.994 370.652 318.309 369.747C319.055 367.63 321.697 364.542 331.045 363.969C331.045 363.969 334.316 364.713 339.537 363.74C339.54 363.74 340.897 366.803 340.589 369.478Z" fill="#EE5463"/>
<path d="M324.279 368.989C324.117 368.989 323.966 368.896 323.9 368.745C323.135 366.974 321.788 366.444 321.731 366.422C320.656 364.835 323.726 365.94 324.658 368.437C324.775 368.691 324.562 368.994 324.279 368.989Z" fill="#E8C0A6"/>
<path d="M327.469 368.581C327.296 368.581 327.134 368.473 327.078 368.305C326.396 366.253 324.536 365.319 324.516 365.312C323.534 363.463 327.108 365.414 327.861 368.06C327.949 368.312 327.741 368.586 327.469 368.581Z" fill="#E8C0A6"/>
<path d="M331.098 368.109C330.929 368.109 330.773 368.009 330.712 367.845C329.92 365.715 328.133 364.568 328.116 364.556C327.353 362.617 330.607 364.942 331.484 367.573C331.585 367.828 331.377 368.114 331.098 368.109Z" fill="#E8C0A6"/>
<path d="M318.323 369.715L340.59 369.478C340.515 370.138 340.336 370.779 340.001 371.361L319.707 371.576C318.704 371.588 317.976 370.625 318.323 369.715Z" fill="#395B96"/>
<path d="M383.573 297.204C373.68 296.801 356.448 291.522 349.014 303.718C340.876 317.039 342.869 345.301 343.692 358.959C332.834 362.348 326.994 358.959 326.994 358.959C322.366 331.001 307.132 267.319 358.081 276.154C358.081 276.151 392.248 276.151 392.248 276.151C397.964 287.443 392.852 297.013 383.573 297.204Z" fill="#FCB4B4"/>
<path d="M344.003 371.574L364.102 371.361C364.05 368.248 363.195 361.962 363.833 358.409L355.157 359.495C355.397 361.201 356 364.903 353.008 365.788C349.214 366.911 345.1 366.583 342.736 369.407C342.12 370.354 342.846 371.586 344.003 371.574Z" fill="#F99370"/>
<path d="M364.691 369.476C364.618 370.136 364.437 370.777 364.102 371.359L343.807 371.574C342.82 371.584 342.096 370.65 342.412 369.745C343.157 367.627 345.8 364.539 355.148 363.964C355.148 363.964 358.423 364.81 363.645 363.837C363.645 363.84 364.997 366.803 364.691 369.476Z" fill="#EE5463"/>
<path d="M348.379 368.989C348.218 368.989 348.066 368.896 348 368.745C347.238 366.974 345.888 366.444 345.832 366.422C344.756 364.835 347.827 365.94 348.758 368.437C348.875 368.691 348.665 368.994 348.379 368.989Z" fill="#E8C0A6"/>
<path d="M351.568 368.581C351.394 368.581 351.233 368.473 351.177 368.305C350.495 366.253 348.635 365.319 348.615 365.312C347.632 363.463 351.206 365.414 351.959 368.06C352.047 368.312 351.842 368.583 351.568 368.581Z" fill="#E8C0A6"/>
<path d="M368.428 231.613C368.428 231.613 360.86 237.933 358.381 246.169C356.379 252.817 363.283 250.827 364.517 247.176C365.752 243.523 368.428 231.613 368.428 231.613Z" fill="#D1E0F2"/>
<path d="M355.199 368.109C355.03 368.109 354.874 368.009 354.812 367.845C354.02 365.715 352.234 364.568 352.216 364.556C351.454 362.617 354.707 364.942 355.585 367.573C355.685 367.828 355.477 368.114 355.199 368.109Z" fill="#E8C0A6"/>
<path d="M342.424 369.713L364.691 369.476C364.618 370.136 364.437 370.777 364.102 371.359L343.807 371.574C342.805 371.588 342.079 370.625 342.424 369.713Z" fill="#395B96"/>
<path d="M360.862 276.151L357.939 296.798C345.164 301.676 344.242 314.716 343.078 329.382C337.16 306.723 337.676 283.807 360.862 276.151Z" fill="#F49F9F"/>
<path d="M396.448 298.16C386.095 304.337 375.755 297.598 368.475 311.843C362.598 324.316 365.894 348.152 367.507 358.959C356.648 362.348 350.808 358.959 350.808 358.959C344.369 334.842 329.643 278.794 371.257 276.154C382.651 275.802 397.626 275.899 407.698 275.31C407.698 275.31 410.494 289.781 396.448 298.16Z" fill="#FCB4B4"/>
<path d="M407.899 269.605C408.782 275.714 407.501 282.814 407.501 282.814C394.049 278.67 381.819 278.286 361.385 275.52C374.289 238.053 344.398 264.27 378.516 220.575C378.597 220.582 386.991 220.428 386.991 220.428C396.586 227.422 402.737 237.579 407.899 269.605Z" fill="#EE5463"/>
<path d="M378.502 220.59C378.48 220.626 378.419 220.722 378.319 220.873C376.823 223.196 367.24 238.542 366.646 251.096C366.58 252.511 366.353 253.91 365.982 255.282C362.823 267.131 349.354 277.347 339.945 283.548C329.45 290.47 325.945 304.923 327.372 318.917C327.372 318.917 326.536 319.042 325.319 319.113C323.537 319.22 320.941 319.213 318.934 318.541C318.934 318.541 316.397 301.799 321.239 291.48C326.077 281.156 336.723 275.366 349.843 271.466C350.334 271.322 350.801 271.163 351.246 270.997C356.384 269.077 358.672 265.818 359.618 262.233V262.228C360.256 259.817 360.283 257.26 360.168 254.864C360.073 252.856 359.87 250.959 359.841 249.362C359.731 243.701 364.41 235.542 373.594 225.629C375.109 223.996 376.745 222.318 378.502 220.59Z" fill="white"/>
<path d="M410.126 274.053C409.889 278.922 409.28 283.655 408.043 287.7C404.811 298.275 394.126 301.42 383.304 304.882C372.482 308.342 372.182 318.917 372.182 318.917C367.535 320.042 361.355 319.619 357.95 319.247C356.405 319.076 355.432 318.917 355.432 318.917C357.637 292.089 372.961 286.57 381.143 279.225C389.325 271.882 382.571 256.864 382.693 246.164C382.808 235.801 386.741 221.362 386.988 220.47C386.993 220.455 386.996 220.441 387 220.426C387.599 220.656 388.184 220.893 388.751 221.142C404.437 227.957 408.701 241.863 409.454 251.695C409.935 257.986 410.514 266.202 410.126 274.053Z" fill="white"/>
<path d="M386.612 231.51C385.612 236.882 384.685 242.873 384.8 246.166C385.037 253.091 389.57 267.999 386.849 276.151C384.128 284.303 373.477 285.817 366.078 296.135C358.678 306.459 357.95 319.247 357.95 319.247C356.405 319.076 355.432 318.917 355.432 318.917C357.637 292.089 372.961 286.57 381.143 279.225C389.325 271.882 382.571 256.864 382.693 246.164C382.808 235.801 386.741 221.362 386.988 220.47C386.993 220.455 386.996 220.441 387 220.426C387.631 220.438 388.259 220.47 388.888 220.529C388.861 220.644 388.812 220.854 388.751 221.142C388.382 222.761 387.47 226.91 386.612 231.51Z" fill="#D1E0F2"/>
<path d="M378.513 220.58C378.513 220.585 378.508 220.585 378.506 220.592C378.484 220.629 378.423 220.724 378.323 220.876C376.827 223.199 367.244 238.545 366.65 251.098C366.584 252.514 366.357 253.912 365.985 255.284C362.827 267.133 349.357 277.349 339.948 283.55C329.454 290.473 325.948 304.926 327.376 318.92C327.376 318.92 326.54 319.044 325.323 319.115C322.749 301.439 329.972 287.326 335.947 283.426C339.362 281.196 345.876 275.88 351.247 270.999C355.271 267.344 358.656 263.93 359.619 262.236V262.231C360.944 259.901 362.445 257.438 363.514 255.106C364.254 253.487 364.785 251.929 364.897 250.523C365.169 247.1 365.034 241.887 368.425 235.09C370.114 231.698 372.06 228.246 373.59 225.629C375.13 222.993 376.25 221.211 376.25 221.211L376.262 221.203C377.601 220.768 378.435 220.59 378.513 220.58Z" fill="#D1E0F2"/>
<path d="M325.322 278.296H370.544L361.54 246.166H316.593L325.322 278.296Z" fill="#163260"/>
<path d="M370.543 278.137H325.321V280.318H370.543V278.137Z" fill="#234270"/>
<path d="M360.861 246.166H362.48L371.3 278.137H392.76V280.318H369.791V278.367L360.861 246.166Z" fill="#0B274F"/>
<path d="M378.72 217.665L378.515 220.575C378.515 220.575 378.359 222.252 378.564 223.588C378.943 226.055 381.534 226.847 383.301 225.382C384.952 224.013 386.99 220.428 386.99 220.428C386.99 220.428 386.978 218.744 387.135 217.57L378.72 217.665Z" fill="#F99370"/>
<path d="M388.782 209.332C388.748 209.472 388.709 209.611 388.66 209.745C388.479 209.604 387.447 214.448 387.073 218.14C383.46 220.191 379.283 219.917 378.566 219.705C378.76 214.242 379.234 206.066 383.573 204.542C386.484 203.645 389.569 206.427 388.782 209.332Z" fill="#E57D61"/>
<path d="M377.839 191.336C366.931 190.067 365.203 206.755 372.615 212.895L377.839 191.336Z" fill="#662948"/>
<path d="M390.696 203.095C391.221 206.738 391.256 211.012 389.158 214.154L389.153 214.157C383.416 223.253 364.427 217.389 369.629 206.603C370.394 205.227 370.824 203.554 370.88 202.134C371.052 187.235 389.175 190.36 390.696 203.095Z" fill="#FFB27D"/>
<path d="M376.347 205.034C375.826 204.527 376.657 203.75 377.163 204.268C377.682 204.774 376.851 205.554 376.347 205.034Z" fill="#C16256"/>
<path d="M371.551 205.652C371.03 205.146 371.861 204.369 372.367 204.887C372.888 205.393 372.057 206.173 371.551 205.652Z" fill="#C16256"/>
<path d="M374.408 209.782C373.45 209.931 372.059 209.689 372.966 208.574C373.819 207.731 373.917 205.449 373.92 205.425C373.924 205.158 374.364 205.168 374.35 205.44C374.345 205.54 374.242 207.907 373.274 208.865C373.164 208.975 373.049 209.122 373.13 209.215C373.357 209.476 374.438 209.52 375.059 209.102C375.154 209.036 375.289 209.061 375.357 209.154C375.516 209.589 374.741 209.684 374.408 209.782Z" fill="#C16256"/>
<path d="M390.696 203.095C391.221 206.738 391.256 211.012 389.158 214.154L389.153 214.157C390.121 211.802 389.757 207.288 389.757 207.288L388.42 205.633C374.748 205.454 372.738 195.456 372.738 195.456C378.745 187.629 389.982 194.696 390.696 203.095Z" fill="#E57D61"/>
<path d="M373.785 194.197C373.785 194.197 375.819 204.041 388.193 204.637L391.508 201.307C393.048 192.739 382.539 183.964 373.785 194.197Z" fill="#662948"/>
<path d="M393.526 204.168C393.966 208.337 388.532 208.814 388.19 204.638C387.753 200.471 393.184 199.992 393.526 204.168Z" fill="#F99370"/>
<path d="M392.249 203.09C391.696 201.437 388.416 203.202 389.812 203.263C389.817 203.19 391.271 202.346 391.723 203.078C390.291 203.733 389.814 206.32 390.643 205.484C390.645 205.469 390.816 203.994 391.943 203.437C392.503 207.205 393.012 204.594 392.249 203.09Z" fill="#C16256"/>
<path d="M391.862 206.657C392.055 207.234 391.116 207.513 390.94 206.931C390.75 206.357 391.688 206.075 391.862 206.657Z" fill="#F4D4BE"/>
<path d="M343.353 354.267C343.532 357.191 343.691 358.959 343.691 358.959C332.832 362.348 326.992 358.959 326.992 358.959C326.992 358.959 326.77 357.465 326.303 354.934C326.435 354.996 333.182 358.277 343.353 354.267Z" fill="#F49F9F"/>
<path d="M367.508 358.959C356.649 362.348 350.809 358.959 350.809 358.959C350.809 358.959 350.445 357.605 349.829 355.265C349.829 355.265 355.816 358.282 366.941 355.265C367.268 357.578 367.508 358.959 367.508 358.959Z" fill="#F49F9F"/>
<path d="M378.126 203.347C378.074 203.347 378.021 203.329 377.977 203.298C376.613 202.263 375.371 202.598 375.32 202.613C375.19 202.65 375.056 202.579 375.016 202.454C374.977 202.329 375.051 202.2 375.178 202.161C375.239 202.143 376.703 201.733 378.275 202.923C378.38 203.004 378.4 203.151 378.316 203.254C378.27 203.315 378.199 203.347 378.126 203.347Z" fill="#C16256"/>
<path d="M370.987 203.914C370.941 203.914 370.892 203.901 370.85 203.872C370.738 203.799 370.708 203.652 370.784 203.544C370.816 203.498 371.574 202.427 372.838 202.474C372.972 202.478 373.077 202.588 373.07 202.718C373.065 202.848 372.953 202.953 372.818 202.945C371.826 202.914 371.192 203.799 371.188 203.809C371.141 203.877 371.065 203.914 370.987 203.914Z" fill="#C16256"/>
<path d="M376.239 212.01C375.921 212.01 375.643 211.9 375.464 211.677C375.088 211.203 375.337 210.425 376.031 209.904C376.728 209.384 377.569 209.344 377.945 209.819C378.322 210.293 378.072 211.071 377.378 211.592C377.009 211.868 376.598 212.01 376.239 212.01ZM377.17 209.963C376.928 209.963 376.623 210.061 376.33 210.278C375.826 210.657 375.672 211.169 375.85 211.391C376.029 211.614 376.576 211.599 377.082 211.22C377.586 210.841 377.74 210.33 377.564 210.107C377.486 210.014 377.344 209.963 377.17 209.963Z" fill="#C16256"/>
<path d="M401.834 227.537C412.257 235.109 417.826 248.739 415.073 261.131C414.017 268.092 409.485 274.714 402.396 276.684C398.895 278.041 382.568 280.222 383.328 274.606C383.588 273.259 384.82 272.762 386.015 272.403C387.983 271.73 390.012 270.987 391.889 270.161C395.25 268.469 399.572 266.887 400.303 263.229C401.861 254.688 398.25 246.337 391.667 240.762C391.679 240.77 391.635 240.738 391.733 240.806C382.81 234.361 392.857 221.177 401.834 227.537Z" fill="#FFB27D"/>
<path d="M410.126 274.053C409.478 274.435 408.794 274.804 408.085 275.159C402.924 277.75 397.747 278.156 393.882 278.293C393.882 278.293 394.774 272.704 390.609 270.403C410.263 255.925 389.362 247.492 387.763 233.327C387.137 227.788 388.885 220.531 388.885 220.531C412.898 222.732 437.199 258.231 410.126 274.053Z" fill="white"/>
<path d="M373.369 278.137C373.369 278.137 375.383 271.312 387.406 272.097L389.923 278.137H373.369Z" fill="#FFB27D"/>
<path d="M396.67 278.107C394.952 278.293 393.881 278.296 393.881 278.296C393.881 278.296 394.773 272.706 390.605 270.405C390.605 270.405 391.632 269.76 392.972 268.613C392.972 268.613 397.541 271.862 396.67 278.107Z" fill="#D1E0F2"/>
<path d="M374.025 278.068C371.888 278.132 379.667 272.96 381.986 274.224C382.006 274.408 381.869 274.569 381.681 274.589C377.305 275.031 374.394 278.054 374.025 278.068Z" fill="#E57D61"/>
<path d="M377.32 278.183C375.699 277.513 380.735 276.362 383.228 275.709C383.412 275.672 383.595 275.787 383.632 275.965C383.671 276.144 383.551 276.32 383.365 276.357C380.711 276.89 377.589 278.156 377.32 278.183Z" fill="#E57D61"/>
<path d="M392.52 270.263C392.351 270.263 392.185 270.192 392.073 270.053C391.877 269.813 391.919 269.464 392.166 269.273C399.832 263.375 399.157 255.922 396.835 252.348C394.305 248.455 389.926 241.337 389.882 241.266C389.721 241.002 389.809 240.662 390.08 240.506C390.352 240.349 390.704 240.435 390.865 240.699C390.909 240.77 395.28 247.878 397.803 251.758C400.345 255.668 401.132 263.793 392.877 270.143C392.769 270.224 392.645 270.263 392.52 270.263Z" fill="#D1E0F2"/>
<path d="M395.651 278.22C395.356 278.22 395.104 277.997 395.082 277.706C395.057 277.401 395.294 277.134 395.61 277.112C395.703 277.105 405.007 276.401 409.289 273.902C409.561 273.745 409.91 273.828 410.074 274.092C410.238 274.354 410.15 274.696 409.879 274.853C405.361 277.486 396.087 278.19 395.693 278.217C395.681 278.22 395.666 278.22 395.651 278.22Z" fill="#D1E0F2"/>
<path d="M100.622 391.315V515.189C100.622 519.088 114.077 522.25 130.675 522.25C147.272 522.25 160.727 519.088 160.727 515.189V391.315H100.622Z" fill="#213360"/>
<path d="M153.539 386.473C147.645 384.976 139.578 384.052 130.675 384.052C121.772 384.052 113.704 384.976 107.81 386.473H98V392.526C98 397.206 112.629 400.999 130.675 400.999C148.721 400.999 163.35 397.206 163.35 392.526V386.473H153.539Z" fill="#F99746"/>
<path d="M130.675 394.947C148.721 394.947 163.35 391.153 163.35 386.473C163.35 381.794 148.721 378 130.675 378C112.629 378 98 381.794 98 386.473C98 391.153 112.629 394.947 130.675 394.947Z" fill="#F4B178"/>
<path d="M126.964 505.985L117.549 505.283C117.547 505.283 117.543 505.283 117.541 505.283L108.041 504.575C105.593 504.391 103.455 506.221 103.255 508.666C102.87 515.314 112.84 513.397 116.878 514.2C116.88 514.2 116.882 514.196 116.882 514.196C116.878 514.204 126.383 514.908 126.386 514.908C127.616 514.999 128.768 514.583 129.635 513.837C132.662 511.408 130.863 506.144 126.964 505.985Z" fill="#EE5463"/>
<path d="M150.217 504.278L141.115 506.788C141.113 506.788 141.109 506.79 141.107 506.79L131.923 509.322C129.556 509.975 128.16 512.417 128.793 514.787C130.667 521.177 139.41 516.014 143.483 515.409C143.485 515.409 143.485 515.403 143.485 515.405C143.485 515.415 152.672 512.875 152.672 512.875C153.862 512.546 154.806 511.767 155.371 510.772C157.408 507.468 153.943 503.116 150.217 504.278Z" fill="#EE5463"/>
<path d="M147.305 494.507C144.144 488.649 136.663 495.514 132.807 496.951L132.805 496.957C132.803 496.947 124.343 501.341 124.343 501.341C123.248 501.91 122.486 502.868 122.141 503.957C120.836 507.615 125.13 511.152 128.533 509.239L136.915 504.891C136.917 504.891 136.921 504.889 136.923 504.887L145.38 500.501C147.559 499.374 148.418 496.694 147.305 494.507Z" fill="#EE5463"/>
<path d="M121.329 492.649C121.327 492.649 121.323 492.651 121.323 492.651C121.329 492.643 112.299 489.593 112.297 489.591C111.127 489.195 109.909 489.31 108.884 489.819C105.346 491.415 105.774 496.961 109.509 498.088L118.453 501.117C118.455 501.119 118.459 501.119 118.461 501.119L127.483 504.173C129.808 504.96 132.333 503.723 133.138 501.405C135.171 495.064 125.038 494.433 121.329 492.649Z" fill="#EE5463"/>
<path d="M145.014 490.128C145.012 490.128 145.008 490.13 145.008 490.13C145.016 490.123 136.637 485.574 136.637 485.574C135.552 484.985 134.332 484.89 133.237 485.215C129.477 486.183 128.953 491.721 132.442 493.47L140.738 497.982C140.74 497.984 140.744 497.984 140.746 497.986L149.114 502.537C151.272 503.711 153.971 502.922 155.159 500.776C158.241 494.871 148.364 492.518 145.014 490.128Z" fill="#EE5463"/>
<path d="M134.755 478.89L125.866 482.076C125.864 482.076 125.86 482.078 125.858 482.078L116.89 485.292C114.579 486.121 113.369 488.659 114.178 490.975C116.525 497.205 124.857 491.403 128.871 490.495C128.873 490.495 128.873 490.489 128.873 490.489C128.873 490.499 137.845 487.279 137.847 487.279C139.009 486.863 139.892 486.014 140.38 484.981C142.163 481.531 138.381 477.452 134.755 478.89Z" fill="#EE5463"/>
<path d="M145.814 463.13L137.028 466.59C137.026 466.59 137.022 466.592 137.02 466.592L128.158 470.082C125.873 470.982 124.743 473.556 125.623 475.848C128.162 482.001 136.31 475.945 140.294 474.912C140.296 474.912 140.296 474.906 140.296 474.906C140.296 474.916 149.165 471.417 149.165 471.417C150.312 470.965 151.169 470.09 151.625 469.041C153.301 465.54 149.397 461.58 145.814 463.13Z" fill="#EE5463"/>
<path d="M131.28 462.722L122.234 460.017C122.232 460.017 122.228 460.015 122.226 460.015L113.099 457.285C110.745 456.581 108.266 457.908 107.546 460.255C105.745 466.664 115.894 466.933 119.664 468.581C119.666 468.581 119.67 468.579 119.668 468.579C119.662 468.587 128.797 471.313 128.797 471.313C129.979 471.666 131.193 471.506 132.199 470.964C135.683 469.243 135.055 463.715 131.28 462.722Z" fill="#EE5463"/>
<path d="M122.029 468.325L114.302 473.752C114.3 473.752 114.298 473.756 114.296 473.756L106.5 479.231C104.489 480.643 103.997 483.411 105.391 485.431C109.306 490.815 115.802 483.012 119.433 481.073C119.433 481.071 119.433 481.067 119.433 481.067C119.435 481.077 127.232 475.592 127.234 475.592C128.245 474.881 128.87 473.83 129.068 472.703C129.873 468.908 125.145 465.976 122.029 468.325Z" fill="#EE5463"/>
<path d="M129.507 443.834C127.185 437.594 118.829 443.362 114.811 444.254C114.809 444.254 114.809 444.26 114.809 444.26C114.809 444.25 105.824 447.434 105.824 447.434C104.66 447.845 103.775 448.69 103.28 449.721C101.483 453.163 105.249 457.259 108.882 455.834C108.882 455.834 117.784 452.687 117.784 452.685C117.786 452.685 117.79 452.683 117.792 452.683L126.774 449.508C129.087 448.688 130.308 446.154 129.507 443.834Z" fill="#EE5463"/>
<path d="M144.683 442.697C147.469 436.65 137.487 434.792 134.022 432.571C134.019 432.571 134.015 432.573 134.015 432.573C134.021 432.567 125.429 428.439 125.429 428.439C124.318 427.904 123.094 427.87 122.015 428.249C118.307 429.403 118.061 434.962 121.631 436.533L130.141 440.625C130.143 440.627 130.147 440.627 130.149 440.629L138.733 444.756C140.948 445.822 143.604 444.9 144.683 442.697Z" fill="#EE5463"/>
<path d="M144.377 456.125C143 449.611 133.885 454.083 129.781 454.372C129.779 454.372 129.777 454.378 129.777 454.376C129.779 454.366 120.422 456.19 120.422 456.19C119.21 456.426 118.209 457.13 117.57 458.078C115.287 461.217 118.405 465.823 122.209 464.951L131.477 463.15C131.479 463.15 131.483 463.148 131.485 463.148L140.836 461.33C143.246 460.864 144.827 458.536 144.377 456.125Z" fill="#EE5463"/>
<path d="M133.424 486.399C136.173 480.335 126.179 478.539 122.702 476.338C122.7 476.338 122.696 476.34 122.696 476.34C122.702 476.334 114.085 472.259 114.083 472.259C112.968 471.73 111.744 471.706 110.667 472.089C106.967 473.265 106.754 478.824 110.334 480.375L118.868 484.416C118.87 484.418 118.874 484.418 118.876 484.42L127.486 488.495C129.707 489.546 132.357 488.608 133.424 486.399Z" fill="#EE5463"/>
<path d="M148.126 437.877C143.39 433.198 138.245 441.954 134.977 444.456C134.977 444.458 134.977 444.462 134.977 444.462C134.973 444.454 128.168 451.13 128.168 451.13C127.287 451.993 126.839 453.133 126.827 454.277C126.649 458.157 131.788 460.281 134.483 457.459L141.228 450.849C141.23 450.849 141.232 450.845 141.234 450.843L148.037 444.175C149.792 442.455 149.83 439.642 148.126 437.877Z" fill="#EE5463"/>
<path d="M150.312 478.021C150.31 478.021 150.306 478.021 150.306 478.021C150.314 478.017 143.676 471.175 143.676 471.175C142.817 470.29 141.679 469.836 140.535 469.818C136.659 469.62 134.507 474.75 137.316 477.46L143.89 484.241C143.89 484.243 143.894 484.245 143.896 484.247L150.528 491.088C152.238 492.851 155.048 492.904 156.822 491.209C161.522 486.494 152.797 481.301 150.312 478.021Z" fill="#EE5463"/>
<path d="M156.403 464.187L150.139 457.122C150.139 457.12 150.135 457.118 150.133 457.116L143.811 449.988C142.182 448.15 139.376 447.972 137.527 449.586C132.619 454.085 141.107 459.66 143.442 463.049C143.444 463.049 143.448 463.049 143.448 463.049C143.44 463.053 149.767 470.183 149.767 470.183C150.586 471.107 151.702 471.611 152.843 471.678C156.71 472.047 159.088 467.017 156.403 464.187Z" fill="#EE5463"/>
<path d="M157.14 445.17C152.129 440.786 147.523 449.836 144.413 452.532C144.413 452.534 144.413 452.538 144.413 452.538C144.408 452.53 138.019 459.605 138.019 459.605C137.192 460.521 136.813 461.685 136.871 462.827C136.928 466.709 142.186 468.52 144.705 465.541L151.038 458.536C151.04 458.536 151.042 458.532 151.044 458.53L157.434 451.463C159.078 449.641 158.947 446.83 157.14 445.17Z" fill="#EE5463"/>
<path d="M198.136 544.743C200.946 541.031 197.526 524.057 197.647 519.72H210.415C210.56 524.047 207.353 541.057 210.033 544.735C210.795 546.063 197.371 546.047 198.136 544.743Z" fill="#F99370"/>
<path d="M260.656 549.85H238.303C236.978 549.85 235.941 548.711 236.062 547.394C236.273 545.082 236.772 541.907 236.612 540.437C236.7 539.082 234.752 521.534 234.605 519.717H248.686L246.415 537.837C246.148 539.975 247.422 542.009 249.466 542.685C252.229 543.596 255.374 543.992 257.452 544.526C259.459 545.034 261.262 545.731 262.163 547.273C262.831 548.415 261.976 549.85 260.656 549.85Z" fill="#F99370"/>
<path d="M235.316 547.493L235.319 547.517C235.482 548.85 236.612 549.85 237.956 549.85H260.477C261.767 549.85 262.713 548.596 262.32 547.367C261.134 543.658 257.415 541.359 246.869 540.437C246.869 540.437 242.992 541.592 236.614 540.437C236.612 540.437 234.904 544.133 235.316 547.493Z" fill="#395B96"/>
<path d="M199.171 549.853H208.993C210.369 549.853 211.491 548.714 211.427 547.338C211.002 538.091 197.095 538.016 196.734 547.346C196.681 548.717 197.798 549.853 199.171 549.853Z" fill="#395B96"/>
<path d="M255.176 546.659C255.373 546.659 255.56 546.541 255.64 546.346C256.546 544.109 258.181 543.425 258.251 543.398C258.852 543.166 258.481 542.22 257.882 542.466C257.797 542.5 255.79 543.315 254.713 545.969C254.574 546.29 254.831 546.667 255.176 546.659Z" fill="#E8C0A6"/>
<path d="M251.283 546.189C251.496 546.189 251.694 546.05 251.761 545.836C252.557 543.262 254.817 542.049 254.841 542.038C255.419 541.747 254.951 540.841 254.379 541.148C254.272 541.204 251.729 542.554 250.807 545.539C250.7 545.854 250.954 546.194 251.283 546.189Z" fill="#E8C0A6"/>
<path d="M246.852 545.646C247.06 545.646 247.252 545.518 247.325 545.309C248.265 542.605 250.419 541.156 250.443 541.143C250.988 540.793 250.427 539.94 249.89 540.306C249.791 540.373 247.429 541.961 246.379 544.981C246.261 545.296 246.515 545.651 246.852 545.646Z" fill="#E8C0A6"/>
<path d="M200.473 543.433C204.296 541.271 207.695 544.104 208.245 543.139C208.694 542.124 203.687 540.603 200.219 542.5C199.778 542.738 199.981 543.452 200.473 543.433Z" fill="#E8C0A6"/>
<path d="M262.357 547.493H235.315L235.318 547.517C235.481 548.85 236.611 549.85 237.955 549.85H260.714C261.916 549.85 262.771 548.666 262.373 547.533C262.365 547.519 262.36 547.506 262.357 547.493Z" fill="#4867AA"/>
<path d="M198.972 549.852H209.195C210.464 549.852 211.492 548.802 211.439 547.535C211.439 547.522 211.439 547.509 211.436 547.495H196.728C196.728 547.511 196.725 547.527 196.725 547.543C196.68 548.808 197.706 549.852 198.972 549.852Z" fill="#4867AA"/>
<path d="M232.424 318.984C232.424 318.984 233.712 311.728 227.345 309.379L223.324 312.402L232.424 318.984Z" fill="#8C4225"/>
<path d="M243.445 373.188C261.317 386.653 289.286 382.622 299.628 363.038L297.01 357.594C267.027 370.486 255.223 345.228 230.896 343.772L235.796 350.026C235.796 350.026 243.026 372.758 243.445 373.188Z" fill="white"/>
<path d="M196.101 536.99C196.101 536.99 206.847 539.601 212.386 536.795C215.269 518.718 223.268 468.386 226.055 433.895C226.162 435.907 232.016 517.015 233.13 536.795C236.953 538.075 244.64 539.617 248.939 536.519C250.871 515.698 257.075 447.148 247.729 391.161C247.729 391.161 222.117 394.01 202.115 387.965C196.611 405.724 195.152 515.679 196.101 536.99Z" fill="#233862"/>
<path d="M228.114 343.299C228.29 337.777 228.977 326.825 224.496 325.356C221.279 324.238 217.469 326.98 218.46 330.607C218.752 330.423 219.687 340.765 219.04 343.636C210.549 346.185 236.089 354.564 228.114 343.299Z" fill="#FFB27D"/>
<path d="M218.373 330.137C218.395 330.294 218.424 330.455 218.459 330.607C218.67 330.468 219.258 336.174 219.263 340.316C223.153 342.086 227.391 341.393 228.184 341.23C228.401 335.514 228.751 326.954 224.494 325.358C221.459 324.057 217.839 326.826 218.373 330.137Z" fill="#E57D61"/>
<path d="M212.259 326.323C212.914 330.377 214.282 334.947 217.483 337.63H217.488C222.156 341.166 228.993 340.789 233.741 336.893H233.743C237.406 333.469 238.566 328.859 236.637 325.307C235.376 323.215 233.051 321.371 232.426 318.987C226.992 303.11 209.953 311.988 212.259 326.323Z" fill="#FFB27D"/>
<path d="M227.73 323.822C228.101 323.116 226.987 322.549 226.634 323.266C226.263 323.971 227.38 324.538 227.73 323.822Z" fill="#C16256"/>
<path d="M232.891 322.956C233.262 322.25 232.148 321.684 231.795 322.4C231.424 323.103 232.541 323.669 232.891 322.956Z" fill="#C16256"/>
<path d="M212.261 326.323C212.916 330.377 214.284 334.947 217.485 337.63H217.49C217.755 337.852 217.936 337.959 218.228 338.144C215.791 335.725 214.476 330.634 214.476 330.634L215.051 326.24C218.984 322.253 217.29 317.771 217.29 317.771C223.868 319.618 226.083 315.558 226.083 315.558C228.161 315.825 230.35 314.754 230.35 314.754C222.866 303.925 209.945 315.443 212.261 326.323Z" fill="#E57D61"/>
<path d="M214.279 315.756C217.074 316.862 218.057 323.357 211.449 327.798C211.449 327.798 208.248 317.095 214.279 315.756Z" fill="#8C4225"/>
<path d="M294.501 358.623C293.384 364.123 298.247 365.403 298.247 365.403C299.174 364.011 299.631 363.035 299.628 363.038L297.01 357.594C297.01 357.594 295.855 357.982 294.501 358.623Z" fill="#D1E0F2"/>
<path d="M230.937 328.293C232.059 328.279 233.807 327.52 232.388 326.524C231.228 325.895 230.376 323.493 230.368 323.469C230.274 323.186 229.825 323.338 229.93 323.621C229.967 323.728 230.851 326.219 232.166 326.932C233.074 327.491 231.18 328.031 230.397 327.753C230.274 327.713 230.143 327.782 230.106 327.903C230.039 328.319 230.648 328.261 230.937 328.293Z" fill="#C16256"/>
<path d="M199.55 413.068C213.456 418.851 248.094 419.321 251.455 415.227C258.025 399.005 245.903 355.761 230.895 343.775C230.765 343.737 229.071 343.304 228.119 343.304C228.186 343.569 229.867 350.563 219.043 343.638C218.982 343.711 216.403 343.759 215.717 344.232C216.489 355.542 194.494 400.686 199.55 413.068Z" fill="#2B478B"/>
<path d="M244.155 353.479L250.878 377.55C261.362 383.331 279.279 382.144 287.602 375.642C257.811 387.184 255.38 364.374 244.559 353.479H244.155Z" fill="#D1E0F2"/>
<path d="M215.367 309.513C217.558 306.915 221.544 305.646 222.455 303C222.455 303 223.807 305.534 223.65 308.364C224.71 307.174 225.683 305.873 226.444 304.478C227.518 305.563 228.093 306.806 228.267 308.083C231.678 307.34 234.671 308.708 234.671 308.708C232.918 313.666 228.828 314.756 225.619 314.775C222.958 317.325 218.704 318.479 214.592 315.956L210.63 321.077C205.006 311.317 215.367 309.513 215.367 309.513Z" fill="#8C4225"/>
<path d="M189.277 485.792C199.513 488.684 208.261 488.529 212.664 488.16C214.614 487.997 215.71 487.794 215.71 487.794C215.71 487.794 219.148 416.718 220.193 401.693C221.879 386.193 223.111 350.37 215.71 344.232L213.011 344.694C195.038 367.007 190.937 474.862 189.277 485.792Z" fill="white"/>
<path d="M248.687 488.361C248.687 488.361 249.668 488.508 251.127 488.561C254.026 488.671 258.821 488.39 261.501 485.792C261.843 480.057 266.498 351.183 234.171 344.074L234.169 344.071C233.116 343.841 232.026 343.74 230.896 343.775C252.003 363.637 250.771 471.668 248.687 488.361Z" fill="white"/>
<path d="M217.807 334.314C217.807 334.317 229.044 341.017 233.744 336.89C237.891 333.25 238.553 328.865 236.638 325.305C236.638 325.305 231.35 327.146 219.402 326.641C219.402 326.641 220.238 332.032 217.807 334.314Z" fill="white"/>
<path d="M219.4 326.874C219.659 326.882 219.718 326.481 219.462 326.417L214.513 325.078C212.908 325.596 219.456 326.729 219.4 326.874Z" fill="#C16256"/>
<path d="M217.804 334.546C218.023 334.554 218.125 334.239 217.932 334.121C217.791 334.164 213.104 330.586 213.07 331.168C212.72 331.526 217.641 334.415 217.804 334.546Z" fill="#C16256"/>
<path d="M209.686 328.37C210.682 332.978 216.309 331.788 215.355 327.17C214.359 322.565 208.732 323.755 209.686 328.37Z" fill="#F99370"/>
<path d="M211.147 329.324C211.299 329.327 211.417 329.169 211.369 329.025C210.49 326.574 211.577 325.543 213.231 326.224C214.856 325.668 209.103 324.169 210.925 329.161C210.955 329.26 211.048 329.324 211.147 329.324Z" fill="#C16256"/>
<path d="M213.314 328.998C214.016 328.899 212.683 326.743 210.898 326.596C210.596 326.569 210.567 327.045 210.866 327.058C212.664 327.245 212.889 328.939 213.314 328.998Z" fill="#C16256"/>
<path d="M215.261 357.819C216.423 366.87 207.911 381.468 221.23 385.557L211.2 387.965L208.402 377.114L215.261 357.819Z" fill="#D1E0F2"/>
<path d="M248.687 488.361C248.687 488.361 249.668 488.508 251.127 488.561C253.101 469.803 252.548 445.731 252.102 433.897C251.637 421.679 250.151 396.434 246.05 374.191C241.944 351.947 234.171 344.074 234.171 344.074L234.168 344.071C233.116 343.841 232.026 343.74 230.896 343.775C252.003 363.637 250.771 471.668 248.687 488.361Z" fill="#D1E0F2"/>
<path d="M197.699 398.134L197.525 399.847C205.442 403.757 220.196 401.693 220.196 401.693C220.345 399.408 220.492 397.212 220.631 395.103L199.772 388.978C199.104 392.639 198.217 394.339 197.699 398.134Z" fill="#D1E0F2"/>
<path d="M212.664 488.16C214.615 487.997 215.71 487.794 215.71 487.794C215.71 487.794 219.149 416.718 220.193 401.693C221.879 386.193 223.114 350.37 215.713 344.232L213.014 344.694C215.504 346.164 218.932 356.996 218.836 372.077C218.708 392.294 216.653 416.833 215.627 433.897C214.751 448.527 213.113 479.603 212.664 488.16Z" fill="#D1E0F2"/>
<path d="M224.802 322.865C224.874 322.865 224.941 322.825 224.973 322.755C225.791 320.965 227.712 321.007 227.725 321.01C227.824 321.007 227.918 320.933 227.92 320.828C227.923 320.724 227.843 320.636 227.739 320.633C227.715 320.631 225.55 320.582 224.631 322.597C224.589 322.694 224.629 322.803 224.725 322.849C224.749 322.859 224.776 322.865 224.802 322.865Z" fill="#C16256"/>
<path d="M232.532 320.697C232.588 320.697 232.647 320.671 232.682 320.623C232.743 320.54 232.727 320.422 232.644 320.358C232.601 320.326 231.559 319.556 229.849 320.163C229.751 320.198 229.7 320.304 229.735 320.403C229.769 320.502 229.876 320.553 229.975 320.518C231.485 319.984 232.38 320.633 232.417 320.66C232.452 320.684 232.492 320.697 232.532 320.697Z" fill="#C16256"/>
<path d="M215.719 344.229C218.035 346.404 232.159 355.825 230.895 343.772C230.764 343.737 229.07 343.304 228.116 343.302C228.183 343.566 229.276 350.108 219.04 343.636C218.997 343.609 216.389 343.791 215.719 344.229Z" fill="#D1A68F"/>
<path d="M302.251 348.687C303.408 349.181 301.137 351.92 301.105 353.088C303.216 352.409 305.147 351.113 305.163 351.116C307.13 349.197 308.99 347.174 310.758 345.065C311.309 344.376 312.428 345.188 311.929 345.929C310.47 348.182 308.909 350.378 307.242 352.487C307.258 352.506 307.253 352.5 307.269 352.516C309.575 351.06 311.811 349.483 313.908 347.738C314.168 347.521 314.494 347.39 314.833 347.398C317.753 347.452 309.054 353.984 308.356 354.577C308.362 354.588 308.362 354.585 308.367 354.593C310.75 353.596 313.021 352.327 315.137 350.843C315.45 350.624 315.835 350.52 316.209 350.592C318.795 351.092 309.716 356.792 308.811 357.148C308.811 357.159 308.813 357.169 308.813 357.18C310.782 356.675 312.693 355.935 314.552 355.101C314.854 354.964 315.194 354.924 315.514 355.015C318.127 355.745 309.644 359.534 308.773 359.804C307.862 360.355 304.528 362.651 299.424 363.434C297.835 363.677 295.601 359.78 296.349 357.832C296.774 356.726 298.318 354.245 298.73 353.641C299.227 352.49 300.79 348.246 302.251 348.687Z" fill="#F99370"/>
<path d="M261.812 353.65C261.817 353.655 295.875 381.433 295.838 381.46L266.474 417.437C254.841 432.703 228.566 425.115 227.321 406.063C226.755 400.467 228.323 394.651 232.16 389.95C232.165 389.948 261.788 353.609 261.812 353.65Z" fill="#EE5463"/>
<path d="M322.486 314.305C331.773 322.01 333.12 335.773 325.481 345.132L295.858 381.428C295.821 381.465 261.795 353.647 261.806 353.62C276.415 339.611 296.796 294.02 322.486 314.305Z" fill="white"/>
<path d="M245.071 382.702C245.862 383.681 242.576 385.038 241.999 386.057C244.184 386.444 246.498 386.204 246.509 386.214C249.146 385.439 251.735 384.52 254.284 383.486C255.094 383.135 255.703 384.378 254.912 384.795C252.569 386.105 250.161 387.315 247.703 388.398C247.709 388.422 247.709 388.414 247.714 388.438C250.434 388.229 253.146 387.882 255.818 387.323C256.149 387.254 256.496 387.291 256.793 387.454C259.35 388.868 248.604 390.568 247.711 390.766C247.714 390.776 247.711 390.774 247.714 390.787C250.287 391.022 252.887 390.963 255.452 390.643C255.831 390.595 256.221 390.683 256.518 390.921C258.57 392.572 247.877 393.361 246.912 393.251C246.907 393.262 246.904 393.27 246.899 393.28C248.876 393.756 250.909 393.997 252.943 394.13C253.274 394.152 253.592 394.277 253.832 394.504C255.802 396.373 246.53 395.75 245.633 395.581C244.569 395.643 241.323 396.84 236.447 395.14C234.927 394.611 234.248 387.569 235.79 387.214C236.946 386.949 238.993 385.771 239.64 385.431C240.62 384.648 243.987 381.625 245.071 382.702Z" fill="#FFB27D"/>
<path d="M233.098 396.314C234.194 395.95 235.308 395.56 236.446 395.141C236.633 394.16 237.782 389.534 235.789 387.214C188.196 385.135 224.511 368.744 213.014 344.689C178.882 346.944 161.768 416.339 233.098 396.314Z" fill="white"/>
<path d="M233.095 396.314C234.19 395.95 235.307 395.56 236.445 395.14C236.632 394.16 237.781 389.533 235.788 387.214C235.788 387.214 234.484 387.077 233.095 387.077C233.095 387.077 235.443 391.214 233.095 396.314Z" fill="#D1E0F2"/>
<path d="M122.477 540.462V549.053C122.477 555.985 110.511 561.605 95.7464 561.605C88.2998 561.605 81.5652 560.175 76.7184 557.869C71.9564 555.603 69.0156 552.488 69.0156 549.053V540.462H122.477Z" fill="#F99746"/>
<path d="M122.477 540.462C122.227 555.482 72.2281 558.672 69.122 541.582C69.007 540.954 68.9748 540.347 69.0191 539.762C69.7614 529.814 92.319 525.694 107.918 529.271C115.637 531.043 121.652 534.698 122.477 540.462Z" fill="#EFCBAB"/>
<path d="M107.995 529.304L84.5415 552.785C83.9324 552.664 83.4726 552.311 82.8896 552.168L105.851 528.829C106.46 528.953 107.412 529.162 107.995 529.304Z" fill="#F39200"/>
<path d="M227.612 651L233.828 633.648H237.524L243.728 651H240.236L238.82 646.98H232.58L231.128 651H227.612ZM233.36 643.92H237.98L235.688 637.032L233.36 643.92ZM246.61 654.864V638.592H250.126L250.138 640.38C250.322 640.084 250.546 639.816 250.81 639.576C251.082 639.328 251.382 639.112 251.71 638.928C252.038 638.744 252.394 638.604 252.778 638.508C253.162 638.404 253.566 638.352 253.99 638.352C254.91 638.352 255.73 638.58 256.45 639.036C257.17 639.484 257.734 640.18 258.142 641.124C258.558 642.06 258.766 643.252 258.766 644.7C258.766 646.204 258.542 647.44 258.094 648.408C257.654 649.368 257.046 650.08 256.27 650.544C255.494 651.008 254.618 651.24 253.642 651.24C253.242 651.24 252.866 651.184 252.514 651.072C252.162 650.968 251.834 650.82 251.53 650.628C251.234 650.436 250.966 650.216 250.726 649.968C250.494 649.712 250.29 649.436 250.114 649.14V654.864H246.61ZM252.802 648.672C253.562 648.672 254.198 648.356 254.71 647.724C255.23 647.092 255.49 646.092 255.49 644.724C255.49 643.524 255.242 642.588 254.746 641.916C254.258 641.236 253.61 640.896 252.802 640.896C251.898 640.896 251.222 641.264 250.774 642C250.334 642.728 250.114 643.636 250.114 644.724C250.114 645.42 250.21 646.068 250.402 646.668C250.602 647.268 250.898 647.752 251.29 648.12C251.69 648.488 252.194 648.672 252.802 648.672ZM267.142 651.24C265.926 651.24 264.866 650.98 263.962 650.46C263.066 649.94 262.37 649.204 261.874 648.252C261.386 647.3 261.142 646.172 261.142 644.868C261.142 643.564 261.386 642.424 261.874 641.448C262.37 640.472 263.066 639.712 263.962 639.168C264.866 638.624 265.93 638.352 267.154 638.352C268.378 638.352 269.438 638.62 270.334 639.156C271.23 639.684 271.922 640.436 272.41 641.412C272.898 642.388 273.142 643.54 273.142 644.868C273.142 646.116 272.902 647.22 272.422 648.18C271.95 649.132 271.266 649.88 270.37 650.424C269.482 650.968 268.406 651.24 267.142 651.24ZM267.154 648.636C267.77 648.636 268.266 648.456 268.642 648.096C269.018 647.736 269.29 647.264 269.458 646.68C269.634 646.088 269.722 645.444 269.722 644.748C269.722 644.092 269.642 643.472 269.482 642.888C269.33 642.304 269.066 641.832 268.69 641.472C268.314 641.112 267.802 640.932 267.154 640.932C266.538 640.932 266.038 641.104 265.654 641.448C265.278 641.784 265.002 642.244 264.826 642.828C264.65 643.404 264.562 644.044 264.562 644.748C264.562 645.396 264.642 646.02 264.802 646.62C264.962 647.212 265.23 647.696 265.606 648.072C265.982 648.448 266.498 648.636 267.154 648.636ZM283.36 641.028H280.6L280.624 647.64C280.624 647.944 280.66 648.172 280.732 648.324C280.812 648.468 280.932 648.564 281.092 648.612C281.26 648.652 281.472 648.672 281.728 648.672H283.396V650.832C283.236 650.904 282.984 650.972 282.64 651.036C282.304 651.1 281.832 651.132 281.224 651.132C280.136 651.132 279.292 650.992 278.692 650.712C278.1 650.432 277.688 650.04 277.456 649.536C277.224 649.032 277.108 648.448 277.108 647.784V641.028H275.092V638.592H277.228L278.104 634.848H280.6V638.58H283.36V641.028ZM289.15 645.6C289.142 646.232 289.242 646.784 289.45 647.256C289.658 647.72 289.958 648.08 290.35 648.336C290.75 648.584 291.23 648.708 291.79 648.708C292.39 648.708 292.914 648.58 293.362 648.324C293.818 648.068 294.134 647.648 294.31 647.064H297.466C297.33 647.944 296.978 648.696 296.41 649.32C295.85 649.944 295.17 650.42 294.37 650.748C293.57 651.076 292.738 651.24 291.874 651.24C290.65 651.24 289.57 650.984 288.634 650.472C287.706 649.952 286.982 649.22 286.462 648.276C285.942 647.332 285.682 646.22 285.682 644.94C285.682 643.7 285.918 642.584 286.39 641.592C286.862 640.592 287.546 639.804 288.442 639.228C289.346 638.644 290.43 638.352 291.694 638.352C292.958 638.352 294.018 638.62 294.874 639.156C295.738 639.684 296.386 640.424 296.818 641.376C297.258 642.32 297.478 643.412 297.478 644.652V645.6H289.15ZM289.138 643.512H294.202C294.202 643.016 294.11 642.56 293.926 642.144C293.742 641.728 293.462 641.4 293.086 641.16C292.718 640.92 292.254 640.8 291.694 640.8C291.15 640.8 290.686 640.932 290.302 641.196C289.926 641.452 289.638 641.788 289.438 642.204C289.238 642.62 289.138 643.056 289.138 643.512ZM312.618 651H309.126L305.778 645.648L304.134 647.4V651H300.63V633.168H304.134V643.74L308.694 638.592H312.462L307.95 643.536L312.618 651ZM328.758 651.24C327.118 651.24 325.698 650.884 324.498 650.172C323.306 649.452 322.382 648.432 321.726 647.112C321.078 645.784 320.754 644.2 320.754 642.36C320.754 640.512 321.082 638.92 321.738 637.584C322.402 636.248 323.334 635.22 324.534 634.5C325.734 633.772 327.142 633.408 328.758 633.408C330.366 633.408 331.766 633.768 332.958 634.488C334.15 635.208 335.07 636.236 335.718 637.572C336.374 638.908 336.702 640.504 336.702 642.36C336.702 644.192 336.378 645.772 335.73 647.1C335.09 648.428 334.174 649.452 332.982 650.172C331.79 650.884 330.382 651.24 328.758 651.24ZM328.758 648.36C329.606 648.36 330.338 648.16 330.954 647.76C331.578 647.352 332.058 646.712 332.394 645.84C332.73 644.96 332.898 643.816 332.898 642.408C332.898 640.96 332.726 639.788 332.382 638.892C332.046 637.996 331.566 637.34 330.942 636.924C330.326 636.5 329.598 636.288 328.758 636.288C327.918 636.288 327.186 636.5 326.562 636.924C325.938 637.34 325.454 638 325.11 638.904C324.766 639.8 324.594 640.968 324.594 642.408C324.594 643.824 324.766 644.968 325.11 645.84C325.454 646.712 325.938 647.352 326.562 647.76C327.186 648.16 327.918 648.36 328.758 648.36ZM339.751 651V638.592H343.195V640.344C343.387 640.04 343.635 639.748 343.939 639.468C344.251 639.18 344.643 638.944 345.115 638.76C345.587 638.576 346.147 638.484 346.795 638.484C347.555 638.484 348.263 638.632 348.919 638.928C349.583 639.224 350.119 639.692 350.527 640.332C350.935 640.964 351.139 641.792 351.139 642.816V651H347.635V643.248C347.635 642.576 347.435 642.072 347.035 641.736C346.635 641.4 346.147 641.232 345.571 641.232C345.187 641.232 344.815 641.3 344.455 641.436C344.103 641.572 343.815 641.776 343.591 642.048C343.367 642.32 343.255 642.656 343.255 643.056V651H339.751ZM358.658 651.216C357.746 651.216 357.022 651.108 356.486 650.892C355.95 650.676 355.554 650.392 355.298 650.04C355.042 649.68 354.878 649.284 354.806 648.852C354.734 648.412 354.698 647.968 354.698 647.52V633.168H358.13V647.088C358.13 647.544 358.226 647.916 358.418 648.204C358.618 648.484 358.99 648.656 359.534 648.72L360.122 648.756V650.916C359.882 650.996 359.638 651.064 359.39 651.12C359.142 651.184 358.898 651.216 358.658 651.216ZM366.657 638.592V651H363.309V638.592H366.657ZM366.693 633.66V636.816H363.285V633.66H366.693ZM370.622 651V638.592H374.066V640.344C374.258 640.04 374.506 639.748 374.81 639.468C375.122 639.18 375.514 638.944 375.986 638.76C376.458 638.576 377.018 638.484 377.666 638.484C378.426 638.484 379.134 638.632 379.79 638.928C380.454 639.224 380.99 639.692 381.398 640.332C381.806 640.964 382.01 641.792 382.01 642.816V651H378.506V643.248C378.506 642.576 378.306 642.072 377.906 641.736C377.506 641.4 377.018 641.232 376.442 641.232C376.058 641.232 375.686 641.3 375.326 641.436C374.974 641.572 374.686 641.776 374.462 642.048C374.238 642.32 374.126 642.656 374.126 643.056V651H370.622ZM388.449 645.6C388.441 646.232 388.541 646.784 388.749 647.256C388.957 647.72 389.257 648.08 389.649 648.336C390.049 648.584 390.529 648.708 391.089 648.708C391.689 648.708 392.213 648.58 392.661 648.324C393.117 648.068 393.433 647.648 393.609 647.064H396.765C396.629 647.944 396.277 648.696 395.709 649.32C395.149 649.944 394.469 650.42 393.669 650.748C392.869 651.076 392.037 651.24 391.173 651.24C389.949 651.24 388.869 650.984 387.933 650.472C387.005 649.952 386.281 649.22 385.761 648.276C385.241 647.332 384.981 646.22 384.981 644.94C384.981 643.7 385.217 642.584 385.689 641.592C386.161 640.592 386.845 639.804 387.741 639.228C388.645 638.644 389.729 638.352 390.993 638.352C392.257 638.352 393.317 638.62 394.173 639.156C395.037 639.684 395.685 640.424 396.117 641.376C396.557 642.32 396.777 643.412 396.777 644.652V645.6H388.449ZM388.437 643.512H393.501C393.501 643.016 393.409 642.56 393.225 642.144C393.041 641.728 392.761 641.4 392.385 641.16C392.017 640.92 391.553 640.8 390.993 640.8C390.449 640.8 389.985 640.932 389.601 641.196C389.225 641.452 388.937 641.788 388.737 642.204C388.537 642.62 388.437 643.056 388.437 643.512ZM420.725 651H416.909L412.313 642.924L409.745 646.02V651H406.109V633.648H409.745V641.592L416.069 633.648H420.089L414.821 640.368L420.725 651ZM423.588 651V633.168H427.068V640.38C427.268 640.092 427.52 639.808 427.824 639.528C428.128 639.24 428.508 639 428.964 638.808C429.42 638.616 429.976 638.52 430.632 638.52C431.424 638.52 432.144 638.676 432.792 638.988C433.448 639.292 433.972 639.736 434.364 640.32C434.764 640.904 434.964 641.616 434.964 642.456V651H431.448V642.972C431.448 642.412 431.244 641.984 430.836 641.688C430.436 641.384 429.948 641.232 429.372 641.232C428.996 641.232 428.632 641.3 428.28 641.436C427.928 641.572 427.64 641.78 427.416 642.06C427.2 642.332 427.092 642.672 427.092 643.08V651H423.588ZM442.966 651.24C442.39 651.24 441.822 651.152 441.262 650.976C440.71 650.8 440.206 650.54 439.75 650.196C439.294 649.852 438.926 649.428 438.646 648.924C438.374 648.42 438.238 647.836 438.238 647.172V638.592H441.742V646.728C441.742 647.304 441.93 647.776 442.306 648.144C442.682 648.512 443.234 648.696 443.962 648.696C444.65 648.696 445.194 648.52 445.594 648.168C446.002 647.808 446.206 647.308 446.206 646.668V638.592H449.674V651H447.034L446.626 648.54C446.482 649.268 446.21 649.828 445.81 650.22C445.418 650.604 444.966 650.868 444.454 651.012C443.95 651.164 443.454 651.24 442.966 651.24ZM458.155 651.24C457.291 651.24 456.459 651.1 455.659 650.82C454.859 650.532 454.183 650.084 453.631 649.476C453.079 648.86 452.727 648.064 452.575 647.088H455.611C455.715 647.528 455.903 647.876 456.175 648.132C456.455 648.388 456.771 648.572 457.123 648.684C457.475 648.788 457.811 648.84 458.131 648.84C458.803 648.84 459.343 648.736 459.751 648.528C460.167 648.312 460.375 647.984 460.375 647.544C460.375 647.208 460.251 646.94 460.003 646.74C459.763 646.54 459.363 646.388 458.803 646.284L456.619 645.828C455.523 645.596 454.643 645.204 453.979 644.652C453.315 644.092 452.975 643.3 452.959 642.276C452.959 641.532 453.155 640.864 453.547 640.272C453.947 639.68 454.535 639.212 455.311 638.868C456.087 638.524 457.039 638.352 458.167 638.352C459.695 638.352 460.915 638.688 461.827 639.36C462.747 640.032 463.215 640.98 463.231 642.204H460.303C460.215 641.724 459.975 641.356 459.583 641.1C459.199 640.836 458.715 640.704 458.131 640.704C457.523 640.704 457.023 640.812 456.631 641.028C456.239 641.244 456.043 641.572 456.043 642.012C456.043 642.34 456.203 642.6 456.523 642.792C456.843 642.976 457.339 643.136 458.011 643.272L460.027 643.728C460.723 643.896 461.287 644.128 461.719 644.424C462.159 644.712 462.499 645.028 462.739 645.372C462.979 645.716 463.143 646.064 463.231 646.416C463.327 646.76 463.375 647.072 463.375 647.352C463.375 648.176 463.155 648.88 462.715 649.464C462.275 650.04 461.663 650.48 460.879 650.784C460.095 651.088 459.187 651.24 458.155 651.24ZM471.125 651.24C470.549 651.24 469.981 651.152 469.421 650.976C468.869 650.8 468.365 650.54 467.909 650.196C467.453 649.852 467.085 649.428 466.805 648.924C466.533 648.42 466.397 647.836 466.397 647.172V638.592H469.901V646.728C469.901 647.304 470.089 647.776 470.465 648.144C470.841 648.512 471.393 648.696 472.121 648.696C472.809 648.696 473.353 648.52 473.753 648.168C474.161 647.808 474.365 647.308 474.365 646.668V638.592H477.833V651H475.193L474.785 648.54C474.641 649.268 474.369 649.828 473.969 650.22C473.577 650.604 473.125 650.868 472.613 651.012C472.109 651.164 471.613 651.24 471.125 651.24ZM486.314 651.24C485.45 651.24 484.618 651.1 483.818 650.82C483.018 650.532 482.342 650.084 481.79 649.476C481.238 648.86 480.886 648.064 480.734 647.088H483.77C483.874 647.528 484.062 647.876 484.334 648.132C484.614 648.388 484.93 648.572 485.282 648.684C485.634 648.788 485.97 648.84 486.29 648.84C486.962 648.84 487.502 648.736 487.91 648.528C488.326 648.312 488.534 647.984 488.534 647.544C488.534 647.208 488.41 646.94 488.162 646.74C487.922 646.54 487.522 646.388 486.962 646.284L484.778 645.828C483.682 645.596 482.802 645.204 482.138 644.652C481.474 644.092 481.134 643.3 481.118 642.276C481.118 641.532 481.314 640.864 481.706 640.272C482.106 639.68 482.694 639.212 483.47 638.868C484.246 638.524 485.198 638.352 486.326 638.352C487.854 638.352 489.074 638.688 489.986 639.36C490.906 640.032 491.374 640.98 491.39 642.204H488.462C488.374 641.724 488.134 641.356 487.742 641.1C487.358 640.836 486.874 640.704 486.29 640.704C485.682 640.704 485.182 640.812 484.79 641.028C484.398 641.244 484.202 641.572 484.202 642.012C484.202 642.34 484.362 642.6 484.682 642.792C485.002 642.976 485.498 643.136 486.17 643.272L488.186 643.728C488.882 643.896 489.446 644.128 489.878 644.424C490.318 644.712 490.658 645.028 490.898 645.372C491.138 645.716 491.302 646.064 491.39 646.416C491.486 646.76 491.534 647.072 491.534 647.352C491.534 648.176 491.314 648.88 490.874 649.464C490.434 650.04 489.822 650.48 489.038 650.784C488.254 651.088 487.346 651.24 486.314 651.24ZM256.326 676.388C256.326 677.788 256.098 679.004 255.642 680.036C255.186 681.06 254.446 681.852 253.422 682.412C252.406 682.964 251.058 683.24 249.378 683.24C247.69 683.24 246.338 682.96 245.322 682.4C244.306 681.832 243.57 681.028 243.114 679.988C242.666 678.948 242.442 677.708 242.442 676.268V665.648H246.006V676.532C246.006 677.828 246.318 678.776 246.942 679.376C247.566 679.968 248.378 680.264 249.378 680.264C250.042 680.264 250.63 680.136 251.142 679.88C251.654 679.616 252.054 679.212 252.342 678.668C252.638 678.116 252.786 677.404 252.786 676.532V665.648H256.326V676.388ZM260.085 683V670.592H263.529V672.344C263.721 672.04 263.969 671.748 264.273 671.468C264.585 671.18 264.977 670.944 265.449 670.76C265.921 670.576 266.481 670.484 267.129 670.484C267.889 670.484 268.597 670.632 269.253 670.928C269.917 671.224 270.453 671.692 270.861 672.332C271.269 672.964 271.473 673.792 271.473 674.816V683H267.969V675.248C267.969 674.576 267.769 674.072 267.369 673.736C266.969 673.4 266.481 673.232 265.905 673.232C265.521 673.232 265.149 673.3 264.789 673.436C264.437 673.572 264.149 673.776 263.925 674.048C263.701 674.32 263.589 674.656 263.589 675.056V683H260.085ZM282.052 673.028H279.292L279.316 679.64C279.316 679.944 279.352 680.172 279.424 680.324C279.504 680.468 279.624 680.564 279.784 680.612C279.952 680.652 280.164 680.672 280.42 680.672H282.088V682.832C281.928 682.904 281.676 682.972 281.332 683.036C280.996 683.1 280.524 683.132 279.916 683.132C278.828 683.132 277.984 682.992 277.384 682.712C276.792 682.432 276.38 682.04 276.148 681.536C275.916 681.032 275.8 680.448 275.8 679.784V673.028H273.784V670.592H275.92L276.796 666.848H279.292V670.58H282.052V673.028ZM289.816 683.24C289.24 683.24 288.672 683.152 288.112 682.976C287.56 682.8 287.056 682.54 286.6 682.196C286.144 681.852 285.776 681.428 285.496 680.924C285.224 680.42 285.088 679.836 285.088 679.172V670.592H288.592V678.728C288.592 679.304 288.78 679.776 289.156 680.144C289.532 680.512 290.084 680.696 290.812 680.696C291.5 680.696 292.044 680.52 292.444 680.168C292.852 679.808 293.056 679.308 293.056 678.668V670.592H296.524V683H293.884L293.476 680.54C293.332 681.268 293.06 681.828 292.66 682.22C292.268 682.604 291.816 682.868 291.304 683.012C290.8 683.164 290.304 683.24 289.816 683.24ZM312.155 683H308.663L305.315 677.648L303.671 679.4V683H300.167V665.168H303.671V675.74L308.231 670.592H311.999L307.487 675.536L312.155 683ZM335.698 683H331.882L327.286 674.924L324.718 678.02V683H321.082V665.648H324.718V673.592L331.042 665.648H335.062L329.794 672.368L335.698 683ZM340.668 677.6C340.66 678.232 340.76 678.784 340.968 679.256C341.176 679.72 341.476 680.08 341.868 680.336C342.268 680.584 342.748 680.708 343.308 680.708C343.908 680.708 344.432 680.58 344.88 680.324C345.336 680.068 345.652 679.648 345.828 679.064H348.984C348.848 679.944 348.496 680.696 347.928 681.32C347.368 681.944 346.688 682.42 345.888 682.748C345.088 683.076 344.256 683.24 343.392 683.24C342.168 683.24 341.088 682.984 340.152 682.472C339.224 681.952 338.5 681.22 337.98 680.276C337.46 679.332 337.2 678.22 337.2 676.94C337.2 675.7 337.436 674.584 337.908 673.592C338.38 672.592 339.064 671.804 339.96 671.228C340.864 670.644 341.948 670.352 343.212 670.352C344.476 670.352 345.536 670.62 346.392 671.156C347.256 671.684 347.904 672.424 348.336 673.376C348.776 674.32 348.996 675.412 348.996 676.652V677.6H340.668ZM340.656 675.512H345.72C345.72 675.016 345.628 674.56 345.444 674.144C345.26 673.728 344.98 673.4 344.604 673.16C344.236 672.92 343.772 672.8 343.212 672.8C342.668 672.8 342.204 672.932 341.82 673.196C341.444 673.452 341.156 673.788 340.956 674.204C340.756 674.62 340.656 675.056 340.656 675.512ZM352.148 686.864V670.592H355.664L355.676 672.38C355.86 672.084 356.084 671.816 356.348 671.576C356.62 671.328 356.92 671.112 357.248 670.928C357.576 670.744 357.932 670.604 358.316 670.508C358.7 670.404 359.104 670.352 359.528 670.352C360.448 670.352 361.268 670.58 361.988 671.036C362.708 671.484 363.272 672.18 363.68 673.124C364.096 674.06 364.304 675.252 364.304 676.7C364.304 678.204 364.08 679.44 363.632 680.408C363.192 681.368 362.584 682.08 361.808 682.544C361.032 683.008 360.156 683.24 359.18 683.24C358.78 683.24 358.404 683.184 358.052 683.072C357.7 682.968 357.372 682.82 357.068 682.628C356.772 682.436 356.504 682.216 356.264 681.968C356.032 681.712 355.828 681.436 355.652 681.14V686.864H352.148ZM358.34 680.672C359.1 680.672 359.736 680.356 360.248 679.724C360.768 679.092 361.028 678.092 361.028 676.724C361.028 675.524 360.78 674.588 360.284 673.916C359.796 673.236 359.148 672.896 358.34 672.896C357.436 672.896 356.76 673.264 356.312 674C355.872 674.728 355.652 675.636 355.652 676.724C355.652 677.42 355.748 678.068 355.94 678.668C356.14 679.268 356.436 679.752 356.828 680.12C357.228 680.488 357.732 680.672 358.34 680.672ZM370.233 677.6C370.225 678.232 370.325 678.784 370.533 679.256C370.741 679.72 371.041 680.08 371.433 680.336C371.833 680.584 372.313 680.708 372.873 680.708C373.473 680.708 373.997 680.58 374.445 680.324C374.901 680.068 375.217 679.648 375.393 679.064H378.549C378.413 679.944 378.061 680.696 377.493 681.32C376.933 681.944 376.253 682.42 375.453 682.748C374.653 683.076 373.821 683.24 372.957 683.24C371.733 683.24 370.653 682.984 369.717 682.472C368.789 681.952 368.065 681.22 367.545 680.276C367.025 679.332 366.765 678.22 366.765 676.94C366.765 675.7 367.001 674.584 367.473 673.592C367.945 672.592 368.629 671.804 369.525 671.228C370.429 670.644 371.513 670.352 372.777 670.352C374.041 670.352 375.101 670.62 375.957 671.156C376.821 671.684 377.469 672.424 377.901 673.376C378.341 674.32 378.561 675.412 378.561 676.652V677.6H370.233ZM370.221 675.512H375.285C375.285 675.016 375.193 674.56 375.009 674.144C374.825 673.728 374.545 673.4 374.169 673.16C373.801 672.92 373.337 672.8 372.777 672.8C372.233 672.8 371.769 672.932 371.385 673.196C371.009 673.452 370.721 673.788 370.521 674.204C370.321 674.62 370.221 675.056 370.221 675.512ZM381.713 683V670.592H385.085V673.532C385.285 672.9 385.565 672.348 385.925 671.876C386.293 671.396 386.737 671.024 387.257 670.76C387.777 670.488 388.365 670.352 389.021 670.352C389.133 670.352 389.237 670.36 389.333 670.376C389.437 670.384 389.513 670.4 389.561 670.424V673.76C389.489 673.728 389.401 673.708 389.297 673.7C389.201 673.692 389.113 673.684 389.033 673.676C388.345 673.62 387.757 673.64 387.269 673.736C386.781 673.832 386.385 673.996 386.081 674.228C385.777 674.46 385.557 674.744 385.421 675.08C385.285 675.416 385.217 675.792 385.217 676.208V683H381.713ZM396.143 683.216C395.231 683.216 394.507 683.108 393.971 682.892C393.435 682.676 393.039 682.392 392.783 682.04C392.527 681.68 392.363 681.284 392.291 680.852C392.219 680.412 392.183 679.968 392.183 679.52V665.168H395.615V679.088C395.615 679.544 395.711 679.916 395.903 680.204C396.103 680.484 396.475 680.656 397.019 680.72L397.607 680.756V682.916C397.367 682.996 397.123 683.064 396.875 683.12C396.627 683.184 396.383 683.216 396.143 683.216ZM405.093 683.24C404.517 683.24 403.949 683.152 403.389 682.976C402.837 682.8 402.333 682.54 401.877 682.196C401.421 681.852 401.053 681.428 400.773 680.924C400.501 680.42 400.365 679.836 400.365 679.172V670.592H403.869V678.728C403.869 679.304 404.057 679.776 404.433 680.144C404.809 680.512 405.361 680.696 406.089 680.696C406.777 680.696 407.321 680.52 407.721 680.168C408.129 679.808 408.333 679.308 408.333 678.668V670.592H411.801V683H409.161L408.753 680.54C408.609 681.268 408.337 681.828 407.937 682.22C407.545 682.604 407.093 682.868 406.581 683.012C406.077 683.164 405.581 683.24 405.093 683.24ZM418.973 683.24C418.181 683.24 417.469 683.092 416.837 682.796C416.205 682.5 415.705 682.072 415.337 681.512C414.969 680.944 414.785 680.256 414.785 679.448C414.785 678.088 415.293 677.056 416.309 676.352C417.325 675.64 418.929 675.272 421.121 675.248L422.669 675.224V674.48C422.669 673.912 422.501 673.476 422.165 673.172C421.837 672.86 421.325 672.708 420.629 672.716C420.117 672.724 419.629 672.844 419.165 673.076C418.709 673.308 418.397 673.712 418.229 674.288H415.313C415.361 673.392 415.621 672.656 416.093 672.08C416.565 671.496 417.205 671.064 418.013 670.784C418.829 670.496 419.753 670.352 420.785 670.352C422.057 670.352 423.077 670.512 423.845 670.832C424.613 671.144 425.169 671.596 425.513 672.188C425.857 672.772 426.029 673.468 426.029 674.276V683H423.101L422.813 680.864C422.389 681.76 421.857 682.38 421.217 682.724C420.585 683.068 419.837 683.24 418.973 683.24ZM420.149 680.936C420.469 680.936 420.777 680.88 421.073 680.768C421.377 680.648 421.645 680.492 421.877 680.3C422.117 680.1 422.309 679.876 422.453 679.628C422.597 679.38 422.669 679.124 422.669 678.86V677.024L421.409 677.048C420.825 677.056 420.281 677.128 419.777 677.264C419.273 677.392 418.865 677.604 418.553 677.9C418.249 678.196 418.097 678.596 418.097 679.1C418.097 679.676 418.297 680.128 418.697 680.456C419.097 680.776 419.581 680.936 420.149 680.936ZM429.851 683V670.592H433.295V672.344C433.487 672.04 433.735 671.748 434.039 671.468C434.351 671.18 434.743 670.944 435.215 670.76C435.687 670.576 436.247 670.484 436.895 670.484C437.655 670.484 438.363 670.632 439.019 670.928C439.683 671.224 440.219 671.692 440.627 672.332C441.035 672.964 441.239 673.792 441.239 674.816V683H437.735V675.248C437.735 674.576 437.535 674.072 437.135 673.736C436.735 673.4 436.247 673.232 435.671 673.232C435.287 673.232 434.915 673.3 434.555 673.436C434.203 673.572 433.915 673.776 433.691 674.048C433.467 674.32 433.355 674.656 433.355 675.056V683H429.851ZM444.798 683V670.592H448.23V672.344C448.606 671.8 449.11 671.332 449.742 670.94C450.382 670.548 451.186 670.352 452.154 670.352C452.578 670.352 453.01 670.428 453.45 670.58C453.89 670.732 454.302 670.956 454.686 671.252C455.078 671.54 455.394 671.904 455.634 672.344C456.034 671.776 456.558 671.304 457.206 670.928C457.862 670.544 458.59 670.352 459.39 670.352C459.854 670.352 460.322 670.428 460.794 670.58C461.274 670.732 461.714 670.98 462.114 671.324C462.514 671.668 462.834 672.128 463.074 672.704C463.322 673.272 463.446 673.976 463.446 674.816V683H459.942V675.248C459.942 674.752 459.842 674.356 459.642 674.06C459.45 673.756 459.202 673.54 458.898 673.412C458.602 673.276 458.286 673.208 457.95 673.208C457.638 673.208 457.322 673.272 457.002 673.4C456.682 673.52 456.41 673.716 456.186 673.988C455.962 674.26 455.85 674.616 455.85 675.056V683H452.358V674.936C452.358 674.56 452.258 674.244 452.058 673.988C451.858 673.732 451.606 673.54 451.302 673.412C451.006 673.276 450.702 673.208 450.39 673.208C450.07 673.208 449.75 673.276 449.43 673.412C449.11 673.54 448.842 673.744 448.626 674.024C448.41 674.296 448.302 674.64 448.302 675.056V683H444.798ZM471.441 683.24C470.865 683.24 470.297 683.152 469.737 682.976C469.185 682.8 468.681 682.54 468.225 682.196C467.769 681.852 467.401 681.428 467.121 680.924C466.849 680.42 466.713 679.836 466.713 679.172V670.592H470.217V678.728C470.217 679.304 470.405 679.776 470.781 680.144C471.157 680.512 471.709 680.696 472.437 680.696C473.125 680.696 473.669 680.52 474.069 680.168C474.477 679.808 474.681 679.308 474.681 678.668V670.592H478.149V683H475.509L475.101 680.54C474.957 681.268 474.685 681.828 474.285 682.22C473.893 682.604 473.441 682.868 472.929 683.012C472.425 683.164 471.929 683.24 471.441 683.24Z" fill="url(#paint4_linear_4_11777)"/>
</g>
<defs>
<radialGradient id="paint0_radial_4_11777" cx="0" cy="0" r="1" gradientUnits="userSpaceOnUse" gradientTransform="translate(577.5 -23) rotate(90) scale(139 229.5)">
<stop stop-color="#009B90"/>
<stop offset="1" stop-color="#6BFFF3" stop-opacity="0"/>
</radialGradient>
<radialGradient id="paint1_radial_4_11777" cx="0" cy="0" r="1" gradientUnits="userSpaceOnUse" gradientTransform="translate(359 523.5) rotate(90) scale(101.5 403)">
<stop stop-color="#4F5C8E"/>
<stop offset="1" stop-color="#4F5C8E" stop-opacity="0"/>
</radialGradient>
<radialGradient id="paint2_radial_4_11777" cx="0" cy="0" r="1" gradientUnits="userSpaceOnUse" gradientTransform="translate(-74 192) rotate(90) scale(139 143)">
<stop stop-color="#009B90"/>
<stop offset="1" stop-color="#6BFFF3" stop-opacity="0"/>
</radialGradient>
<radialGradient id="paint3_radial_4_11777" cx="0" cy="0" r="1" gradientUnits="userSpaceOnUse" gradientTransform="translate(404 752.5) rotate(90) scale(99.5 177)">
<stop stop-color="#009B90"/>
<stop offset="1" stop-color="#6BFFF3" stop-opacity="0"/>
</radialGradient>
<linearGradient id="paint4_linear_4_11777" x1="307.5" y1="608.5" x2="299.94" y2="702.542" gradientUnits="userSpaceOnUse">
<stop stop-color="#7987BC"/>
<stop offset="0.469007" stop-color="#2B4179"/>
<stop offset="1" stop-color="#000C36"/>
</linearGradient>
<clipPath id="clip0_4_11777">
<rect width="720" height="768" fill="white"/>
</clipPath>
</defs>
</svg>
