<svg width="176" height="37" viewBox="0 0 176 37" fill="none" xmlns="http://www.w3.org/2000/svg">
<g clip-path="url(#clip0_1_16999)">
<path d="M19.0414 19.7509C19.5243 18.9492 19.8399 18.0695 20.172 17.1364C20.5182 16.1677 20.8739 15.1656 21.4415 14.2436C22.1882 13.0322 23.2881 12.0256 24.5718 11.3241V3.71022C24.5718 2.74818 23.7474 1.96875 22.7299 1.96875H15.3647C14.3472 1.96875 13.5228 2.74818 13.5228 3.71022V12.7783H3.93174C2.91422 12.7783 2.08984 13.5577 2.08984 14.5198V21.4856C2.08984 22.4477 2.91422 23.2271 3.93174 23.2271H13.4498C15.7439 22.971 17.892 21.6527 19.0414 19.7509Z" fill="#3EBFB8"/>
<path d="M34.1659 12.7783H24.5913C23.7764 13.3328 23.0792 14.0432 22.5728 14.865C22.0711 15.6778 21.7507 16.5775 21.4116 17.5306C21.0747 18.4771 20.7238 19.4569 20.1773 20.3633C18.8136 22.6214 16.2533 24.1825 13.5234 24.4653V32.2974C13.5234 33.2595 14.3478 34.0389 15.3653 34.0389H22.7329C23.7504 34.0389 24.5748 33.2595 24.5748 32.2974V23.2271H34.1659C35.1834 23.2271 36.0078 22.4477 36.0078 21.4857V14.5198C36.0078 13.56 35.1834 12.7783 34.1659 12.7783Z" fill="#203360"/>
<path d="M53.3962 19.9531H45.8976V27.3096H42.4503V10.18H45.8976V17.0508H53.3962V10.18H56.8552V27.3096H53.3962V19.9531ZM62.1394 21.9788C62.1315 22.6027 62.2302 23.1476 62.4355 23.6136C62.6409 24.0716 62.937 24.427 63.324 24.6797C63.7189 24.9245 64.1927 25.047 64.7455 25.047C65.3378 25.047 65.8551 24.9206 66.2974 24.6679C66.7475 24.4152 67.0595 24.0005 67.2332 23.424H70.3488C70.2145 24.2927 69.867 25.0351 69.3063 25.6511C68.7535 26.2671 68.0822 26.737 67.2924 27.0608C66.5027 27.3846 65.6814 27.5465 64.8284 27.5465C63.6201 27.5465 62.554 27.2938 61.63 26.7883C60.7139 26.275 59.9992 25.5524 59.4858 24.6205C58.9725 23.6886 58.7158 22.5909 58.7158 21.3273C58.7158 20.1032 58.9488 19.0015 59.4148 18.0222C59.8807 17.035 60.5559 16.2571 61.4405 15.6885C62.3329 15.112 63.403 14.8237 64.6508 14.8237C65.8986 14.8237 66.945 15.0883 67.79 15.6174C68.6429 16.1386 69.2826 16.8692 69.7091 17.809C70.1434 18.7409 70.3606 19.8189 70.3606 21.043V21.9788H62.1394ZM62.1275 19.9176H67.1266C67.1266 19.4279 67.0358 18.9778 66.8541 18.5671C66.6725 18.1564 66.3961 17.8326 66.0249 17.5957C65.6616 17.3588 65.2036 17.2403 64.6508 17.2403C64.1137 17.2403 63.6557 17.3706 63.2766 17.6313C62.9054 17.884 62.6211 18.2157 62.4237 18.6263C62.2262 19.037 62.1275 19.4674 62.1275 19.9176ZM76.079 27.5465C75.2971 27.5465 74.5942 27.4004 73.9703 27.1082C73.3465 26.816 72.8529 26.3935 72.4896 25.8406C72.1263 25.2799 71.9447 24.6007 71.9447 23.8031C71.9447 22.4605 72.4461 21.4418 73.4491 20.7468C74.4521 20.0439 76.0355 19.6806 78.1994 19.657L79.7276 19.6333V18.8988C79.7276 18.3381 79.5617 17.9077 79.23 17.6076C78.9062 17.2996 78.4008 17.1495 77.7137 17.1574C77.2083 17.1653 76.7266 17.2838 76.2685 17.5128C75.8183 17.7418 75.5103 18.1406 75.3445 18.7093H72.4659C72.5133 17.8247 72.7699 17.0982 73.2359 16.5296C73.7018 15.9531 74.3336 15.5266 75.1313 15.2502C75.9368 14.9659 76.849 14.8237 77.8677 14.8237C79.1234 14.8237 80.1303 14.9817 80.8885 15.2976C81.6467 15.6056 82.1955 16.0518 82.5351 16.6362C82.8747 17.2127 83.0445 17.8998 83.0445 18.6974V27.3096H80.154L79.8697 25.201C79.4512 26.0855 78.926 26.6975 78.2942 27.0371C77.6703 27.3767 76.9319 27.5465 76.079 27.5465ZM77.2399 25.272C77.5558 25.272 77.8598 25.2167 78.152 25.1062C78.4521 24.9877 78.7167 24.8337 78.9457 24.6442C79.1827 24.4467 79.3722 24.2256 79.5143 23.9808C79.6565 23.736 79.7276 23.4833 79.7276 23.2226V21.4102L78.4837 21.4339C77.9072 21.4418 77.3702 21.5129 76.8727 21.6471C76.3751 21.7735 75.9723 21.9827 75.6643 22.275C75.3642 22.5672 75.2142 22.962 75.2142 23.4596C75.2142 24.0282 75.4116 24.4744 75.8065 24.7982C76.2014 25.1141 76.6792 25.272 77.2399 25.272ZM89.5419 27.5228C88.6416 27.5228 87.9269 27.4162 87.3978 27.203C86.8686 26.9897 86.4777 26.7094 86.225 26.3619C85.9723 26.0065 85.8104 25.6156 85.7393 25.1891C85.6682 24.7547 85.6327 24.3164 85.6327 23.8742V9.70619H89.0207V23.4477C89.0207 23.8979 89.1155 24.2651 89.305 24.5494C89.5024 24.8258 89.8697 24.9956 90.4067 25.0588L90.9872 25.0943V27.2266C90.7502 27.3056 90.5094 27.3727 90.2645 27.428C90.0197 27.4912 89.7789 27.5228 89.5419 27.5228ZM100.09 17.4654H97.365L97.3887 23.9926C97.3887 24.2927 97.4243 24.5178 97.4953 24.6679C97.5743 24.81 97.6928 24.9048 97.8507 24.9522C98.0166 24.9917 98.2258 25.0114 98.4786 25.0114H100.125V27.1437C99.9672 27.2148 99.7185 27.2819 99.3789 27.3451C99.0472 27.4083 98.5812 27.4399 97.981 27.4399C96.907 27.4399 96.0738 27.3017 95.4815 27.0253C94.8971 26.7489 94.4904 26.3619 94.2613 25.8643C94.0323 25.3668 93.9178 24.7903 93.9178 24.1348V17.4654H91.9276V15.0606H94.0363L94.901 11.3646H97.365V15.0488H100.09V17.4654ZM102.645 27.3096V9.70619H106.08V16.8257C106.278 16.5414 106.526 16.2611 106.827 15.9846C107.127 15.7003 107.502 15.4634 107.952 15.2739C108.402 15.0843 108.951 14.9896 109.599 14.9896C110.38 14.9896 111.091 15.1436 111.731 15.4516C112.378 15.7517 112.896 16.19 113.283 16.7665C113.678 17.343 113.875 18.0459 113.875 18.8751V27.3096H110.404V19.3845C110.404 18.8317 110.203 18.4092 109.8 18.117C109.405 17.8169 108.923 17.6668 108.355 17.6668C107.984 17.6668 107.624 17.7339 107.277 17.8682C106.929 18.0024 106.645 18.2078 106.424 18.4842C106.211 18.7527 106.104 19.0883 106.104 19.4911V27.3096H102.645ZM118.122 31.2188C117.285 31.2188 116.693 31.1477 116.346 31.0056C116.006 30.8713 115.836 30.8042 115.836 30.8042V28.6008L117.044 28.6482C117.574 28.6798 118 28.6521 118.324 28.5653C118.648 28.4863 118.892 28.3797 119.058 28.2454C119.232 28.1112 119.354 27.969 119.426 27.819C119.497 27.6768 119.548 27.5623 119.58 27.4754L119.805 26.8002L115.042 15.0606H118.466L121.404 23.045L124.377 15.0606H127.753L122.79 27.3806C122.363 28.4231 121.913 29.2207 121.439 29.7736C120.966 30.3264 120.452 30.7055 119.899 30.9108C119.354 31.1161 118.762 31.2188 118.122 31.2188ZM128.831 27.3096V15.0606H132.219V16.7902C132.591 16.2532 133.088 15.7912 133.712 15.4042C134.344 15.0172 135.137 14.8237 136.093 14.8237C136.512 14.8237 136.938 14.8987 137.372 15.0488C137.807 15.1989 138.214 15.42 138.593 15.7122C138.98 15.9965 139.292 16.3558 139.528 16.7902C139.923 16.2295 140.441 15.7635 141.08 15.3923C141.728 15.0133 142.447 14.8237 143.236 14.8237C143.694 14.8237 144.156 14.8987 144.622 15.0488C145.096 15.1989 145.53 15.4437 145.925 15.7833C146.32 16.1229 146.636 16.577 146.873 17.1456C147.118 17.7063 147.24 18.4013 147.24 19.2305V27.3096H143.781V19.657C143.781 19.1673 143.682 18.7764 143.485 18.4842C143.296 18.1841 143.051 17.9709 142.751 17.8445C142.458 17.7102 142.146 17.6431 141.815 17.6431C141.507 17.6431 141.195 17.7063 140.879 17.8326C140.563 17.9511 140.294 18.1446 140.073 18.4131C139.852 18.6816 139.742 19.0331 139.742 19.4674V27.3096H136.294V19.349C136.294 18.9778 136.196 18.6658 135.998 18.4131C135.801 18.1604 135.552 17.9709 135.252 17.8445C134.96 17.7102 134.66 17.6431 134.352 17.6431C134.036 17.6431 133.72 17.7102 133.404 17.8445C133.088 17.9709 132.824 18.1722 132.61 18.4486C132.397 18.7172 132.29 19.0567 132.29 19.4674V27.3096H128.831ZM152.417 21.9788C152.409 22.6027 152.508 23.1476 152.713 23.6136C152.919 24.0716 153.215 24.427 153.602 24.6797C153.997 24.9245 154.471 25.047 155.023 25.047C155.616 25.047 156.133 24.9206 156.575 24.6679C157.025 24.4152 157.337 24.0005 157.511 23.424H160.627C160.492 24.2927 160.145 25.0351 159.584 25.6511C159.031 26.2671 158.36 26.737 157.57 27.0608C156.781 27.3846 155.959 27.5465 155.106 27.5465C153.898 27.5465 152.832 27.2938 151.908 26.7883C150.992 26.275 150.277 25.5524 149.764 24.6205C149.25 23.6886 148.994 22.5909 148.994 21.3273C148.994 20.1032 149.227 19.0015 149.693 18.0222C150.159 17.035 150.834 16.2571 151.718 15.6885C152.611 15.112 153.681 14.8237 154.929 14.8237C156.176 14.8237 157.223 15.0883 158.068 15.6174C158.921 16.1386 159.56 16.8692 159.987 17.809C160.421 18.7409 160.638 19.8189 160.638 21.043V21.9788H152.417ZM152.405 19.9176H157.404C157.404 19.4279 157.314 18.9778 157.132 18.5671C156.95 18.1564 156.674 17.8326 156.303 17.5957C155.94 17.3588 155.481 17.2403 154.929 17.2403C154.392 17.2403 153.934 17.3706 153.554 17.6313C153.183 17.884 152.899 18.2157 152.702 18.6263C152.504 19.037 152.405 19.4674 152.405 19.9176ZM166.878 27.5465C165.235 27.5465 163.956 26.9818 163.04 25.8525C162.124 24.7153 161.666 23.1358 161.666 21.114C161.666 19.8346 161.851 18.7251 162.223 17.7853C162.594 16.8455 163.143 16.1189 163.869 15.6056C164.596 15.0843 165.484 14.8237 166.535 14.8237C166.977 14.8237 167.387 14.8751 167.767 14.9777C168.154 15.0725 168.505 15.2067 168.821 15.3805C169.137 15.5542 169.413 15.7556 169.65 15.9846C169.887 16.2137 170.08 16.4585 170.231 16.7191V9.70619H173.701V27.3096H171.19L170.799 24.7982C170.689 25.1378 170.535 25.4695 170.337 25.7933C170.14 26.1171 169.887 26.4132 169.579 26.6817C169.271 26.9423 168.892 27.1516 168.442 27.3096C168 27.4675 167.478 27.5465 166.878 27.5465ZM167.636 25.0588C168.505 25.0588 169.153 24.7547 169.579 24.1466C170.013 23.5385 170.231 22.5119 170.231 21.0666C170.223 20.2295 170.124 19.5345 169.934 18.9817C169.745 18.4289 169.461 18.0182 169.081 17.7497C168.71 17.4733 168.236 17.3351 167.66 17.3351C166.91 17.3351 166.286 17.6234 165.788 18.1999C165.291 18.7685 165.042 19.7241 165.042 21.0666C165.042 22.4329 165.275 23.4398 165.741 24.0874C166.207 24.735 166.839 25.0588 167.636 25.0588Z" fill="#213360"/>
</g>
<defs>
<clipPath id="clip0_1_16999">
<rect width="176" height="36.092" fill="white"/>
</clipPath>
</defs>
</svg>
