<svg width="42" height="40" viewBox="0 0 42 40" fill="none" xmlns="http://www.w3.org/2000/svg">
<path d="M6.55949 39V31.77H9.00449C9.52116 31.77 9.98116 31.8567 10.3845 32.03C10.7878 32.2033 11.1045 32.46 11.3345 32.8C11.5678 33.14 11.6845 33.5583 11.6845 34.055C11.6845 34.535 11.5762 34.945 11.3595 35.285C11.1462 35.625 10.8478 35.8833 10.4645 36.06C10.0812 36.2367 9.63616 36.325 9.12949 36.325H7.50949V39H6.55949ZM7.50449 35.545H9.10949C9.60616 35.545 10.0095 35.4067 10.3195 35.13C10.6295 34.8533 10.7845 34.4767 10.7845 34C10.7845 33.52 10.6245 33.1567 10.3045 32.91C9.98449 32.6633 9.57116 32.54 9.06449 32.54H7.50449V35.545ZM12.7367 39V33.83H13.6167V34.825C13.7033 34.5783 13.825 34.375 13.9817 34.215C14.1383 34.0517 14.3167 33.93 14.5167 33.85C14.72 33.77 14.93 33.73 15.1467 33.73C15.2233 33.73 15.2983 33.735 15.3717 33.745C15.445 33.755 15.5017 33.7717 15.5417 33.795V34.69C15.4917 34.6667 15.4267 34.6517 15.3467 34.645C15.27 34.635 15.205 34.63 15.1517 34.63C14.945 34.6167 14.7517 34.63 14.5717 34.67C14.3917 34.7067 14.2333 34.7717 14.0967 34.865C13.96 34.9583 13.8517 35.0817 13.7717 35.235C13.695 35.385 13.6567 35.5683 13.6567 35.785V39H12.7367ZM18.5514 39.1C18.0748 39.1 17.6581 38.9983 17.3014 38.795C16.9448 38.5883 16.6681 38.2867 16.4714 37.89C16.2748 37.4933 16.1764 37.0083 16.1764 36.435C16.1764 35.895 16.2681 35.4217 16.4514 35.015C16.6348 34.6083 16.9031 34.2933 17.2564 34.07C17.6131 33.8433 18.0448 33.73 18.5514 33.73C19.0281 33.73 19.4414 33.835 19.7914 34.045C20.1448 34.2517 20.4181 34.5567 20.6114 34.96C20.8048 35.3633 20.9014 35.855 20.9014 36.435C20.9014 36.9617 20.8114 37.425 20.6314 37.825C20.4548 38.225 20.1914 38.5383 19.8414 38.765C19.4948 38.9883 19.0648 39.1 18.5514 39.1ZM18.5514 38.37C18.8614 38.37 19.1231 38.2917 19.3364 38.135C19.5498 37.9783 19.7114 37.7533 19.8214 37.46C19.9314 37.1667 19.9864 36.8183 19.9864 36.415C19.9864 36.045 19.9381 35.7133 19.8414 35.42C19.7448 35.1233 19.5898 34.8883 19.3764 34.715C19.1664 34.5417 18.8914 34.455 18.5514 34.455C18.2381 34.455 17.9731 34.5333 17.7564 34.69C17.5398 34.8433 17.3748 35.0667 17.2614 35.36C17.1514 35.6533 17.0964 36.005 17.0964 36.415C17.0964 36.7783 17.1464 37.1083 17.2464 37.405C17.3464 37.7017 17.5031 37.9367 17.7164 38.11C17.9298 38.2833 18.2081 38.37 18.5514 38.37ZM24.7973 33.83V34.505H23.5423V39H22.6123V34.505H21.5223V33.83H22.6123V33.03C22.6123 32.62 22.7173 32.3083 22.9273 32.095C23.1373 31.8783 23.4506 31.77 23.8673 31.77H24.8423L24.8473 32.425H24.0723C23.8623 32.425 23.719 32.4817 23.6423 32.595C23.5656 32.7083 23.5273 32.88 23.5273 33.11V33.83H24.7973ZM26.9373 33.83V39H26.0423V33.83H26.9373ZM26.9573 31.775V32.735H26.0123V31.775H26.9573ZM29.9401 39.065C29.6601 39.065 29.4335 39.0267 29.2601 38.95C29.0901 38.8733 28.9585 38.77 28.8651 38.64C28.7751 38.51 28.7135 38.3617 28.6801 38.195C28.6501 38.025 28.6351 37.85 28.6351 37.67V31.57H29.5451V37.58C29.5451 37.84 29.5951 38.035 29.6951 38.165C29.7985 38.295 29.9418 38.3667 30.1251 38.38L30.4051 38.385V38.985C30.3285 39.0083 30.2485 39.0267 30.1651 39.04C30.0818 39.0567 30.0068 39.065 29.9401 39.065ZM32.1857 36.63C32.1857 36.9567 32.2391 37.2533 32.3457 37.52C32.4557 37.7833 32.6207 37.9933 32.8407 38.15C33.0641 38.3067 33.3424 38.385 33.6757 38.385C34.0057 38.385 34.2891 38.3083 34.5257 38.155C34.7657 38.0017 34.9191 37.78 34.9857 37.49H35.8607C35.7974 37.84 35.6574 38.135 35.4407 38.375C35.2241 38.615 34.9624 38.7967 34.6557 38.92C34.3491 39.04 34.0291 39.1 33.6957 39.1C33.2124 39.1 32.7874 38.995 32.4207 38.785C32.0541 38.575 31.7674 38.2733 31.5607 37.88C31.3541 37.4867 31.2507 37.015 31.2507 36.465C31.2507 35.9217 31.3441 35.445 31.5307 35.035C31.7174 34.625 31.9874 34.305 32.3407 34.075C32.6974 33.845 33.1257 33.73 33.6257 33.73C34.1124 33.73 34.5241 33.835 34.8607 34.045C35.1974 34.255 35.4524 34.5517 35.6257 34.935C35.8024 35.315 35.8907 35.7667 35.8907 36.29V36.63H32.1857ZM32.1907 36.005H35.0007C35.0007 35.7083 34.9507 35.4417 34.8507 35.205C34.7507 34.965 34.5974 34.7767 34.3907 34.64C34.1874 34.5 33.9307 34.43 33.6207 34.43C33.2974 34.43 33.0291 34.5083 32.8157 34.665C32.6057 34.8183 32.4474 35.0167 32.3407 35.26C32.2374 35.5 32.1874 35.7483 32.1907 36.005Z" fill="#B4B9C7"/>
<path d="M28.1905 18.6284C29.217 17.3944 29.931 15.9314 30.272 14.3633C30.613 12.7952 30.571 11.1681 30.1495 9.6197C29.7281 8.07126 28.9396 6.64702 27.8507 5.46747C26.7619 4.28791 25.4047 3.38774 23.894 2.84311C22.3834 2.29847 20.7637 2.1254 19.1719 2.33852C17.5801 2.55164 16.0631 3.14469 14.7493 4.06749C13.4354 4.9903 12.3633 6.21572 11.6237 7.64009C10.884 9.06446 10.4986 10.6459 10.5 12.2505C10.5005 14.5833 11.3233 16.8413 12.8238 18.6284L12.8095 18.6406C12.8595 18.7006 12.9167 18.752 12.9682 18.8113C13.0325 18.8848 13.1019 18.9541 13.1683 19.0255C13.3685 19.2427 13.5743 19.4512 13.7902 19.6469C13.856 19.7069 13.9239 19.7626 13.9904 19.8197C14.2191 20.0169 14.4543 20.204 14.698 20.3783C14.7295 20.3997 14.758 20.4275 14.7895 20.4497V20.4411C16.4636 21.6182 18.4608 22.25 20.5079 22.25C22.555 22.25 24.5521 21.6182 26.2262 20.4411V20.4497C26.2577 20.4275 26.2856 20.3997 26.3177 20.3783C26.5608 20.2033 26.7966 20.0169 27.0254 19.8197C27.0919 19.7626 27.1598 19.7062 27.2255 19.6469C27.4414 19.4505 27.6472 19.2427 27.8474 19.0255C27.9139 18.9541 27.9825 18.8848 28.0475 18.8113C28.0983 18.752 28.1562 18.7006 28.2062 18.6399L28.1905 18.6284ZM20.5072 6.53687C21.1433 6.53687 21.7652 6.72536 22.2942 7.07852C22.8232 7.43167 23.2354 7.93362 23.4789 8.52089C23.7223 9.10816 23.786 9.75438 23.6619 10.3778C23.5378 11.0013 23.2315 11.5739 22.7816 12.0234C22.3318 12.4729 21.7586 12.779 21.1347 12.903C20.5107 13.027 19.864 12.9634 19.2762 12.7201C18.6885 12.4769 18.1861 12.0649 17.8327 11.5364C17.4792 11.0079 17.2906 10.3865 17.2906 9.75081C17.2906 8.89842 17.6295 8.08094 18.2327 7.47821C18.8359 6.87548 19.6541 6.53687 20.5072 6.53687ZM14.7938 18.6284C14.8062 17.6907 15.1876 16.7955 15.8555 16.1365C16.5234 15.4776 17.4241 15.1079 18.3628 15.1074H22.6515C23.5902 15.1079 24.4909 15.4776 25.1588 16.1365C25.8267 16.7955 26.2081 17.6907 26.2205 18.6284C24.6529 20.04 22.6174 20.8211 20.5072 20.8211C18.3969 20.8211 16.3614 20.04 14.7938 18.6284Z" fill="#B4B9C7"/>
</svg>
