<svg width="346" height="144" viewBox="0 0 346 144" fill="none" xmlns="http://www.w3.org/2000/svg">
<g filter="url(#filter0_dd_4_1434)">
<rect x="10" y="6" width="326" height="124" rx="8" fill="#FFB156"/>
</g>
<mask id="mask0_4_1434" style="mask-type:alpha" maskUnits="userSpaceOnUse" x="10" y="6" width="168" height="124">
<rect x="10" y="6" width="168" height="124" rx="8" fill="#F99746"/>
</mask>
<g mask="url(#mask0_4_1434)">
<g clip-path="url(#clip0_4_1434)">
<path opacity="0.25" d="M100.884 144.032C118.521 136.911 134.631 125.376 145.394 109.74C156.157 94.1116 161.18 74.229 157.191 55.6921C155.313 46.9597 151.141 38.2344 143.642 33.3426C137.754 29.5021 130.494 28.4298 124.163 25.3742C108.116 17.63 100.948 -0.885933 95.4463 -17.7759C89.938 -34.673 83.3956 -53.2379 67.7853 -61.8231C50.7046 -71.2142 27.4966 -63.9186 15.9805 -48.234C4.46446 -32.5424 3.58513 -10.7957 10.2542 7.46796C14.0389 17.8402 20.1522 28.0233 19.2236 39.0193C18.3935 48.859 12.0621 57.2409 8.11557 66.3026C0.813385 83.0525 1.95302 103.208 11.0913 119.033C29.8533 151.531 68.6365 157.053 100.884 144.032Z" fill="white"/>
<path d="M29.5439 95.8357C16.4591 79.4082 4.67573 61.6422 -2.33802 41.8648C-9.35881 22.0943 -11.3497 0.088274 -4.94795 -19.8924C9.18507 -3.84338 19.3082 14.7847 24.2608 35.5643C29.2133 56.3439 29.0867 74.4884 29.5439 95.8357Z" fill="#009B90"/>
<path d="M18.1689 97.5807C16.5158 90.3412 11.9994 84.1038 7.32119 78.3219C1.74957 71.4398 -4.27226 64.8169 -11.4267 59.5817C-18.5812 54.3465 -26.9667 50.527 -35.8166 49.7911C-18.9681 65.9032 -0.979954 84.272 18.1689 97.5807Z" fill="#009B90"/>
<path d="M-5.20804 -19.2406C17.0854 28.1706 30.8386 89.8016 37.5146 141.733" stroke="#2D7C54" stroke-miterlimit="10"/>
<path d="M33.5327 114.835C33.5327 114.835 0.166372 71.8813 -35.8169 49.7911" stroke="#2D7C54" stroke-miterlimit="10"/>
<path d="M107.532 153.598C109.601 152.14 110.304 149.47 111.127 147.087C113.948 138.874 119.548 131.942 125.197 125.327C128.25 121.752 131.416 118.157 135.433 115.704C148.095 107.953 165.964 113.216 178.134 104.715C170.86 107.301 161.659 105.759 154.167 103.895C146.674 102.031 139.006 99.7674 131.359 100.861C124.458 101.849 118.099 105.591 113.399 110.728C108.7 115.865 105.605 122.32 103.881 129.055C102.946 132.699 102.404 136.512 103.03 140.219C103.769 144.55 107.448 149.19 107.532 153.598Z" fill="#009B90"/>
<path d="M106.71 157.256C106.914 148.629 108.074 139.932 111.324 131.928C114.307 124.57 119.33 117.603 125.887 113.013C132.345 108.486 141.075 107.687 148.722 107.596C157.951 107.483 167.069 108.212 176.038 105.591" stroke="#2D7C54" stroke-width="1.1136" stroke-miterlimit="10"/>
<path d="M122.981 24.5753C122.981 24.5753 126.421 20.6786 127.314 14.8547C128.208 9.03786 128.137 7.95157 129.46 5.62482C129.46 5.62482 133.202 7.60817 129.495 16.8731C129.495 16.8731 134.194 9.44434 139.787 8.04969C139.787 8.04969 138.415 13.8455 132.935 17.7632C132.935 17.7632 138.338 15.4014 144.008 17.3567C144.008 17.3567 141.356 19.9778 134.504 19.9988C134.504 19.9988 140.223 21.001 141.433 25.4863C141.433 25.4863 136.305 24.7505 133.35 23.7693C130.395 22.7881 126.027 23.6432 123.543 25.3181C121.06 26.9931 122.981 24.5753 122.981 24.5753Z" fill="#FF6B6B"/>
<path d="M120.456 28.6961C120.456 28.6961 120.484 26.1521 121.609 23.9725C122.735 21.7929 125.338 16.8381 125.338 16.8381C125.338 16.8381 126.224 19.4942 125.113 21.3584C125.113 21.3584 126.695 20.3632 128.947 20.2721C128.947 20.2721 128.665 21.4986 126.576 22.9493C126.576 22.9493 129.763 22.8512 130.783 23.6572C130.783 23.6572 125.542 26.4184 123.952 26.937C122.355 27.4627 120.456 28.6961 120.456 28.6961Z" fill="#009B90"/>
<path d="M135.404 47.2892C135.404 47.2892 139.696 45.6422 142.784 41.4513C145.872 37.2603 146.266 36.3913 148.25 35.1088C148.25 35.1088 150.368 38.1854 143.656 43.9252C143.656 43.9252 150.382 40.0356 155.327 41.22C155.327 41.22 151.873 45.1937 145.978 46.0207C145.978 46.0207 151.177 46.3711 154.807 50.2187C154.807 50.2187 151.655 51.1858 146.294 48.4105C146.294 48.4105 150.354 51.5222 149.46 55.5309C149.46 55.5309 145.753 52.8678 143.846 50.8914C141.94 48.9151 138.169 47.8078 135.538 48.1021C132.907 48.3965 135.404 47.2892 135.404 47.2892Z" fill="#FF6B6B"/>
<path d="M131.739 49.4828C131.739 49.4828 132.801 47.5064 134.581 46.259C136.361 45.0115 140.427 42.1942 140.427 42.1942C140.427 42.1942 140.026 44.633 138.394 45.6352C138.394 45.6352 140.04 45.5021 141.834 46.3501C141.834 46.3501 141.11 47.1981 138.88 47.4784C138.88 47.4784 141.412 48.6979 141.876 49.7491C141.876 49.7491 136.643 49.7701 135.186 49.5318C133.73 49.2866 131.739 49.4828 131.739 49.4828Z" fill="#009B90"/>
<path d="M107.406 73.1708C108.074 66.8073 111.908 61.0675 116.882 57.0237C121.855 52.9799 127.905 50.4569 134.033 48.5366" stroke="#3B865A" stroke-width="0.7672" stroke-miterlimit="10"/>
<path d="M108.039 62.0487C110.093 49.2095 114.089 36.3072 122.306 26.2012" stroke="#3B865A" stroke-width="0.7672" stroke-miterlimit="10"/>
<path d="M119.147 10.9651C115.742 18.0505 114.975 26.3554 117.022 33.9384C118.725 26.2573 119.07 18.8285 119.147 10.9651Z" fill="#009B90"/>
<path d="M125.26 49.7141C129.066 46.4131 132.197 42.3483 134.413 37.835C134.617 37.7789 134.758 37.5546 134.821 37.7509C135.384 39.58 134.525 41.5424 133.47 43.1333C131.254 46.4622 128.961 48.1722 125.26 49.7141Z" fill="#009B90"/>
<path d="M129.228 32.6278C122.038 34.3448 115.637 39.1245 111.957 45.5161C117.086 40.4981 123.058 36.3072 129.228 32.6278Z" fill="#009B90"/>
<path d="M128.32 56.5752C122.059 55.3627 115.221 57.9418 111.324 62.9667C117.233 61.495 122.868 59.2734 128.32 56.5752Z" fill="#009B90"/>
<path d="M77.4798 5.84213C77.4798 5.84213 90.2903 5.12027 96.8187 14.995C98.6759 17.8053 101.265 22.2836 104.043 27.5959C96.5935 30.2661 88.9889 31.7168 81.947 34.6322C78.0919 20.959 75.6648 8.89775 77.4798 5.84213Z" fill="#2B478B"/>
<path d="M104.043 27.6029C111.008 40.9327 119.168 59.5397 120.026 70.3886C121.236 85.5616 104.071 85.5616 99.7168 82.1906C97.0858 80.1511 87.842 55.517 81.9468 34.6392C88.9887 31.7238 96.5934 30.2731 104.043 27.6029Z" fill="#FFB27D"/>
<path d="M62.1856 2.65335C62.8821 -3.0444 63.3956 -12.7159 64.5071 -17.3764C64.9433 -19.2196 65.6257 -20.3759 66.6457 -20.9366C65.9985 -15.9817 67.0889 -10.7325 70.3461 -7.0181C72.0766 -5.72156 75.1438 -2.83414 78.0703 -2.1193C78.6191 5.14831 81.0742 9.55653 81.0742 9.55653C80.7295 24.2319 67.0326 17.6721 64.5071 16.1163C61.9816 14.5675 61.4892 8.3511 62.1856 2.65335Z" fill="#F0A689"/>
<path d="M76.1431 31.4434C76.1431 31.4434 65.4994 18.8425 56.4596 20.2372L44.3526 31.4434L33.9973 38.9213C32.2878 31.6958 31.127 25.6406 31.3029 23.1386C31.8727 14.8618 37.8594 5.42863 46.6459 2.29592C51.6266 0.522816 62.1789 2.65334 62.1789 2.65334C61.5176 9.81583 67.8279 17.7072 76.1431 15.871C81.5881 14.6656 81.5037 10.7619 80.7932 8.21794C81.3771 9.46541 82.3127 11.2595 83.8041 13.7195C84.7468 15.2753 86.5195 17.602 88.6089 20.2722C87.7295 20.6086 79.0767 24.1618 76.1431 31.4434Z" fill="#2B478B"/>
<path d="M98.3452 55.8043C119.949 84.7626 120.976 109.614 106.365 131.459C91.7535 153.304 64.5075 158.154 64.5075 158.154L61.8976 184.848H7.77837C7.77837 184.848 23.241 107.841 26.9624 92.9974C30.6839 78.1538 44.7677 78.5042 44.7677 78.5042C44.7677 78.5042 37.9368 55.587 33.9973 38.9213L44.3526 31.4434L56.4596 20.2372C65.4994 18.8495 76.1432 31.4434 76.1432 31.4434C79.0767 24.1618 87.7296 20.6086 88.6089 20.2652C94.082 27.2525 101.729 36.5525 102.355 40.2949C103.213 45.4741 98.3452 55.8043 98.3452 55.8043Z" fill="#4F618E"/>
<path d="M18.1547 184.841L35.1299 85.2602" stroke="#4F618E" stroke-miterlimit="10"/>
<path d="M119.429 66.2537C119.429 66.2537 100.758 50.6882 97.2337 47.8288C93.7092 44.9694 92.3093 44.7101 92.3093 44.7101L79.3933 50.1696C79.3933 50.1696 68.2712 54.9002 69.5515 57.4512C70.1495 58.6426 79.1682 55.4889 79.1682 55.4889C79.1682 55.4889 86.0694 61.6142 87.0191 62.1328C87.9688 62.6514 101.018 64.7328 101.018 64.7328L113.076 82.8423C113.076 82.8353 121.152 79.9969 119.429 66.2537Z" fill="#FFB27D"/>
<path d="M87.019 62.1188C87.019 62.1188 78.3591 62.6795 76.1783 62.1188C74.0045 61.5581 71.9855 60.2967 71.4861 59.4206C70.9866 58.5446 71.9855 57.5284 71.9855 57.5284L79.1822 54.3326L87.019 62.1188Z" fill="#FFB27D"/>
<path d="M93.3716 45.1517C93.3716 45.1517 89.4883 42.4325 87.0261 42.923C84.5569 43.4136 79.4215 42.6848 79.4848 44.0093C79.5481 45.3339 80.3008 46.3641 83.8112 47.2261C87.3216 48.0882 90.4873 50.492 90.4592 51.0106C90.424 51.5292 93.3716 45.1517 93.3716 45.1517Z" fill="#FFB27D"/>
<path d="M49.9381 38.9143C49.9381 38.9143 43.7474 63.5134 44.2187 66.8283C44.6971 70.1433 71.4858 100.44 71.4858 100.44L62.4601 111.331C62.4601 111.331 32.8152 91.4765 26.1602 84.0057C19.5052 76.5348 21.6438 38.9002 24.9713 31.4434C28.2988 23.9866 33.9478 3.52935 48.2005 1.82633C62.4601 0.123311 49.9381 38.9143 49.9381 38.9143Z" fill="#FFB27D"/>
<path d="M48.2005 1.82633C62.4532 0.123311 49.9311 38.9143 49.9311 38.9143C49.9311 38.9143 49.4035 40.9957 48.6789 44.0233C40.8983 39.8674 27.8276 34.2397 19.5405 30.9458C28.123 15.941 33.9479 3.52935 48.2005 1.82633Z" fill="#2B478B"/>
<path d="M24.437 32.9362L23.7195 35.9288C23.7195 35.9288 19.6533 33.3147 19.5408 30.9459L24.437 32.9362Z" fill="#213360"/>
<path d="M71.486 100.44L85.007 101.19L88.6089 114.842C88.6089 114.842 78.4224 116.181 74.9612 115.992C71.5001 115.802 62.4533 111.331 62.4533 111.331C62.4533 111.331 63.1427 99.7744 71.486 100.44Z" fill="#FFB27D"/>
<path d="M71.4859 100.44C71.4859 100.44 77.4374 95.4853 79.182 94.7214C80.9267 93.9575 83.621 92.2335 84.7748 93.3828C85.9285 94.5322 82.5729 96.2562 81.0815 97.7911C79.583 99.3259 80.0122 105.837 76.9098 106.033C73.8144 106.215 70.895 106.544 71.4859 100.44Z" fill="#FFB27D"/>
<path d="M87.0187 106.979C87.0187 106.979 94.5601 103.839 97.8453 101.618C99.7025 100.363 100.153 97.5948 97.8453 97.9803C95.5379 98.3657 91.2255 101.428 85.0067 101.19C80.7507 101.022 85.4288 105.255 87.0187 106.979Z" fill="#FFB27D"/>
<path d="M88.6087 114.835C88.6087 114.835 97.0787 110.581 97.8455 108.205C98.6123 105.83 97.8455 104.869 97.8455 104.869C97.8455 104.869 100.125 102.844 98.9851 100.405C97.8455 97.9733 85.8229 106.208 85.0068 106.972C84.1978 107.75 84.5636 113.3 88.6087 114.835Z" fill="#FFB27D"/>
<path d="M59.7656 21.4286C59.7656 21.4286 58.0773 3.92184 54.0252 1.58807H50.3741C50.3741 1.58807 58.8933 11.638 56.4592 22.9003C54.0252 34.1627 59.7656 21.4286 59.7656 21.4286Z" fill="#4F618E"/>
<path d="M89.7767 21.744C89.7767 21.744 85.7809 15.5066 85.197 6.85133L81.9539 6.14349C81.9539 6.14349 84.6131 18.1347 87.9406 21.737C91.261 25.3532 89.7767 21.744 89.7767 21.744Z" fill="#4F618E"/>
</g>
</g>
<path d="M195.424 48V37.878H199.148C199.885 37.878 200.546 38.0063 201.129 38.263C201.712 38.515 202.172 38.8883 202.508 39.383C202.849 39.8777 203.019 40.482 203.019 41.196C203.019 41.868 202.87 42.442 202.571 42.918C202.272 43.394 201.852 43.758 201.311 44.01C200.774 44.262 200.142 44.388 199.414 44.388H197.482V48H195.424ZM197.461 42.806H199.358C199.871 42.806 200.291 42.6427 200.618 42.316C200.945 41.9847 201.108 41.5763 201.108 41.091C201.108 40.587 200.935 40.188 200.59 39.894C200.245 39.5953 199.825 39.446 199.33 39.446H197.461V42.806ZM204.298 48V40.762H206.265V42.477C206.382 42.1083 206.545 41.7863 206.755 41.511C206.97 41.231 207.229 41.014 207.532 40.86C207.835 40.7013 208.178 40.622 208.561 40.622C208.626 40.622 208.687 40.6267 208.743 40.636C208.804 40.6407 208.848 40.65 208.876 40.664V42.61C208.834 42.5913 208.783 42.5797 208.722 42.575C208.666 42.5703 208.615 42.5657 208.568 42.561C208.167 42.5283 207.824 42.54 207.539 42.596C207.254 42.652 207.023 42.7477 206.846 42.883C206.669 43.0183 206.54 43.184 206.461 43.38C206.382 43.576 206.342 43.7953 206.342 44.038V48H204.298ZM213.066 48.14C212.357 48.14 211.738 47.9883 211.211 47.685C210.688 47.3817 210.282 46.9523 209.993 46.397C209.708 45.8417 209.566 45.1837 209.566 44.423C209.566 43.6623 209.708 42.9973 209.993 42.428C210.282 41.8587 210.688 41.4153 211.211 41.098C211.738 40.7807 212.359 40.622 213.073 40.622C213.787 40.622 214.405 40.7783 214.928 41.091C215.451 41.399 215.854 41.8377 216.139 42.407C216.424 42.9763 216.566 43.6483 216.566 44.423C216.566 45.151 216.426 45.795 216.146 46.355C215.871 46.9103 215.472 47.3467 214.949 47.664C214.431 47.9813 213.803 48.14 213.066 48.14ZM213.073 46.621C213.432 46.621 213.722 46.516 213.941 46.306C214.16 46.096 214.319 45.8207 214.417 45.48C214.52 45.1347 214.571 44.759 214.571 44.353C214.571 43.9703 214.524 43.6087 214.431 43.268C214.342 42.9273 214.188 42.652 213.969 42.442C213.75 42.232 213.451 42.127 213.073 42.127C212.714 42.127 212.422 42.2273 212.198 42.428C211.979 42.624 211.818 42.8923 211.715 43.233C211.612 43.569 211.561 43.9423 211.561 44.353C211.561 44.731 211.608 45.095 211.701 45.445C211.794 45.7903 211.951 46.0727 212.17 46.292C212.389 46.5113 212.69 46.621 213.073 46.621ZM221.186 50.394C219.898 50.394 218.918 50.2307 218.246 49.904C217.579 49.5773 217.245 49.148 217.245 48.616C217.245 48.3687 217.31 48.161 217.441 47.993C217.572 47.825 217.723 47.692 217.896 47.594C218.073 47.4913 218.234 47.4143 218.379 47.363C218.528 47.307 218.619 47.2697 218.652 47.251C218.577 47.209 218.47 47.1483 218.33 47.069C218.19 46.985 218.059 46.873 217.938 46.733C217.821 46.5883 217.763 46.4017 217.763 46.173C217.763 45.9163 217.884 45.6783 218.127 45.459C218.374 45.2397 218.748 45.088 219.247 45.004C218.771 44.78 218.409 44.4767 218.162 44.094C217.915 43.7113 217.791 43.3193 217.791 42.918C217.791 42.442 217.94 42.0337 218.239 41.693C218.538 41.3523 218.944 41.0933 219.457 40.916C219.975 40.7387 220.561 40.65 221.214 40.65C221.713 40.65 222.122 40.7037 222.439 40.811C222.756 40.9137 223.05 41.049 223.321 41.217C223.428 41.175 223.571 41.1213 223.748 41.056C223.925 40.986 224.117 40.9113 224.322 40.832C224.527 40.748 224.728 40.6663 224.924 40.587C225.12 40.503 225.295 40.4283 225.449 40.363L225.442 41.945L224.189 42.148C224.24 42.274 224.28 42.4093 224.308 42.554C224.336 42.6987 224.35 42.8177 224.35 42.911C224.35 43.331 224.226 43.723 223.979 44.087C223.736 44.451 223.37 44.745 222.88 44.969C222.395 45.193 221.793 45.305 221.074 45.305C220.985 45.305 220.866 45.3027 220.717 45.298C220.572 45.2933 220.453 45.2863 220.36 45.277C220.085 45.291 219.896 45.326 219.793 45.382C219.69 45.438 219.639 45.5033 219.639 45.578C219.639 45.69 219.744 45.7647 219.954 45.802C220.164 45.8347 220.481 45.865 220.906 45.893C221.055 45.9023 221.263 45.914 221.529 45.928C221.795 45.942 222.089 45.9607 222.411 45.984C223.298 46.0447 223.958 46.264 224.392 46.642C224.831 47.0153 225.05 47.4867 225.05 48.056C225.05 48.7327 224.728 49.2903 224.084 49.729C223.445 50.1723 222.479 50.394 221.186 50.394ZM221.515 49.253C222.084 49.253 222.49 49.183 222.733 49.043C222.976 48.903 223.097 48.7023 223.097 48.441C223.097 48.2217 223.004 48.0443 222.817 47.909C222.63 47.769 222.357 47.6873 221.998 47.664L220.339 47.552C220.124 47.5427 219.933 47.5753 219.765 47.65C219.602 47.7247 219.473 47.8273 219.38 47.958C219.291 48.0887 219.247 48.2287 219.247 48.378C219.247 48.6813 219.431 48.903 219.8 49.043C220.169 49.183 220.74 49.253 221.515 49.253ZM221.13 44.164C221.517 44.164 221.828 44.059 222.061 43.849C222.299 43.6343 222.418 43.345 222.418 42.981C222.418 42.603 222.299 42.2997 222.061 42.071C221.828 41.8423 221.517 41.728 221.13 41.728C220.747 41.728 220.435 41.8423 220.192 42.071C219.954 42.2997 219.835 42.603 219.835 42.981C219.835 43.3403 219.949 43.6273 220.178 43.842C220.411 44.0567 220.729 44.164 221.13 44.164ZM226.624 48V40.762H228.591V42.477C228.708 42.1083 228.871 41.7863 229.081 41.511C229.296 41.231 229.555 41.014 229.858 40.86C230.161 40.7013 230.504 40.622 230.887 40.622C230.952 40.622 231.013 40.6267 231.069 40.636C231.13 40.6407 231.174 40.65 231.202 40.664V42.61C231.16 42.5913 231.109 42.5797 231.048 42.575C230.992 42.5703 230.941 42.5657 230.894 42.561C230.493 42.5283 230.15 42.54 229.865 42.596C229.58 42.652 229.349 42.7477 229.172 42.883C228.995 43.0183 228.866 43.184 228.787 43.38C228.708 43.576 228.668 43.7953 228.668 44.038V48H226.624ZM234.329 48.14C233.867 48.14 233.452 48.0537 233.083 47.881C232.715 47.7083 232.423 47.4587 232.208 47.132C231.994 46.8007 231.886 46.3993 231.886 45.928C231.886 45.1347 232.183 44.5327 232.775 44.122C233.368 43.7067 234.304 43.492 235.582 43.478L236.485 43.464V43.03C236.485 42.6987 236.387 42.4443 236.191 42.267C236 42.085 235.701 41.9963 235.295 42.001C234.997 42.0057 234.712 42.0757 234.441 42.211C234.175 42.3463 233.993 42.582 233.895 42.918H232.194C232.222 42.3953 232.374 41.966 232.649 41.63C232.925 41.2893 233.298 41.0373 233.769 40.874C234.245 40.706 234.784 40.622 235.386 40.622C236.128 40.622 236.723 40.7153 237.171 40.902C237.619 41.084 237.944 41.3477 238.144 41.693C238.345 42.0337 238.445 42.4397 238.445 42.911V48H236.737L236.569 46.754C236.322 47.2767 236.012 47.6383 235.638 47.839C235.27 48.0397 234.833 48.14 234.329 48.14ZM235.015 46.796C235.202 46.796 235.382 46.7633 235.554 46.698C235.732 46.628 235.888 46.537 236.023 46.425C236.163 46.3083 236.275 46.1777 236.359 46.033C236.443 45.8883 236.485 45.739 236.485 45.585V44.514L235.75 44.528C235.41 44.5327 235.092 44.5747 234.798 44.654C234.504 44.7287 234.266 44.8523 234.084 45.025C233.907 45.1977 233.818 45.431 233.818 45.725C233.818 46.061 233.935 46.3247 234.168 46.516C234.402 46.7027 234.684 46.796 235.015 46.796ZM240.255 48V40.762H242.257V41.784C242.476 41.4667 242.77 41.1937 243.139 40.965C243.512 40.7363 243.981 40.622 244.546 40.622C244.793 40.622 245.045 40.6663 245.302 40.755C245.559 40.8437 245.799 40.9743 246.023 41.147C246.252 41.315 246.436 41.5273 246.576 41.784C246.809 41.4527 247.115 41.1773 247.493 40.958C247.876 40.734 248.3 40.622 248.767 40.622C249.038 40.622 249.311 40.6663 249.586 40.755C249.866 40.8437 250.123 40.9883 250.356 41.189C250.589 41.3897 250.776 41.658 250.916 41.994C251.061 42.3253 251.133 42.736 251.133 43.226V48H249.089V43.478C249.089 43.1887 249.031 42.9577 248.914 42.785C248.802 42.6077 248.657 42.4817 248.48 42.407C248.307 42.3277 248.123 42.288 247.927 42.288C247.745 42.288 247.561 42.3253 247.374 42.4C247.187 42.47 247.029 42.5843 246.898 42.743C246.767 42.9017 246.702 43.1093 246.702 43.366V48H244.665V43.296C244.665 43.0767 244.607 42.8923 244.49 42.743C244.373 42.5937 244.226 42.4817 244.049 42.407C243.876 42.3277 243.699 42.288 243.517 42.288C243.33 42.288 243.144 42.3277 242.957 42.407C242.77 42.4817 242.614 42.6007 242.488 42.764C242.362 42.9227 242.299 43.1233 242.299 43.366V48H240.255ZM262.486 43.653H258.055V48H256.018V37.878H258.055V41.938H262.486V37.878H264.53V48H262.486V43.653ZM268.619 48.14C268.157 48.14 267.741 48.0537 267.373 47.881C267.004 47.7083 266.712 47.4587 266.498 47.132C266.283 46.8007 266.176 46.3993 266.176 45.928C266.176 45.1347 266.472 44.5327 267.065 44.122C267.657 43.7067 268.593 43.492 269.872 43.478L270.775 43.464V43.03C270.775 42.6987 270.677 42.4443 270.481 42.267C270.289 42.085 269.991 41.9963 269.585 42.001C269.286 42.0057 269.001 42.0757 268.731 42.211C268.465 42.3463 268.283 42.582 268.185 42.918H266.484C266.512 42.3953 266.663 41.966 266.939 41.63C267.214 41.2893 267.587 41.0373 268.059 40.874C268.535 40.706 269.074 40.622 269.676 40.622C270.418 40.622 271.013 40.7153 271.461 40.902C271.909 41.084 272.233 41.3477 272.434 41.693C272.634 42.0337 272.735 42.4397 272.735 42.911V48H271.027L270.859 46.754C270.611 47.2767 270.301 47.6383 269.928 47.839C269.559 48.0397 269.123 48.14 268.619 48.14ZM269.305 46.796C269.491 46.796 269.671 46.7633 269.844 46.698C270.021 46.628 270.177 46.537 270.313 46.425C270.453 46.3083 270.565 46.1777 270.649 46.033C270.733 45.8883 270.775 45.739 270.775 45.585V44.514L270.04 44.528C269.699 44.5327 269.382 44.5747 269.088 44.654C268.794 44.7287 268.556 44.8523 268.374 45.025C268.196 45.1977 268.108 45.431 268.108 45.725C268.108 46.061 268.224 46.3247 268.458 46.516C268.691 46.7027 268.973 46.796 269.305 46.796ZM274.544 48V40.762H276.546V41.784C276.765 41.4667 277.059 41.1937 277.428 40.965C277.801 40.7363 278.27 40.622 278.835 40.622C279.082 40.622 279.334 40.6663 279.591 40.755C279.848 40.8437 280.088 40.9743 280.312 41.147C280.541 41.315 280.725 41.5273 280.865 41.784C281.098 41.4527 281.404 41.1773 281.782 40.958C282.165 40.734 282.589 40.622 283.056 40.622C283.327 40.622 283.6 40.6663 283.875 40.755C284.155 40.8437 284.412 40.9883 284.645 41.189C284.878 41.3897 285.065 41.658 285.205 41.994C285.35 42.3253 285.422 42.736 285.422 43.226V48H283.378V43.478C283.378 43.1887 283.32 42.9577 283.203 42.785C283.091 42.6077 282.946 42.4817 282.769 42.407C282.596 42.3277 282.412 42.288 282.216 42.288C282.034 42.288 281.85 42.3253 281.663 42.4C281.476 42.47 281.318 42.5843 281.187 42.743C281.056 42.9017 280.991 43.1093 280.991 43.366V48H278.954V43.296C278.954 43.0767 278.896 42.8923 278.779 42.743C278.662 42.5937 278.515 42.4817 278.338 42.407C278.165 42.3277 277.988 42.288 277.806 42.288C277.619 42.288 277.433 42.3277 277.246 42.407C277.059 42.4817 276.903 42.6007 276.777 42.764C276.651 42.9227 276.588 43.1233 276.588 43.366V48H274.544ZM289.139 40.762V48H287.186V40.762H289.139ZM289.16 37.885V39.726H287.172V37.885H289.16ZM293.342 48.126C292.81 48.126 292.388 48.063 292.075 47.937C291.763 47.811 291.532 47.6453 291.382 47.44C291.233 47.23 291.137 46.999 291.095 46.747C291.053 46.4903 291.032 46.2313 291.032 45.97V37.598H293.034V45.718C293.034 45.984 293.09 46.201 293.202 46.369C293.319 46.5323 293.536 46.6327 293.853 46.67L294.196 46.691V47.951C294.056 47.9977 293.914 48.0373 293.769 48.07C293.625 48.1073 293.482 48.126 293.342 48.126Z" fill="#213360"/>
<path d="M208.545 55.324L206.013 64H204.987L203.085 57.274L201.153 64H200.157L197.655 55.324H198.777L200.697 62.23L202.653 55.324H203.523L205.473 62.23L207.429 55.324H208.545ZM212.014 64.12C211.69 64.116 211.384 64.07 211.096 63.982C210.812 63.89 210.56 63.756 210.34 63.58C210.12 63.404 209.946 63.186 209.818 62.926C209.694 62.662 209.632 62.356 209.632 62.008V57.796H210.742V61.894C210.742 62.298 210.866 62.626 211.114 62.878C211.366 63.13 211.744 63.256 212.248 63.256C212.704 63.256 213.07 63.138 213.346 62.902C213.626 62.662 213.766 62.306 213.766 61.834V57.796H214.87V64H213.988L213.874 62.812C213.798 63.124 213.668 63.376 213.484 63.568C213.304 63.76 213.086 63.902 212.83 63.994C212.578 64.082 212.306 64.124 212.014 64.12ZM217.886 64.276C217.886 64.856 217.76 65.286 217.508 65.566C217.26 65.85 216.82 65.992 216.188 65.992C215.848 65.992 215.634 65.968 215.546 65.92C215.454 65.872 215.408 65.848 215.408 65.848V65.11L216.02 65.08C216.3 65.06 216.496 64.986 216.608 64.858C216.72 64.73 216.776 64.524 216.776 64.24V57.796H217.886V64.276ZM217.916 55.33V56.482H216.74V55.33H217.916ZM222.034 64.12C221.71 64.116 221.404 64.07 221.116 63.982C220.832 63.89 220.58 63.756 220.36 63.58C220.14 63.404 219.966 63.186 219.838 62.926C219.714 62.662 219.652 62.356 219.652 62.008V57.796H220.762V61.894C220.762 62.298 220.886 62.626 221.134 62.878C221.386 63.13 221.764 63.256 222.268 63.256C222.724 63.256 223.09 63.138 223.366 62.902C223.646 62.662 223.786 62.306 223.786 61.834V57.796H224.89V64H224.008L223.894 62.812C223.818 63.124 223.688 63.376 223.504 63.568C223.324 63.76 223.106 63.902 222.85 63.994C222.598 64.082 222.326 64.124 222.034 64.12ZM228.859 64.12C228.055 64.12 227.417 63.844 226.945 63.292C226.473 62.74 226.237 61.934 226.237 60.874C226.237 60.23 226.331 59.668 226.519 59.188C226.711 58.708 226.995 58.336 227.371 58.072C227.747 57.808 228.215 57.676 228.775 57.676C229.071 57.676 229.333 57.714 229.561 57.79C229.793 57.866 229.993 57.962 230.161 58.078C230.329 58.194 230.465 58.314 230.569 58.438C230.677 58.562 230.757 58.676 230.809 58.78V55.084H231.925V64H231.079L230.959 62.728C230.919 62.848 230.855 62.988 230.767 63.148C230.679 63.304 230.555 63.458 230.395 63.61C230.235 63.758 230.029 63.88 229.777 63.976C229.529 64.072 229.223 64.12 228.859 64.12ZM229.057 63.268C229.685 63.268 230.133 63.078 230.401 62.698C230.673 62.314 230.809 61.688 230.809 60.82C230.805 60.336 230.743 59.924 230.623 59.584C230.507 59.244 230.323 58.986 230.071 58.81C229.823 58.63 229.493 58.54 229.081 58.54C228.569 58.54 228.153 58.722 227.833 59.086C227.513 59.45 227.353 60.028 227.353 60.82C227.353 61.596 227.497 62.198 227.785 62.626C228.077 63.054 228.501 63.268 229.057 63.268ZM239.276 64H238.1L236.156 60.886L234.932 62.152V64H233.828V55.084H234.932V60.898L237.848 57.796H239.12L236.882 60.16L239.276 64ZM242.154 64.12C241.754 64.12 241.4 64.05 241.092 63.91C240.784 63.766 240.542 63.56 240.366 63.292C240.194 63.024 240.108 62.7 240.108 62.32C240.108 61.632 240.348 61.12 240.828 60.784C241.308 60.448 242.078 60.268 243.138 60.244L244.248 60.214V59.728C244.248 59.348 244.134 59.048 243.906 58.828C243.678 58.604 243.324 58.492 242.844 58.492C242.488 58.496 242.174 58.58 241.902 58.744C241.634 58.908 241.46 59.176 241.38 59.548H240.402C240.426 59.144 240.54 58.804 240.744 58.528C240.948 58.248 241.232 58.036 241.596 57.892C241.964 57.748 242.398 57.676 242.898 57.676C243.438 57.676 243.886 57.752 244.242 57.904C244.602 58.056 244.87 58.28 245.046 58.576C245.226 58.872 245.316 59.236 245.316 59.668V64H244.368L244.29 62.836C244.05 63.32 243.744 63.656 243.372 63.844C243.004 64.028 242.598 64.12 242.154 64.12ZM242.49 63.322C242.698 63.322 242.904 63.284 243.108 63.208C243.316 63.132 243.506 63.03 243.678 62.902C243.85 62.77 243.986 62.624 244.086 62.464C244.19 62.3 244.244 62.132 244.248 61.96V60.898L243.324 60.916C242.852 60.924 242.456 60.972 242.136 61.06C241.82 61.148 241.582 61.286 241.422 61.474C241.266 61.662 241.188 61.908 241.188 62.212C241.188 62.56 241.308 62.832 241.548 63.028C241.792 63.224 242.106 63.322 242.49 63.322ZM247.211 64V57.796H248.285V58.696C248.385 58.524 248.523 58.362 248.699 58.21C248.879 58.058 249.095 57.936 249.347 57.844C249.603 57.752 249.897 57.706 250.229 57.706C250.621 57.706 250.981 57.784 251.309 57.94C251.641 58.096 251.905 58.34 252.101 58.672C252.301 59 252.401 59.424 252.401 59.944V64H251.291V60.052C251.291 59.568 251.163 59.21 250.907 58.978C250.655 58.742 250.327 58.624 249.923 58.624C249.643 58.624 249.381 58.67 249.137 58.762C248.893 58.85 248.695 58.986 248.543 59.17C248.391 59.35 248.315 59.578 248.315 59.854V64H247.211ZM256.902 64V57.796H257.958V58.99C258.062 58.694 258.208 58.45 258.396 58.258C258.584 58.062 258.798 57.916 259.038 57.82C259.282 57.724 259.534 57.676 259.794 57.676C259.886 57.676 259.976 57.682 260.064 57.694C260.152 57.706 260.22 57.726 260.268 57.754V58.828C260.208 58.8 260.13 58.782 260.034 58.774C259.942 58.762 259.864 58.756 259.8 58.756C259.552 58.74 259.32 58.756 259.104 58.804C258.888 58.848 258.698 58.926 258.534 59.038C258.37 59.15 258.24 59.298 258.144 59.482C258.052 59.662 258.006 59.882 258.006 60.142V64H256.902ZM263.835 64.12C263.511 64.116 263.205 64.07 262.917 63.982C262.633 63.89 262.381 63.756 262.161 63.58C261.941 63.404 261.767 63.186 261.639 62.926C261.515 62.662 261.453 62.356 261.453 62.008V57.796H262.563V61.894C262.563 62.298 262.687 62.626 262.935 62.878C263.187 63.13 263.565 63.256 264.069 63.256C264.525 63.256 264.891 63.138 265.167 62.902C265.447 62.662 265.587 62.306 265.587 61.834V57.796H266.691V64H265.809L265.695 62.812C265.619 63.124 265.489 63.376 265.305 63.568C265.125 63.76 264.907 63.902 264.651 63.994C264.399 64.082 264.127 64.124 263.835 64.12ZM268.492 64V57.796H269.56V58.696C269.732 58.424 269.968 58.186 270.268 57.982C270.568 57.778 270.958 57.676 271.438 57.676C271.662 57.676 271.89 57.714 272.122 57.79C272.358 57.866 272.574 57.98 272.77 58.132C272.966 58.284 273.118 58.47 273.226 58.69C273.418 58.386 273.678 58.142 274.006 57.958C274.334 57.77 274.704 57.676 275.116 57.676C275.332 57.676 275.558 57.71 275.794 57.778C276.03 57.842 276.248 57.958 276.448 58.126C276.652 58.29 276.818 58.52 276.946 58.816C277.074 59.108 277.138 59.484 277.138 59.944V64H276.022V60.052C276.022 59.676 275.962 59.386 275.842 59.182C275.722 58.974 275.564 58.828 275.368 58.744C275.176 58.66 274.97 58.618 274.75 58.618C274.558 58.618 274.354 58.656 274.138 58.732C273.922 58.808 273.738 58.936 273.586 59.116C273.434 59.296 273.358 59.542 273.358 59.854V64H272.254V59.728C272.254 59.484 272.188 59.28 272.056 59.116C271.928 58.952 271.766 58.828 271.57 58.744C271.378 58.66 271.186 58.618 270.994 58.618C270.782 58.618 270.568 58.66 270.352 58.744C270.14 58.828 269.96 58.962 269.812 59.146C269.668 59.326 269.596 59.562 269.596 59.854V64H268.492ZM280.568 64.12C280.168 64.12 279.814 64.05 279.506 63.91C279.198 63.766 278.956 63.56 278.78 63.292C278.608 63.024 278.522 62.7 278.522 62.32C278.522 61.632 278.762 61.12 279.242 60.784C279.722 60.448 280.492 60.268 281.552 60.244L282.662 60.214V59.728C282.662 59.348 282.548 59.048 282.32 58.828C282.092 58.604 281.738 58.492 281.258 58.492C280.902 58.496 280.588 58.58 280.316 58.744C280.048 58.908 279.874 59.176 279.794 59.548H278.816C278.84 59.144 278.954 58.804 279.158 58.528C279.362 58.248 279.646 58.036 280.01 57.892C280.378 57.748 280.812 57.676 281.312 57.676C281.852 57.676 282.3 57.752 282.656 57.904C283.016 58.056 283.284 58.28 283.46 58.576C283.64 58.872 283.73 59.236 283.73 59.668V64H282.782L282.704 62.836C282.464 63.32 282.158 63.656 281.786 63.844C281.418 64.028 281.012 64.12 280.568 64.12ZM280.904 63.322C281.112 63.322 281.318 63.284 281.522 63.208C281.73 63.132 281.92 63.03 282.092 62.902C282.264 62.77 282.4 62.624 282.5 62.464C282.604 62.3 282.658 62.132 282.662 61.96V60.898L281.738 60.916C281.266 60.924 280.87 60.972 280.55 61.06C280.234 61.148 279.996 61.286 279.836 61.474C279.68 61.662 279.602 61.908 279.602 62.212C279.602 62.56 279.722 62.832 279.962 63.028C280.206 63.224 280.52 63.322 280.904 63.322ZM285.625 64V55.084H286.705V58.708C286.809 58.536 286.949 58.376 287.125 58.228C287.301 58.076 287.515 57.954 287.767 57.862C288.019 57.766 288.311 57.718 288.643 57.718C289.047 57.718 289.413 57.794 289.741 57.946C290.069 58.094 290.329 58.306 290.521 58.582C290.713 58.858 290.809 59.186 290.809 59.566V64H289.699V59.788C289.699 59.416 289.571 59.13 289.315 58.93C289.063 58.726 288.733 58.624 288.325 58.624C288.049 58.624 287.789 58.67 287.545 58.762C287.301 58.85 287.103 58.986 286.951 59.17C286.803 59.35 286.729 59.58 286.729 59.86V64H285.625ZM197.904 76.606H196.506V80.464C196.506 80.684 196.528 80.846 196.572 80.95C196.62 81.05 196.698 81.114 196.806 81.142C196.918 81.17 197.07 81.184 197.262 81.184H197.94V81.928C197.864 81.956 197.748 81.98 197.592 82C197.44 82.02 197.25 82.03 197.022 82.03C196.594 82.03 196.262 81.972 196.026 81.856C195.79 81.74 195.624 81.568 195.528 81.34C195.436 81.112 195.39 80.832 195.39 80.5V76.606H194.382V75.796H195.42L195.69 73.99H196.506V75.79H197.904V76.606ZM201.179 82.12C200.779 82.12 200.425 82.05 200.117 81.91C199.809 81.766 199.567 81.56 199.391 81.292C199.219 81.024 199.133 80.7 199.133 80.32C199.133 79.632 199.373 79.12 199.853 78.784C200.333 78.448 201.103 78.268 202.163 78.244L203.273 78.214V77.728C203.273 77.348 203.159 77.048 202.931 76.828C202.703 76.604 202.349 76.492 201.869 76.492C201.513 76.496 201.199 76.58 200.927 76.744C200.659 76.908 200.485 77.176 200.405 77.548H199.427C199.451 77.144 199.565 76.804 199.769 76.528C199.973 76.248 200.257 76.036 200.621 75.892C200.989 75.748 201.423 75.676 201.923 75.676C202.463 75.676 202.911 75.752 203.267 75.904C203.627 76.056 203.895 76.28 204.071 76.576C204.251 76.872 204.341 77.236 204.341 77.668V82H203.393L203.315 80.836C203.075 81.32 202.769 81.656 202.397 81.844C202.029 82.028 201.623 82.12 201.179 82.12ZM201.515 81.322C201.723 81.322 201.929 81.284 202.133 81.208C202.341 81.132 202.531 81.03 202.703 80.902C202.875 80.77 203.011 80.624 203.111 80.464C203.215 80.3 203.269 80.132 203.273 79.96V78.898L202.349 78.916C201.877 78.924 201.481 78.972 201.161 79.06C200.845 79.148 200.607 79.286 200.447 79.474C200.291 79.662 200.213 79.908 200.213 80.212C200.213 80.56 200.333 80.832 200.573 81.028C200.817 81.224 201.131 81.322 201.515 81.322ZM206.236 82V75.796H207.31V76.696C207.41 76.524 207.548 76.362 207.724 76.21C207.904 76.058 208.12 75.936 208.372 75.844C208.628 75.752 208.922 75.706 209.254 75.706C209.646 75.706 210.006 75.784 210.334 75.94C210.666 76.096 210.93 76.34 211.126 76.672C211.326 77 211.426 77.424 211.426 77.944V82H210.316V78.052C210.316 77.568 210.188 77.21 209.932 76.978C209.68 76.742 209.352 76.624 208.948 76.624C208.668 76.624 208.406 76.67 208.162 76.762C207.918 76.85 207.72 76.986 207.568 77.17C207.416 77.35 207.34 77.578 207.34 77.854V82H206.236ZM215.778 84.052C214.802 84.052 214.042 83.91 213.498 83.626C212.958 83.346 212.688 82.944 212.688 82.42C212.688 82.196 212.74 82.006 212.844 81.85C212.948 81.69 213.072 81.558 213.216 81.454C213.36 81.35 213.494 81.268 213.618 81.208C213.742 81.144 213.822 81.098 213.858 81.07C213.79 81.03 213.704 80.98 213.6 80.92C213.5 80.86 213.412 80.78 213.336 80.68C213.26 80.58 213.222 80.45 213.222 80.29C213.222 80.094 213.314 79.914 213.498 79.75C213.682 79.586 213.954 79.464 214.314 79.384C213.95 79.2 213.666 78.956 213.462 78.652C213.258 78.348 213.156 78.018 213.156 77.662C213.156 77.262 213.264 76.914 213.48 76.618C213.7 76.322 214.012 76.096 214.416 75.94C214.82 75.78 215.3 75.7 215.856 75.7C216.26 75.7 216.6 75.748 216.876 75.844C217.152 75.936 217.408 76.068 217.644 76.24C217.708 76.212 217.808 76.17 217.944 76.114C218.084 76.054 218.238 75.99 218.406 75.922C218.574 75.854 218.73 75.79 218.874 75.73C219.022 75.666 219.14 75.618 219.228 75.586L219.222 76.612L218.136 76.816C218.196 76.944 218.244 77.084 218.28 77.236C218.32 77.388 218.34 77.53 218.34 77.662C218.34 78.026 218.244 78.356 218.052 78.652C217.864 78.948 217.578 79.184 217.194 79.36C216.81 79.536 216.33 79.624 215.754 79.624C215.706 79.624 215.644 79.624 215.568 79.624C215.496 79.62 215.434 79.616 215.382 79.612C214.958 79.624 214.666 79.672 214.506 79.756C214.346 79.836 214.266 79.926 214.266 80.026C214.266 80.142 214.356 80.222 214.536 80.266C214.716 80.31 215.022 80.348 215.454 80.38C215.61 80.388 215.802 80.398 216.03 80.41C216.262 80.422 216.518 80.438 216.798 80.458C217.45 80.498 217.952 80.664 218.304 80.956C218.656 81.248 218.832 81.642 218.832 82.138C218.832 82.702 218.58 83.162 218.076 83.518C217.572 83.874 216.806 84.052 215.778 84.052ZM215.976 83.338C216.548 83.338 216.986 83.252 217.29 83.08C217.594 82.908 217.746 82.648 217.746 82.3C217.746 82.052 217.652 81.85 217.464 81.694C217.28 81.534 216.998 81.442 216.618 81.418L214.878 81.304C214.722 81.296 214.56 81.336 214.392 81.424C214.224 81.508 214.08 81.626 213.96 81.778C213.844 81.93 213.786 82.102 213.786 82.294C213.786 82.622 213.964 82.878 214.32 83.062C214.68 83.246 215.232 83.338 215.976 83.338ZM215.784 78.91C216.232 78.91 216.592 78.806 216.864 78.598C217.14 78.39 217.278 78.082 217.278 77.674C217.278 77.254 217.14 76.934 216.864 76.714C216.592 76.494 216.232 76.384 215.784 76.384C215.332 76.384 214.966 76.496 214.686 76.72C214.41 76.94 214.272 77.258 214.272 77.674C214.272 78.066 214.404 78.37 214.668 78.586C214.932 78.802 215.304 78.91 215.784 78.91ZM223.161 84.052C222.185 84.052 221.425 83.91 220.881 83.626C220.341 83.346 220.071 82.944 220.071 82.42C220.071 82.196 220.123 82.006 220.227 81.85C220.331 81.69 220.455 81.558 220.599 81.454C220.743 81.35 220.877 81.268 221.001 81.208C221.125 81.144 221.205 81.098 221.241 81.07C221.173 81.03 221.087 80.98 220.983 80.92C220.883 80.86 220.795 80.78 220.719 80.68C220.643 80.58 220.605 80.45 220.605 80.29C220.605 80.094 220.697 79.914 220.881 79.75C221.065 79.586 221.337 79.464 221.697 79.384C221.333 79.2 221.049 78.956 220.845 78.652C220.641 78.348 220.539 78.018 220.539 77.662C220.539 77.262 220.647 76.914 220.863 76.618C221.083 76.322 221.395 76.096 221.799 75.94C222.203 75.78 222.683 75.7 223.239 75.7C223.643 75.7 223.983 75.748 224.259 75.844C224.535 75.936 224.791 76.068 225.027 76.24C225.091 76.212 225.191 76.17 225.327 76.114C225.467 76.054 225.621 75.99 225.789 75.922C225.957 75.854 226.113 75.79 226.257 75.73C226.405 75.666 226.523 75.618 226.611 75.586L226.605 76.612L225.519 76.816C225.579 76.944 225.627 77.084 225.663 77.236C225.703 77.388 225.723 77.53 225.723 77.662C225.723 78.026 225.627 78.356 225.435 78.652C225.247 78.948 224.961 79.184 224.577 79.36C224.193 79.536 223.713 79.624 223.137 79.624C223.089 79.624 223.027 79.624 222.951 79.624C222.879 79.62 222.817 79.616 222.765 79.612C222.341 79.624 222.049 79.672 221.889 79.756C221.729 79.836 221.649 79.926 221.649 80.026C221.649 80.142 221.739 80.222 221.919 80.266C222.099 80.31 222.405 80.348 222.837 80.38C222.993 80.388 223.185 80.398 223.413 80.41C223.645 80.422 223.901 80.438 224.181 80.458C224.833 80.498 225.335 80.664 225.687 80.956C226.039 81.248 226.215 81.642 226.215 82.138C226.215 82.702 225.963 83.162 225.459 83.518C224.955 83.874 224.189 84.052 223.161 84.052ZM223.359 83.338C223.931 83.338 224.369 83.252 224.673 83.08C224.977 82.908 225.129 82.648 225.129 82.3C225.129 82.052 225.035 81.85 224.847 81.694C224.663 81.534 224.381 81.442 224.001 81.418L222.261 81.304C222.105 81.296 221.943 81.336 221.775 81.424C221.607 81.508 221.463 81.626 221.343 81.778C221.227 81.93 221.169 82.102 221.169 82.294C221.169 82.622 221.347 82.878 221.703 83.062C222.063 83.246 222.615 83.338 223.359 83.338ZM223.167 78.91C223.615 78.91 223.975 78.806 224.247 78.598C224.523 78.39 224.661 78.082 224.661 77.674C224.661 77.254 224.523 76.934 224.247 76.714C223.975 76.494 223.615 76.384 223.167 76.384C222.715 76.384 222.349 76.496 222.069 76.72C221.793 76.94 221.655 77.258 221.655 77.674C221.655 78.066 221.787 78.37 222.051 78.586C222.315 78.802 222.687 78.91 223.167 78.91ZM229.538 82.12C229.138 82.12 228.784 82.05 228.476 81.91C228.168 81.766 227.926 81.56 227.75 81.292C227.578 81.024 227.492 80.7 227.492 80.32C227.492 79.632 227.732 79.12 228.212 78.784C228.692 78.448 229.462 78.268 230.522 78.244L231.632 78.214V77.728C231.632 77.348 231.518 77.048 231.29 76.828C231.062 76.604 230.708 76.492 230.228 76.492C229.872 76.496 229.558 76.58 229.286 76.744C229.018 76.908 228.844 77.176 228.764 77.548H227.786C227.81 77.144 227.924 76.804 228.128 76.528C228.332 76.248 228.616 76.036 228.98 75.892C229.348 75.748 229.782 75.676 230.282 75.676C230.822 75.676 231.27 75.752 231.626 75.904C231.986 76.056 232.254 76.28 232.43 76.576C232.61 76.872 232.7 77.236 232.7 77.668V82H231.752L231.674 80.836C231.434 81.32 231.128 81.656 230.756 81.844C230.388 82.028 229.982 82.12 229.538 82.12ZM229.874 81.322C230.082 81.322 230.288 81.284 230.492 81.208C230.7 81.132 230.89 81.03 231.062 80.902C231.234 80.77 231.37 80.624 231.47 80.464C231.574 80.3 231.628 80.132 231.632 79.96V78.898L230.708 78.916C230.236 78.924 229.84 78.972 229.52 79.06C229.204 79.148 228.966 79.286 228.806 79.474C228.65 79.662 228.572 79.908 228.572 80.212C228.572 80.56 228.692 80.832 228.932 81.028C229.176 81.224 229.49 81.322 229.874 81.322ZM234.596 82V75.796H235.664V76.696C235.836 76.424 236.072 76.186 236.372 75.982C236.672 75.778 237.062 75.676 237.542 75.676C237.766 75.676 237.994 75.714 238.226 75.79C238.462 75.866 238.678 75.98 238.874 76.132C239.07 76.284 239.222 76.47 239.33 76.69C239.522 76.386 239.782 76.142 240.11 75.958C240.438 75.77 240.808 75.676 241.22 75.676C241.436 75.676 241.662 75.71 241.898 75.778C242.134 75.842 242.352 75.958 242.552 76.126C242.756 76.29 242.922 76.52 243.05 76.816C243.178 77.108 243.242 77.484 243.242 77.944V82H242.126V78.052C242.126 77.676 242.066 77.386 241.946 77.182C241.826 76.974 241.668 76.828 241.472 76.744C241.28 76.66 241.074 76.618 240.854 76.618C240.662 76.618 240.458 76.656 240.242 76.732C240.026 76.808 239.842 76.936 239.69 77.116C239.538 77.296 239.462 77.542 239.462 77.854V82H238.358V77.728C238.358 77.484 238.292 77.28 238.16 77.116C238.032 76.952 237.87 76.828 237.674 76.744C237.482 76.66 237.29 76.618 237.098 76.618C236.886 76.618 236.672 76.66 236.456 76.744C236.244 76.828 236.064 76.962 235.916 77.146C235.772 77.326 235.7 77.562 235.7 77.854V82H234.596ZM247.165 82.12C246.841 82.116 246.535 82.07 246.247 81.982C245.963 81.89 245.711 81.756 245.491 81.58C245.271 81.404 245.097 81.186 244.969 80.926C244.845 80.662 244.783 80.356 244.783 80.008V75.796H245.893V79.894C245.893 80.298 246.017 80.626 246.265 80.878C246.517 81.13 246.895 81.256 247.399 81.256C247.855 81.256 248.221 81.138 248.497 80.902C248.777 80.662 248.917 80.306 248.917 79.834V75.796H250.021V82H249.139L249.025 80.812C248.949 81.124 248.819 81.376 248.635 81.568C248.455 81.76 248.237 81.902 247.981 81.994C247.729 82.082 247.457 82.124 247.165 82.12ZM256.603 82.12C255.799 82.12 255.161 81.844 254.689 81.292C254.217 80.74 253.981 79.934 253.981 78.874C253.981 78.23 254.075 77.668 254.263 77.188C254.455 76.708 254.739 76.336 255.115 76.072C255.491 75.808 255.959 75.676 256.519 75.676C256.815 75.676 257.077 75.714 257.305 75.79C257.537 75.866 257.737 75.962 257.905 76.078C258.073 76.194 258.209 76.314 258.313 76.438C258.421 76.562 258.501 76.676 258.553 76.78V73.084H259.669V82H258.823L258.703 80.728C258.663 80.848 258.599 80.988 258.511 81.148C258.423 81.304 258.299 81.458 258.139 81.61C257.979 81.758 257.773 81.88 257.521 81.976C257.273 82.072 256.967 82.12 256.603 82.12ZM256.801 81.268C257.429 81.268 257.877 81.078 258.145 80.698C258.417 80.314 258.553 79.688 258.553 78.82C258.549 78.336 258.487 77.924 258.367 77.584C258.251 77.244 258.067 76.986 257.815 76.81C257.567 76.63 257.237 76.54 256.825 76.54C256.313 76.54 255.897 76.722 255.577 77.086C255.257 77.45 255.097 78.028 255.097 78.82C255.097 79.596 255.241 80.198 255.529 80.626C255.821 81.054 256.245 81.268 256.801 81.268ZM262.294 79.156C262.294 79.548 262.358 79.904 262.486 80.224C262.618 80.54 262.816 80.792 263.08 80.98C263.348 81.168 263.682 81.262 264.082 81.262C264.478 81.262 264.818 81.17 265.102 80.986C265.39 80.802 265.574 80.536 265.654 80.188H266.704C266.628 80.608 266.46 80.962 266.2 81.25C265.94 81.538 265.626 81.756 265.258 81.904C264.89 82.048 264.506 82.12 264.106 82.12C263.526 82.12 263.016 81.994 262.576 81.742C262.136 81.49 261.792 81.128 261.544 80.656C261.296 80.184 261.172 79.618 261.172 78.958C261.172 78.306 261.284 77.734 261.508 77.242C261.732 76.75 262.056 76.366 262.48 76.09C262.908 75.814 263.422 75.676 264.022 75.676C264.606 75.676 265.1 75.802 265.504 76.054C265.908 76.306 266.214 76.662 266.422 77.122C266.634 77.578 266.74 78.12 266.74 78.748V79.156H262.294ZM262.3 78.406H265.672C265.672 78.05 265.612 77.73 265.492 77.446C265.372 77.158 265.188 76.932 264.94 76.768C264.696 76.6 264.388 76.516 264.016 76.516C263.628 76.516 263.306 76.61 263.05 76.798C262.798 76.982 262.608 77.22 262.48 77.512C262.356 77.8 262.296 78.098 262.3 78.406ZM268.264 82V75.796H269.338V76.696C269.438 76.524 269.576 76.362 269.752 76.21C269.932 76.058 270.148 75.936 270.4 75.844C270.656 75.752 270.95 75.706 271.282 75.706C271.674 75.706 272.034 75.784 272.362 75.94C272.694 76.096 272.958 76.34 273.154 76.672C273.354 77 273.454 77.424 273.454 77.944V82H272.344V78.052C272.344 77.568 272.216 77.21 271.96 76.978C271.708 76.742 271.38 76.624 270.976 76.624C270.696 76.624 270.434 76.67 270.19 76.762C269.946 76.85 269.748 76.986 269.596 77.17C269.444 77.35 269.368 77.578 269.368 77.854V82H268.264ZM277.805 84.052C276.829 84.052 276.069 83.91 275.525 83.626C274.985 83.346 274.715 82.944 274.715 82.42C274.715 82.196 274.767 82.006 274.871 81.85C274.975 81.69 275.099 81.558 275.243 81.454C275.387 81.35 275.521 81.268 275.645 81.208C275.769 81.144 275.849 81.098 275.885 81.07C275.817 81.03 275.731 80.98 275.627 80.92C275.527 80.86 275.439 80.78 275.363 80.68C275.287 80.58 275.249 80.45 275.249 80.29C275.249 80.094 275.341 79.914 275.525 79.75C275.709 79.586 275.981 79.464 276.341 79.384C275.977 79.2 275.693 78.956 275.489 78.652C275.285 78.348 275.183 78.018 275.183 77.662C275.183 77.262 275.291 76.914 275.507 76.618C275.727 76.322 276.039 76.096 276.443 75.94C276.847 75.78 277.327 75.7 277.883 75.7C278.287 75.7 278.627 75.748 278.903 75.844C279.179 75.936 279.435 76.068 279.671 76.24C279.735 76.212 279.835 76.17 279.971 76.114C280.111 76.054 280.265 75.99 280.433 75.922C280.601 75.854 280.757 75.79 280.901 75.73C281.049 75.666 281.167 75.618 281.255 75.586L281.249 76.612L280.163 76.816C280.223 76.944 280.271 77.084 280.307 77.236C280.347 77.388 280.367 77.53 280.367 77.662C280.367 78.026 280.271 78.356 280.079 78.652C279.891 78.948 279.605 79.184 279.221 79.36C278.837 79.536 278.357 79.624 277.781 79.624C277.733 79.624 277.671 79.624 277.595 79.624C277.523 79.62 277.461 79.616 277.409 79.612C276.985 79.624 276.693 79.672 276.533 79.756C276.373 79.836 276.293 79.926 276.293 80.026C276.293 80.142 276.383 80.222 276.563 80.266C276.743 80.31 277.049 80.348 277.481 80.38C277.637 80.388 277.829 80.398 278.057 80.41C278.289 80.422 278.545 80.438 278.825 80.458C279.477 80.498 279.979 80.664 280.331 80.956C280.683 81.248 280.859 81.642 280.859 82.138C280.859 82.702 280.607 83.162 280.103 83.518C279.599 83.874 278.833 84.052 277.805 84.052ZM278.003 83.338C278.575 83.338 279.013 83.252 279.317 83.08C279.621 82.908 279.773 82.648 279.773 82.3C279.773 82.052 279.679 81.85 279.491 81.694C279.307 81.534 279.025 81.442 278.645 81.418L276.905 81.304C276.749 81.296 276.587 81.336 276.419 81.424C276.251 81.508 276.107 81.626 275.987 81.778C275.871 81.93 275.813 82.102 275.813 82.294C275.813 82.622 275.991 82.878 276.347 83.062C276.707 83.246 277.259 83.338 278.003 83.338ZM277.811 78.91C278.259 78.91 278.619 78.806 278.891 78.598C279.167 78.39 279.305 78.082 279.305 77.674C279.305 77.254 279.167 76.934 278.891 76.714C278.619 76.494 278.259 76.384 277.811 76.384C277.359 76.384 276.993 76.496 276.713 76.72C276.437 76.94 276.299 77.258 276.299 77.674C276.299 78.066 276.431 78.37 276.695 78.586C276.959 78.802 277.331 78.91 277.811 78.91ZM284.183 82.12C283.783 82.12 283.429 82.05 283.121 81.91C282.813 81.766 282.571 81.56 282.395 81.292C282.223 81.024 282.137 80.7 282.137 80.32C282.137 79.632 282.377 79.12 282.857 78.784C283.337 78.448 284.107 78.268 285.167 78.244L286.277 78.214V77.728C286.277 77.348 286.163 77.048 285.935 76.828C285.707 76.604 285.353 76.492 284.873 76.492C284.517 76.496 284.203 76.58 283.931 76.744C283.663 76.908 283.489 77.176 283.409 77.548H282.431C282.455 77.144 282.569 76.804 282.773 76.528C282.977 76.248 283.261 76.036 283.625 75.892C283.993 75.748 284.427 75.676 284.927 75.676C285.467 75.676 285.915 75.752 286.271 75.904C286.631 76.056 286.899 76.28 287.075 76.576C287.255 76.872 287.345 77.236 287.345 77.668V82H286.397L286.319 80.836C286.079 81.32 285.773 81.656 285.401 81.844C285.033 82.028 284.627 82.12 284.183 82.12ZM284.519 81.322C284.727 81.322 284.933 81.284 285.137 81.208C285.345 81.132 285.535 81.03 285.707 80.902C285.879 80.77 286.015 80.624 286.115 80.464C286.219 80.3 286.273 80.132 286.277 79.96V78.898L285.353 78.916C284.881 78.924 284.485 78.972 284.165 79.06C283.849 79.148 283.611 79.286 283.451 79.474C283.295 79.662 283.217 79.908 283.217 80.212C283.217 80.56 283.337 80.832 283.577 81.028C283.821 81.224 284.135 81.322 284.519 81.322ZM289.24 82V75.796H290.314V76.696C290.414 76.524 290.552 76.362 290.728 76.21C290.908 76.058 291.124 75.936 291.376 75.844C291.632 75.752 291.926 75.706 292.258 75.706C292.65 75.706 293.01 75.784 293.338 75.94C293.67 76.096 293.934 76.34 294.13 76.672C294.33 77 294.43 77.424 294.43 77.944V82H293.32V78.052C293.32 77.568 293.192 77.21 292.936 76.978C292.684 76.742 292.356 76.624 291.952 76.624C291.672 76.624 291.41 76.67 291.166 76.762C290.922 76.85 290.724 76.986 290.572 77.17C290.42 77.35 290.344 77.578 290.344 77.854V82H289.24ZM215.774 100.12C215.342 100.12 214.94 100.054 214.568 99.922C214.2 99.786 213.894 99.576 213.65 99.292C213.406 99.004 213.252 98.638 213.188 98.194H214.196C214.252 98.438 214.352 98.642 214.496 98.806C214.644 98.966 214.828 99.088 215.048 99.172C215.268 99.252 215.508 99.292 215.768 99.292C216.184 99.292 216.52 99.214 216.776 99.058C217.032 98.902 217.16 98.662 217.16 98.338C217.16 98.11 217.092 97.928 216.956 97.792C216.824 97.652 216.618 97.55 216.338 97.486L215.054 97.168C214.554 97.048 214.154 96.86 213.854 96.604C213.554 96.348 213.404 95.99 213.404 95.53C213.4 95.166 213.486 94.846 213.662 94.57C213.838 94.294 214.102 94.076 214.454 93.916C214.806 93.756 215.244 93.676 215.768 93.676C216.44 93.676 216.982 93.828 217.394 94.132C217.81 94.432 218.026 94.874 218.042 95.458H217.064C217.024 95.162 216.89 94.928 216.662 94.756C216.438 94.58 216.136 94.492 215.756 94.492C215.36 94.492 215.038 94.572 214.79 94.732C214.542 94.888 214.418 95.132 214.418 95.464C214.418 95.684 214.506 95.858 214.682 95.986C214.858 96.11 215.118 96.214 215.462 96.298L216.704 96.61C216.992 96.686 217.228 96.786 217.412 96.91C217.6 97.034 217.748 97.172 217.856 97.324C217.968 97.476 218.046 97.636 218.09 97.804C218.138 97.968 218.162 98.126 218.162 98.278C218.162 98.658 218.066 98.986 217.874 99.262C217.686 99.534 217.414 99.746 217.058 99.898C216.706 100.046 216.278 100.12 215.774 100.12ZM220.913 93.796V100H219.839V93.796H220.913ZM220.937 91.33V92.482H219.803V91.33H220.937ZM228.697 100.12C228.333 100.12 228.025 100.072 227.773 99.976C227.525 99.88 227.321 99.758 227.161 99.61C227.001 99.458 226.877 99.304 226.789 99.148C226.701 98.988 226.637 98.848 226.597 98.728L226.477 100H225.631V91.084H226.747V94.78C226.799 94.676 226.877 94.562 226.981 94.438C227.089 94.314 227.227 94.194 227.395 94.078C227.563 93.962 227.761 93.866 227.989 93.79C228.221 93.714 228.485 93.676 228.781 93.676C229.557 93.676 230.173 93.946 230.629 94.486C231.089 95.026 231.319 95.822 231.319 96.874C231.319 97.526 231.221 98.096 231.025 98.584C230.829 99.068 230.537 99.446 230.149 99.718C229.761 99.986 229.277 100.12 228.697 100.12ZM228.499 99.268C229.003 99.268 229.413 99.074 229.729 98.686C230.045 98.294 230.203 97.672 230.203 96.82C230.203 96.096 230.055 95.536 229.759 95.14C229.467 94.74 229.039 94.54 228.475 94.54C228.063 94.54 227.731 94.63 227.479 94.81C227.231 94.986 227.047 95.244 226.927 95.584C226.811 95.924 226.751 96.336 226.747 96.82C226.747 97.688 226.881 98.314 227.149 98.698C227.421 99.078 227.871 99.268 228.499 99.268ZM234.954 100.12C234.63 100.116 234.324 100.07 234.036 99.982C233.752 99.89 233.5 99.756 233.28 99.58C233.06 99.404 232.886 99.186 232.758 98.926C232.634 98.662 232.572 98.356 232.572 98.008V93.796H233.682V97.894C233.682 98.298 233.806 98.626 234.054 98.878C234.306 99.13 234.684 99.256 235.188 99.256C235.644 99.256 236.01 99.138 236.286 98.902C236.566 98.662 236.706 98.306 236.706 97.834V93.796H237.81V100H236.928L236.814 98.812C236.738 99.124 236.608 99.376 236.424 99.568C236.244 99.76 236.026 99.902 235.77 99.994C235.518 100.082 235.246 100.124 234.954 100.12ZM241.257 100.12C240.857 100.12 240.503 100.05 240.195 99.91C239.887 99.766 239.645 99.56 239.469 99.292C239.297 99.024 239.211 98.7 239.211 98.32C239.211 97.632 239.451 97.12 239.931 96.784C240.411 96.448 241.181 96.268 242.241 96.244L243.351 96.214V95.728C243.351 95.348 243.237 95.048 243.009 94.828C242.781 94.604 242.427 94.492 241.947 94.492C241.591 94.496 241.277 94.58 241.005 94.744C240.737 94.908 240.563 95.176 240.483 95.548H239.505C239.529 95.144 239.643 94.804 239.847 94.528C240.051 94.248 240.335 94.036 240.699 93.892C241.067 93.748 241.501 93.676 242.001 93.676C242.541 93.676 242.989 93.752 243.345 93.904C243.705 94.056 243.973 94.28 244.149 94.576C244.329 94.872 244.419 95.236 244.419 95.668V100H243.471L243.393 98.836C243.153 99.32 242.847 99.656 242.475 99.844C242.107 100.028 241.701 100.12 241.257 100.12ZM241.593 99.322C241.801 99.322 242.007 99.284 242.211 99.208C242.419 99.132 242.609 99.03 242.781 98.902C242.953 98.77 243.089 98.624 243.189 98.464C243.293 98.3 243.347 98.132 243.351 97.96V96.898L242.427 96.916C241.955 96.924 241.559 96.972 241.239 97.06C240.923 97.148 240.685 97.286 240.525 97.474C240.369 97.662 240.291 97.908 240.291 98.212C240.291 98.56 240.411 98.832 240.651 99.028C240.895 99.224 241.209 99.322 241.593 99.322ZM246.314 100V91.084H247.394V94.708C247.498 94.536 247.638 94.376 247.814 94.228C247.99 94.076 248.204 93.954 248.456 93.862C248.708 93.766 249 93.718 249.332 93.718C249.736 93.718 250.102 93.794 250.43 93.946C250.758 94.094 251.018 94.306 251.21 94.582C251.402 94.858 251.498 95.186 251.498 95.566V100H250.388V95.788C250.388 95.416 250.26 95.13 250.004 94.93C249.752 94.726 249.422 94.624 249.014 94.624C248.738 94.624 248.478 94.67 248.234 94.762C247.99 94.85 247.792 94.986 247.64 95.17C247.492 95.35 247.418 95.58 247.418 95.86V100H246.314ZM255.994 100V91.084H257.074V94.708C257.178 94.536 257.318 94.376 257.494 94.228C257.67 94.076 257.884 93.954 258.136 93.862C258.388 93.766 258.68 93.718 259.012 93.718C259.416 93.718 259.782 93.794 260.11 93.946C260.438 94.094 260.698 94.306 260.89 94.582C261.082 94.858 261.178 95.186 261.178 95.566V100H260.068V95.788C260.068 95.416 259.94 95.13 259.684 94.93C259.432 94.726 259.102 94.624 258.694 94.624C258.418 94.624 258.158 94.67 257.914 94.762C257.67 94.85 257.472 94.986 257.32 95.17C257.172 95.35 257.098 95.58 257.098 95.86V100H255.994ZM264.601 100.12C264.201 100.12 263.847 100.05 263.539 99.91C263.231 99.766 262.989 99.56 262.813 99.292C262.641 99.024 262.555 98.7 262.555 98.32C262.555 97.632 262.795 97.12 263.275 96.784C263.755 96.448 264.525 96.268 265.585 96.244L266.695 96.214V95.728C266.695 95.348 266.581 95.048 266.353 94.828C266.125 94.604 265.771 94.492 265.291 94.492C264.935 94.496 264.621 94.58 264.349 94.744C264.081 94.908 263.907 95.176 263.827 95.548H262.849C262.873 95.144 262.987 94.804 263.191 94.528C263.395 94.248 263.679 94.036 264.043 93.892C264.411 93.748 264.845 93.676 265.345 93.676C265.885 93.676 266.333 93.752 266.689 93.904C267.049 94.056 267.317 94.28 267.493 94.576C267.673 94.872 267.763 95.236 267.763 95.668V100H266.815L266.737 98.836C266.497 99.32 266.191 99.656 265.819 99.844C265.451 100.028 265.045 100.12 264.601 100.12ZM264.937 99.322C265.145 99.322 265.351 99.284 265.555 99.208C265.763 99.132 265.953 99.03 266.125 98.902C266.297 98.77 266.433 98.624 266.533 98.464C266.637 98.3 266.691 98.132 266.695 97.96V96.898L265.771 96.916C265.299 96.924 264.903 96.972 264.583 97.06C264.267 97.148 264.029 97.286 263.869 97.474C263.713 97.662 263.635 97.908 263.635 98.212C263.635 98.56 263.755 98.832 263.995 99.028C264.239 99.224 264.553 99.322 264.937 99.322ZM272.517 94.606H271.119V98.464C271.119 98.684 271.141 98.846 271.185 98.95C271.233 99.05 271.311 99.114 271.419 99.142C271.531 99.17 271.683 99.184 271.875 99.184H272.553V99.928C272.477 99.956 272.361 99.98 272.205 100C272.053 100.02 271.863 100.03 271.635 100.03C271.207 100.03 270.875 99.972 270.639 99.856C270.403 99.74 270.237 99.568 270.141 99.34C270.049 99.112 270.003 98.832 270.003 98.5V94.606H268.995V93.796H270.033L270.303 91.99H271.119V93.79H272.517V94.606ZM275.311 93.796V100H274.237V93.796H275.311ZM275.335 91.33V92.482H274.201V91.33H275.335Z" fill="#213360"/>
<defs>
<filter id="filter0_dd_4_1434" x="0" y="0" width="346" height="144" filterUnits="userSpaceOnUse" color-interpolation-filters="sRGB">
<feFlood flood-opacity="0" result="BackgroundImageFix"/>
<feColorMatrix in="SourceAlpha" type="matrix" values="0 0 0 0 0 0 0 0 0 0 0 0 0 0 0 0 0 0 127 0" result="hardAlpha"/>
<feMorphology radius="2" operator="dilate" in="SourceAlpha" result="effect1_dropShadow_4_1434"/>
<feOffset dy="4"/>
<feGaussianBlur stdDeviation="4"/>
<feComposite in2="hardAlpha" operator="out"/>
<feColorMatrix type="matrix" values="0 0 0 0 0 0 0 0 0 0.607843 0 0 0 0 0.564706 0 0 0 0.08 0"/>
<feBlend mode="normal" in2="BackgroundImageFix" result="effect1_dropShadow_4_1434"/>
<feColorMatrix in="SourceAlpha" type="matrix" values="0 0 0 0 0 0 0 0 0 0 0 0 0 0 0 0 0 0 127 0" result="hardAlpha"/>
<feMorphology radius="2" operator="dilate" in="SourceAlpha" result="effect2_dropShadow_4_1434"/>
<feOffset dy="1"/>
<feGaussianBlur stdDeviation="1"/>
<feComposite in2="hardAlpha" operator="out"/>
<feColorMatrix type="matrix" values="0 0 0 0 0.129412 0 0 0 0 0.2 0 0 0 0 0.376471 0 0 0 0.02 0"/>
<feBlend mode="normal" in2="effect1_dropShadow_4_1434" result="effect2_dropShadow_4_1434"/>
<feBlend mode="normal" in="SourceGraphic" in2="effect2_dropShadow_4_1434" result="shape"/>
</filter>
<clipPath id="clip0_4_1434">
<rect width="214.134" height="250.904" fill="white" transform="matrix(-1 0 0 1 178.134 -66)"/>
</clipPath>
</defs>
</svg>
