<svg width="49" height="40" viewBox="0 0 49 40" fill="none" xmlns="http://www.w3.org/2000/svg">
<path d="M2.36184 32.62V31.77H7.83184V32.62H5.62684V39H4.69684V32.62H2.36184ZM8.5023 39V33.83H9.3823V34.825C9.46897 34.5783 9.59064 34.375 9.7473 34.215C9.90397 34.0517 10.0823 33.93 10.2823 33.85C10.4856 33.77 10.6956 33.73 10.9123 33.73C10.989 33.73 11.064 33.735 11.1373 33.745C11.2106 33.755 11.2673 33.7717 11.3073 33.795V34.69C11.2573 34.6667 11.1923 34.6517 11.1123 34.645C11.0356 34.635 10.9706 34.63 10.9173 34.63C10.7106 34.6167 10.5173 34.63 10.3373 34.67C10.1573 34.7067 9.99897 34.7717 9.8623 34.865C9.72564 34.9583 9.6173 35.0817 9.5373 35.235C9.46064 35.385 9.4223 35.5683 9.4223 35.785V39H8.5023ZM13.6823 39.1C13.349 39.1 13.054 39.0417 12.7973 38.925C12.5406 38.805 12.339 38.6333 12.1923 38.41C12.049 38.1867 11.9773 37.9167 11.9773 37.6C11.9773 37.0267 12.1773 36.6 12.5773 36.32C12.9773 36.04 13.619 35.89 14.5023 35.87L15.4273 35.845V35.44C15.4273 35.1233 15.3323 34.8733 15.1423 34.69C14.9523 34.5033 14.6573 34.41 14.2573 34.41C13.9606 34.4133 13.699 34.4833 13.4723 34.62C13.249 34.7567 13.104 34.98 13.0373 35.29H12.2223C12.2423 34.9533 12.3373 34.67 12.5073 34.44C12.6773 34.2067 12.914 34.03 13.2173 33.91C13.524 33.79 13.8856 33.73 14.3023 33.73C14.7523 33.73 15.1256 33.7933 15.4223 33.92C15.7223 34.0467 15.9456 34.2333 16.0923 34.48C16.2423 34.7267 16.3173 35.03 16.3173 35.39V39H15.5273L15.4623 38.03C15.2623 38.4333 15.0073 38.7133 14.6973 38.87C14.3906 39.0233 14.0523 39.1 13.6823 39.1ZM13.9623 38.435C14.1356 38.435 14.3073 38.4033 14.4773 38.34C14.6506 38.2767 14.809 38.1917 14.9523 38.085C15.0956 37.975 15.209 37.8533 15.2923 37.72C15.379 37.5833 15.424 37.4433 15.4273 37.3V36.415L14.6573 36.43C14.264 36.4367 13.934 36.4767 13.6673 36.55C13.404 36.6233 13.2056 36.7383 13.0723 36.895C12.9423 37.0517 12.8773 37.2567 12.8773 37.51C12.8773 37.8 12.9773 38.0267 13.1773 38.19C13.3806 38.3533 13.6423 38.435 13.9623 38.435ZM17.8968 39V33.83H18.7918V34.58C18.8752 34.4367 18.9902 34.3017 19.1368 34.175C19.2868 34.0483 19.4668 33.9467 19.6768 33.87C19.8902 33.7933 20.1352 33.755 20.4118 33.755C20.7385 33.755 21.0385 33.82 21.3118 33.95C21.5885 34.08 21.8085 34.2833 21.9718 34.56C22.1385 34.8333 22.2218 35.1867 22.2218 35.62V39H21.2968V35.71C21.2968 35.3067 21.1902 35.0083 20.9768 34.815C20.7668 34.6183 20.4935 34.52 20.1568 34.52C19.9235 34.52 19.7052 34.5583 19.5018 34.635C19.2985 34.7083 19.1335 34.8217 19.0068 34.975C18.8802 35.125 18.8168 35.315 18.8168 35.545V39H17.8968ZM25.4154 39.1C25.0554 39.1 24.7204 39.045 24.4104 38.935C24.1038 38.8217 23.8488 38.6467 23.6454 38.41C23.4421 38.17 23.3138 37.865 23.2604 37.495H24.1004C24.1471 37.6983 24.2304 37.8683 24.3504 38.005C24.4738 38.1383 24.6271 38.24 24.8104 38.31C24.9938 38.3767 25.1938 38.41 25.4104 38.41C25.7571 38.41 26.0371 38.345 26.2504 38.215C26.4638 38.085 26.5704 37.885 26.5704 37.615C26.5704 37.425 26.5138 37.2733 26.4004 37.16C26.2904 37.0433 26.1188 36.9583 25.8854 36.905L24.8154 36.64C24.3988 36.54 24.0654 36.3833 23.8154 36.17C23.5654 35.9567 23.4404 35.6583 23.4404 35.275C23.4371 34.9717 23.5088 34.705 23.6554 34.475C23.8021 34.245 24.0221 34.0633 24.3154 33.93C24.6088 33.7967 24.9738 33.73 25.4104 33.73C25.9704 33.73 26.4221 33.8567 26.7654 34.11C27.1121 34.36 27.2921 34.7283 27.3054 35.215H26.4904C26.4571 34.9683 26.3454 34.7733 26.1554 34.63C25.9688 34.4833 25.7171 34.41 25.4004 34.41C25.0704 34.41 24.8021 34.4767 24.5954 34.61C24.3888 34.74 24.2854 34.9433 24.2854 35.22C24.2854 35.4033 24.3588 35.5483 24.5054 35.655C24.6521 35.7583 24.8688 35.845 25.1554 35.915L26.1904 36.175C26.4304 36.2383 26.6271 36.3217 26.7804 36.425C26.9371 36.5283 27.0604 36.6433 27.1504 36.77C27.2438 36.8967 27.3088 37.03 27.3454 37.17C27.3854 37.3067 27.4054 37.4383 27.4054 37.565C27.4054 37.8817 27.3254 38.155 27.1654 38.385C27.0088 38.6117 26.7821 38.7883 26.4854 38.915C26.1921 39.0383 25.8354 39.1 25.4154 39.1ZM30.1471 39.1C29.8138 39.1 29.5188 39.0417 29.2621 38.925C29.0055 38.805 28.8038 38.6333 28.6571 38.41C28.5138 38.1867 28.4421 37.9167 28.4421 37.6C28.4421 37.0267 28.6421 36.6 29.0421 36.32C29.4421 36.04 30.0838 35.89 30.9671 35.87L31.8921 35.845V35.44C31.8921 35.1233 31.7971 34.8733 31.6071 34.69C31.4171 34.5033 31.1221 34.41 30.7221 34.41C30.4255 34.4133 30.1638 34.4833 29.9371 34.62C29.7138 34.7567 29.5688 34.98 29.5021 35.29H28.6871C28.7071 34.9533 28.8021 34.67 28.9721 34.44C29.1421 34.2067 29.3788 34.03 29.6821 33.91C29.9888 33.79 30.3505 33.73 30.7671 33.73C31.2171 33.73 31.5905 33.7933 31.8871 33.92C32.1871 34.0467 32.4105 34.2333 32.5571 34.48C32.7071 34.7267 32.7821 35.03 32.7821 35.39V39H31.9921L31.9271 38.03C31.7271 38.4333 31.4721 38.7133 31.1621 38.87C30.8555 39.0233 30.5171 39.1 30.1471 39.1ZM30.4271 38.435C30.6005 38.435 30.7721 38.4033 30.9421 38.34C31.1155 38.2767 31.2738 38.1917 31.4171 38.085C31.5605 37.975 31.6738 37.8533 31.7571 37.72C31.8438 37.5833 31.8888 37.4433 31.8921 37.3V36.415L31.1221 36.43C30.7288 36.4367 30.3988 36.4767 30.1321 36.55C29.8688 36.6233 29.6705 36.7383 29.5371 36.895C29.4071 37.0517 29.3421 37.2567 29.3421 37.51C29.3421 37.8 29.4421 38.0267 29.6421 38.19C29.8455 38.3533 30.1071 38.435 30.4271 38.435ZM38.9017 39H37.9217L36.3017 36.405L35.2817 37.46V39H34.3617V31.57H35.2817V36.415L37.7117 33.83H38.7717L36.9067 35.8L38.9017 39ZM41.724 39.1C41.364 39.1 41.029 39.045 40.719 38.935C40.4124 38.8217 40.1574 38.6467 39.954 38.41C39.7507 38.17 39.6224 37.865 39.569 37.495H40.409C40.4557 37.6983 40.539 37.8683 40.659 38.005C40.7824 38.1383 40.9357 38.24 41.119 38.31C41.3024 38.3767 41.5024 38.41 41.719 38.41C42.0657 38.41 42.3457 38.345 42.559 38.215C42.7724 38.085 42.879 37.885 42.879 37.615C42.879 37.425 42.8224 37.2733 42.709 37.16C42.599 37.0433 42.4274 36.9583 42.194 36.905L41.124 36.64C40.7074 36.54 40.374 36.3833 40.124 36.17C39.874 35.9567 39.749 35.6583 39.749 35.275C39.7457 34.9717 39.8174 34.705 39.964 34.475C40.1107 34.245 40.3307 34.0633 40.624 33.93C40.9174 33.7967 41.2824 33.73 41.719 33.73C42.279 33.73 42.7307 33.8567 43.074 34.11C43.4207 34.36 43.6007 34.7283 43.614 35.215H42.799C42.7657 34.9683 42.654 34.7733 42.464 34.63C42.2774 34.4833 42.0257 34.41 41.709 34.41C41.379 34.41 41.1107 34.4767 40.904 34.61C40.6974 34.74 40.594 34.9433 40.594 35.22C40.594 35.4033 40.6674 35.5483 40.814 35.655C40.9607 35.7583 41.1774 35.845 41.464 35.915L42.499 36.175C42.739 36.2383 42.9357 36.3217 43.089 36.425C43.2457 36.5283 43.369 36.6433 43.459 36.77C43.5524 36.8967 43.6174 37.03 43.654 37.17C43.694 37.3067 43.714 37.4383 43.714 37.565C43.714 37.8817 43.634 38.155 43.474 38.385C43.3174 38.6117 43.0907 38.7883 42.794 38.915C42.5007 39.0383 42.144 39.1 41.724 39.1ZM46.0062 33.83V39H45.1112V33.83H46.0062ZM46.0262 31.775V32.735H45.0812V31.775H46.0262Z" fill="#B4B9C7"/>
<path d="M32.1932 3.8566C31.903 3.45546 31.4639 3.25 30.9995 3.25H17.9949C17.4978 3.25 17.0424 3.49264 16.754 3.93683C16.5635 4.23035 16.5 4.57671 16.5 4.92697V21.0508C16.5 21.1956 16.656 21.2994 16.7721 21.2191C17.5341 20.7006 18.2961 20.182 19.0563 19.6615C19.1325 19.6087 19.2105 19.5578 19.2867 19.505C20.0178 20.002 20.749 20.501 21.4801 21C21.5872 21.0724 21.6942 21.1467 21.8031 21.2191C21.8557 21.2543 21.9337 21.2543 21.9863 21.2191C22.7483 20.7006 23.5103 20.182 24.2705 19.6615C24.3467 19.6087 24.4247 19.5578 24.5009 19.505C25.232 20.004 25.9631 20.501 26.6943 21C26.8013 21.0724 26.9084 21.1467 27.0154 21.2191C27.068 21.2543 27.146 21.2543 27.1986 21.2191C27.9606 20.7006 28.7208 20.182 29.4828 19.6615C29.559 19.6087 29.637 19.5578 29.7132 19.505C30.4443 20.002 31.1755 20.501 31.9066 21C32.0137 21.0724 32.1207 21.1467 32.2278 21.2191C32.3003 21.268 32.3711 21.2543 32.4219 21.2093C32.4672 21.18 32.4999 21.1252 32.4999 21.0508V4.91302C32.5035 4.52947 32.4164 4.16357 32.1933 3.85635L32.1932 3.8566ZM28.8349 13.8754H20.17C19.9668 13.8754 19.8162 13.6934 19.8071 13.4802C19.7981 13.2688 19.9795 13.0868 20.17 13.0868C20.1754 13.0868 20.1791 13.0888 20.1845 13.0888C20.5347 13.079 20.8848 13.0908 21.235 13.0908H28.8367C29.0399 13.0908 29.1904 13.2708 29.1995 13.4821C29.2068 13.6954 29.0254 13.8754 28.8349 13.8754L28.8349 13.8754ZM28.8349 8.94438H28.8204C28.4703 8.96395 28.1201 8.94438 27.77 8.94438H20.1683C19.9651 8.94438 19.8145 8.76631 19.8054 8.553C19.7964 8.34167 19.9778 8.16162 20.1683 8.16162H20.1828C20.533 8.15184 20.8831 8.16162 21.2333 8.16162H28.8349C29.0381 8.16162 29.1887 8.34165 29.1978 8.553C29.2069 8.76435 29.0255 8.94438 28.8349 8.94438Z" fill="#B4B9C7"/>
</svg>
