<svg width="346" height="111" viewBox="0 0 346 111" fill="none" xmlns="http://www.w3.org/2000/svg">
<g filter="url(#filter0_dd_4_1195)">
<rect x="10" y="10" width="327" height="87" rx="8" fill="white"/>
</g>
<mask id="mask0_4_1195" style="mask-type:alpha" maskUnits="userSpaceOnUse" x="10" y="10" width="99" height="87">
<rect x="10" y="10" width="99" height="87" rx="8" fill="white"/>
</mask>
<g mask="url(#mask0_4_1195)">
<path d="M-75.1162 76.9052C-75.1162 76.9052 -86.5466 10.7939 -28.7654 12.6768C7.2884 13.8505 12.1181 -10.578 60.4111 2.59289C109.865 16.0804 79.1912 58.1023 83.1348 70.3071C87.0783 82.5119 102.665 90.7219 90.3176 116.044L-75.116 76.9045L-75.1162 76.9052Z" fill="#EBF3FA"/>
</g>
<path d="M311.846 46.253C311.376 45.7823 310.612 45.7823 310.142 46.253C309.671 46.7237 309.671 47.4868 310.142 47.9575L315.184 53L310.142 58.0425C309.671 58.5132 309.671 59.2763 310.142 59.747C310.612 60.2177 311.376 60.2177 311.846 59.747L317.741 53.8522C318.212 53.3816 318.212 52.6184 317.741 52.1477L311.846 46.253Z" fill="#213360" stroke="#213360" stroke-width="0.2" stroke-linecap="round" stroke-linejoin="round"/>
<path d="M67.9648 20H25.2139V81.5725H67.9648V20Z" fill="white"/>
<path d="M55.6638 25.5446H36.1777V26.557H55.6638V25.5446Z" fill="#F99746"/>
<path d="M43.4022 27.8945H33.6592V28.907H43.4022V27.8945Z" fill="#F99746"/>
<path d="M58.8778 27.8945H44.5776V28.907H58.8778V27.8945Z" fill="#F99746"/>
<path d="M55.7304 50.7047H34.707V51.4757H55.7304V50.7047Z" fill="#AEC3FF"/>
<path d="M60.68 48.6475H45.7935V49.4184H60.68V48.6475Z" fill="#AEC3FF"/>
<path d="M44.2595 48.6475H29.7578V49.4184H44.2595V48.6475Z" fill="#AEC3FF"/>
<path d="M59.2223 46.5903H46.4155V47.3613H59.2223V46.5903Z" fill="#AEC3FF"/>
<path d="M44.0226 46.5903H31.2158V47.3613H44.0226V46.5903Z" fill="#AEC3FF"/>
<path d="M48.6502 58.3084H42.4682C42.1878 58.3084 41.958 58.0784 41.958 57.7978C41.958 57.5172 42.1878 57.2872 42.4682 57.2872H48.6502C48.9305 57.2872 49.1603 57.5172 49.1603 57.7978C49.1597 58.0791 48.9305 58.3084 48.6502 58.3084Z" fill="#A8C3F7"/>
<path d="M57.2732 58.3086H51.0912C50.8109 58.3086 50.5811 58.0786 50.5811 57.798C50.5811 57.5174 50.8109 57.2874 51.0912 57.2874H57.2732C57.5535 57.2874 57.7833 57.5174 57.7833 57.798C57.7833 58.0792 57.5535 58.3086 57.2732 58.3086Z" fill="#A8C3F7"/>
<path d="M49.7232 71.8642C46.6521 71.8642 44.1538 69.3638 44.1538 66.29C44.1538 63.2162 46.6521 60.7158 49.7232 60.7158C52.7943 60.7158 55.2926 63.2162 55.2926 66.29C55.2919 69.3638 52.7936 71.8642 49.7232 71.8642ZM49.7232 60.9978C46.8071 60.9978 44.4348 63.3721 44.4348 66.2907C44.4348 69.2093 46.8071 71.5836 49.7232 71.5836C52.6393 71.5836 55.0115 69.2093 55.0115 66.2907C55.0115 63.3721 52.6393 60.9978 49.7232 60.9978Z" fill="#A8C3F7"/>
<path d="M49.723 70.7817C47.2484 70.7817 45.2354 68.7669 45.2354 66.2901C45.2354 63.8132 47.2484 61.7985 49.723 61.7985C52.1977 61.7985 54.2107 63.8132 54.2107 66.2901C54.2101 68.7669 52.197 70.7817 49.723 70.7817ZM49.723 62.0804C47.4034 62.0804 45.5164 63.9691 45.5164 66.2907C45.5164 68.6124 47.4034 70.5011 49.723 70.5011C52.0427 70.5011 53.9297 68.6124 53.9297 66.2907C53.9297 63.9691 52.0427 62.0804 49.723 62.0804Z" fill="#A8C3F7"/>
<path d="M49.7824 68.0526C49.1995 68.2415 48.6307 68.3406 48.1839 68.3029C47.5025 68.2462 47.1184 67.8887 47.1036 67.2965C47.0914 66.8264 47.2862 66.4149 47.6683 66.0817C47.6649 66.0493 47.6616 66.0176 47.6589 65.9852C47.6339 65.654 47.7047 65.4335 47.8691 65.3309C48.1353 65.165 48.5309 65.3923 48.5471 65.4018L48.4588 65.5529C48.3705 65.5009 48.107 65.3876 47.9615 65.4793C47.8361 65.5583 47.8206 65.7748 47.8321 65.9508C48.1427 65.7255 48.5491 65.5421 49.0438 65.4078C49.4097 65.3087 49.8175 65.2426 50.1854 65.2129C50.1874 65.1718 50.1908 65.1347 50.1955 65.1043C50.2077 65.0227 50.236 64.9276 50.3155 64.9087C50.3458 64.9019 50.4044 64.9026 50.457 64.9822C50.4907 65.0335 50.5076 65.107 50.5109 65.1954C50.6376 65.1927 50.7556 65.1947 50.86 65.2021C50.8607 65.2001 50.862 65.1974 50.8627 65.1954C50.8371 64.9876 50.8553 64.7434 50.8897 64.5849C50.9342 64.3819 51.0069 64.2794 51.1087 64.2692C51.17 64.2639 51.2233 64.2969 51.2475 64.3549C51.3048 64.4925 51.1977 64.8642 51.0427 65.2203C51.0427 65.221 51.0427 65.2217 51.0433 65.2223C51.1882 65.2466 51.2873 65.2871 51.3183 65.3431C51.3419 65.3856 51.3446 65.4503 51.2832 65.5077C51.166 65.6156 51.0723 65.5886 51.0272 65.563C50.9887 65.5407 50.9577 65.5036 50.9335 65.4557C50.8162 65.6878 50.6888 65.8861 50.5884 65.9697C50.4961 66.0473 50.4152 66.0162 50.3849 65.9994C50.3694 65.9906 50.3546 65.9785 50.3404 65.9643C50.3007 66.0614 50.2555 66.1552 50.207 66.2402C50.0237 66.5619 49.8175 66.7272 49.6106 66.7177C49.5256 66.7137 49.4508 66.68 49.3875 66.6186C49.2729 66.8668 49.1287 67.1029 48.9858 67.2796C48.8403 67.459 48.6549 67.5252 48.4629 67.4651C48.1232 67.3592 47.8159 66.8675 47.7013 66.2847C47.4109 66.5687 47.27 66.9053 47.2795 67.2911C47.2923 67.7963 47.6023 68.0776 48.1994 68.1275C49.7076 68.253 52.3521 66.85 52.5522 65.8173C52.3878 66.6577 51.133 67.6142 49.7824 68.0526ZM47.853 66.1512C47.9446 66.7656 48.2519 67.2176 48.5134 67.2992C48.6361 67.3376 48.7486 67.2938 48.8484 67.1704C49.0182 66.9606 49.1651 66.7016 49.2702 66.4493C49.2399 66.3839 49.2156 66.3076 49.1974 66.2206C49.155 66.0183 49.1482 65.7397 49.1981 65.5495C48.9164 65.619 48.634 65.7134 48.3726 65.8368C48.1717 65.9313 47.9985 66.0365 47.853 66.1512ZM49.463 66.4385C49.5007 66.4958 49.5506 66.5404 49.6173 66.5437C49.7501 66.5491 49.9091 66.4081 50.054 66.1545C50.1295 66.0223 50.1895 65.8813 50.2346 65.7464C50.2056 65.6365 50.1901 65.5083 50.1854 65.3903C49.9913 65.4058 49.7797 65.4321 49.562 65.4719C49.6753 65.6925 49.6092 66.0662 49.463 66.4385ZM50.4166 65.7491C50.4442 65.8314 50.4685 65.8476 50.4685 65.8476C50.5662 65.7633 50.6781 65.5812 50.7798 65.3734C50.6969 65.3701 50.6033 65.3701 50.5008 65.3728C50.4873 65.4901 50.4577 65.619 50.4166 65.7491ZM49.3895 65.5239C49.345 65.6169 49.3127 65.9144 49.3673 66.1788C49.4549 65.8888 49.4731 65.6378 49.3895 65.5239ZM51.1127 65.4119C51.1134 65.4126 51.1134 65.4119 51.1134 65.4119C51.1134 65.4126 51.1134 65.4126 51.1127 65.4119ZM51.0871 64.5128C51.0716 64.5579 51.0568 64.6213 51.0454 64.6962C51.0662 64.6247 51.0804 64.5613 51.0871 64.5128Z" fill="#A8C3F7"/>
<path d="M56.9559 41.3391H33.4814V42.1101H56.9559V41.3391Z" fill="#92C3D1"/>
<path d="M62.4824 39.2819H45.8599V40.0528H62.4824V39.2819Z" fill="#92C3D1"/>
<path d="M44.1472 39.2819H27.9546V40.0528H44.1472V39.2819Z" fill="#92C3D1"/>
<path d="M60.8554 37.2246H46.5552V37.9956H60.8554V37.2246Z" fill="#92C3D1"/>
<path d="M43.8827 37.2246H29.5825V37.9956H43.8827V37.2246Z" fill="#92C3D1"/>
<path d="M69.2529 84.1035C69.2529 84.7171 69.002 85.2737 68.5977 85.6784C68.1934 86.083 67.6365 86.3341 67.0234 86.3341H56.4984C55.2731 86.3341 54.2705 85.3299 54.2705 84.1035C54.2705 83.4899 54.5213 82.9332 54.9249 82.5286C55.3292 82.1247 55.8861 81.8737 56.4984 81.8737H67.0234C68.2495 81.8729 69.2529 82.8771 69.2529 84.1035Z" fill="#2B478B"/>
<path d="M63.8233 84.1035C63.8233 84.7171 63.5725 85.2737 63.169 85.6784C62.7647 86.083 62.2077 86.3341 61.5946 86.3341H56.4984C55.2731 86.3341 54.2705 85.3299 54.2705 84.1035C54.2705 83.4899 54.5213 82.9332 54.9249 82.5286C55.3292 82.1247 55.8861 81.8737 56.4984 81.8737H61.5946C62.8208 81.8729 63.8233 82.8771 63.8233 84.1035Z" fill="#699FF0"/>
<path opacity="0.4" d="M67.2013 83.0711H57.1617C56.988 83.0711 56.8462 82.9292 56.8462 82.7553V82.6843C56.8462 82.5104 56.9887 82.3685 57.1617 82.3685H67.2013C67.375 82.3685 67.5168 82.5104 67.5168 82.6843V82.7553C67.5176 82.9292 67.3758 83.0711 67.2013 83.0711Z" fill="#E9F3FE"/>
<path d="M60.2713 77.785C60.5626 78.3667 60.5891 79.0138 60.3983 79.5892C60.2074 80.1646 59.7984 80.6675 59.2173 80.9591L49.2407 85.963C48.0792 86.5454 46.6521 86.0706 46.0702 84.9081C45.7789 84.3265 45.7524 83.6794 45.9432 83.104C46.1349 82.5293 46.5431 82.0265 47.1242 81.7349L57.1 76.7309C58.2623 76.1477 59.6894 76.6225 60.2713 77.785Z" fill="#EF7E29"/>
<path d="M55.125 80.3657C55.4163 80.9473 55.4428 81.5945 55.2527 82.1699C55.0619 82.7452 54.6529 83.2481 54.0718 83.5397L49.2412 85.9629C48.0797 86.5453 46.6526 86.0705 46.0707 84.908C45.7793 84.3264 45.7529 83.6793 45.9437 83.1039C46.1353 82.5293 46.5435 82.0264 47.1247 81.7348L51.9552 79.3124C53.1159 78.7292 54.5431 79.2032 55.125 80.3657Z" fill="#F99746"/>
<path opacity="0.5" d="M57.8377 77.7819L48.3216 82.555C48.1572 82.6377 47.9546 82.5706 47.8721 82.4053L47.8386 82.3375C47.756 82.173 47.823 81.9703 47.9881 81.8876L57.5043 77.1145C57.6687 77.0318 57.8712 77.0989 57.9538 77.2642L57.9873 77.332C58.0699 77.4965 58.0029 77.6992 57.8377 77.7819Z" fill="#FFE2CC"/>
<path d="M116.608 44.916C116.608 45.592 116.496 46.17 116.272 46.65C116.048 47.126 115.696 47.49 115.216 47.742C114.74 47.994 114.118 48.12 113.35 48.12C112.574 48.12 111.946 47.992 111.466 47.736C110.99 47.48 110.642 47.106 110.422 46.614C110.206 46.122 110.098 45.522 110.098 44.814V39.324H111.424V44.976C111.424 45.664 111.592 46.176 111.928 46.512C112.268 46.844 112.742 47.01 113.35 47.01C113.754 47.01 114.102 46.938 114.394 46.794C114.69 46.646 114.916 46.422 115.072 46.122C115.228 45.818 115.306 45.436 115.306 44.976V39.324H116.608V44.916ZM118.354 48V41.796H119.608V42.69C119.708 42.522 119.842 42.364 120.01 42.216C120.182 42.068 120.392 41.948 120.64 41.856C120.892 41.764 121.182 41.718 121.51 41.718C121.898 41.718 122.256 41.796 122.584 41.952C122.916 42.104 123.182 42.344 123.382 42.672C123.582 42.996 123.682 43.416 123.682 43.932V48H122.398V44.07C122.398 43.626 122.278 43.296 122.038 43.08C121.802 42.864 121.496 42.756 121.12 42.756C120.868 42.756 120.628 42.798 120.4 42.882C120.172 42.966 119.988 43.094 119.848 43.266C119.708 43.434 119.638 43.646 119.638 43.902V48H118.354ZM128.015 50.052C127.007 50.052 126.227 49.91 125.675 49.626C125.123 49.346 124.847 48.954 124.847 48.45C124.847 48.23 124.899 48.044 125.003 47.892C125.111 47.736 125.237 47.608 125.381 47.508C125.529 47.408 125.665 47.33 125.789 47.274C125.913 47.214 125.993 47.172 126.029 47.148C125.961 47.108 125.873 47.058 125.765 46.998C125.661 46.934 125.567 46.85 125.483 46.746C125.399 46.638 125.357 46.498 125.357 46.326C125.357 46.126 125.451 45.942 125.639 45.774C125.831 45.602 126.117 45.476 126.497 45.396C126.121 45.212 125.829 44.964 125.621 44.652C125.417 44.34 125.315 44.008 125.315 43.656C125.315 43.252 125.429 42.904 125.657 42.612C125.885 42.316 126.205 42.09 126.617 41.934C127.033 41.778 127.521 41.7 128.081 41.7C128.489 41.7 128.831 41.746 129.107 41.838C129.383 41.93 129.637 42.058 129.869 42.222C129.945 42.194 130.053 42.152 130.193 42.096C130.333 42.036 130.487 41.972 130.655 41.904C130.827 41.836 130.989 41.77 131.141 41.706C131.297 41.642 131.423 41.59 131.519 41.55L131.513 42.666L130.433 42.864C130.489 42.984 130.533 43.116 130.565 43.26C130.601 43.404 130.619 43.536 130.619 43.656C130.619 44.016 130.521 44.348 130.325 44.652C130.129 44.952 129.835 45.192 129.443 45.372C129.051 45.552 128.561 45.642 127.973 45.642C127.917 45.642 127.845 45.642 127.757 45.642C127.669 45.638 127.595 45.632 127.535 45.624C127.163 45.636 126.907 45.68 126.767 45.756C126.627 45.828 126.557 45.908 126.557 45.996C126.557 46.108 126.647 46.184 126.827 46.224C127.007 46.264 127.303 46.298 127.715 46.326C127.863 46.338 128.051 46.35 128.279 46.362C128.511 46.374 128.767 46.39 129.047 46.41C129.727 46.45 130.245 46.62 130.601 46.92C130.961 47.22 131.141 47.618 131.141 48.114C131.141 48.682 130.883 49.146 130.367 49.506C129.851 49.87 129.067 50.052 128.015 50.052ZM128.237 49.266C128.785 49.266 129.197 49.186 129.473 49.026C129.753 48.87 129.893 48.636 129.893 48.324C129.893 48.092 129.803 47.902 129.623 47.754C129.443 47.606 129.175 47.52 128.819 47.496L127.163 47.388C126.999 47.38 126.835 47.416 126.671 47.496C126.511 47.576 126.377 47.688 126.269 47.832C126.165 47.972 126.113 48.128 126.113 48.3C126.113 48.612 126.285 48.85 126.629 49.014C126.977 49.182 127.513 49.266 128.237 49.266ZM128.009 44.856C128.425 44.856 128.759 44.756 129.011 44.556C129.267 44.352 129.395 44.06 129.395 43.68C129.395 43.288 129.267 42.986 129.011 42.774C128.759 42.558 128.425 42.45 128.009 42.45C127.589 42.45 127.249 42.558 126.989 42.774C126.733 42.99 126.605 43.292 126.605 43.68C126.605 44.048 126.727 44.336 126.971 44.544C127.219 44.752 127.565 44.856 128.009 44.856ZM135.421 50.052C134.413 50.052 133.633 49.91 133.081 49.626C132.529 49.346 132.253 48.954 132.253 48.45C132.253 48.23 132.305 48.044 132.409 47.892C132.517 47.736 132.643 47.608 132.787 47.508C132.935 47.408 133.071 47.33 133.195 47.274C133.319 47.214 133.399 47.172 133.435 47.148C133.367 47.108 133.279 47.058 133.171 46.998C133.067 46.934 132.973 46.85 132.889 46.746C132.805 46.638 132.763 46.498 132.763 46.326C132.763 46.126 132.857 45.942 133.045 45.774C133.237 45.602 133.523 45.476 133.903 45.396C133.527 45.212 133.235 44.964 133.027 44.652C132.823 44.34 132.721 44.008 132.721 43.656C132.721 43.252 132.835 42.904 133.063 42.612C133.291 42.316 133.611 42.09 134.023 41.934C134.439 41.778 134.927 41.7 135.487 41.7C135.895 41.7 136.237 41.746 136.513 41.838C136.789 41.93 137.043 42.058 137.275 42.222C137.351 42.194 137.459 42.152 137.599 42.096C137.739 42.036 137.893 41.972 138.061 41.904C138.233 41.836 138.395 41.77 138.547 41.706C138.703 41.642 138.829 41.59 138.925 41.55L138.919 42.666L137.839 42.864C137.895 42.984 137.939 43.116 137.971 43.26C138.007 43.404 138.025 43.536 138.025 43.656C138.025 44.016 137.927 44.348 137.731 44.652C137.535 44.952 137.241 45.192 136.849 45.372C136.457 45.552 135.967 45.642 135.379 45.642C135.323 45.642 135.251 45.642 135.163 45.642C135.075 45.638 135.001 45.632 134.941 45.624C134.569 45.636 134.313 45.68 134.173 45.756C134.033 45.828 133.963 45.908 133.963 45.996C133.963 46.108 134.053 46.184 134.233 46.224C134.413 46.264 134.709 46.298 135.121 46.326C135.269 46.338 135.457 46.35 135.685 46.362C135.917 46.374 136.173 46.39 136.453 46.41C137.133 46.45 137.651 46.62 138.007 46.92C138.367 47.22 138.547 47.618 138.547 48.114C138.547 48.682 138.289 49.146 137.773 49.506C137.257 49.87 136.473 50.052 135.421 50.052ZM135.643 49.266C136.191 49.266 136.603 49.186 136.879 49.026C137.159 48.87 137.299 48.636 137.299 48.324C137.299 48.092 137.209 47.902 137.029 47.754C136.849 47.606 136.581 47.52 136.225 47.496L134.569 47.388C134.405 47.38 134.241 47.416 134.077 47.496C133.917 47.576 133.783 47.688 133.675 47.832C133.571 47.972 133.519 48.128 133.519 48.3C133.519 48.612 133.691 48.85 134.035 49.014C134.383 49.182 134.919 49.266 135.643 49.266ZM135.415 44.856C135.831 44.856 136.165 44.756 136.417 44.556C136.673 44.352 136.801 44.06 136.801 43.68C136.801 43.288 136.673 42.986 136.417 42.774C136.165 42.558 135.831 42.45 135.415 42.45C134.995 42.45 134.655 42.558 134.395 42.774C134.139 42.99 134.011 43.292 134.011 43.68C134.011 44.048 134.133 44.336 134.377 44.544C134.625 44.752 134.971 44.856 135.415 44.856ZM141.774 48.12C141.374 48.12 141.018 48.048 140.706 47.904C140.398 47.76 140.156 47.552 139.98 47.28C139.804 47.008 139.716 46.68 139.716 46.296C139.716 45.608 139.96 45.094 140.448 44.754C140.936 44.414 141.714 44.234 142.782 44.214L143.802 44.184V43.734C143.802 43.378 143.696 43.098 143.484 42.894C143.272 42.69 142.946 42.59 142.506 42.594C142.174 42.594 141.878 42.67 141.618 42.822C141.362 42.974 141.194 43.224 141.114 43.572H139.998C140.022 43.16 140.14 42.814 140.352 42.534C140.568 42.25 140.864 42.036 141.24 41.892C141.616 41.748 142.058 41.676 142.566 41.676C143.13 41.676 143.594 41.754 143.958 41.91C144.322 42.062 144.592 42.286 144.768 42.582C144.948 42.878 145.038 43.238 145.038 43.662V48H143.952L143.85 46.86C143.618 47.336 143.324 47.666 142.968 47.85C142.616 48.03 142.218 48.12 141.774 48.12ZM142.176 47.226C142.372 47.226 142.566 47.192 142.758 47.124C142.95 47.052 143.124 46.956 143.28 46.836C143.436 46.712 143.56 46.574 143.652 46.422C143.748 46.27 143.798 46.114 143.802 45.954V44.928L142.962 44.946C142.534 44.95 142.17 44.994 141.87 45.078C141.574 45.162 141.346 45.292 141.186 45.468C141.03 45.644 140.952 45.878 140.952 46.17C140.952 46.502 141.068 46.762 141.3 46.95C141.532 47.134 141.824 47.226 142.176 47.226ZM146.843 48V39.084H148.109V42.702C148.209 42.538 148.343 42.382 148.511 42.234C148.683 42.086 148.891 41.966 149.135 41.874C149.383 41.778 149.671 41.73 149.999 41.73C150.403 41.73 150.767 41.806 151.091 41.958C151.419 42.106 151.679 42.322 151.871 42.606C152.067 42.886 152.165 43.22 152.165 43.608V48H150.881V43.842C150.881 43.494 150.761 43.226 150.521 43.038C150.281 42.85 149.973 42.756 149.597 42.756C149.345 42.756 149.105 42.8 148.877 42.888C148.653 42.972 148.471 43.1 148.331 43.272C148.195 43.44 148.127 43.652 148.127 43.908V48H146.843ZM156.522 48V41.796H157.752V43.068C157.856 42.764 158 42.51 158.184 42.306C158.372 42.098 158.59 41.942 158.838 41.838C159.086 41.73 159.348 41.676 159.624 41.676C159.708 41.676 159.788 41.682 159.864 41.694C159.94 41.702 160 41.718 160.044 41.742V42.978C159.992 42.954 159.924 42.938 159.84 42.93C159.76 42.922 159.69 42.916 159.63 42.912C159.358 42.892 159.11 42.906 158.886 42.954C158.662 43.002 158.468 43.082 158.304 43.194C158.144 43.306 158.02 43.452 157.932 43.632C157.848 43.812 157.806 44.024 157.806 44.268V48H156.522ZM162.1 45.198C162.1 45.57 162.16 45.904 162.28 46.2C162.404 46.492 162.59 46.724 162.838 46.896C163.086 47.064 163.394 47.148 163.762 47.148C164.13 47.148 164.448 47.064 164.716 46.896C164.988 46.728 165.166 46.478 165.25 46.146H166.438C166.366 46.57 166.196 46.93 165.928 47.226C165.664 47.522 165.344 47.746 164.968 47.898C164.592 48.046 164.198 48.12 163.786 48.12C163.198 48.12 162.68 47.994 162.232 47.742C161.784 47.486 161.434 47.122 161.182 46.65C160.934 46.178 160.81 45.616 160.81 44.964C160.81 44.32 160.924 43.752 161.152 43.26C161.38 42.764 161.71 42.376 162.142 42.096C162.574 41.816 163.094 41.676 163.702 41.676C164.302 41.676 164.806 41.804 165.214 42.06C165.626 42.316 165.938 42.676 166.15 43.14C166.362 43.6 166.468 44.144 166.468 44.772V45.198H162.1ZM162.1 44.364H165.244C165.244 44.04 165.188 43.746 165.076 43.482C164.964 43.214 164.792 43.004 164.56 42.852C164.332 42.696 164.044 42.618 163.696 42.618C163.34 42.618 163.044 42.704 162.808 42.876C162.572 43.048 162.394 43.268 162.274 43.536C162.158 43.804 162.1 44.08 162.1 44.364ZM170.14 48.12C169.708 48.12 169.302 48.052 168.922 47.916C168.546 47.78 168.23 47.566 167.974 47.274C167.722 46.982 167.564 46.608 167.5 46.152H168.646C168.698 46.388 168.796 46.584 168.94 46.74C169.088 46.892 169.264 47.006 169.468 47.082C169.676 47.154 169.898 47.19 170.134 47.19C170.526 47.19 170.842 47.12 171.082 46.98C171.326 46.836 171.448 46.616 171.448 46.32C171.448 46.108 171.382 45.938 171.25 45.81C171.122 45.682 170.918 45.588 170.638 45.528L169.402 45.234C168.89 45.114 168.48 44.924 168.172 44.664C167.864 44.4 167.708 44.032 167.704 43.56C167.704 43.196 167.794 42.872 167.974 42.588C168.158 42.304 168.43 42.082 168.79 41.922C169.15 41.758 169.598 41.676 170.134 41.676C170.834 41.676 171.396 41.832 171.82 42.144C172.244 42.456 172.464 42.908 172.48 43.5H171.37C171.33 43.216 171.2 42.994 170.98 42.834C170.764 42.67 170.478 42.588 170.122 42.588C169.754 42.588 169.452 42.662 169.216 42.81C168.98 42.954 168.862 43.176 168.862 43.476C168.862 43.68 168.948 43.842 169.12 43.962C169.292 44.078 169.55 44.174 169.894 44.25L171.07 44.544C171.374 44.624 171.624 44.73 171.82 44.862C172.016 44.99 172.17 45.132 172.282 45.288C172.394 45.444 172.472 45.606 172.516 45.774C172.564 45.942 172.588 46.1 172.588 46.248C172.588 46.64 172.488 46.976 172.288 47.256C172.092 47.532 171.81 47.746 171.442 47.898C171.078 48.046 170.644 48.12 170.14 48.12ZM175.014 45.198C175.014 45.57 175.074 45.904 175.194 46.2C175.318 46.492 175.504 46.724 175.752 46.896C176 47.064 176.308 47.148 176.676 47.148C177.044 47.148 177.362 47.064 177.63 46.896C177.902 46.728 178.08 46.478 178.164 46.146H179.352C179.28 46.57 179.11 46.93 178.842 47.226C178.578 47.522 178.258 47.746 177.882 47.898C177.506 48.046 177.112 48.12 176.7 48.12C176.112 48.12 175.594 47.994 175.146 47.742C174.698 47.486 174.348 47.122 174.096 46.65C173.848 46.178 173.724 45.616 173.724 44.964C173.724 44.32 173.838 43.752 174.066 43.26C174.294 42.764 174.624 42.376 175.056 42.096C175.488 41.816 176.008 41.676 176.616 41.676C177.216 41.676 177.72 41.804 178.128 42.06C178.54 42.316 178.852 42.676 179.064 43.14C179.276 43.6 179.382 44.144 179.382 44.772V45.198H175.014ZM175.014 44.364H178.158C178.158 44.04 178.102 43.746 177.99 43.482C177.878 43.214 177.706 43.004 177.474 42.852C177.246 42.696 176.958 42.618 176.61 42.618C176.254 42.618 175.958 42.704 175.722 42.876C175.486 43.048 175.308 43.268 175.188 43.536C175.072 43.804 175.014 44.08 175.014 44.364ZM180.815 49.932V41.796H182.099L182.111 42.828C182.187 42.692 182.285 42.558 182.405 42.426C182.525 42.29 182.667 42.166 182.831 42.054C182.999 41.938 183.189 41.846 183.401 41.778C183.617 41.71 183.855 41.676 184.115 41.676C184.603 41.676 185.033 41.79 185.405 42.018C185.781 42.242 186.073 42.588 186.281 43.056C186.493 43.52 186.599 44.11 186.599 44.826C186.599 45.546 186.493 46.15 186.281 46.638C186.073 47.126 185.775 47.496 185.387 47.748C184.999 47.996 184.539 48.12 184.007 48.12C183.751 48.12 183.521 48.084 183.317 48.012C183.113 47.94 182.933 47.846 182.777 47.73C182.621 47.61 182.487 47.482 182.375 47.346C182.267 47.206 182.177 47.068 182.105 46.932V49.932H180.815ZM183.737 47.142C184.213 47.142 184.603 46.958 184.907 46.59C185.215 46.218 185.369 45.638 185.369 44.85C185.369 44.174 185.227 43.64 184.943 43.248C184.663 42.852 184.261 42.654 183.737 42.654C183.197 42.654 182.789 42.86 182.513 43.272C182.237 43.68 182.099 44.206 182.099 44.85C182.099 45.27 182.159 45.654 182.279 46.002C182.403 46.346 182.587 46.622 182.831 46.83C183.075 47.038 183.377 47.142 183.737 47.142ZM192.745 48.12C191.929 48.12 191.287 47.842 190.819 47.286C190.351 46.726 190.117 45.92 190.117 44.868C190.117 44.224 190.211 43.664 190.399 43.188C190.587 42.708 190.867 42.336 191.239 42.072C191.615 41.808 192.079 41.676 192.631 41.676C192.911 41.676 193.159 41.71 193.375 41.778C193.595 41.846 193.787 41.934 193.951 42.042C194.119 42.15 194.257 42.266 194.365 42.39C194.477 42.514 194.563 42.63 194.623 42.738V39.084H195.913V48H194.953L194.809 46.728C194.765 46.864 194.697 47.012 194.605 47.172C194.513 47.332 194.387 47.484 194.227 47.628C194.071 47.772 193.871 47.89 193.627 47.982C193.383 48.074 193.089 48.12 192.745 48.12ZM192.991 47.154C193.567 47.154 193.983 46.974 194.239 46.614C194.495 46.25 194.623 45.654 194.623 44.826C194.619 44.358 194.561 43.962 194.449 43.638C194.337 43.314 194.163 43.07 193.927 42.906C193.695 42.738 193.389 42.654 193.009 42.654C192.533 42.654 192.145 42.826 191.845 43.17C191.545 43.51 191.395 44.062 191.395 44.826C191.395 45.578 191.531 46.154 191.803 46.554C192.079 46.954 192.475 47.154 192.991 47.154ZM200.175 48.12C199.595 48.12 199.087 47.996 198.651 47.748C198.219 47.496 197.883 47.132 197.643 46.656C197.407 46.18 197.289 45.604 197.289 44.928C197.289 44.276 197.401 43.706 197.625 43.218C197.853 42.73 198.183 42.352 198.615 42.084C199.047 41.812 199.569 41.676 200.181 41.676C200.765 41.676 201.271 41.804 201.699 42.06C202.127 42.312 202.459 42.682 202.695 43.17C202.931 43.654 203.049 44.24 203.049 44.928C203.049 45.556 202.937 46.11 202.713 46.59C202.493 47.07 202.169 47.446 201.741 47.718C201.317 47.986 200.795 48.12 200.175 48.12ZM200.181 47.13C200.533 47.13 200.827 47.038 201.063 46.854C201.303 46.666 201.483 46.404 201.603 46.068C201.723 45.728 201.783 45.336 201.783 44.892C201.783 44.48 201.729 44.106 201.621 43.77C201.517 43.43 201.347 43.16 201.111 42.96C200.875 42.76 200.565 42.66 200.181 42.66C199.821 42.66 199.521 42.752 199.281 42.936C199.041 43.116 198.859 43.374 198.735 43.71C198.615 44.042 198.555 44.436 198.555 44.892C198.555 45.296 198.609 45.668 198.717 46.008C198.825 46.348 198.999 46.62 199.239 46.824C199.479 47.028 199.793 47.13 200.181 47.13ZM210.027 48H208.695L206.829 45.006L205.713 46.164V48H204.429V39.084H205.713V44.754L208.455 41.796H209.895L207.651 44.19L210.027 48ZM214.504 42.72H213.112L213.118 46.422C213.118 46.626 213.138 46.776 213.178 46.872C213.222 46.964 213.294 47.024 213.394 47.052C213.498 47.076 213.638 47.088 213.814 47.088H214.54V47.922C214.46 47.954 214.34 47.982 214.18 48.006C214.024 48.03 213.822 48.042 213.574 48.042C213.114 48.042 212.756 47.98 212.5 47.856C212.248 47.732 212.072 47.554 211.972 47.322C211.876 47.086 211.828 46.802 211.828 46.47V42.72H210.82V41.796H211.864L212.182 39.972H213.112V41.79H214.504V42.72ZM216.826 45.198C216.826 45.57 216.886 45.904 217.006 46.2C217.13 46.492 217.316 46.724 217.564 46.896C217.812 47.064 218.12 47.148 218.488 47.148C218.856 47.148 219.174 47.064 219.442 46.896C219.714 46.728 219.892 46.478 219.976 46.146H221.164C221.092 46.57 220.922 46.93 220.654 47.226C220.39 47.522 220.07 47.746 219.694 47.898C219.318 48.046 218.924 48.12 218.512 48.12C217.924 48.12 217.406 47.994 216.958 47.742C216.51 47.486 216.16 47.122 215.908 46.65C215.66 46.178 215.536 45.616 215.536 44.964C215.536 44.32 215.65 43.752 215.878 43.26C216.106 42.764 216.436 42.376 216.868 42.096C217.3 41.816 217.82 41.676 218.428 41.676C219.028 41.676 219.532 41.804 219.94 42.06C220.352 42.316 220.664 42.676 220.876 43.14C221.088 43.6 221.194 44.144 221.194 44.772V45.198H216.826ZM216.826 44.364H219.97C219.97 44.04 219.914 43.746 219.802 43.482C219.69 43.214 219.518 43.004 219.286 42.852C219.058 42.696 218.77 42.618 218.422 42.618C218.066 42.618 217.77 42.704 217.534 42.876C217.298 43.048 217.12 43.268 217 43.536C216.884 43.804 216.826 44.08 216.826 44.364ZM222.628 48V41.796H223.858V43.068C223.962 42.764 224.106 42.51 224.29 42.306C224.478 42.098 224.696 41.942 224.944 41.838C225.192 41.73 225.454 41.676 225.73 41.676C225.814 41.676 225.894 41.682 225.97 41.694C226.046 41.702 226.106 41.718 226.15 41.742V42.978C226.098 42.954 226.03 42.938 225.946 42.93C225.866 42.922 225.796 42.916 225.736 42.912C225.464 42.892 225.216 42.906 224.992 42.954C224.768 43.002 224.574 43.082 224.41 43.194C224.25 43.306 224.126 43.452 224.038 43.632C223.954 43.812 223.912 44.024 223.912 44.268V48H222.628ZM227.339 48V41.796H228.587V42.69C228.763 42.418 229.003 42.182 229.307 41.982C229.611 41.778 230.003 41.676 230.483 41.676C230.707 41.676 230.933 41.714 231.161 41.79C231.393 41.866 231.605 41.98 231.797 42.132C231.993 42.28 232.147 42.464 232.259 42.684C232.455 42.388 232.717 42.146 233.045 41.958C233.373 41.77 233.741 41.676 234.149 41.676C234.369 41.676 234.597 41.712 234.833 41.784C235.069 41.852 235.287 41.97 235.487 42.138C235.691 42.302 235.855 42.53 235.979 42.822C236.107 43.114 236.171 43.484 236.171 43.932V48H234.881V44.07C234.881 43.73 234.823 43.464 234.707 43.272C234.595 43.08 234.447 42.946 234.263 42.87C234.083 42.79 233.891 42.75 233.687 42.75C233.503 42.75 233.311 42.786 233.111 42.858C232.911 42.93 232.741 43.05 232.601 43.218C232.461 43.386 232.391 43.614 232.391 43.902V48H231.107V43.794C231.107 43.566 231.045 43.374 230.921 43.218C230.801 43.062 230.649 42.946 230.465 42.87C230.285 42.79 230.105 42.75 229.925 42.75C229.725 42.75 229.525 42.79 229.325 42.87C229.125 42.95 228.957 43.076 228.821 43.248C228.689 43.416 228.623 43.634 228.623 43.902V48H227.339ZM240.002 48.12C239.69 48.116 239.392 48.07 239.108 47.982C238.824 47.894 238.57 47.762 238.346 47.586C238.126 47.41 237.95 47.192 237.818 46.932C237.69 46.672 237.626 46.37 237.626 46.026V41.796H238.916V45.888C238.916 46.26 239.032 46.562 239.264 46.794C239.496 47.026 239.846 47.142 240.314 47.142C240.738 47.142 241.078 47.032 241.334 46.812C241.59 46.588 241.718 46.262 241.718 45.834V41.796H242.996V48H242L241.856 46.8C241.784 47.124 241.654 47.384 241.466 47.58C241.282 47.772 241.062 47.912 240.806 48C240.554 48.084 240.286 48.124 240.002 48.12ZM249.487 48.12C248.671 48.12 248.029 47.842 247.561 47.286C247.093 46.726 246.859 45.92 246.859 44.868C246.859 44.224 246.953 43.664 247.141 43.188C247.329 42.708 247.609 42.336 247.981 42.072C248.357 41.808 248.821 41.676 249.373 41.676C249.653 41.676 249.901 41.71 250.117 41.778C250.337 41.846 250.529 41.934 250.693 42.042C250.861 42.15 250.999 42.266 251.107 42.39C251.219 42.514 251.305 42.63 251.365 42.738V39.084H252.655V48H251.695L251.551 46.728C251.507 46.864 251.439 47.012 251.347 47.172C251.255 47.332 251.129 47.484 250.969 47.628C250.813 47.772 250.613 47.89 250.369 47.982C250.125 48.074 249.831 48.12 249.487 48.12ZM249.733 47.154C250.309 47.154 250.725 46.974 250.981 46.614C251.237 46.25 251.365 45.654 251.365 44.826C251.361 44.358 251.303 43.962 251.191 43.638C251.079 43.314 250.905 43.07 250.669 42.906C250.437 42.738 250.131 42.654 249.751 42.654C249.275 42.654 248.887 42.826 248.587 43.17C248.287 43.51 248.137 44.062 248.137 44.826C248.137 45.578 248.273 46.154 248.545 46.554C248.821 46.954 249.217 47.154 249.733 47.154ZM255.824 41.796V48H254.588V41.796H255.824ZM255.848 39.33V40.596H254.558V39.33H255.848ZM259.941 48.12C259.509 48.12 259.103 48.052 258.723 47.916C258.347 47.78 258.031 47.566 257.775 47.274C257.523 46.982 257.365 46.608 257.301 46.152H258.447C258.499 46.388 258.597 46.584 258.741 46.74C258.889 46.892 259.065 47.006 259.269 47.082C259.477 47.154 259.699 47.19 259.935 47.19C260.327 47.19 260.643 47.12 260.883 46.98C261.127 46.836 261.249 46.616 261.249 46.32C261.249 46.108 261.183 45.938 261.051 45.81C260.923 45.682 260.719 45.588 260.439 45.528L259.203 45.234C258.691 45.114 258.281 44.924 257.973 44.664C257.665 44.4 257.509 44.032 257.505 43.56C257.505 43.196 257.595 42.872 257.775 42.588C257.959 42.304 258.231 42.082 258.591 41.922C258.951 41.758 259.399 41.676 259.935 41.676C260.635 41.676 261.197 41.832 261.621 42.144C262.045 42.456 262.265 42.908 262.281 43.5H261.171C261.131 43.216 261.001 42.994 260.781 42.834C260.565 42.67 260.279 42.588 259.923 42.588C259.555 42.588 259.253 42.662 259.017 42.81C258.781 42.954 258.663 43.176 258.663 43.476C258.663 43.68 258.749 43.842 258.921 43.962C259.093 44.078 259.351 44.174 259.695 44.25L260.871 44.544C261.175 44.624 261.425 44.73 261.621 44.862C261.817 44.99 261.971 45.132 262.083 45.288C262.195 45.444 262.273 45.606 262.317 45.774C262.365 45.942 262.389 46.1 262.389 46.248C262.389 46.64 262.289 46.976 262.089 47.256C261.893 47.532 261.611 47.746 261.243 47.898C260.879 48.046 260.445 48.12 259.941 48.12ZM265.199 41.796V48H263.963V41.796H265.199ZM265.223 39.33V40.596H263.933V39.33H265.223ZM267.112 48V41.796H268.366V42.69C268.466 42.522 268.6 42.364 268.768 42.216C268.94 42.068 269.15 41.948 269.398 41.856C269.65 41.764 269.94 41.718 270.268 41.718C270.656 41.718 271.014 41.796 271.342 41.952C271.674 42.104 271.94 42.344 272.14 42.672C272.34 42.996 272.44 43.416 272.44 43.932V48H271.156V44.07C271.156 43.626 271.036 43.296 270.796 43.08C270.56 42.864 270.254 42.756 269.878 42.756C269.626 42.756 269.386 42.798 269.158 42.882C268.93 42.966 268.746 43.094 268.606 43.266C268.466 43.434 268.396 43.646 268.396 43.902V48H267.112ZM275.441 41.796V48H274.205V41.796H275.441ZM275.465 39.33V40.596H274.175V39.33H275.465ZM278.67 46.47V48H277.188V46.47H278.67ZM278.7 39.324L278.364 45.666H277.524L277.17 39.324H278.7ZM113.452 59.796V60.72H112V66H110.71V60.72H109.444V59.796H110.71V58.854C110.71 58.358 110.842 57.98 111.106 57.72C111.37 57.456 111.758 57.324 112.27 57.324H113.506L113.512 58.212H112.618C112.37 58.212 112.2 58.278 112.108 58.41C112.02 58.538 111.976 58.736 111.976 59.004V59.796H113.452ZM117.171 66.12C116.591 66.12 116.083 65.996 115.647 65.748C115.215 65.496 114.879 65.132 114.639 64.656C114.403 64.18 114.285 63.604 114.285 62.928C114.285 62.276 114.397 61.706 114.621 61.218C114.849 60.73 115.179 60.352 115.611 60.084C116.043 59.812 116.565 59.676 117.177 59.676C117.761 59.676 118.267 59.804 118.695 60.06C119.123 60.312 119.455 60.682 119.691 61.17C119.927 61.654 120.045 62.24 120.045 62.928C120.045 63.556 119.933 64.11 119.709 64.59C119.489 65.07 119.165 65.446 118.737 65.718C118.313 65.986 117.791 66.12 117.171 66.12ZM117.177 65.13C117.529 65.13 117.823 65.038 118.059 64.854C118.299 64.666 118.479 64.404 118.599 64.068C118.719 63.728 118.779 63.336 118.779 62.892C118.779 62.48 118.725 62.106 118.617 61.77C118.513 61.43 118.343 61.16 118.107 60.96C117.871 60.76 117.561 60.66 117.177 60.66C116.817 60.66 116.517 60.752 116.277 60.936C116.037 61.116 115.855 61.374 115.731 61.71C115.611 62.042 115.551 62.436 115.551 62.892C115.551 63.296 115.605 63.668 115.713 64.008C115.821 64.348 115.995 64.62 116.235 64.824C116.475 65.028 116.789 65.13 117.177 65.13ZM124.551 60.72H123.159L123.165 64.422C123.165 64.626 123.185 64.776 123.225 64.872C123.269 64.964 123.341 65.024 123.441 65.052C123.545 65.076 123.685 65.088 123.861 65.088H124.587V65.922C124.507 65.954 124.387 65.982 124.227 66.006C124.071 66.03 123.869 66.042 123.621 66.042C123.161 66.042 122.803 65.98 122.547 65.856C122.295 65.732 122.119 65.554 122.019 65.322C121.923 65.086 121.875 64.802 121.875 64.47V60.72H120.867V59.796H121.911L122.229 57.972H123.159V59.79H124.551V60.72ZM128.421 66.12C127.841 66.12 127.333 65.996 126.897 65.748C126.465 65.496 126.129 65.132 125.889 64.656C125.653 64.18 125.535 63.604 125.535 62.928C125.535 62.276 125.647 61.706 125.871 61.218C126.099 60.73 126.429 60.352 126.861 60.084C127.293 59.812 127.815 59.676 128.427 59.676C129.011 59.676 129.517 59.804 129.945 60.06C130.373 60.312 130.705 60.682 130.941 61.17C131.177 61.654 131.295 62.24 131.295 62.928C131.295 63.556 131.183 64.11 130.959 64.59C130.739 65.07 130.415 65.446 129.987 65.718C129.563 65.986 129.041 66.12 128.421 66.12ZM128.427 65.13C128.779 65.13 129.073 65.038 129.309 64.854C129.549 64.666 129.729 64.404 129.849 64.068C129.969 63.728 130.029 63.336 130.029 62.892C130.029 62.48 129.975 62.106 129.867 61.77C129.763 61.43 129.593 61.16 129.357 60.96C129.121 60.76 128.811 60.66 128.427 60.66C128.067 60.66 127.767 60.752 127.527 60.936C127.287 61.116 127.105 61.374 126.981 61.71C126.861 62.042 126.801 62.436 126.801 62.892C126.801 63.296 126.855 63.668 126.963 64.008C127.071 64.348 127.245 64.62 127.485 64.824C127.725 65.028 128.039 65.13 128.427 65.13ZM138.625 60.72H137.233L137.239 64.422C137.239 64.626 137.259 64.776 137.299 64.872C137.343 64.964 137.415 65.024 137.515 65.052C137.619 65.076 137.759 65.088 137.935 65.088H138.661V65.922C138.581 65.954 138.461 65.982 138.301 66.006C138.145 66.03 137.943 66.042 137.695 66.042C137.235 66.042 136.877 65.98 136.621 65.856C136.369 65.732 136.193 65.554 136.093 65.322C135.997 65.086 135.949 64.802 135.949 64.47V60.72H134.941V59.796H135.985L136.303 57.972H137.233V59.79H138.625V60.72ZM141.496 59.796V66H140.26V59.796H141.496ZM141.52 57.33V58.596H140.23V57.33H141.52ZM145.601 66.12C144.785 66.12 144.143 65.842 143.675 65.286C143.207 64.726 142.973 63.92 142.973 62.868C142.973 62.224 143.067 61.664 143.255 61.188C143.443 60.708 143.723 60.336 144.095 60.072C144.471 59.808 144.935 59.676 145.487 59.676C145.767 59.676 146.015 59.71 146.231 59.778C146.451 59.846 146.643 59.934 146.807 60.042C146.975 60.15 147.113 60.266 147.221 60.39C147.333 60.514 147.419 60.63 147.479 60.738V57.084H148.769V66H147.809L147.665 64.728C147.621 64.864 147.553 65.012 147.461 65.172C147.369 65.332 147.243 65.484 147.083 65.628C146.927 65.772 146.727 65.89 146.483 65.982C146.239 66.074 145.945 66.12 145.601 66.12ZM145.847 65.154C146.423 65.154 146.839 64.974 147.095 64.614C147.351 64.25 147.479 63.654 147.479 62.826C147.475 62.358 147.417 61.962 147.305 61.638C147.193 61.314 147.019 61.07 146.783 60.906C146.551 60.738 146.245 60.654 145.865 60.654C145.389 60.654 145.001 60.826 144.701 61.17C144.401 61.51 144.251 62.062 144.251 62.826C144.251 63.578 144.387 64.154 144.659 64.554C144.935 64.954 145.331 65.154 145.847 65.154ZM152.251 66.12C151.851 66.12 151.495 66.048 151.183 65.904C150.875 65.76 150.633 65.552 150.457 65.28C150.281 65.008 150.193 64.68 150.193 64.296C150.193 63.608 150.437 63.094 150.925 62.754C151.413 62.414 152.191 62.234 153.259 62.214L154.279 62.184V61.734C154.279 61.378 154.173 61.098 153.961 60.894C153.749 60.69 153.423 60.59 152.983 60.594C152.651 60.594 152.355 60.67 152.095 60.822C151.839 60.974 151.671 61.224 151.591 61.572H150.475C150.499 61.16 150.617 60.814 150.829 60.534C151.045 60.25 151.341 60.036 151.717 59.892C152.093 59.748 152.535 59.676 153.043 59.676C153.607 59.676 154.071 59.754 154.435 59.91C154.799 60.062 155.069 60.286 155.245 60.582C155.425 60.878 155.515 61.238 155.515 61.662V66H154.429L154.327 64.86C154.095 65.336 153.801 65.666 153.445 65.85C153.093 66.03 152.695 66.12 152.251 66.12ZM152.653 65.226C152.849 65.226 153.043 65.192 153.235 65.124C153.427 65.052 153.601 64.956 153.757 64.836C153.913 64.712 154.037 64.574 154.129 64.422C154.225 64.27 154.275 64.114 154.279 63.954V62.928L153.439 62.946C153.011 62.95 152.647 62.994 152.347 63.078C152.051 63.162 151.823 63.292 151.663 63.468C151.507 63.644 151.429 63.878 151.429 64.17C151.429 64.502 151.545 64.762 151.777 64.95C152.009 65.134 152.301 65.226 152.653 65.226ZM162.917 66H161.585L159.719 63.006L158.603 64.164V66H157.319V57.084H158.603V62.754L161.345 59.796H162.785L160.541 62.19L162.917 66ZM166.847 66V59.796H168.095V60.69C168.271 60.418 168.511 60.182 168.815 59.982C169.119 59.778 169.511 59.676 169.991 59.676C170.215 59.676 170.441 59.714 170.669 59.79C170.901 59.866 171.113 59.98 171.305 60.132C171.501 60.28 171.655 60.464 171.767 60.684C171.963 60.388 172.225 60.146 172.553 59.958C172.881 59.77 173.249 59.676 173.657 59.676C173.877 59.676 174.105 59.712 174.341 59.784C174.577 59.852 174.795 59.97 174.995 60.138C175.199 60.302 175.363 60.53 175.487 60.822C175.615 61.114 175.679 61.484 175.679 61.932V66H174.389V62.07C174.389 61.73 174.331 61.464 174.215 61.272C174.103 61.08 173.955 60.946 173.771 60.87C173.591 60.79 173.399 60.75 173.195 60.75C173.011 60.75 172.819 60.786 172.619 60.858C172.419 60.93 172.249 61.05 172.109 61.218C171.969 61.386 171.899 61.614 171.899 61.902V66H170.615V61.794C170.615 61.566 170.553 61.374 170.429 61.218C170.309 61.062 170.157 60.946 169.973 60.87C169.793 60.79 169.613 60.75 169.433 60.75C169.233 60.75 169.033 60.79 168.833 60.87C168.633 60.95 168.465 61.076 168.329 61.248C168.197 61.416 168.131 61.634 168.131 61.902V66H166.847ZM178.295 63.198C178.295 63.57 178.355 63.904 178.475 64.2C178.599 64.492 178.785 64.724 179.033 64.896C179.281 65.064 179.589 65.148 179.957 65.148C180.325 65.148 180.643 65.064 180.911 64.896C181.183 64.728 181.361 64.478 181.445 64.146H182.633C182.561 64.57 182.391 64.93 182.123 65.226C181.859 65.522 181.539 65.746 181.163 65.898C180.787 66.046 180.393 66.12 179.981 66.12C179.393 66.12 178.875 65.994 178.427 65.742C177.979 65.486 177.629 65.122 177.377 64.65C177.129 64.178 177.005 63.616 177.005 62.964C177.005 62.32 177.119 61.752 177.347 61.26C177.575 60.764 177.905 60.376 178.337 60.096C178.769 59.816 179.289 59.676 179.897 59.676C180.497 59.676 181.001 59.804 181.409 60.06C181.821 60.316 182.133 60.676 182.345 61.14C182.557 61.6 182.663 62.144 182.663 62.772V63.198H178.295ZM178.295 62.364H181.439C181.439 62.04 181.383 61.746 181.271 61.482C181.159 61.214 180.987 61.004 180.755 60.852C180.527 60.696 180.239 60.618 179.891 60.618C179.535 60.618 179.239 60.704 179.003 60.876C178.767 61.048 178.589 61.268 178.469 61.536C178.353 61.804 178.295 62.08 178.295 62.364ZM185.777 66.084C185.409 66.084 185.113 66.036 184.889 65.94C184.669 65.844 184.501 65.716 184.385 65.556C184.269 65.392 184.191 65.208 184.151 65.004C184.115 64.796 184.097 64.582 184.097 64.362V57.084H185.363V64.23C185.363 64.518 185.419 64.738 185.531 64.89C185.647 65.042 185.823 65.128 186.059 65.148L186.383 65.16V65.976C186.283 66.008 186.179 66.034 186.071 66.054C185.967 66.074 185.869 66.084 185.777 66.084ZM188.631 63.198C188.631 63.57 188.691 63.904 188.811 64.2C188.935 64.492 189.121 64.724 189.369 64.896C189.617 65.064 189.925 65.148 190.293 65.148C190.661 65.148 190.979 65.064 191.247 64.896C191.519 64.728 191.697 64.478 191.781 64.146H192.969C192.897 64.57 192.727 64.93 192.459 65.226C192.195 65.522 191.875 65.746 191.499 65.898C191.123 66.046 190.729 66.12 190.317 66.12C189.729 66.12 189.211 65.994 188.763 65.742C188.315 65.486 187.965 65.122 187.713 64.65C187.465 64.178 187.341 63.616 187.341 62.964C187.341 62.32 187.455 61.752 187.683 61.26C187.911 60.764 188.241 60.376 188.673 60.096C189.105 59.816 189.625 59.676 190.233 59.676C190.833 59.676 191.337 59.804 191.745 60.06C192.157 60.316 192.469 60.676 192.681 61.14C192.893 61.6 192.999 62.144 192.999 62.772V63.198H188.631ZM188.631 62.364H191.775C191.775 62.04 191.719 61.746 191.607 61.482C191.495 61.214 191.323 61.004 191.091 60.852C190.863 60.696 190.575 60.618 190.227 60.618C189.871 60.618 189.575 60.704 189.339 60.876C189.103 61.048 188.925 61.268 188.805 61.536C188.689 61.804 188.631 62.08 188.631 62.364ZM197.607 66.12C197.259 66.12 196.963 66.074 196.719 65.982C196.475 65.89 196.273 65.772 196.113 65.628C195.957 65.484 195.833 65.332 195.741 65.172C195.653 65.012 195.585 64.864 195.537 64.728L195.399 66H194.433V57.084H195.729V60.738C195.785 60.63 195.867 60.514 195.975 60.39C196.087 60.266 196.225 60.15 196.389 60.042C196.557 59.934 196.751 59.846 196.971 59.778C197.191 59.71 197.439 59.676 197.715 59.676C198.487 59.676 199.099 59.948 199.551 60.492C200.007 61.036 200.235 61.828 200.235 62.868C200.235 63.524 200.137 64.096 199.941 64.584C199.745 65.068 199.451 65.446 199.059 65.718C198.671 65.986 198.187 66.12 197.607 66.12ZM197.355 65.154C197.827 65.154 198.211 64.97 198.507 64.602C198.807 64.234 198.957 63.642 198.957 62.826C198.957 62.122 198.817 61.584 198.537 61.212C198.261 60.84 197.861 60.654 197.337 60.654C196.961 60.654 196.655 60.738 196.419 60.906C196.183 61.07 196.009 61.314 195.897 61.638C195.789 61.962 195.733 62.358 195.729 62.826C195.729 63.654 195.857 64.25 196.113 64.614C196.369 64.974 196.783 65.154 197.355 65.154ZM202.96 59.796V66H201.724V59.796H202.96ZM202.984 57.33V58.596H201.694V57.33H202.984ZM204.874 66V57.084H206.14V60.702C206.24 60.538 206.374 60.382 206.542 60.234C206.714 60.086 206.922 59.966 207.166 59.874C207.414 59.778 207.702 59.73 208.03 59.73C208.434 59.73 208.798 59.806 209.122 59.958C209.45 60.106 209.71 60.322 209.902 60.606C210.098 60.886 210.196 61.22 210.196 61.608V66H208.912V61.842C208.912 61.494 208.792 61.226 208.552 61.038C208.312 60.85 208.004 60.756 207.628 60.756C207.376 60.756 207.136 60.8 206.908 60.888C206.684 60.972 206.502 61.1 206.362 61.272C206.226 61.44 206.158 61.652 206.158 61.908V66H204.874ZM213.203 59.796V66H211.967V59.796H213.203ZM213.227 57.33V58.596H211.937V57.33H213.227ZM219.073 66V59.208H217.429V58.41C217.941 58.41 218.343 58.37 218.635 58.29C218.931 58.206 219.143 58.084 219.271 57.924C219.403 57.76 219.477 57.56 219.493 57.324H220.387V66H219.073ZM225.56 57.204C226.524 57.204 227.29 57.584 227.858 58.344C228.43 59.1 228.716 60.212 228.716 61.68C228.716 63.14 228.432 64.248 227.864 65.004C227.3 65.756 226.53 66.132 225.554 66.132C224.574 66.132 223.802 65.758 223.238 65.01C222.674 64.258 222.392 63.152 222.392 61.692C222.392 60.712 222.522 59.89 222.782 59.226C223.042 58.558 223.408 58.054 223.88 57.714C224.356 57.374 224.916 57.204 225.56 57.204ZM225.56 65.04C226.152 65.04 226.596 64.78 226.892 64.26C227.188 63.736 227.336 62.878 227.336 61.686C227.336 60.47 227.186 59.596 226.886 59.064C226.586 58.528 226.142 58.26 225.554 58.26C224.97 58.26 224.524 58.53 224.216 59.07C223.908 59.606 223.754 60.478 223.754 61.686C223.754 62.874 223.906 63.73 224.21 64.254C224.518 64.778 224.968 65.04 225.56 65.04ZM233.086 66V57.324H234.898L237.34 64.224L239.818 57.324H241.618V66H240.304V59.088L237.904 66H236.782L234.394 59.142V66H233.086ZM243.809 66V57.324H246.695C247.771 57.324 248.581 57.518 249.125 57.906C249.673 58.294 249.947 58.854 249.947 59.586C249.947 60.038 249.829 60.428 249.593 60.756C249.361 61.08 248.953 61.352 248.369 61.572C248.713 61.648 249.001 61.758 249.233 61.902C249.465 62.042 249.647 62.204 249.779 62.388C249.915 62.572 250.011 62.772 250.067 62.988C250.127 63.204 250.157 63.428 250.157 63.66C250.157 64.448 249.879 65.036 249.323 65.424C248.771 65.808 247.929 66 246.797 66H243.809ZM245.093 64.956H246.803C247.475 64.956 247.985 64.842 248.333 64.614C248.681 64.382 248.855 64.036 248.855 63.576C248.855 63.244 248.769 62.972 248.597 62.76C248.425 62.548 248.193 62.392 247.901 62.292C247.609 62.192 247.283 62.142 246.923 62.142H245.093V64.956ZM245.093 61.08H246.923C247.139 61.08 247.351 61.058 247.559 61.014C247.767 60.97 247.957 60.898 248.129 60.798C248.301 60.694 248.439 60.556 248.543 60.384C248.647 60.212 248.699 60.002 248.699 59.754C248.699 59.282 248.521 58.932 248.165 58.704C247.809 58.476 247.347 58.362 246.779 58.362H245.093V61.08Z" fill="#213360"/>
<defs>
<filter id="filter0_dd_4_1195" x="3" y="4" width="343" height="103" filterUnits="userSpaceOnUse" color-interpolation-filters="sRGB">
<feFlood flood-opacity="0" result="BackgroundImageFix"/>
<feColorMatrix in="SourceAlpha" type="matrix" values="0 0 0 0 0 0 0 0 0 0 0 0 0 0 0 0 0 0 127 0" result="hardAlpha"/>
<feMorphology radius="2" operator="dilate" in="SourceAlpha" result="effect1_dropShadow_4_1195"/>
<feOffset dx="1" dy="2"/>
<feGaussianBlur stdDeviation="3"/>
<feComposite in2="hardAlpha" operator="out"/>
<feColorMatrix type="matrix" values="0 0 0 0 0 0 0 0 0 0.607843 0 0 0 0 0.564706 0 0 0 0.08 0"/>
<feBlend mode="normal" in2="BackgroundImageFix" result="effect1_dropShadow_4_1195"/>
<feColorMatrix in="SourceAlpha" type="matrix" values="0 0 0 0 0 0 0 0 0 0 0 0 0 0 0 0 0 0 127 0" result="hardAlpha"/>
<feMorphology radius="1" operator="dilate" in="SourceAlpha" result="effect2_dropShadow_4_1195"/>
<feOffset dy="1"/>
<feGaussianBlur stdDeviation="0.5"/>
<feComposite in2="hardAlpha" operator="out"/>
<feColorMatrix type="matrix" values="0 0 0 0 0.129412 0 0 0 0 0.2 0 0 0 0 0.376471 0 0 0 0.02 0"/>
<feBlend mode="normal" in2="effect1_dropShadow_4_1195" result="effect2_dropShadow_4_1195"/>
<feBlend mode="normal" in="SourceGraphic" in2="effect2_dropShadow_4_1195" result="shape"/>
</filter>
</defs>
</svg>
