<svg width="511" height="168" viewBox="0 0 511 168" fill="none" xmlns="http://www.w3.org/2000/svg">
<path d="M5.23308 232.001C5.23308 232.001 -73.3042 46.1768 95.6185 11.6324C201.021 -9.92567 198.265 -84.8656 347.409 -79.7503C500.139 -74.5121 439.992 69.9071 459.81 102.941C479.628 135.975 530.481 149.229 512.04 231.999H5.23308V232.001Z" fill="#EBF3FA"/>
<path d="M351.06 -20.6596C346.869 -29.8748 330.704 -24.3671 330.704 -24.3671C330.704 -24.3671 322.065 -5.83953 318.841 -4.94388C315.617 -4.04824 323.055 -22.1905 323.055 -22.1905C316.591 -21.8346 301.564 -11.7811 301.564 -11.7811C301.564 -11.7811 305.695 7.69807 302.345 7.79219C298.994 7.88631 299.59 -9.63829 299.59 -9.63829C293.711 -6.90871 289.068 0.968242 289.068 0.968242C283.682 13.469 300.421 19.5665 300.421 19.5665C300.421 19.5665 301.703 26.3477 298.625 34.81C298.625 34.81 297.88 36.3984 297.276 39L298.956 38.747C299.024 38.2867 299.109 37.8396 299.211 37.4073C299.211 37.4043 299.211 37.4014 299.213 37.3999C299.214 37.394 299.216 37.3881 299.217 37.3808C299.293 37.1102 299.401 36.7249 299.537 36.2557V36.2542C299.537 36.2528 299.539 36.2528 299.537 36.2513C299.896 35.1939 300.128 34.4174 300.264 33.8629C300.264 33.8614 300.265 33.86 300.265 33.857C301.317 30.5495 302.9 26.208 304.244 25.1447C304.244 25.1447 304.018 24.9183 303.766 24.4476C303.918 24.6697 304.078 24.9021 304.244 25.1447C308.07 30.723 322.61 29.5627 330.369 26.7551C338.128 23.9476 334.287 22.2696 329.407 19.3414C324.526 16.4133 315.636 18.7149 312.744 17.7149C309.851 16.7133 313.532 14.725 318.937 14.322C324.343 13.919 327.837 18.7267 336.591 18.2311C345.346 17.7355 349.418 0.919711 349.418 0.919711C343.744 3.61841 332.556 2.01978 331.827 0.0770107C331.099 -1.86429 346.951 -4.04236 349.321 -5.01448C351.697 -5.98807 355.251 -11.4458 351.06 -20.6596Z" fill="#DFEBFD"/>
<path d="M397.757 139.93C412.645 131.014 399.968 105.165 399.968 105.165C399.968 105.165 366.583 94.5957 364.402 89.3986C362.222 84.2016 394.705 92.8454 394.705 92.8454C392.788 82.1264 372.581 59.1267 372.581 59.1267C372.581 59.1267 340.156 70.0793 339.317 64.5049C338.479 58.929 368.521 56.2759 368.521 56.2759C362.67 47.0287 348.28 40.9138 348.28 40.9138C325.845 34.5234 318.82 63.7443 318.82 63.7443C318.82 63.7443 307.501 67.2973 292.428 63.9165C292.428 63.9165 289.564 63.0016 285 62.5375L285.772 65.291C286.571 65.3089 287.352 65.3553 288.113 65.4377C288.119 65.4362 288.122 65.4377 288.127 65.4392C288.137 65.4407 288.149 65.4422 288.159 65.4422C288.637 65.5111 289.316 65.6129 290.147 65.7431C290.148 65.7431 290.148 65.7431 290.15 65.7431C290.151 65.7431 290.151 65.7446 290.154 65.7431C292.032 66.122 293.405 66.348 294.381 66.4603C294.384 66.4603 294.387 66.4603 294.39 66.4603C300.25 67.5279 307.984 69.2662 310.072 71.2921C310.072 71.2921 310.414 70.8668 311.166 70.3473C310.817 70.6482 310.454 70.9627 310.072 71.2921C301.322 78.8428 306.246 102.88 312.61 115.252C318.975 127.624 321.064 120.861 325.076 112.103C329.088 103.346 323.357 88.9779 324.481 83.9396C325.606 78.9012 329.747 84.6358 331.529 93.576C333.31 102.518 325.809 109.353 328.428 123.87C331.046 138.388 360.584 141.687 360.584 141.687C354.827 132.776 355.294 113.758 358.462 112.138C361.631 110.519 368.558 136.534 370.697 140.29C372.833 144.048 382.87 148.847 397.757 139.93Z" fill="#DFEBFD"/>
<path d="M178.15 36.332C186.392 24.2664 207.134 36.4503 207.134 36.4503C207.134 36.4503 214.023 65.2557 218.213 67.3944C222.404 69.5332 217.063 41.6009 217.063 41.6009C225.853 43.8325 243.804 62.2169 243.804 62.2169C243.804 62.2169 232.88 88.9809 237.462 90.0069C242.043 91.0328 245.943 65.8084 245.943 65.8084C253.289 71.2795 257.553 83.7839 257.553 83.7839C261.591 103.1 236.938 107.364 236.938 107.364C236.938 107.364 233.35 116.721 235.304 129.647C235.304 129.647 235.902 132.118 236.029 136L233.786 135.191C233.817 134.516 233.822 133.852 233.797 133.205C233.798 133.201 233.798 133.198 233.797 133.193C233.797 133.184 233.795 133.175 233.795 133.165C233.764 132.757 233.72 132.178 233.658 131.469C233.658 131.468 233.658 131.468 233.658 131.466C233.658 131.465 233.657 131.465 233.658 131.463C233.45 129.856 233.339 128.684 233.301 127.852C233.301 127.849 233.301 127.846 233.301 127.845C232.746 122.834 231.739 116.202 230.176 114.324C230.176 114.324 230.548 114.059 231.022 113.453C230.752 113.731 230.471 114.021 230.176 114.324C223.415 121.284 203.738 115.751 193.828 109.667C183.917 103.585 189.65 102.206 197.146 99.3181C204.643 96.429 216.246 102.09 220.491 101.43C224.737 100.768 220.21 96.9427 212.889 94.9268C205.567 92.9109 199.47 98.8568 187.567 95.8165C175.665 92.7746 174.593 67.6356 174.593 67.6356C181.665 73.0079 197.478 73.6998 199.002 71.1163C200.525 68.5327 179.321 61.1939 176.323 59.1735C173.324 57.1501 169.907 48.3975 178.15 36.332Z" fill="#CDE0FB"/>
<path d="M338.96 45.52C338.931 45.4494 338.898 45.3741 338.858 45.2955C338.724 44.7437 337.545 41.8212 337.415 41.5004C337.046 40.5893 336.439 41.0737 336.439 41.7538C336.439 41.9639 336.525 43.4653 336.475 43.6818C335.475 42.9087 334.858 42.1035 332.279 41.3368C332.279 41.3368 330.311 40.6567 331.257 42.7403C331.89 44.1326 332.644 44.3074 333.564 46.2547C334.487 48.2019 336.189 49.5413 337.711 49.4194L339.346 50L341 47.432L339.937 46.7423C339.495 46.4552 339.163 46.0221 338.96 45.52Z" fill="#FFB27D"/>
<path d="M325.928 -0.432617H232.09V134.718H325.928V-0.432617Z" fill="white"/>
<path d="M298.924 11.7373H256.152V13.9596H298.924V11.7373Z" fill="#F99746"/>
<path d="M272.011 16.8955H250.625V19.1178H272.011V16.8955Z" fill="#F99746"/>
<path d="M305.979 16.8955H274.59V19.1178H305.979V16.8955Z" fill="#F99746"/>
<path d="M299.072 66.9639H252.926V68.6562H299.072V66.9639Z" fill="#AEC3FF"/>
<path d="M309.937 62.4482H277.262V64.1405H309.937V62.4482Z" fill="#AEC3FF"/>
<path d="M273.894 62.4482H242.062V64.1405H273.894V62.4482Z" fill="#AEC3FF"/>
<path d="M306.736 57.9326H278.625V59.6249H306.736V57.9326Z" fill="#AEC3FF"/>
<path d="M273.372 57.9326H245.262V59.6249H273.372V57.9326Z" fill="#AEC3FF"/>
<path d="M283.533 83.6542H269.964C269.348 83.6542 268.844 83.1493 268.844 82.5334C268.844 81.9175 269.348 81.4126 269.964 81.4126H283.533C284.148 81.4126 284.653 81.9175 284.653 82.5334C284.651 83.1508 284.148 83.6542 283.533 83.6542Z" fill="#A8C3F7"/>
<path d="M302.463 83.6542H288.893C288.278 83.6542 287.773 83.1493 287.773 82.5334C287.773 81.9175 288.278 81.4126 288.893 81.4126H302.463C303.078 81.4126 303.582 81.9175 303.582 82.5334C303.582 83.1508 303.078 83.6542 302.463 83.6542Z" fill="#A8C3F7"/>
<path d="M285.889 113.409C279.148 113.409 273.664 107.921 273.664 101.174C273.664 94.4269 279.148 88.9385 285.889 88.9385C292.63 88.9385 298.114 94.4269 298.114 101.174C298.112 107.921 292.628 113.409 285.889 113.409ZM285.889 89.5573C279.488 89.5573 274.281 94.7689 274.281 101.175C274.281 107.582 279.488 112.793 285.889 112.793C292.29 112.793 297.497 107.582 297.497 101.175C297.497 94.7689 292.29 89.5573 285.889 89.5573Z" fill="#A8C3F7"/>
<path d="M285.89 111.033C280.458 111.033 276.039 106.61 276.039 101.174C276.039 95.7369 280.458 91.3145 285.89 91.3145C291.321 91.3145 295.74 95.7369 295.74 101.174C295.738 106.61 291.32 111.033 285.89 111.033ZM285.89 91.9333C280.798 91.9333 276.656 96.0789 276.656 101.175C276.656 106.271 280.798 110.417 285.89 110.417C290.981 110.417 295.123 106.271 295.123 101.175C295.123 96.0789 290.981 91.9333 285.89 91.9333Z" fill="#A8C3F7"/>
<path d="M286.018 105.043C284.738 105.457 283.49 105.675 282.509 105.592C281.014 105.467 280.17 104.683 280.138 103.383C280.111 102.351 280.539 101.448 281.378 100.716C281.37 100.645 281.363 100.576 281.357 100.505C281.302 99.7777 281.457 99.2935 281.818 99.0685C282.403 98.7043 283.271 99.2032 283.306 99.2239L283.113 99.5556C282.919 99.4416 282.341 99.1928 282.021 99.3942C281.746 99.5674 281.712 100.043 281.737 100.429C282.419 99.9346 283.311 99.5319 284.397 99.2373C285.2 99.0196 286.095 98.8745 286.903 98.8094C286.907 98.7191 286.914 98.6376 286.925 98.571C286.951 98.3919 287.014 98.1831 287.188 98.1417C287.255 98.1268 287.383 98.1283 287.499 98.303C287.573 98.4156 287.61 98.5769 287.617 98.7709C287.895 98.765 288.154 98.7694 288.383 98.7857C288.385 98.7813 288.388 98.7753 288.389 98.7709C288.333 98.3149 288.373 97.7789 288.448 97.431C288.546 96.9853 288.706 96.7603 288.929 96.7381C289.064 96.7262 289.181 96.7988 289.234 96.9261C289.36 97.2281 289.124 98.0439 288.784 98.8257C288.784 98.8272 288.784 98.8286 288.786 98.8301C289.104 98.8834 289.321 98.9722 289.389 99.0951C289.441 99.1884 289.447 99.3305 289.312 99.4564C289.055 99.6933 288.849 99.634 288.75 99.5778C288.666 99.5289 288.598 99.4475 288.545 99.3424C288.287 99.8517 288.008 100.287 287.787 100.471C287.584 100.641 287.407 100.573 287.34 100.536C287.306 100.516 287.274 100.49 287.243 100.459C287.156 100.672 287.056 100.878 286.95 101.064C286.548 101.771 286.095 102.133 285.641 102.113C285.454 102.104 285.29 102.03 285.151 101.895C284.9 102.44 284.583 102.958 284.269 103.346C283.95 103.74 283.543 103.885 283.122 103.753C282.376 103.521 281.701 102.441 281.45 101.162C280.812 101.785 280.503 102.524 280.524 103.371C280.552 104.48 281.233 105.097 282.543 105.207C285.854 105.482 291.658 102.403 292.098 100.136C291.737 101.981 288.982 104.08 286.018 105.043ZM281.783 100.869C281.984 102.218 282.659 103.21 283.233 103.389C283.502 103.473 283.749 103.377 283.968 103.106C284.34 102.646 284.663 102.077 284.894 101.523C284.827 101.38 284.774 101.212 284.734 101.021C284.641 100.577 284.626 99.9657 284.735 99.5482C284.117 99.7007 283.497 99.908 282.923 100.179C282.483 100.386 282.102 100.617 281.783 100.869ZM285.317 101.5C285.4 101.625 285.509 101.723 285.656 101.731C285.947 101.742 286.296 101.433 286.614 100.876C286.78 100.586 286.911 100.277 287.011 99.9805C286.947 99.7392 286.913 99.4579 286.903 99.1988C286.477 99.2328 286.012 99.2906 285.534 99.3779C285.783 99.8621 285.638 100.682 285.317 101.5ZM287.41 99.9864C287.471 100.167 287.524 100.203 287.524 100.203C287.738 100.018 287.984 99.6178 288.207 99.1618C288.025 99.1543 287.82 99.1544 287.595 99.1603C287.565 99.4179 287.5 99.7007 287.41 99.9864ZM285.156 99.4919C285.058 99.6962 284.987 100.349 285.107 100.93C285.299 100.293 285.339 99.7421 285.156 99.4919ZM288.938 99.2461C288.939 99.2476 288.939 99.2461 288.939 99.2461C288.939 99.2476 288.939 99.2476 288.938 99.2461ZM288.882 97.2726C288.848 97.3718 288.815 97.5109 288.79 97.6753C288.836 97.5183 288.867 97.3792 288.882 97.2726Z" fill="#A8C3F7"/>
<path d="M301.761 46.4062H250.234V48.0985H301.761V46.4062Z" fill="#AEC3FF"/>
<path d="M313.893 41.8906H277.406V43.5829H313.893V41.8906Z" fill="#AEC3FF"/>
<path d="M273.648 41.8906H238.105V43.5829H273.648V41.8906Z" fill="#AEC3FF"/>
<path d="M310.322 37.375H278.934V39.0673H310.322V37.375Z" fill="#AEC3FF"/>
<path d="M273.068 37.375H241.68V39.0673H273.068V37.375Z" fill="#AEC3FF"/>
<path d="M376.952 43.7798C376.952 43.7798 384.613 73.1519 361.322 68.2695C355.033 66.9511 338.281 50.2422 338.281 50.2422C338.281 50.2422 339.893 47.6961 341.878 47.9663C341.878 47.9663 358.063 53.2341 360.651 55.1405C362.085 56.1972 363.722 39.5558 368.68 39.793C373.637 40.0303 376.952 43.7798 376.952 43.7798Z" fill="#91CECF"/>
<path d="M387.448 167.98C387.448 167.98 387.02 174.888 385.684 174.987C385.506 175 378.911 175 378.911 175L370.492 174.951C370.492 174.951 370.547 172.921 373.009 172.491C375.47 172.061 379.589 170.33 381.08 167.075C382.647 163.651 387.448 167.98 387.448 167.98Z" fill="#163560"/>
<path d="M387.934 168.458C387.934 168.458 385.374 169.315 383.376 169.315C381.146 169.315 379.121 168.707 379.121 168.707C379.121 168.707 378.64 164.043 375.988 153.768C374.598 148.382 372.612 141.457 369.788 132.851C361.978 109.069 359.604 95.1546 359.387 93.8377C359.375 93.7686 359.371 93.7341 359.371 93.7341L359.397 93.7226L383.406 83.1714C383.406 83.1714 380.438 115.949 384.225 128.531C384.755 130.289 385.209 132.338 385.599 134.559C387.988 148.226 387.934 168.458 387.934 168.458Z" fill="#2B478B"/>
<path d="M385.598 134.559L375.988 153.768C374.597 148.382 372.612 141.457 369.788 132.851C361.978 109.069 359.604 95.1546 359.387 93.8377C359.39 93.7988 359.391 93.7614 359.395 93.7226L383.404 83.1714C383.404 83.1714 380.437 115.949 384.223 128.531C384.753 130.29 385.208 132.339 385.598 134.559Z" fill="#233862"/>
<path d="M368.694 167.98C368.694 167.98 368.266 174.888 366.93 174.987C366.752 175 360.157 175 360.157 175L351.738 174.951C351.738 174.951 351.793 172.921 354.255 172.491C356.716 172.061 360.835 170.33 362.326 167.075C363.895 163.651 368.694 167.98 368.694 167.98Z" fill="#163560"/>
<path d="M355.085 83.9434C355.085 83.9434 354.773 105.184 358.445 131.264C362.116 157.343 360.872 168.414 360.872 168.414C360.872 168.414 363.395 169.232 364.413 169.315C367.007 169.527 369.666 168.707 369.666 168.707C369.666 168.707 374.922 142.617 373.415 129.564C371.908 116.511 380.612 84.7715 380.612 84.7715L355.085 83.9434Z" fill="#2B478B"/>
<path d="M372.569 33.3999L368.359 37.1005L361.477 36.7971C361.492 36.2422 361.619 33.9347 361.735 31.8443C361.742 31.7206 361.75 31.597 361.757 31.4777C361.859 29.6978 361.946 28.1695 361.946 28.1695L367.819 24.5192L370.008 23.1577C370.006 23.1951 370.098 25.1044 370.113 25.3818C370.364 30.3275 372.569 33.3999 372.569 33.3999Z" fill="#FFB27D"/>
<path d="M353.685 84.8638C353.781 96.0749 354.528 122.303 355.078 122.836C360.913 128.473 386.576 121.291 387.936 115.081C389.295 108.872 382.765 35.4573 372.8 32.5258C370.733 31.9191 359.677 35.4961 359.677 35.4961C359.677 35.4961 357.943 40.0364 356.805 45.8202C356.384 47.9638 355.008 63.2537 354.205 73.4729C353.994 76.1973 353.82 78.5595 353.718 80.2157C353.675 80.8986 353.666 82.5678 353.685 84.8638Z" fill="#ABDDDA"/>
<path d="M369.657 25.5343C368.612 28.0604 363.771 30.8007 361.738 31.8444C361.745 31.7208 361.753 31.5971 361.76 31.4778C361.862 29.6979 361.949 28.1697 361.949 28.1697L367.822 24.5193C369.204 24.3037 370.09 24.4949 369.657 25.5343Z" fill="#FCA56B"/>
<path d="M359.774 28.4167C359.774 28.4167 370.401 29.4059 370.914 22.7723C371.427 16.1388 373.145 11.7998 366.382 10.8883C359.619 9.97681 358.103 12.4051 357.394 14.5774C356.684 16.7498 357.023 27.9883 359.774 28.4167Z" fill="#FFB27D"/>
<path d="M357.657 13.8931C357.657 13.8931 359.837 21.0198 361.27 20.3857C362.704 19.7503 364.015 19.2269 364.261 21.4626C364.507 23.6982 362.964 26.6699 367.67 26.0718C372.377 25.4737 376.487 12.1219 374.736 10.1321C369.685 4.39282 350.669 7.06693 357.657 13.8931Z" fill="#163560"/>
<path d="M362.385 32.6867C362.517 32.6307 369.969 29.2852 370.841 29.5727C371.713 29.8602 372.799 32.5257 372.799 32.5257L359.676 35.4946C359.676 35.4946 360.709 33.3927 362.385 32.6867Z" fill="#91CECF"/>
<path d="M353.682 92.8947C373.651 78.443 375.203 55.5361 375.203 55.5361C365.703 60.9002 356.682 69.7679 353.754 79.514C353.543 82.2385 353.817 86.589 353.715 88.2452C353.672 88.931 353.664 90.5987 353.682 92.8947Z" fill="#91CECF"/>
<path d="M341.147 85.5004C341.147 85.5004 340.897 85.3005 340.336 85.2545C339.854 85.0921 338.508 84.4997 338.278 84.2898C337.548 83.627 337.293 84.3329 337.801 85.0374C337.912 85.1898 338.307 85.45 338.445 85.5952C337.351 86.0093 335.892 86.8604 333.997 88.5267C333.997 88.5267 332.48 89.7517 334.53 90.0176C335.901 90.1959 336.416 89.6855 338.353 89.9055C340.288 90.1269 342.165 89.4325 342.852 88.1687L344.124 87.1595L343.04 84.6018L341.147 85.5004Z" fill="#FFB27D"/>
<path d="M366.724 36.0249C366.724 36.0249 387.755 35.0142 368.737 70.429C365.694 76.0935 343.961 88.4002 343.961 88.4002C343.961 88.4002 341.918 86.1862 342.69 84.3359C342.69 84.3359 356.843 68.215 358.739 67.5594C360.421 66.9771 360.074 47.3497 361.579 42.6153C363.084 37.881 366.724 36.0249 366.724 36.0249Z" fill="#ABDDDA"/>
<path opacity="0.5" d="M348.336 156.32L332.635 156.316L324.331 156.313C321.107 156.312 318.471 153.672 318.473 150.444L318.49 92.3781C318.49 89.152 321.128 86.5122 324.351 86.5151L331.717 86.5181L348.357 86.5225C351.58 86.5225 354.217 89.1624 354.215 92.39L354.199 150.456C354.197 153.681 351.561 156.32 348.336 156.32Z" fill="#C0D8FB"/>
<path d="M351.667 139.858L351.25 136.802L350.833 133.745C350.726 132.966 350.311 132.3 349.726 131.856C349.142 131.412 348.391 131.19 347.611 131.295C347.525 131.307 347.441 131.323 347.358 131.342C347.644 130.929 347.806 130.463 347.851 129.989C348.38 131.261 349.774 132.005 351.154 131.674C352.685 131.307 353.638 129.755 353.271 128.223L352.553 125.223L351.836 122.222C351.652 121.456 351.173 120.835 350.547 120.451C349.923 120.068 349.152 119.92 348.388 120.103C346.857 120.47 345.905 122.023 346.271 123.554L347.352 128.075C347.188 127.839 346.987 127.624 346.747 127.441C346.255 127.063 345.675 126.874 345.095 126.857C345.379 126.49 345.565 126.064 345.648 125.617C345.755 125.033 345.681 124.418 345.413 123.861C345.737 122.789 345.413 121.573 344.5 120.818L339.749 116.887C338.536 115.884 336.724 116.055 335.721 117.271C334.793 118.395 334.873 120.029 335.849 121.061C335.598 121.06 335.342 121.089 335.087 121.159L332.114 121.973L329.142 122.787C328.108 123.07 327.361 123.896 327.12 124.874L326.808 124.126L325.62 121.28C325.014 119.826 323.33 119.135 321.878 119.742C320.425 120.349 319.734 122.034 320.341 123.488L321.528 126.333L322.29 128.157C321.281 128.56 320.542 129.521 320.483 130.673L320.327 133.754L320.172 136.835C320.132 137.621 320.417 138.353 320.91 138.897C321.401 139.442 322.099 139.801 322.885 139.841C323.221 139.857 323.545 139.812 323.851 139.719C323.555 140.314 323.472 141.001 323.623 141.654C323.095 141.959 322.66 142.43 322.41 143.033L321.233 145.883L320.055 148.734C319.755 149.461 319.78 150.246 320.061 150.924C320.342 151.602 320.879 152.174 321.607 152.474C322.741 152.943 324.012 152.619 324.802 151.763C324.988 152.205 325.286 152.604 325.691 152.915C326.941 153.873 328.746 153.633 329.701 152.382L331.574 149.934L333.448 147.483C333.703 147.15 333.87 146.778 333.959 146.392C334.61 146.457 335.287 146.303 335.866 145.905L336.357 145.566L335.678 146.454L333.805 148.903C332.848 150.154 333.087 151.96 334.337 152.917C335.587 153.875 337.392 153.635 338.348 152.384L340.221 149.935L342.095 147.485C342.118 147.454 342.139 147.42 342.161 147.387C342.312 147.631 342.499 147.847 342.71 148.032L342.043 148.905C341.086 150.156 341.326 151.962 342.576 152.918C343.826 153.876 345.63 153.636 346.586 152.385L350.333 147.486C350.811 146.861 350.99 146.097 350.894 145.369C350.797 144.642 350.426 143.951 349.8 143.472C349.587 143.308 349.357 143.182 349.117 143.087C349.152 143.084 349.186 143.083 349.22 143.079C350.778 142.87 351.88 141.419 351.667 139.858ZM325.885 137.125L325.938 136.074C326.119 136.379 326.357 136.656 326.656 136.884C326.767 136.97 326.885 137.042 327.005 137.109L325.694 138.014C325.801 137.737 325.869 137.439 325.885 137.125ZM345.164 134.519L345.725 138.629C345.482 138.136 345.107 137.729 344.652 137.451C344.099 137.11 343.432 136.958 342.755 137.054C343.047 136.875 343.314 136.644 343.534 136.357L345.142 134.254C345.145 134.342 345.152 134.431 345.164 134.519ZM338.657 123.417L339.377 124.013L338.635 124.526C338.713 124.167 338.725 123.793 338.657 123.417ZM339.278 132.497C339.204 132.051 339.028 131.637 338.771 131.281C338.984 131.201 339.191 131.098 339.386 130.963L341.641 129.407L339.278 132.497ZM341.15 137.855C340.546 137.35 339.761 137.119 338.993 137.204L339.053 136.432C339.19 136.598 339.345 136.754 339.522 136.888C340.155 137.374 340.932 137.55 341.667 137.445C341.478 137.562 341.305 137.701 341.15 137.855ZM335.386 127.017C334.758 127.965 334.727 129.241 335.408 130.232C335.42 130.249 335.435 130.266 335.448 130.284C335.24 130.363 335.043 130.464 334.86 130.589C334.99 130.181 335.028 129.752 334.972 129.336C334.876 128.609 334.503 127.918 333.879 127.439C333.876 127.438 333.873 127.435 333.87 127.433L335.386 127.017ZM332.539 133.903L333.642 132.46C333.626 132.549 333.614 132.639 333.607 132.731L333.398 135.38C332.985 135.005 332.478 134.768 331.945 134.679L332.539 133.903ZM327.373 146.006L327.697 145.221C327.934 144.648 327.966 144.042 327.835 143.48C327.9 143.441 327.965 143.404 328.028 143.36L333.104 139.857C333.136 139.835 333.166 139.808 333.197 139.786C333.265 140.064 333.374 140.328 333.519 140.569L332.616 141.192C332.008 141.613 331.616 142.23 331.46 142.901C330.506 142.808 329.527 143.191 328.904 144.004L327.373 146.006ZM340.834 142.476L340.993 143.138C340.738 143.024 340.471 142.948 340.2 142.913L340.834 142.476ZM346.877 143.145L346.657 142.223L346.615 142.047C346.926 142.427 347.329 142.725 347.784 142.905C347.472 142.936 347.166 143.015 346.877 143.145ZM329.548 128.391L327.994 130.421L326.122 132.87C326.113 132.882 326.107 132.894 326.098 132.904L326.196 130.962C326.199 130.911 326.196 130.862 326.196 130.814C326.284 130.787 326.372 130.756 326.457 130.719C327.623 130.232 328.296 129.05 328.204 127.852C328.598 128.143 329.059 128.331 329.548 128.391Z" fill="#AFCDFB"/>
<path opacity="0.5" d="M332.635 156.316L324.331 156.313C321.107 156.312 318.471 153.672 318.473 150.444L318.49 92.3781C318.49 89.152 321.128 86.5122 324.351 86.5151L331.717 86.5181C332.325 87.5619 332.678 88.8085 332.678 90.1455L332.659 155.731C332.659 155.928 332.652 156.122 332.635 156.316Z" fill="#AFCDFB"/>
<path d="M353.831 89.2587L331.533 89.2513L318.877 89.2468C318.25 89.2483 317.738 88.7346 317.738 88.1053L317.74 82.6376C317.74 82.0113 318.253 81.4976 318.88 81.4976L331.518 81.5005C331.519 81.5005 331.519 81.5005 331.521 81.5005L353.834 81.5065C354.46 81.5065 354.973 82.0187 354.973 82.648L354.972 88.1157C354.972 88.7464 354.46 89.2602 353.831 89.2587Z" fill="#F99746"/>
<path d="M331.533 89.2527L318.877 89.2482C318.25 89.2497 317.738 88.736 317.738 88.1067L317.74 82.6391C317.74 82.0128 318.253 81.499 318.88 81.499L331.518 81.502C331.519 81.502 331.519 81.502 331.521 81.502C332.145 81.5035 332.657 82.0157 332.657 82.6435L332.655 88.1112C332.654 88.733 332.152 89.2438 331.533 89.2527Z" fill="#EF7E29"/>
<path d="M417.998 153.298C417.998 154.355 417.566 155.316 416.868 156.015C416.171 156.712 415.211 157.146 414.153 157.146H396.006C393.892 157.146 392.164 155.414 392.164 153.3C392.164 152.242 392.596 151.282 393.293 150.583C393.989 149.887 394.95 149.453 396.007 149.453H414.155C416.269 149.453 417.998 151.184 417.998 153.298Z" fill="#EF7E29"/>
<path d="M408.636 153.298C408.636 154.355 408.204 155.316 407.507 156.015C406.81 156.712 405.85 157.146 404.793 157.146H396.006C393.892 157.146 392.164 155.414 392.164 153.3C392.164 152.242 392.596 151.282 393.293 150.583C393.989 149.887 394.95 149.453 396.007 149.453H404.794C406.908 149.453 408.636 151.184 408.636 153.298Z" fill="#F99746"/>
<path opacity="0.5" d="M414.464 151.52H397.154C396.855 151.52 396.609 151.274 396.609 150.975V150.852C396.609 150.551 396.855 150.307 397.154 150.307H414.464C414.765 150.307 415.009 150.553 415.009 150.852V150.975C415.009 151.274 414.763 151.52 414.464 151.52Z" fill="#FFE2CC"/>
<path d="M224.893 37.9235V92.0822C224.893 95.406 222.177 98.1258 218.855 98.1258H186.691C185.83 98.1258 185.01 97.9437 184.268 97.6135C182.145 96.6749 180.652 94.5443 180.652 92.0822V37.9235C180.652 34.5982 183.37 31.8799 186.691 31.8799H218.855C222.177 31.8799 224.893 34.5997 224.893 37.9235Z" fill="#FCECDB"/>
<path d="M210.643 52.2463C207.244 50.9686 205.525 47.1754 206.8 43.7761C208.075 40.3752 211.863 38.6518 215.263 39.9296C218.661 41.2073 220.381 45.0005 219.106 48.3998C217.831 51.8022 214.041 53.524 210.643 52.2463Z" fill="#F7E0CB"/>
<path d="M219.111 48.4013L206.805 43.7761C208.08 40.3752 211.868 38.6518 215.268 39.9296C218.666 41.2073 220.386 45.0005 219.111 48.4013Z" fill="#EFCBAB"/>
<path d="M188.433 51.1847C185.619 48.8869 185.202 44.7428 187.498 41.9283C189.793 39.1138 193.932 38.6948 196.746 40.9926C199.558 43.2904 199.977 47.4345 197.681 50.249C195.387 53.062 191.245 53.481 188.433 51.1847Z" fill="#F7E0CB"/>
<path d="M197.683 50.249L187.5 41.9283C189.796 39.1138 193.935 38.6948 196.748 40.9926C199.561 43.2904 199.979 47.4344 197.683 50.249Z" fill="#EFCBAB"/>
<path d="M210.643 92.3752C207.244 91.0975 205.525 87.3058 206.8 83.905C208.075 80.5041 211.863 78.7808 215.263 80.0585C218.661 81.3347 220.381 85.1279 219.106 88.5287C217.831 91.9296 214.041 93.6529 210.643 92.3752Z" fill="#F7E0CB"/>
<path d="M219.111 88.9776L206.805 84.3523C208.08 80.9514 211.868 79.228 215.268 80.5057C218.666 81.7835 220.386 85.5767 219.111 88.9776Z" fill="#EFCBAB"/>
<path d="M188.433 91.3137C185.619 89.0159 185.202 84.8718 187.498 82.0572C189.793 79.2427 193.932 78.8237 196.746 81.1215C199.558 83.4193 199.977 87.5634 197.681 90.378C195.387 93.1911 191.245 93.6101 188.433 91.3137Z" fill="#F7E0CB"/>
<path d="M197.683 90.8237L187.5 82.503C189.796 79.6885 193.935 79.2695 196.748 81.5673C199.561 83.8651 199.979 88.0107 197.683 90.8237Z" fill="#EFCBAB"/>
<path d="M215.772 72.8441C212.491 74.4001 208.573 72.9995 207.018 69.7171C205.463 66.4347 206.861 62.5112 210.142 60.9552C213.422 59.3991 217.342 60.7997 218.896 64.0821C220.451 67.366 219.052 71.2895 215.772 72.8441Z" fill="#F7E0CB"/>
<path d="M218.896 64.0821L207.018 69.7171C205.463 66.4347 206.861 62.5112 210.142 60.9552C213.423 59.3991 217.343 60.7997 218.896 64.0821Z" fill="#EFCBAB"/>
<path d="M186.487 64.4553C187.837 61.0811 191.662 59.4421 195.032 60.7924C198.402 62.1426 200.041 65.9699 198.691 69.3441C197.342 72.7168 193.517 74.3572 190.147 73.007C186.777 71.6582 185.14 67.828 186.487 64.4553Z" fill="#F7E0CB"/>
<path d="M190.148 73.0066L195.033 60.792C198.403 62.1423 200.042 65.9695 198.693 69.3437C197.345 72.7164 193.518 74.3569 190.148 73.0066Z" fill="#EFCBAB"/>
<path opacity="0.5" d="M224.893 45.335V92.464C224.893 95.5776 222.408 98.1256 219.368 98.1256H189.936C189.149 98.1256 188.399 97.9554 187.719 97.6459V51.8598C187.719 49.9869 188.5 48.2931 189.744 47.0998C190.204 46.6586 190.728 46.2855 191.299 45.9982C192.142 45.5748 193.087 45.335 194.086 45.335H224.893Z" fill="#EFCBAB"/>
<path d="M188.77 105.842V51.6838C188.77 48.3599 191.487 45.6401 194.808 45.6401H226.972C230.293 45.6401 233.01 48.3599 233.01 51.6838V105.844C233.01 109.168 230.293 111.888 226.972 111.888H194.808C191.487 111.886 188.77 109.166 188.77 105.842Z" fill="#FCECDB"/>
<path d="M218.76 66.0065C215.361 64.7288 213.642 60.9356 214.917 57.5363C216.192 54.1355 219.981 52.4121 223.38 53.6898C226.778 54.9675 228.498 58.7607 227.223 62.1601C225.948 65.5624 222.158 67.2843 218.76 66.0065Z" fill="#F7E0CB"/>
<path d="M227.228 62.1617L214.922 57.5364C216.197 54.1355 219.985 52.4121 223.385 53.6898C226.783 54.9676 228.503 58.7608 227.228 62.1617Z" fill="#EFCBAB"/>
<path d="M196.55 64.945C193.736 62.6472 193.319 58.5031 195.615 55.6886C197.911 52.874 202.05 52.455 204.863 54.7529C207.675 57.0507 208.094 61.1948 205.798 64.0093C203.502 66.8224 199.362 67.2414 196.55 64.945Z" fill="#F7E0CB"/>
<path d="M205.801 64.0078L195.617 55.6871C197.913 52.8726 202.052 52.4536 204.866 54.7514C207.676 57.0492 208.096 61.1948 205.801 64.0078Z" fill="#EFCBAB"/>
<path d="M218.76 106.136C215.361 104.858 213.642 101.066 214.917 97.6657C216.192 94.2649 219.981 92.5415 223.38 93.8192C226.778 95.0954 228.498 98.8901 227.223 102.289C225.948 105.69 222.158 107.414 218.76 106.136Z" fill="#F7E0CB"/>
<path d="M227.228 102.736L214.922 98.1111C216.197 94.7102 219.985 92.9868 223.385 94.2645C226.783 95.5423 228.503 99.3355 227.228 102.736Z" fill="#EFCBAB"/>
<path d="M206.698 102.669C208.183 99.3543 206.701 95.4623 203.389 93.9764C200.077 92.4905 196.188 93.9734 194.704 97.2885C193.219 100.604 194.701 104.496 198.013 105.981C201.325 107.467 205.214 105.985 206.698 102.669Z" fill="#F7E0CB"/>
<path d="M205.801 104.584L195.617 96.2633C197.913 93.4487 202.052 93.0297 204.866 95.3276C207.676 97.6254 208.096 101.771 205.801 104.584Z" fill="#EFCBAB"/>
<path d="M223.889 86.6043C220.608 88.1604 216.69 86.7598 215.135 83.4774C213.58 80.195 214.978 76.2715 218.259 74.7154C221.539 73.1594 225.459 74.56 227.014 77.8424C228.568 81.1248 227.169 85.0483 223.889 86.6043Z" fill="#F7E0CB"/>
<path d="M227.014 77.8424L215.135 83.4774C213.58 80.195 214.978 76.2715 218.259 74.7154C221.539 73.1594 225.459 74.56 227.014 77.8424Z" fill="#EFCBAB"/>
<path d="M194.605 78.2155C195.954 74.8413 199.78 73.2023 203.15 74.5526C206.519 75.9029 208.158 79.7301 206.809 83.1043C205.46 86.4771 201.635 88.1175 198.265 86.7672C194.895 85.4185 193.256 81.5882 194.605 78.2155Z" fill="#F7E0CB"/>
<path d="M198.266 86.7674L203.15 74.5527C206.52 75.903 208.159 79.7303 206.81 83.1045C205.461 86.4772 201.635 88.1177 198.266 86.7674Z" fill="#EFCBAB"/>
<path d="M228.031 67.2432H177.516V142.697H228.031V67.2432Z" fill="#EF7E29"/>
<path d="M235.067 67.2432H184.551V142.698H235.067V67.2432Z" fill="#F99746"/>
<path d="M184.553 71.6226L182.131 75.3907H177.516V67.2432H184.553V71.6226Z" fill="#D8661A"/>
<path d="M180.236 73.1877H173.199L177.514 67.2432H184.551L180.236 73.1877Z" fill="#F99746"/>
<path opacity="0.5" d="M210.605 142.938H184.551V70.6826L210.605 73.1877V142.938Z" fill="#EFCBAB"/>
<path d="M235.067 73.1876L230.968 75.3907H186.986L184.551 71.6226V67.2432L235.067 73.1876Z" fill="#EF7E29"/>
<path d="M238.635 73.1877H188.119L184.551 67.2432H235.067L238.635 73.1877Z" fill="#F99746"/>
<path d="M133.07 61.2144C131.732 56.9179 125.919 56.1124 123.578 59.956C123.158 60.6474 122.892 61.4409 122.868 62.3515C122.74 67.3898 132.667 86.8917 133.985 88.6165C136.385 91.7568 150.865 99.3091 150.865 99.3091L153.942 98.8605C153.942 98.8605 152.203 97.7664 150.401 95.966C146.68 92.2483 141.256 86.2047 140.263 85.3667C138.558 83.9291 135.609 69.3723 133.07 61.2144Z" fill="#ED985F"/>
<path d="M219.187 155.888H153.124C149.034 155.888 145.688 152.539 145.688 148.446V108.413C145.688 104.319 149.034 100.97 153.124 100.97H219.187C223.277 100.97 226.623 104.319 226.623 108.413V148.446C226.623 152.539 223.277 155.888 219.187 155.888Z" fill="#FCECDB"/>
<path d="M170.571 118.657C169.01 122.876 164.376 125.011 160.222 123.427C156.067 121.843 153.962 117.141 155.524 112.921C157.084 108.703 161.717 106.567 165.873 108.151C170.027 109.735 172.132 114.44 170.571 118.657Z" fill="#F7E0CB"/>
<path d="M165.873 108.151L160.222 123.427C156.067 121.843 153.962 117.141 155.524 112.921C157.083 108.703 161.717 106.568 165.873 108.151Z" fill="#EFCBAB"/>
<path d="M169.274 146.23C166.467 149.721 161.404 150.239 157.967 147.39C154.529 144.542 154.015 139.403 156.823 135.91C159.629 132.42 164.693 131.901 168.131 134.749C171.569 137.599 172.08 142.74 169.274 146.23Z" fill="#F7E0CB"/>
<path d="M168.128 134.75L157.963 147.391C154.525 144.543 154.012 139.404 156.819 135.911C159.625 132.42 164.69 131.9 168.128 134.75Z" fill="#EFCBAB"/>
<path d="M219.598 118.657C218.038 122.876 213.405 125.011 209.249 123.427C205.094 121.843 202.989 117.141 204.551 112.921C206.112 108.703 210.745 106.567 214.9 108.151C219.054 109.735 221.157 114.44 219.598 118.657Z" fill="#F7E0CB"/>
<path d="M214.9 108.151L209.249 123.427C205.094 121.843 202.989 117.141 204.551 112.921C206.112 108.703 210.746 106.568 214.9 108.151Z" fill="#EFCBAB"/>
<path d="M218.298 146.23C215.586 149.602 210.773 150.201 207.35 147.669C207.227 147.581 207.108 147.488 206.99 147.39C203.552 144.542 203.039 139.403 205.847 135.91C208.653 132.419 213.716 131.899 217.154 134.749C217.271 134.847 217.385 134.945 217.496 135.048C220.625 137.947 221.008 142.858 218.298 146.23Z" fill="#F7E0CB"/>
<path d="M217.496 135.05L207.349 147.669C207.227 147.581 207.108 147.488 206.99 147.39C203.552 144.542 203.039 139.403 205.847 135.91C208.653 132.419 213.716 131.899 217.154 134.749C217.271 134.849 217.385 134.946 217.496 135.05Z" fill="#EFCBAB"/>
<path d="M195.735 112.295C197.635 116.368 195.924 121.233 191.914 123.162C187.903 125.092 183.11 123.358 181.21 119.283C179.309 115.212 181.02 110.345 185.031 108.416C189.039 106.487 193.834 108.224 195.735 112.295Z" fill="#F7E0CB"/>
<path d="M185.029 108.417L191.914 123.164C187.904 125.093 183.111 123.359 181.21 119.285C179.309 115.213 181.019 110.347 185.029 108.417Z" fill="#EFCBAB"/>
<path d="M185.486 148.646C181.364 146.971 179.362 142.222 181.011 138.039C182.661 133.856 187.337 131.821 191.46 133.497C195.579 135.171 197.584 139.921 195.934 144.103C194.285 148.285 189.606 150.319 185.486 148.646Z" fill="#F7E0CB"/>
<path d="M195.935 144.102L181.012 138.039C182.661 133.856 187.337 131.821 191.46 133.497C195.58 135.17 197.584 139.919 195.935 144.102Z" fill="#EFCBAB"/>
<path d="M137.274 36.5645C137.354 36.2417 130.249 39.7788 129.889 40.1785C126.558 43.8784 127.508 48.7051 129.414 48.751C130.638 48.7806 130.4 50.8149 130.4 50.8149L144.022 45.0466C144.021 45.0481 142.382 35.4748 137.274 36.5645Z" fill="#B5453C"/>
<path d="M138.952 37.3108C138.952 37.3108 139.439 32 133.51 32C133.51 32 135.307 32.4871 136.236 33.4628C136.236 33.4628 132.455 31.2405 128.338 34.6546C124.221 38.0688 126.781 46.6323 125.529 48.258C124.278 49.8836 119.403 50.2094 120 55.4668C120.596 60.7243 135.467 67.3083 134.513 71.6582C134.513 71.6582 140.341 63.0843 136.174 59.1697C136.174 59.1697 138.205 61.084 138.412 63.3611C138.412 63.3611 138.964 58.9165 136.138 57.4952C133.638 56.2367 131.59 51.6366 131.806 50.8149C132.022 49.9932 138.952 37.3108 138.952 37.3108Z" fill="#B5453C"/>
<path d="M122.296 152.156L119.347 151.722C119.347 151.722 109.436 143.838 107.96 129.129C107.809 127.632 107.778 126.111 107.889 124.58C107.902 124.404 107.883 124.227 107.785 124.079C107.785 124.077 107.784 124.077 107.782 124.074C107.466 123.587 106.676 122.369 105.606 120.633C104.553 118.925 102.75 115.694 100.765 112.07C97.1907 105.542 93.0295 97.7351 91.602 95.2492C87.0547 87.3238 89.247 81.9953 89.247 81.9953C89.247 81.9953 101.933 80.7398 105.41 77.6958L106.661 79.6279C106.661 79.6279 109.41 91.8069 109.279 91.8632C109.414 92.2778 109.552 92.6982 109.692 93.1276C111.861 99.8286 114.356 108.204 115.717 115.025C116.482 118.863 116.887 122.207 116.67 124.486C116.596 125.267 116.686 126.468 116.895 127.952C118.124 136.694 122.296 152.156 122.296 152.156Z" fill="#2B478B"/>
<path d="M128.479 155.889H116.181C116.181 155.889 115.886 154.013 116.528 152.59C117.144 151.225 118.021 151.18 116.641 149.04C117.422 149.845 119.935 150.178 121.713 149.938C121.931 150.292 123.117 152.664 123.845 153.187C124.648 153.765 128.232 153.56 128.479 155.889Z" fill="#233862"/>
<path d="M109.698 93.1291C108.624 99.0587 106.085 108.928 100.769 112.07C97.1947 105.542 93.0335 97.7351 91.606 95.2492C87.0587 87.3238 89.2509 81.9953 89.2509 81.9953C89.2509 81.9953 101.937 80.7398 105.414 77.6958L106.665 79.6279C106.665 79.6279 109.413 91.8069 109.283 91.8632C109.419 92.2777 109.557 92.6997 109.698 93.1291Z" fill="#233862"/>
<path d="M101.07 82.9117L101.112 80.6094C96.5289 81.1883 85.3101 75.1284 85.3101 75.1284C85.3101 75.1284 80.5158 78.3205 79.859 87.4348C79.538 91.8839 77.5113 110.699 77.288 116.317C77.2066 118.353 77.1785 119.807 77.1696 120.388C77.1711 120.39 77.1711 120.392 77.1696 120.393C77.1667 120.571 77.0838 120.727 76.9744 120.867C76.0262 122.074 75.2037 123.352 74.4907 124.677C67.4981 137.7 71.1549 155.394 71.1549 155.394L72.7791 154.981C72.7791 154.981 78.6918 136.637 82.5572 128.702C83.2125 127.356 83.8086 126.31 84.3071 125.704C85.7598 123.938 87.2923 120.938 88.8027 117.327C91.6577 110.502 94.4298 101.496 96.4061 94.5222C96.5452 94.5474 101.07 82.9117 101.07 82.9117Z" fill="#2B478B"/>
<path d="M127.891 67.5469C120.399 65.8265 125.186 55.2894 125.62 55.4744C126.659 55.2627 128.938 53.4387 130.978 49.875L131.254 50.1148L135.856 54.1523C135.856 54.1523 134.792 55.7232 133.897 57.2615C133.197 58.4652 132.604 59.6526 132.697 60.0597C133.066 60.3499 129.89 68.0058 127.891 67.5469Z" fill="#FFB27D"/>
<path d="M132.619 59.7188C132.619 59.7188 133.936 62.3201 134.64 64.5735C135.343 66.8269 137.102 73.9943 137.102 73.9943C137.102 73.9943 133.474 78.1368 128.43 77.894C128.43 77.894 125.717 73.6434 126.673 69.8058C127.628 65.9682 132.619 59.7188 132.619 59.7188Z" fill="#91CECF"/>
<path d="M135.855 54.1537C135.855 54.1537 134.791 55.7216 133.896 57.2629C131.036 55.498 131.033 51.9521 131.253 50.1162L135.855 54.1537Z" fill="#ED985F"/>
<path d="M135.978 56.1762C135.978 56.1762 129.032 52.3075 131.505 48.0154C133.978 43.7233 134.748 40.3328 139.288 42.6218C143.827 44.9107 143.737 47.0412 143.259 48.6757C142.783 50.3073 137.848 57.072 135.978 56.1762Z" fill="#FFB27D"/>
<path d="M144.434 46.1688C144.116 44.2634 143.149 44.0812 142.474 44.2086C139.909 39.9623 135.717 41.6191 135.717 41.6191C133.479 44.4307 130.242 44.9104 130.242 44.9104C130.242 44.9104 131.048 46.4117 134.369 47.3414C135.384 47.6257 136.535 47.454 137.646 47.0794C135.341 48.3645 132.932 48.8576 132.932 48.8576C137.309 49.2588 141.473 45.2539 141.905 44.8245C142.107 45.4448 142.461 46.7448 142.249 47.6938C141.961 48.9849 140.816 51.3227 141.516 51.6247C141.516 51.6277 144.912 49.0278 144.434 46.1688Z" fill="#B5453C"/>
<path d="M80.9364 155.889H68.6377C68.6377 155.889 68.3433 154.013 68.9853 152.59C69.6007 151.225 70.5652 150.603 70.3344 148.951C71.1155 149.756 72.3891 150.658 74.1672 150.418C74.3847 150.772 75.574 152.664 76.3018 153.187C77.1051 153.765 80.6879 153.56 80.9364 155.889Z" fill="#233862"/>
<path d="M128.771 75.8999C127.188 76.4522 124.968 76.7557 122.696 77.0029C119.462 77.3568 116.122 77.5966 114.373 78.2969C114.032 78.4331 113.038 78.8492 112.041 79.5717V79.5732C112.041 79.5732 112.015 79.588 111.973 79.625C111.643 79.8663 111.311 80.1446 111.008 80.4585C110.544 80.9367 110.14 81.4934 109.879 82.1345C109.237 83.7202 110.088 88.1174 110.631 90.5218C110.85 91.4886 110.394 92.488 109.514 92.9455C108.285 93.5821 107.076 94.1699 105.888 94.7073C105.825 94.7355 105.764 94.7621 105.702 94.7917C105.714 94.5475 105.717 94.3046 105.717 94.0678C105.718 92.4095 105.508 91.0297 105.508 91.0297C105.217 92.7042 104.115 94.5119 103.088 95.9022C86.5837 102.531 75.0512 99.6494 75.2406 96.3478C75.8915 84.8824 83.6162 75.1315 83.6162 75.1315C98.0229 58.3643 127.165 53.9492 127.165 53.9492C127.165 53.9492 128.56 53.7805 130.245 55.8059C132.668 58.724 132.787 59.4835 132.787 59.4835C132.787 59.4835 133.428 74.2743 128.771 75.8999Z" fill="#ABDDDA"/>
<path d="M122.696 77.0029C119.463 77.3568 116.124 77.5981 114.374 78.2954C113.66 67.6058 118.699 59.5649 118.699 59.5649C118.699 59.5649 121.988 72.9566 122.696 77.0029Z" fill="#91CECF"/>
<path d="M126.091 57.4966C126.091 57.4966 117.986 58.2976 117.336 63.5698C116.687 68.8406 125.107 90.3101 126.313 92.2541C128.508 95.7926 141.435 107.924 141.435 107.924L143.818 106.479C143.818 106.479 134.648 90.9423 133.23 89.4884C131.001 87.2054 128.836 59.3221 126.091 57.4966Z" fill="#FFB27D"/>
<path d="M130.245 67.566C130.245 67.566 131.078 53.976 120.685 57.2614C110.291 60.5482 122.297 83.9231 122.297 83.9231C122.297 83.9231 128.398 83.6211 130.56 78.2941L130.245 67.566Z" fill="#ABDDDA"/>
<path d="M110.633 90.5203C110.852 91.4871 110.396 92.4865 109.516 92.944C108.286 93.5807 107.078 94.1684 105.89 94.7059C105.826 94.503 105.77 94.2913 105.718 94.0663C105.531 93.2298 105.445 92.2274 105.51 91.0282C105.785 85.9528 109.239 82.1108 111.008 80.46C110.544 80.9382 110.14 81.4949 109.88 82.136C109.238 83.7187 110.088 88.1159 110.633 90.5203Z" fill="#91CECF"/>
<path d="M127.164 53.9464C127.164 53.9464 128.433 52.3415 129.29 52.3933C129.29 52.3933 132.757 57.2525 132.785 59.4822C132.787 59.4822 128.461 53.7214 127.164 53.9464Z" fill="#91CECF"/>
<path d="M160.44 100.971C160.44 100.971 158.596 101.003 158.198 100.947C157.807 100.891 157.285 100.72 156.76 100.703C156.244 100.683 155.769 100.851 155.284 100.951C155.211 100.966 155.137 100.972 155.065 100.972H152.005C152.005 100.972 151.699 100.825 151.363 100.285C151.218 100.051 151.199 99.4944 150.869 99.3094C149.017 98.2744 153.946 98.8607 153.946 98.8607C153.946 98.8607 157.041 98.8045 157.326 99.0177C157.834 99.3997 160.556 100.824 160.44 100.971Z" fill="#ED985F"/>
<path d="M152.005 100.972C152.005 100.972 153.883 101.513 154.393 101.863L154.931 102.203C154.931 102.203 155.243 101.855 154.752 101.468C154.493 101.263 153.778 100.667 153.755 99.9811C153.733 99.2957 151.613 99.8938 152.005 100.972Z" fill="#ED985F"/>
<path d="M143.82 106.479C143.82 106.479 145.162 107.673 146.182 107.924C147.203 108.176 148.363 111.102 148.548 111.519C148.732 111.937 147.573 111.334 147.11 110.622C146.645 109.91 146.329 109.631 146.194 109.785C146.058 109.941 146.275 111.891 147.048 112.973C147.821 114.057 148.284 115.016 147.728 114.954C147.172 114.892 143.863 114.088 143.182 112.076C142.502 110.064 143 109.993 141.437 107.924C139.873 105.854 143.82 106.479 143.82 106.479Z" fill="#FFB27D"/>
<path d="M304.453 154.318C304.453 155.665 303.902 156.887 303.015 157.775C302.127 158.663 300.905 159.214 299.559 159.214H276.457C273.767 159.214 271.566 157.01 271.566 154.318C271.566 152.971 272.117 151.75 273.003 150.861C273.89 149.975 275.113 149.424 276.457 149.424H299.559C302.25 149.422 304.453 151.626 304.453 154.318Z" fill="#2B478B"/>
<path d="M292.535 154.318C292.535 155.665 291.984 156.887 291.098 157.775C290.211 158.663 288.988 159.214 287.643 159.214H276.457C273.767 159.214 271.566 157.01 271.566 154.318C271.566 152.971 272.117 151.75 273.003 150.861C273.89 149.975 275.113 149.424 276.457 149.424H287.643C290.334 149.422 292.535 151.626 292.535 154.318Z" fill="#699FF0"/>
<path opacity="0.4" d="M299.952 152.052H277.915C277.534 152.052 277.223 151.741 277.223 151.359V151.203C277.223 150.822 277.536 150.51 277.915 150.51H299.952C300.333 150.51 300.645 150.822 300.645 151.203V151.359C300.646 151.741 300.335 152.052 299.952 152.052Z" fill="#E9F3FE"/>
<path d="M284.737 140.449C285.377 141.726 285.435 143.146 285.016 144.409C284.597 145.672 283.699 146.776 282.424 147.416L260.525 158.4C257.976 159.678 254.843 158.636 253.566 156.084C252.926 154.808 252.868 153.387 253.287 152.124C253.708 150.863 254.604 149.759 255.879 149.119L277.776 138.135C280.327 136.855 283.46 137.898 284.737 140.449Z" fill="#EF7E29"/>
<path d="M273.44 146.114C274.079 147.391 274.138 148.811 273.72 150.074C273.301 151.337 272.404 152.441 271.128 153.081L260.525 158.4C257.976 159.678 254.843 158.636 253.566 156.084C252.926 154.808 252.868 153.387 253.287 152.124C253.708 150.863 254.604 149.759 255.879 149.119L266.482 143.802C269.03 142.522 272.163 143.562 273.44 146.114Z" fill="#F99746"/>
<path opacity="0.5" d="M279.397 140.443L258.509 150.92C258.148 151.101 257.703 150.954 257.522 150.591L257.449 150.442C257.267 150.081 257.415 149.636 257.777 149.455L278.665 138.978C279.026 138.796 279.47 138.943 279.652 139.306L279.725 139.455C279.906 139.816 279.759 140.261 279.397 140.443Z" fill="#FFE2CC"/>
</svg>
