<svg width="249" height="172" viewBox="0 0 249 172" fill="none" xmlns="http://www.w3.org/2000/svg">
<g clip-path="url(#clip0_1_18452)">
<path d="M220.216 163.994L219.696 145.449C219.265 145.22 218.967 144.777 218.962 144.26C218.954 143.501 219.568 142.878 220.334 142.87C220.46 142.869 220.581 142.891 220.697 142.919L246.226 116.758C246.146 116.585 246.098 116.397 246.095 116.195C246.092 115.895 246.186 115.621 246.345 115.396L209.182 66.4258C209.566 66.2259 209.949 66.0288 210.335 65.8223L247.513 114.81C248.26 114.826 248.863 115.421 248.871 116.165C248.879 116.923 248.265 117.546 247.497 117.554C247.418 117.556 247.341 117.544 247.263 117.533L221.652 143.78C221.702 143.922 221.737 144.071 221.738 144.23C221.743 144.767 221.432 145.233 220.98 145.463L221.5 163.981L221.533 165.163L221.57 166.45C221.579 166.804 221.3 167.101 220.945 167.11C220.942 167.11 220.938 167.11 220.934 167.11C220.585 167.114 220.295 166.836 220.284 166.487L220.248 165.174L220.216 163.994Z" fill="#213360"/>
<path d="M221.535 165.162C227.665 165.163 232.52 165.98 232.532 167.047C232.544 168.158 227.288 169.119 220.791 169.191C214.293 169.264 209.016 168.42 209.004 167.309C208.992 166.226 213.986 165.286 220.251 165.172L220.287 166.484C220.297 166.834 220.586 167.112 220.937 167.108C220.941 167.108 220.945 167.108 220.947 167.108C221.303 167.098 221.582 166.801 221.572 166.447L221.535 165.162Z" fill="#213360"/>
<path d="M195.283 65.4479C198.425 70.3205 199.102 75.4819 196.796 76.9738C194.491 78.467 190.074 75.7276 186.934 70.8538C183.793 65.9799 183.115 60.8197 185.421 59.3279C187.726 57.8333 192.143 60.574 195.283 65.4479Z" fill="#FF6B6B"/>
<path d="M176.54 163.858L175.324 169.805C175.154 170.626 174.44 171.22 173.602 171.235L90.0942 172C89.4152 172.014 88.9235 171.358 89.1229 170.706C89.3587 169.94 90.0618 169.412 90.8634 169.404L120.532 169.073L130.188 123.426C130.537 121.778 131.973 120.584 133.654 120.548L183.028 119.435C184.368 119.405 185.388 120.63 185.116 121.946L176.54 163.858Z" fill="#213360"/>
<path d="M112.626 7.12335C112.84 8.68813 112.479 10.4055 111.35 11.5072C111 11.8487 110.57 12.108 110.109 12.274C109.075 12.644 107.881 12.5454 107.063 11.8258L107.057 11.8109C107.697 11.4883 108.266 10.9995 108.664 10.4082C109.669 8.91495 109.771 6.97484 109.465 5.2008C109.372 4.66615 109.238 4.12611 109.04 3.61982C109.95 3.4551 110.908 3.87364 111.533 4.55949C112.168 5.2548 112.495 6.18773 112.626 7.12335Z" fill="#FFB27D"/>
<path d="M100.129 11.206C100.745 11.052 101.371 10.8657 101.945 10.5957L101.964 10.6362C101.934 11.2033 101.71 11.7527 101.351 12.1929C101.12 12.4764 100.835 12.7113 100.511 12.8787H100.503C100.46 12.3063 100.336 11.7406 100.129 11.206Z" fill="#FFB27D"/>
<path d="M105.575 7.00962C105.685 8.37728 105.589 9.83405 104.829 10.9735C104.599 11.3219 104.292 11.627 103.941 11.8633C103.165 12.3912 102.179 12.5869 101.351 12.1913C101.709 11.7512 101.933 11.2017 101.964 10.6347L101.945 10.5942C102.404 10.3768 102.829 10.1014 103.194 9.74764C104.011 8.94432 104.412 7.61041 103.838 6.61943C103.653 6.29946 103.359 6.02404 103 5.95113C102.676 5.88497 102.346 5.98758 102.033 6.08749C101.661 6.20765 101.285 6.32646 100.913 6.44662C100.61 5.32873 100.275 4.20409 99.6401 3.24011C99.1983 2.5691 98.5799 1.98181 97.8633 1.63888V1.63618L97.8808 1.60107C99.0164 0.624945 100.465 -0.262077 101.923 0.0700498C102.887 0.288768 103.607 0.977324 104.133 1.83464C104.478 2.39494 104.739 3.02544 104.93 3.63974C105.268 4.73468 105.487 5.86607 105.575 7.00962Z" fill="#FFB27D"/>
<path d="M109.039 3.61992C109.237 4.12621 109.372 4.66625 109.465 5.20089C109.77 6.97494 109.668 8.91505 108.663 10.4083C108.266 10.9996 107.696 11.4884 107.056 11.811C106.081 12.3025 104.937 12.4105 103.975 11.9109L103.941 11.865C104.292 11.6288 104.6 11.3236 104.829 10.9753C105.589 9.83447 105.685 8.3777 105.575 7.01139C105.485 5.86785 105.268 4.73646 104.929 3.64287C104.738 3.02857 104.476 2.39807 104.131 1.83777L104.305 1.72841C105.205 0.807637 106.826 0.9737 107.809 1.80402C108.376 2.28196 108.768 2.92056 109.039 3.61992Z" fill="#FFB27D"/>
<path d="M100.912 6.44673C101.284 6.32657 101.659 6.20776 102.031 6.0876C102.345 5.98634 102.675 5.88508 102.998 5.95124C103.359 6.02414 103.652 6.30092 103.836 6.61954C104.41 7.61052 104.01 8.94443 103.192 9.74775C102.829 10.1015 102.403 10.3769 101.944 10.5943C101.37 10.8656 100.743 11.052 100.128 11.2045C100.335 11.7392 100.459 12.3049 100.502 12.876H100.51C100.834 12.7099 101.119 12.4736 101.35 12.1901C102.179 12.5857 103.164 12.3899 103.94 11.862L103.974 11.9079C104.935 12.4088 106.079 12.2995 107.054 11.808L107.061 11.8229C107.88 12.5425 109.074 12.641 110.107 12.2711L110.119 12.3076C110.294 13.2621 110.22 14.2625 109.912 15.1833C109.479 16.4726 108.601 17.5838 108.228 18.892C107.981 19.7534 107.972 20.6769 108.174 21.676C103.777 22.158 99.2965 21.8501 95.006 20.7741L95.0101 20.7538C94.5628 18.3844 93.3585 16.2418 92.3697 14.0424C91.3823 11.8445 90.5902 9.41967 91.0388 7.05158C91.3594 5.35989 92.3091 3.82076 93.5848 2.66777C94.42 1.91171 95.4667 1.29066 96.5929 1.32036C97.0361 1.33116 97.4645 1.44727 97.8619 1.63628V1.63899C98.5785 1.98056 99.1968 2.56921 99.6387 3.24022C100.273 4.20419 100.609 5.32884 100.912 6.44673Z" fill="#FFB27D"/>
<path d="M16.0674 12.0957C15.7509 12.6992 15.5165 13.3486 15.3696 14.0129C14.7392 13.9899 14.1182 13.7037 13.6965 13.2338L13.6602 13.2136C13.78 12.9962 13.8824 12.7694 13.97 12.5385C14.688 12.4791 15.4047 12.2631 16.0674 12.0957Z" fill="#FFB27D"/>
<path d="M6.453 5.26416C6.63217 5.33706 6.8019 5.43562 6.95817 5.55443C7.44178 5.92976 7.75296 6.48196 8.02911 7.02875C8.71613 8.39506 9.2671 9.83023 9.67123 11.3086C9.97028 12.4022 10.1521 13.6834 9.45973 14.5786C9.45165 14.5894 9.44357 14.5988 9.43414 14.6096C8.7323 15.4804 7.47411 15.6128 6.34928 15.6276C6.39777 15.552 6.43684 15.4696 6.46782 15.3819C6.62543 14.9566 6.5958 14.4881 6.53652 14.0399C6.27653 12.0377 5.46693 10.1057 4.2222 8.51792C3.94336 8.16285 3.6214 7.81047 3.22266 7.6255L3.26576 7.53774C3.37353 6.60347 3.69684 5.7313 4.60478 5.30196C5.17999 5.02789 5.86702 5.02384 6.453 5.26416Z" fill="#FFB27D"/>
<path d="M85.7212 71.2598C86.3288 71.2531 86.8258 71.7405 86.8326 72.3494C86.8393 72.9556 86.353 73.4538 85.7455 73.4605C85.1406 73.4673 84.6435 72.9799 84.6368 72.3737C84.6301 71.7648 85.115 71.2666 85.7212 71.2598Z" fill="#20140F"/>
<path d="M15.5487 3.64257C16.9672 4.96298 17.8401 6.36844 18.4652 8.20189V8.20459C18.1365 8.20189 17.8037 8.23699 17.475 8.26805L13.7516 8.64743C13.5913 8.66363 13.427 8.68388 13.2613 8.70818C12.9663 7.60244 12.4921 6.5426 11.8576 5.58808C11.634 5.2519 11.3915 4.92787 11.1113 4.6376L11.1935 4.55659C11.7674 3.71682 12.7036 3.13628 13.7072 2.99586C14.0332 2.94726 14.3754 2.94726 14.6865 3.05797C15.0179 3.17408 15.2927 3.4063 15.5487 3.64257Z" fill="#FFB27D"/>
<path d="M72.863 64.0225C73.1499 64.2439 73.3264 64.6462 73.1782 64.9743C73.0745 65.2011 72.8414 65.3442 72.6016 65.4063C72.3605 65.4685 72.1113 65.4631 71.8634 65.4739C71.1912 65.4995 70.5069 65.6494 69.9519 66.0328C69.6609 66.234 69.4131 66.4932 69.1059 66.6646C68.7974 66.8348 68.3919 66.8982 68.1023 66.6943C67.8262 66.4972 67.748 66.1003 67.8437 65.7709C67.9393 65.4441 68.1764 65.1768 68.4324 64.95C69.4481 64.0454 70.8652 63.6094 72.215 63.7903C72.211 63.7282 72.5774 63.8038 72.863 64.0225Z" fill="#213360"/>
<path d="M12.7333 12.4483C13.1415 12.5563 13.5577 12.5738 13.9713 12.5387C13.8851 12.7696 13.7814 12.9964 13.6615 13.2138C13.2775 13.9118 12.7306 14.5166 12.018 14.8528C11.2097 15.2349 10.1725 15.1782 9.47871 14.6449L9.43426 14.6085C9.44369 14.5977 9.45177 14.5882 9.45985 14.5774C10.1523 13.6823 9.9704 12.401 9.67135 11.3074C9.26722 9.82906 8.71625 8.39389 8.02923 7.02758C7.75308 6.48079 7.4419 5.92859 6.95829 5.55326C6.80202 5.43445 6.63229 5.33724 6.45312 5.26299C6.85052 4.65409 7.28833 4.02359 7.94706 3.72386C8.66237 3.39443 9.5299 3.52674 10.2142 3.91828C10.5497 4.10999 10.8447 4.35706 11.1114 4.63654C11.3902 4.92681 11.6341 5.25219 11.8577 5.58701C12.4922 6.54154 12.9664 7.60003 13.2614 8.70712C12.4275 8.83268 11.5775 9.09595 11.2097 9.82501C10.6898 10.8605 11.6139 12.1512 12.7333 12.4483Z" fill="#FFB27D"/>
<path d="M6.34796 15.6266C7.47278 15.6117 8.73098 15.4794 9.43282 14.6086L9.47727 14.6451C10.1724 15.1784 11.2083 15.2351 12.0166 14.853C12.7305 14.5168 13.2761 13.912 13.66 13.2139L13.6964 13.2342C14.118 13.704 14.739 13.9903 15.3695 14.0132C15.5163 13.3476 15.7507 12.6996 16.0673 12.0961C15.4045 12.2648 14.6879 12.4795 13.9699 12.5389C13.5563 12.574 13.1387 12.5564 12.7319 12.4484C11.6138 12.1514 10.6883 10.8607 11.2096 9.82652C11.5774 9.09746 12.4274 8.83419 13.2613 8.70863C13.427 8.68433 13.5913 8.66408 13.7516 8.64788L17.475 8.2685C17.8037 8.23609 18.1364 8.20234 18.4651 8.20504C18.7938 8.20504 19.1212 8.24014 19.435 8.34275C20.6986 8.75588 21.391 10.1762 21.453 11.5074C21.5163 12.8386 21.0987 14.1361 20.832 15.4416C20.2217 18.451 20.4319 21.6251 21.4328 24.5306C16.4593 25.9995 11.9236 27.1106 6.7898 27.0958C6.76017 26.9459 6.72784 26.7947 6.68877 26.6448C6.68877 26.6421 6.68877 26.6408 6.68877 26.6408C6.37624 25.3514 5.81181 24.1255 5.03588 23.0495C4.31518 22.0518 3.42205 21.1945 2.66767 20.2237C0.377603 17.2697 -0.518219 13.2747 0.294083 9.61996C0.400504 8.98945 0.841006 8.33735 1.44585 7.90667C1.87154 7.60289 2.40768 7.40982 2.91824 7.51918C3.02466 7.54214 3.12569 7.57859 3.22268 7.62179C3.62142 7.80676 3.94338 8.15914 4.22223 8.51422C5.46695 10.1033 6.27656 12.034 6.53655 14.0362C6.59582 14.4858 6.62546 14.9529 6.46785 15.3782C6.43552 15.4686 6.39645 15.551 6.34796 15.6266Z" fill="#FFB27D"/>
<path d="M83.9885 80.376C84.0006 81.2739 83.482 82.1001 82.838 82.7266C81.8048 83.7338 80.4119 84.3575 78.9732 84.4885C77.5359 84.6167 76.0662 84.2536 74.8363 83.4989C74.2867 83.1586 73.7734 82.7333 73.4447 82.1744C73.1174 81.6155 72.9961 80.9134 73.2332 80.3112C73.6508 79.2554 74.9602 78.8707 76.0918 78.9125C77.222 78.9544 78.3576 79.2798 79.4676 79.0664C80.5089 78.8653 81.557 78.1997 82.5498 78.5682C83.2247 78.8167 83.9777 79.4809 83.9885 80.376Z" fill="white"/>
<path d="M48.2826 145.081C44.8582 134.486 38.6306 125.238 32.3073 116.002L32.2655 116.03C30.8713 117.383 30.2072 118.567 29.5403 120.398C28.2094 124.057 28.3199 128.088 28.8533 131.947C29.9391 139.777 32.6804 147.266 35.4029 154.687C36.5022 157.68 37.5987 160.673 38.6979 163.666L50.1927 163.682H53.9848L48.2826 145.081Z" fill="#213360"/>
<path d="M71.6829 71.4171C72.2877 71.4103 72.7848 71.8977 72.7915 72.5066C72.7983 73.1128 72.312 73.611 71.7071 73.6178C71.0996 73.6245 70.6025 73.1371 70.5958 72.5309C70.589 71.922 71.0753 71.4238 71.6829 71.4171Z" fill="#20140F"/>
<path d="M88.3368 65.5424C88.4406 65.8691 88.3719 66.2687 88.0998 66.4713C87.8155 66.6819 87.4087 66.6279 87.0962 66.4645C86.7836 66.2984 86.5304 66.0446 86.2367 65.8516C85.6736 65.4816 84.9853 65.3466 84.3131 65.3358C84.0652 65.3304 83.8133 65.3412 83.5735 65.2845C83.3337 65.2278 83.0966 65.0901 82.9875 64.866C82.8312 64.542 82.9996 64.1342 83.2812 63.9074C83.5614 63.6819 83.9264 63.5982 83.9251 63.6603C85.2695 63.4497 86.6961 63.8534 87.732 64.7364C87.9906 64.9551 88.2331 65.217 88.3368 65.5424Z" fill="#213360"/>
<path d="M87.7176 53.7844C85.1474 55.3761 81.8268 55.9999 78.6031 56.1174C76.6014 56.1889 74.6009 56.0863 72.6032 55.9945C71.6952 55.954 70.7037 55.8055 69.8025 55.8797C69.0616 55.9391 63.7419 56.7884 60.3068 62.2347C60.1896 62.4197 60.0657 62.5979 59.9498 62.7842C57.7568 66.3377 56.8232 70.8066 57.9265 74.8339C57.9736 75.0027 57.9036 75.189 57.785 75.3186C57.6652 75.4482 57.5008 75.5279 57.3351 75.5846C57.0078 75.7007 56.64 75.7372 56.31 75.6291C55.9772 75.5211 55.6876 75.2498 55.6189 74.9055C55.0046 73.9577 54.0307 73.2516 52.9557 73.0788C52.5691 73.0153 52.1703 73.0221 51.7851 73.0936C51.6732 72.8601 51.5601 72.6279 51.4483 72.3943C49.2431 67.0411 48.2045 60.8913 50.8677 55.9513C52.9516 52.0859 56.9593 49.6301 61.0558 48.0667C65.1523 46.5046 69.5008 45.6513 73.5556 43.9812C76.1272 42.2868 79.0733 40.745 82.2659 40.5425C84.2529 40.4169 86.2735 40.8314 88.0531 41.7306C88.8586 42.137 89.6238 42.646 90.2165 43.3251C91.4154 44.6941 91.8074 46.6693 91.4491 48.4541C91.0935 50.2403 90.0508 51.8416 88.7212 53.0864C88.402 53.3375 88.0665 53.5683 87.7176 53.7844Z" fill="#213360"/>
<path d="M55.1951 81.3997C53.6864 82.0356 51.8274 81.8507 50.518 80.8489C48.9122 79.6189 48.2764 77.2684 49.0416 75.3944C49.249 74.8827 49.5521 74.4075 49.9482 74.0227C50.4493 73.5367 51.0972 73.2153 51.7829 73.0925C52.1682 73.0209 52.5656 73.0142 52.9535 73.0776C54.0285 73.2505 55.0025 73.9566 55.6167 74.9043C55.6855 75.2473 55.9751 75.5186 56.3078 75.628C56.6379 75.736 57.0056 75.6996 57.333 75.5834C57.4986 75.5267 57.663 75.4471 57.7829 75.3175C57.9014 75.1879 57.9701 75.0015 57.9243 74.8328C56.8211 70.8054 57.7546 66.3365 59.9477 62.783C60.0635 62.5967 60.1875 62.4185 60.3047 62.2335C63.7411 56.7872 69.0595 55.938 69.8004 55.8786C70.7016 55.8057 71.6931 55.9528 72.601 55.9933C74.5987 56.0851 76.5992 56.1864 78.601 56.1162C81.8232 55.9987 85.1439 55.375 87.7155 53.7832C88.4348 56.4146 89.1569 59.0446 89.8776 61.676C92.6445 71.7829 93.2197 79.6392 91.5197 85.0261C90.539 88.1314 88.8026 90.4171 86.2929 91.8415C83.5125 93.4184 80.3859 94.3284 77.2054 94.5727C77.3845 95.3504 77.6082 96.12 77.8722 96.8747C78.1511 97.6632 78.4905 98.4597 79.0886 99.0457C79.1519 99.1078 79.2206 99.1658 79.2893 99.2252C77.2431 101.797 73.7002 102.916 70.4402 102.509C67.1398 102.093 64.1318 100.295 61.7353 97.9818L61.5359 97.9345C61.6518 97.2554 61.4618 96.5493 61.2571 95.8851C59.7389 90.9058 57.5593 86.1575 55.3864 81.4294L55.1951 81.3997ZM88.0967 66.4715C88.3688 66.269 88.4375 65.8694 88.3338 65.5427C88.2301 65.2186 87.9876 64.9554 87.7276 64.7353C86.6917 63.8523 85.2651 63.45 83.9207 63.6593C83.922 63.5985 83.557 63.6822 83.2768 63.9063C82.9952 64.1332 82.8268 64.5409 82.9831 64.8649C83.0909 65.089 83.328 65.2281 83.5691 65.2834C83.8089 65.3402 84.0608 65.3294 84.3086 65.3348C84.9808 65.3456 85.6692 65.4806 86.2323 65.8505C86.5273 66.0449 86.7792 66.2987 87.0918 66.4634C87.407 66.6268 87.8138 66.6822 88.0967 66.4715ZM86.8304 72.3486C86.8237 71.7397 86.3266 71.2523 85.7191 71.259C85.1142 71.2658 84.6279 71.764 84.6346 72.3729C84.6414 72.9791 85.1385 73.4665 85.7433 73.4597C86.3509 73.4543 86.8372 72.9561 86.8304 72.3486ZM82.8376 82.7269C83.4802 82.1004 84.0002 81.2742 83.988 80.3763C83.9759 79.4812 83.2229 78.817 82.5493 78.5685C81.5565 78.2013 80.5085 78.8656 79.4672 79.0667C78.3558 79.28 77.2215 78.9547 76.0913 78.9128C74.9598 78.871 73.649 79.2557 73.2328 80.3115C72.9957 80.9123 73.1169 81.6157 73.4443 82.1747C73.773 82.7336 74.2862 83.1589 74.8358 83.4991C76.0657 84.2552 77.5354 84.617 78.9728 84.4888C80.4115 84.3578 81.8044 83.7341 82.8376 82.7269ZM73.1776 64.9743C73.3257 64.6462 73.1493 64.2439 72.8623 64.0224C72.5781 63.8037 72.2103 63.7281 72.2144 63.7889C70.8659 63.608 69.4488 64.044 68.4317 64.9486C68.1758 65.1754 67.94 65.4428 67.843 65.7695C67.7474 66.0989 67.8242 66.4972 68.1017 66.693C68.39 66.8968 68.7954 66.8334 69.1053 66.6633C69.4124 66.4904 69.6616 66.2312 69.9513 66.0314C70.5063 65.648 71.1906 65.4981 71.8628 65.4725C72.1106 65.4617 72.3599 65.4671 72.601 65.405C72.8408 65.3442 73.0738 65.2011 73.1776 64.9743ZM72.7909 72.5052C72.7842 71.8963 72.2871 71.4089 71.6823 71.4157C71.0747 71.4224 70.5884 71.9206 70.5952 72.5295C70.6019 73.1357 71.099 73.6231 71.7065 73.6163C72.3127 73.6109 72.7977 73.1127 72.7909 72.5052Z" fill="#FFB27D"/>
<path d="M196.604 70.4914C199.183 70.0718 200.935 67.6355 200.517 65.0498C200.098 62.4642 197.667 60.7082 195.087 61.1279C192.507 61.5475 190.755 63.9838 191.174 66.5695C191.593 69.1551 194.024 70.911 196.604 70.4914Z" fill="white"/>
<path d="M209.181 66.4257C207.543 67.2641 205.899 68.0728 204.132 69.1002C203.139 69.6754 202.135 70.2627 201.328 71.0782C199.573 72.8522 198.866 75.5916 196.805 76.9862L196.797 76.9741C199.102 75.4822 198.425 70.3207 195.284 65.4482C192.144 60.5743 187.728 57.8336 185.422 59.3281C186.863 57.9942 188.931 57.9578 190.871 57.6608C195.737 56.9182 199.901 53.9115 204.093 51.3301C205.123 50.6982 206.239 50.0637 207.446 50.1001C208.733 50.1352 209.874 50.9264 210.823 51.7999C212.682 53.5119 215.293 57.3408 215.34 61.6328C215.248 62.6764 214.673 63.2651 213.614 63.9361C212.488 64.6516 211.406 65.2578 210.335 65.8235C209.949 66.0287 209.565 66.2259 209.181 66.4257ZM206.787 65.617C207.155 65.4293 207.302 64.9784 207.116 64.6098C206.928 64.2398 206.478 64.0913 206.108 64.279L203.437 65.6386C203.069 65.8262 202.922 66.2772 203.108 66.6484C203.295 67.017 203.745 67.1642 204.116 66.9779L206.787 65.617ZM205.459 62.3699C205.826 62.1823 205.973 61.7313 205.787 61.3601C205.6 60.9915 205.15 60.8443 204.78 61.0306L202.111 62.3902C201.742 62.5779 201.594 63.0288 201.781 63.3974C201.97 63.7673 202.421 63.9158 202.789 63.7268L205.459 62.3699ZM203.55 59.4888C203.918 59.3011 204.064 58.8502 203.879 58.4816C203.691 58.1117 203.241 57.9632 202.871 58.1508L200.201 59.5104C199.833 59.6981 199.686 60.149 199.872 60.5203C200.059 60.8889 200.509 61.036 200.88 60.8497L203.55 59.4888ZM201.428 56.8331C201.797 56.6455 201.945 56.1945 201.757 55.8233C201.57 55.4547 201.12 55.3075 200.752 55.4938L198.081 56.8534C197.713 57.0411 197.566 57.492 197.752 57.8606C197.939 58.2305 198.389 58.379 198.757 58.1913L201.428 56.8331Z" fill="#213360"/>
<path d="M207.116 64.6098C207.303 64.9784 207.155 65.4293 206.787 65.617L204.116 66.9765C203.747 67.1642 203.296 67.0157 203.108 66.6471C202.921 66.2772 203.069 65.8249 203.437 65.6372L206.108 64.2777C206.478 64.0913 206.929 64.2399 207.116 64.6098Z" fill="#FF6B6B"/>
<path d="M205.788 61.3609C205.975 61.7308 205.827 62.1831 205.459 62.3708L202.788 63.7277C202.42 63.9167 201.97 63.7695 201.78 63.3982C201.593 63.0297 201.741 62.5787 202.11 62.3911L204.779 61.0315C205.149 60.8438 205.601 60.9923 205.788 61.3609Z" fill="#FF6B6B"/>
<path d="M203.88 58.4803C204.068 58.8489 203.919 59.2998 203.552 59.4875L200.882 60.847C200.513 61.0347 200.061 60.8862 199.874 60.5176C199.687 60.1477 199.835 59.6954 200.203 59.5077L202.873 58.1482C203.242 57.9632 203.693 58.1104 203.88 58.4803Z" fill="#FF6B6B"/>
<path d="M201.756 55.8233C201.945 56.1933 201.798 56.6456 201.427 56.8332L198.756 58.1928C198.388 58.3804 197.938 58.2319 197.751 57.862C197.564 57.4934 197.712 57.0425 198.08 56.8548L200.751 55.4953C201.119 55.3062 201.57 55.4548 201.756 55.8233Z" fill="#FF6B6B"/>
<path d="M107.785 132.455C107.507 131.299 107.231 130.14 106.957 128.98C107.879 112.405 116.221 85.2377 116.022 68.3032C115.823 51.3688 113.145 38.7898 108.393 22.5372C108.303 22.2455 108.23 21.9566 108.175 21.6758C103.778 22.1578 99.2978 21.85 95.0073 20.7739C94.9763 20.7658 94.944 20.7577 94.913 20.751C96.6575 34.8556 96.4945 49.0655 95.3764 63.1498C94.7877 70.5498 93.9081 78.0335 91.6625 85.0716C91.0522 86.9887 90.3396 88.8694 89.5044 90.7096C87.7895 94.49 85.2772 98.2838 81.3814 99.6649C80.6849 99.9309 79.8807 99.696 79.292 99.2262C77.2458 101.798 73.7029 102.917 70.4429 102.51C67.1425 102.094 64.1345 100.295 61.738 97.9827L61.5386 97.9354C61.5305 97.9867 61.5197 98.038 61.5076 98.088C61.3311 98.8171 60.6293 99.4705 59.8978 99.3233L59.8211 99.3463C50.879 94.2537 47.2418 88.5549 42.9648 81.4776C38.6877 74.4003 35.615 66.6669 32.7565 58.9051C28.5885 47.5817 24.8288 36.1071 21.496 24.511L21.4354 24.5286C16.4619 25.9975 11.9262 27.1086 6.79244 27.0938C6.7628 26.9439 6.73047 26.7927 6.69141 26.6429C6.80187 27.6433 8.93837 75.1523 19.7933 96.102C23.3874 103.038 27.8705 109.518 32.3065 116C38.6298 125.236 44.8575 134.484 48.2818 145.079V145.102C48.2818 145.102 48.2872 145.104 48.2899 145.104L53.9854 163.679L65.1205 163.701L115.283 163.77L115.281 163.698C112.784 153.283 110.283 142.87 107.785 132.455Z" fill="#FF6B6B"/>
<path d="M158.714 147.058C160.725 145.148 160.967 142.133 159.255 140.322C157.543 138.512 154.525 138.593 152.515 140.502C150.505 142.412 150.263 145.427 151.975 147.238C153.687 149.048 156.704 148.968 158.714 147.058Z" fill="white"/>
<path d="M106.812 11.8994C106.812 12.0101 106.812 12.0925 106.812 12.2153C106.705 12.2248 106.595 12.2356 106.459 12.2477C106.459 12.1249 106.459 12.029 106.459 11.8994C106.563 11.8994 106.687 11.8994 106.812 11.8994Z" fill="#FF6B6B"/>
<path d="M105.314 12.2414C105.325 12.0547 105.47 12.1345 105.564 12.1156C105.553 12.3036 105.409 12.2225 105.314 12.2414Z" fill="#FF6B6B"/>
<path d="M101.201 12.1484C101.285 12.1484 101.367 12.1484 101.451 12.1484C101.451 12.1687 101.451 12.1904 101.451 12.2107C101.367 12.2107 101.285 12.2107 101.201 12.2107C101.201 12.1904 101.201 12.1687 101.201 12.1484Z" fill="#FF6B6B"/>
<path d="M105.564 12.1172C105.593 12.0823 105.619 12.0486 105.648 12.0137C105.661 12.0486 105.674 12.0823 105.688 12.1172C105.648 12.1172 105.606 12.1172 105.564 12.1172Z" fill="#FF6B6B"/>
<path d="M13.1875 13.6153C13.2157 13.5803 13.2425 13.5467 13.2707 13.5117C13.2841 13.5467 13.2975 13.5803 13.3109 13.6153C13.2707 13.6153 13.2291 13.6153 13.1875 13.6153Z" fill="#FF6B6B"/>
<path d="M11.6777 14.8532C11.7072 14.8196 11.7354 14.7859 11.7649 14.751C11.7783 14.7644 11.7904 14.7765 11.8038 14.79C11.7703 14.8182 11.7368 14.8478 11.7019 14.8761C11.6938 14.8693 11.6858 14.8613 11.6777 14.8532Z" fill="#FF6B6B"/>
<path d="M9.15486 14.6152C9.15486 14.6569 9.15486 14.6986 9.15486 14.7403C9.14145 14.7403 9.12669 14.7403 9.11328 14.7403C9.11328 14.6986 9.11328 14.6569 9.11328 14.6152C9.12669 14.6152 9.14011 14.6152 9.15486 14.6152Z" fill="#FF6B6B"/>
<path d="M50.8202 76.9697C50.7825 76.9697 50.7448 76.9589 50.7111 76.9373C50.6168 76.8766 50.5885 76.751 50.6492 76.6565C50.9118 76.2434 51.3362 75.941 51.8131 75.8289C52.2899 75.7168 52.8032 75.7965 53.2235 76.049C53.3191 76.107 53.3515 76.2312 53.2935 76.3284C53.2356 76.4243 53.1103 76.4553 53.0147 76.3986C52.6846 76.2002 52.2819 76.1381 51.9074 76.2258C51.5329 76.3136 51.2001 76.5512 50.9927 76.8766C50.9536 76.9373 50.8876 76.9697 50.8202 76.9697Z" fill="#BF453F"/>
<path d="M79.9395 76.728C79.8385 76.728 79.7523 76.6537 79.7388 76.5511C79.724 76.4391 79.8021 76.3378 79.9139 76.323C80.5727 76.2365 81.3432 75.8207 81.5762 75.0822C81.8416 74.2424 81.3055 73.3824 81.063 73.0516C80.8232 72.7263 80.5349 72.4238 80.2574 72.1322C80.0015 71.8635 79.7361 71.5868 79.5031 71.2843C79.2026 70.8969 78.9319 70.4446 78.6759 69.9018C78.6274 69.8006 78.6719 69.6791 78.7729 69.6305C78.874 69.5832 78.9952 69.6264 79.0437 69.7277C79.2862 70.2434 79.5421 70.6701 79.8237 71.0346C80.0446 71.3195 80.3019 71.5895 80.5511 71.85C80.838 72.1511 81.1357 72.463 81.3903 72.8086C81.9817 73.6133 82.1905 74.4868 81.9642 75.2037C81.715 75.9908 80.9121 76.6011 79.9665 76.7253C79.957 76.7266 79.9489 76.728 79.9395 76.728Z" fill="#BF453F"/>
<path d="M100.903 6.65368C100.814 6.65368 100.732 6.59427 100.708 6.50381C100.402 5.37782 100.076 4.28963 99.4606 3.35536C99.0134 2.67895 98.4112 2.13486 97.766 1.82568C97.6649 1.77708 97.6218 1.65557 97.6703 1.55431C97.7188 1.45305 97.8401 1.40985 97.9411 1.45845C98.6524 1.79868 99.3124 2.39273 99.8001 3.13124C100.449 4.11547 100.785 5.23741 101.1 6.39716C101.13 6.50517 101.066 6.61722 100.957 6.64693C100.938 6.65098 100.921 6.65368 100.903 6.65368Z" fill="#BF453F"/>
<path d="M99.3993 17.1223C99.3589 17.1223 99.3172 17.1101 99.2808 17.0845C99.1892 17.0197 99.169 16.8914 99.2337 16.801C100.349 15.2402 100.623 13.0733 99.9315 11.2831C99.9099 11.2291 99.9139 11.1683 99.9409 11.1157C99.9678 11.0644 100.015 11.0265 100.072 11.0117C101.093 10.7565 102.243 10.3906 103.042 9.60623C103.746 8.91498 104.199 7.67153 103.651 6.7251C103.473 6.41727 103.216 6.20936 102.948 6.154C102.667 6.0973 102.356 6.1972 102.081 6.28496L97.706 7.68773C96.8857 7.951 96.037 8.22372 95.3163 8.70436C94.5377 9.2228 94.0285 9.94376 93.9166 10.6823C93.9005 10.793 93.7968 10.8713 93.685 10.8537C93.5745 10.8375 93.4977 10.7336 93.5139 10.6215C93.6418 9.7696 94.2171 8.94738 95.09 8.36548C95.8578 7.85379 96.7334 7.57162 97.5808 7.30024L101.956 5.89748C102.262 5.79892 102.643 5.67606 103.027 5.75437C103.408 5.83132 103.764 6.1108 104 6.51988C104.657 7.65532 104.157 9.07834 103.323 9.89651C102.514 10.6904 101.402 11.0833 100.385 11.3506C101.024 13.2218 100.709 15.4306 99.561 17.0372C99.5246 17.0926 99.4627 17.1223 99.3993 17.1223Z" fill="#BF453F"/>
<path d="M96.2559 8.18843C96.1711 8.18843 96.0916 8.13443 96.0633 8.04937C95.8289 7.34461 95.4706 6.69791 94.9977 6.12681C94.9263 6.0404 94.9384 5.91214 95.0247 5.84059C95.1109 5.76903 95.2388 5.78118 95.3102 5.86759C95.8141 6.47784 96.198 7.1691 96.4472 7.92111C96.4822 8.02777 96.4257 8.14253 96.3192 8.17898C96.299 8.18438 96.2775 8.18843 96.2559 8.18843Z" fill="#BF453F"/>
<path d="M100.504 13.0824C100.429 13.0824 100.358 13.0419 100.323 12.9717C100.272 12.8718 100.312 12.7489 100.412 12.6976C101.181 12.3034 101.706 11.4919 101.752 10.6279C101.758 10.5158 101.855 10.4294 101.965 10.4348C102.077 10.4402 102.163 10.5361 102.158 10.6481C102.105 11.6553 101.492 12.6017 100.596 13.0594C100.565 13.0756 100.534 13.0824 100.504 13.0824Z" fill="#BF453F"/>
<path d="M102.295 12.601C101.934 12.601 101.592 12.5308 101.295 12.3972C101.193 12.3513 101.147 12.2298 101.194 12.1272C101.24 12.0245 101.36 11.98 101.464 12.0259C102.613 12.547 104.015 11.8288 104.655 10.8648C105.267 9.94402 105.5 8.68842 105.368 7.02914C105.279 5.90449 105.063 4.78525 104.728 3.70381C104.52 3.03551 104.259 2.44281 103.952 1.94327C103.893 1.84741 103.922 1.72185 104.018 1.66245C104.114 1.60304 104.239 1.63275 104.298 1.7286C104.624 2.2565 104.899 2.88025 105.117 3.58231C105.462 4.69345 105.683 5.84104 105.775 6.99673C105.913 8.75188 105.659 10.0898 104.996 11.0903C104.303 12.1272 103.238 12.601 102.295 12.601Z" fill="#BF453F"/>
<path d="M105.341 12.4471C104.843 12.4471 104.345 12.3391 103.872 12.0934C103.772 12.0421 103.733 11.9192 103.784 11.8193C103.835 11.7194 103.958 11.6802 104.058 11.7315C105.292 12.3715 107.335 12.0056 108.486 10.295C109.566 8.68975 109.5 6.65783 109.253 5.23617C109.134 4.54356 108.956 3.93331 108.725 3.42027C108.68 3.31766 108.725 3.1975 108.828 3.1516C108.93 3.10569 109.05 3.1516 109.096 3.2542C109.342 3.80505 109.526 4.43015 109.654 5.16731C109.912 6.66188 109.978 8.80451 108.822 10.5232C108.094 11.6087 106.724 12.4471 105.341 12.4471Z" fill="#BF453F"/>
<path d="M108.907 12.6914C108.156 12.6914 107.45 12.4484 106.919 11.9812C106.834 11.907 106.826 11.7787 106.9 11.6936C106.974 11.6086 107.102 11.6005 107.187 11.6747C107.9 12.3012 108.99 12.4578 110.031 12.0825C110.136 12.0447 110.253 12.1 110.291 12.2053C110.329 12.3106 110.273 12.4281 110.168 12.4659C109.748 12.6171 109.321 12.6914 108.907 12.6914Z" fill="#BF453F"/>
<path d="M108.012 27.0816C107.43 27.0695 106.876 27.0641 106.336 27.06C103.864 27.0357 101.73 27.0155 98.3906 26.4322L98.4957 25.8301C101.785 26.4039 103.896 26.4241 106.341 26.4484C106.883 26.4538 107.438 26.4592 108.022 26.4714L108.012 27.0816Z" fill="#213360"/>
<path d="M15.6382 18.6303C15.556 18.6303 15.4779 18.579 15.4469 18.4967C14.7343 16.5471 14.8273 14.3073 15.6827 12.4158C14.7437 12.6615 13.6876 12.9275 12.6706 12.6574C11.9701 12.4711 11.3235 11.9203 11.0244 11.252C10.7927 10.7362 10.7914 10.2016 11.0204 9.74661C11.4932 8.80693 12.653 8.56796 13.724 8.45861L17.4474 8.07787C17.7572 8.04682 18.1128 8.01577 18.4604 8.01172C18.5722 8.01172 18.6638 8.10353 18.6625 8.21559C18.6625 8.32764 18.5709 8.4181 18.459 8.4181C18.4564 8.4181 18.4483 8.4181 18.4429 8.4181C18.1169 8.4181 17.7828 8.45186 17.4878 8.48291L13.7644 8.86364C12.8026 8.9622 11.7667 9.16606 11.3827 9.93023C11.1618 10.369 11.2669 10.7997 11.3949 11.0846C11.6454 11.6449 12.1883 12.1066 12.7756 12.2632C13.7146 12.513 14.6966 12.2538 15.6463 12.004C15.7689 11.9716 15.8901 11.9392 16.01 11.9095C16.0882 11.8906 16.1703 11.9176 16.2188 11.981C16.2687 12.0445 16.2767 12.1309 16.239 12.2025C15.257 14.0724 15.1034 16.373 15.8282 18.3563C15.8672 18.4616 15.812 18.579 15.7069 18.6168C15.6854 18.6263 15.6611 18.6303 15.6382 18.6303Z" fill="#BF453F"/>
<path d="M13.2527 8.92818C13.1625 8.92818 13.0803 8.86742 13.056 8.77697C12.7664 7.68608 12.3044 6.65594 11.6793 5.71492C11.4382 5.35174 11.2051 5.05201 10.964 4.79954C10.8872 4.71854 10.8899 4.58892 10.9707 4.51197C11.0516 4.43501 11.1809 4.43771 11.2577 4.51872C11.515 4.78874 11.7628 5.10602 12.0174 5.48945C12.6667 6.46828 13.1476 7.53892 13.448 8.67301C13.4763 8.78102 13.4117 8.89308 13.3039 8.92143C13.2877 8.92548 13.2702 8.92818 13.2527 8.92818Z" fill="#BF453F"/>
<path d="M10.8919 15.318C10.3261 15.318 9.7738 15.1492 9.34677 14.8212C9.25786 14.7523 9.2417 14.6254 9.30905 14.5363C9.37775 14.4472 9.50438 14.431 9.59329 14.4985C10.2008 14.967 11.1586 15.0426 11.9224 14.6834C12.7011 14.3176 13.3504 13.5548 13.7504 12.5354C13.7922 12.4315 13.9094 12.3788 14.0145 12.4207C14.1196 12.4625 14.1707 12.58 14.129 12.6853C13.6898 13.8018 12.9678 14.6429 12.0949 15.0534C11.715 15.2302 11.3001 15.318 10.8919 15.318Z" fill="#BF453F"/>
<path d="M6.26397 15.8446C6.15216 15.8446 6.06191 15.7541 6.06056 15.6434C6.05921 15.5314 6.14947 15.4396 6.26128 15.4382C7.39554 15.4274 8.64161 15.3032 9.28822 14.4675C9.96446 13.594 9.71255 12.2843 9.46334 11.3744C9.0646 9.9149 8.51633 8.48784 7.83469 7.13368C7.58683 6.64224 7.28373 6.08734 6.82033 5.72821C6.67349 5.6148 6.50915 5.52299 6.33133 5.45279C6.22625 5.41229 6.17507 5.29348 6.21548 5.18952C6.25589 5.08421 6.37444 5.03291 6.47816 5.07341C6.69235 5.15712 6.89038 5.26917 7.06819 5.40554C7.5976 5.81732 7.92764 6.41812 8.19572 6.95006C8.88947 8.32852 9.44717 9.77989 9.85265 11.2664C10.1248 12.26 10.3942 13.6993 9.60613 14.7172C8.8531 15.6907 7.49253 15.8338 6.26128 15.8459C6.26532 15.8446 6.26397 15.8446 6.26397 15.8446Z" fill="#BF453F"/>
<path d="M4.62526 16.7115C4.25077 16.7115 3.87897 16.6318 3.55566 16.4725C2.64233 16.0243 1.93375 15.0468 1.56061 13.721C1.52962 13.613 1.59294 13.5009 1.7007 13.4699C1.80847 13.4402 1.92028 13.5023 1.95127 13.6103C2.14929 14.3123 2.64368 15.572 3.73483 16.1066C4.23325 16.351 4.87448 16.3712 5.40658 16.1579C5.82553 15.9905 6.13267 15.6935 6.26873 15.3236C6.41152 14.9374 6.38053 14.4973 6.32665 14.0788C6.06801 12.0995 5.2813 10.2242 4.05274 8.65402C3.82643 8.36509 3.51929 8.01002 3.14614 7.83045C3.04511 7.78185 3.002 7.66034 3.05185 7.55908C3.10034 7.45782 3.22293 7.41597 3.32261 7.46457C3.76985 7.68059 4.11875 8.08022 4.37201 8.4029C5.64636 10.0298 6.46136 11.9739 6.72943 14.0261C6.79005 14.4959 6.82373 14.9955 6.64995 15.4653C6.47348 15.9446 6.08552 16.3253 5.55746 16.5373C5.26379 16.6534 4.94452 16.7115 4.62526 16.7115Z" fill="#BF453F"/>
<path d="M15.3129 14.2279C15.3089 14.2279 15.3049 14.2279 15.3008 14.2279C14.6286 14.1874 13.986 13.881 13.5388 13.3841C13.4634 13.3004 13.4701 13.1721 13.5536 13.0965C13.6371 13.0209 13.7651 13.0277 13.8406 13.1114C14.2177 13.5286 14.7593 13.7878 15.3251 13.8215C15.4369 13.8283 15.5231 13.9242 15.5163 14.0362C15.5083 14.1442 15.4194 14.2279 15.3129 14.2279Z" fill="#BF453F"/>
<path d="M13.1973 34.1607L13.0977 33.5585C15.4376 33.1711 17.7303 32.2881 19.7294 31.0068L20.0581 31.5212C17.9903 32.847 15.6181 33.7597 13.1973 34.1607Z" fill="#213360"/>
<path d="M50.1925 163.38H19.7871V163.99H50.1925V163.38Z" fill="#213360"/>
<path d="M239.618 163.412H65.1211V164.022H239.618V163.412Z" fill="#213360"/>
<path d="M65.12 163.388H50.1914V163.998H65.12V163.388Z" fill="#213360"/>
<path d="M65.2829 169.154C65.1077 169.909 64.9191 170.673 64.7144 171.443L64.6888 171.537L51.5923 171.558C51.1397 170.852 50.7288 170.032 50.3543 169.134C49.5905 167.306 48.9829 165.15 48.5047 162.97C48.3727 162.377 48.2501 161.779 48.137 161.187C47.753 159.168 47.4688 157.196 47.2681 155.513C47.1671 154.68 47.0862 153.914 47.0216 153.251C46.864 151.629 46.8047 150.603 46.8047 150.603L48.4441 150.555L67.4315 150.017C67.4315 150.015 67.6982 158.737 65.2829 169.154Z" fill="white"/>
<path d="M48.1379 161.186C48.2497 161.777 48.3723 162.374 48.5056 162.968C46.1321 163.602 43.3894 162.854 41.82 160.958C40.2183 159.023 40.062 155.958 41.6193 153.986C42.3103 153.111 43.3395 152.453 44.4536 152.414C45.3709 152.382 46.2304 152.757 47.0225 153.248C47.0872 153.911 47.168 154.675 47.269 155.51C46.3449 154.616 44.7769 154.481 43.7167 155.213C42.6929 155.923 42.243 157.316 42.5447 158.525C42.8451 159.733 43.8231 160.72 44.9897 161.148C45.992 161.518 47.1127 161.499 48.1379 161.186Z" fill="white"/>
<path d="M64.6897 171.23L51.5918 171.252L51.5928 171.862L64.6907 171.841L64.6897 171.23Z" fill="#213360"/>
<path d="M191.034 166.478C189.621 162.326 188.917 157.929 188.965 153.541V153.505L194.785 153.399L199.285 153.318L205.389 153.209L205.39 153.357C205.572 158.802 204.592 164.281 202.532 169.321L192.177 169.436C191.755 168.467 191.375 167.48 191.034 166.478Z" fill="#213360"/>
<path d="M198.535 135.273C198.717 141.245 199.267 148.454 199.285 153.278V153.319L194.785 153.4V153.38C194.682 152.269 194.581 151.159 194.478 150.048C194.399 149.201 194.302 148.303 193.774 147.639C193.172 146.829 191.794 146.182 190.545 145.391C189.931 145.002 189.324 144.547 188.987 143.903C188.649 143.258 188.663 142.376 189.2 141.883C189.554 141.555 190.078 141.454 190.551 141.547C191.024 141.638 191.448 141.904 191.806 142.225C192.144 142.533 192.435 142.899 192.81 143.158C193.114 143.37 193.652 143.622 193.909 143.205C193.999 143.058 194.021 142.879 194.025 142.706C194.028 142.634 194.028 142.563 194.029 142.494C194.041 141.804 193.897 141.073 193.843 140.382C193.781 139.603 193.729 138.824 193.691 138.044C193.614 136.48 193.601 134.912 193.712 133.351C193.773 132.462 193.929 131.477 194.632 130.934C195.593 130.193 197.092 130.755 197.762 131.764C198.431 132.776 198.499 134.058 198.535 135.273Z" fill="#FF6B6B"/>
</g>
<defs>
<clipPath id="clip0_1_18452">
<rect width="248.872" height="172" fill="white"/>
</clipPath>
</defs>
</svg>
