<svg width="145" height="254" viewBox="0 0 145 254" fill="none" xmlns="http://www.w3.org/2000/svg">
<g clip-path="url(#clip0_4_1312)">
<path opacity="0.5" d="M99.4588 53.699C98.1881 52.2912 96.1148 51.3413 94.3096 50.9663C81.5133 48.3062 76.1821 76.0629 77.391 82.584C78.5999 89.1052 77.0646 90.9908 66.4914 92.9176C55.9182 94.8445 60.0213 101.796 60.8074 105.647C61.5936 109.499 63.6645 112.938 55.7999 115.62C47.9352 118.301 50.2323 120.912 50.2323 120.912C50.2323 120.912 62.119 137.235 61.9353 132.489C61.7517 127.743 63.9835 120.909 76.3075 122C81.6155 122.47 90.0229 120.928 92.5352 115.299C93.1204 113.988 93.667 111.94 93.5239 110.484C93.3253 108.465 92.2748 106.755 91.8131 104.818C90.7371 100.303 95.1512 97.6866 97.8224 95.1183C99.2169 93.7774 100.615 92.3982 101.752 90.8096C104.113 87.5113 103.862 83.605 102.171 80.0521C101.36 78.3484 100.169 76.4971 99.9618 74.5653C99.7388 72.4904 100.488 69.7952 100.854 67.7398C101.142 66.128 101.49 64.53 101.602 62.8905C101.811 59.8419 101.583 56.0523 99.4588 53.699Z" fill="white"/>
<g opacity="0.8">
<g opacity="0.8">
<path opacity="0.8" d="M48.1553 128.914C48.0628 128.936 47.9673 128.883 47.9335 128.789C47.8965 128.685 47.9472 128.57 48.0471 128.532C48.1085 128.508 54.251 126.129 61.3087 121.806C67.8119 117.823 76.445 111.327 80.6413 103.002C84.1461 96.0483 88.0077 84.2975 91.2369 70.7623C94.1321 58.6251 95.4712 49.5426 95.0933 47.7733C95.0701 47.6656 95.1358 47.5591 95.2396 47.535C95.3434 47.5109 95.4461 47.5791 95.4693 47.6868C95.9113 49.7564 94.2167 59.9342 91.6105 70.8582C88.3746 84.4228 84.5005 96.2062 80.9822 103.186C76.7431 111.597 68.0471 118.143 61.4983 122.154C54.4115 126.494 48.2422 128.883 48.1804 128.907C48.1722 128.91 48.1635 128.912 48.1553 128.914Z" fill="white"/>
</g>
<g opacity="0.8">
<path opacity="0.8" d="M90.9211 73.1477C90.8176 73.1714 90.7209 73.1298 90.6973 73.0224C90.6658 72.8804 87.5063 58.805 81.6717 54.9485C81.582 54.8893 81.5568 54.7722 81.6142 54.6791C81.6713 54.5861 81.7908 54.562 81.8805 54.6212C87.8484 58.5659 90.9431 72.3463 91.0721 72.9323C91.0957 73.0396 91.0261 73.1241 90.9223 73.1477C90.9219 73.1477 90.9215 73.1477 90.9211 73.1477Z" fill="white"/>
</g>
<g opacity="0.8">
<path opacity="0.8" d="M86.656 88.4209C86.5789 88.4385 86.4959 88.4058 86.4515 88.3324C86.3948 88.2389 86.422 88.1157 86.5116 88.0569C86.5506 88.0316 90.466 85.4842 95.1507 83.5324C101.48 80.8952 106.126 80.5401 108.959 82.478C109.048 82.5388 109.072 82.6624 109.014 82.7547C108.955 82.8469 108.836 82.8722 108.747 82.8114C102.229 78.3534 86.8707 88.294 86.7165 88.3952C86.6977 88.4075 86.6772 88.416 86.656 88.4209Z" fill="white"/>
</g>
<g opacity="0.8">
<path opacity="0.8" d="M67.3051 118.23C67.285 118.235 67.2638 118.236 67.2418 118.233C67.136 118.221 67.0601 118.122 67.0719 118.013C67.0782 117.955 67.6893 112.176 67.274 105.947C66.8929 100.236 65.5499 92.9674 61.3135 90.7721C61.2184 90.7227 61.1798 90.6028 61.2274 90.504C61.275 90.4053 61.3906 90.3653 61.4858 90.4146C65.0182 92.2452 67.0951 97.4634 67.6586 105.925C68.0759 112.189 67.4612 117.999 67.4549 118.057C67.4455 118.144 67.3833 118.212 67.3051 118.23Z" fill="white"/>
</g>
<g opacity="0.8">
<path opacity="0.8" d="M76.3421 109.961C76.2611 109.979 76.1749 109.942 76.1325 109.863C76.0806 109.767 76.1136 109.645 76.2064 109.591C76.8793 109.201 92.7455 100.059 98.2718 101.865C98.3733 101.898 98.4295 102.01 98.3977 102.115C98.3658 102.22 98.2577 102.279 98.1562 102.246C92.7864 100.491 76.5576 109.845 76.3944 109.94C76.3775 109.95 76.3598 109.956 76.3421 109.961Z" fill="white"/>
</g>
</g>
<path d="M117.838 66.5985C116.892 64.9386 115.066 63.5459 113.381 62.7738C101.443 57.3026 90.4481 83.2039 90.268 89.8422C90.0879 96.4804 88.1954 97.976 77.4713 97.483C66.7471 96.9901 69.3022 104.698 69.2664 108.634C69.2302 112.571 70.5347 116.394 62.2972 117.246C54.0597 118.098 55.7574 121.162 55.7574 121.162C55.7574 121.162 63.9572 139.768 64.7681 135.093C65.5791 130.418 69.1834 124.248 80.9875 128.081C86.0718 129.732 94.6015 130.115 98.2286 125.183C99.0734 124.035 100.034 122.159 100.198 120.705C100.425 118.689 99.7569 116.784 99.7101 114.789C99.6012 110.14 104.457 108.576 107.6 106.669C109.241 105.673 110.894 104.64 112.336 103.345C115.329 100.655 115.898 96.7848 114.988 92.9361C114.552 91.0904 113.776 89.0159 113.976 87.0833C114.191 85.0075 115.484 82.5445 116.271 80.6201C116.888 79.1107 117.561 77.6291 118.013 76.054C118.853 73.1242 119.421 69.3733 117.838 66.5985Z" fill="#EFCBAB"/>
<g opacity="0.8">
<g opacity="0.8">
<path opacity="0.8" d="M52.0599 128.508C51.9651 128.508 51.8825 128.436 51.8695 128.336C51.855 128.226 51.9285 128.126 52.0339 128.111C52.0984 128.101 58.5917 127.159 66.3841 124.523C73.5641 122.095 83.3475 117.692 89.1813 110.506C94.0536 104.505 100.275 93.8999 106.251 81.4109C111.61 70.2119 114.812 61.6456 114.812 59.8334C114.812 59.7232 114.898 59.6339 115.004 59.6339C115.111 59.6339 115.197 59.7232 115.197 59.8334C115.197 61.9532 111.419 71.5091 106.596 81.5889C100.606 94.1051 94.3663 104.739 89.4751 110.764C83.5819 118.023 73.7261 122.461 66.4961 124.906C58.672 127.551 52.1503 128.498 52.0854 128.507C52.0772 128.508 52.0685 128.508 52.0599 128.508Z" fill="white"/>
</g>
<g opacity="0.8">
<path opacity="0.8" d="M105.446 83.6989C105.34 83.6989 105.254 83.6214 105.254 83.5112C105.253 83.3655 105.104 68.9065 100.213 63.8311C100.137 63.7532 100.137 63.6295 100.213 63.5512C100.288 63.4733 100.41 63.4745 100.485 63.5524C105.488 68.7437 105.635 82.9069 105.639 83.5075C105.639 83.6177 105.554 83.6985 105.447 83.6985C105.447 83.6989 105.446 83.6989 105.446 83.6989Z" fill="white"/>
</g>
<g opacity="0.8">
<path opacity="0.8" d="M98.0959 97.6218C98.0169 97.6218 97.9429 97.5708 97.9146 97.4892C97.8788 97.3855 97.9308 97.2708 98.031 97.2337C98.0743 97.2174 102.429 95.61 107.409 94.7564C114.139 93.6032 118.749 94.3002 121.11 96.8281C121.184 96.9073 121.182 97.0338 121.106 97.1105C121.03 97.1872 120.908 97.1851 120.834 97.106C115.401 91.2899 98.3327 97.5455 98.1608 97.6095C98.1396 97.6181 98.1176 97.6218 98.0959 97.6218Z" fill="white"/>
</g>
<g opacity="0.8">
<path opacity="0.8" d="M72.9851 122.378C72.9643 122.378 72.9434 122.375 72.9226 122.367C72.8219 122.332 72.7684 122.218 72.803 122.114C72.8211 122.059 74.6235 116.554 75.5174 110.38C76.337 104.718 76.5419 97.3201 72.864 94.2254C72.7814 94.1561 72.7688 94.0304 72.8357 93.9443C72.9025 93.8586 73.024 93.8455 73.1062 93.9149C76.173 96.4954 77.1121 102.056 75.8973 110.444C74.9979 116.653 73.1857 122.187 73.1672 122.243C73.1397 122.326 73.0649 122.378 72.9851 122.378Z" fill="white"/>
</g>
<g opacity="0.8">
<path opacity="0.8" d="M83.532 116.335C83.449 116.335 83.3727 116.279 83.3476 116.192C83.3169 116.087 83.3747 115.975 83.4766 115.944C84.2147 115.714 101.612 110.352 106.631 113.356C106.723 113.411 106.755 113.533 106.701 113.629C106.648 113.724 106.53 113.757 106.438 113.702C101.562 110.783 83.766 116.271 83.5871 116.326C83.569 116.332 83.5501 116.335 83.532 116.335Z" fill="white"/>
</g>
</g>
<path d="M81.5507 59.8917L57.2322 44.2746C56.2376 43.6781 54.7625 44.3522 53.6578 44.639C52.5483 44.9271 51.6127 45.6575 51.0625 46.6671L36.0607 74.1153C35.0028 76.0556 34.7028 78.3285 35.3123 80.4059L52.4307 138.741C53.5174 142.443 57.4013 144.116 60.9852 142.456L96.7354 125.908C99.7907 124.493 101.41 120.608 100.424 117.249L84.8801 64.2775C84.3359 62.4229 83.1482 60.8503 81.5507 59.8917ZM60.7394 69.3586C57.9897 70.2351 55.0645 68.6547 54.2327 65.82C53.401 62.9852 54.9906 60.0146 57.7565 59.1931C60.4925 58.3803 63.3504 59.9819 64.166 62.762C64.9821 65.5417 63.4597 68.4915 60.7394 69.3586Z" fill="url(#paint0_linear_4_1312)"/>
<path d="M83.3022 59.3428L73.5184 53.468L58.8186 44.6185C57.8299 44.0252 56.6544 43.8481 55.5583 44.1334C54.4568 44.419 53.5275 45.1453 52.9812 46.15L45.6227 59.6921L38.1784 73.4538C37.1299 75.3839 36.8983 77.629 37.5055 79.6991L54.5598 137.815C55.6425 141.504 59.4757 143.172 63.0309 141.523L72.5187 137.126L89.0594 129.46L98.4421 125.122C101.477 123.716 103.117 119.825 102.135 116.479L86.6478 63.7033C86.1059 61.8544 84.8907 60.2981 83.3022 59.3428ZM59.6386 58.6344C62.3541 57.8273 65.1936 59.4248 66.0064 62.1951C66.819 64.9642 65.3104 67.9022 62.6105 68.7624C59.8816 69.6331 56.9753 68.0552 56.1463 65.2306C55.3181 62.4073 56.8935 59.4493 59.6386 58.6344Z" fill="#F99746"/>
<path d="M77.1369 71.7411L63.0797 76.1824L59.0015 105.544L64.6803 103.349L64.6693 132.179L81.3253 88.1103L73.1019 91.1001L77.1369 71.7411Z" fill="white"/>
<path opacity="0.1" d="M86.6485 63.7034L102.136 116.479C103.118 119.825 101.478 123.717 98.4424 125.122L89.0828 129.453L72.53 137.123C76.0155 129.098 76.0844 122.625 75.0324 117.657C72.7286 106.755 65.3043 104.307 64.8112 93.9342C64.2 81.087 75.1952 76.9301 75.5645 63.9221C75.6455 61.0661 75.2101 57.5515 73.4954 53.4759L83.3029 59.3429C84.8913 60.2982 86.1062 61.8545 86.6485 63.7034Z" fill="url(#paint1_linear_4_1312)"/>
<path d="M76.5409 144.777C76.5409 145.796 75.9356 146.622 75.1884 146.622C74.4416 146.622 73.8359 145.796 73.8359 144.777C73.8359 143.757 74.4416 142.931 75.1884 142.931C75.9356 142.931 76.5409 143.757 76.5409 144.777Z" fill="url(#paint2_linear_4_1312)"/>
<path d="M76.9178 144.794C76.9178 145.814 76.3126 146.64 75.5654 146.64C74.8185 146.64 74.2129 145.814 74.2129 144.794C74.2129 143.775 74.8185 142.949 75.5654 142.949C76.3126 142.949 76.9178 143.775 76.9178 144.794Z" fill="url(#paint3_linear_4_1312)"/>
<path d="M76.1324 144.831C76.1324 145.259 75.8788 145.605 75.5657 145.605C75.2527 145.605 74.999 145.258 74.999 144.831C74.999 144.404 75.2527 144.058 75.5657 144.058C75.8788 144.058 76.1324 144.404 76.1324 144.831Z" fill="url(#paint4_linear_4_1312)"/>
<path d="M75.189 142.541V144.568C75.189 144.866 75.4214 145.107 75.7081 145.107C75.8737 145.107 76.0298 145.025 76.1273 144.886L77.8841 142.39L75.189 142.541Z" fill="#C9CED6"/>
<path d="M91.0194 143.158C91.0194 144.178 90.4138 145.004 89.6669 145.004C88.9201 145.004 88.3145 144.178 88.3145 143.158C88.3145 142.139 88.9201 141.313 89.6669 141.313C90.4141 141.313 91.0194 142.139 91.0194 143.158Z" fill="url(#paint5_linear_4_1312)"/>
<path d="M91.3963 143.176C91.3963 144.195 90.7907 145.021 90.0439 145.021C89.297 145.021 88.6914 144.195 88.6914 143.176C88.6914 142.157 89.297 141.33 90.0439 141.33C90.7911 141.33 91.3963 142.157 91.3963 143.176Z" fill="url(#paint6_linear_4_1312)"/>
<path d="M90.6105 143.213C90.6105 143.64 90.3568 143.986 90.0438 143.986C89.7307 143.986 89.4771 143.64 89.4771 143.213C89.4771 142.786 89.7307 142.44 90.0438 142.44C90.3568 142.439 90.6105 142.786 90.6105 143.213Z" fill="url(#paint7_linear_4_1312)"/>
<path d="M89.667 140.923V142.949C89.667 143.247 89.8994 143.488 90.1861 143.488C90.3521 143.488 90.5078 143.406 90.6053 143.267L92.3621 140.771L89.667 140.923Z" fill="#C9CED6"/>
<path d="M74.9866 142.856C74.8084 142.856 74.6551 142.718 74.6346 142.53C74.6126 142.328 74.7526 142.146 74.9473 142.123L92.0928 140.118C93.026 139.951 93.8039 139.215 94.0552 138.246L100.777 107.827C101.16 106.35 102.405 105.287 103.875 105.182L109.09 104.859C109.286 104.845 109.454 105.001 109.466 105.204C109.477 105.407 109.328 105.581 109.133 105.594L103.921 105.916C102.755 105.999 101.766 106.844 101.462 108.018L94.7403 138.437C94.4178 139.683 93.4177 140.628 92.1927 140.846L75.0271 142.854C75.0133 142.856 75 142.856 74.9866 142.856Z" fill="#D8DEE8"/>
<path d="M86.4551 129.261C86.3009 129.261 86.1589 129.156 86.1141 128.994L82.0768 114.335C82.0229 114.14 82.1318 113.936 82.3202 113.88C82.5082 113.825 82.7048 113.938 82.7587 114.133L86.7961 128.792C86.8499 128.987 86.741 129.191 86.5526 129.247C86.5204 129.256 86.4873 129.261 86.4551 129.261Z" fill="#C2C2C2"/>
<path d="M90.5858 128.647C90.4171 128.647 90.2676 128.522 90.237 128.344L87.7467 113.823C87.7125 113.623 87.8411 113.432 88.0338 113.396C88.2285 113.36 88.411 113.494 88.4452 113.694L90.9354 128.215C90.9696 128.415 90.841 128.606 90.6483 128.642C90.6271 128.646 90.6066 128.647 90.5858 128.647Z" fill="#C2C2C2"/>
<path d="M93.152 128.172C93.1473 128.172 93.1422 128.172 93.1371 128.171C92.9412 128.163 92.7894 127.991 92.7977 127.789L93.3723 113.422C93.3801 113.219 93.537 113.058 93.7411 113.07C93.937 113.078 94.0888 113.25 94.0805 113.452L93.506 127.819C93.4981 128.017 93.3412 128.172 93.152 128.172Z" fill="#C2C2C2"/>
<path d="M80.8218 129.797C80.6735 129.797 80.5355 129.7 80.4855 129.546L75.745 114.881C75.6829 114.688 75.7828 114.479 75.9684 114.415C76.154 114.35 76.355 114.454 76.4175 114.646L81.1581 129.311C81.2202 129.504 81.1203 129.713 80.9347 129.778C80.8973 129.791 80.8592 129.797 80.8218 129.797Z" fill="#D8DEE8"/>
<path d="M121.291 106.872C121.272 106.872 121.252 106.871 121.232 106.869L109.564 105.874C109.174 105.841 108.883 105.485 108.916 105.08C108.947 104.675 109.29 104.373 109.68 104.407L121.349 105.403C121.739 105.436 122.03 105.791 121.997 106.196C121.967 106.58 121.657 106.872 121.291 106.872Z" fill="url(#paint8_linear_4_1312)"/>
<path d="M88.7831 147.137C88.7831 148.156 88.1774 148.983 87.4306 148.983C86.6838 148.983 86.0781 148.156 86.0781 147.137C86.0781 146.118 86.6834 145.291 87.4306 145.291C88.1778 145.291 88.7831 146.118 88.7831 147.137Z" fill="url(#paint9_linear_4_1312)"/>
<path d="M89.1595 147.154C89.1595 148.174 88.5543 149 87.8071 149C87.0602 149 86.4546 148.174 86.4546 147.154C86.4546 146.135 87.0602 145.309 87.8071 145.309C88.5543 145.308 89.1595 146.135 89.1595 147.154Z" fill="url(#paint10_linear_4_1312)"/>
<path d="M88.3741 147.192C88.3741 147.619 88.1205 147.965 87.8074 147.965C87.4944 147.965 87.2407 147.618 87.2407 147.192C87.2407 146.764 87.4944 146.418 87.8074 146.418C88.1205 146.418 88.3741 146.764 88.3741 147.192Z" fill="url(#paint11_linear_4_1312)"/>
<path d="M87.4307 144.902V146.928C87.4307 147.226 87.6631 147.467 87.9498 147.467C88.1158 147.467 88.2715 147.385 88.369 147.246L90.1258 144.75L87.4307 144.902Z" fill="#BFC8D6"/>
<path d="M101.318 145.835C101.318 146.854 100.713 147.68 99.9657 147.68C99.2189 147.68 98.6133 146.854 98.6133 145.835C98.6133 144.815 99.2185 143.989 99.9657 143.989C100.713 143.989 101.318 144.815 101.318 145.835Z" fill="url(#paint12_linear_4_1312)"/>
<path d="M101.695 145.852C101.695 146.872 101.089 147.698 100.342 147.698C99.5954 147.698 98.9897 146.872 98.9897 145.852C98.9897 144.833 99.5954 144.007 100.342 144.007C101.089 144.007 101.695 144.833 101.695 145.852Z" fill="url(#paint13_linear_4_1312)"/>
<path d="M100.909 145.889C100.909 146.317 100.655 146.663 100.342 146.663C100.029 146.663 99.7754 146.316 99.7754 145.889C99.7754 145.462 100.029 145.116 100.342 145.116C100.655 145.116 100.909 145.462 100.909 145.889Z" fill="url(#paint14_linear_4_1312)"/>
<path d="M99.9658 143.599V145.626C99.9658 145.924 100.198 146.165 100.485 146.165C100.651 146.165 100.807 146.083 100.904 145.944L102.661 143.448L99.9658 143.599Z" fill="#BFC8D6"/>
<path d="M69.1924 115.468C69.0083 115.468 68.8526 115.32 68.8388 115.126C68.8247 114.923 68.9718 114.747 69.1672 114.733L99.7034 112.452C99.7321 112.451 99.7604 112.451 99.7883 112.457L112.43 114.691C112.623 114.725 112.753 114.915 112.72 115.115C112.687 115.315 112.506 115.45 112.311 115.416L99.7112 113.189L69.2179 115.467C69.2097 115.467 69.201 115.468 69.1924 115.468Z" fill="#D8DEE8"/>
<path d="M108.421 130.301C108.403 130.301 108.385 130.299 108.367 130.296L95.9274 128.316L77.0019 130.206C76.8073 130.225 76.6338 130.077 76.615 129.875C76.5961 129.673 76.7392 129.493 76.9339 129.474L95.9035 127.58C95.9326 127.577 95.9625 127.578 95.9912 127.583L108.474 129.57C108.668 129.6 108.801 129.788 108.771 129.989C108.744 130.171 108.593 130.301 108.421 130.301Z" fill="#C9CED6"/>
<path d="M95.7924 110.868C95.6685 110.896 95.5509 110.786 95.5336 110.66C95.2245 108.414 94.3416 105.968 93.0658 104.282C91.9242 102.774 91.0436 102.12 89.3781 101.82C89.3762 101.82 89.3392 101.819 89.338 101.819C85.8414 101.433 85.6487 109.895 85.6778 111.064C85.725 112.957 85.5795 111.486 85.4403 111.645C85.3007 111.804 85.1937 112.356 85.167 111.352C85.095 108.679 85.3522 101.567 89.2995 101.263C89.3006 101.263 89.3239 101.263 89.3262 101.263C91.2006 101.525 92.2065 102.254 93.4784 103.922C94.812 105.671 95.7236 108.183 96.0205 110.52C96.0374 110.654 95.9552 110.826 95.8172 110.862C95.8089 110.864 95.7999 110.866 95.7924 110.868Z" fill="url(#paint15_linear_4_1312)"/>
<path d="M79.6368 130.377C81.517 131.055 83.8059 131.392 85.7589 132.091C86.4412 129.006 87.6273 126.029 88.5775 123.026C86.7456 118.884 85.1871 114.614 83.1267 110.586C82.6426 110.729 82.1671 110.868 81.6771 111.013C81.4797 117.745 80.1755 123.011 78.9182 129.44C78.8101 129.992 79.0846 130.178 79.6368 130.377Z" fill="#EE5463"/>
<path opacity="0.3" d="M88.5772 123.026C86.7461 118.884 85.1872 114.615 83.1264 110.586C82.8445 110.691 82.5554 110.711 82.2778 110.871C82.2825 111.783 82.4642 114.222 82.5507 114.912C82.9133 117.801 83.9971 120.658 83.598 123.241C83.2716 125.354 82.0984 125.944 82.1016 127.855C82.1047 129.914 83.7647 131.061 85.361 131.965C85.5124 132.005 85.6284 132.045 85.7645 132.091C86.4339 129.007 87.6314 126.028 88.5772 123.026Z" fill="#AA2835"/>
<path d="M83.1265 110.587C89.5931 110.68 95.1127 110.222 101.476 109.198C104.204 116.239 106.072 122.931 108.112 130.181C100.959 130.48 92.7896 130.912 85.7642 132.091C84.1568 125.293 84.523 117.566 83.1265 110.587Z" fill="#EE5463"/>
<g opacity="0.3">
<path opacity="0.3" d="M101.476 109.198C98.2887 109.703 95.4406 110.074 92.1481 110.326C91.6369 110.365 91.7667 111.176 91.7907 111.758C91.9303 115.169 98.0764 115.042 99.0293 119.092C99.7411 122.117 96.7561 125.641 94.5467 126.979C92.239 128.376 90.1515 127.83 88.3 129.434C87.4922 130.134 87.2145 130.918 86.8838 131.913C93.6331 130.91 101.271 130.464 108.112 130.181C106.082 122.926 104.19 116.243 101.476 109.198Z" fill="url(#paint16_linear_4_1312)"/>
</g>
<path d="M89.063 112.078C88.7983 111.554 89.0838 112.869 88.7586 111.708C88.1431 109.511 87.1812 105.677 88.4349 103.131C88.7983 102.393 89.6364 101.717 90.4241 101.503C94.4831 100.403 97.2722 107.367 98.172 110.113C98.4752 111.038 98.2184 110.627 98.0147 110.472C97.811 110.316 98.2672 112.002 97.6037 110.045C97.144 108.688 94.0536 100.606 90.5736 102.087C89.9384 102.357 89.2691 102.949 88.9171 103.417C87.5811 105.191 88.9344 110.489 89.1405 111.235C89.68 113.188 89.0461 111.253 89.122 112.075C89.1334 112.193 89.1074 112.166 89.063 112.078Z" fill="url(#paint17_linear_4_1312)"/>
<path d="M89.764 112.085C89.7943 112.495 89.5277 112.85 89.1261 112.878C88.7246 112.906 88.4198 112.584 88.3896 112.177C88.3597 111.77 88.618 111.414 89.0196 111.391C89.4207 111.367 89.7337 111.676 89.764 112.085Z" fill="url(#paint18_linear_4_1312)"/>
<path d="M98.7958 110.663C98.8151 111.074 98.561 111.476 98.1697 111.578C97.7788 111.68 97.4779 111.378 97.4563 110.972C97.4347 110.567 97.6997 110.165 98.0942 110.088C98.4891 110.012 98.7765 110.251 98.7958 110.663Z" fill="url(#paint19_linear_4_1312)"/>
<path d="M103.839 119.734C101.89 117.836 99.7316 116.024 97.6123 114.326C97.4306 114.18 97.3378 114.199 97.1565 114.315C96.2417 114.901 95.1524 115.522 94.2486 116.084C93.9454 116.273 93.8699 116.514 94.1078 116.812C95.8496 118.998 97.7012 121.274 99.4009 123.504C99.585 123.746 99.7682 123.759 100.011 123.573C101.25 122.62 102.647 121.541 103.815 120.502C104.09 120.257 104.107 119.995 103.839 119.734ZM96.9343 116.465C96.7058 116.671 96.4097 116.501 96.248 116.281C96.0864 116.061 95.9999 115.711 96.2221 115.5C96.4443 115.289 96.7408 115.455 96.902 115.675C97.0629 115.895 97.1624 116.26 96.9343 116.465Z" fill="#D8DEE8"/>
<path d="M103.837 119.652C101.888 117.752 99.727 115.947 97.6053 114.246C97.4236 114.101 97.3335 114.123 97.1518 114.239C96.2363 114.822 95.15 115.446 94.2455 116.008C93.9419 116.197 93.8656 116.436 94.1039 116.735C95.8473 118.923 97.6996 121.197 99.4013 123.429C99.5854 123.671 99.7683 123.684 100.011 123.497C101.251 122.542 102.647 121.46 103.814 120.419C104.088 120.174 104.105 119.913 103.837 119.652ZM96.9296 116.387C96.7015 116.593 96.4054 116.424 96.2441 116.204C96.0829 115.984 95.9956 115.633 96.2166 115.421C96.438 115.209 96.7353 115.377 96.8962 115.596C97.0574 115.816 97.1577 116.182 96.9296 116.387Z" fill="#F4F7FA"/>
<path d="M95.6654 115.184C95.647 115.188 95.6246 115.173 95.6135 115.153C95.3874 114.759 95.107 114.331 94.7542 114.067C93.7832 113.338 92.684 113.289 91.5597 113.245C90.4353 113.201 89.5143 113.124 88.7033 112.298C88.4949 112.086 88.2825 111.769 88.373 111.474C88.4092 111.356 88.5732 111.351 88.6778 111.342C88.6982 111.34 88.732 111.367 88.7348 111.402C88.7375 111.437 88.697 111.452 88.6825 111.462C88.627 111.499 88.4701 111.419 88.4678 111.547C88.4627 111.815 88.5354 111.971 88.8095 112.245C89.53 112.965 90.49 113.102 91.5703 113.126C92.6947 113.151 93.8458 113.23 94.825 113.968C95.1817 114.236 95.4838 114.685 95.7115 115.09C95.726 115.116 95.7111 115.162 95.6914 115.173C95.6725 115.184 95.6839 115.18 95.6654 115.184Z" fill="#26264F"/>
<path d="M96.2152 116.059C96.1806 116.095 96.1771 116.092 96.1708 116.045C96.1649 115.998 96.0941 116.108 96.1869 115.929C96.2801 115.75 96.5857 115.36 96.4638 114.934C96.3887 114.671 96.4001 114.387 95.947 114.092C94.9764 113.46 93.4568 113.036 92.2491 112.665C91.5093 112.438 90.6807 112.149 89.9685 111.837C89.8069 111.766 89.7125 111.726 89.5618 111.669C89.5296 111.657 89.5174 111.625 89.5272 111.594C89.5371 111.562 89.5642 111.544 89.5968 111.556C89.7518 111.61 89.8478 111.654 90.0129 111.726C90.7189 112.033 91.5506 112.324 92.2845 112.548C93.4938 112.915 95.0433 113.354 96.0143 113.987C96.4941 114.301 96.4953 114.626 96.5755 114.913C96.7049 115.375 96.3737 115.816 96.2734 116.004C96.174 116.19 96.2499 116.024 96.2152 116.059Z" fill="#26264F"/>
<path d="M103.836 119.652C101.885 117.745 99.7285 115.957 97.6045 114.241C97.4224 114.095 97.3304 114.164 97.1534 114.228C97.0739 114.257 96.9788 114.352 96.897 114.392C96.9914 114.663 97.1467 114.981 97.2969 115.203C98.0744 116.351 99.5877 116.398 100.035 117.584C100.43 118.629 99.465 119.399 99.4234 120.649C99.4025 121.27 99.7859 122.645 100.35 123.226C101.499 122.355 102.752 121.377 103.813 120.419C104.088 120.172 104.105 119.915 103.836 119.652Z" fill="white"/>
<path d="M79.5683 118.736C79.5333 118.736 79.4987 118.731 79.4653 118.72L69.0895 115.452C68.9023 115.393 68.7965 115.187 68.8532 114.993C68.9102 114.798 69.1092 114.689 69.2956 114.747L79.6041 117.995L112.336 114.687C112.534 114.665 112.704 114.815 112.723 115.017C112.742 115.22 112.6 115.4 112.405 115.419L79.6025 118.734C79.5911 118.736 79.5797 118.736 79.5683 118.736Z" fill="#D8DEE8"/>
<path d="M85.8657 132.526C85.7296 132.526 85.6045 132.445 85.5451 132.316L79.248 118.526C79.1643 118.342 79.2398 118.123 79.4168 118.036C79.5937 117.949 79.8053 118.027 79.8891 118.211L86.0796 131.767L108.387 129.566C108.585 129.547 108.755 129.696 108.773 129.898C108.792 130.1 108.649 130.28 108.454 130.299L85.8991 132.524C85.8885 132.526 85.8771 132.526 85.8657 132.526Z" fill="#D8DEE8"/>
<path d="M85.8662 132.526C85.8375 132.526 85.8084 132.522 85.7793 132.515L76.8815 130.197C76.7859 130.172 76.7041 130.107 76.6569 130.016L68.8819 115.276C68.7879 115.098 68.8512 114.874 69.0227 114.777C69.1946 114.68 69.4101 114.745 69.5041 114.923L77.2044 129.522L85.9519 131.801C86.1419 131.851 86.2571 132.051 86.2095 132.248C86.1694 132.415 86.0247 132.526 85.8662 132.526Z" fill="#D8DEE8"/>
<path d="M81.859 123.752C81.8251 123.752 81.7917 123.747 81.7591 123.737L71.987 120.765C71.799 120.708 71.6913 120.504 71.7463 120.308C71.8014 120.113 71.9992 120.002 72.1864 120.059L81.8944 123.011L110.749 120.4C110.948 120.379 111.116 120.532 111.133 120.734C111.151 120.937 111.006 121.115 110.811 121.133L81.8896 123.75C81.8794 123.751 81.8692 123.752 81.859 123.752Z" fill="#D8DEE8"/>
<path d="M84.2465 128.98C84.2142 128.98 84.182 128.976 84.1509 128.967L74.7894 126.245C74.6006 126.191 74.4905 125.987 74.5436 125.792C74.5963 125.596 74.7922 125.482 74.9805 125.537L84.2799 128.24L109.337 125.965C109.531 125.944 109.703 126.098 109.721 126.3C109.738 126.502 109.593 126.681 109.398 126.699L84.2771 128.978C84.2669 128.979 84.2567 128.98 84.2465 128.98Z" fill="#D8DEE8"/>
<path d="M90.4709 132.072C90.3183 132.072 90.1772 131.969 90.1311 131.809L86.1154 117.83C86.0596 117.635 86.1662 117.43 86.3541 117.372C86.5413 117.313 86.7392 117.424 86.7954 117.619L90.8111 131.599C90.867 131.793 90.7604 131.998 90.5724 132.056C90.5386 132.067 90.5044 132.072 90.4709 132.072Z" fill="#D8DEE8"/>
<path d="M94.9135 131.633C94.7444 131.633 94.595 131.508 94.5647 131.329L92.1563 117.166C92.1225 116.966 92.2511 116.775 92.4438 116.74C92.6361 116.705 92.8209 116.838 92.8547 117.038L95.2631 131.201C95.297 131.401 95.1684 131.592 94.9757 131.627C94.9548 131.632 94.934 131.633 94.9135 131.633Z" fill="#D8DEE8"/>
<path d="M99.9231 131.042C99.7363 131.042 99.5798 130.891 99.5691 130.695L98.8101 116.632C98.7991 116.429 98.949 116.255 99.1444 116.244C99.3414 116.236 99.5074 116.388 99.5184 116.591L100.277 130.654C100.288 130.857 100.139 131.03 99.9431 131.042C99.9368 131.042 99.9302 131.042 99.9231 131.042Z" fill="#D8DEE8"/>
<path d="M104.67 130.49C104.664 130.49 104.658 130.49 104.651 130.49C104.456 130.479 104.306 130.306 104.316 130.103L105.038 115.816C105.048 115.613 105.213 115.457 105.411 115.468C105.607 115.478 105.756 115.651 105.746 115.855L105.024 130.142C105.014 130.338 104.858 130.49 104.67 130.49Z" fill="#D8DEE8"/>
<path d="M83.1747 131.825C83.0425 131.825 82.9159 131.748 82.8549 131.617L76.3647 117.619C76.2798 117.436 76.3541 117.216 76.5303 117.128C76.7065 117.04 76.9189 117.117 77.0038 117.3L83.4944 131.297C83.5793 131.481 83.505 131.701 83.3288 131.789C83.2785 131.813 83.2262 131.825 83.1747 131.825Z" fill="#D8DEE8"/>
<path d="M79.5688 130.886C79.4386 130.886 79.3132 130.811 79.251 130.682L72.3613 116.362C72.2736 116.18 72.3448 115.959 72.5202 115.869C72.6956 115.777 72.9087 115.852 72.9956 116.034L79.8854 130.354C79.9731 130.536 79.9019 130.756 79.7265 130.847C79.6758 130.873 79.6219 130.886 79.5688 130.886Z" fill="#D8DEE8"/>
<path d="M87.363 145.468C87.3182 145.468 87.2742 145.459 87.2325 145.442L74.8569 142.83C74.6749 142.755 74.5856 142.541 74.6579 142.352C74.7303 142.164 74.9364 142.071 75.1185 142.146L87.4102 144.723L102.894 142.761C103.996 142.621 104.899 141.813 105.194 140.702L113.682 108.729C114.069 107.27 115.307 106.216 116.762 106.107L121.266 105.768C121.459 105.756 121.631 105.906 121.645 106.109C121.659 106.311 121.512 106.488 121.317 106.502L116.813 106.841C115.657 106.928 114.674 107.765 114.366 108.925L105.878 140.898C105.506 142.297 104.369 143.315 102.98 143.491L87.4063 145.466C87.3917 145.467 87.3772 145.468 87.363 145.468Z" fill="#D8DEE8"/>
</g>
<mask id="mask0_4_1312" style="mask-type:alpha" maskUnits="userSpaceOnUse" x="0" y="93" width="145" height="161">
<rect y="93" width="145" height="161" fill="#C4C4C4"/>
</mask>
<g mask="url(#mask0_4_1312)">
<path d="M102.133 139.724C102.987 138.899 103.842 138.076 104.696 137.253C105.545 137.189 119.516 136.312 123.588 144.578C124.148 145.714 126.212 149.905 123.373 153.824C118.612 160.395 102.279 163.164 93.6827 158.464C86.9289 154.77 84.8669 146.418 88.0355 143.807C91.8693 140.648 105.321 144.287 106.345 144.564C108.401 145.12 110.294 145.799 110.562 145.503C111.019 144.999 106.347 142.154 102.133 139.724Z" fill="#E14757"/>
<path d="M19.6461 229.997C19.6461 229.997 20.2038 228.551 18.9845 228.32C17.7668 228.088 11.2527 228.453 8.11557 229.58C4.97856 230.708 7.72365 231.371 9.63917 231.621C11.5547 231.871 15.9918 232.247 17.0915 232.028C18.1894 231.809 19.6461 229.997 19.6461 229.997Z" fill="#EE5463"/>
<path d="M25.4634 231.876C23.5192 231.609 21.8349 231.457 20.5647 231.367C17.7551 231.167 16.5244 231.231 15.3075 231.405C14.246 231.557 11.8527 231.985 11.6754 232.368C11.4957 232.756 13.7668 232.741 19.4517 233.458C20.2773 233.562 22.8985 233.9 22.8985 233.9L25.4634 231.876Z" fill="#FFB27D"/>
<path d="M110.623 198.271C116.064 200.668 115.869 206.411 115.903 216.591C115.93 225.132 116.117 237.719 116.918 253.49C117.135 264.59 117.351 275.691 117.568 286.79C115.105 287.505 112.641 288.221 110.179 288.936C106.398 285.022 101.634 278.731 100.015 269.717C98.6747 262.251 100.866 260.583 99.9696 251.946C99.4771 247.196 98.5051 244.736 90.5696 225.807C84.2564 210.748 83.0373 207.933 85.6562 204.6C90.2749 198.722 103.706 195.223 110.623 198.271Z" fill="#233862"/>
<path opacity="0.4" d="M109.03 276.669C109.87 273.271 112.919 269.184 112.166 263.13C111.279 255.986 106.274 255.55 105.865 248.733C105.473 242.181 109.966 240.431 110.237 233.791C110.551 226.078 104.598 225.761 101.209 217.701C98.1186 210.347 99.4371 201.96 101.284 196.083C95.1021 196.993 88.735 199.723 85.7846 203.345C83.0258 206.732 84.3133 209.586 90.9806 224.851C99.3631 244.039 100.388 246.534 100.911 251.352C101.862 260.112 99.5509 261.809 100.972 269.382C102.687 278.523 107.712 284.897 111.702 288.86C112.561 288.618 113.419 288.377 114.28 288.134C109.215 283.866 108.208 279.999 109.03 276.669Z" fill="#2B478B"/>
<path d="M16.6529 240.125C27.0687 246.833 46.6068 257.238 61.0103 250.309C68.6261 246.645 70.5841 240.165 89.8689 209.585C94.5066 202.231 98.48 196.126 101.306 191.829C92.0989 192.766 82.8898 193.701 73.6825 194.637C68.8199 203.921 65.8462 211.449 64.0588 216.468C59.7883 228.464 58.7644 236.082 53.4794 238.067C50.8957 239.038 48.9664 238.035 45.0118 236.904C39.8343 235.423 31.9419 233.939 20.5578 234.346C19.2576 236.271 17.956 238.198 16.6529 240.125Z" fill="#233862"/>
<path d="M-34.7201 144.036C-31.862 130.436 -8.57027 117.646 4.50748 118.845C13.9292 119.709 13.9384 127.456 23.8465 126.811C32.6712 126.236 35.0779 119.931 45.6189 119.034C53.8652 118.331 55.7212 121.908 64.2635 119.745C67.7159 118.87 69.5364 117.749 74.3828 116.999C78.1203 116.422 81.4831 115.938 84.4227 117.252C84.9317 117.48 89.0708 119.399 88.6424 123.359C88.1571 127.856 82.4488 131.255 80.8378 132.214C75.4856 135.401 70.6442 135.529 67.56 136.188C50.795 139.765 48.4156 162.079 25.5956 175.197C12.9409 182.471 -3.79678 185.65 -9.85964 181.224C-10.5125 180.747 -14.5568 177.795 -13.7916 173.277C-13.198 169.773 -10.1769 168.092 -10.8707 166.13C-11.8444 163.373 -17.7614 164.151 -22.7558 162.829C-31.3188 160.562 -36.3708 151.89 -34.7201 144.036Z" fill="#233862"/>
<path d="M63.298 147.823C70.266 145.734 78.9062 143.232 87.8372 141.331C107.038 137.245 107.405 144.728 104.985 152.369C102.516 160.166 103.552 166.096 103.947 168.198C104.584 171.584 105.812 174.086 108.268 179.089C112.532 187.782 114.958 189.35 113.355 192.371C111.019 196.777 102.92 198.997 101.496 199.366C94.2859 201.227 92.268 198.44 86.1449 199.721C79.0306 201.209 78.0289 205.752 68.6825 211.381C57.6496 218.026 42.6798 221.576 34.8771 217.682C31.8638 216.178 29.6712 213.516 30.6632 212.179C32.0129 210.358 38.0313 212.657 43.5636 209.396C47.2286 207.234 46.5368 205.076 50.775 201.512C55.8758 197.224 59.4149 198.216 62.8883 195.393C68.305 190.99 65.8572 183.566 64.3615 170.59C63.7401 165.217 63.1229 157.492 63.298 147.823Z" fill="#EE5463"/>
<path d="M62.3716 144.561C52.6798 147.608 50.399 155.831 40.46 160.089C34.4381 162.669 25.0434 164.032 10.3172 158.525C8.54774 159.664 6.77825 160.803 5.00895 161.943C8.29836 169.646 14.4103 172.783 17.3558 174.001C34.189 180.959 62.5597 172.725 76.3723 158.917C80.7072 154.584 82.8683 150.441 83.9793 147.803C78.3947 144.829 70.5181 142 62.3716 144.561Z" fill="#EE5463"/>
<path d="M80.1871 132.821C79.5195 132.67 78.6888 133.131 78.54 133.733C78.1302 135.397 77.1989 138.296 75.4808 139.445C73.008 141.1 69.0019 141.833 68.5616 142.333C68.1227 142.833 81.1254 144.032 88.9462 139.552C89.0005 139.521 89.0541 139.486 89.1042 139.449L89.5398 139.13C90.4026 138.498 90.0315 137.538 88.9806 137.682C87.3689 137.903 83.1039 138.208 81.8534 137.173C81.7096 137.054 81.4841 135.862 81.4866 135.678L81.5108 133.634C81.5149 133.318 81.2913 133.071 80.9309 132.989L80.1871 132.821Z" fill="#FFB27D"/>
<path d="M77.0948 133.505C75.4132 132.57 76.044 130.546 76.4259 130.019C76.9687 129.269 78.0479 128.571 78.76 128.39C80.8965 127.846 84.9329 131.292 82.9947 133.178C80.8325 135.284 78.1813 134.608 78.1813 134.608C77.9498 134.704 77.4328 134.887 76.869 134.828C76.7061 134.81 75.9909 134.733 75.9904 134.384C75.9895 134.107 76.4361 133.711 77.0948 133.505Z" fill="#FFB27D"/>
<path d="M8.60476 152.344L7.33721 151.089C7.33721 151.089 11.5758 142.906 7.10756 143.126C2.6374 143.346 4.14207 144.876 4.7685 145.635C5.39473 146.392 5.06057 149.571 4.44979 150.693C3.83921 151.815 5.59951 154.424 5.59951 154.424L8.60476 152.344Z" fill="#FFB27D"/>
<path opacity="0.5" d="M53.0877 210.546C55.4133 208.465 53.275 206.377 55.8163 203.422C58.1421 200.716 61.1831 201.01 65.7089 198.585C71.1489 195.67 74.9719 190.845 76.5047 187.167C77.5972 184.544 77.2624 183.14 74.2295 172.273C71.34 161.925 70.5869 159.411 68.7494 159.596C65.4055 159.93 63.7003 168.672 57.3396 170.565C53.7472 171.635 52.8762 169.268 48.1514 169.301C40.1292 169.358 35.4406 176.231 27.1995 178.48C25.0937 179.055 22.4833 179.39 19.3854 178.994C32.5643 184.286 51.9187 180.541 66.7607 171.951C68.2157 182.91 69.7919 189.463 64.8515 193.489C61.3663 196.33 57.8136 195.33 52.692 199.649C48.4376 203.236 49.1304 205.408 45.453 207.584C39.8996 210.867 33.8586 208.553 32.5036 210.384C31.6006 211.605 33.3361 213.914 35.9213 215.463C37.1763 214.649 38.5862 213.91 40.1574 213.342C46.1629 211.174 50.343 213.001 53.0877 210.546Z" fill="#E14757"/>
<path d="M116.716 114.205L116.835 112.462L119.511 111.129C120.109 110.831 120.779 110.845 121.172 111.163C123.25 112.841 129.17 118.585 126.956 128.097C126.84 128.597 126.36 129.062 125.753 129.262C124.653 129.624 123.438 129.892 123.438 129.892L116.716 114.205Z" fill="#233862"/>
<path d="M102.038 129.456L100.509 134.71C100.509 134.71 99.8222 136.192 99.8023 136.805C98.7678 137.468 96.9588 137.582 96.9588 137.582L96.6129 131.327L101.857 129.411L102.038 129.456Z" fill="url(#paint20_linear_4_1312)"/>
<path d="M103.207 135.51L102.192 133.946C102.192 133.946 101.073 132.74 98.5208 133.229C95.9669 133.719 96.155 134.745 96.155 134.745L97.8528 134.632C97.8528 134.632 98.9504 134.554 99.8587 135.512C101.061 136.407 102.176 136.65 102.176 136.65L103.207 135.51Z" fill="#FFB27D"/>
<path d="M91.2725 128.987C91.2725 128.987 111.043 119.681 118.178 111.83C126.784 115.614 124.092 127.035 124.092 127.035C124.092 127.035 101.401 129.633 92.6483 132.998C90.5594 132.215 91.2725 128.987 91.2725 128.987Z" fill="#334F95"/>
<path d="M131.04 131.94C130.509 131.65 130.262 131.096 130.464 130.461C135.995 112.979 123.754 108.234 123.633 108.189C122.701 107.847 122.498 106.866 123.179 106.002C123.859 105.139 125.167 104.718 126.099 105.061C126.704 105.283 140.756 110.725 134.504 130.479C134.209 131.409 133.067 132.158 131.95 132.154C131.598 132.153 131.288 132.075 131.04 131.94Z" fill="#334F95"/>
<path d="M131.552 100.607C132.343 99.6041 133.861 99.1141 134.943 99.5135C135.646 99.7705 151.964 106.09 144.704 129.033C144.363 130.112 143.035 130.983 141.739 130.977C141.327 130.977 140.968 130.885 140.681 130.728C140.065 130.391 139.777 129.748 140.011 129.013C146.435 108.708 132.218 103.198 132.08 103.146C130.996 102.749 130.761 101.61 131.552 100.607Z" fill="#334F95"/>
</g>
<path d="M49.7247 3.878L46.2037 9.744V14H44.1597V9.737L40.6457 3.878H42.8577L45.1887 7.98L47.4917 3.878H49.7247ZM52.5176 14.14C52.1816 14.14 51.8503 14.0887 51.5236 13.986C51.2016 13.8833 50.9076 13.7317 50.6416 13.531C50.3756 13.3303 50.1609 13.083 49.9976 12.789C49.8389 12.495 49.7596 12.1543 49.7596 11.767V6.762H51.8036V11.508C51.8036 11.844 51.9133 12.1193 52.1326 12.334C52.3519 12.5487 52.6739 12.656 53.0986 12.656C53.4999 12.656 53.8173 12.5533 54.0506 12.348C54.2886 12.138 54.4076 11.8463 54.4076 11.473V6.762H56.4306V14H54.8906L54.6526 12.565C54.5686 12.9897 54.4099 13.3163 54.1766 13.545C53.9479 13.769 53.6843 13.923 53.3856 14.007C53.0916 14.0957 52.8023 14.14 52.5176 14.14ZM65.1287 14H63.0917L61.1387 10.878L60.1797 11.9V14H58.1357V3.598H60.1797V9.765L62.8397 6.762H65.0377L62.4057 9.646L65.1287 14ZM69.4963 14V3.878H73.1643C74.4896 3.878 75.472 4.10667 76.1113 4.564C76.7553 5.01667 77.0773 5.67233 77.0773 6.531C77.0773 7.035 76.949 7.47367 76.6923 7.847C76.4356 8.21567 75.9783 8.53767 75.3203 8.813C75.745 8.92033 76.088 9.065 76.3493 9.247C76.6106 9.429 76.8113 9.632 76.9513 9.856C77.0913 10.0753 77.187 10.3063 77.2383 10.549C77.2896 10.787 77.3153 11.0227 77.3153 11.256C77.3153 12.1893 76.998 12.88 76.3633 13.328C75.7286 13.776 74.7183 14 73.3323 14H69.4963ZM71.5333 12.418H73.3743C73.9903 12.418 74.4546 12.2943 74.7673 12.047C75.0846 11.7997 75.2433 11.4683 75.2433 11.053C75.2433 10.7543 75.1663 10.5047 75.0123 10.304C74.8583 10.0987 74.6483 9.94467 74.3823 9.842C74.121 9.73933 73.8223 9.688 73.4863 9.688H71.5333V12.418ZM71.5333 8.064H73.4863C73.6963 8.064 73.897 8.04067 74.0883 7.994C74.2843 7.94267 74.457 7.86567 74.6063 7.763C74.7603 7.66033 74.8816 7.52967 74.9703 7.371C75.059 7.20767 75.1033 7.01633 75.1033 6.797C75.1033 6.35833 74.9376 6.027 74.6063 5.803C74.2796 5.57433 73.8596 5.46 73.3463 5.46H71.5333V8.064ZM81.4883 14.14C81.1523 14.14 80.821 14.0887 80.4943 13.986C80.1723 13.8833 79.8783 13.7317 79.6123 13.531C79.3463 13.3303 79.1316 13.083 78.9683 12.789C78.8096 12.495 78.7303 12.1543 78.7303 11.767V6.762H80.7743V11.508C80.7743 11.844 80.884 12.1193 81.1033 12.334C81.3226 12.5487 81.6446 12.656 82.0693 12.656C82.4706 12.656 82.788 12.5533 83.0213 12.348C83.2593 12.138 83.3783 11.8463 83.3783 11.473V6.762H85.4013V14H83.8613L83.6233 12.565C83.5393 12.9897 83.3806 13.3163 83.1473 13.545C82.9186 13.769 82.655 13.923 82.3563 14.007C82.0623 14.0957 81.773 14.14 81.4883 14.14ZM87.1064 14V6.762H89.0734V8.477C89.1901 8.10833 89.3534 7.78633 89.5634 7.511C89.7781 7.231 90.0371 7.014 90.3404 6.86C90.6438 6.70133 90.9868 6.622 91.3694 6.622C91.4348 6.622 91.4954 6.62667 91.5514 6.636C91.6121 6.64067 91.6564 6.65 91.6844 6.664V8.61C91.6424 8.59133 91.5911 8.57967 91.5304 8.575C91.4744 8.57033 91.4231 8.56567 91.3764 8.561C90.9751 8.52833 90.6321 8.54 90.3474 8.596C90.0628 8.652 89.8318 8.74767 89.6544 8.883C89.4771 9.01833 89.3488 9.184 89.2694 9.38C89.1901 9.576 89.1504 9.79533 89.1504 10.038V14H87.1064ZM95.4609 14.14C95.1249 14.14 94.7936 14.0887 94.4669 13.986C94.1449 13.8833 93.8509 13.7317 93.5849 13.531C93.3189 13.3303 93.1043 13.083 92.9409 12.789C92.7823 12.495 92.7029 12.1543 92.7029 11.767V6.762H94.7469V11.508C94.7469 11.844 94.8566 12.1193 95.0759 12.334C95.2953 12.5487 95.6173 12.656 96.0419 12.656C96.4433 12.656 96.7606 12.5533 96.9939 12.348C97.2319 12.138 97.3509 11.8463 97.3509 11.473V6.762H99.3739V14H97.8339L97.5959 12.565C97.5119 12.9897 97.3533 13.3163 97.1199 13.545C96.8913 13.769 96.6276 13.923 96.3289 14.007C96.0349 14.0957 95.7456 14.14 95.4609 14.14ZM103.138 14.14C102.676 14.14 102.261 14.0537 101.892 13.881C101.523 13.7083 101.232 13.4587 101.017 13.132C100.802 12.8007 100.695 12.3993 100.695 11.928C100.695 11.1347 100.991 10.5327 101.584 10.122C102.177 9.70667 103.112 9.492 104.391 9.478L105.294 9.464V9.03C105.294 8.69867 105.196 8.44433 105 8.267C104.809 8.085 104.51 7.99633 104.104 8.001C103.805 8.00567 103.521 8.07567 103.25 8.211C102.984 8.34633 102.802 8.582 102.704 8.918H101.003C101.031 8.39533 101.183 7.966 101.458 7.63C101.733 7.28933 102.107 7.03733 102.578 6.874C103.054 6.706 103.593 6.622 104.195 6.622C104.937 6.622 105.532 6.71533 105.98 6.902C106.428 7.084 106.752 7.34767 106.953 7.693C107.154 8.03367 107.254 8.43967 107.254 8.911V14H105.546L105.378 12.754C105.131 13.2767 104.82 13.6383 104.447 13.839C104.078 14.0397 103.642 14.14 103.138 14.14ZM103.824 12.796C104.011 12.796 104.19 12.7633 104.363 12.698C104.54 12.628 104.697 12.537 104.832 12.425C104.972 12.3083 105.084 12.1777 105.168 12.033C105.252 11.8883 105.294 11.739 105.294 11.585V10.514L104.559 10.528C104.218 10.5327 103.901 10.5747 103.607 10.654C103.313 10.7287 103.075 10.8523 102.893 11.025C102.716 11.1977 102.627 11.431 102.627 11.725C102.627 12.061 102.744 12.3247 102.977 12.516C103.21 12.7027 103.493 12.796 103.824 12.796ZM109.063 14V6.762H111.072V7.784C111.184 7.60667 111.329 7.43633 111.506 7.273C111.688 7.105 111.917 6.96733 112.192 6.86C112.468 6.75267 112.794 6.699 113.172 6.699C113.616 6.699 114.029 6.78533 114.411 6.958C114.799 7.13067 115.111 7.40367 115.349 7.777C115.587 8.14567 115.706 8.62867 115.706 9.226V14H113.662V9.478C113.662 9.086 113.546 8.792 113.312 8.596C113.079 8.4 112.794 8.302 112.458 8.302C112.234 8.302 112.017 8.34167 111.807 8.421C111.602 8.50033 111.434 8.61933 111.303 8.778C111.173 8.93667 111.107 9.13267 111.107 9.366V14H109.063ZM56.2551 21.878H58.2921V32H56.2551V21.878ZM67.2957 32H65.2587L63.3057 28.878L62.3467 29.9V32H60.3027V21.598H62.3467V27.765L65.0067 24.762H67.2047L64.5727 27.646L67.2957 32ZM70.9951 32.14C70.6591 32.14 70.3278 32.0887 70.0011 31.986C69.6791 31.8833 69.3851 31.7317 69.1191 31.531C68.8531 31.3303 68.6385 31.083 68.4751 30.789C68.3165 30.495 68.2371 30.1543 68.2371 29.767V24.762H70.2811V29.508C70.2811 29.844 70.3908 30.1193 70.6101 30.334C70.8295 30.5487 71.1515 30.656 71.5761 30.656C71.9775 30.656 72.2948 30.5533 72.5281 30.348C72.7661 30.138 72.8851 29.8463 72.8851 29.473V24.762H74.9081V32H73.3681L73.1301 30.565C73.0461 30.9897 72.8875 31.3163 72.6541 31.545C72.4255 31.769 72.1618 31.923 71.8631 32.007C71.5691 32.0957 71.2798 32.14 70.9951 32.14ZM80.9823 26.183H79.3723L79.3863 30.04C79.3863 30.2173 79.4073 30.3503 79.4493 30.439C79.4959 30.523 79.5659 30.579 79.6593 30.607C79.7573 30.6303 79.8809 30.642 80.0303 30.642H81.0033V31.902C80.9099 31.944 80.7629 31.9837 80.5623 32.021C80.3663 32.0583 80.0909 32.077 79.7363 32.077C79.1016 32.077 78.6093 31.9953 78.2593 31.832C77.9139 31.6687 77.6736 31.44 77.5383 31.146C77.4029 30.852 77.3353 30.5113 77.3353 30.124V26.183H76.1593V24.762H77.4053L77.9163 22.578H79.3723V24.755H80.9823V26.183ZM84.5785 32.14C84.1165 32.14 83.7012 32.0537 83.3325 31.881C82.9638 31.7083 82.6722 31.4587 82.4575 31.132C82.2428 30.8007 82.1355 30.3993 82.1355 29.928C82.1355 29.1347 82.4318 28.5327 83.0245 28.122C83.6172 27.7067 84.5528 27.492 85.8315 27.478L86.7345 27.464V27.03C86.7345 26.6987 86.6365 26.4443 86.4405 26.267C86.2492 26.085 85.9505 25.9963 85.5445 26.001C85.2458 26.0057 84.9612 26.0757 84.6905 26.211C84.4245 26.3463 84.2425 26.582 84.1445 26.918H82.4435C82.4715 26.3953 82.6232 25.966 82.8985 25.63C83.1738 25.2893 83.5472 25.0373 84.0185 24.874C84.4945 24.706 85.0335 24.622 85.6355 24.622C86.3775 24.622 86.9725 24.7153 87.4205 24.902C87.8685 25.084 88.1928 25.3477 88.3935 25.693C88.5942 26.0337 88.6945 26.4397 88.6945 26.911V32H86.9865L86.8185 30.754C86.5712 31.2767 86.2608 31.6383 85.8875 31.839C85.5188 32.0397 85.0825 32.14 84.5785 32.14ZM85.2645 30.796C85.4512 30.796 85.6308 30.7633 85.8035 30.698C85.9808 30.628 86.1372 30.537 86.2725 30.425C86.4125 30.3083 86.5245 30.1777 86.6085 30.033C86.6925 29.8883 86.7345 29.739 86.7345 29.585V28.514L85.9995 28.528C85.6588 28.5327 85.3415 28.5747 85.0475 28.654C84.7535 28.7287 84.5155 28.8523 84.3335 29.025C84.1562 29.1977 84.0675 29.431 84.0675 29.725C84.0675 30.061 84.1842 30.3247 84.4175 30.516C84.6508 30.7027 84.9332 30.796 85.2645 30.796ZM90.5039 32V24.762H92.5129V25.784C92.6249 25.6067 92.7696 25.4363 92.9469 25.273C93.1289 25.105 93.3576 24.9673 93.6329 24.86C93.9082 24.7527 94.2349 24.699 94.6129 24.699C95.0562 24.699 95.4692 24.7853 95.8519 24.958C96.2392 25.1307 96.5519 25.4037 96.7899 25.777C97.0279 26.1457 97.1469 26.6287 97.1469 27.226V32H95.1029V27.478C95.1029 27.086 94.9862 26.792 94.7529 26.596C94.5196 26.4 94.2349 26.302 93.8989 26.302C93.6749 26.302 93.4579 26.3417 93.2479 26.421C93.0426 26.5003 92.8746 26.6193 92.7439 26.778C92.6132 26.9367 92.5479 27.1327 92.5479 27.366V32H90.5039ZM100.945 29.816V32H98.7117V29.816H100.945ZM101.029 21.878L100.49 28.878H99.2087L98.6347 21.878H101.029Z" fill="#2B478B"/>
<defs>
<linearGradient id="paint0_linear_4_1312" x1="98.0196" y1="217.516" x2="-43.6148" y2="-300.369" gradientUnits="userSpaceOnUse">
<stop offset="0.003597" stop-color="#F36F56"/>
<stop offset="1" stop-color="#FFC444"/>
</linearGradient>
<linearGradient id="paint1_linear_4_1312" x1="61.3394" y1="98.9843" x2="94.1738" y2="89.3479" gradientUnits="userSpaceOnUse">
<stop offset="0.003597" stop-color="#F36F56"/>
<stop offset="1" stop-color="#FFC444"/>
</linearGradient>
<linearGradient id="paint2_linear_4_1312" x1="73.7279" y1="143.502" x2="74.4988" y2="144.127" gradientUnits="userSpaceOnUse">
<stop stop-color="#AA80F9"/>
<stop offset="0.9964" stop-color="#6165D7"/>
</linearGradient>
<linearGradient id="paint3_linear_4_1312" x1="74.2133" y1="144.794" x2="76.9179" y2="144.794" gradientUnits="userSpaceOnUse">
<stop stop-color="#AA80F9"/>
<stop offset="0.9964" stop-color="#6165D7"/>
</linearGradient>
<linearGradient id="paint4_linear_4_1312" x1="74.9992" y1="144.831" x2="76.1325" y2="144.831" gradientUnits="userSpaceOnUse">
<stop stop-color="#40447E"/>
<stop offset="0.9964" stop-color="#3C3B6B"/>
</linearGradient>
<linearGradient id="paint5_linear_4_1312" x1="88.2065" y1="141.884" x2="88.9773" y2="142.509" gradientUnits="userSpaceOnUse">
<stop stop-color="#AA80F9"/>
<stop offset="0.9964" stop-color="#6165D7"/>
</linearGradient>
<linearGradient id="paint6_linear_4_1312" x1="88.6919" y1="143.176" x2="91.3965" y2="143.176" gradientUnits="userSpaceOnUse">
<stop stop-color="#AA80F9"/>
<stop offset="0.9964" stop-color="#6165D7"/>
</linearGradient>
<linearGradient id="paint7_linear_4_1312" x1="89.4773" y1="143.213" x2="90.6106" y2="143.213" gradientUnits="userSpaceOnUse">
<stop stop-color="#40447E"/>
<stop offset="0.9964" stop-color="#3C3B6B"/>
</linearGradient>
<linearGradient id="paint8_linear_4_1312" x1="108.913" y1="105.638" x2="122" y2="105.638" gradientUnits="userSpaceOnUse">
<stop stop-color="#40447E"/>
<stop offset="0.9964" stop-color="#3C3B6B"/>
</linearGradient>
<linearGradient id="paint9_linear_4_1312" x1="85.97" y1="145.862" x2="86.7409" y2="146.487" gradientUnits="userSpaceOnUse">
<stop stop-color="#AA80F9"/>
<stop offset="0.9964" stop-color="#6165D7"/>
</linearGradient>
<linearGradient id="paint10_linear_4_1312" x1="86.4549" y1="147.154" x2="89.1595" y2="147.154" gradientUnits="userSpaceOnUse">
<stop stop-color="#AA80F9"/>
<stop offset="0.9964" stop-color="#6165D7"/>
</linearGradient>
<linearGradient id="paint11_linear_4_1312" x1="87.2408" y1="147.192" x2="88.3741" y2="147.192" gradientUnits="userSpaceOnUse">
<stop stop-color="#40447E"/>
<stop offset="0.9964" stop-color="#3C3B6B"/>
</linearGradient>
<linearGradient id="paint12_linear_4_1312" x1="98.5053" y1="144.56" x2="99.2761" y2="145.185" gradientUnits="userSpaceOnUse">
<stop stop-color="#AA80F9"/>
<stop offset="0.9964" stop-color="#6165D7"/>
</linearGradient>
<linearGradient id="paint13_linear_4_1312" x1="98.9902" y1="145.852" x2="101.695" y2="145.852" gradientUnits="userSpaceOnUse">
<stop stop-color="#AA80F9"/>
<stop offset="0.9964" stop-color="#6165D7"/>
</linearGradient>
<linearGradient id="paint14_linear_4_1312" x1="99.7756" y1="145.889" x2="100.909" y2="145.889" gradientUnits="userSpaceOnUse">
<stop stop-color="#40447E"/>
<stop offset="0.9964" stop-color="#3C3B6B"/>
</linearGradient>
<linearGradient id="paint15_linear_4_1312" x1="80.7824" y1="106.954" x2="89.712" y2="106.58" gradientUnits="userSpaceOnUse">
<stop stop-color="#311944"/>
<stop offset="1" stop-color="#893976"/>
</linearGradient>
<linearGradient id="paint16_linear_4_1312" x1="92.8752" y1="117.375" x2="104.975" y2="144.761" gradientUnits="userSpaceOnUse">
<stop stop-color="#AA80F9"/>
<stop offset="0.9964" stop-color="#6165D7"/>
</linearGradient>
<linearGradient id="paint17_linear_4_1312" x1="94.1593" y1="98.4812" x2="89.9329" y2="133.25" gradientUnits="userSpaceOnUse">
<stop stop-color="#311944"/>
<stop offset="1" stop-color="#893976"/>
</linearGradient>
<linearGradient id="paint18_linear_4_1312" x1="96.2517" y1="97.9671" x2="84.9424" y2="118.703" gradientUnits="userSpaceOnUse">
<stop stop-color="#311944"/>
<stop offset="1" stop-color="#893976"/>
</linearGradient>
<linearGradient id="paint19_linear_4_1312" x1="103.661" y1="99.8973" x2="91.4812" y2="122.23" gradientUnits="userSpaceOnUse">
<stop stop-color="#311944"/>
<stop offset="1" stop-color="#893976"/>
</linearGradient>
<linearGradient id="paint20_linear_4_1312" x1="107.137" y1="129.388" x2="87.4155" y2="140.291" gradientUnits="userSpaceOnUse">
<stop stop-color="#AB316D"/>
<stop offset="1" stop-color="#792D3D"/>
</linearGradient>
<clipPath id="clip0_4_1312">
<rect width="87" height="105" fill="white" transform="translate(35 44)"/>
</clipPath>
</defs>
</svg>
